<svg xmlns="http://www.w3.org/2000/svg" width="120" height="120" viewBox="0 0 120 120">
  <g id="Group_1074130" data-name="Group 1074130" transform="translate(-180 -10121)">
    <g id="Group_1074027" data-name="Group 1074027" transform="translate(-89 9163)">
      <path id="Path_608972" data-name="Path 608972" d="M60,0A60,60,0,1,1,0,60,60,60,0,0,1,60,0Z" transform="translate(269 958)" fill="#0c5e46"/>
    </g>
    <g id="Group_1074099" data-name="Group 1074099" transform="translate(72 -18)">
      <g id="OUTLINE" transform="translate(131 10161)">
        <path id="Path_612876" data-name="Path 612876" d="M87.781,30.851a2.478,2.478,0,0,0,2.475-2.475V20.95A4.956,4.956,0,0,0,85.306,16H27.138a3.717,3.717,0,0,0-3.713,3.713V80.356h-4.95A2.478,2.478,0,0,0,16,82.831v2.475a4.956,4.956,0,0,0,4.95,4.95H63.029V87.781H20.95a2.478,2.478,0,0,1-2.475-2.475V82.831H46.651a3.7,3.7,0,0,0,2.764,1.238H63.672L69.217,91l5.545-6.932H86.544a3.717,3.717,0,0,0,3.713-3.713V53.128a3.717,3.717,0,0,0-3.713-3.713H82.831V30.851Zm-4.95-9.9a2.475,2.475,0,1,1,4.95,0v7.426h-4.95ZM45.7,53.128V80.356H25.9V19.713a1.239,1.239,0,0,1,1.238-1.238H81.022a4.919,4.919,0,0,0-.666,2.475V49.415H49.415A3.717,3.717,0,0,0,45.7,53.128Zm40.841-1.238a1.239,1.239,0,0,1,1.238,1.238V80.356a1.239,1.239,0,0,1-1.238,1.238H73.573l-4.356,5.445-4.356-5.445H49.415a1.239,1.239,0,0,1-1.238-1.238V53.128a1.239,1.239,0,0,1,1.238-1.238Z" transform="translate(-16 -16)" fill="#fff"/>
        <path id="Path_612877" data-name="Path 612877" d="M241.238,290.36h7.426v-6.876l1.238-1.117v-6.42a3.693,3.693,0,0,0-2.16-3.373,3.7,3.7,0,0,0,.922-2.454v-.507a3.693,3.693,0,0,0-2.052-3.321,3.731,3.731,0,0,0-3.321,0,3.692,3.692,0,0,0-2.052,3.321v.507a3.7,3.7,0,0,0,.922,2.454,3.694,3.694,0,0,0-2.16,3.373v6.42l1.238,1.117Zm2.475-20.747a1.238,1.238,0,1,1,2.475,0v.507a1.232,1.232,0,0,1-.778,1.149l-.46.184-.46-.184a1.232,1.232,0,0,1-.778-1.149Zm-1.238,6.334a1.232,1.232,0,0,1,.778-1.149l1.7-.679,1.7.679a1.232,1.232,0,0,1,.778,1.149v5.32l-1.238,1.117v5.5h-2.475v-5.5l-1.238-1.117Z" transform="translate(-205.347 -227.242)" fill="#fff"/>
        <path id="Path_612878" data-name="Path 612878" d="M321.238,290.36h7.426v-6.876l1.238-1.117v-6.42a3.693,3.693,0,0,0-2.16-3.373,3.7,3.7,0,0,0,.922-2.454v-.507a3.693,3.693,0,0,0-2.053-3.321,3.731,3.731,0,0,0-3.321,0,3.693,3.693,0,0,0-2.052,3.321v.507a3.7,3.7,0,0,0,.922,2.454,3.693,3.693,0,0,0-2.16,3.373v6.42l1.238,1.117Zm2.475-20.747a1.238,1.238,0,0,1,2.475,0v.507a1.232,1.232,0,0,1-.778,1.149l-.46.184-.46-.184a1.232,1.232,0,0,1-.778-1.149Zm-1.238,6.334a1.232,1.232,0,0,1,.778-1.149l1.7-.679,1.7.679a1.232,1.232,0,0,1,.778,1.149v5.32l-1.238,1.117v5.5h-2.475v-5.5l-1.238-1.117Z" transform="translate(-272.971 -227.242)" fill="#fff"/>
        <path id="Path_612879" data-name="Path 612879" d="M401.237,290.36h7.426v-6.876l1.238-1.117v-6.42a3.693,3.693,0,0,0-2.16-3.373,3.7,3.7,0,0,0,.922-2.454v-.507a3.693,3.693,0,0,0-2.052-3.321,3.731,3.731,0,0,0-3.321,0,3.692,3.692,0,0,0-2.052,3.321v.507a3.7,3.7,0,0,0,.922,2.454,3.693,3.693,0,0,0-2.16,3.373v6.42l1.238,1.117Zm2.475-20.747a1.238,1.238,0,1,1,2.475,0v.507a1.232,1.232,0,0,1-.778,1.149l-.46.184-.46-.184a1.232,1.232,0,0,1-.778-1.149Zm-1.238,6.334a1.232,1.232,0,0,1,.778-1.149l1.7-.679,1.7.679a1.232,1.232,0,0,1,.778,1.149v5.32l-1.238,1.117v5.5h-2.475v-5.5l-1.238-1.117Z" transform="translate(-340.595 -227.242)" fill="#fff"/>
        <path id="Path_612880" data-name="Path 612880" d="M268.376,80.752A12.376,12.376,0,1,0,256,68.376,12.376,12.376,0,0,0,268.376,80.752Zm1.238-22.2a9.892,9.892,0,0,1,7.746,13.976l-7.746-4.841Zm6.432,16.074a9.887,9.887,0,0,1-15.339,0l7.67-4.794Zm-17.571-6.253a9.914,9.914,0,0,1,8.663-9.821V67.69l-7.746,4.841a9.839,9.839,0,0,1-.917-4.155Z" transform="translate(-218.872 -49.812)" fill="#fff"/>
        <path id="Path_612881" data-name="Path 612881" d="M118.277,105.327H115.8V88h-2.475v17.327h-2.475V91.713h-2.475v13.614H105.9v-9.9h-2.475v9.9H100.95V99.138H98.475v6.188H96V107.8h22.277Z" transform="translate(-83.624 -76.862)" fill="#fff"/>
        <path id="Path_612882" data-name="Path 612882" d="M96,64h14.851v2.475H96Z" transform="translate(-83.624 -56.574)" fill="#fff"/>
        <path id="Path_612883" data-name="Path 612883" d="M96,240h2.475v2.475H96Z" transform="translate(-83.624 -205.347)" fill="#fff"/>
        <path id="Path_612884" data-name="Path 612884" d="M128,240h9.9v2.475H128Z" transform="translate(-110.673 -205.347)" fill="#fff"/>
        <path id="Path_612885" data-name="Path 612885" d="M96,288h2.475v2.475H96Z" transform="translate(-83.624 -245.921)" fill="#fff"/>
        <path id="Path_612886" data-name="Path 612886" d="M128,288h9.9v2.475H128Z" transform="translate(-110.673 -245.921)" fill="#fff"/>
        <path id="Path_612887" data-name="Path 612887" d="M96,336h2.475v2.475H96Z" transform="translate(-83.624 -286.496)" fill="#fff"/>
        <path id="Path_612888" data-name="Path 612888" d="M128,336h9.9v2.475H128Z" transform="translate(-110.673 -286.496)" fill="#fff"/>
        <path id="Path_612889" data-name="Path 612889" d="M96,384h2.475v2.475H96Z" transform="translate(-83.624 -327.07)" fill="#fff"/>
        <path id="Path_612890" data-name="Path 612890" d="M128,384h9.9v2.475H128Z" transform="translate(-110.673 -327.07)" fill="#fff"/>
      </g>
    </g>
  </g>
</svg>
