<svg xmlns="http://www.w3.org/2000/svg" xmlns:xlink="http://www.w3.org/1999/xlink" width="190" height="190" viewBox="0 0 190 190">
  <defs>
    <clipPath id="clip-path">
      <rect id="Rect치ngulo_377964" data-name="Rect치ngulo 377964" width="190" height="190" transform="translate(1125 5923)" fill="#fff" stroke="#707070" stroke-width="1"/>
    </clipPath>
    <clipPath id="clip-path-2">
      <rect id="Rect치ngulo_377968" data-name="Rect치ngulo 377968" width="165.117" height="165.099" fill="none"/>
    </clipPath>
  </defs>
  <g id="Enmascarar_grupo_154284" data-name="Enmascarar grupo 154284" transform="translate(-1125 -5923)" clip-path="url(#clip-path)">
    <g id="Grupo_1072728" data-name="Grupo 1072728" transform="translate(1137.683 5935.684)">
      <g id="Grupo_1072727" data-name="Grupo 1072727" clip-path="url(#clip-path-2)">
        <path id="Trazado_609731" data-name="Trazado 609731" d="M115.008,39.239c2.974-5.824,7.737-8.444,14.26-8.321,7.421.139,14.846.032,22.293.032-1.125-3.552-3.712-5.385-7.872-5.409q-13.613-.078-27.227,0c-1.642.009-2.894.028-2.543-2.207.253-1.608-.724-3.525,2.48-3.441,9.161.239,18.333.054,27.5.1,6.295.029,11.149,3.319,13.259,9.209a2.283,2.283,0,0,0,2.672,1.813c7.334-.063,14.668-.047,22-.024,8.873.028,14.641,5.745,14.666,14.574q.046,15.676,0,31.353c-.025,8.831-5.793,14.551-14.655,14.592-3.94.018-7.881,0-12.427,0,2.14,2.805,3.947,5.362,5.947,7.758a31.4,31.4,0,0,1,7.409,20.982c-.073,16.5-.019,33-.025,49.5,0,3.589-.708,4.281-4.358,4.282q-46.891.006-93.782,0c-8.843,0-14.6-5.782-14.648-14.6-.017-3.392.195-6.8-.07-10.171-.186-2.375.657-3.084,2.806-2.815,21.894.026,43.788-.034,65.681.17,3.25.03,3.13-2.408,4.286-3.995,1.286-1.764-.511-2.442-1.352-3.3-4.677-4.778-9.5-9.413-14.127-14.241-3.581-3.739-4.706-8.183-2.836-13.157a11.935,11.935,0,0,1,10.5-8.067c4.076-.466,7.518,1.107,10.394,3.981,2.268,2.266,4.549,4.519,7.122,7.073V104.22c-1.561.858-3.03,1.613-4.446.306-1.283-1.184-.873-2.623-.543-4.1.519-2.317.733-4.709,1.365-6.99.462-1.669.051-1.983-1.556-1.964-6.137.077-12.276.043-18.414.028-9.019-.023-14.759-5.745-14.775-14.75-.019-10.078.028-20.155-.028-30.233a24.078,24.078,0,0,1,1.042-7.282M168,131.181l-3.338,3.345c-1.142-.112-1.64-1.1-2.329-1.781Q152.1,122.563,141.91,112.338a9.7,9.7,0,0,0-3.743-2.7,7.062,7.062,0,0,0-7.988,2.771,6.784,6.784,0,0,0,.951,8.792c5.388,5.5,10.868,10.908,16.309,16.356,2.929,2.932,2.929,3.191.694,6.731-4.469,7.079-4.806,14.381-1.187,21.924a3.568,3.568,0,0,0,3.757,2.376q12.1-.209,24.205-.007c1.962.029,2.394-.521,2.384-2.423-.081-15.5-.047-30.993-.045-46.489a29.607,29.607,0,0,0-.979-7.316c-1.261-4.975-4.5-8.726-7.532-12.619-3.677-4.72-3.62-4.631-8.462-1.411a4.509,4.509,0,0,0-2.325,4.439c.166,4.946.135,9.9,0,14.852a6.269,6.269,0,0,0,2.025,5.04c2.749,2.763,5.926,5.148,8.023,8.529m22.968-58.647c0-9.773.123-19.011-.051-28.243-.088-4.613-3.77-7.781-8.607-7.79q-27.074-.05-54.147,0c-5.194.011-8.6,3.435-8.67,8.6-.057,4.214-.012,8.429-.012,12.643V71.511a.988.988,0,0,0,1.242-.212c5.054-3.787,10.176-7.488,15.135-11.395,2.119-1.67,3.738-1.578,5.822.042,5.78,4.491,11.721,8.774,17.532,13.225a2.38,2.38,0,0,0,3.327.113c3.9-2.725,7.953-5.232,11.822-8,2.006-1.435,3.655-1.541,5.693-.07,3.4,2.452,6.956,4.684,10.914,7.319m-49.058,95.946a25.049,25.049,0,0,1-2.772-14.12c.24-2.108-.528-2.331-2.34-2.325-17.863.058-35.725.008-53.587.048-2.525.006-5.992-1.139-7.318.5-1.265,1.563-.426,4.891-.379,7.441.089,4.906,3.395,8.412,8.245,8.43,19.233.069,38.467.028,58.152.028m12.169-72.7c4.383-3.129,8.19-5.793,11.929-8.548a6.643,6.643,0,0,1,4.3-1.406c3.938.087,7.878.051,11.818.02a8.319,8.319,0,0,0,7.707-4.36c.829-1.452.7-2.44-.817-3.4-3.4-2.151-6.757-4.384-10.026-6.731-1.37-.983-2.34-.768-3.607.112-3.756,2.609-7.675,4.99-11.365,7.688-2.379,1.74-4.23,1.726-6.584-.142-5.59-4.436-11.4-8.594-17.072-12.928-1.088-.831-1.851-1.1-3.082-.152q-7.938,6.115-16.037,12.021a2.218,2.218,0,0,0-.77,3.262c1.71,3.279,4.492,4.644,8.087,4.64,7.7-.009,15.392-.025,23.088.008,3.084.013,4.113,1.315,3.557,4.355-.293,1.605-.648,3.2-1.131,5.559" transform="translate(-31.407 -8.941)" fill="#020303"/>
        <path id="Trazado_609732" data-name="Trazado 609732" d="M117.32,55.021a24.061,24.061,0,0,0-1.042,7.282c.055,10.078.009,20.155.027,30.233.017,9,5.756,14.727,14.775,14.75,6.138.015,12.277.049,18.414-.028,1.606-.02,2.018.3,1.556,1.963-.631,2.281-.846,4.674-1.365,6.99-.33,1.474-.74,2.912.543,4.1,1.415,1.307,2.886.551,4.446-.307v10.686c-2.572-2.554-4.853-4.807-7.121-7.073-2.876-2.874-6.318-4.447-10.394-3.981a11.933,11.933,0,0,0-10.5,8.067c-1.871,4.974-.746,9.418,2.835,13.157,4.625,4.827,9.45,9.463,14.127,14.241.842.859,2.638,1.537,1.352,3.3-1.156,1.586-1.035,4.025-4.285,3.995-21.893-.2-43.788-.144-65.681-.17q0-2.666,0-5.333c5.579-.03,11.16.015,16.738-.11a13.583,13.583,0,0,0,13.486-13.2q.255-8.777,0-17.566A13.763,13.763,0,0,0,95,113.228c-1.709-.46-4.349.421-4.926-1.07s.58-3.657.979-5.527a3.773,3.773,0,0,1,.127-.533c.525-1.408.486-2.713-.792-3.711-1.319-1.031-2.564-.464-3.813.239-3.816,2.146-7.648,4.265-11.473,6.394q-.009-5.56-.018-11.12c1.364.694,2.69,1.762,4.285.558,1.545-1.167,1.14-2.68.773-4.242-.459-1.952-.621-3.983-1.2-5.895-.727-2.413-.24-3.229,2.461-3.106,5.021.228,10.06.095,15.09.058,8.449-.061,14.226-5.884,14.3-14.369q.065-7.954.109-15.908l6.422.025" transform="translate(-33.718 -24.722)" fill="#3085cc"/>
        <path id="Trazado_609733" data-name="Trazado 609733" d="M77.179,30.274q-.054,7.954-.109,15.909c-.069,8.485-5.846,14.308-14.3,14.369-5.031.036-10.069.171-15.09-.057-2.7-.123-3.188.691-2.461,3.1.575,1.911.739,3.944,1.2,5.9.367,1.562.771,3.074-.774,4.241-1.594,1.2-2.921.136-4.284-.557q-8.32-6.031-16.63-12.075a3.6,3.6,0,0,0-2.33-.548c-2.839.006-5.679.044-8.517-.009A13.655,13.655,0,0,1,.068,46.819q-.141-16.482,0-32.968A13.565,13.565,0,0,1,13.8.062q24.725-.124,49.451,0A13.553,13.553,0,0,1,77.038,13.523c.184,5.579.1,11.167.141,16.751M39.864,65.133c-.409-2.324-.677-3.931-.977-5.532-.65-3.46.207-4.544,3.719-4.554,6.785-.019,13.57.041,20.355-.022,5.058-.047,8.538-3.423,8.57-8.421q.106-16.366,0-32.733a8.065,8.065,0,0,0-8.393-8.31q-24.618-.084-49.236,0a8.078,8.078,0,0,0-8.328,8.374q-.1,16.366,0,32.733c.032,4.865,3.478,8.23,8.359,8.356,2.84.073,5.69.124,8.525-.02a8.38,8.38,0,0,1,5.83,1.834c3.551,2.708,7.255,5.215,11.58,8.292" transform="translate(0 0)" fill="#020303"/>
        <path id="Trazado_609734" data-name="Trazado 609734" d="M41.4,147.258c3.826-2.129,7.657-4.249,11.474-6.394,1.25-.7,2.494-1.27,3.813-.239,1.278,1,1.317,2.3.792,3.711a3.765,3.765,0,0,0-.128.533c-.4,1.869-1.556,4.034-.978,5.527s3.218.609,4.926,1.07a13.763,13.763,0,0,1,10.24,12.788q.246,8.777,0,17.565a13.583,13.583,0,0,1-13.486,13.2c-5.577.125-11.159.08-16.739.11q-13.184-.043-26.368-.087C5.78,195.012.087,189.32.064,180.148c-.012-4.946-.032-9.891,0-14.836.063-8.449,5.886-14.228,14.385-14.283,4.945-.032,9.914-.3,14.829.08A17.2,17.2,0,0,0,41.4,147.258m9.3,1.2c-4.238,2.413-8.141,4.579-11.982,6.852a8.631,8.631,0,0,1-4.67,1.234c-6.41-.062-12.82-.038-19.231-.021-5.908.016-9.23,3.289-9.256,9.12q-.033,7.417,0,14.835c.029,5.7,3.35,9.06,9.033,9.068q21.29.031,42.581-.017c5.514-.014,8.863-3.4,8.9-8.924.035-4.853.016-9.707.006-14.56-.013-6.269-3.2-9.476-9.427-9.511-7.646-.044-7.669-.072-5.957-8.076" transform="translate(-0.021 -62.96)" fill="#020303"/>
        <path id="Trazado_609735" data-name="Trazado 609735" d="M216.272,193.355c-2.1-3.381-5.274-5.766-8.023-8.529a6.268,6.268,0,0,1-2.025-5.04c.132-4.948.162-9.905,0-14.851a4.508,4.508,0,0,1,2.325-4.44c4.842-3.219,4.785-3.309,8.461,1.411,3.033,3.893,6.272,7.645,7.532,12.619a29.579,29.579,0,0,1,.978,7.316c0,15.5-.036,30.993.046,46.489.01,1.9-.421,2.452-2.384,2.423q-12.1-.182-24.205.007a3.568,3.568,0,0,1-3.757-2.376c-3.619-7.542-3.282-14.845,1.187-21.924,2.235-3.54,2.234-3.8-.694-6.731-5.441-5.448-10.922-10.856-16.309-16.356a6.784,6.784,0,0,1-.952-8.792,7.062,7.062,0,0,1,7.988-2.771,9.7,9.7,0,0,1,3.744,2.7q10.2,10.214,20.423,20.407c.689.685,1.187,1.669,2.329,1.781,1.105,1.468,2.4,1.085,3.415.072s1.389-2.312-.076-3.416" transform="translate(-79.678 -71.115)" fill="#fcc8a2"/>
        <path id="Trazado_609736" data-name="Trazado 609736" d="M231.47,86.077c-3.958-2.636-7.516-4.867-10.914-7.319-2.038-1.471-3.687-1.365-5.693.07-3.868,2.767-7.921,5.275-11.822,8a2.379,2.379,0,0,1-3.326-.113c-5.812-4.451-11.753-8.733-17.533-13.225-2.084-1.62-3.7-1.711-5.822-.042-4.959,3.907-10.081,7.608-15.135,11.395a.989.989,0,0,1-1.242.213V71.289c0-4.215-.044-8.43.012-12.643.069-5.166,3.475-8.589,8.67-8.6q27.073-.057,54.147,0c4.837.009,8.52,3.177,8.607,7.79.174,9.232.052,18.47.052,28.243M212.247,66.53a11,11,0,1,0-10.978,11.021A11.028,11.028,0,0,0,212.247,66.53" transform="translate(-71.908 -22.484)" fill="#4cb5e3"/>
        <path id="Trazado_609737" data-name="Trazado 609737" d="M146.264,276.112c-19.686,0-38.919.041-58.152-.028-4.85-.018-8.155-3.524-8.245-8.43-.046-2.55-.886-5.878.379-7.441,1.326-1.638,4.794-.493,7.318-.5,17.862-.04,35.725.01,53.587-.048,1.813-.006,2.581.217,2.341,2.325a25.044,25.044,0,0,0,2.772,14.12m-27.678-10.941c-1.923-.268-3.433-.268-3.107,2.425.216,1.791-.329,3.535,2.675,3.213,2.057-.221,3.328-.169,3.058-2.855-.193-1.923-.019-3.546-2.626-2.783" transform="translate(-35.76 -116.574)" fill="#f6f6f6"/>
        <path id="Trazado_609738" data-name="Trazado 609738" d="M195.076,132.894c.483-2.36.838-3.954,1.131-5.559.555-3.04-.473-4.342-3.557-4.355-7.7-.033-15.392-.018-23.088-.008-3.594,0-6.377-1.361-8.087-4.64a2.218,2.218,0,0,1,.77-3.262q8.086-5.919,16.037-12.021c1.231-.948,1.994-.679,3.082.152,5.673,4.333,11.482,8.491,17.072,12.928,2.354,1.868,4.205,1.882,6.584.142,3.689-2.7,7.608-5.079,11.365-7.688,1.267-.88,2.237-1.095,3.607-.112,3.269,2.347,6.625,4.579,10.026,6.731,1.517.959,1.646,1.948.817,3.4a8.319,8.319,0,0,1-7.707,4.36c-3.939.03-7.88.067-11.818-.02a6.643,6.643,0,0,0-4.3,1.406c-3.739,2.755-7.546,5.418-11.929,8.548" transform="translate(-72.402 -46.052)" fill="#1bb689"/>
        <path id="Trazado_609739" data-name="Trazado 609739" d="M245.409,222.061c1.465,1.1,1.093,2.4.076,3.416s-2.309,1.4-3.415-.072l3.339-3.345" transform="translate(-108.815 -99.82)" fill="#fcb330"/>
        <path id="Trazado_609740" data-name="Trazado 609740" d="M44.37,69.638c-4.325-3.077-8.029-5.584-11.58-8.292a8.375,8.375,0,0,0-5.83-1.834c-2.835.145-5.684.093-8.525.02-4.88-.126-8.327-3.491-8.359-8.355q-.109-16.366,0-32.733A8.077,8.077,0,0,1,18.4,10.069q24.617-.095,49.236,0a8.066,8.066,0,0,1,8.393,8.311q.122,16.366,0,32.733c-.032,5-3.513,8.374-8.57,8.421-6.784.063-13.569,0-20.354.022-3.513.01-4.369,1.094-3.719,4.554.3,1.6.568,3.208.977,5.532m7.124-36.647c-.318-1.382.539-1.841.964-2.5a9.6,9.6,0,0,0-1.189-12.114A9.267,9.267,0,0,0,39.214,17.2c-1.48,1.056-2.229.672-3.48-.149a9.353,9.353,0,0,0-11.447.913c-3.123,2.783-4.53,7.51-2.319,10.953,1.926,3,1.809,5.985,1.831,9.136.021,3.117-.015,6.235.01,9.353.025,3.074.836,3.894,3.914,3.9,6.418.022,12.838-.079,19.255.048,2.67.053,4.4-.689,4.519-3.744,2.274,1.139,4.288,2.224,6.366,3.168,2.62,1.19,4.4.127,4.441-2.742q.125-7.7,0-15.4c-.045-3-1.862-4.043-4.628-2.747-2.048.959-4.046,2.024-6.185,3.1" transform="translate(-4.505 -4.505)" fill="#6debff"/>
        <path id="Trazado_609741" data-name="Trazado 609741" d="M55.183,155.308c-1.711,8-1.689,8.032,5.957,8.076,6.228.036,9.414,3.243,9.427,9.511.01,4.854.03,9.707-.006,14.561-.04,5.525-3.388,8.91-8.9,8.924q-21.29.054-42.581.017c-5.683-.008-9-3.369-9.033-9.068q-.037-7.417,0-14.835c.026-5.832,3.348-9.1,9.256-9.12,6.41-.018,12.821-.041,19.231.02a8.63,8.63,0,0,0,4.67-1.233c3.841-2.273,7.744-4.44,11.982-6.852M40.6,182.635v.015c-7.593,0-15.188.123-22.776-.07-2.48-.063-2.291,1.18-2.285,2.8.007,1.608-.216,2.834,2.273,2.812q22.5-.2,45,.014c2.487.023,2.278-1.206,2.272-2.816s.246-2.894-2.264-2.828c-7.4.194-14.817.069-22.226.069m-9.783-10.989c-4.4,0-8.8.132-13.2-.057-2.12-.091-2.256.947-2.044,2.451.181,1.277-.969,3.178,1.906,3.134q13.194-.206,26.394,0c2.582.041,1.847-1.563,1.91-2.862.069-1.433.393-2.85-2.051-2.729-4.3.214-8.612.06-12.92.06m27.265,5.492c1.822,0,3.646-.043,5.466.01,2.588.075,1.371-1.865,1.457-2.928.084-1.027.828-2.7-1.5-2.616-3.276.113-6.565.149-9.837-.011-1.935-.094-2.289.549-2.436,2.409-.217,2.76.746,3.541,3.3,3.165a24.764,24.764,0,0,1,3.549-.03" transform="translate(-4.508 -69.814)" fill="#4cb5e3"/>
        <path id="Trazado_609742" data-name="Trazado 609742" d="M236.971,71.032a11,11,0,1,1-11.012-11,11.014,11.014,0,0,1,11.012,11m-5.591.017a5.415,5.415,0,1,0-5.428,5.4,5.5,5.5,0,0,0,5.428-5.4" transform="translate(-96.631 -26.985)" fill="#020303"/>
        <path id="Trazado_609743" data-name="Trazado 609743" d="M147.888,269.783c2.607-.764,2.433.86,2.626,2.783.27,2.686-1,2.633-3.058,2.855-3,.323-2.458-1.421-2.675-3.213-.325-2.692,1.184-2.693,3.107-2.425" transform="translate(-65.062 -121.185)" fill="#020303"/>
        <path id="Trazado_609744" data-name="Trazado 609744" d="M60.369,37.458c2.139-1.077,4.138-2.142,6.186-3.1,2.766-1.3,4.584-.252,4.628,2.747q.115,7.7,0,15.4c-.047,2.869-1.822,3.932-4.441,2.742-2.078-.944-4.092-2.029-6.366-3.168-.118,3.055-1.85,3.8-4.519,3.744C49.437,55.7,43.017,55.8,36.6,55.778c-3.078-.01-3.888-.83-3.913-3.9-.026-3.117.01-6.235-.01-9.353-.021-3.151.1-6.135-1.831-9.136-2.211-3.443-.8-8.17,2.32-10.953a9.352,9.352,0,0,1,11.446-.913c1.251.82,2,1.2,3.481.149A9.267,9.267,0,0,1,60.145,22.84a9.6,9.6,0,0,1,1.188,12.114c-.425.663-1.282,1.122-.964,2.5m-13.893,1.88a41.594,41.594,0,0,1-5.2-.041c-2.551-.324-3.35.647-3.059,3.109.3,2.507-1.047,5.846.515,7.353s4.855.449,7.383.408c2.787-.045,6.707,1.274,8.059-.549,1.408-1.9.321-5.6.469-8.5.077-1.5-.484-1.873-1.877-1.806-2.093.1-4.2.026-6.294.026m-7-5.705a4.194,4.194,0,0,0,4.075-3.987,3.994,3.994,0,0,0-7.985-.149,4.138,4.138,0,0,0,3.91,4.136m13.875-7.99a4.2,4.2,0,0,0-4.041,4.025,3.995,3.995,0,0,0,7.988.081,4.158,4.158,0,0,0-3.947-4.105M65.52,41.271c-1.669.822-3.1,1.4-4.388,2.2-1.371.848-1.288,1.931.114,2.674a11.784,11.784,0,0,0,4.274,1.806Z" transform="translate(-13.381 -8.973)" fill="#020303"/>
        <path id="Trazado_609745" data-name="Trazado 609745" d="M45.1,204.891c7.409,0,14.822.125,22.227-.069,2.509-.066,2.257,1.233,2.263,2.828s.215,2.839-2.272,2.816q-22.5-.211-45-.014c-2.489.022-2.266-1.2-2.272-2.812-.007-1.623-.2-2.866,2.284-2.8,7.588.192,15.183.07,22.776.07Z" transform="translate(-9.008 -92.07)" fill="#020303"/>
        <path id="Trazado_609746" data-name="Trazado 609746" d="M35.292,184.933c4.308,0,8.623.154,12.92-.06,2.444-.122,2.12,1.3,2.051,2.729-.063,1.3.673,2.9-1.91,2.862q-13.2-.21-26.394,0c-2.875.045-1.726-1.856-1.906-3.134-.212-1.5-.076-2.542,2.044-2.45,4.391.188,8.8.057,13.2.057" transform="translate(-8.978 -83.1)" fill="#020303"/>
        <path id="Trazado_609747" data-name="Trazado 609747" d="M91.71,190.43a24.762,24.762,0,0,0-3.549.029c-2.558.376-3.521-.406-3.3-3.165.147-1.861.5-2.5,2.436-2.409,3.272.16,6.561.124,9.837.01,2.332-.081,1.588,1.589,1.5,2.617-.086,1.063,1.131,3-1.457,2.927-1.82-.053-3.644-.01-5.466-.01" transform="translate(-38.131 -83.105)" fill="#020303"/>
        <path id="Trazado_609748" data-name="Trazado 609748" d="M235.939,75.609a5.415,5.415,0,1,1-5.4-5.432,5.5,5.5,0,0,1,5.4,5.432" transform="translate(-101.19 -31.546)" fill="#fcb330"/>
        <path id="Trazado_609749" data-name="Trazado 609749" d="M53.17,55.078c2.1,0,4.2.075,6.294-.026,1.392-.068,1.953.308,1.877,1.806-.149,2.9.939,6.6-.47,8.5-1.352,1.823-5.272.5-8.059.549-2.528.041-5.836,1.086-7.384-.408s-.219-4.846-.515-7.353c-.291-2.461.508-3.432,3.06-3.109a41.591,41.591,0,0,0,5.2.041" transform="translate(-20.075 -24.713)" fill="#fef5e5"/>
        <path id="Trazado_609750" data-name="Trazado 609750" d="M44.217,38.276a3.993,3.993,0,1,1,4.075-3.987,4.2,4.2,0,0,1-4.075,3.987" transform="translate(-18.117 -13.616)" fill="#fcb330"/>
        <path id="Trazado_609751" data-name="Trazado 609751" d="M69.319,30.283a3.995,3.995,0,1,1-4.041,4.025,4.2,4.2,0,0,1,4.041-4.025" transform="translate(-29.344 -13.613)" fill="#fcb330"/>
        <path id="Trazado_609752" data-name="Trazado 609752" d="M90.328,58.672V65.35a11.784,11.784,0,0,1-4.274-1.806c-1.4-.744-1.485-1.826-.114-2.674,1.291-.8,2.719-1.375,4.388-2.2" transform="translate(-38.189 -26.374)" fill="#fef5e5"/>
      </g>
    </g>
  </g>
</svg>
