<svg xmlns="http://www.w3.org/2000/svg" width="120" height="120" viewBox="0 0 120 120">
  <g id="Group_1074129" data-name="Group 1074129" transform="translate(-180 -9918)">
    <g id="Group_1074025" data-name="Group 1074025" transform="translate(-89 8960)">
      <path id="Path_608972" data-name="Path 608972" d="M60,0A60,60,0,1,1,0,60,60,60,0,0,1,60,0Z" transform="translate(269 958)" fill="#0c5e46"/>
    </g>
    <g id="red" transform="translate(203 9941)">
      <g id="Group_1074050" data-name="Group 1074050" transform="translate(65 15)">
        <g id="Group_1074049" data-name="Group 1074049">
          <path id="Path_612851" data-name="Path 612851" d="M448.734,102.4a5,5,0,1,0,5,5A5,5,0,0,0,448.734,102.4Zm0,7.5a2.5,2.5,0,1,1,2.5-2.5A2.5,2.5,0,0,1,448.734,109.9Z" transform="translate(-443.734 -102.4)" fill="#fff"/>
        </g>
      </g>
      <g id="Group_1074052" data-name="Group 1074052" transform="translate(0 56.25)">
        <g id="Group_1074051" data-name="Group 1074051">
          <path id="Path_612852" data-name="Path 612852" d="M5,384a5,5,0,1,0,5,5A5.005,5.005,0,0,0,5,384Zm0,7.5A2.5,2.5,0,1,1,7.5,389,2.5,2.5,0,0,1,5,391.5Z" transform="translate(0 -384)" fill="#fff"/>
        </g>
      </g>
      <g id="Group_1074054" data-name="Group 1074054" transform="translate(54.999 11.249)">
        <g id="Group_1074053" data-name="Group 1074053">
          <path id="Path_612853" data-name="Path 612853" d="M388.04,82.123l-10.784-5.206a1.25,1.25,0,1,0-1.086,2.251l10.784,5.206a1.25,1.25,0,0,0,1.086-2.251Z" transform="translate(-375.463 -76.792)" fill="#fff"/>
        </g>
      </g>
      <g id="Group_1074056" data-name="Group 1074056" transform="translate(51.25 65)">
        <g id="Group_1074055" data-name="Group 1074055">
          <path id="Path_612854" data-name="Path 612854" d="M354.867,443.733a5,5,0,1,0,5,5A5,5,0,0,0,354.867,443.733Zm0,7.5a2.5,2.5,0,1,1,2.5-2.5A2.5,2.5,0,0,1,354.867,451.233Z" transform="translate(-349.867 -443.733)" fill="#fff"/>
        </g>
      </g>
      <g id="Group_1074058" data-name="Group 1074058" transform="translate(41.249 61.249)">
        <g id="Group_1074057" data-name="Group 1074057">
          <path id="Path_612855" data-name="Path 612855" d="M294.173,423.456l-10.784-5.206A1.25,1.25,0,0,0,282.3,420.5l10.784,5.206a1.25,1.25,0,0,0,1.086-2.251Z" transform="translate(-281.596 -418.124)" fill="#fff"/>
        </g>
      </g>
      <g id="Group_1074060" data-name="Group 1074060" transform="translate(32.5 33.75)">
        <g id="Group_1074059" data-name="Group 1074059">
          <path id="Path_612856" data-name="Path 612856" d="M226.867,230.4a5,5,0,1,0,5,5A5,5,0,0,0,226.867,230.4Zm0,7.5a2.5,2.5,0,1,1,2.5-2.5A2.5,2.5,0,0,1,226.867,237.9Z" transform="translate(-221.867 -230.4)" fill="#fff"/>
        </g>
      </g>
      <g id="Group_1074062" data-name="Group 1074062" transform="translate(25 28.751)">
        <g id="Group_1074061" data-name="Group 1074061">
          <path id="Path_612857" data-name="Path 612857" d="M180.967,202.991l-8.284-6.456a1.25,1.25,0,0,0-1.538,1.973l8.284,6.456a1.25,1.25,0,1,0,1.537-1.973Z" transform="translate(-170.664 -196.272)" fill="#fff"/>
        </g>
      </g>
      <g id="Group_1074064" data-name="Group 1074064" transform="translate(46.25 32.5)">
        <g id="Group_1074063" data-name="Group 1074063">
          <path id="Path_612858" data-name="Path 612858" d="M329.483,221.867a13.75,13.75,0,1,0,13.75,13.75A13.766,13.766,0,0,0,329.483,221.867Zm0,25a11.25,11.25,0,1,1,11.25-11.25A11.262,11.262,0,0,1,329.483,246.867Z" transform="translate(-315.733 -221.867)" fill="#fff"/>
        </g>
      </g>
      <g id="Group_1074066" data-name="Group 1074066" transform="translate(55 37.5)">
        <g id="Group_1074065" data-name="Group 1074065">
          <path id="Path_612859" data-name="Path 612859" d="M380.467,256a5,5,0,1,0,5,5A5,5,0,0,0,380.467,256Zm0,7.5a2.5,2.5,0,1,1,2.5-2.5A2.5,2.5,0,0,1,380.467,263.5Z" transform="translate(-375.467 -256)" fill="#fff"/>
        </g>
      </g>
      <g id="Group_1074068" data-name="Group 1074068" transform="translate(52.5 50)">
        <g id="Group_1074067" data-name="Group 1074067">
          <path id="Path_612860" data-name="Path 612860" d="M369.526,341.333h-7.252A3.827,3.827,0,0,0,358.4,345.1v3.3a1.251,1.251,0,0,0,.624,1.083,13.68,13.68,0,0,0,13.753,0,1.249,1.249,0,0,0,.624-1.081v-3.3A3.827,3.827,0,0,0,369.526,341.333Zm1.374,6.319a11.335,11.335,0,0,1-10,0V345.1a1.327,1.327,0,0,1,1.374-1.27h7.252a1.327,1.327,0,0,1,1.374,1.27v2.549Z" transform="translate(-358.4 -341.333)" fill="#fff"/>
        </g>
      </g>
      <g id="Group_1074070" data-name="Group 1074070" transform="translate(16.25 47.5)">
        <g id="Group_1074069" data-name="Group 1074069">
          <path id="Path_612861" data-name="Path 612861" d="M124.683,324.267a13.75,13.75,0,1,0,13.75,13.75A13.766,13.766,0,0,0,124.683,324.267Zm0,25a11.25,11.25,0,1,1,11.25-11.25A11.262,11.262,0,0,1,124.683,349.267Z" transform="translate(-110.933 -324.267)" fill="#fff"/>
        </g>
      </g>
      <g id="Group_1074072" data-name="Group 1074072" transform="translate(25 52.5)">
        <g id="Group_1074071" data-name="Group 1074071">
          <path id="Path_612862" data-name="Path 612862" d="M175.667,358.4a5,5,0,1,0,5,5A5,5,0,0,0,175.667,358.4Zm0,7.5a2.5,2.5,0,1,1,2.5-2.5A2.5,2.5,0,0,1,175.667,365.9Z" transform="translate(-170.667 -358.4)" fill="#fff"/>
        </g>
      </g>
      <g id="Group_1074074" data-name="Group 1074074" transform="translate(22.5 65)">
        <g id="Group_1074073" data-name="Group 1074073">
          <path id="Path_612863" data-name="Path 612863" d="M164.726,443.733h-7.252A3.827,3.827,0,0,0,153.6,447.5v3.3a1.251,1.251,0,0,0,.624,1.083,13.68,13.68,0,0,0,13.753,0,1.249,1.249,0,0,0,.624-1.081v-3.3A3.827,3.827,0,0,0,164.726,443.733Zm1.374,6.319a11.334,11.334,0,0,1-10,0V447.5a1.327,1.327,0,0,1,1.374-1.27h7.252a1.327,1.327,0,0,1,1.374,1.27v2.549Z" transform="translate(-153.6 -443.733)" fill="#fff"/>
        </g>
      </g>
      <g id="Group_1074076" data-name="Group 1074076" transform="translate(0 16.25)">
        <g id="Group_1074075" data-name="Group 1074075">
          <path id="Path_612864" data-name="Path 612864" d="M13.75,110.933a13.75,13.75,0,1,0,13.75,13.75A13.766,13.766,0,0,0,13.75,110.933Zm0,25A11.25,11.25,0,1,1,25,124.683,11.262,11.262,0,0,1,13.75,135.933Z" transform="translate(0 -110.933)" fill="#fff"/>
        </g>
      </g>
      <g id="Group_1074078" data-name="Group 1074078" transform="translate(8.75 21.25)">
        <g id="Group_1074077" data-name="Group 1074077">
          <path id="Path_612865" data-name="Path 612865" d="M64.734,145.067a5,5,0,1,0,5,5A5,5,0,0,0,64.734,145.067Zm0,7.5a2.5,2.5,0,1,1,2.5-2.5A2.5,2.5,0,0,1,64.734,152.567Z" transform="translate(-59.734 -145.067)" fill="#fff"/>
        </g>
      </g>
      <g id="Group_1074080" data-name="Group 1074080" transform="translate(6.25 33.75)">
        <g id="Group_1074079" data-name="Group 1074079">
          <path id="Path_612866" data-name="Path 612866" d="M53.793,230.4H46.541a3.827,3.827,0,0,0-3.874,3.769v3.3a1.251,1.251,0,0,0,.624,1.083,13.68,13.68,0,0,0,13.753,0,1.249,1.249,0,0,0,.624-1.081v-3.3A3.827,3.827,0,0,0,53.793,230.4Zm1.374,6.319a11.335,11.335,0,0,1-10,0V234.17a1.327,1.327,0,0,1,1.374-1.27h7.252a1.327,1.327,0,0,1,1.374,1.27v2.549Z" transform="translate(-42.667 -230.4)" fill="#fff"/>
        </g>
      </g>
      <g id="Group_1074082" data-name="Group 1074082" transform="translate(30)">
        <g id="Group_1074081" data-name="Group 1074081">
          <path id="Path_612867" data-name="Path 612867" d="M218.55,0A13.75,13.75,0,1,0,232.3,13.75,13.766,13.766,0,0,0,218.55,0Zm0,25A11.25,11.25,0,1,1,229.8,13.75,11.262,11.262,0,0,1,218.55,25Z" transform="translate(-204.8)" fill="#fff"/>
        </g>
      </g>
      <g id="Group_1074084" data-name="Group 1074084" transform="translate(38.75 5)">
        <g id="Group_1074083" data-name="Group 1074083">
          <path id="Path_612868" data-name="Path 612868" d="M269.534,34.133a5,5,0,1,0,5,5A5,5,0,0,0,269.534,34.133Zm0,7.5a2.5,2.5,0,1,1,2.5-2.5A2.5,2.5,0,0,1,269.534,41.633Z" transform="translate(-264.534 -34.133)" fill="#fff"/>
        </g>
      </g>
      <g id="Group_1074086" data-name="Group 1074086" transform="translate(36.25 17.5)">
        <g id="Group_1074085" data-name="Group 1074085">
          <path id="Path_612869" data-name="Path 612869" d="M258.593,119.467h-7.252a3.827,3.827,0,0,0-3.874,3.769v3.3a1.251,1.251,0,0,0,.624,1.083,13.68,13.68,0,0,0,13.753,0,1.249,1.249,0,0,0,.624-1.081v-3.3A3.827,3.827,0,0,0,258.593,119.467Zm1.374,6.319a11.334,11.334,0,0,1-10,0v-2.549a1.327,1.327,0,0,1,1.374-1.27h7.252a1.327,1.327,0,0,1,1.374,1.27v2.549Z" transform="translate(-247.467 -119.467)" fill="#fff"/>
        </g>
      </g>
      <g id="Group_1074088" data-name="Group 1074088" transform="translate(21.339 12.5)">
        <g id="Group_1074087" data-name="Group 1074087">
          <path id="Path_612870" data-name="Path 612870" d="M156.534,85.77a1.252,1.252,0,0,0-1.762-.136l-8.662,7.413a1.25,1.25,0,1,0,1.625,1.9l8.663-7.413A1.25,1.25,0,0,0,156.534,85.77Z" transform="translate(-145.671 -85.333)" fill="#fff"/>
        </g>
      </g>
      <g id="Group_1074090" data-name="Group 1074090" transform="translate(50 22.501)">
        <g id="Group_1074089" data-name="Group 1074089">
          <path id="Path_612871" data-name="Path 612871" d="M351.083,164.11l-7.5-10a1.25,1.25,0,0,0-2,1.5l7.5,10a1.25,1.25,0,0,0,2-1.5Z" transform="translate(-341.333 -153.61)" fill="#fff"/>
        </g>
      </g>
      <g id="Group_1074092" data-name="Group 1074092" transform="translate(40.259 49.884)">
        <g id="Group_1074091" data-name="Group 1074091">
          <path id="Path_612872" data-name="Path 612872" d="M284.066,341.04a1.25,1.25,0,0,0-1.75-.25l-6.982,5.236a1.249,1.249,0,0,0,1.5,2l6.982-5.236A1.248,1.248,0,0,0,284.066,341.04Z" transform="translate(-274.833 -340.54)" fill="#fff"/>
        </g>
      </g>
      <g id="Group_1074094" data-name="Group 1074094" transform="translate(7.5 60)">
        <g id="Group_1074093" data-name="Group 1074093">
          <path id="Path_612873" data-name="Path 612873" d="M61.2,409.6H52.45a1.25,1.25,0,1,0,0,2.5H61.2a1.25,1.25,0,0,0,0-2.5Z" transform="translate(-51.2 -409.6)" fill="#fff"/>
        </g>
      </g>
      <g id="Group_1074096" data-name="Group 1074096" transform="translate(8.75)">
        <g id="Group_1074095" data-name="Group 1074095">
          <path id="Path_612874" data-name="Path 612874" d="M64.733,0a5,5,0,1,0,5,5A5.005,5.005,0,0,0,64.733,0Zm0,7.5a2.5,2.5,0,1,1,2.5-2.5A2.5,2.5,0,0,1,64.733,7.5Z" transform="translate(-59.733)" fill="#fff"/>
        </g>
      </g>
      <g id="Group_1074098" data-name="Group 1074098" transform="translate(12.5 7.5)">
        <g id="Group_1074097" data-name="Group 1074097">
          <path id="Path_612875" data-name="Path 612875" d="M86.584,51.2a1.25,1.25,0,0,0-1.25,1.25V61.2a1.25,1.25,0,1,0,2.5,0V52.45A1.25,1.25,0,0,0,86.584,51.2Z" transform="translate(-85.334 -51.2)" fill="#fff"/>
        </g>
      </g>
    </g>
  </g>
</svg>
