<svg xmlns="http://www.w3.org/2000/svg" width="120" height="120" viewBox="0 0 120 120">
  <g id="Group_1074128" data-name="Group 1074128" transform="translate(-180 -9716)">
    <g id="Group_1072070" data-name="Group 1072070" transform="translate(-89 8758)">
      <path id="Path_608972" data-name="Path 608972" d="M60,0A60,60,0,1,1,0,60,60,60,0,0,1,60,0Z" transform="translate(269 958)" fill="#0c5e46"/>
    </g>
    <g id="line_cp" transform="translate(201 9736)">
      <path id="Path_612899" data-name="Path 612899" d="M40.938,72.141H5.65a1.217,1.217,0,0,1-1.217-1.217V7.65A1.217,1.217,0,0,1,5.65,6.434h7.3a1.217,1.217,0,0,0,0-2.434H5.65A3.65,3.65,0,0,0,2,7.65V70.925a3.65,3.65,0,0,0,3.65,3.65H40.938a1.217,1.217,0,1,0,0-2.434Z" transform="translate(0 0.434)" fill="#f6f6f6"/>
      <path id="Path_612900" data-name="Path 612900" d="M37.217,6.434h7.3A1.217,1.217,0,0,1,45.734,7.65V31.987a1.217,1.217,0,0,0,2.434,0V7.65A3.65,3.65,0,0,0,44.518,4h-7.3a1.217,1.217,0,1,0,0,2.434Z" transform="translate(7.372 0.434)" fill="#f6f6f6"/>
      <path id="Path_612901" data-name="Path 612901" d="M17.65,11.734H34.686a3.65,3.65,0,0,0,3.65-3.65V5.65A3.65,3.65,0,0,0,34.686,2H17.65A3.65,3.65,0,0,0,14,5.65V8.084A3.65,3.65,0,0,0,17.65,11.734ZM16.434,5.65A1.217,1.217,0,0,1,17.65,4.434H34.686A1.217,1.217,0,0,1,35.9,5.65V8.084A1.217,1.217,0,0,1,34.686,9.3H17.65a1.217,1.217,0,0,1-1.217-1.217Z" transform="translate(2.602)" fill="#f6f6f6"/>
      <path id="Path_612902" data-name="Path 612902" d="M18.168,13.217A1.217,1.217,0,0,0,16.951,12H7.217A1.217,1.217,0,0,0,6,13.217v9.734a1.217,1.217,0,0,0,1.217,1.217h9.734a1.217,1.217,0,0,0,1.217-1.217Zm-2.434,8.518h-7.3v-7.3h7.3Z" transform="translate(0.867 2.168)" fill="#f6f6f6"/>
      <path id="Path_612903" data-name="Path 612903" d="M18.168,25.217A1.217,1.217,0,0,0,16.951,24H7.217A1.217,1.217,0,0,0,6,25.217v9.734a1.217,1.217,0,0,0,1.217,1.217h9.734a1.217,1.217,0,0,0,1.217-1.217Zm-2.434,8.518h-7.3v-7.3h7.3Z" transform="translate(0.867 4.77)" fill="#f6f6f6"/>
      <path id="Path_612904" data-name="Path 612904" d="M18.168,37.217A1.217,1.217,0,0,0,16.951,36H7.217A1.217,1.217,0,0,0,6,37.217v9.734a1.217,1.217,0,0,0,1.217,1.217h9.734a1.217,1.217,0,0,0,1.217-1.217Zm-2.434,8.518h-7.3v-7.3h7.3Z" transform="translate(0.867 7.372)" fill="#f6f6f6"/>
      <path id="Path_612905" data-name="Path 612905" d="M16.951,48H7.217A1.217,1.217,0,0,0,6,49.217v9.734a1.217,1.217,0,0,0,1.217,1.217h9.734a1.217,1.217,0,0,0,1.217-1.217V49.217A1.217,1.217,0,0,0,16.951,48Zm-1.217,9.734h-7.3v-7.3h7.3Z" transform="translate(0.867 9.973)" fill="#f6f6f6"/>
      <path id="Path_612906" data-name="Path 612906" d="M45.119,14h-21.9a1.217,1.217,0,1,0,0,2.434h21.9a1.217,1.217,0,0,0,0-2.434Z" transform="translate(4.336 2.602)" fill="#f6f6f6"/>
      <path id="Path_612907" data-name="Path 612907" d="M45.987,18H19.217a1.217,1.217,0,0,0,0,2.434h26.77a1.217,1.217,0,0,0,0-2.434Z" transform="translate(3.469 3.469)" fill="#f6f6f6"/>
      <path id="Path_612908" data-name="Path 612908" d="M46.336,27.217A1.217,1.217,0,0,0,45.119,26h-21.9a1.217,1.217,0,1,0,0,2.434h21.9A1.217,1.217,0,0,0,46.336,27.217Z" transform="translate(4.336 5.203)" fill="#f6f6f6"/>
      <path id="Path_612909" data-name="Path 612909" d="M37.469,31.217A1.217,1.217,0,0,0,36.252,30H19.217a1.217,1.217,0,1,0,0,2.434H36.252A1.217,1.217,0,0,0,37.469,31.217Z" transform="translate(3.469 6.071)" fill="#f6f6f6"/>
      <path id="Path_612910" data-name="Path 612910" d="M28.084,38H23.217a1.217,1.217,0,0,0,0,2.434h4.867a1.217,1.217,0,1,0,0-2.434Z" transform="translate(4.336 7.805)" fill="#f6f6f6"/>
      <path id="Path_612911" data-name="Path 612911" d="M27.734,42H19.217a1.217,1.217,0,1,0,0,2.434h8.518a1.217,1.217,0,0,0,0-2.434Z" transform="translate(3.469 8.672)" fill="#f6f6f6"/>
      <path id="Path_612912" data-name="Path 612912" d="M26.867,50h-3.65a1.217,1.217,0,0,0,0,2.434h3.65a1.217,1.217,0,0,0,0-2.434Z" transform="translate(4.336 10.407)" fill="#f6f6f6"/>
      <path id="Path_612913" data-name="Path 612913" d="M19.217,56.434H30.168a1.217,1.217,0,0,0,0-2.434H19.217a1.217,1.217,0,1,0,0,2.434Z" transform="translate(3.469 11.274)" fill="#f6f6f6"/>
      <path id="Path_612914" data-name="Path 612914" d="M63.711,41.053a1.217,1.217,0,0,0-.629,1.6,17.022,17.022,0,1,1-8.8-8.8,1.217,1.217,0,1,0,.973-2.23A19.456,19.456,0,1,0,65.312,41.682,1.217,1.217,0,0,0,63.711,41.053Z" transform="translate(5.642 6.07)" fill="#f6f6f6"/>
      <path id="Path_612915" data-name="Path 612915" d="M50.63,39.515a1.217,1.217,0,0,0,1.117-2.162,12.16,12.16,0,1,0,5.324,5.407,1.217,1.217,0,1,0-2.179,1.083,9.73,9.73,0,1,1-4.261-4.328Z" transform="translate(6.938 7.371)" fill="#f6f6f6"/>
      <path id="Path_612916" data-name="Path 612916" d="M44.057,44.535a1.217,1.217,0,0,0-.81-2.295,4.867,4.867,0,1,0,6.206,6.206,1.217,1.217,0,1,0-2.295-.81,2.434,2.434,0,1,1-3.107-3.107Z" transform="translate(8.237 8.709)" fill="#f6f6f6"/>
      <path id="Path_612917" data-name="Path 612917" d="M66.027,33.618a1.217,1.217,0,0,0-1.124-.751h-3.65v-3.65a1.217,1.217,0,0,0-2.077-.86l-4.867,4.867a1.217,1.217,0,0,0-.357.86v4.363L43.357,49.042a1.217,1.217,0,1,0,1.721,1.721L55.672,40.168h4.363a1.217,1.217,0,0,0,.86-.356l4.867-4.867A1.217,1.217,0,0,0,66.027,33.618Zm-9.642.973,2.434-2.434v1.426l-2.434,2.434Zm3.147,3.143H58.105L60.539,35.3h1.426Z" transform="translate(8.889 5.637)" fill="#f6f6f6"/>
    </g>
  </g>
</svg>
