<svg xmlns="http://www.w3.org/2000/svg" xmlns:xlink="http://www.w3.org/1999/xlink" width="190" height="131" viewBox="0 0 190 131">
  <defs>
    <clipPath id="clip-path">
      <rect id="Rectángulo_378350" data-name="Rectángulo 378350" width="190" height="131" transform="translate(180 8801.718)" fill="#fff" stroke="#707070" stroke-width="1"/>
    </clipPath>
  </defs>
  <g id="Enmascarar_grupo_154295" data-name="Enmascarar grupo 154295" transform="translate(-180 -8801.718)" clip-path="url(#clip-path)">
    <g id="_025---Analysis" data-name="025---Analysis" transform="translate(213.471 8808.195)">
      <path id="Shape" d="M61.364,58.1A33.4,33.4,0,1,0,28.135,71.2c.451.09-2.192,1.056,33.228-13.108Z" transform="translate(0 5.439)" fill="#f3d55b"/>
      <path id="Shape-2" data-name="Shape" d="M80.267,48.349V58.785a2.087,2.087,0,0,1-2.087,2.087H34.349L26,40Z" transform="translate(27.182 43.488)" fill="#14a085"/>
      <path id="Shape-3" data-name="Shape" d="M27,91.837H91.7a2.087,2.087,0,0,0,2.087-2.087V20.872L72.919,0H29.087A2.087,2.087,0,0,0,27,2.087Z" transform="translate(28.269)" fill="#81ccb8"/>
      <path id="Shape-4" data-name="Shape" d="M49,0V18.785a2.087,2.087,0,0,0,2.087,2.087H69.872Z" transform="translate(52.188)" fill="#26b99a"/>
      <path id="Shape-5" data-name="Shape" d="M16.322,43.743,5.468,50A33.443,33.443,0,0,1,10.77,9.68l8.871,8.871A20.86,20.86,0,0,0,16.322,43.743Z" transform="translate(0 10.524)" fill="#26b99a"/>
      <path id="Shape-6" data-name="Shape" d="M29.307,5V17.523a20.807,20.807,0,0,0-14.757,6.116L5.68,14.768A33.368,33.368,0,0,1,29.307,5Z" transform="translate(5.09 5.436)" fill="#f0c419"/>
      <path id="Shape-7" data-name="Shape" d="M45.929,21.7,35.075,27.959A20.857,20.857,0,0,0,17,17.523V5A33.379,33.379,0,0,1,45.929,21.7Z" transform="translate(17.397 5.436)" fill="#3b97d3"/>
      <path id="Shape-8" data-name="Shape" d="M35.487,49.4c-.856-3.068-5.051-5.594-10.687-6.637a20.872,20.872,0,0,0,1.8-23.5L37.448,13A33.408,33.408,0,0,1,35.487,49.4Z" transform="translate(25.877 14.134)" fill="#ff5364"/>
      <path id="Shape-9" data-name="Shape" d="M22.442,43.221c-10.158,0-12.838-10.436-8.349-10.436a2.087,2.087,0,0,1,2.087,2.087c0,2.263,2.868,4.174,6.262,4.174S28.7,37.135,28.7,34.872,25.836,30.7,22.442,30.7c-5.754,0-10.436-3.744-10.436-8.349S16.688,14,22.442,14C32.6,14,35.281,24.436,30.791,24.436A2.087,2.087,0,0,1,28.7,22.349c0-2.263-2.868-4.174-6.262-4.174s-6.262,1.912-6.262,4.174,2.868,4.174,6.262,4.174c5.754,0,10.436,3.744,10.436,8.349S28.2,43.221,22.442,43.221Z" transform="translate(11.955 15.221)" fill="#e57e25"/>
      <path id="Shape-10" data-name="Shape" d="M18.087,46.145A2.087,2.087,0,0,1,16,44.058V15.087a2.087,2.087,0,1,1,4.174,0v28.97A2.087,2.087,0,0,1,18.087,46.145Z" transform="translate(16.31 14.134)" fill="#e57e25"/>
      <path id="Shape-11" data-name="Shape" d="M58.134,11.174H33.087a2.087,2.087,0,1,1,0-4.174H58.134a2.087,2.087,0,0,1,0,4.174Z" transform="translate(32.618 7.61)" fill="#fff"/>
      <path id="Shape-12" data-name="Shape" d="M58.134,7.174H33.087a2.087,2.087,0,1,1,0-4.174H58.134a2.087,2.087,0,0,1,0,4.174Z" transform="translate(32.618 3.262)" fill="#fff"/>
      <path id="Shape-13" data-name="Shape" d="M53.785,15.174h-16.7a2.087,2.087,0,0,1,0-4.174h16.7a2.087,2.087,0,0,1,0,4.174Z" transform="translate(36.967 11.959)" fill="#fff"/>
      <path id="Shape-14" data-name="Shape" d="M38.087,42.047a2.087,2.087,0,0,1-1.6-3.423L46.92,26.1A2.087,2.087,0,0,1,50,25.96l2.526,2.526,6.888-8.616a2.087,2.087,0,0,1,3.106-.171l4.561,4.561L71.9,17.835a2.087,2.087,0,0,1,3.34,2.5l-6.262,8.349a2.087,2.087,0,0,1-3.145.223L61.219,24.3l-6.888,8.616a2.087,2.087,0,0,1-3.106.171l-2.559-2.559L39.692,41.3a2.087,2.087,0,0,1-1.605.751Z" transform="translate(38.054 18.482)" fill="#e64c3c"/>
      <g id="Group_1074101" data-name="Group 1074101" transform="translate(69.88 64.703)">
        <path id="Shape-15" data-name="Shape" d="M40.262,51.872H36.087a2.087,2.087,0,0,1,0-4.174h4.174V35.174H36.087a2.087,2.087,0,0,1,0-4.174h4.174a4.174,4.174,0,0,1,4.174,4.174V47.7A4.174,4.174,0,0,1,40.262,51.872Z" transform="translate(-34 -31)" fill="#fff"/>
        <path id="Shape-16" data-name="Shape" d="M47.436,39.174H39.087a2.087,2.087,0,1,1,0-4.174h8.349a2.087,2.087,0,1,1,0,4.174Z" transform="translate(-30.738 -26.651)" fill="#fff"/>
        <path id="Shape-17" data-name="Shape" d="M64.872,35.174H46.087a2.087,2.087,0,0,1,0-4.174H64.872a2.087,2.087,0,0,1,0,4.174Z" transform="translate(-23.128 -31)" fill="#fff"/>
        <path id="Shape-18" data-name="Shape" d="M64.872,43.174H46.087a2.087,2.087,0,0,1,0-4.174H64.872a2.087,2.087,0,0,1,0,4.174Z" transform="translate(-23.128 -22.302)" fill="#fff"/>
        <path id="Shape-19" data-name="Shape" d="M64.872,39.174H46.087a2.087,2.087,0,0,1,0-4.174H64.872a2.087,2.087,0,0,1,0,4.174Z" transform="translate(-23.128 -26.651)" fill="#fff"/>
      </g>
      <path id="Shape-20" data-name="Shape" d="M73.57,44.221H38.087A2.087,2.087,0,0,1,36,42.134V17.087a2.087,2.087,0,0,1,4.174,0V40.047h33.4a2.087,2.087,0,0,1,0,4.174Z" transform="translate(38.054 16.308)" fill="#33907c"/>
      <path id="Shape-21" data-name="Shape" d="M61.362,34.2V34.18c-.856-3.068-5.051-5.594-10.687-6.637A30.551,30.551,0,0,0,44.831,27c-8.6,0-15.7,3.256-16.593,7.43-.148.745-.1-1.146-.1,21.54C16.99,51.5,1,55.595,1,62.483V83.355C1,87.967,8.472,91.7,17.7,91.7c9.058,0,16.426-3.611,16.677-8.1,10.593,4.252,27.155.68,27.155-6.512,0-45.447.077-42.011-.167-42.892Z" transform="translate(0.002 29.355)" fill="#f3d55b"/>
      <path id="Shape-22" data-name="Shape" d="M34.4,44.25c0,9.925.031,10.227-.021,10.436-.25,4.488-7.618,8.1-16.677,8.1C8.472,62.785,1,59.049,1,54.436V44c0,4.613,7.472,8.349,16.7,8.349,9.058,0,16.426-3.611,16.677-8.1Z" transform="translate(0.002 47.837)" fill="#f0c419"/>
      <path id="Shape-23" data-name="Shape" d="M34.4,48.363a1.016,1.016,0,0,1-.021.25c-.25,4.488-7.618,8.1-16.677,8.1C8.472,56.712,1,52.976,1,48.363c0-6.8,15.94-11.006,27.134-6.512C31.953,43.375,34.4,45.733,34.4,48.363Z" transform="translate(0.002 43.474)" fill="#f9eab0"/>
      <path id="Shape-24" data-name="Shape" d="M44.145,46V56.436c0,4.613-7.472,8.349-16.7,8.349A28.559,28.559,0,0,1,16.99,62.948c.052-.209.021-.735.021-10.436a26.2,26.2,0,0,0,7.66,1.712,2.2,2.2,0,0,0,.689.125h2.087C36.672,54.349,44.145,50.613,44.145,46Z" transform="translate(17.386 50.012)" fill="#f0c419"/>
      <path id="Shape-25" data-name="Shape" d="M47.4,36V46.436c0,2.359-1.962,4.508-5.135,6.011a30.1,30.1,0,0,1-22,.5c0-3.371-3.131-5.512-6.262-6.763V36c0,4.613,7.472,8.349,16.7,8.349S47.4,40.613,47.4,36Z" transform="translate(14.135 39.14)" fill="#f0c419"/>
      <path id="Shape-26" data-name="Shape" d="M26.1,48.437c-.083-.021-.188-.042-.292-.063A33.414,33.414,0,0,1,3.14,32.262L13.993,26a20.93,20.93,0,0,0,11.918,9.518c-.142.71-.1-.142-.1,11.354A4.431,4.431,0,0,0,26.1,48.437Z" transform="translate(2.328 28.267)" fill="#955ba5"/>
      <path id="Shape-27" data-name="Shape" d="M47.4,35.349c0,4.613-7.472,8.349-16.7,8.349S14,39.962,14,35.349a4.592,4.592,0,0,1,.1-.918C15,30.256,22.1,27,30.7,27a30.551,30.551,0,0,1,5.844.543C41.015,28.371,47.4,30.914,47.4,35.349Z" transform="translate(14.135 29.355)" fill="#f9eab0"/>
    </g>
  </g>
</svg>
