<svg xmlns="http://www.w3.org/2000/svg" xmlns:xlink="http://www.w3.org/1999/xlink" width="190" height="190" viewBox="0 0 190 190">
  <defs>
    <clipPath id="clip-path">
      <rect id="Rect치ngulo_377983" data-name="Rect치ngulo 377983" width="190" height="190" transform="translate(1125 5923)" fill="#fff" stroke="#707070" stroke-width="1"/>
    </clipPath>
    <clipPath id="clip-path-2">
      <rect id="Rect치ngulo_377987" data-name="Rect치ngulo 377987" width="160.519" height="160.428" fill="none"/>
    </clipPath>
  </defs>
  <g id="Enmascarar_grupo_154286" data-name="Enmascarar grupo 154286" transform="translate(-1125 -5923)" clip-path="url(#clip-path)">
    <g id="Grupo_1072740" data-name="Grupo 1072740" transform="translate(1139.368 5937.372)">
      <g id="Grupo_1072739" data-name="Grupo 1072739" clip-path="url(#clip-path-2)">
        <path id="Trazado_609841" data-name="Trazado 609841" d="M80.143,160.427H9.964c-7.012,0-9.914-2.865-9.915-9.789Q.048,102.9,0,55.154a5.219,5.219,0,0,1,2.576-4.912c6.751-4.6,13.354-9.425,20.055-14.1a3.029,3.029,0,0,0,1.488-2.862c-.085-4.593-.054-9.189-.026-13.783.024-3.875,2.131-6.021,6.034-6.045q11.153-.066,22.307.013a6.182,6.182,0,0,0,3.929-1.228c3.565-2.612,7.21-5.116,10.79-7.709,8.409-6.088,18.11-6.013,26.436.115,4.027,2.965,7.837,6.76,12.383,8.327,4.188,1.444,9.231.426,13.9.462,3.509.027,7.018-.03,10.527.016,3.9.052,6.018,2.174,6.043,6.042.031,4.595.06,9.19-.025,13.783a3.025,3.025,0,0,0,1.487,2.86c6.838,4.776,13.6,9.667,20.461,14.4a4.435,4.435,0,0,1,2.156,4.117q-.069,48.368-.038,96.737c0,5.912-3.172,9.034-9.156,9.036q-35.591.011-71.182,0M64.724,13.188l-.334.056.3.084,22.638.018H96.6c-3.5-2.333-6.093-4.807-9.307-6.31-5.3-2.481-10.548-2.393-15.541.958-2.416,1.63-5,3.031-7.025,5.193m15.527,5.575v-.056c-16.121,0-32.243.028-48.363-.04-1.8-.008-2.42.334-2.409,2.3.1,16.454.083,32.908.058,49.362a3.633,3.633,0,0,0,1.44,3.173c12.738,10.514,25.4,21.118,38.128,31.645,7.393,6.115,15.016,6.079,22.429-.073,12.647-10.494,25.249-21.042,37.9-31.525a3.646,3.646,0,0,0,1.52-3.136q-.075-24.682.016-49.363c.01-1.912-.508-2.338-2.361-2.33-16.12.076-32.241.044-48.362.044m-69.8,136.05H149.9c-.871-.754-1.413-1.241-1.974-1.706Q122.5,131.975,97.1,110.807c-1.459-1.222-2.3-1.392-3.918-.227-8.367,6.009-17.966,5.9-26.226-.255-1.331-.992-2.075-.717-3.134.165C46.171,125.169,28.5,139.828,10.451,154.812M5.589,151.89,61.281,105.62,5.589,59.349ZM154.907,59.856c-.944.083-1.4.736-1.942,1.188q-25.928,21.5-51.867,43c-1.626,1.341-1.512,1.955.008,3.209q25.016,20.648,49.949,41.394c1.176.975,2.4,1.888,3.853,3.02Zm-18.38,7.828c5.533-4.6,10.641-8.864,15.776-13.1.94-.774.747-1.226-.156-1.856-4.923-3.437-9.815-6.918-14.716-10.386a.7.7,0,0,0-.9-.022ZM23.95,41.737c-5.525,3.913-10.725,7.6-15.928,11.278-1.167.826-.127,1.258.352,1.665,2.6,2.206,5.243,4.369,7.871,6.546,2.463,2.041,4.927,4.081,7.706,6.382Z" transform="translate(0 0)" fill="#050302"/>
        <path id="Trazado_609842" data-name="Trazado 609842" d="M109.548,37.315c16.121,0,32.242.032,48.362-.044,1.853-.009,2.371.418,2.361,2.33q-.126,24.681-.016,49.363a3.646,3.646,0,0,1-1.52,3.136c-12.656,10.483-25.257,21.032-37.9,31.526-7.413,6.151-15.037,6.188-22.429.072-12.726-10.528-25.39-21.131-38.128-31.645a3.633,3.633,0,0,1-1.44-3.172c.026-16.454.04-32.908-.057-49.362-.012-1.966.611-2.307,2.408-2.3,16.121.068,32.243.04,48.364.04v.056m9.535,28.558c-7.17-6.332-14.121-6.218-20.719.421-4.992,5.022-7.619,11.08-6.849,18.321.455,4.28,2.481,7.646,6.366,9.548,5.619,2.75,10.876,1.448,15.707-2.07,1.081-.787,1.559-1.035,2.431.276a6.887,6.887,0,0,0,5.279,2.945,13.314,13.314,0,0,0,12.257-4.8,25.76,25.76,0,0,0,3-28.589c-5.673-10.591-15.072-14.54-25.68-14.025-13.157.639-22.828,7.357-29.551,18.3C71.4,82.344,78.768,101.544,96.83,107.14a53.453,53.453,0,0,0,21.551,1.991c8.528-.9,16.123-4.036,21.943-10.686,1.307-1.494,2.091-3,.289-4.514-1.673-1.4-3.047-.5-4.271.926a23.767,23.767,0,0,1-9.965,6.9c-9.394,3.477-18.829,2.905-28.229.092-12-3.591-18.354-15.173-14.949-27.066,3.74-13.062,18.505-23.035,31.961-21.51,8.114.92,14.126,5.028,17.289,12.59,3.05,7.291,2.287,14.342-2.609,20.758a8.482,8.482,0,0,1-5.869,3.447c-3.438.433-4.31-.718-3.558-4.092,1.556-6.987,2.961-14.008,4.394-21.022a2.529,2.529,0,0,0-1.948-3.256c-1.645-.422-2.728.414-3.231,1.991-.2.628-.322,1.28-.544,2.181" transform="translate(-29.298 -18.552)" fill="#f2f2f2"/>
        <path id="Trazado_609843" data-name="Trazado 609843" d="M20.839,263.837c18.051-14.984,35.72-29.644,53.373-44.323,1.059-.881,1.8-1.157,3.134-.164,8.26,6.157,17.86,6.263,26.226.255,1.623-1.166,2.459-1,3.918.227q25.35,21.225,50.826,42.3c.56.465,1.1.952,1.974,1.706Z" transform="translate(-10.388 -109.025)" fill="#fd5622"/>
        <path id="Trazado_609844" data-name="Trazado 609844" d="M11.144,210.876V118.335l55.692,46.271L11.144,210.876" transform="translate(-5.555 -58.986)" fill="#fd9701"/>
        <path id="Trazado_609845" data-name="Trazado 609845" d="M254.217,119.345V211.15c-1.448-1.132-2.677-2.044-3.853-3.019q-24.97-20.7-49.949-41.394c-1.519-1.254-1.634-1.868-.008-3.209q25.992-21.427,51.867-43c.545-.452,1-1.105,1.942-1.188" transform="translate(-99.31 -59.489)" fill="#fd9701"/>
        <path id="Trazado_609846" data-name="Trazado 609846" d="M272.218,109.6c0-8.866,0-17.112,0-25.356a.694.694,0,0,1,.9.019c4.9,3.468,9.793,6.949,14.717,10.386.9.63,1.1,1.082.156,1.856-5.135,4.231-10.243,8.5-15.776,13.1" transform="translate(-135.691 -41.912)" fill="#fad700"/>
        <path id="Trazado_609847" data-name="Trazado 609847" d="M31.393,83.219v25.87c-2.778-2.3-5.243-4.341-7.706-6.382-2.628-2.177-5.268-4.34-7.871-6.546-.479-.406-1.519-.839-.352-1.665,5.2-3.68,10.4-7.365,15.928-11.278" transform="translate(-7.442 -41.482)" fill="#fad700"/>
        <path id="Trazado_609848" data-name="Trazado 609848" d="M151.622,21.259l-22.637-.018.033-.14c2.023-2.163,4.609-3.563,7.025-5.193,3.124-.01,6.3-.3,9.254,1.017,2.359,1.048,5.031,1.706,6.325,4.334" transform="translate(-64.295 -7.913)" fill="#fad700"/>
        <path id="Trazado_609849" data-name="Trazado 609849" d="M158.637,18.624c-1.294-2.628-3.966-3.286-6.325-4.334-2.954-1.313-6.13-1.027-9.254-1.017,4.993-3.351,10.236-3.439,15.541-.958,3.215,1.5,5.805,3.977,9.307,6.31Z" transform="translate(-71.309 -5.278)" fill="#fd9701"/>
        <path id="Trazado_609850" data-name="Trazado 609850" d="M128.72,26.3l-.033.14-.3-.084Z" transform="translate(-63.996 -13.107)" fill="#fd9701"/>
        <path id="Trazado_609851" data-name="Trazado 609851" d="M137.079,76.445c.222-.9.344-1.554.544-2.182.5-1.576,1.586-2.412,3.231-1.991a2.529,2.529,0,0,1,1.948,3.256c-1.433,7.014-2.838,14.035-4.394,21.022-.752,3.373.12,4.525,3.558,4.092a8.48,8.48,0,0,0,5.869-3.446c4.9-6.416,5.659-13.467,2.609-20.758-3.163-7.561-9.175-11.669-17.289-12.589C119.7,62.324,104.935,72.3,101.195,85.359c-3.4,11.893,2.949,23.475,14.949,27.066,9.4,2.813,18.836,3.384,28.229-.092a23.764,23.764,0,0,0,9.965-6.9c1.224-1.43,2.6-2.331,4.271-.926,1.8,1.513,1.018,3.02-.289,4.514-5.82,6.65-13.415,9.787-21.943,10.686a53.452,53.452,0,0,1-21.551-1.991c-18.062-5.6-25.425-24.795-15.509-40.938,6.723-10.945,16.394-17.662,29.551-18.3,10.607-.516,20.007,3.435,25.68,14.025a25.759,25.759,0,0,1-3,28.589,13.313,13.313,0,0,1-12.257,4.8,6.886,6.886,0,0,1-5.278-2.946c-.872-1.311-1.35-1.063-2.431-.276-4.831,3.518-10.088,4.821-15.707,2.07-3.885-1.9-5.911-5.268-6.366-9.548-.77-7.24,1.857-13.3,6.848-18.321,6.6-6.638,13.549-6.753,20.719-.42M114.618,91.75c-.08,7.122,4.476,10.6,10.316,8.492,4.633-1.669,7.658-5.237,9.4-9.747,1.5-3.873,1.187-7.578-1.817-10.825A7.164,7.164,0,0,0,123.683,78a18.054,18.054,0,0,0-9.066,13.751" transform="translate(-47.294 -29.125)" fill="#050302"/>
        <path id="Trazado_609852" data-name="Trazado 609852" d="M134.234,110.334A18.054,18.054,0,0,1,143.3,96.583a7.164,7.164,0,0,1,8.838,1.672c3,3.246,3.317,6.952,1.817,10.825-1.747,4.511-4.772,8.078-9.4,9.747-5.84,2.1-10.4-1.37-10.316-8.492" transform="translate(-66.91 -47.708)" fill="#f2f2f2"/>
      </g>
    </g>
  </g>
</svg>
