<svg xmlns="http://www.w3.org/2000/svg" xmlns:xlink="http://www.w3.org/1999/xlink" width="190" height="190" viewBox="0 0 190 190">
  <defs>
    <clipPath id="clip-path">
      <rect id="Rect치ngulo_377990" data-name="Rect치ngulo 377990" width="190" height="190" transform="translate(1125 5923)" fill="#fff" stroke="#707070" stroke-width="1"/>
    </clipPath>
    <clipPath id="clip-path-2">
      <rect id="Rect치ngulo_377996" data-name="Rect치ngulo 377996" width="181.335" height="211.82" fill="none"/>
    </clipPath>
  </defs>
  <g id="Enmascarar_grupo_154287" data-name="Enmascarar grupo 154287" transform="translate(-1125 -5923)" clip-path="url(#clip-path)">
    <g id="Grupo_1072746" data-name="Grupo 1072746" transform="translate(1129 5923)">
      <g id="Grupo_1072745" data-name="Grupo 1072745" clip-path="url(#clip-path-2)">
        <path id="Trazado_609865" data-name="Trazado 609865" d="M26.781,141.179c-6.127,0-11.947.013-17.767,0-5.982-.017-8.911-2.934-8.935-8.9C.04,122.456-.006,112.635,0,102.814c0-5.9,2.784-8.783,8.645-8.838,14.564-.136,29.128-.18,43.691-.289a11.311,11.311,0,0,1,6.326,2.043c-.6-2.7-1.12-5.048-1.659-7.389-.253-1.1-1.218-.715-1.9-.822-6.324-.988-10.855-4.338-12.81-10.471C40.3,70.808,41.88,65.272,46.8,60.879a3.318,3.318,0,0,0,1.043-2.905c-.014-3.752.019-7.5-.028-11.255-.1-8.172,2.644-15.112,8.884-20.511,4.3-3.721,6.047-8.151,4.618-13.843a4.234,4.234,0,0,1,3.521-5.475c12.987-2.249,26.053-3.736,38.891.671,9.906,3.4,16.51,9.9,17.765,20.814.117,1.014.131,1.973,1.474,2.2,5.543.925,7.22,5.246,8.384,9.853,1.336,5.288,1.321,10.717,1.115,16.12a6.642,6.642,0,0,0,2.136,5.448c4.152,4.189,5.213,9.406,3.456,14.972C136.34,82.4,132.59,86.071,126.9,87.044c-2.846.486-4.089,1.637-4.3,4.429a17.007,17.007,0,0,1-1.3,3.853c8.527-3.067,17.188-1.226,25.729-1.464,8.6-.239,17.212-.044,25.813.191,4.625.126,7.417,3.268,7.432,7.978q.051,15.559-.061,31.118c-.032,4.826-3.249,7.972-8.161,8.017-6.06.056-12.12.013-18.423.013,2.569,7.082,1.8,14.314,2.415,21.4.14,1.608.265,2.927,2.3,3.347,1.177.243,1.865,1.451,2.32,2.633a10.794,10.794,0,0,1-2.9,11.449c-1.134.963-.723,2.046-.57,3.012.829,5.223.494,10.524,1.6,15.77,1.461,6.91-4.989,14.045-12.511,14.582-.879.063-1.765.032-2.648.032q-57.1,0-114.206,0c-6.4,0-8.024-1.8-7.6-8.164.507-7.593.9-15.194,1.394-22.789a2.722,2.722,0,0,0-1.467-2.871c-4.122-2.748-3.615-11.877.785-13.833,1.532-.681,1.581-1.577,1.657-2.755.3-4.62.608-9.242.851-13.866a22.3,22.3,0,0,1,1.733-7.948m108.556,68.193a9.7,9.7,0,0,0-.727-1.125c-6.977-6.742-13.989-13.449-20.922-20.236-1.643-1.607-2.9-3.105-5.313-.9-1.153,1.056-3.094.972-4.768.967-5.956-.015-11.912.04-17.868-.018-6.1-.058-8.826-2.856-8.833-8.953-.013-10.368.01-20.736-.025-31.1,0-1.029.342-2.1-.668-3.058-4.235-4.019-8.378-8.136-12.571-12.2-.523-.506-1-1.3-1.933-.859-.739.354-.53,1.12-.622,1.751-.635,4.351-3.1,7.54-7.11,7.238-4.963-.374-7.216,1.973-8.841,5.92a4.013,4.013,0,0,1-.563.814c-2.111,2.807-5.028,2.86-7.116.091-.594-.788-.945-1.772-1.589-2.507-1.151-1.314-1.161-4.319-3.427-3.774-2.083.5-2.426,3.183-3.078,5.158a5.077,5.077,0,0,0-.136,1.312c-.261,5.066-.44,10.138-.812,15.2-.134,1.812.474,2.322,2.18,2.274,3.2-.089,6.4-.024,9.6-.023,6.178,0,6.178,0,6.386-6.032a9.109,9.109,0,0,1,.048-1.321c.218-1.182.829-2.137,2.114-2.162,1.3-.025,1.962.934,2.154,2.107a16.459,16.459,0,0,1,.071,2.641c0,15.111.065,30.222-.058,45.331-.021,2.622.448,3.555,3.351,3.541,26.029-.125,52.058-.073,78.087-.073ZM52.147,48.833c0,2.1-.083,4.2.04,6.287.051.86-.729,2.568,1.194,2.281,1.253-.187,3.179.51,3.3-2.091a17.647,17.647,0,0,1,2.622-8.089c3.373-5.726,8.583-7.057,14.084-3.091,10.305,7.43,23.4,7.136,34-.182,5.17-3.567,9.384-2.794,12.966,2.322a18.275,18.275,0,0,1,3.3,9.216c.2,2.605,2.238,1.541,3.449,1.971,1.163.413,1.078-.776,1.08-1.471.013-5.285.371-10.619-1.159-15.767-.868-2.919-2.189-5.5-5.894-5.821a4.007,4.007,0,0,1-3.794-4.271c-.245-9.41-5.584-15.029-13.86-18.159-11.655-4.408-23.593-3.259-35.563-1.42-2.362.362-2.528,1.315-2.231,3.217.882,5.639-.66,10.6-5.007,14.308-6.465,5.511-9.512,12.271-8.534,20.761m-11.653,96.9a11.432,11.432,0,0,0,1.38-1.673c2.209-5.1,5.475-8.278,11.64-7.444,2.586.35,3.549-1.752,3.545-4.148-.014-9.918-.01-19.836-.076-29.754-.024-3.522-1.238-4.642-4.846-4.64q-21.654.012-43.308.075c-3.549.011-4.759,1.194-4.764,4.728q-.019,14.546.06,29.093c.02,3.92,1.147,5.01,5.223,5.019,5.4.013,10.826.259,16.19-.194,7.013-.593,12.867.315,14.957,8.939m98.984-.575a21.029,21.029,0,0,0,1.71-2.831c1.8-4.408,5.04-5.827,9.7-5.58,6.706.357,13.441.227,20.164.221,4.028,0,5.085-1.1,5.1-5.133q.071-14.385.062-28.769c0-3.735-1.185-4.9-4.913-4.915q-21.494-.058-42.987-.073c-3.978,0-5,1.039-5.021,5.119q-.059,13.723-.064,27.446c-.011,5.505.493,6.147,6.018,6.047,3.5-.063,5.86,1.224,7.432,4.351.719,1.431,1.33,3.025,2.789,4.115m-78.7-62.6c.428,12.477,5.639,21.334,15.976,26.669,10.739,5.544,21.347,4.461,31.1-2.632,7.864-5.719,12.66-16.283,11.086-23.41-10.148,7.045-19.139,4.86-24.9-6.218-1.135-2.182-2.461-.366-3.651-.672-2.791-.719-4.133.565-5.278,3.15a12.776,12.776,0,0,1-7.811,6.73c-5.888,2.058-11.212.856-16.526-3.618M80.964,159.5c0,6.62.028,13.241-.013,19.862-.018,3.007,1.285,4.484,4.386,4.4,3.418-.089,6.841-.019,10.261-.02,3.09,0,6.178,0,9.268-.013.9,0,1.97-.04,2.342-.911.508-1.19-.766-1.689-1.424-2.307-1.571-1.475-3.574-.672-5.379-.747-4.752-.2-7.621-2.924-7.669-7.6q-.068-6.62,0-13.241c.052-4.28,2.634-7.022,6.89-7.292a47.827,47.827,0,0,1,6.284-.018c1.947.134,2.472-.654,2.406-2.479-.117-3.2,0-6.4-.042-9.6-.046-3.69-.754-4.405-4.548-4.432q-9.1-.065-18.2,0c-3.565.03-4.53,1-4.55,4.528-.037,6.62-.011,13.241-.011,19.861M61.007,63.053c6.089-1.167,11.834-.508,17.546-.584,4.3-.056,7.3,2.366,8.39,6.532.433,1.655.688,3.33,2.9,3.194,1.943-.12,3.041-1.059,3.55-3.157.953-3.936,3.747-6.48,7.34-6.517,6.133-.064,12.291-.6,18.559.49.166-4.983.863-9.95-2.327-14.35-2.28-3.145-3.985-3.484-7.181-1.324-12.658,8.559-26.574,8.557-39.228,0-3.2-2.163-4.913-1.83-7.192,1.3-3.2,4.392-2.5,9.365-2.357,14.423m50.787,116.741c.112.434.1.7.225.828,9.118,8.792,18.2,17.618,27.407,26.322a8.123,8.123,0,0,0,7.624,2.178c3.728-.86,6.375-3.063,7.315-6.808,1.006-4.012-.422-7.319-3.554-9.973q-14.112-11.962-28.2-23.953c-.521-.441-.929-1.3-1.885-.908-.313,10.142-1.6,11.952-8.932,12.315M129.345,168.6c0-2.141,0-3.633,0-5.125,0-1.542-.006-3.084,0-4.626.011-1.571.445-3.037,2.278-2.993,1.6.038,2,1.39,2.123,2.842.188,2.153-1.078,5.146.625,6.243,1.657,1.067,4.47.346,6.776.392,1.1.023,2.2,0,3.3,0,7.459,0,7.585-.008,7.125-7.552-.266-4.369.154-8.836-1.269-13.082-.478-1.428-1.043-3.2-2.739-3.41-1.61-.2-1.7,1.746-2.483,2.715a19.854,19.854,0,0,0-1.372,2.254c-2.837,4.676-6.051,4.677-8.861,0a8.529,8.529,0,0,1-.849-1.41c-1.072-3-3.057-4.035-6.3-3.837a7.978,7.978,0,0,1-8.266-5.326c-1.359-4.389-1.36-4.389-4.807-.911a13.213,13.213,0,0,0-1.379,1.42c-1.229,1.687-.677,3.643-.463,5.416.186,1.549,1.814.666,2.778.872a6.155,6.155,0,0,1,5.073,6.031c.076,3.523.012,7.05.027,10.574,0,1.073-.154,2.121.924,2.975,2.467,1.952,4.823,4.045,7.753,6.529m-82.76,26.223c0-4.191-.034-8.381.02-12.571.017-1.3-.189-2.011-1.762-1.986-5.291.083-10.585.062-15.878.011-1.3-.013-1.66.5-1.724,1.736-.424,8.144-.88,16.287-1.412,24.425-.14,2.146.616,3,2.794,2.965,5.291-.085,10.587-.109,15.877.015,1.9.044,2.14-.786,2.111-2.355-.077-4.079-.026-8.16-.027-12.24m59.843-19.271c2.2,0,4.408.03,6.611-.008,2.232-.039,3.536-1.184,3.567-3.449q.086-6.445,0-12.892a3.164,3.164,0,0,0-3.508-3.478c-4.3-.011-8.6-.028-12.892.007-2.315.019-3.387,1.377-3.408,3.575-.041,4.187-.023,8.374-.007,12.562.009,2.427,1.281,3.649,3.685,3.679,1.983.025,3.967.005,5.951,0M78.287,114.629c-4.2,8.151,2.212,11.815,6.854,15.5,2.533,2.012,7.487,2,10,.018,4.66-3.673,11.063-7.348,6.9-15.518a33.632,33.632,0,0,1-23.753,0M123.8,83.674c1.611-.452,2.9-.7,4.094-1.168a10.979,10.979,0,0,0-1.978-20.9c-1.167-.195-2.15-.53-2.136,1.3.05,6.8.02,13.6.02,20.767M56.515,72.688c0-2.964-.14-5.938.045-8.891.143-2.281-.743-2.548-2.682-2.114-4.948,1.108-8.531,6.1-8.181,11.6C46.01,78.2,50.4,82.8,55.059,83.347c1.754.2,1.434-.853,1.443-1.764.03-2.964.012-5.929.012-8.894M61.1,126.2c2.505-2.6,4.386-4.57,6.281-6.523a4.9,4.9,0,0,1,3.394-1.765c.887-.046,2.483,1.211,2.657-.642.165-1.747,1.149-4.093-.595-5.245A45.989,45.989,0,0,1,61.1,100.4Zm57.922.162V100.377a35.933,35.933,0,0,1-11.143,11.257c-2.212,1.372-1.049,3.6-1.028,5.41.026,2.189,1.84.791,2.78.866a4.959,4.959,0,0,1,3.359,1.819c1.838,1.976,3.635,3.99,6.032,6.632M35.068,176.3c3.08,0,6.177-.189,9.238.056,2.839.228,2.4-1.59,2.275-3.158-.119-1.463,1.082-3.677-2.134-3.6q-9.4.231-18.811,0c-2.821-.071-2.217,1.724-2.224,3.27-.008,1.685-.55,3.657,2.418,3.476,3.069-.186,6.159-.041,9.239-.042m110.2-6.655c-3.182,0-6.369.107-9.544-.035-2.289-.1-2.66,1.494-1.767,2.6,1.494,1.857,3.031,4.094,5.942,4.09,4.937-.008,9.877-.1,14.811.033,2.813.074,2.212-1.831,2.173-3.349-.036-1.439.843-3.5-2.071-3.372-3.176.138-6.362.031-9.544.03M76.8,140.236c.123-2.5-.07-4.514,1.142-5.562,3.348-2.9,1.208-4.612-.98-6.5-.665-.574-1.251-1.241-1.873-1.865-4.642-4.649-4.61-4.62-9,.384-.908,1.035-1.072,1.626,0,2.672,3.451,3.375,6.787,6.865,10.716,10.87m23.844-9.7c3.717.6,6.728-.06,9.131,1.947.655.547,1.174-.008,1.718-.408,4.283-3.152,4.332-3.76.539-7.539a15.922,15.922,0,0,1-1.161-1.175c-.9-1.11-1.665-1.053-2.683-.025-2.237,2.26-4.595,4.4-7.543,7.2m7.528-54.38c2.966,0,5.931-.036,8.9.016,1.347.025,2.216-.527,2.138-1.853-.083-1.381-1.339-.815-2.075-.822q-8.731-.075-17.464.005c-.788.008-2.248-.676-2.134,1.074.074,1.139.881,1.618,2.072,1.6,2.855-.053,5.711-.017,8.567-.017m-36.389-.008c3.075,0,6.15-.008,9.226,0a1.626,1.626,0,0,0,1.782-1.873C82.743,73.1,81.665,73.5,81,73.494c-5.931-.033-11.862-.045-17.792.009-.8.007-2.247-.63-2.1,1.118.1,1.165.941,1.576,2.108,1.555,2.855-.05,5.711-.017,8.567-.024M97.914,68.9h20.891c-3.235-3.48-17.61-3.487-20.891,0M82.2,69.008c-2.8-3.872-18.394-3.716-20.321,0Zm71.264,120.173c-.168-2.846-.315-4.919-.4-6.993-.044-1.039-.022-1.951-1.516-1.906-2.572.076-5.148.021-8.473.021l10.39,8.878M101.694,80.428c4.561,3.48,9.546,3.4,13.015,0Zm-23.235.154H65.292c4.655,3.221,8.865,3.195,13.166,0m34.14,68.927c-.713,1.887.818,2.115,2.671,2.369,1.818.249,1.3-.947,1.348-1.791.093-1.73-.036-3.3-2.354-3.5-2.048-.174-1.551,1.253-1.665,2.923" transform="translate(0 -1.593)" fill="#090808"/>
        <path id="Trazado_609866" data-name="Trazado 609866" d="M266.408,234.523c-.157,1.178-.79,2.25-1.969,2.284-1.989.058-2.543.964-2.747,2.795A2.368,2.368,0,0,1,259,241.54a2.131,2.131,0,0,1-2.351-2.213c-.029-1.661-.733-2.368-2.389-2.4a2.134,2.134,0,0,1-2.242-2.324,2.412,2.412,0,0,1,1.945-2.7c1.768-.26,2.793-.739,2.8-2.758,0-1.1,1.089-1.6,2.091-1.818a2.125,2.125,0,0,1,2.571,1.572c.4,2,1.543,2.779,3.335,3.292a2.6,2.6,0,0,1,1.652,2.334" transform="translate(-85.073 -76.72)" fill="#6ed3f5"/>
        <path id="Trazado_609867" data-name="Trazado 609867" d="M48.192,36a11.234,11.234,0,0,0-7.613-6.928c3.7-1.593,6.339-3.567,7.49-7.8,1.736,3.653,3.519,6.5,7.413,7.556A13.008,13.008,0,0,0,48.192,36" transform="translate(-13.698 -7.178)" fill="#fbd38e"/>
        <path id="Trazado_609868" data-name="Trazado 609868" d="M11.668,245.012a10.109,10.109,0,0,0-4.945-4.99,9.864,9.864,0,0,0,5.1-5.254,10.778,10.778,0,0,1,.68,1.49c.472,1.95,3.971,2.352,3.149,4.2-.643,1.447-2.726,2.566-3.985,4.551" transform="translate(-2.269 -79.251)" fill="#fbd38e"/>
        <path id="Trazado_609869" data-name="Trazado 609869" d="M71.456,5.563c-1.6-.294-2.9-.99-2.9-2.7a2.6,2.6,0,0,1,2.9-2.856,2.551,2.551,0,0,1,2.65,2.769c-.027,1.683-1.145,2.507-2.655,2.788" transform="translate(-23.144 0)" fill="#fa647d"/>
        <path id="Trazado_609870" data-name="Trazado 609870" d="M247.507,271.708a2.709,2.709,0,0,1-2.633-2.77c-.078-1.821.871-3.016,2.617-3.089a2.668,2.668,0,0,1,2.875,2.87c.077,1.907-1.24,2.605-2.859,2.988" transform="translate(-82.66 -89.742)" fill="#fbd38e"/>
        <path id="Trazado_609871" data-name="Trazado 609871" d="M149.807,274.112h-2.993c-26.029,0-52.058-.052-78.087.074-2.9.014-3.372-.919-3.351-3.541.123-15.11.06-30.221.058-45.332a16.459,16.459,0,0,0-.071-2.641c-.191-1.173-.853-2.132-2.154-2.107-1.285.025-1.9.98-2.114,2.163a9.1,9.1,0,0,0-.048,1.32c-.209,6.033-.209,6.033-6.387,6.032-3.2,0-6.4-.066-9.595.023-1.707.048-2.314-.461-2.181-2.274.372-5.058.552-10.13.812-15.2a5.109,5.109,0,0,1,.137-1.312c.651-1.975.994-4.656,3.078-5.157,2.265-.546,2.275,2.46,3.427,3.774.644.735.995,1.718,1.589,2.506,2.088,2.77,5,2.717,7.115-.09a4.007,4.007,0,0,0,.564-.814c1.626-3.947,3.879-6.294,8.841-5.92,4.014.3,6.475-2.887,7.11-7.238.092-.631-.117-1.4.623-1.75.929-.444,1.41.352,1.933.859,4.193,4.064,8.335,8.18,12.571,12.2,1.01.959.664,2.028.668,3.058.035,10.368.012,20.735.025,31.1.007,6.1,2.736,8.894,8.833,8.953,5.955.057,11.912,0,17.867.018,1.675,0,3.616.089,4.769-.968,2.41-2.209,3.671-.711,5.313.9,6.934,6.786,13.945,13.494,20.923,20.235a9.772,9.772,0,0,1,.727,1.125" transform="translate(-14.47 -66.333)" fill="#fa647d"/>
        <path id="Trazado_609872" data-name="Trazado 609872" d="M78.629,50.972c-.978-8.49,2.069-15.25,8.533-20.762C91.51,26.5,93.052,21.542,92.17,15.9c-.3-1.9-.131-2.854,2.231-3.217,11.97-1.838,23.908-2.988,35.563,1.42,8.276,3.131,13.615,8.749,13.86,18.159a4.007,4.007,0,0,0,3.794,4.272c3.7.324,5.026,2.9,5.894,5.821,1.531,5.147,1.172,10.481,1.159,15.766,0,.7.083,1.883-1.08,1.471-1.21-.429-3.252.635-3.449-1.971a18.273,18.273,0,0,0-3.3-9.216c-3.582-5.116-7.8-5.889-12.966-2.322-10.607,7.318-23.7,7.612-34,.182-5.5-3.966-10.711-2.635-14.084,3.091a17.648,17.648,0,0,0-2.622,8.089c-.126,2.6-2.052,1.9-3.3,2.091-1.924.287-1.143-1.422-1.194-2.281-.124-2.089-.04-4.191-.04-6.287" transform="translate(-26.482 -3.731)" fill="#fbd38e"/>
        <path id="Trazado_609873" data-name="Trazado 609873" d="M42.564,193.312c-2.091-8.625-7.945-9.532-14.957-8.939-5.364.453-10.792.207-16.19.194-4.076-.009-5.2-1.1-5.223-5.019Q6.119,165,6.134,150.455c0-3.533,1.215-4.717,4.764-4.728q21.654-.065,43.308-.075c3.609,0,4.822,1.118,4.846,4.64.066,9.918.062,19.836.076,29.754,0,2.4-.959,4.5-3.545,4.148-6.165-.834-9.431,2.342-11.64,7.444a11.408,11.408,0,0,1-1.379,1.673m-9.937-16.63c4.728,0,9.455.011,14.183-.006,1.477-.005,3.059-.069,3.043-2.108-.017-1.946-1.506-2.193-3.021-2.195q-14.182-.017-28.365,0c-1.511,0-3.007.227-3.041,2.175-.035,2.04,1.538,2.122,3.02,2.128,4.728.017,9.455.007,14.183.007m-.156-8.915c4.743,0,9.487.009,14.23-.006,1.418,0,3.113.238,3.143-1.908.028-1.959-1.418-2.221-2.976-2.22q-14.23.006-28.46,0c-1.558,0-3,.258-2.977,2.218.028,2.149,1.724,1.905,3.141,1.91,4.633.015,9.266.005,13.9.006m-7.433-8.744c2.307,0,4.615-.022,6.922.008,1.333.017,2.5-.236,2.6-1.814.111-1.736-1.031-2.245-2.549-2.243q-7.087.007-14.173.006c-1.364,0-2.41.426-2.427,2.014s.967,2.044,2.372,2.032c2.417-.02,4.834-.005,7.252,0" transform="translate(-2.069 -49.168)" fill="#6ed3f5"/>
        <path id="Trazado_609874" data-name="Trazado 609874" d="M202.278,192.74c-1.459-1.09-2.07-2.684-2.789-4.114-1.573-3.127-3.931-4.414-7.432-4.351-5.525.1-6.029-.542-6.018-6.047q.026-13.724.064-27.447c.018-4.081,1.043-5.122,5.021-5.119q21.495.018,42.988.074c3.727.01,4.91,1.179,4.913,4.914q.008,14.385-.062,28.77c-.02,4.036-1.076,5.13-5.1,5.132-6.723.005-13.457.136-20.164-.221-4.664-.248-7.9,1.171-9.705,5.579a20.99,20.99,0,0,1-1.71,2.831m25.172-30.8a7.946,7.946,0,0,0-4.224-6.965,7.761,7.761,0,0,0-8.722.333c-1.512,1.055-2.352,1.065-3.9.021A8.146,8.146,0,0,0,199.6,156.84a8.331,8.331,0,0,0,.56,11.38c2.811,2.952,5.719,5.815,8.659,8.641,2.686,2.581,4.757,2.593,7.438.025,2.945-2.82,5.8-5.731,8.671-8.629a8.609,8.609,0,0,0,2.525-6.311" transform="translate(-62.801 -49.171)" fill="#f6f6f6"/>
        <path id="Trazado_609875" data-name="Trazado 609875" d="M91.744,118.819c5.315,4.473,10.638,5.676,16.526,3.618a12.779,12.779,0,0,0,7.811-6.73c1.144-2.585,2.485-3.869,5.277-3.151,1.19.307,2.517-1.51,3.651.672,5.761,11.079,14.751,13.264,24.9,6.219,1.575,7.127-3.223,17.69-11.086,23.41-9.754,7.094-20.362,8.176-31.1,2.633-10.337-5.336-15.548-14.193-15.976-26.669M121.459,133.4a12.752,12.752,0,0,0,9.163-3.236c1.067-.967,2.276-2.065,1-3.625-1.3-1.6-2.417-.574-3.622.378-4.13,3.266-8.731,3.218-12.969-.142-1.148-.91-2.235-1.664-3.417-.36-1.148,1.266-.466,2.447.588,3.446a12.734,12.734,0,0,0,9.252,3.539" transform="translate(-30.97 -37.854)" fill="#f5ccb1"/>
        <path id="Trazado_609876" data-name="Trazado 609876" d="M122.217,225.922c0-6.62-.027-13.241.011-19.861.02-3.525.986-4.5,4.55-4.528q9.1-.076,18.2,0c3.794.027,4.5.741,4.548,4.432.04,3.2-.075,6.4.041,9.6.066,1.825-.458,2.613-2.405,2.479a47.71,47.71,0,0,0-6.284.018c-4.257.27-6.838,3.011-6.89,7.292-.054,4.412-.048,8.827,0,13.24.048,4.675,2.917,7.4,7.668,7.6,1.806.074,3.808-.728,5.38.747.657.617,1.932,1.116,1.424,2.306-.372.872-1.443.908-2.342.911-3.09.013-6.179.011-9.268.012-3.421,0-6.843-.069-10.261.02-3.1.08-4.4-1.4-4.386-4.4.04-6.62.013-13.241.013-19.861m7.612-16.475c-.059-1.57-.04-3.286-2.307-3.145-1.912.119-2.032,1.6-2.091,3.107-.066,1.71.366,3.353,2.209,3.4,1.975.051,2.244-1.706,2.189-3.362" transform="translate(-41.253 -68.02)" fill="#f6f6f6"/>
        <path id="Trazado_609877" data-name="Trazado 609877" d="M92.012,84.066c-.144-5.058-.845-10.031,2.357-14.422,2.279-3.125,3.994-3.459,7.192-1.3,12.654,8.561,26.571,8.561,39.228,0,3.2-2.161,4.9-1.822,7.181,1.324,3.19,4.4,2.493,9.367,2.326,14.35-6.267-1.092-12.427-.554-18.559-.49-3.592.038-6.387,2.581-7.34,6.518-.508,2.1-1.606,3.037-3.55,3.156-2.211.136-2.466-1.539-2.9-3.194-1.091-4.166-4.089-6.589-8.39-6.532-5.713.075-11.457-.583-17.546.583" transform="translate(-31.005 -22.605)" fill="#f5ccb1"/>
        <path id="Trazado_609878" data-name="Trazado 609878" d="M168.764,262.685c7.336-.363,8.62-2.173,8.932-12.315.957-.395,1.365.467,1.885.908q14.116,11.957,28.2,23.953c3.132,2.654,4.56,5.961,3.554,9.973-.939,3.745-3.587,5.948-7.315,6.808a8.123,8.123,0,0,1-7.624-2.178c-9.2-8.7-18.289-17.529-27.407-26.322-.128-.123-.113-.394-.225-.828" transform="translate(-56.97 -84.484)" fill="#f5ccb1"/>
        <path id="Trazado_609879" data-name="Trazado 609879" d="M186.666,233.608c-2.931-2.484-5.287-4.577-7.753-6.529-1.078-.854-.92-1.9-.925-2.975-.015-3.525.049-7.051-.027-10.574a6.154,6.154,0,0,0-5.072-6.031c-.964-.206-2.591.677-2.778-.872-.213-1.773-.765-3.729.464-5.416a13.142,13.142,0,0,1,1.379-1.42c3.448-3.478,3.448-3.478,4.808.911a7.977,7.977,0,0,0,8.266,5.326c3.247-.2,5.231.834,6.3,3.837a8.528,8.528,0,0,0,.849,1.41c2.809,4.673,6.023,4.672,8.861,0a19.846,19.846,0,0,1,1.371-2.254c.784-.969.874-2.916,2.484-2.715,1.7.211,2.261,1.981,2.739,3.41,1.422,4.246,1,8.714,1.269,13.082.46,7.544.334,7.552-7.126,7.552-1.1,0-2.2.019-3.3,0-2.306-.046-5.119.674-6.777-.392-1.7-1.1-.437-4.091-.625-6.243-.127-1.452-.525-2.8-2.124-2.842-1.832-.044-2.266,1.422-2.277,2.993-.011,1.542,0,3.084-.005,4.626,0,1.492,0,2.984,0,5.125" transform="translate(-57.32 -66.598)" fill="#fa647d"/>
        <path id="Trazado_609880" data-name="Trazado 609880" d="M59.74,284.284c0,4.08-.051,8.161.026,12.24.03,1.569-.207,2.4-2.11,2.355-5.29-.125-10.586-.1-15.877-.015-2.178.035-2.934-.819-2.794-2.965.532-8.138.988-16.281,1.411-24.425.064-1.233.42-1.749,1.724-1.736,5.292.052,10.586.073,15.878-.011,1.573-.024,1.778.688,1.762,1.987-.054,4.19-.02,8.38-.02,12.571" transform="translate(-13.155 -91.051)" fill="#f5ccb1"/>
        <path id="Trazado_609881" data-name="Trazado 609881" d="M155.744,252.5c-1.983,0-3.967.021-5.95,0-2.4-.03-3.677-1.252-3.686-3.679-.016-4.187-.034-8.374.007-12.562.022-2.2,1.094-3.557,3.409-3.575,4.3-.035,8.594-.019,12.892-.007a3.164,3.164,0,0,1,3.508,3.478q.091,6.445,0,12.892c-.03,2.264-1.335,3.41-3.567,3.449-2.2.038-4.407.008-6.611.009" transform="translate(-49.316 -78.539)" fill="#f5ccb1"/>
        <path id="Trazado_609882" data-name="Trazado 609882" d="M117.488,170.639a33.633,33.633,0,0,0,23.753,0c4.165,8.17-2.237,11.845-6.9,15.518-2.515,1.982-7.469,1.993-10-.019-4.642-3.685-11.049-7.349-6.853-15.5" transform="translate(-39.2 -57.603)" fill="#f5ccb1"/>
        <path id="Trazado_609883" data-name="Trazado 609883" d="M186.878,112.584c0-7.164.03-13.965-.02-20.767-.013-1.829.97-1.494,2.136-1.3a10.979,10.979,0,0,1,1.978,20.9c-1.2.471-2.483.717-4.094,1.168" transform="translate(-63.078 -30.503)" fill="#f5ccb1"/>
        <path id="Trazado_609884" data-name="Trazado 609884" d="M79.789,101.629c0,2.964.019,5.929-.012,8.894-.009.911.311,1.969-1.443,1.764-4.656-.543-9.05-5.147-9.363-10.062-.35-5.5,3.233-10.494,8.181-11.6,1.939-.434,2.825-.168,2.682,2.114-.185,2.953-.045,5.927-.045,8.891" transform="translate(-23.275 -30.534)" fill="#f5ccb1"/>
        <path id="Trazado_609885" data-name="Trazado 609885" d="M92.231,174.956v-25.8a45.989,45.989,0,0,0,11.736,11.628c1.744,1.152.76,3.5.595,5.245-.174,1.853-1.77.6-2.658.642a4.9,4.9,0,0,0-3.393,1.765c-1.895,1.953-3.775,3.919-6.28,6.523" transform="translate(-31.134 -50.35)" fill="#f6f6f6"/>
        <path id="Trazado_609886" data-name="Trazado 609886" d="M173.3,175.107c-2.4-2.642-4.195-4.656-6.032-6.631a4.952,4.952,0,0,0-3.359-1.82c-.94-.075-2.754,1.323-2.78-.866-.021-1.809-1.184-4.039,1.028-5.411A35.936,35.936,0,0,0,173.3,149.123Z" transform="translate(-54.284 -50.339)" fill="#f6f6f6"/>
        <path id="Trazado_609887" data-name="Trazado 609887" d="M46.973,260.317c-3.08,0-6.17-.145-9.239.042-2.968.18-2.426-1.792-2.418-3.476.007-1.547-.6-3.341,2.224-3.27q9.4.236,18.811,0c3.216-.079,2.016,2.135,2.134,3.6.127,1.568.564,3.386-2.276,3.159-3.06-.246-6.157-.056-9.237-.056" transform="translate(-11.905 -85.611)" fill="#fa647d"/>
        <path id="Trazado_609888" data-name="Trazado 609888" d="M213.3,253.667c3.182,0,6.369.107,9.544-.031,2.914-.127,2.034,1.934,2.071,3.372.039,1.518.64,3.423-2.173,3.349-4.934-.129-9.874-.041-14.811-.033-2.911.005-4.448-2.233-5.942-4.09-.893-1.109-.522-2.706,1.767-2.6,3.176.142,6.363.036,9.544.036" transform="translate(-68.034 -85.617)" fill="#fa647d"/>
        <path id="Trazado_609889" data-name="Trazado 609889" d="M110.094,200.451c-3.929-4.005-7.266-7.5-10.716-10.87-1.07-1.047-.906-1.638,0-2.672,4.393-5,4.36-5.032,9-.384.623.624,1.208,1.29,1.873,1.864,2.188,1.889,4.328,3.6.98,6.5-1.212,1.048-1.018,3.062-1.142,5.562" transform="translate(-33.297 -61.808)" fill="#fa647d"/>
        <path id="Trazado_609890" data-name="Trazado 609890" d="M151.928,190.588c2.948-2.8,5.305-4.94,7.543-7.2,1.018-1.028,1.781-1.085,2.683.025a16.058,16.058,0,0,0,1.161,1.176c3.794,3.778,3.743,4.387-.539,7.538-.543.4-1.063.955-1.718.408-2.4-2.008-5.414-1.345-9.131-1.947" transform="translate(-51.286 -61.64)" fill="#fa647d"/>
        <path id="Trazado_609891" data-name="Trazado 609891" d="M157.867,111.151c-2.856,0-5.712-.036-8.567.017-1.19.022-2-.457-2.072-1.6-.114-1.75,1.347-1.066,2.134-1.074q8.731-.09,17.464,0c.737.006,1.992-.558,2.075.822.079,1.326-.79,1.877-2.138,1.853-2.964-.053-5.931-.017-8.9-.017" transform="translate(-49.698 -36.583)" fill="#6ed3f5"/>
        <path id="Trazado_609892" data-name="Trazado 609892" d="M102.915,111.154c-2.856,0-5.712-.03-8.567.02-1.168.021-2.012-.39-2.108-1.555-.144-1.748,1.3-1.11,2.1-1.118,5.931-.054,11.861-.042,17.792-.009.664,0,1.743-.4,1.789.789a1.627,1.627,0,0,1-1.783,1.873c-3.075-.012-6.151,0-9.226,0" transform="translate(-31.134 -36.591)" fill="#6ed3f5"/>
        <path id="Trazado_609893" data-name="Trazado 609893" d="M147.811,100.274c3.281-3.487,17.656-3.48,20.891,0Z" transform="translate(-49.897 -32.967)" fill="#6ed3f5"/>
        <path id="Trazado_609894" data-name="Trazado 609894" d="M113.732,100.32H93.41c1.928-3.716,17.519-3.873,20.322,0" transform="translate(-31.532 -32.904)" fill="#6ed3f5"/>
        <path id="Trazado_609895" data-name="Trazado 609895" d="M226.372,278.646l-10.391-8.878c3.326,0,5.9.055,8.474-.021,1.494-.044,1.471.868,1.515,1.906.087,2.074.234,4.146.4,6.993" transform="translate(-72.909 -91.058)" fill="#f5ccb1"/>
        <path id="Trazado_609896" data-name="Trazado 609896" d="M153.516,119.01h13.015c-3.468,3.4-8.454,3.48-13.015,0" transform="translate(-51.822 -40.174)" fill="#6ed3f5"/>
        <path id="Trazado_609897" data-name="Trazado 609897" d="M111.732,119.241c-4.3,3.195-8.512,3.221-13.166,0Z" transform="translate(-33.273 -40.252)" fill="#6ed3f5"/>
        <path id="Trazado_609898" data-name="Trazado 609898" d="M169.887,221.795c.115-1.671-.382-3.1,1.665-2.923,2.318.2,2.447,1.771,2.354,3.5-.046.845.47,2.04-1.348,1.791-1.853-.254-3.384-.482-2.671-2.369" transform="translate(-57.288 -73.88)" fill="#f5ccb1"/>
        <path id="Trazado_609899" data-name="Trazado 609899" d="M37.362,190.294c-4.728,0-9.455.011-14.183-.007-1.482-.005-3.055-.087-3.02-2.128.034-1.948,1.53-2.173,3.041-2.175q14.182-.016,28.365,0c1.516,0,3,.248,3.021,2.195.017,2.039-1.565,2.1-3.043,2.108-4.728.017-9.455.006-14.183.006" transform="translate(-6.805 -62.78)" fill="#090808"/>
        <path id="Trazado_609900" data-name="Trazado 609900" d="M37.21,176.93c-4.633,0-9.266.009-13.9-.005-1.418,0-3.113.238-3.141-1.91-.026-1.961,1.42-2.219,2.977-2.218q14.23.006,28.46,0c1.559,0,3,.261,2.977,2.22-.03,2.146-1.726,1.9-3.143,1.908-4.744.014-9.487.005-14.23.005" transform="translate(-6.809 -58.331)" fill="#090808"/>
        <path id="Trazado_609901" data-name="Trazado 609901" d="M29.769,163.771c-2.417,0-4.834-.016-7.252,0-1.4.012-2.389-.446-2.372-2.032s1.063-2.014,2.427-2.014q7.087,0,14.173-.006c1.518,0,2.66.507,2.549,2.243-.1,1.578-1.272,1.832-2.6,1.814-2.307-.03-4.614-.008-6.922-.009" transform="translate(-6.801 -53.918)" fill="#090808"/>
        <path id="Trazado_609902" data-name="Trazado 609902" d="M233.349,166.093a8.61,8.61,0,0,1-2.525,6.311c-2.869,2.9-5.726,5.809-8.671,8.629-2.682,2.569-4.752,2.557-7.438-.025-2.94-2.825-5.847-5.689-8.659-8.641a8.331,8.331,0,0,1-.56-11.38,8.147,8.147,0,0,1,11.006-1.506c1.549,1.043,2.389,1.034,3.9-.021a7.761,7.761,0,0,1,8.722-.333,7.946,7.946,0,0,1,4.224,6.965m-4.376,1.055c.211-2.534-.695-3.749-2.161-4.481a3.8,3.8,0,0,0-4.609.644c-2.6,2.743-4.815,2.707-7.521.038a3.788,3.788,0,0,0-5.864.319,3.9,3.9,0,0,0,.152,5.651c2.64,2.8,5.4,5.488,8.129,8.2.593.588,1.225,1.444,2.186.468,3.082-3.132,6.192-6.239,9.206-9.435a2.427,2.427,0,0,0,.48-1.4" transform="translate(-68.7 -53.318)" fill="#090808"/>
        <path id="Trazado_609903" data-name="Trazado 609903" d="M131.283,140.321a12.734,12.734,0,0,1-9.252-3.539c-1.054-1-1.736-2.18-.588-3.446,1.182-1.3,2.269-.55,3.417.36,4.238,3.361,8.839,3.409,12.969.142,1.2-.953,2.318-1.975,3.622-.378,1.272,1.559.062,2.658-1,3.625a12.752,12.752,0,0,1-9.163,3.236" transform="translate(-40.794 -44.771)" fill="#090808"/>
        <path id="Trazado_609904" data-name="Trazado 609904" d="M131.471,211.891c.056,1.655-.214,3.413-2.189,3.362-1.843-.047-2.275-1.691-2.209-3.4.059-1.51.179-2.988,2.091-3.107,2.267-.14,2.248,1.575,2.307,3.145" transform="translate(-42.894 -70.464)" fill="#090808"/>
        <path id="Trazado_609905" data-name="Trazado 609905" d="M231.1,169.268a2.427,2.427,0,0,1-.48,1.4c-3.014,3.2-6.124,6.3-9.206,9.435-.961.976-1.593.12-2.186-.468-2.734-2.709-5.489-5.4-8.129-8.2a3.9,3.9,0,0,1-.152-5.651,3.788,3.788,0,0,1,5.864-.319c2.705,2.668,4.924,2.7,7.521-.038a3.8,3.8,0,0,1,4.609-.644c1.466.732,2.372,1.947,2.161,4.481" transform="translate(-70.824 -55.439)" fill="#fa647d"/>
      </g>
    </g>
  </g>
</svg>
