<svg xmlns="http://www.w3.org/2000/svg" width="120" height="120" viewBox="0 0 120 120">
  <g id="Group_1074132" data-name="Group 1074132" transform="translate(-180 -10524.338)">
    <g id="Group_1074031" data-name="Group 1074031" transform="translate(-89 9566.338)">
      <path id="Path_608972" data-name="Path 608972" d="M60,0A60,60,0,1,1,0,60,60,60,0,0,1,60,0Z" transform="translate(269 958)" fill="#0c5e46"/>
    </g>
    <g id="marketing" transform="translate(203 10547.157)">
      <g id="Group_1074100" data-name="Group 1074100" transform="translate(0 0.548)">
        <path id="Path_612891" data-name="Path 612891" d="M51.983,88.942A3.332,3.332,0,0,0,50.374,86.1l-4.518-2.71A3.073,3.073,0,0,0,41.2,86.026v5.831a3.073,3.073,0,0,0,4.656,2.637l4.518-2.71A3.331,3.331,0,0,0,51.983,88.942Zm-2.842.787-4.518,2.71a.7.7,0,0,1-1.027-.581V86.027a.677.677,0,0,1,1.027-.582l4.518,2.71a.918.918,0,0,1,0,1.574Z" transform="translate(-35.211 -70.972)" fill="#fff"/>
        <path id="Path_612892" data-name="Path 612892" d="M65.469,53.264a32.115,32.115,0,0,0,2.9-7.191h6.072L73.664,39.9a6.609,6.609,0,0,0-2.924-4.683,5.967,5.967,0,0,0-3.65-10.706c-.138,0-.267.031-.4.041a32.413,32.413,0,0,0-2.654-4.833h7.848a2.4,2.4,0,0,0,2.4-2.4V2.944a2.4,2.4,0,0,0-2.4-2.4h-2.4a2.4,2.4,0,0,0-2.4,2.4V17.32h-1.2V7.736a2.4,2.4,0,0,0-2.4-2.4H61.1a2.4,2.4,0,0,0-2.4,2.4V17.32h-1.2V12.528a2.4,2.4,0,0,0-2.4-2.4H54.067a32.136,32.136,0,0,0-8.7-3.714A7.42,7.42,0,0,0,38.118.548H36.159a7.417,7.417,0,0,0-7.241,5.857A31.978,31.978,0,0,0,18.64,11.159,10.77,10.77,0,1,0,6.208,28.268a32.2,32.2,0,0,0-1.348,7.606A10.766,10.766,0,0,0,10.246,55.63a32.384,32.384,0,0,0,6.527,7.163v4.845a2.4,2.4,0,0,0,2.4,2.4h5.056l.681,2.723a2.731,2.731,0,0,0,5.3,0l.681-2.722h5.056c.059,0,.113-.013.17-.017.343.011.683.017,1.028.017a32.077,32.077,0,0,0,12.527-2.527,10.774,10.774,0,1,0,15.8-14.243Zm4.017-50.32h2.4V17.32h-2.4Zm1.8,37.25.435,3.483H62.457l.435-3.483a4.231,4.231,0,0,1,8.4,0Zm-.6-9.7A3.594,3.594,0,1,1,67.09,26.9,3.6,3.6,0,0,1,70.684,30.5ZM61.1,7.736h2.4V17.32H61.1Zm-8.386,4.792h2.4V17.32h-2.4ZM36.16,2.944h1.959a5.01,5.01,0,0,1,3.912,8.141l-3.072,3.84h-.622V12.308a3.594,3.594,0,1,0-2.4,0v2.616h-.622l-3.072-3.841A5.009,5.009,0,0,1,36.16,2.944ZM35.941,17.32h2.4v1.2a1.2,1.2,0,1,1-2.4,0v-1.2Zm0-8.386a1.2,1.2,0,1,1,1.2,1.2A1.2,1.2,0,0,1,35.941,8.934ZM2.4,18.518A8.386,8.386,0,1,1,10.782,26.9,8.4,8.4,0,0,1,2.4,18.518Zm0,26.357a8.333,8.333,0,0,1,.353-2.4H5.021a12.659,12.659,0,0,0,0,4.792H2.75A8.332,8.332,0,0,1,2.4,44.875Zm4.792,0a10.424,10.424,0,0,1,.289-2.4h6.612a10.487,10.487,0,0,1,.288,2.4,10.424,10.424,0,0,1-.289,2.4H7.477a10.416,10.416,0,0,1-.289-2.4Zm3.594-7.89.557.557A10.414,10.414,0,0,1,13.2,40.084H8.361a10.411,10.411,0,0,1,1.864-2.542ZM13.2,49.667a10.383,10.383,0,0,1-1.864,2.541l-.557.557-.557-.557a10.383,10.383,0,0,1-1.864-2.541Zm2.638,0h1.813a8.425,8.425,0,0,1-3.438,2.85A12.621,12.621,0,0,0,15.842,49.667Zm3.327-4.792a8.333,8.333,0,0,1-.353,2.4H16.544a12.659,12.659,0,0,0,0-4.792h2.271A8.333,8.333,0,0,1,19.168,44.875Zm-3.327-4.792a12.656,12.656,0,0,0-1.625-2.85,8.431,8.431,0,0,1,3.437,2.85Zm-10.119,0H3.91a8.429,8.429,0,0,1,3.437-2.85,12.65,12.65,0,0,0-1.625,2.85ZM3.91,49.667H5.723a12.616,12.616,0,0,0,1.626,2.85A8.424,8.424,0,0,1,3.91,49.667Zm32.03,17.97H29.016l-1.135,4.537a.35.35,0,0,1-.653,0l-1.136-4.538H19.169V60.449H35.941Zm2.4-.036V60.449a2.4,2.4,0,0,0-2.4-2.4H19.168a2.391,2.391,0,0,0-2.279,1.694,29.95,29.95,0,0,1-3.867-4.327A10.779,10.779,0,1,0,7.348,34.663a29.791,29.791,0,0,1,1.127-5.618,10.761,10.761,0,0,0,11.6-15.967A29.607,29.607,0,0,1,28.834,8.9a7.422,7.422,0,0,0,1.542,3.677l3.169,3.962v1.975a3.594,3.594,0,1,0,7.188,0V16.543l3.17-3.961a7.417,7.417,0,0,0,1.539-3.654,29.564,29.564,0,0,1,5.4,2.124,2.363,2.363,0,0,0-.525,1.476V17.32a2.4,2.4,0,0,0,2.4,2.4h8.372A29.97,29.97,0,0,1,64.353,25.2a5.932,5.932,0,0,0-.914,10.013A6.6,6.6,0,0,0,60.515,39.9l-.773,6.176h6.138a29.785,29.785,0,0,1-2.438,5.9A10.753,10.753,0,0,0,48.593,65.358,29.92,29.92,0,0,1,38.337,67.6Zm11.98-5.954a8.393,8.393,0,0,1,7.188-8.29v2.3h-2.4v3.594A3.6,3.6,0,0,0,58.7,62.846a1.2,1.2,0,0,1,1.2,1.2v1.2H58.7a1.2,1.2,0,0,1-1.2-1.2v-1.2h-2.4v1.2a3.589,3.589,0,0,0,2.4,3.374v2.521a8.393,8.393,0,0,1-7.188-8.29Zm9.584,8.29v-2.3h2.4V64.043A3.6,3.6,0,0,0,58.7,60.449a1.2,1.2,0,0,1-1.2-1.2v-1.2h1.2a1.2,1.2,0,0,1,1.2,1.2v1.2h2.4v-1.2a3.589,3.589,0,0,0-2.4-3.374V53.357a8.375,8.375,0,0,1,0,16.581Z" transform="translate(0 -0.548)" fill="#fff"/>
        <path id="Path_612893" data-name="Path 612893" d="M177.08,186.921v-5.056l1.56-.389a4.267,4.267,0,0,0,0-8.279l-1.56-.391v-5.054a2.4,2.4,0,0,0-2.4-2.4h-2.4a2.4,2.4,0,0,0-2.4,2.4v.67a6.931,6.931,0,0,1-4.586,1.726h-9.79a7.188,7.188,0,1,0,0,14.376v7.188a2.4,2.4,0,0,0,2.4,2.4h2.4a2.4,2.4,0,0,0,2.4-2.4v-7.188h2.6a7.029,7.029,0,0,1,4.586,1.728v.668a2.4,2.4,0,0,0,2.4,2.4h2.4A2.4,2.4,0,0,0,177.08,186.921Zm-26.357-9.584a4.8,4.8,0,0,1,4.792-4.792v9.584A4.8,4.8,0,0,1,150.723,177.336Zm9.584,14.376h-2.4v-7.188h2.4Zm5-9.584h-7.394v-9.584h7.394a9.317,9.317,0,0,0,4.586-1.2v12A9.434,9.434,0,0,0,165.306,182.128Zm12.753-6.607a1.871,1.871,0,0,1,0,3.63l-.979.246v-4.12Zm-5.771-7.769h2.4l0,19.168h-2.4Z" transform="translate(-126.763 -141.395)" fill="#fff"/>
        <path id="Path_612894" data-name="Path 612894" d="M230.731,239.519h2.4v2.4h-2.4Z" transform="translate(-197.186 -204.776)" fill="#fff"/>
        <path id="Path_612895" data-name="Path 612895" d="M263.692,239.519h2.4v2.4h-2.4Z" transform="translate(-225.355 -204.776)" fill="#fff"/>
        <path id="Path_612896" data-name="Path 612896" d="M148.327,429.048h2.4v2.4h-2.4Z" transform="translate(-126.763 -366.751)" fill="#fff"/>
        <path id="Path_612897" data-name="Path 612897" d="M181.289,429.048h2.4v2.4h-2.4Z" transform="translate(-154.932 -366.751)" fill="#fff"/>
        <path id="Path_612898" data-name="Path 612898" d="M214.25,429.048h2.4v2.4h-2.4Z" transform="translate(-183.101 -366.751)" fill="#fff"/>
      </g>
    </g>
  </g>
</svg>
