<svg xmlns="http://www.w3.org/2000/svg" xmlns:xlink="http://www.w3.org/1999/xlink" width="70" height="70" viewBox="0 0 70 70">
  <defs>
    <clipPath id="clip-path">
      <rect id="Rectangle_377800" data-name="Rectangle 377800" width="40" height="39.615" fill="#fff"/>
    </clipPath>
  </defs>
  <g id="Group_1073929" data-name="Group 1073929" transform="translate(-269 -958)">
    <circle id="Ellipse_5614" data-name="Ellipse 5614" cx="35" cy="35" r="35" transform="translate(269 958)" fill="#0c5e46"/>
    <g id="Group_1073934" data-name="Group 1073934" transform="translate(-1 -0.4)">
      <g id="Group_1073933" data-name="Group 1073933" transform="translate(285 973.4)">
        <g id="Group_1072424" data-name="Group 1072424" clip-path="url(#clip-path)">
          <path id="Path_609423" data-name="Path 609423" d="M65.131,427.749H30.161a.918.918,0,1,1,0-1.835h34.97a.918.918,0,1,1,0,1.835" transform="translate(-26.649 -388.134)" fill="#fff"/>
          <path id="Path_609424" data-name="Path 609424" d="M368.148,178.47H361.87a.369.369,0,0,1-.368-.368V156.92a.368.368,0,0,1,.368-.368h6.279a.368.368,0,0,1,.368.368V178.1a.368.368,0,0,1-.368.368" transform="translate(-329.435 -142.665)" fill="#fff"/>
          <path id="Path_609425" data-name="Path 609425" d="M260.147,225.82h-6.279a.368.368,0,0,1-.368-.368V208.88a.368.368,0,0,1,.368-.368h6.279a.368.368,0,0,1,.368.368v16.572a.368.368,0,0,1-.368.368" transform="translate(-231.014 -190.016)" fill="#fff"/>
          <path id="Path_609426" data-name="Path 609426" d="M152.145,279.72h-6.279a.368.368,0,0,1-.368-.368V268.026a.368.368,0,0,1,.368-.368h6.279a.368.368,0,0,1,.368.368v11.325a.368.368,0,0,1-.368.368" transform="translate(-132.592 -243.916)" fill="#fff"/>
          <path id="Path_609427" data-name="Path 609427" d="M44.144,322.522H37.865a.368.368,0,0,1-.368-.368v-7.159a.368.368,0,0,1,.368-.368h6.279a.368.368,0,0,1,.368.368v7.159a.368.368,0,0,1-.368.368" transform="translate(-34.171 -286.718)" fill="#fff"/>
          <path id="Path_609428" data-name="Path 609428" d="M83.736,71.149a3.413,3.413,0,0,1-3.114-1.827.918.918,0,0,1,1.655-.793,1.6,1.6,0,0,0,1.459.785c.84,0,1.55-.539,1.55-1.178s-.255-.81-1.7-1.131a6.059,6.059,0,0,1-2.026-.709,2.623,2.623,0,0,1-1.208-2.351,3.219,3.219,0,0,1,3.386-3.013,3.379,3.379,0,0,1,3.155,1.916.918.918,0,1,1-1.682.735,1.576,1.576,0,0,0-1.474-.816c-.84,0-1.55.539-1.55,1.177,0,.732.285.933,1.8,1.268,1.251.277,3.141.7,3.141,2.923a3.219,3.219,0,0,1-3.386,3.013" transform="translate(-73.223 -55.528)" fill="#fff"/>
          <path id="Path_609429" data-name="Path 609429" d="M109.091,158.208a.918.918,0,0,1-.918-.918v-.957a.918.918,0,0,1,1.835,0v.957a.918.918,0,0,1-.918.918" transform="translate(-98.578 -141.629)" fill="#fff"/>
          <path id="Path_609430" data-name="Path 609430" d="M109.091,52.934a.918.918,0,0,1-.918-.918v-.957a.918.918,0,0,1,1.835,0v.957a.918.918,0,0,1-.918.918" transform="translate(-98.578 -45.693)" fill="#fff"/>
          <path id="Path_609431" data-name="Path 609431" d="M10.513,21.025A10.513,10.513,0,1,1,21.026,10.512,10.525,10.525,0,0,1,10.513,21.025m0-18.818a8.3,8.3,0,1,0,8.3,8.3,8.314,8.314,0,0,0-8.3-8.3" transform="translate(0 0.001)" fill="#fff"/>
          <path id="Path_609432" data-name="Path 609432" d="M171,28.112a1.1,1.1,0,0,1-.646-2l22.329-16.079a1.1,1.1,0,0,1,1.29,1.792l-3.415,2.459L171.649,27.9a1.1,1.1,0,0,1-.644.208" transform="translate(-154.829 -8.954)" fill="#fff"/>
          <path id="Path_609433" data-name="Path 609433" d="M332.884,17.362q-.04,0-.08,0a.918.918,0,0,1-.813-.7l-1.08-4.495-4.136-2.612A.918.918,0,0,1,327.2,7.86l9.216-.621a.918.918,0,0,1,.9,1.281l-3.6,8.289a.918.918,0,0,1-.841.552m.328-6.551h-1.005a.917.917,0,0,1,.4.561l1.117-.561,1.315-1.639Z" transform="translate(-297.4 -6.596)" fill="#fff"/>
        </g>
      </g>
    </g>
  </g>
</svg>
