<svg xmlns="http://www.w3.org/2000/svg" xmlns:xlink="http://www.w3.org/1999/xlink" width="70" height="70" viewBox="0 0 70 70">
  <defs>
    <clipPath id="clip-path">
      <rect id="Rectángulo_377998" data-name="Rectángulo 377998" width="45.861" height="45.767" fill="#fff"/>
    </clipPath>
  </defs>
  <g id="Grupo_1071457" data-name="Grupo 1071457" transform="translate(-269 -958)">
    <g id="Grupo_1072751" data-name="Grupo 1072751">
      <circle id="Elipse_5614" data-name="Elipse 5614" cx="35" cy="35" r="35" transform="translate(269 958)" fill="#0c5e46"/>
      <g id="Grupo_1072750" data-name="Grupo 1072750" transform="translate(281.069 972.399)">
        <g id="Grupo_1072749" data-name="Grupo 1072749" clip-path="url(#clip-path)">
          <path id="Trazado_609910" data-name="Trazado 609910" d="M22.923,0h17.3c1.595,0,1.93.239,2.431,1.74.942,2.817,1.988,5.6,2.8,8.458a8.318,8.318,0,0,1-2.3,8.825,1.814,1.814,0,0,0-.628,1.47q.03,9.973.012,19.946c0,3.308-2.029,5.325-5.351,5.326q-14.263,0-28.526,0c-3.322,0-5.351-2.018-5.352-5.325q0-10.045.008-20.09A1.443,1.443,0,0,0,2.8,19.124,8.309,8.309,0,0,1,.03,13.364c-.19-2.012.548-3.785,1.147-5.607.69-2.1,1.4-4.192,2.1-6.288A1.781,1.781,0,0,1,5.336,0Q14.13,0,22.923,0M6.647,21.195A3.608,3.608,0,0,0,6.6,21.6q0,9.614,0,19.227a1.569,1.569,0,0,0,1.665,1.657c2.6.016,5.194,0,7.791,0a1.444,1.444,0,0,0,.3-.077v-.867q0-6.612,0-13.224c0-1.6.559-2.167,2.131-2.168q4.432,0,8.863,0c1.541,0,2.119.575,2.12,2.106q0,6.683,0,13.367v.869c2.655,0,5.2,0,7.748,0,1.463,0,2.017-.559,2.018-2.032q0-9.256,0-18.513v-.759c-4.086-.168-4.086-.168-6.521-1.555a1.551,1.551,0,0,0-.186.087,8.255,8.255,0,0,1-9.286.114.857.857,0,0,0-.729.045,8.623,8.623,0,0,1-4.176,1.3,8.362,8.362,0,0,1-5.206-1.558c-2.275,1.321-2.275,1.321-6.5,1.578M42.473,13.11H3.337a3.719,3.719,0,0,0,0,.542,4.8,4.8,0,0,0,3.216,4.025,4.626,4.626,0,0,0,5.067-1.133c1.072-1.031,1.878-1.056,2.943-.044a4.917,4.917,0,0,0,6.893.017c1.081-1.026,1.844-1.022,2.943.016a4.923,4.923,0,0,0,6.842,0c1.151-1.1,1.848-1.086,2.973.007a4.687,4.687,0,0,0,4.453,1.321,4.78,4.78,0,0,0,3.8-4.752M26.141,29.5H19.706V42.463h6.435ZM14.8,9.777h6.463V3.317H14.8ZM24.542,3.3c0,2.084-.011,4.1.025,6.122,0,.137.364.376.565.382,1.118.038,2.238.018,3.358.018h2.556V3.3ZM3.957,9.773h7.48v-6.5c-1.679,0-3.315-.009-4.951.014a.6.6,0,0,0-.447.318c-.7,2.013-1.368,4.034-2.082,6.165m37.935.01C41.177,7.65,40.5,5.61,39.8,3.578a.537.537,0,0,0-.4-.289c-1.656-.02-3.313-.013-5-.013V9.782Z" transform="translate(0 0)" fill="#fff"/>
        </g>
      </g>
    </g>
  </g>
</svg>
