<svg xmlns="http://www.w3.org/2000/svg" xmlns:xlink="http://www.w3.org/1999/xlink" width="70" height="70" viewBox="0 0 70 70">
  <defs>
    <clipPath id="clip-path">
      <rect id="Rectángulo_377997" data-name="Rectángulo 377997" width="51.804" height="53.965" fill="#fff"/>
    </clipPath>
  </defs>
  <g id="Grupo_1071458" data-name="Grupo 1071458" transform="translate(-269 -958)">
    <g id="Grupo_1072748" data-name="Grupo 1072748">
      <circle id="Elipse_5614" data-name="Elipse 5614" cx="35" cy="35" r="35" transform="translate(269 958)" fill="#03386e"/>
      <g id="Grupo_1072747" data-name="Grupo 1072747" transform="translate(278 966)">
        <g id="Grupo_1072747-2" data-name="Grupo 1072747" clip-path="url(#clip-path)">
          <path id="Trazado_609906" data-name="Trazado 609906" d="M13.632,4.191c.822.21,2.152.532,3.473.889,1.675.452,1.942.375,3.024-.978q.789-.987,1.588-1.965a5.167,5.167,0,0,1,8.388.026c.639.783,1.276,1.567,1.9,2.363a1.8,1.8,0,0,0,2.072.713c.917-.258,1.847-.468,2.763-.73,3.794-1.085,6.845,1.06,7.08,4.995q.091,1.514.141,3.03a1.7,1.7,0,0,0,1.2,1.653q1.492.571,2.983,1.145a5.147,5.147,0,0,1,2.609,7.905q-.862,1.347-1.74,2.684a1.781,1.781,0,0,0,0,2.122c.616.938,1.24,1.871,1.837,2.821a5.143,5.143,0,0,1-2.387,7.644c-1.055.452-2.133.855-3.213,1.246a1.785,1.785,0,0,0-1.293,1.761c-.061,1.317-.1,2.641-.28,3.945a5.065,5.065,0,0,1-6.114,4.209c-1.23-.271-2.444-.617-3.66-.949a1.71,1.71,0,0,0-1.932.659c-.667.832-1.332,1.666-2.01,2.49a5.165,5.165,0,0,1-8.334-.031q-.985-1.207-1.955-2.426a1.752,1.752,0,0,0-2-.685c-.944.266-1.9.489-2.842.76a5.222,5.222,0,0,1-7.032-4.9c-.077-1.064-.111-2.132-.154-3.2a1.673,1.673,0,0,0-1.158-1.6c-1.017-.4-2.041-.781-3.063-1.17A5.157,5.157,0,0,1,.928,30.768c.576-.9,1.151-1.8,1.74-2.683a1.821,1.821,0,0,0,0-2.195Q1.762,24.522.88,23.138a5.178,5.178,0,0,1,2.55-7.771q1.527-.6,3.064-1.164a1.751,1.751,0,0,0,1.251-1.7c.066-1.317.1-2.641.277-3.945.343-2.55,2.515-4.376,5.61-4.363M38.438,46.229a1.7,1.7,0,0,0,1.932-1.7c.066-1.121.12-2.242.187-3.363a4.963,4.963,0,0,1,3.183-4.556c1.027-.445,2.09-.808,3.132-1.219,1.488-.587,1.785-1.548.907-2.911-.5-.779-1-1.562-1.514-2.329a5.242,5.242,0,0,1,.016-6.354q.824-1.221,1.606-2.47A1.653,1.653,0,0,0,47,18.636c-1.092-.438-2.211-.813-3.287-1.285a4.952,4.952,0,0,1-3.149-4.493q-.107-1.639-.183-3.279a1.719,1.719,0,0,0-2.389-1.745c-1.028.274-2.056.549-3.085.82a5.066,5.066,0,0,1-5.558-1.822c-.7-.841-1.369-1.709-2.074-2.547a1.615,1.615,0,0,0-2.767.028c-.718.863-1.4,1.761-2.127,2.612a5.048,5.048,0,0,1-5.436,1.742c-1.058-.272-2.109-.57-3.166-.846A1.71,1.71,0,0,0,11.423,9.53q-.081,1.64-.182,3.279a4.972,4.972,0,0,1-3.184,4.557c-1.053.457-2.142.829-3.211,1.249a1.668,1.668,0,0,0-.918,2.736c.54.854,1.094,1.7,1.65,2.542a5.2,5.2,0,0,1-.018,6.212q-.84,1.261-1.65,2.542A1.656,1.656,0,0,0,4.8,35.334c1.119.445,2.268.823,3.366,1.314a4.906,4.906,0,0,1,3.052,4.21c.118,1.172.149,2.353.2,3.53a1.719,1.719,0,0,0,2.387,1.749c1.029-.273,2.057-.548,3.085-.82a5.06,5.06,0,0,1,5.559,1.817c.683.819,1.337,1.663,2.018,2.483.931,1.122,1.936,1.114,2.878-.023.7-.843,1.36-1.717,2.072-2.548A5.045,5.045,0,0,1,34.854,45.3c1.273.325,2.544.659,3.583.928" transform="translate(0 -0.001)" fill="#fff"/>
          <path id="Trazado_609907" data-name="Trazado 609907" d="M90.6,121.77a3.656,3.656,0,0,1,.568-.984Q99.3,112.6,107.47,104.462a1.761,1.761,0,1,1,2.467,2.5q-8.118,8.138-16.258,16.255a1.683,1.683,0,0,1-1.986.463,1.816,1.816,0,0,1-1.1-1.916" transform="translate(-75.326 -86.38)" fill="#fff"/>
          <path id="Trazado_609908" data-name="Trazado 609908" d="M90.652,107.5a3.424,3.424,0,0,1,3.53-3.479,3.521,3.521,0,0,1,3.517,3.452,3.606,3.606,0,0,1-3.532,3.563,3.512,3.512,0,0,1-3.516-3.536" transform="translate(-75.373 -86.491)" fill="#fff"/>
          <path id="Trazado_609909" data-name="Trazado 609909" d="M174.21,183.911a3.508,3.508,0,1,1-3.533-3.519,3.514,3.514,0,0,1,3.533,3.519" transform="translate(-139.013 -149.987)" fill="#fff"/>
        </g>
      </g>
    </g>
  </g>
</svg>
