<svg xmlns="http://www.w3.org/2000/svg" xmlns:xlink="http://www.w3.org/1999/xlink" width="70" height="70" viewBox="0 0 70 70">
  <defs>
    <clipPath id="clip-path">
      <rect id="Rectángulo_377999" data-name="Rectángulo 377999" width="46.058" height="46.001" fill="#fff"/>
    </clipPath>
  </defs>
  <g id="Grupo_1071456" data-name="Grupo 1071456" transform="translate(-269 -958)">
    <path id="Trazado_609168" data-name="Trazado 609168" d="M35,0A35,35,0,1,1,0,35,35,35,0,0,1,35,0Z" transform="translate(269 958)" fill="#03386e"/>
    <g id="Grupo_1072753" data-name="Grupo 1072753" transform="translate(278.802 971.8)">
      <g id="Grupo_1072752" data-name="Grupo 1072752" clip-path="url(#clip-path)">
        <path id="Trazado_609911" data-name="Trazado 609911" d="M37.251,14.962c-1.638.291-3.212.591-4.793.843a1.763,1.763,0,0,1-1.962-.885,1.573,1.573,0,0,1,.136-1.942,2.986,2.986,0,0,1,1.406-.73c1.392-.342,2.8-.6,4.213-.876.815-.157.531-.756.527-1.239s-.121-.75-.728-.806c-4.3-.4-8.59-.846-12.884-1.286a4.013,4.013,0,0,0-3.414,1.324q-7.344,7.37-14.727,14.7c-1.886,1.882-1.888,3.891,0,5.78,3.713,3.722,7.462,7.41,11.133,11.173a3.824,3.824,0,0,0,5.511.316,1.757,1.757,0,0,1,2.568.17,1.826,1.826,0,0,1-.216,2.526,7.236,7.236,0,0,1-10.223-.3c-2.439-2.414-4.852-4.854-7.278-7.281q-2.086-2.088-4.174-4.175A7.2,7.2,0,0,1,2.35,21.638C7.305,16.683,12.3,11.765,17.228,6.785a7.971,7.971,0,0,1,7.165-2.272c2.5.323,5.006.544,7.512.783a.72.72,0,0,0,.561-.288c1.6-2.647,4.115-3.941,6.978-4.682A11.145,11.145,0,0,1,42,0a4.087,4.087,0,0,1,4.057,3.993,9.786,9.786,0,0,1-4.89,9.02.777.777,0,0,0-.411.868c.335,3.075.682,6.15.926,9.233a6.276,6.276,0,0,1-1.763,5.016c-3.005,3.069-6.081,6.07-9.151,9.074a1.752,1.752,0,0,1-2.522-.056,1.777,1.777,0,0,1,.132-2.626c2.383-2.369,4.783-4.72,7.173-7.081.546-.539,1.1-1.074,1.62-1.636a3.392,3.392,0,0,0,.909-2.715c-.256-2.72-.548-5.437-.823-8.129m2.927-5.674a5.976,5.976,0,0,0,2.2-3.77c.22-1.587.371-2.347-1.77-1.789a9.216,9.216,0,0,0-4.22,2.1c2.508-.156,4.186.472,3.786,3.455" transform="translate(-0.001 -0.001)" fill="#fff"/>
        <path id="Trazado_609912" data-name="Trazado 609912" d="M88.19,129.438a4.534,4.534,0,0,1,.092-6.111,1.789,1.789,0,0,1,2.416-.159,1.771,1.771,0,0,1,.375,2.392c-.606.95-.6,1.033.187,1.823.508.51,1.007,1.03,1.531,1.524a1.389,1.389,0,0,0,2.1.018,1.44,1.44,0,0,0-.012-2.117c-.358-.388-.749-.745-1.112-1.127a5.294,5.294,0,0,1,6-8.462c.5.235.694,0,.955-.284a1.88,1.88,0,0,1,2.087-.751,1.764,1.764,0,0,1,.882,2.834,2.011,2.011,0,0,1-.333.376c-.421.33-.449.631-.2,1.148a4.213,4.213,0,0,1-.5,4.784,1.81,1.81,0,0,1-2.654.444,1.76,1.76,0,0,1-.213-2.613.909.909,0,0,0-.05-1.293c-.358-.388-.725-.77-1.116-1.123a1.422,1.422,0,0,0-2.109.09,1.5,1.5,0,0,0-.248,2.23c.327.382.7.722,1.058,1.08a4.9,4.9,0,0,1,1.355,5.338,4.984,4.984,0,0,1-4.413,3.511,4.341,4.341,0,0,1-2.888-.674.7.7,0,0,0-1.086.139,1.9,1.9,0,0,1-1.645.732,1.791,1.791,0,0,1-1.28-2.858,10.784,10.784,0,0,1,.817-.888" transform="translate(-74.479 -99.361)" fill="#fff"/>
      </g>
    </g>
  </g>
</svg>
