<svg xmlns="http://www.w3.org/2000/svg" xmlns:xlink="http://www.w3.org/1999/xlink" width="64" height="64" viewBox="0 0 64 64">
  <defs>
    <clipPath id="clip-path">
      <rect id="Rectángulo_377663" data-name="Rectángulo 377663" width="64" height="64" transform="translate(-0.48 -0.479)" fill="none"/>
    </clipPath>
  </defs>
  <g id="Grupo_1073644" data-name="Grupo 1073644" transform="translate(-306 -10712.999)">
    <circle id="Elipse_4867" data-name="Elipse 4867" cx="21" cy="21" r="21" transform="translate(315 10724)" fill="#fff"/>
    <g id="Grupo_1072390" data-name="Grupo 1072390" transform="translate(306.256 10713.258)">
      <g id="Grupo_1072170" data-name="Grupo 1072170" transform="translate(0.224 0.221)" clip-path="url(#clip-path)">
        <path id="Trazado_609231" data-name="Trazado 609231" d="M68.125,43.405V59.047H63.27V43.405a.54.54,0,0,1,.54-.539h3.776a.539.539,0,0,1,.539.539" transform="translate(-24.711 -16.806)" fill="#f4644d"/>
        <path id="Trazado_609232" data-name="Trazado 609232" d="M37.668,58.37v6.472H32.813V58.37a.54.54,0,0,1,.54-.539h3.776a.539.539,0,0,1,.539.539" transform="translate(-12.916 -22.601)" fill="#54c1ed"/>
        <path id="Trazado_609233" data-name="Trazado 609233" d="M57.973,51.328V62.116H53.118V51.328a.54.54,0,0,1,.54-.539h3.776a.539.539,0,0,1,.539.539" transform="translate(-20.779 -19.874)" fill="#ffc443"/>
        <path id="Trazado_609234" data-name="Trazado 609234" d="M47.82,46.926V60.411H42.965V46.926a.54.54,0,0,1,.54-.539h3.776a.539.539,0,0,1,.539.539" transform="translate(-16.848 -18.17)" fill="#8bc932"/>
        <path id="Trazado_609235" data-name="Trazado 609235" d="M56.323,70.084H31.457a.4.4,0,0,1,0-.809H56.323a.4.4,0,1,1,0,.809" transform="translate(-12.235 -27.033)" fill="#84828e"/>
        <path id="Trazado_609236" data-name="Trazado 609236" d="M58.438,40.228a.4.4,0,0,1-.256-.718l4.483-3.648a.4.4,0,0,1,.51.627l-4.483,3.648a.4.4,0,0,1-.255.091" transform="translate(-22.683 -14.059)" fill="#84828e"/>
        <path id="Trazado_609237" data-name="Trazado 609237" d="M37.561,45.456a.4.4,0,0,1-.3-.674L42.076,39.4a.4.4,0,1,1,.6.539l-4.816,5.384a.4.4,0,0,1-.3.135" transform="translate(-14.598 -15.411)" fill="#84828e"/>
        <path id="Trazado_609238" data-name="Trazado 609238" d="M52.565,41.264a.4.4,0,0,1-.175-.04l-4.184-2.007a.4.4,0,1,1,.35-.73l4.184,2.007a.4.4,0,0,1-.175.77Z" transform="translate(-18.788 -15.095)" fill="#84828e"/>
        <path id="Trazado_609239" data-name="Trazado 609239" d="M36.092,48.368a1.079,1.079,0,1,1-1.079,1.079,1.079,1.079,0,0,1,1.079-1.079" transform="translate(-13.768 -18.937)" fill="#54c1ed"/>
        <path id="Trazado_609240" data-name="Trazado 609240" d="M46.245,36.924A1.079,1.079,0,1,1,45.166,38a1.079,1.079,0,0,1,1.079-1.079" transform="translate(-17.7 -14.505)" fill="#8bc932"/>
        <path id="Trazado_609241" data-name="Trazado 609241" d="M66.55,33.4a1.079,1.079,0,1,1-1.079,1.079A1.079,1.079,0,0,1,66.55,33.4" transform="translate(-25.563 -13.142)" fill="#f4644d"/>
        <path id="Trazado_609242" data-name="Trazado 609242" d="M56.4,41.325A1.079,1.079,0,1,1,55.318,42.4,1.079,1.079,0,0,1,56.4,41.325" transform="translate(-21.631 -16.209)" fill="#ffc443"/>
        <path id="Trazado_609243" data-name="Trazado 609243" d="M34.431,57.831v7.012H32.813V58.37a.539.539,0,0,1,.539-.539Z" transform="translate(-12.916 -22.601)" fill="#17afde"/>
        <path id="Trazado_609244" data-name="Trazado 609244" d="M44.044,46.387V60.411H42.965V46.926a.54.54,0,0,1,.54-.539Z" transform="translate(-16.848 -18.17)" fill="#80b524"/>
        <path id="Trazado_609245" data-name="Trazado 609245" d="M54.2,50.788V62.115H53.118V51.327a.54.54,0,0,1,.54-.539Z" transform="translate(-20.779 -19.874)" fill="#fcb830"/>
        <path id="Trazado_609246" data-name="Trazado 609246" d="M64.349,42.866V59.047H63.27V43.405a.54.54,0,0,1,.54-.539Z" transform="translate(-24.711 -16.806)" fill="#e8533a"/>
        <path id="Trazado_609247" data-name="Trazado 609247" d="M54.8,31.345l8.707-5.1a31.862,31.862,0,0,0-1.958-6.7l-10.077.4,4.99-8.771a32.054,32.054,0,0,0-5.042-4.818l-8.536,5.382L42.823,1.65A32.965,32.965,0,0,0,39.479.638,31.847,31.847,0,0,0,36.047,0l-4.7,8.93L26.249.217a32.072,32.072,0,0,0-6.695,1.964l.392,10.08-8.764-5A32.323,32.323,0,0,0,6.36,12.306l5.384,8.54-10.091.06A32.186,32.186,0,0,0,.639,24.247,32.6,32.6,0,0,0,0,27.68l8.933,4.7-8.711,5.1a31.922,31.922,0,0,0,1.96,6.691l10.078-.393L7.27,52.546a32.427,32.427,0,0,0,5.038,4.825l8.538-5.382.062,10.088a31.212,31.212,0,0,0,3.341,1.009,31.583,31.583,0,0,0,3.432.64l4.7-8.928,5.094,8.711a31.888,31.888,0,0,0,6.7-1.964l-.4-10.074,8.768,4.988a32.187,32.187,0,0,0,4.82-5.036l-5.385-8.541,10.093-.061a34.708,34.708,0,0,0,1.018-3.343c.273-1.143.481-2.293.635-3.431Zm-6.9,5.039A17.239,17.239,0,1,1,35.234,15.549,17.249,17.249,0,0,1,47.9,36.383" transform="translate(-0.209 -0.206)" fill="#b0c0d2"/>
      </g>
    </g>
  </g>
</svg>
