<svg id="Grupo_1072425" data-name="Grupo 1072425" xmlns="http://www.w3.org/2000/svg" xmlns:xlink="http://www.w3.org/1999/xlink" width="28.397" height="28.124" viewBox="0 0 28.397 28.124">
  <defs>
    <clipPath id="clip-path">
      <rect id="Rectángulo_377800" data-name="Rectángulo 377800" width="28.397" height="28.124" fill="#03386e"/>
    </clipPath>
  </defs>
  <g id="Grupo_1072424" data-name="Grupo 1072424" clip-path="url(#clip-path)">
    <path id="Trazado_609423" data-name="Trazado 609423" d="M54.72,427.217H29.895a.651.651,0,1,1,0-1.3H54.72a.651.651,0,1,1,0,1.3" transform="translate(-27.401 -399.093)" fill="#03386e"/>
    <path id="Trazado_609424" data-name="Trazado 609424" d="M366.22,172.112h-4.458a.262.262,0,0,1-.262-.262V156.814a.262.262,0,0,1,.262-.262h4.458a.261.261,0,0,1,.262.262V171.85a.262.262,0,0,1-.262.262" transform="translate(-338.736 -146.693)" fill="#03386e"/>
    <path id="Trazado_609425" data-name="Trazado 609425" d="M258.219,220.8h-4.458a.262.262,0,0,1-.262-.262V208.774a.262.262,0,0,1,.262-.262h4.458a.262.262,0,0,1,.262.262v11.765a.262.262,0,0,1-.262.262" transform="translate(-237.536 -195.381)" fill="#03386e"/>
    <path id="Trazado_609426" data-name="Trazado 609426" d="M150.217,276.221H145.76a.262.262,0,0,1-.262-.262v-8.04a.262.262,0,0,1,.262-.262h4.458a.262.262,0,0,1,.261.262v8.04a.262.262,0,0,1-.261.262" transform="translate(-136.336 -250.803)" fill="#03386e"/>
    <path id="Trazado_609427" data-name="Trazado 609427" d="M42.216,320.231H37.759a.262.262,0,0,1-.262-.262v-5.082a.262.262,0,0,1,.262-.262h4.458a.261.261,0,0,1,.262.262v5.082a.262.262,0,0,1-.262.262" transform="translate(-35.136 -294.813)" fill="#03386e"/>
    <path id="Trazado_609428" data-name="Trazado 609428" d="M82.754,68.186a2.423,2.423,0,0,1-2.211-1.3.651.651,0,0,1,1.175-.563,1.136,1.136,0,0,0,1.036.557c.6,0,1.1-.383,1.1-.836s-.181-.575-1.209-.8a4.3,4.3,0,0,1-1.438-.5,1.862,1.862,0,0,1-.858-1.669,2.285,2.285,0,0,1,2.4-2.139,2.4,2.4,0,0,1,2.24,1.36.651.651,0,1,1-1.194.522,1.119,1.119,0,0,0-1.046-.579c-.6,0-1.1.383-1.1.836,0,.52.2.663,1.275.9.888.2,2.23.494,2.23,2.075a2.285,2.285,0,0,1-2.4,2.139" transform="translate(-75.29 -57.096)" fill="#03386e"/>
    <path id="Trazado_609429" data-name="Trazado 609429" d="M108.825,157.4a.652.652,0,0,1-.652-.652v-.68a.652.652,0,0,1,1.3,0v.68a.652.652,0,0,1-.652.652" transform="translate(-101.361 -145.628)" fill="#03386e"/>
    <path id="Trazado_609430" data-name="Trazado 609430" d="M108.825,52.124a.652.652,0,0,1-.652-.652v-.68a.652.652,0,0,1,1.3,0v.68a.652.652,0,0,1-.652.652" transform="translate(-101.361 -46.983)" fill="#03386e"/>
    <path id="Trazado_609431" data-name="Trazado 609431" d="M7.463,14.926a7.463,7.463,0,1,1,7.463-7.464,7.472,7.472,0,0,1-7.463,7.464m0-13.359a5.9,5.9,0,1,0,5.9,5.9,5.9,5.9,0,0,0-5.9-5.9" transform="translate(0 0.001)" fill="#03386e"/>
    <path id="Trazado_609432" data-name="Trazado 609432" d="M170.684,22.808a.784.784,0,0,1-.459-1.42L186.078,9.973a.784.784,0,0,1,.916,1.272l-2.424,1.746L171.142,22.66a.781.781,0,0,1-.457.148" transform="translate(-159.201 -9.207)" fill="#03386e"/>
    <path id="Trazado_609433" data-name="Trazado 609433" d="M330.988,14.425l-.057,0a.651.651,0,0,1-.577-.5l-.767-3.191-2.936-1.854a.652.652,0,0,1,.3-1.2l6.543-.441a.652.652,0,0,1,.641.909l-2.555,5.885a.652.652,0,0,1-.6.392m.233-4.651h-.714a.651.651,0,0,1,.286.4l.793-.4.933-1.163Z" transform="translate(-305.797 -6.782)" fill="#03386e"/>
  </g>
</svg>
