<svg xmlns="http://www.w3.org/2000/svg" xmlns:xlink="http://www.w3.org/1999/xlink" width="295" height="273" viewBox="0 0 295 273">
  <defs>
    <clipPath id="clip-path">
      <rect id="Rect치ngulo_378051" data-name="Rect치ngulo 378051" width="295" height="273" transform="translate(352 14741)" fill="#fff" stroke="#707070" stroke-width="1"/>
    </clipPath>
    <clipPath id="clip-path-2">
      <rect id="Rect치ngulo_378071" data-name="Rect치ngulo 378071" width="241.691" height="259.612" fill="none"/>
    </clipPath>
  </defs>
  <g id="Enmascarar_grupo_154290" data-name="Enmascarar grupo 154290" transform="translate(-352 -14741)" clip-path="url(#clip-path)">
    <g id="Grupo_1072845" data-name="Grupo 1072845" transform="translate(379 14748)">
      <g id="Grupo_1072844" data-name="Grupo 1072844" clip-path="url(#clip-path-2)">
        <path id="Trazado_610168" data-name="Trazado 610168" d="M24.451,165.749c-3.46.388-4.584-.752-4.569-4.589.177-46.987.11-93.973.119-140.959C20,7.1,27.062.007,40.106.005q91.728-.012,183.457,0c13.087,0,20.2,7.069,20.2,20.1q.013,109.635,0,219.27c0,13.088-7.08,20.186-20.1,20.208-7.905.013-15.811.052-23.715-.01-11.255-.087-18.718-7.552-18.828-18.781-.047-4.773-.114-9.55.039-14.318.07-2.159-.594-2.785-2.744-2.742-6.56.133-13.144-.251-19.679.162-3.826.242-5.039-1.026-4.616-4.542-.308-3.365.614-4.922,4.588-4.644,6.373.447,12.8.013,19.2.174,2.488.063,3.323-.623,3.258-3.2q-.257-10.271,0-20.552c.063-2.551-.732-3.278-3.242-3.213-6.4.166-12.83-.273-19.2.176-3.957.279-4.91-1.249-4.61-4.626-.4-3.486.769-4.814,4.617-4.561,6.38.418,12.811,0,19.215.17,2.512.067,3.29-.642,3.226-3.2q-.261-10.277,0-20.563c.063-2.535-.689-3.239-3.212-3.208-10.877.134-21.756.057-32.635.057-8.95,0-9.2.011-8.844,8.958.155,3.835-1.077,5.013-4.566,4.614-3.372.3-5.313-.661-4.561-4.608.329-1.724-.121-3.584.095-5.345.361-2.936-.735-3.735-3.657-3.689-10.866.174-21.737.069-32.605.069-8.523,0-8.689,0-8.451,8.527.1,3.551-.4,5.759-4.584,5.046-3.495.4-5.181-.787-4.5-4.625.332-1.88-.1-3.884.1-5.8.268-2.558-.69-3.233-3.2-3.2-11.033.132-22.068.056-33.1.056-8.483,0-8.65,0-8.407,8.552.1,3.553-.4,5.75-4.578,5.022m80.6-49.379c-6.556,0-13.113.077-19.666-.045-2.108-.039-2.822.53-2.782,2.72q.195,10.725,0,21.455c-.036,2.123.562,2.783,2.732,2.768q19.666-.141,39.333,0c2.1.014,2.821-.529,2.781-2.719-.13-7.149-.173-14.307.016-21.454.07-2.661-1.154-2.785-3.2-2.757-6.405.09-12.813.033-19.219.034m53.216,26.852c6.548,0,13.1-.106,19.643.054,2.486.061,3.32-.623,3.255-3.195q-.257-10.262,0-20.535c.063-2.534-.667-3.261-3.219-3.235q-19.2.189-38.393,0c-2.482-.022-3.319.622-3.255,3.194q.257,10.262,0,20.536c-.063,2.534.662,3.309,3.219,3.235,6.246-.18,12.5-.058,18.75-.058m53.9,0c6.556,0,13.113-.085,19.666.047,2.252.045,3.1-.489,3.037-2.925-.167-7-.15-14.007-.007-21.008.047-2.3-.524-3.047-2.939-3.023q-19.443.181-38.887.012c-2.247-.017-3.094.485-3.036,2.923.167,7,.142,14.007.011,21.008-.043,2.271.52,3.088,2.938,3.024,6.4-.169,12.811-.057,19.218-.057m.254,8.953c-6.548,0-13.1.079-19.643-.045-2.146-.04-2.8.631-2.763,2.769q.175,10.712,0,21.429c-.037,2.175.685,2.753,2.791,2.74q19.644-.125,39.287,0c2.142.014,2.8-.63,2.763-2.768q-.176-10.712,0-21.429c.037-2.175-.683-2.778-2.792-2.74-6.546.117-13.1.043-19.644.043m-.009,62.657c6.556,0,13.112-.078,19.666.045,2.107.039,2.821-.531,2.782-2.721q-.2-10.724,0-21.454c.036-2.123-.562-2.784-2.732-2.769q-19.666.142-39.334,0c-2.1-.014-2.82.529-2.781,2.719.131,7.15.174,14.307-.015,21.454-.071,2.66,1.154,2.784,3.2,2.756,6.405-.09,12.813-.033,19.22-.033M51.326,44.76c-6.548,0-13.1.076-19.644-.044-2.126-.039-2.813.6-2.777,2.754q.18,10.713,0,21.43c-.036,2.156.652,2.767,2.776,2.754,13.1-.085,26.192-.116,39.287.017,2.645.027,2.789-1.175,2.764-3.217-.082-6.845-.146-13.694.028-20.536.065-2.562-.708-3.285-3.238-3.217-6.394.174-12.8.058-19.2.058m53.71,26.852c6.556,0,13.113-.083,19.666.047,2.149.042,2.788-.6,2.75-2.752q-.185-10.724,0-21.454c.039-2.166-.635-2.752-2.763-2.738q-19.667.134-39.334,0c-2.146-.014-2.786.6-2.749,2.751q.185,10.725,0,21.454c-.039,2.166.632,2.78,2.764,2.739,6.553-.126,13.11-.046,19.666-.046m53.8-26.853c-6.4,0-12.8.092-19.2-.047-2.373-.052-3.419.407-3.344,3.1.191,6.841.155,13.693.014,20.536-.049,2.4.468,3.349,3.126,3.321,12.8-.137,25.6-.164,38.393.016,2.949.041,3.4-1.015,3.335-3.581-.162-6.545-.256-13.1.03-19.641.147-3.344-1.118-3.877-4.056-3.773-6.094.215-12.2.064-18.3.064m53.315,26.853c6.556,0,13.113-.088,19.666.048,2.248.047,3.118-.442,3.058-2.907-.17-7-.145-14.006-.011-21.007.044-2.263-.471-3.069-2.917-3.046q-19.443.187-38.887.012c-2.243-.017-3.118.438-3.057,2.905.171,7,.2,14.01-.01,21.006-.083,2.8,1.08,3.083,3.385,3.034,6.255-.133,12.515-.046,18.772-.046M51.339,80.565c-6.556,0-13.112.079-19.666-.046-2.12-.04-2.811.553-2.772,2.73q.192,10.725,0,21.454c-.036,2.136.584,2.774,2.741,2.759q19.666-.138,39.333,0c2.117.014,2.811-.552,2.772-2.729q-.192-10.724,0-21.454c.036-2.136-.581-2.8-2.742-2.76-6.553.131-13.11.047-19.666.047m53.669,26.852c6.4,0,12.8-.107,19.2.054,2.483.062,3.323-.618,3.259-3.192q-.258-10.263,0-20.536c.063-2.53-.661-3.263-3.216-3.238q-19.2.192-38.393.005c-2.478-.021-3.323.617-3.258,3.191q.258,10.263,0,20.536c-.062,2.531.656,3.309,3.217,3.238,6.394-.178,12.8-.058,19.2-.058m53.7-26.853c-6.407,0-12.815.057-19.22-.033-2.046-.029-3.265.1-3.2,2.758.189,7.147.146,14.3.015,21.454-.039,2.193.682,2.732,2.783,2.717q19.666-.129,39.334,0c2.173.016,2.765-.651,2.729-2.771q-.179-10.725,0-21.454c.04-2.192-.679-2.757-2.783-2.718-6.554.122-13.11.045-19.666.044m53.558,26.852c6.548,0,13.1-.048,19.644.03,1.9.023,3-.172,2.955-2.571-.148-7.29-.118-14.585-.013-21.876.03-2.032-.745-2.474-2.6-2.466q-19.866.091-39.734-.007c-2-.012-2.513.69-2.49,2.579.088,7.143.139,14.29-.022,21.429-.055,2.449.811,2.976,3.066,2.929,6.4-.134,12.8-.047,19.2-.047M51.335,143.222c6.548,0,13.1-.078,19.644.045,2.14.039,2.8-.622,2.766-2.765q-.176-10.713,0-21.43c.037-2.169-.676-2.757-2.787-2.743q-19.643.126-39.287,0c-2.137-.014-2.8.621-2.766,2.764q.176,10.712,0,21.429c-.037,2.169.673,2.783,2.788,2.744,6.546-.118,13.1-.043,19.643-.043M212.9,223.786c-6.7,0-13.4.073-20.09-.043-2.111-.037-2.854.566-2.79,2.742.145,4.908-.045,9.824.071,14.733.135,5.813,3.7,9.326,9.61,9.393q12.723.146,25.449,0c6.129-.072,9.547-3.607,9.651-9.814.077-4.612-.127-9.233.072-13.839.109-2.544-.671-3.3-3.222-3.231-6.246.178-12.5.058-18.75.058M51.485,35.806c6.4,0,12.8-.084,19.191.045,2.288.046,3.123-.6,3.075-2.995-.142-6.989-.1-13.984-.021-20.976.021-1.942-.3-2.989-2.632-2.968-11.156.1-22.317-.073-33.471.116-5.06.085-8.477,3.805-8.64,8.975-.155,4.905.108,9.824-.094,14.726-.113,2.718,1.048,3.169,3.4,3.122,6.394-.127,12.793-.044,19.19-.045m53.339-.054c6.4,0,12.808-.09,19.208.047,2.4.051,3.446-.479,3.377-3.163q-.267-10.269,0-20.547c.07-2.719-1.062-3.139-3.413-3.123q-18.984.136-37.97,0c-2.4-.018-3.446.479-3.376,3.162q.266,10.269,0,20.547c-.07,2.719,1.059,3.171,3.414,3.123,6.251-.127,12.507-.043,18.761-.043m53.85.055c6.4,0,12.808-.047,19.211.028,2.033.023,3.335-.142,3.276-2.784-.159-7.146-.13-14.3-.011-21.446.039-2.277-.931-2.691-2.924-2.681-12.956.062-25.913.081-38.869-.014-2.327-.018-3.1.662-3.049,3.025.138,6.848.2,13.706-.023,20.55-.1,2.946,1.055,3.437,3.625,3.373,6.251-.154,12.509-.05,18.763-.05m53.393-.056c6.546,0,13.092-.077,19.636.042,2.251.041,3.188-.536,3.1-2.97-.169-4.9.069-9.822-.087-14.726-.171-5.375-3.675-8.972-9.039-9.042-10.858-.142-21.72.014-32.578-.093-2.345-.023-3.08.7-3.034,3.04.133,6.841.148,13.688-.007,20.528-.057,2.53.716,3.341,3.263,3.273,6.244-.163,12.494-.053,18.743-.054" transform="translate(-2.076 0)"/>
        <path id="Trazado_610169" data-name="Trazado 610169" d="M143.371,238.653c-.047,7.153-.068,14.307-.147,21.46-.124,11.222-7.587,18.739-18.838,18.755q-52.777.074-105.555,0C7.6,278.851.085,271.309.037,260.082-.029,244.725.01,229.367.023,214.011.035,200.953,6.994,194,20.15,193.842c.742-.008,1.483-.092,2.225-.141,1.183.049,2.371.039,3.547.157,7.775.775,14.908.21,19.866-7.218,1.737-2.6,4.643-2.3,6.974-.1,1.83,1.73,3.619,3.512,5.326,5.362a5.535,5.535,0,0,0,4.652,1.988c4.438-.19,8.887-.141,13.332-.189,2.825.048,5.649.1,8.475.144,15.025.217,30.058-.442,45.079.356a21.751,21.751,0,0,1,11.549,8.737,30.074,30.074,0,0,1,2.1,12.132c-.112,7.858.047,15.72.094,23.581M71.513,269.934q25.944,0,51.889-.007c7.632-.009,10.861-3.254,10.871-10.913q.032-22.591,0-45.183c-.01-7.892-3.2-11.023-11.205-11.028-19.98-.012-39.962-.123-59.939.085-4.643.047-8.544-.637-11.34-4.6-1.822-2.584-3.589-2.086-5.2.156-2.744,3.81-6.485,4.685-10.972,4.427-5.2-.3-10.433-.083-15.652-.065-7.715.027-10.971,3.207-10.983,10.8q-.035,22.591,0,45.182c.008,8,3.119,11.132,11.1,11.139q25.72.026,51.441.005" transform="translate(0 -19.296)"/>
        <path id="Trazado_610170" data-name="Trazado 610170" d="M159.832,240.749c-.047-7.86-.206-15.723-.094-23.581a30.059,30.059,0,0,0-2.1-12.132l10.861-.168c-.3,3.376.653,4.9,4.61,4.626,6.373-.449,12.8-.01,19.2-.176,2.51-.064,3.3.663,3.242,3.212q-.251,10.271,0,20.553c.064,2.573-.77,3.259-3.258,3.2-6.4-.161-12.83.273-19.2-.174-3.974-.279-4.9,1.279-4.588,4.644h-8.67" transform="translate(-16.46 -21.393)" fill="#aab9c1"/>
        <path id="Trazado_610171" data-name="Trazado 610171" d="M78.68,192.143c-4.445.048-8.893,0-13.332.19a5.537,5.537,0,0,1-4.652-1.988c-1.707-1.851-3.5-3.632-5.326-5.362-2.33-2.2-5.237-2.5-6.974.1-4.958,7.428-12.091,7.992-19.866,7.217-1.176-.117-2.364-.107-3.547-.157v-8.656c4.178.727,4.679-1.47,4.578-5.021-.244-8.547-.076-8.553,8.407-8.553,11.034,0,22.069.075,33.1-.056,2.513-.03,3.471.645,3.2,3.2-.2,1.917.235,3.922-.1,5.8-.677,3.838,1.008,5.026,4.5,4.626Z" transform="translate(-2.609 -17.736)" fill="#cbdbe4"/>
        <path id="Trazado_610172" data-name="Trazado 610172" d="M167.149,201.212l-10.861.168a21.751,21.751,0,0,0-11.549-8.737l.21-9.159c3.487.4,4.721-.779,4.566-4.614-.361-8.948-.106-8.958,8.843-8.958,10.879,0,21.759.077,32.636-.057,2.524-.031,3.275.672,3.212,3.208q-.255,10.277,0,20.563c.064,2.553-.715,3.263-3.226,3.2-6.4-.17-12.835.248-19.215-.17-3.848-.253-5.013,1.075-4.617,4.561" transform="translate(-15.114 -17.736)" fill="#cbdbe4"/>
        <path id="Trazado_610173" data-name="Trazado 610173" d="M112.365,129.933c6.407,0,12.814.056,19.22-.032,2.043-.029,3.268.094,3.2,2.756-.189,7.148-.146,14.3-.016,21.454.04,2.189-.676,2.733-2.781,2.72q-19.666-.13-39.333,0c-2.17.015-2.767-.647-2.732-2.77q.18-10.725,0-21.454c-.039-2.189.674-2.76,2.782-2.72,6.553.122,13.11.044,19.666.044" transform="translate(-9.389 -13.563)" fill="#cbdbe4"/>
        <path id="Trazado_610174" data-name="Trazado 610174" d="M171.842,156.784c-6.25,0-12.5-.122-18.749.059-2.558.073-3.282-.7-3.22-3.236q.253-10.263,0-20.536c-.064-2.57.774-3.215,3.255-3.194q19.2.173,38.393,0c2.551-.025,3.281.7,3.219,3.235q-.253,10.263,0,20.536c.064,2.57-.769,3.255-3.255,3.194-6.544-.159-13.1-.054-19.643-.054" transform="translate(-15.65 -13.562)" fill="#aab9c1"/>
        <path id="Trazado_610175" data-name="Trazado 610175" d="M232,156.784c-6.407,0-12.817-.112-19.219.057-2.416.064-2.98-.753-2.937-3.024.132-7,.156-14.009-.011-21.008-.058-2.438.789-2.939,3.036-2.923q19.443.14,38.887-.012c2.415-.022,2.986.727,2.939,3.023-.142,7-.159,14.009.007,21.008.058,2.436-.785,2.971-3.037,2.925-6.553-.132-13.11-.047-19.666-.047" transform="translate(-21.911 -13.562)" fill="#cbdbe4"/>
        <path id="Trazado_610176" data-name="Trazado 610176" d="M232.26,169.914c6.548,0,13.1.074,19.643-.043,2.109-.038,2.829.565,2.792,2.74q-.183,10.712,0,21.429c.035,2.138-.62,2.782-2.762,2.767q-19.643-.13-39.287,0c-2.106.013-2.828-.564-2.791-2.739q.183-10.712,0-21.429c-.035-2.138.617-2.809,2.763-2.769,6.545.123,13.1.045,19.643.045" transform="translate(-21.913 -17.738)" fill="#aab9c1"/>
        <path id="Trazado_610177" data-name="Trazado 610177" d="M232.249,236.746c-6.407,0-12.814-.056-19.22.033-2.043.029-3.268-.095-3.2-2.756.189-7.148.146-14.3.016-21.454-.04-2.19.676-2.733,2.781-2.72q19.666.13,39.333,0c2.17-.015,2.767.646,2.732,2.769q-.18,10.725,0,21.454c.039,2.19-.674,2.76-2.782,2.721-6.553-.123-13.11-.045-19.666-.045" transform="translate(-21.911 -21.912)" fill="#cbdbe4"/>
        <path id="Trazado_610178" data-name="Trazado 610178" d="M52.378,49.972c6.4,0,12.8.116,19.2-.057,2.53-.069,3.3.655,3.238,3.216-.174,6.841-.11,13.691-.027,20.537.024,2.041-.12,3.244-2.765,3.217-13.094-.133-26.191-.1-39.287-.018-2.124.013-2.812-.6-2.776-2.754q.18-10.712,0-21.429c-.036-2.157.651-2.793,2.778-2.755,6.546.121,13.1.044,19.643.044" transform="translate(-3.128 -5.212)" fill="#aab9c1"/>
        <path id="Trazado_610179" data-name="Trazado 610179" d="M112.349,76.825c-6.556,0-13.113-.081-19.666.046-2.131.041-2.8-.573-2.764-2.738q.189-10.725,0-21.455c-.037-2.147.6-2.766,2.749-2.75q19.667.137,39.334,0c2.128-.014,2.8.572,2.763,2.737q-.189,10.725,0,21.455c.037,2.148-.6,2.794-2.75,2.751-6.553-.129-13.11-.047-19.666-.047" transform="translate(-9.389 -5.213)" fill="#cbdbe4"/>
        <path id="Trazado_610180" data-name="Trazado 610180" d="M172.407,49.969c6.1,0,12.209.15,18.3-.065,2.938-.1,4.2.429,4.057,3.774-.287,6.536-.192,13.1-.03,19.64.064,2.567-.385,3.623-3.335,3.581-12.8-.18-25.6-.153-38.393-.016-2.659.029-3.177-.921-3.127-3.321.141-6.843.177-13.694-.013-20.536-.075-2.7.97-3.158,3.343-3.106,6.4.141,12.8.048,19.2.048" transform="translate(-15.649 -5.21)" fill="#aab9c1"/>
        <path id="Trazado_610181" data-name="Trazado 610181" d="M231.983,76.824c-6.257,0-12.518-.087-18.772.046-2.305.048-3.469-.239-3.385-3.033.21-7,.181-14.008.01-21.007-.061-2.466.814-2.922,3.057-2.905q19.443.145,38.887-.012c2.446-.023,2.961.783,2.917,3.046-.134,7-.159,14.009.011,21.008.06,2.464-.81,2.953-3.058,2.906-6.553-.136-13.11-.048-19.666-.048" transform="translate(-21.91 -5.212)" fill="#cbdbe4"/>
        <path id="Trazado_610182" data-name="Trazado 610182" d="M52.391,89.953c6.556,0,13.113.084,19.666-.047,2.161-.043,2.778.625,2.741,2.76q-.183,10.725,0,21.455c.039,2.176-.655,2.742-2.772,2.728q-19.666-.132-39.334,0c-2.157.015-2.777-.624-2.74-2.759q.183-10.725,0-21.455c-.039-2.176.652-2.77,2.772-2.73,6.553.124,13.11.046,19.666.046" transform="translate(-3.128 -9.388)" fill="#cbdbe4"/>
        <path id="Trazado_610183" data-name="Trazado 610183" d="M112.32,116.8c-6.4,0-12.8-.12-19.2.059-2.561.072-3.28-.708-3.217-3.238q.253-10.262,0-20.535c-.064-2.575.78-3.213,3.258-3.191q19.2.171,38.393-.005c2.555-.026,3.278.707,3.216,3.238q-.253,10.262,0,20.535c.064,2.575-.776,3.255-3.259,3.192-6.394-.16-12.8-.054-19.2-.054" transform="translate(-9.388 -9.387)" fill="#aab9c1"/>
        <path id="Trazado_610184" data-name="Trazado 610184" d="M172.281,89.953c6.556,0,13.113.078,19.666-.044,2.1-.038,2.824.525,2.783,2.717q-.2,10.727,0,21.455c.035,2.121-.557,2.787-2.73,2.772q-19.666-.142-39.334,0c-2.1.013-2.823-.526-2.783-2.718.131-7.149.173-14.306-.016-21.454-.07-2.657,1.149-2.787,3.2-2.757,6.406.09,12.813.032,19.22.032" transform="translate(-15.649 -9.388)" fill="#cbdbe4"/>
        <path id="Trazado_610185" data-name="Trazado 610185" d="M232.1,116.806c-6.4,0-12.8-.087-19.2.047-2.254.047-3.12-.48-3.066-2.929.161-7.14.11-14.287.022-21.429-.023-1.89.488-2.591,2.49-2.579q19.867.116,39.734.007c1.857-.009,2.632.434,2.6,2.466-.106,7.291-.135,14.586.012,21.876.048,2.4-1.05,2.594-2.955,2.571-6.547-.08-13.1-.03-19.644-.03" transform="translate(-21.912 -9.389)" fill="#aab9c1"/>
        <path id="Trazado_610186" data-name="Trazado 610186" d="M52.387,156.785c-6.548,0-13.1-.075-19.643.043-2.114.039-2.825-.575-2.788-2.744q.183-10.712,0-21.429c-.036-2.143.63-2.778,2.766-2.764q19.643.13,39.287,0c2.111-.013,2.824.574,2.786,2.743q-.181,10.713,0,21.43c.035,2.143-.627,2.8-2.767,2.765-6.545-.123-13.1-.045-19.643-.045" transform="translate(-3.128 -13.563)" fill="#aab9c1"/>
        <path id="Trazado_610187" data-name="Trazado 610187" d="M232.734,249.872c6.25,0,12.5.12,18.75-.059,2.551-.073,3.332.688,3.222,3.232-.2,4.606.005,9.227-.072,13.839-.1,6.207-3.521,9.742-9.651,9.813q-12.722.149-25.448,0c-5.911-.067-9.475-3.58-9.611-9.393-.115-4.91.074-9.825-.071-14.733-.064-2.176.68-2.779,2.79-2.742,6.7.116,13.393.043,20.09.043" transform="translate(-21.913 -26.085)" fill="#aab9c1"/>
        <path id="Trazado_610188" data-name="Trazado 610188" d="M138.7,183.482q-.1,4.58-.209,9.159c-15.022-.8-30.054-.139-45.08-.356-2.825-.041-5.65-.1-8.475-.145v-8.658c4.181.713,4.685-1.495,4.585-5.046-.239-8.522-.073-8.527,8.45-8.527,10.869,0,21.739.1,32.605-.069,2.921-.047,4.018.753,3.658,3.689-.217,1.76.234,3.621-.095,5.345-.752,3.946,1.188,4.908,4.56,4.608" transform="translate(-8.87 -17.735)" fill="#aab9c1"/>
        <path id="Trazado_610189" data-name="Trazado 610189" d="M52.535,36.845c-6.4,0-12.8-.082-19.19.045-2.354.047-3.514-.4-3.4-3.121.2-4.9-.06-9.822.095-14.726.162-5.169,3.58-8.89,8.639-8.975,11.155-.188,22.315-.012,33.472-.116,2.332-.022,2.653,1.026,2.631,2.966-.075,6.993-.121,13.988.021,20.978.048,2.4-.786,3.04-3.075,2.994-6.394-.129-12.793-.045-19.19-.045M43.507,19.064c-3.919-1.042-4.733.779-4.672,4.388.056,3.231.512,4.751,4.29,4.573,3.263-.153,5.191-.25,4.906-4.42-.226-3.293-.3-5.706-4.524-4.541M65.682,23.34c1.162-4.219-1.214-4.4-4.541-4.512-3.549-.121-4.4,1-4.425,4.443-.024,3.57.718,4.876,4.578,4.764,3.573-.1,5.433-.766,4.387-4.695" transform="translate(-3.126 -1.039)" fill="#0092b9"/>
        <path id="Trazado_610190" data-name="Trazado 610190" d="M112.142,36.8c-6.254,0-12.509-.084-18.761.044-2.354.047-3.484-.4-3.414-3.124q.266-10.267,0-20.547c-.07-2.683.977-3.18,3.376-3.162q18.984.146,37.97,0c2.351-.016,3.483.4,3.413,3.123q-.266,10.269,0,20.547c.069,2.684-.975,3.214-3.377,3.163-6.4-.136-12.8-.047-19.208-.047m.614-17.9c-3.71,0-7.426.13-11.129-.035-3.992-.178-2.663,2.719-2.694,4.6-.032,1.919-1.184,4.644,2.766,4.542,7.119-.185,14.246-.038,21.369-.07.957,0,2.037.3,2.654-.983,1.959-4.07-.459-8.052-4.953-8.057q-4.007,0-8.015,0" transform="translate(-9.394 -1.045)" fill="#0092b9"/>
        <path id="Trazado_610191" data-name="Trazado 610191" d="M172.246,36.846c-6.255,0-12.512-.1-18.763.051-2.57.064-3.721-.428-3.625-3.374.224-6.844.161-13.7.023-20.55-.047-2.363.722-3.043,3.049-3.025,12.956.1,25.913.076,38.869.014,1.994-.01,2.963.4,2.924,2.681-.119,7.148-.148,14.3.011,21.446.059,2.643-1.243,2.808-3.276,2.784-6.4-.075-12.808-.028-19.211-.028m.033-8.953c3.569,0,7.14-.094,10.706.024,4.407.146,2.412-3.132,2.685-5.037.287-2,.6-4.125-2.857-4-6.683.236-13.387.238-20.069-.008-3.166-.116-3.889.88-3.992,3.962-.133,3.942.818,5.685,5.061,5.133a66.538,66.538,0,0,1,8.467-.071" transform="translate(-15.648 -1.039)" fill="#0092b9"/>
        <path id="Trazado_610192" data-name="Trazado 610192" d="M231.91,36.8c-6.248,0-12.5-.11-18.743.054-2.546.067-3.32-.743-3.263-3.273.155-6.84.139-13.688.007-20.528-.046-2.338.689-3.065,3.033-3.041,10.859.108,21.72-.048,32.578.093,5.364.071,8.868,3.666,9.039,9.043.156,4.9-.083,9.822.087,14.725.083,2.435-.853,3.011-3.1,2.971C245,36.719,238.455,36.8,231.91,36.8m.357-8.844c3.562,0,7.131-.145,10.683.039,3.967.205,2.753-2.648,2.743-4.554s1.259-4.679-2.719-4.586c-7.12.167-14.246.03-21.369.065-1.085.005-2.277-.344-2.792,1.37-1.523,5.073.242,7.666,5.441,7.669q4.006,0,8.014,0" transform="translate(-21.918 -1.045)" fill="#0092b9"/>
        <path id="Trazado_610193" data-name="Trazado 610193" d="M72.558,271.306q-25.72,0-51.441-.005c-7.977-.007-11.088-3.135-11.1-11.139q-.023-22.591,0-45.182c.013-7.6,3.269-10.777,10.983-10.8,5.219-.019,10.451-.233,15.652.065,4.487.257,8.228-.618,10.972-4.428,1.615-2.241,3.383-2.739,5.2-.156,2.8,3.967,6.7,4.651,11.34,4.6,19.978-.207,39.959-.1,59.939-.084,8.009.005,11.2,3.136,11.205,11.028q.028,22.591,0,45.182c-.011,7.66-3.239,10.9-10.871,10.914q-25.944.032-51.889.007m.579-35.805c-15.351,0-30.7.119-46.052-.09-3.518-.047-3.941,1.438-3.663,4.212.23,2.294-1.016,4.946,3.4,4.92q45.829-.261,91.66,0c4.36.025,3.239-2.551,3.44-4.883.234-2.714-.044-4.3-3.624-4.253-15.05.216-30.1.091-45.159.091M63.5,262.355c12.218,0,24.442-.179,36.655.106,3.821.09,4.036-1.58,3.89-4.473-.128-2.539.466-4.724-3.667-4.688q-36.655.317-73.314,0c-4.133-.036-3.537,2.151-3.666,4.689-.147,2.895.072,4.563,3.892,4.472,12.063-.287,24.138-.106,36.208-.106M86.078,217.6c-10.579,0-21.161.156-31.734-.09-3.451-.08-4.373.976-4.127,4.254.206,2.739-.428,4.96,3.939,4.906,21.3-.263,42.613-.232,63.917-.015,3.839.039,3.859-1.638,3.9-4.484.048-3.093-.193-4.8-4.165-4.68-10.569.321-21.154.109-31.733.109m-44.853,4.616c.993-3.815-.618-4.856-4.335-4.727-3.129.108-4.868.347-4.623,4.233.2,3.167.094,5.295,4.361,4.955,3.206-.254,5.8-.125,4.6-4.462" transform="translate(-1.045 -20.667)" fill="#99e635"/>
        <path id="Trazado_610194" data-name="Trazado 610194" d="M44.546,20.09c4.228-1.164,4.3,1.249,4.523,4.541.286,4.171-1.642,4.267-4.905,4.421-3.778.177-4.235-1.342-4.29-4.573-.061-3.608.753-5.432,4.672-4.389" transform="translate(-4.163 -2.067)"/>
        <path id="Trazado_610195" data-name="Trazado 610195" d="M68.8,24.374c1.046,3.929-.814,4.593-4.387,4.695-3.86.112-4.6-1.194-4.578-4.764.023-3.444.876-4.564,4.425-4.443,3.326.112,5.7.293,4.541,4.512" transform="translate(-6.248 -2.073)"/>
        <path id="Trazado_610196" data-name="Trazado 610196" d="M113.78,19.928q4.007,0,8.015,0c4.494,0,6.911,3.987,4.953,8.057-.617,1.284-1.7.978-2.654.982-7.123.033-14.25-.115-21.369.071-3.95.1-2.8-2.624-2.766-4.543.03-1.88-1.3-4.777,2.694-4.6,3.7.165,7.419.035,11.129.033" transform="translate(-10.418 -2.077)"/>
        <path id="Trazado_610197" data-name="Trazado 610197" d="M173.315,28.933a66.375,66.375,0,0,0-8.467.069c-4.243.553-5.193-1.19-5.061-5.132.1-3.083.827-4.078,3.992-3.962,6.682.246,13.386.243,20.069.007,3.458-.121,3.143,2,2.857,4-.273,1.9,1.722,5.183-2.685,5.037-3.565-.119-7.137-.024-10.706-.023" transform="translate(-16.684 -2.078)"/>
        <path id="Trazado_610198" data-name="Trazado 610198" d="M233.245,28.985q-4.007,0-8.014,0c-5.2,0-6.964-2.6-5.441-7.669.515-1.713,1.708-1.364,2.792-1.37,7.123-.036,14.25.1,21.369-.064,3.978-.093,2.709,2.693,2.719,4.586s1.223,4.758-2.743,4.554c-3.552-.184-7.122-.039-10.683-.038" transform="translate(-22.896 -2.076)"/>
        <path id="Trazado_610199" data-name="Trazado 610199" d="M74.694,239.872c15.053,0,30.108.124,45.159-.091,3.581-.051,3.857,1.539,3.624,4.253-.2,2.331.919,4.908-3.44,4.883q-45.829-.265-91.66,0c-4.416.025-3.169-2.626-3.4-4.92-.278-2.774.145-4.259,3.663-4.212,15.348.209,30.7.09,46.052.09" transform="translate(-2.601 -25.038)"/>
        <path id="Trazado_610200" data-name="Trazado 610200" d="M65.055,268.812c-12.071,0-24.145-.181-36.208.106-3.82.091-4.039-1.577-3.891-4.472.129-2.538-.468-4.725,3.666-4.689q36.655.317,73.313,0c4.132-.036,3.538,2.149,3.667,4.688.147,2.893-.069,4.562-3.89,4.473-12.212-.285-24.436-.106-36.655-.106" transform="translate(-2.603 -27.124)"/>
        <path id="Trazado_610201" data-name="Trazado 610201" d="M90.763,219.88c10.579,0,21.164.211,31.733-.109,3.972-.12,4.213,1.587,4.164,4.68-.044,2.846-.064,4.524-3.9,4.484-21.3-.217-42.613-.248-63.917.015-4.368.054-3.733-2.167-3.939-4.906-.246-3.278.675-4.334,4.127-4.254,10.573.245,21.155.09,31.734.09" transform="translate(-5.729 -22.948)"/>
        <path id="Trazado_610202" data-name="Trazado 610202" d="M43.818,224.495c1.2,4.336-1.39,4.207-4.6,4.462-4.267.339-4.161-1.788-4.361-4.955-.245-3.887,1.494-4.125,4.623-4.233,3.717-.129,5.328.912,4.335,4.727" transform="translate(-3.638 -22.947)"/>
      </g>
    </g>
  </g>
</svg>
