<svg xmlns="http://www.w3.org/2000/svg" xmlns:xlink="http://www.w3.org/1999/xlink" width="141" height="141" viewBox="0 0 141 141">
  <defs>
    <clipPath id="clip-path">
      <path id="Trazado_610060" data-name="Trazado 610060" d="M3.133,90.564c.046-3.311.018-6.622.018-9.932,0-3.26.035-6.521-.021-9.78-.017-1,.268-1.3,1.283-1.282,3.411.063,6.825.056,10.237,0,.942-.014,1.207.27,1.2,1.2q-.053,9.856,0,19.713c.006.943-.278,1.215-1.208,1.2q-5.194-.073-10.39,0H4.211c-.828,0-1.09-.268-1.078-1.126M50,69.556c-.022-.186-.069-.3-.04-.383.878-2.659.879-2.659,3.808-2.659h1.217c1.8,0,2.4.854,1.883,2.584-.136.459-.417.457-.726.454h-.082q-1.518.005-3.033,0H50M30.308,94.339a25.865,25.865,0,0,1-10.355-4.276,1.942,1.942,0,0,1-.98-1.856q.067-7.5,0-15a2.081,2.081,0,0,1,1.022-1.995,25.086,25.086,0,0,1,12.622-4.583c4.878-.258,9.78-.058,14.751-.058-.473,2.165-1.458,3-3.484,3.015a41.8,41.8,0,0,1-4.434-.029c-1.41-.137-1.536.5-1.526,1.656.009,1.109.174,1.577,1.469,1.56,5.966-.079,11.934-.036,17.9-.033l.26,0a6.342,6.342,0,0,1,1.113.055,1.553,1.553,0,0,1,.056,3.065,5,5,0,0,1-1.089.064l-.282,0c-5.967,0-11.936.053-17.9-.036-1.382-.02-1.544.477-1.528,1.65.015,1.109.18,1.56,1.466,1.547,7.038-.073,14.077-.036,21.115-.033.116,0,.234,0,.351-.006a4.054,4.054,0,0,1,1.02.056,1.473,1.473,0,0,1,1.257,1.654,1.353,1.353,0,0,1-1.331,1.4c-.413.04-.831.04-1.247.04h-.127c-7.039,0-14.078.05-21.115-.039-1.456-.018-1.377.682-1.364,1.661.013.941-.17,1.7,1.334,1.677,4.241-.07,8.485-.061,12.727-.052q2.893.006,5.786,0c1.084,0,2.168.034,2.187,1.468.019,1.462-1.025,1.653-2.212,1.65q-3.05-.008-6.1,0c-4.138.009-8.277.017-12.414-.053-1.548-.026-1.241.807-1.312,1.7-.084,1.052.114,1.518,1.361,1.488,3.874-.094,7.752-.035,11.628-.033a9.13,9.13,0,0,1,1.222.022,1.566,1.566,0,0,1,1.539,1.6,1.437,1.437,0,0,1-1.551,1.549c-2.411-.054-4.825-.006-7.239.041-1.651.033-3.3.065-4.951.065a63.484,63.484,0,0,1-9.643-.615m10.77-32.69c0-.739-.348-1.622,1.072-1.6,4.58.076,9.162.068,13.742,0,1.335-.019,1.029.826.992,1.512s.488,1.721-.987,1.68c-2.34-.065-4.682-.017-7.024-.017-.67,0-1.34-.006-2.011-.012-1.57-.014-3.14-.028-4.707.037l-.126,0c-1.268,0-.955-.884-.952-1.608m6.339-6.491c.025-.688-.323-1.589,1.039-1.414a5.476,5.476,0,0,0,.761.024c.936-.013,1.792-.026,1.283,1.643.469,1.672-.586,1.484-1.66,1.607a3.346,3.346,0,0,1-.38.024c-1.29,0-1.076-.972-1.043-1.884m7.861-10.394a.764.764,0,0,1,.834-.5c1.456.013,2.912.005,4.7.005A14.389,14.389,0,0,1,52.3,50.21a35.808,35.808,0,0,0,2.982-5.446M47.5,47.1c-.52-.837-1.611-1.793-1.177-2.6.228-.426.891-.355,1.593-.283a5.119,5.119,0,0,0,1.143.033,3.518,3.518,0,0,0,1.1-.021c.652-.078,1.28-.156,1.531.34.361.713-.678,1.675-1.18,2.479-.76,1.216-1.147,1.822-1.53,1.822s-.755-.59-1.484-1.765m-10.236-2.69c.344-.1.39-.114.437-.122,3.107-.517,5.632-.039,6.563,3.557A10.235,10.235,0,0,0,45.694,50.2a14.13,14.13,0,0,1-8.432-5.792m-1.873-3.967a14.45,14.45,0,0,1,0-8.111c.151-.527.37-.735.932-.724,1.722.033,3.445.012,5.279.012a21.48,21.48,0,0,0,0,9.5c-1.862,0-3.632-.015-5.4.009h-.021c-.5,0-.668-.258-.792-.691m9-1.784a20.679,20.679,0,0,1,.253-6.084c.123-.663.293-.983,1.032-.97,2.191.039,4.383.034,6.574,0,.685-.009.949.2,1.081.915a21.051,21.051,0,0,1,.005,7.745c-.14.76-.468.885-1.11.866-1.07-.03-2.141-.008-3.211-.008H47.176c-2.529,0-2.519,0-2.789-2.468m12.182,1.333a16.927,16.927,0,0,0,.009-7.121c-.22-1.031-.044-1.381,1.016-1.264a16.865,16.865,0,0,0,1.83.012h.61c2.6,0,2.766.122,3,2.7a16.519,16.519,0,0,1-.274,5.607c-.211.828-.514,1.312-1.516,1.222a27.364,27.364,0,0,0-3.659-.012c-.088,0-.171.006-.249.006-.7,0-.97-.195-.764-1.155m-10.14-12.46c.795-1.286,1.576-2.579,2.551-4.177.987,1.607,1.807,2.926,2.61,4.254.36.6.261.919-.527.9q-2.046-.045-4.095,0H46.9c-.81,0-.866-.334-.467-.98m8.742.3a26.494,26.494,0,0,0-2.841-5.057A12.447,12.447,0,0,1,60.619,28.5c-1.6,0-3.092-.021-4.583.011h-.028c-.507,0-.686-.311-.837-.686m-9.439-5.251a28.739,28.739,0,0,0-2.91,5.228,1.026,1.026,0,0,1-1.162.712c-1.37-.041-2.743-.013-4.469-.013a14.539,14.539,0,0,1,8.542-5.926M39.168,56.437A23.677,23.677,0,0,1,28.712,39.766,20.6,20.6,0,0,1,42.6,16.879a19.92,19.92,0,0,1,6.461-.983,20.523,20.523,0,0,1,20.2,23.858A23.979,23.979,0,0,1,59.082,56.282a4.869,4.869,0,0,1-3.372.676,10.71,10.71,0,0,0-1.487,0c-.3.028-.44-.219-.46-.494a7.313,7.313,0,0,0-.026-.916c-.376-1.8.414-2.575,2.105-3.26A17.332,17.332,0,1,0,31.935,32.949c-1.674,8.539,2.929,16.62,11.3,19.822.526.2,1.114.293.994,1.079-.157,1.022.5,2.72-.358,2.948a9.027,9.027,0,0,1-2.272.349,4.162,4.162,0,0,1-2.43-.711M37.986,11.168c-.01-1.241.8-1.635,1.919-1.632,3.158.011,6.316,0,9.474,0,2.954,0,5.908,0,8.862,0h.186a3.206,3.206,0,0,1,1.312.178c1.353.569,1.438.874.451,1.948-.069.075-.169.136-.206.224-1.056,2.576-2.8,2.549-5.108,1.648a19.5,19.5,0,0,0-7.229-.9q-1.653.006-3.3,0c-1.5,0-2.992,0-4.489.007h-.04c-1.031,0-1.82-.3-1.829-1.483M93.8,6.422c1.009-.016,1.012.491,1.007,1.226-.022,3.264-.009,6.528-.009,9.792,0,3.314-.024,6.63.02,9.944.011.855-.223,1.141-1.109,1.129-3.467-.048-6.935-.04-10.4,0-.8.008-1.177-.127-1.172-1.064q.056-10.021.007-20.042c0-.725.208-.978.951-.972q2.807.024,5.615.028,2.546,0,5.093-.036m-37.1-3.2c5.518-.089,11.035-.179,16.341,2.1,5.906,2.536,5.929,2.483,5.929,8.828V17.52c0,2.5-.032,5,.019,7.5a1.8,1.8,0,0,1-.877,1.762,35.8,35.8,0,0,1-5.358,2.9c-.732.321-1.026.154-1.286-.621a23.191,23.191,0,0,0-9.715-12.541c-1.242-.793-.258-1.377.145-1.929s.717-1.624,1.812-.6a7.934,7.934,0,0,0,4.745,1.876c.788.086,1.162-.069,1.075-.926a8.491,8.491,0,0,1,0-1.376c.037-.6-.088-.944-.814-.935-2.126.026-3.466-1.172-4.472-2.922a6.014,6.014,0,0,0-5.625-3.275c-1.581.025-3.163.039-4.742-.009A3.2,3.2,0,0,1,50.7,4.047c-.107-.469-.16-.841.47-.822.776.025,1.554.034,2.332.034,1.067,0,2.136-.017,3.2-.034M55.794.044c-1.74.029-3.48.059-5.217.034a2.955,2.955,0,0,0-3,2.168,4.37,4.37,0,0,0,.3,3.276c.4.869.055.922-.659.915q-3.673-.033-7.346-.01c-3.406.021-5.26,2.037-4.974,5.448a1.179,1.179,0,0,1-.71,1.4,4.4,4.4,0,0,0-2.311,5.514,1.658,1.658,0,0,1-.532,1.836,21.953,21.953,0,0,0-5.881,12.984c-.89,10.093,2.7,18.381,10.782,24.558a3.821,3.821,0,0,1,1.78,3.475c-.01,1.427-.467,1.631-1.728,1.615a30.48,30.48,0,0,0-16.062,4.092c-.912.533-1.623,1.016-2.464-.17-.526-.742-1.517-.712-2.4-.71q-3.1.01-6.19.005-2.72,0-5.441,0c-2.611.006-3.728,1.11-3.732,3.7Q0,74.729,0,79.276v2.612q0,4.632.006,9.263c0,2.509,1.136,3.707,3.6,3.727,3.928.032,7.856.01,11.784.008A3.1,3.1,0,0,0,18.123,93.8c.554-.776.961-.518,1.6-.137a30.637,30.637,0,0,0,15.884,4.381h.247c3.343-.016,6.686-.012,10.03-.009q2.714,0,5.428,0c4.038,0,6.021-2.279,5.4-6.361.376,0,.628,0,.881,0,4.027-.044,5.655-1.71,5.435-5.717-.043-.794.386-.881.864-1.165a4.645,4.645,0,0,0,.013-8.223,1.33,1.33,0,0,1-.823-1.624,4.325,4.325,0,0,0-2.361-4.717A1.261,1.261,0,0,1,60,68.9c.022-2.857.027-5.714,0-8.571a1.494,1.494,0,0,1,.708-1.387q12.8-9.122,11.846-24.821c-.044-.72.084-1.079.824-1.333a23.69,23.69,0,0,0,5.066-2.449c.6-.386.919-.394,1.35.2a3.053,3.053,0,0,0,2.714,1.1c2.1-.011,4.207-.01,6.31-.008,1.876,0,3.751,0,5.626-.005,2.307-.009,3.511-1.177,3.517-3.455q.013-4.9.014-9.794V16.6q0-4.933-.013-9.866c-.006-2.27-1.207-3.488-3.506-3.51-3.979-.038-7.958-.013-11.937-.009A3,3,0,0,0,79.911,4.23c-.582.8-1.018.614-1.721.183A28.248,28.248,0,0,0,66.933.388,57.788,57.788,0,0,0,59.633,0c-1.279,0-2.559.022-3.839.043" transform="translate(0 -0.001)" fill="none"/>
    </clipPath>
    <linearGradient id="linear-gradient" y1="1" x2="0.003" y2="1" gradientUnits="objectBoundingBox">
      <stop offset="0" stop-color="#40d5e6"/>
      <stop offset="1" stop-color="#57f"/>
    </linearGradient>
    <clipPath id="clip-path-2">
      <rect id="Rectángulo_378044" data-name="Rectángulo 378044" width="97.975" height="98.043" fill="none"/>
    </clipPath>
    <clipPath id="clip-path-3">
      <path id="Trazado_610063" data-name="Trazado 610063" d="M257.394,113.713q0,21.031-.022,42.062c0,1.258-.206,2.5,1.91,2.071l-5.064,8.08-5.049-8.1c1.825.354,1.894-.556,1.885-1.755-.045-6.219-.067-12.44.016-18.659.018-1.334-.344-1.865-1.648-1.717-1.384-.208-1.6.475-1.581,1.72.072,5.353,0,10.707.055,16.06.01,1.023-.29,1.337-1.28,1.254-.97-.081-1.951-.018-3.144-.018L254.224,171.9l10.742-17.191a24.722,24.722,0,0,0-2.805.019c-1.324.166-1.7-.252-1.7-1.643.063-12.236.037-24.473.037-36.71,0-2.245,0-2.8-1.316-2.8-.436,0-1.018.062-1.791.144" transform="translate(-243.473 -113.569)" fill="none"/>
    </clipPath>
    <linearGradient id="linear-gradient-2" x1="-3.47" y1="1.084" x2="-3.456" y2="1.084" xlink:href="#linear-gradient"/>
    <clipPath id="clip-path-4">
      <path id="Trazado_610064" data-name="Trazado 610064" d="M6.214,33.463a25.152,25.152,0,0,0,2.8-.019c1.313-.16,1.713.235,1.7,1.637-.069,10.5-.015,21-.068,31.5-.006,1.253.214,1.93,1.592,1.742,1.174.078,1.6-.324,1.589-1.636-.066-11.472-.05-22.945-.021-34.417,0-1.244.092-2.368-1.916-1.934l5.072-8.1,5.17,8.323c-2.02-.689-2.009.269-2,1.362.03,4.181.076,8.364-.025,12.542-.032,1.322.342,1.868,1.637,1.768,1.324.13,1.638-.473,1.6-1.756-.106-3.259.009-6.525-.061-9.785-.022-1.034.306-1.327,1.287-1.247s1.948.017,3.141.017L16.957,16.272,6.214,33.463" transform="translate(-6.214 -16.272)" fill="none"/>
    </clipPath>
    <linearGradient id="linear-gradient-3" x1="-0.089" y1="1.781" x2="-0.074" y2="1.781" xlink:href="#linear-gradient"/>
    <clipPath id="clip-path-5">
      <path id="Trazado_610065" data-name="Trazado 610065" d="M53.225,123.857c-1.317-.171-1.658.377-1.644,1.7.078,7.836.048,15.674.055,23.511l.439.121a1.247,1.247,0,0,1,1.05-.01c1.392.2,1.7-.434,1.685-1.773q-.106-10.923,0-21.848c.009-1.085-.143-1.747-1.105-1.747a2.968,2.968,0,0,0-.476.043" transform="translate(-51.581 -123.813)" fill="none"/>
    </clipPath>
    <linearGradient id="linear-gradient-4" x1="-4.849" y1="2.345" x2="-4.755" y2="2.345" xlink:href="#linear-gradient"/>
    <clipPath id="clip-path-6">
      <path id="Trazado_610066" data-name="Trazado 610066" d="M257.711,135.682c.1,3.133.112,6.274-.006,9.4-.05,1.309.331,1.835,1.6,1.74,1.285.083,1.685-.452,1.635-1.779-.117-3.108-.115-6.226,0-9.334.048-1.329-.334-1.875-1.645-1.737a3.047,3.047,0,0,0-.444-.036c-.976,0-1.174.635-1.14,1.741" transform="translate(-257.7 -133.941)" fill="none"/>
    </clipPath>
    <linearGradient id="linear-gradient-5" x1="-23.646" y1="4.366" x2="-23.554" y2="4.366" xlink:href="#linear-gradient"/>
  </defs>
  <g id="Grupo_1073648" data-name="Grupo 1073648" transform="translate(-1143 -14089)">
    <g id="Grupo_1071491" data-name="Grupo 1071491" transform="translate(874 13131)">
      <circle id="Elipse_5614" data-name="Elipse 5614" cx="70.5" cy="70.5" r="70.5" transform="translate(269 958)" fill="#fff"/>
    </g>
    <g id="Grupo_1072837" data-name="Grupo 1072837" transform="translate(1164.512 14110.712)">
      <g id="Grupo_1072824" data-name="Grupo 1072824" transform="translate(0 0)">
        <g id="Grupo_1072823" data-name="Grupo 1072823" clip-path="url(#clip-path)">
          <rect id="Rectángulo_378043" data-name="Rectángulo 378043" width="97.975" height="98.043" transform="translate(0 0)" fill="url(#linear-gradient)"/>
        </g>
      </g>
      <g id="Grupo_1072826" data-name="Grupo 1072826">
        <g id="Grupo_1072825" data-name="Grupo 1072825" clip-path="url(#clip-path-2)">
          <path id="Trazado_610061" data-name="Trazado 610061" d="M33.025,87.984c-2.174.005-4.35-.054-6.52.042-1.182.052-1.473-.387-1.417-1.483.08-1.563.015-3.134.012-4.7,1.174.078,1.6-.324,1.589-1.636-.066-11.472-.05-22.945-.021-34.417,0-1.244.092-2.368-1.916-1.934l5.072-8.1,5.17,8.323c-2.02-.689-2.009.269-2,1.362.03,4.181.076,8.364-.025,12.542-.032,1.322.342,1.868,1.637,1.768q.005,1.51.01,3.021c-1.317-.171-1.658.377-1.644,1.7.078,7.836.048,15.674.055,23.511" transform="translate(-17.17 -24.802)" fill="#f97f6c"/>
          <path id="Trazado_610062" data-name="Trazado 610062" d="M262.326,120.053c0-1.623.055-3.248-.006-4.869-.036-.975.256-1.348,1.281-1.312,2.229.076,4.462.04,6.693.049q0,21.031-.022,42.062c0,1.258-.205,2.5,1.91,2.071l-5.064,8.08-5.049-8.1c1.825.355,1.894-.555,1.886-1.755-.045-6.22-.068-12.44.016-18.659.018-1.334-.344-1.865-1.648-1.717q.006-1.5.013-3c1.285.083,1.685-.452,1.635-1.78-.118-3.107-.115-6.226,0-9.334.048-1.329-.335-1.875-1.645-1.737" transform="translate(-181.798 -78.991)" fill="#f97f6c"/>
        </g>
      </g>
      <g id="Grupo_1072828" data-name="Grupo 1072828" transform="translate(74.576 34.786)">
        <g id="Grupo_1072827" data-name="Grupo 1072827" clip-path="url(#clip-path-3)">
          <rect id="Rectángulo_378045" data-name="Rectángulo 378045" width="21.493" height="58.329" transform="translate(0 0)" fill="url(#linear-gradient-2)"/>
        </g>
      </g>
      <g id="Grupo_1072830" data-name="Grupo 1072830" transform="translate(1.903 4.984)">
        <g id="Grupo_1072829" data-name="Grupo 1072829" clip-path="url(#clip-path-4)">
          <rect id="Rectángulo_378046" data-name="Rectángulo 378046" width="21.494" height="52.242" transform="translate(0 0)" fill="url(#linear-gradient-3)"/>
        </g>
      </g>
      <g id="Grupo_1072832" data-name="Grupo 1072832" transform="translate(15.799 37.924)">
        <g id="Grupo_1072831" data-name="Grupo 1072831" clip-path="url(#clip-path-5)">
          <rect id="Rectángulo_378047" data-name="Rectángulo 378047" width="3.256" height="25.691" transform="translate(-0.013 -0.128)" fill="url(#linear-gradient-4)"/>
        </g>
      </g>
      <g id="Grupo_1072834" data-name="Grupo 1072834" transform="translate(78.934 41.026)">
        <g id="Grupo_1072833" data-name="Grupo 1072833" clip-path="url(#clip-path-6)">
          <rect id="Rectángulo_378048" data-name="Rectángulo 378048" width="3.336" height="13.083" transform="translate(-0.045 -0.103)" fill="url(#linear-gradient-5)"/>
        </g>
      </g>
      <g id="Grupo_1072836" data-name="Grupo 1072836">
        <g id="Grupo_1072835" data-name="Grupo 1072835" clip-path="url(#clip-path-2)">
          <path id="Trazado_610067" data-name="Trazado 610067" d="M53.193,206.393a1.246,1.246,0,0,1,1.05-.01.979.979,0,0,1-1.05.01" transform="translate(-36.9 -143.09)" fill="#f97f6c"/>
          <path id="Trazado_610068" data-name="Trazado 610068" d="M90.333,217.182c-.473,2.165-1.458,3-3.484,3.015a41.8,41.8,0,0,1-4.434-.029c-1.411-.137-1.536.5-1.526,1.655.009,1.11.174,1.577,1.469,1.56,5.966-.079,11.934-.036,17.9-.033a8.159,8.159,0,0,1,1.373.054,1.553,1.553,0,0,1,.056,3.065,6.8,6.8,0,0,1-1.371.061c-5.967,0-11.936.053-17.9-.036-1.382-.021-1.543.477-1.528,1.65.014,1.109.18,1.56,1.466,1.547,7.038-.073,14.077-.036,21.115-.033a6.2,6.2,0,0,1,1.371.05,1.474,1.474,0,0,1,1.258,1.654,1.354,1.354,0,0,1-1.331,1.4c-.455.044-.916.039-1.375.039-7.039,0-14.078.051-21.115-.039-1.456-.018-1.377.682-1.364,1.661.013.941-.17,1.7,1.334,1.677,6.17-.1,12.342-.037,18.514-.047,1.084,0,2.168.033,2.187,1.468.019,1.462-1.025,1.653-2.212,1.65-6.171-.016-12.344.054-18.513-.05-1.548-.026-1.242.806-1.313,1.7-.084,1.053.114,1.518,1.361,1.488,3.874-.094,7.752-.035,11.628-.034a9.186,9.186,0,0,1,1.223.023,1.566,1.566,0,0,1,1.539,1.6,1.437,1.437,0,0,1-1.551,1.549c-7.279-.164-14.585.6-21.833-.509a25.87,25.87,0,0,1-10.355-4.277,1.941,1.941,0,0,1-.98-1.856q.067-7.5,0-15a2.08,2.08,0,0,1,1.022-1.995,25.086,25.086,0,0,1,12.622-4.583c4.878-.258,9.78-.058,14.751-.058" transform="translate(-42.967 -150.607)" fill="#ecccb1"/>
          <path id="Trazado_610069" data-name="Trazado 610069" d="M113.539,51.9a20.523,20.523,0,0,1,20.2,23.858,23.979,23.979,0,0,1-10.178,16.528c-1.56,1.128-3.233.524-4.859.673-.3.028-.44-.219-.46-.494a7.259,7.259,0,0,0-.026-.916c-.376-1.8.413-2.575,2.1-3.26A17.332,17.332,0,1,0,96.418,68.949c-1.674,8.539,2.929,16.62,11.3,19.822.526.2,1.114.293.994,1.079-.157,1.022.5,2.72-.358,2.948a5.536,5.536,0,0,1-4.7-.361A23.677,23.677,0,0,1,93.195,75.765a20.6,20.6,0,0,1,13.883-22.887,19.925,19.925,0,0,1,6.461-.982" transform="translate(-64.482 -36)" fill="#ecccb1"/>
          <path id="Trazado_610070" data-name="Trazado 610070" d="M193.653,24.745c0,2.5-.032,5,.019,7.5A1.8,1.8,0,0,1,192.8,34a35.809,35.809,0,0,1-5.358,2.9c-.732.321-1.026.154-1.286-.621a23.187,23.187,0,0,0-9.715-12.54c-1.242-.793-.258-1.377.145-1.93s.717-1.624,1.812-.6a7.934,7.934,0,0,0,4.745,1.876c.788.086,1.162-.069,1.075-.926a8.489,8.489,0,0,1,0-1.376c.037-.6-.088-.944-.814-.935-2.125.026-3.466-1.172-4.472-2.922a6.014,6.014,0,0,0-5.625-3.275c-1.581.024-3.163.039-4.742-.009a3.2,3.2,0,0,1-3.183-2.367c-.107-.469-.16-.841.47-.821,7.336.236,14.794-.942,21.878,2.1,5.906,2.536,5.929,2.483,5.929,8.828v3.366" transform="translate(-114.676 -7.225)" fill="#ecccb1"/>
          <path id="Trazado_610071" data-name="Trazado 610071" d="M280.826,31.98c0,3.315-.025,6.63.019,9.944.011.855-.223,1.141-1.109,1.129-3.467-.048-6.935-.04-10.4,0-.8.008-1.177-.127-1.172-1.064q.056-10.021.007-20.042c0-.725.207-.978.951-.972,3.569.031,7.139.047,10.708-.008,1.009-.016,1.012.491,1.007,1.226-.022,3.264-.009,6.528-.008,9.792" transform="translate(-186.023 -14.541)" fill="#f5f5f5"/>
          <path id="Trazado_610072" data-name="Trazado 610072" d="M10.238,238.186c0-3.26.036-6.521-.021-9.78-.017-1,.269-1.3,1.284-1.282,3.411.063,6.825.056,10.236,0,.942-.014,1.207.27,1.2,1.2q-.052,9.856.005,19.713c.006.943-.278,1.214-1.208,1.2q-5.194-.073-10.39,0c-.867.01-1.139-.251-1.127-1.126.046-3.311.018-6.622.018-9.933" transform="translate(-7.087 -157.555)" fill="#f6d26d"/>
          <path id="Trazado_610073" data-name="Trazado 610073" d="M149.269,112.707h-1.835c-2.529,0-2.519,0-2.789-2.468a20.668,20.668,0,0,1,.253-6.084c.123-.664.293-.983,1.032-.97,2.191.039,4.383.033,6.574,0,.685-.01.949.2,1.081.915a21.049,21.049,0,0,1,.005,7.745c-.14.76-.468.885-1.11.867-1.069-.03-2.14-.008-3.211-.008" transform="translate(-100.258 -71.58)" fill="#67d2ef"/>
          <path id="Trazado_610074" data-name="Trazado 610074" d="M135.409,31.135c2.954,0,5.908,0,8.862,0a3.7,3.7,0,0,1,1.5.178c1.353.568,1.438.874.451,1.948-.069.075-.169.136-.206.224-1.056,2.576-2.8,2.549-5.108,1.649a19.5,19.5,0,0,0-7.229-.9c-2.6.009-5.2-.012-7.793.008-1.05.008-1.86-.286-1.869-1.482-.009-1.242.8-1.635,1.919-1.632,3.158.01,6.316,0,9.474,0" transform="translate(-86.03 -21.596)" fill="#ecccb1"/>
          <path id="Trazado_610075" data-name="Trazado 610075" d="M120.443,112.71c-1.862,0-3.632-.015-5.4.009-.52.007-.688-.252-.813-.691a14.45,14.45,0,0,1,0-8.111c.151-.527.371-.735.932-.724,1.722.033,3.445.012,5.279.012a21.485,21.485,0,0,0,0,9.5" transform="translate(-78.838 -71.585)" fill="#67d2ef"/>
          <path id="Trazado_610076" data-name="Trazado 610076" d="M187.372,103.155h.61c2.6,0,2.766.121,3,2.7a16.52,16.52,0,0,1-.274,5.607c-.211.828-.514,1.312-1.516,1.222a27.415,27.415,0,0,0-3.659-.012c-.889.04-1.242-.083-1.013-1.149a16.925,16.925,0,0,0,.009-7.121c-.22-1.031-.044-1.381,1.016-1.264a16.789,16.789,0,0,0,1.83.012" transform="translate(-127.948 -71.536)" fill="#67d2ef"/>
          <path id="Trazado_610077" data-name="Trazado 610077" d="M141.823,199.228c-2.24,0-4.482-.068-6.718.025-1.414.059-1.081-.858-1.078-1.605s-.347-1.622,1.072-1.6c4.58.076,9.162.068,13.743,0,1.335-.019,1.029.826.992,1.512s.488,1.721-.987,1.68c-2.34-.065-4.682-.017-7.024-.017" transform="translate(-92.949 -135.999)" fill="#ecccb1"/>
          <path id="Trazado_610078" data-name="Trazado 610078" d="M121.652,144.321c.344-.1.39-.114.437-.122,3.107-.517,5.632-.039,6.563,3.557a10.251,10.251,0,0,0,1.431,2.357,14.131,14.131,0,0,1-8.432-5.792" transform="translate(-84.39 -99.91)" fill="#67d2ef"/>
          <path id="Trazado_610079" data-name="Trazado 610079" d="M179.251,144.522a14.39,14.39,0,0,1-8.52,5.939,35.765,35.765,0,0,0,2.982-5.446.765.765,0,0,1,.834-.5c1.456.013,2.912.005,4.7.005" transform="translate(-118.436 -100.251)" fill="#67d2ef"/>
          <path id="Trazado_610080" data-name="Trazado 610080" d="M129.958,73.711a28.736,28.736,0,0,0-2.91,5.228,1.026,1.026,0,0,1-1.162.712c-1.371-.041-2.743-.013-4.469-.013a14.539,14.539,0,0,1,8.542-5.926" transform="translate(-84.226 -51.133)" fill="#67d2ef"/>
          <path id="Trazado_610081" data-name="Trazado 610081" d="M170.845,74.343a12.447,12.447,0,0,1,8.289,5.731c-1.6,0-3.092-.021-4.584.011-.529.012-.711-.3-.865-.686a26.485,26.485,0,0,0-2.84-5.057" transform="translate(-118.515 -51.572)" fill="#67d2ef"/>
          <path id="Trazado_610082" data-name="Trazado 610082" d="M163.135,220.193c-.022-.186-.068-.3-.04-.383.878-2.659.879-2.659,3.808-2.659h1.217c1.8,0,2.395.854,1.883,2.584-.148.5-.469.453-.808.454-2.023.007-4.046,0-6.059,0" transform="translate(-113.132 -150.638)" fill="#ecccb1"/>
          <path id="Trazado_610083" data-name="Trazado 610083" d="M153.738,144.258c.888.191,2.237-.468,2.636.319.361.713-.678,1.675-1.18,2.478-1.511,2.417-1.546,2.422-3.015.057-.52-.837-1.611-1.794-1.177-2.6.355-.665,1.769-.119,2.736-.25" transform="translate(-104.681 -100.011)" fill="#67d2ef"/>
          <path id="Trazado_610084" data-name="Trazado 610084" d="M153.582,76.253c.988,1.607,1.807,2.926,2.61,4.254.361.6.261.919-.527.9q-2.047-.045-4.095,0c-.879.02-.951-.314-.54-.979.795-1.286,1.576-2.579,2.551-4.177" transform="translate(-104.602 -52.897)" fill="#67d2ef"/>
          <path id="Trazado_610085" data-name="Trazado 610085" d="M157.814,177.077c.469,1.671-.585,1.484-1.66,1.607-1.709.2-1.459-.867-1.423-1.86.025-.688-.323-1.589,1.039-1.414,1.125.145,2.692-.46,2.044,1.667" transform="translate(-107.313 -121.667)" fill="#ecccb1"/>
        </g>
      </g>
    </g>
  </g>
</svg>
