<svg xmlns="http://www.w3.org/2000/svg" xmlns:xlink="http://www.w3.org/1999/xlink" width="203" height="189" viewBox="0 0 203 189">
  <defs>
    <clipPath id="clip-path">
      <rect id="Rect치ngulo_378080" data-name="Rect치ngulo 378080" width="131" height="129.54" fill="none"/>
    </clipPath>
  </defs>
  <g id="Grupo_1073654" data-name="Grupo 1073654" transform="translate(-701 -15838)">
    <g id="Grupo_1072848" data-name="Grupo 1072848" transform="translate(-35 14787)">
      <g id="Grupo_161157" data-name="Grupo 161157" transform="translate(750 1051)">
        <path id="Trazado_608968" data-name="Trazado 608968" d="M94.5,0A94.5,94.5,0,1,1,0,94.5,94.5,94.5,0,0,1,94.5,0Z" fill="#0c5e46"/>
      </g>
    </g>
    <rect id="Rect치ngulo_378072" data-name="Rect치ngulo 378072" width="16" height="5" transform="translate(701 15933)" fill="#0c5e46"/>
    <g id="Grupo_1072849" data-name="Grupo 1072849" transform="translate(726.537 15849.537)">
      <circle id="Elipse_1142" data-name="Elipse 1142" cx="83.5" cy="83.5" r="83.5" transform="translate(-0.537 -0.537)" fill="#e1efe3"/>
    </g>
    <g id="Grupo_1072863" data-name="Grupo 1072863" transform="translate(739 15870.44)">
      <g id="Grupo_1072862" data-name="Grupo 1072862" clip-path="url(#clip-path)">
        <path id="Trazado_610281" data-name="Trazado 610281" d="M169.225,44.687c.432.238.963.184,1.368.554a1.887,1.887,0,0,1,.637,1.3,11.5,11.5,0,0,1-.182,4.256,3.673,3.673,0,0,1-3.514,2.563c-4.4.026-8.808.012-13.212.022-.228,0-.6-.167-.572.322,0,.055,0,.11,0,.164,0,1.814.05,3.627-.025,5.441a3.707,3.707,0,0,1-3.473,3.443q-4.417.019-8.834.023c-9.226,0-18.452-.021-27.678.022-2.473.012-4.947.032-7.42,0a3.573,3.573,0,0,1-3.041-1.993,5.011,5.011,0,0,1-.6-2.661c0-1.424-.018-2.849.022-4.272.012-.445-.135-.5-.521-.5-3.667.014-7.335.053-11-.008a4.375,4.375,0,0,1-4.3-3.454,4.041,4.041,0,0,1-.117-1.2,34.209,34.209,0,0,1,.13-4.7c.042-.238-.178-.4-.1-.661.683-2.152,1.181-4.377,2.591-6.224a8.442,8.442,0,0,1,3.861-2.7c1.54-.588,3.063-1.221,4.609-1.8.552-.205,1.1-.4,1.638-.646.286-.13.406-.25.373-.541a.22.22,0,0,1,0-.058,2.95,2.95,0,0,0-1.134-2.932,10.367,10.367,0,0,1-3.146-5.315,12.483,12.483,0,0,1-.415-3.474c.04-2.536-.059-5.075.037-7.607a12.689,12.689,0,0,1,1.178-5.08,11.688,11.688,0,0,1,2.559-3.511,11.567,11.567,0,0,1,6.028-3.12c.71-.12,1.427-.209,2.137-.323a6.985,6.985,0,0,1,1.966.253,11.49,11.49,0,0,1,7.258,3.916,11.929,11.929,0,0,1,1.1,1.49c.06.1.132.356.365.054a13.323,13.323,0,0,1,2.9-2.569,14.6,14.6,0,0,1,5.317-2.088,12.255,12.255,0,0,1,4.038-.034,12.529,12.529,0,0,1,3.515.93,13.223,13.223,0,0,1,4.1,2.646,7.029,7.029,0,0,1,.94.959c.289.4.44.223.638-.045a19.161,19.161,0,0,1,1.383-1.752,11.463,11.463,0,0,1,2.413-1.943,11.443,11.443,0,0,1,7.21-1.7,12.1,12.1,0,0,1,6.818,2.893,11.693,11.693,0,0,1,3.984,6.7,19.066,19.066,0,0,1,.357,3.434c.057,2.145.057,4.292.015,6.438a13.366,13.366,0,0,1-1.4,5.987,11.061,11.061,0,0,1-2.746,3.433.726.726,0,0,0-.29.65,9.606,9.606,0,0,1-.008,1.52.866.866,0,0,0,.665.992c1.7.662,3.382,1.364,5.105,1.951a15.8,15.8,0,0,1,3.319,1.616c1.2.755,1.825,1.715.941,3.312a2.164,2.164,0,0,1-2.793.008,23.322,23.322,0,0,0-4.656-2.122.523.523,0,0,0-.644.115c-.34.427-.763.779-1.1,1.2a15.79,15.79,0,0,1-2.758,2.835,8.63,8.63,0,0,1-5.418,2c-.338,0-.676,0-1.19,0,.522.473.95.758,1.313,1.122a14.322,14.322,0,0,1,3.168,4.873.726.726,0,0,0,.8.538c4.25-.017,8.5-.008,12.749-.006,1.15,0,1.168-.02,1.019-1.17-.01-.075-.051-.146-.061-.22-.2-1.451.079-3.176,1.781-3.544M129.394,33.973a.107.107,0,0,0,.173-.011l.276-.044c.147-.029.293-.061.441-.086a9.766,9.766,0,0,0,8.088-9.116c.07-1.5.023-3,.029-4.5a.9.9,0,0,0-.173-.658q-1.292-1.431-2.578-2.867c-.184-.206-.481-.291-.621-.148a3.53,3.53,0,0,1-.95.515,33.79,33.79,0,0,1-5.536,2.429c-1.117.384-2.305.509-3.385,1-.863.188-1.75.122-2.622.314a8.752,8.752,0,0,1-3.511.187c-.224-.041-.865-.208-.88.392a17.327,17.327,0,0,0,.527,5.742,9.618,9.618,0,0,0,2.714,4.216,10.084,10.084,0,0,0,8.008,2.63m3.815,3.1c-.2-.056-.374.058-.559.105a16.715,16.715,0,0,1-4.518.738,20.766,20.766,0,0,1-4.328-.759c-.012.022-.042.053-.043.085-.008.214,0,.429-.015.643a3.93,3.93,0,0,1-1.8,3.474,3.284,3.284,0,0,1-1.056.469c-.21.043-.409.157-.128.42.989.923,1.853,1.967,2.828,2.907a7.019,7.019,0,0,0,9.692-.235c.856-.906,1.7-1.822,2.563-2.721.244-.254.112-.385-.114-.473-1.985-.771-2.575-2.334-2.46-4.3.079-.135.125-.264-.062-.352M104.551,17.311a3.607,3.607,0,0,0-.7.033,15.555,15.555,0,0,1-4.557.442c-.345-.02-.372.147-.363.417A17.649,17.649,0,0,0,99.244,22a7.948,7.948,0,0,0,3.687,5.072,10.142,10.142,0,0,0,3.384,1.15,3.813,3.813,0,0,0,1.99-.023,8.377,8.377,0,0,0,5.793-3.366,1.33,1.33,0,0,0,.292-.869q-.006-4.271,0-8.542a3.471,3.471,0,0,0-1.181-1.506c-.172-.056-.246.07-.356.136a26.968,26.968,0,0,1-3.868,1.894c-1.441.575-2.952.914-4.428,1.37m45.9,10.849a8.981,8.981,0,0,0,4.213-1.833,7.665,7.665,0,0,0,2.792-4.664,27.062,27.062,0,0,0,.132-4.783,1.128,1.128,0,0,0-.318-.841c-.585-.626-1.185-1.24-1.746-1.887-.243-.281-.419-.272-.727-.1a28.77,28.77,0,0,1-3.279,1.642,43.391,43.391,0,0,1-4.82,1.522c-.154.017-.308.029-.461.051-1.179.173-2.354.383-3.538.505-.41.042-.451.175-.448.521.015,1.868.02,3.737,0,5.6a1.627,1.627,0,0,0,.361,1.065,7.932,7.932,0,0,0,7.843,3.2m-37.235,30.9c.176,0,.351.009.526.009l26.684,0c2.848,0,5.7,0,8.544-.011.342,0,.736.126,1.019-.212l.034-.031-.028-.036q.013-.257.026-.515l.034-.032-.03-.037c0-1.092-.028-2.184,0-3.275a12.324,12.324,0,0,0-.254-3.354,9.361,9.361,0,0,0-4.912-6.246c-1.351-.715-2.846-1.074-4.224-1.729a.958.958,0,0,0-1.27.184c-.6.748-1.311,1.4-1.948,2.113a16.281,16.281,0,0,1-3.658,3.311,10.05,10.05,0,0,1-5.341,1.6,11.02,11.02,0,0,1-7.924-3.382c-1.076-1.062-2.047-2.218-3.081-3.316-.473-.5-.821-.708-1.416-.416-.839.41-1.729.687-2.6,1.028a10.094,10.094,0,0,0-6.709,7.571,18.437,18.437,0,0,0-.142,3.171,15.5,15.5,0,0,1-.1,2.92c-.083.4.121.677.585.658l.04.033.043-.029.265.021.2.006h5.628m25.064-45.175a9.958,9.958,0,0,0-2.1-5.372,10.221,10.221,0,0,0-14.358-1.443,7.9,7.9,0,0,0-1.505,1.646,13.037,13.037,0,0,0-2.186,7.949c.014.46.169.538.581.538a28.233,28.233,0,0,0,4.121-.341,27.463,27.463,0,0,0,9.369-3.061c.716-.394,1.4-.835,2.136-1.2a2.843,2.843,0,0,1,2.454.126,4.677,4.677,0,0,1,1.489,1.161M108.191,43.077c-.636,0-1.272,0-1.907,0a3.866,3.866,0,0,1-.575-.052,12.431,12.431,0,0,1-2.142-.8,7.606,7.606,0,0,1-2.772-1.811c-1.02-.988-1.989-2.029-2.953-3.072a.846.846,0,0,0-1.076-.24c-.822.336-1.658.639-2.491.948A4.719,4.719,0,0,0,91.911,40.1a12.71,12.71,0,0,0-1.363,5.026,21.843,21.843,0,0,0-.029,3.678c.008.5.227.831.815.83q5.877-.013,11.755,0a.494.494,0,0,0,.549-.373,13.675,13.675,0,0,1,3.008-4.676c.5-.5,1.038-.933,1.545-1.511M98.944,12.993a1.782,1.782,0,0,1,0,.292c-.092.533.144.692.65.633.522-.06,1.049-.062,1.574-.1a23.8,23.8,0,0,0,4.873-.861,24.553,24.553,0,0,0,5.713-2.636,3.128,3.128,0,0,1,2.961-.19c.17.069.365.277.531.124.182-.168.031-.4-.049-.6a9.384,9.384,0,0,0-2.343-3.52,7.925,7.925,0,0,0-10.1-.772c-2.747,1.8-3.627,4.542-3.811,7.628m58.514-2.366a8.913,8.913,0,0,0-1.044-2.552,7.7,7.7,0,0,0-7.174-4.14c-3.982.2-6.352,1.976-7.811,5.724a.583.583,0,0,0-.038.453,13.361,13.361,0,0,1,.734,3.41.381.381,0,0,0,.474.383,33.658,33.658,0,0,0,5.161-.9,26.084,26.084,0,0,0,6.11-2.733,3.005,3.005,0,0,1,2.309-.323c.469.111.781.5,1.278.682M106.876,39.21a5.466,5.466,0,0,0,4.585-1.723c.6-.636,1.211-1.267,1.833-1.885.239-.238.159-.374-.1-.463a3.064,3.064,0,0,1-1.827-2.054,3.642,3.642,0,0,1-.141-1.257c0-.184,0-.4-.268-.3a13.57,13.57,0,0,1-1.882.366,12.029,12.029,0,0,1-4.429-.12c-.3-.038-.636-.3-.881-.22-.339.106-.039.548-.178.817a.889.889,0,0,0-.078.332,2.964,2.964,0,0,1-1.9,2.448c-.355.177-.379.237-.143.561.6.821,1.453,1.388,2.072,2.183a3.466,3.466,0,0,0,1.392,1,3.337,3.337,0,0,0,1.943.308m42.452.12a6.023,6.023,0,0,0,3.128-1.014,20.774,20.774,0,0,0,2.273-2.184c.223-.236.636-.443.654-.686.031-.392-.511-.383-.773-.6a3.413,3.413,0,0,1-1.385-2.941c.011-.2.054-.528-.29-.39a13,13,0,0,1-2.219.418,10.759,10.759,0,0,1-4.312-.193c-.423-.081-.757-.267-.679.4.027.231-.124.433-.172.657a3.011,3.011,0,0,1-1.582,2.255c-.684.332-.732.511-.184,1.062s1.083,1.061,1.618,1.6a5.77,5.77,0,0,0,3.925,1.614m-35.261.929c.681.1,1.06-.272,1.5-.438q1.848-.7,3.688-1.418c.2-.079.462-.161.509-.384.02-.1-.188-.307-.331-.358a14.766,14.766,0,0,0-2.084-.817c-.207-.041-.24.043-.358.154-.721.678-1.265,1.51-1.955,2.213-.308.314-.6.645-.969,1.048m28.171-.118c-.874-1.038-1.826-1.978-2.684-3.005a.3.3,0,0,0-.31-.125,14.113,14.113,0,0,0-1.829.678c-.422.215-.35.5.108.672.38.146.762.283,1.143.427l3.574,1.353m-.41-9.475c-.064-.376.089-.834-.161-1.25-.086-.142-.161-.272-.344-.259s-.17.168-.233.284a15.275,15.275,0,0,1-1.325,2.324c-.2.256-.533.45-.583.831-.01.079-.146.161-.062.247a.26.26,0,0,0,.326.02A5.662,5.662,0,0,1,141,32.249a1.039,1.039,0,0,0,.835-1.292,1.97,1.97,0,0,1,0-.291M115.1,29.092c0,.933,0,1.778,0,2.622a.315.315,0,0,0,.241.335c.572.2,1.137.416,1.695.647.133.055.275.138.363.023s-.023-.247-.111-.355a10.353,10.353,0,0,1-1.57-2.6,1.229,1.229,0,0,0-.621-.672" transform="translate(-46.024 0)" fill="#060707"/>
        <path id="Trazado_610282" data-name="Trazado 610282" d="M68.013,172.53c-.961.123-1.929.165-2.892.288-1,.128-1.985.314-2.97.5q-1.084.211-2.154.493a40.236,40.236,0,0,0-7.12,2.686c-.07.033-.142.061-.211.1-.667.342-.688.394-.312,1.029a5.314,5.314,0,0,1,1.037,2.942,4.714,4.714,0,0,1-1.956,3.82c-3.2,2.317-6.456,4.565-9.684,6.848-3.939,2.787-7.893,5.555-11.8,8.392a5.773,5.773,0,0,1-3.193,1.152,4.509,4.509,0,0,1-3.412-1.47c-.624-.645-.938-1.552-1.743-2.039-.031-.765-.716-1.125-1.056-1.7-.931-1.574-2.128-2.961-3.166-4.46-1.229-1.775-2.433-3.569-3.716-5.3-1.5-2.034-2.937-4.119-4.417-6.171q-1.957-2.713-3.865-5.468c-1.363-1.966-2.84-3.855-4.182-5.835A5.4,5.4,0,0,1,.011,164.9a4.985,4.985,0,0,1,2.078-3.722q2.529-1.9,5.155-3.675c1.814-1.224,3.549-2.559,5.383-3.755,1.257-.82,2.444-1.746,3.668-2.617,2.42-1.723,4.83-3.46,7.271-5.152a5.106,5.106,0,0,1,7.37,1.561c.673,1.044.676,1,1.669.163.916-.776,1.949-1.415,2.936-2.108q1.639-1.151,3.255-2.336c.822-.6,1.711-1.131,2.538-1.735,1.669-1.217,3.391-2.358,5.076-3.55a15.063,15.063,0,0,1,6.406-2.58,15.738,15.738,0,0,1,4.834.077c1.229.178,2.468.307,3.7.507.739.121,1.506.13,2.224.277a19.361,19.361,0,0,0,2.51.452c1.237.086,2.416.5,3.659.576a25.461,25.461,0,0,1,2.918.512.956.956,0,0,0,.28.055c1.1-.155,2.1.373,3.163.477,1.085.107,2.166.332,3.242.419,2.142.173,4.214.748,6.356.927a8.414,8.414,0,0,1,2.468.482,9.786,9.786,0,0,1,5.508,5.055,8.559,8.559,0,0,1,.864,3.859,9.346,9.346,0,0,1-1.509,4.739c-.17.255-.316.53-.507.769-.269.337-.17.441.221.494.751.1,1.514.032,2.254.134a2.01,2.01,0,0,0,2.085-1.063c2.056-2.962,4.136-5.907,6.212-8.854,1.714-2.435,3.393-4.9,5.17-7.285a8.214,8.214,0,0,1,4.657-3.431c5.106-1.179,9.547,1.4,10.706,6.372.145.623.379.972,1.044,1.088a3.987,3.987,0,0,1,1.507.434,18.678,18.678,0,0,1,1.913,1.433,8.945,8.945,0,0,1,2.03,2.778,7.406,7.406,0,0,1,.664,2.916,8.579,8.579,0,0,1-4.059,7.785c-1.543,1.088-3.065,2.209-4.641,3.247-1.864,1.228-3.657,2.556-5.494,3.821-2.152,1.483-4.261,3.028-6.42,4.5a21.239,21.239,0,0,1-5.393,2.635,24.647,24.647,0,0,1-8.244,1.244c-.582-.013-1.179.068-1.742.009-2.206-.23-4.415-.053-6.621-.141-1.947-.077-3.9-.007-5.847-.088a2.019,2.019,0,0,1-2.124-1.62c.072-1.577.76-2.234,2.351-2.222,1.56.011,3.12.063,4.68.053,4.252-.028,8.5.408,12.759-.042a18.9,18.9,0,0,0,4.25-.984,20.263,20.263,0,0,0,4.8-2.559c3.055-2.106,6.076-4.263,9.105-6.406q3.555-2.514,7.093-5.051a4.258,4.258,0,0,0,1.787-3.221,4.729,4.729,0,0,0-7.186-4.395q-2.889,1.986-5.752,4.009-5.712,4.018-11.418,8.045a5.772,5.772,0,0,1-3.939,1.158c-.707-.071-1.422-.117-2.126-.172-1.694-.131-3.382-.31-5.067-.516-1.556-.191-3.126-.221-4.681-.451-1.91-.282-3.848-.319-5.754-.7-1.3-.256-2.64-.2-3.953-.469-1.111-.231-2.275-.193-3.4-.383-1.536-.26-3.09-.334-4.626-.569-.972-.15-1.954-.264-2.907-.5a1.837,1.837,0,0,1-1.31-2.384,2.021,2.021,0,0,1,2.217-1.317c1.647.416,3.351.371,5.013.669,1.245.223,2.523.269,3.775.445,2,.281,4.021.423,6.015.753.9.148,1.821.1,2.694.278a5.064,5.064,0,0,0,5.863-4.929c0-3.717-2.372-5.372-5.707-5.633-1.53-.12-2.983-.6-4.522-.677-1.059-.055-2.123-.376-3.2-.525-1.531-.215-3.059-.451-4.589-.678-1.082-.16-2.159-.364-3.246-.467-1.263-.12-2.481-.5-3.76-.557-.905-.042-1.793-.431-2.7-.486-1.273-.077-2.489-.45-3.751-.563-.855-.077-1.7-.254-2.552-.385a5.943,5.943,0,0,1-.755-.018A9.8,9.8,0,0,0,50.04,140.2a23.3,23.3,0,0,0-3.469,2.262c-1.708,1.259-3.459,2.459-5.193,3.683-2.416,1.7-4.829,3.415-7.258,5.1-.293.2-.3.3-.1.573,1.059,1.445,2.1,2.906,3.14,4.363q1.492,2.083,2.978,4.17,2.273,3.21,4.536,6.427c.775,1.095,1.564,2.18,2.341,3.274s1.545,2.2,2.327,3.291c.217.3.446.625.9.339a32.111,32.111,0,0,1,3.607-1.764,36.078,36.078,0,0,1,4.35-1.514,32.673,32.673,0,0,1,5.624-1.2c1.356-.12,2.7-.459,4.051-.534a51.4,51.4,0,0,1,5.264-.008,1.875,1.875,0,1,1,.043,3.735c-1.646.069-3.3-.06-4.938.11-.093-.148-.163-.069-.233.023M26.836,196.986a4.663,4.663,0,0,0,1.542-.817q3.281-2.3,6.557-4.6c1.862-1.315,3.707-2.655,5.575-3.963.408-.285.42-.513.125-.891-.538-.691-1.034-1.415-1.543-2.129q-3.786-5.306-7.568-10.614C29.4,170.986,27.3,167.985,25.181,165c-2.228-3.136-4.481-6.254-6.7-9.4-.762-1.082-.823-.848-1.691-.227-1.42,1.018-2.86,2.009-4.268,3.046-2.173,1.6-4.418,3.106-6.613,4.679a10.881,10.881,0,0,0-1.808,1.382.85.85,0,0,0-.1,1.235c1.034,1.439,2.037,2.9,3.062,4.347q3.89,5.483,7.79,10.959,3.033,4.264,6.065,8.527,2.4,3.386,4.786,6.783a1.684,1.684,0,0,0,1.13.654m22.743-16.37c-.128-.163-.068-.42-.2-.646-.445-.769-1.006-1.451-1.514-2.172-1.8-2.552-3.62-5.086-5.425-7.633-1.524-2.151-3-4.339-4.565-6.458-1.832-2.48-3.535-5.049-5.341-7.545-1.631-2.254-3.233-4.529-4.854-6.79a1.2,1.2,0,0,0-1.76-.389c-1.684.921-3.128,2.2-4.727,3.241-.246.161-.264.381-.093.653.5.8,1.1,1.525,1.627,2.309,1.2,1.8,2.537,3.511,3.794,5.274q5.121,7.186,10.222,14.386,3.515,4.948,7.023,9.9c.2.277.29.284.558.095,1.5-1.064,3.036-2.077,4.515-3.169.318-.235.754-.5.738-1.057m51.989-26.3a.854.854,0,0,0,.731-.279c.3-.217.577-.464.879-.677,3.7-2.616,7.386-5.253,11.112-7.83,1.817-1.256,3.477-2.782,5.642-3.482.361-.117.315-.378.215-.664a4.558,4.558,0,0,0-3.769-3.263,4.432,4.432,0,0,0-4.444,1.6q-.486.62-.941,1.266-3.014,4.273-6.022,8.55c-1.117,1.581-2.247,3.152-3.4,4.773" transform="translate(0 -71.245)" fill="#060707"/>
        <path id="Trazado_610283" data-name="Trazado 610283" d="M103.36,144.653c.85.132,1.7.309,2.552.385,1.262.113,2.479.486,3.751.563.907.055,1.794.445,2.7.486,1.279.059,2.5.437,3.76.557,1.087.1,2.165.308,3.246.468,1.529.227,3.058.463,4.589.677,1.072.15,2.136.47,3.2.526,1.538.081,2.991.557,4.521.677,3.335.261,5.708,1.916,5.707,5.633a5.064,5.064,0,0,1-5.864,4.929c-.873-.178-1.8-.13-2.694-.278-1.993-.33-4.012-.472-6.015-.753-1.252-.176-2.53-.222-3.776-.445-1.663-.3-3.366-.252-5.013-.669a2.021,2.021,0,0,0-2.217,1.317,1.837,1.837,0,0,0,1.31,2.384c.953.232,1.935.346,2.907.5,1.536.236,3.09.31,4.626.569,1.122.19,2.286.153,3.4.383,1.313.272,2.656.214,3.953.47,1.906.377,3.843.414,5.753.7,1.556.23,3.126.26,4.681.45,1.686.207,3.373.385,5.068.516.7.055,1.42.1,2.126.172a5.773,5.773,0,0,0,3.94-1.158q5.716-4.012,11.418-8.045,2.867-2.017,5.752-4.009a4.728,4.728,0,0,1,7.186,4.394,4.256,4.256,0,0,1-1.787,3.222c-2.354,1.7-4.724,3.374-7.093,5.051-3.03,2.143-6.05,4.3-9.106,6.406a20.269,20.269,0,0,1-4.8,2.559,18.9,18.9,0,0,1-4.25.984c-4.255.45-8.507.014-12.759.042-1.56.01-3.12-.042-4.68-.053-1.591-.011-2.278.645-2.351,2.223l-4.552,0a1.169,1.169,0,0,1-.679-.111,1.923,1.923,0,0,0-2.031-2.208,51.416,51.416,0,0,0-5.265.008c-1.356.075-2.7.414-4.051.534a32.692,32.692,0,0,0-5.624,1.2,36.108,36.108,0,0,0-4.35,1.514.855.855,0,0,0-.1-.5c-.635-.9-1.256-1.814-1.895-2.714-1.174-1.654-2.358-3.3-3.535-4.954-.628-.881-1.244-1.77-1.875-2.649-1.586-2.206-3.177-4.411-4.583-6.737a3.668,3.668,0,0,1-.529-2.23,4.581,4.581,0,0,1,2-3.4c1.716-1.236,3.421-2.486,5.165-3.681,2.594-1.778,5.09-3.7,7.8-5.31.247-.147.4-.288.358-.585" transform="translate(-46.699 -76.744)" fill="#f7a581"/>
        <path id="Trazado_610284" data-name="Trazado 610284" d="M238.965,86.371c-1.7.368-1.983,2.094-1.781,3.544.01.075.052.146.061.22.148,1.151.131,1.171-1.019,1.17-4.25,0-8.5-.012-12.749.006a.726.726,0,0,1-.8-.538,14.322,14.322,0,0,0-3.168-4.872c-.363-.365-.792-.65-1.313-1.122.514,0,.852,0,1.19,0a8.63,8.63,0,0,0,5.418-2,15.805,15.805,0,0,0,2.758-2.835c.333-.422.757-.774,1.1-1.2a.524.524,0,0,1,.644-.115,23.329,23.329,0,0,1,4.655,2.122,2.165,2.165,0,0,0,2.793-.008,10.839,10.839,0,0,1,2.229,4.772,1.829,1.829,0,0,1-.018.857" transform="translate(-115.765 -41.684)" fill="#ec9165"/>
        <path id="Trazado_610285" data-name="Trazado 610285" d="M144.875,215.63c.069-.091.14-.171.233-.023-.061.175-.139.181-.233.023" transform="translate(-76.862 -114.345)" fill="#495065"/>
        <path id="Trazado_610286" data-name="Trazado 610286" d="M229.469,114.568c0-.055,0-.109,0-.164.08.055.079.11,0,.164" transform="translate(-121.743 -60.696)" fill="#495065"/>
        <path id="Trazado_610287" data-name="Trazado 610287" d="M172.258,107.364c-.008.172-.017.343-.026.515a.048.048,0,0,0-.006.068c-.283.338-.677.209-1.019.211-2.848.016-5.7.011-8.544.011l-26.684,0c-.176,0-.351-.006-.526-.009,0-.079-.027-.142-.111-.142s-.114.063-.11.143h-5.407a.125.125,0,0,0-.2-.006l-.265-.021a.05.05,0,0,0-.083,0c-.464.019-.668-.259-.585-.659a15.577,15.577,0,0,0,.1-2.92,18.436,18.436,0,0,1,.142-3.171,10.095,10.095,0,0,1,6.709-7.572c.865-.341,1.756-.618,2.6-1.028.6-.291.944-.085,1.416.417,1.034,1.1,2.006,2.253,3.081,3.316a11.02,11.02,0,0,0,7.924,3.382A10.05,10.05,0,0,0,156,98.3a16.293,16.293,0,0,0,3.658-3.311c.637-.714,1.346-1.364,1.947-2.113a.958.958,0,0,1,1.27-.184c1.377.655,2.873,1.014,4.224,1.729a9.365,9.365,0,0,1,4.912,6.247,12.324,12.324,0,0,1,.254,3.354c-.032,1.091-.006,2.183,0,3.274a.041.041,0,0,0,0,.069" transform="translate(-68.266 -49.093)" fill="#0096d8"/>
        <path id="Trazado_610288" data-name="Trazado 610288" d="M168.563,39.109c1.08-.494,2.268-.62,3.385-1a33.753,33.753,0,0,0,5.536-2.429,3.541,3.541,0,0,0,.95-.515c.14-.143.438-.058.621.148q1.282,1.439,2.578,2.867a.9.9,0,0,1,.173.658c-.007,1.5.041,3-.029,4.5a9.766,9.766,0,0,1-8.088,9.117c-.148.024-.294.057-.441.086a.525.525,0,0,0-.2-.7,6.172,6.172,0,0,1-.79-.682,13.89,13.89,0,0,1-2.6-3.889,11.74,11.74,0,0,1-.95-3.45c-.141-1.56.068-3.141-.141-4.707" transform="translate(-89.43 -18.617)" fill="#f7a581"/>
        <path id="Trazado_610289" data-name="Trazado 610289" d="M173.726,19.284a4.677,4.677,0,0,0-1.489-1.161A2.848,2.848,0,0,0,169.782,18c-.732.37-1.419.811-2.135,1.205a27.472,27.472,0,0,1-9.368,3.06,28.233,28.233,0,0,1-4.121.341c-.412,0-.568-.078-.581-.538a13.038,13.038,0,0,1,2.186-7.95,7.914,7.914,0,0,1,1.505-1.646,10.221,10.221,0,0,1,14.358,1.443,9.958,9.958,0,0,1,2.1,5.372" transform="translate(-81.474 -5.395)" fill="#495065"/>
        <path id="Trazado_610290" data-name="Trazado 610290" d="M112.375,84.9c-.507.578-1.049,1.016-1.545,1.512a13.668,13.668,0,0,0-3.008,4.675.494.494,0,0,1-.549.373q-5.877,0-11.755,0c-.589,0-.807-.33-.815-.83a21.847,21.847,0,0,1,.029-3.678,12.712,12.712,0,0,1,1.363-5.026,4.724,4.724,0,0,1,2.365-2.054c.833-.308,1.669-.612,2.491-.947a.845.845,0,0,1,1.076.239c.964,1.044,1.933,2.084,2.953,3.073a7.606,7.606,0,0,0,2.772,1.811,12.469,12.469,0,0,0,2.142.8,3.866,3.866,0,0,0,.575.052c.636.006,1.272,0,1.907,0" transform="translate(-50.208 -41.821)" fill="#ec9165"/>
        <path id="Trazado_610291" data-name="Trazado 610291" d="M214.434,32.959a43.39,43.39,0,0,0,4.82-1.522,28.771,28.771,0,0,0,3.279-1.642c.308-.172.484-.181.727.1.561.647,1.161,1.261,1.747,1.888a1.128,1.128,0,0,1,.318.841,27.062,27.062,0,0,1-.132,4.783A7.665,7.665,0,0,1,222.4,42.07a8.976,8.976,0,0,1-4.213,1.833c-.033-.179.069-.406-.163-.518a3.767,3.767,0,0,1-1.065-1.048,9.912,9.912,0,0,1-2.526-6.869c0-.837,0-1.673,0-2.509" transform="translate(-113.765 -15.743)" fill="#f7a581"/>
        <path id="Trazado_610292" data-name="Trazado 610292" d="M112.7,17.408c.184-3.086,1.064-5.828,3.811-7.628a7.925,7.925,0,0,1,10.1.772,9.383,9.383,0,0,1,2.342,3.52c.079.194.231.429.049.6-.166.153-.361-.055-.531-.124a3.128,3.128,0,0,0-2.96.19,24.558,24.558,0,0,1-5.713,2.636,23.816,23.816,0,0,1-4.873.861c-.524.039-1.052.041-1.573.1s-.742-.1-.65-.632a1.736,1.736,0,0,0,0-.292" transform="translate(-59.78 -4.415)" fill="#495065"/>
        <path id="Trazado_610293" data-name="Trazado 610293" d="M219.173,15.062c-.5-.185-.809-.571-1.278-.681a3.005,3.005,0,0,0-2.309.323,26.113,26.113,0,0,1-6.11,2.734,33.788,33.788,0,0,1-5.162.9.38.38,0,0,1-.474-.383,13.354,13.354,0,0,0-.735-3.41.582.582,0,0,1,.038-.453c1.46-3.749,3.829-5.527,7.811-5.725a7.7,7.7,0,0,1,7.174,4.141,8.91,8.91,0,0,1,1.045,2.552" transform="translate(-107.739 -4.435)" fill="#495065"/>
        <path id="Trazado_610294" data-name="Trazado 610294" d="M124.669,33.017c1.476-.456,2.987-.8,4.428-1.37a26.969,26.969,0,0,0,3.868-1.894c.111-.066.184-.192.356-.136a3.471,3.471,0,0,1,1.181,1.506q0,4.271,0,8.542a1.333,1.333,0,0,1-.292.869,8.377,8.377,0,0,1-5.793,3.366.858.858,0,0,0-.325-.742,12.728,12.728,0,0,1-2.058-2.623A14.439,14.439,0,0,1,124.9,36.25c-.215-1.072.034-2.17-.231-3.234" transform="translate(-66.142 -15.705)" fill="#f7a581"/>
        <path id="Trazado_610295" data-name="Trazado 610295" d="M171.55,79.31c-.115,1.969.475,3.531,2.46,4.3.225.088.357.219.114.473-.864.9-1.707,1.815-2.563,2.721a7.019,7.019,0,0,1-9.692.235c-.976-.941-1.84-1.984-2.828-2.907-.282-.263-.082-.377.128-.42a3.3,3.3,0,0,0,1.056-.47,3.93,3.93,0,0,0,1.8-3.474c.009-.214.006-.429.014-.643,0-.032.032-.063.044-.085a20.736,20.736,0,0,0,4.328.759,16.7,16.7,0,0,0,4.518-.738c.185-.047.355-.161.559-.105q.031.175.063.352" transform="translate(-84.303 -41.882)" fill="#ec9165"/>
        <path id="Trazado_610296" data-name="Trazado 610296" d="M160.614,43.65c.209,1.566,0,3.147.141,4.707a11.738,11.738,0,0,0,.95,3.45,13.889,13.889,0,0,0,2.6,3.889,6.172,6.172,0,0,0,.79.682.525.525,0,0,1,.2.7l-.276.043-.173.012a10.084,10.084,0,0,1-8.008-2.63,9.616,9.616,0,0,1-2.714-4.216,17.326,17.326,0,0,1-.527-5.743c.015-.6.656-.432.88-.392a8.744,8.744,0,0,0,3.511-.186c.872-.192,1.759-.126,2.622-.315" transform="translate(-81.48 -23.158)" fill="#ec9165"/>
        <path id="Trazado_610297" data-name="Trazado 610297" d="M123.336,74.812a3.34,3.34,0,0,1-1.943-.308,3.464,3.464,0,0,1-1.392-1c-.619-.8-1.474-1.362-2.072-2.183-.237-.324-.213-.384.143-.561a2.962,2.962,0,0,0,1.9-2.448.889.889,0,0,1,.078-.332c.139-.269-.161-.711.178-.817.246-.077.578.182.881.22a12.031,12.031,0,0,0,4.43.12,13.572,13.572,0,0,0,1.882-.366c.269-.106.263.112.268.3a3.641,3.641,0,0,0,.141,1.257,3.064,3.064,0,0,0,1.827,2.054c.259.09.339.226.1.464-.621.618-1.23,1.248-1.832,1.884a5.466,5.466,0,0,1-4.585,1.723" transform="translate(-62.484 -35.602)" fill="#ec9165"/>
        <path id="Trazado_610298" data-name="Trazado 610298" d="M213.362,74.907a5.77,5.77,0,0,1-3.925-1.614c-.535-.537-1.084-1.061-1.618-1.6s-.5-.73.184-1.062a3.011,3.011,0,0,0,1.583-2.255c.048-.225.2-.426.172-.658-.077-.671.256-.485.679-.4a10.759,10.759,0,0,0,4.312.193,13,13,0,0,0,2.219-.418c.344-.138.3.187.29.39a3.415,3.415,0,0,0,1.385,2.942c.262.217.8.208.773.6-.019.244-.432.45-.654.687a20.814,20.814,0,0,1-2.273,2.184,6.023,6.023,0,0,1-3.128,1.014" transform="translate(-110.059 -35.577)" fill="#ec9165"/>
        <path id="Trazado_610299" data-name="Trazado 610299" d="M118.32,36.875c.265,1.064.016,2.161.231,3.234a14.439,14.439,0,0,0,1.138,4.285,12.728,12.728,0,0,0,2.058,2.623.858.858,0,0,1,.325.742,3.813,3.813,0,0,1-1.99.023,10.138,10.138,0,0,1-3.384-1.15,7.948,7.948,0,0,1-3.687-5.072,17.649,17.649,0,0,1-.308-3.791c-.01-.27.018-.437.363-.417a15.555,15.555,0,0,0,4.557-.442,3.607,3.607,0,0,1,.7-.033" transform="translate(-59.794 -19.564)" fill="#ec9165"/>
        <path id="Trazado_610300" data-name="Trazado 610300" d="M209.405,36.673c0,.836,0,1.672,0,2.509a9.912,9.912,0,0,0,2.526,6.869A3.767,3.767,0,0,0,213,47.1c.232.112.13.338.163.518a7.931,7.931,0,0,1-7.843-3.2,1.627,1.627,0,0,1-.361-1.065c.024-1.868.019-3.737,0-5.6,0-.346.038-.479.448-.522,1.184-.122,2.359-.331,3.538-.5.153-.023.307-.034.461-.051" transform="translate(-108.736 -19.457)" fill="#ec9165"/>
        <path id="Trazado_610301" data-name="Trazado 610301" d="M144.939,81.884c.372-.4.661-.735.969-1.048.691-.7,1.235-1.535,1.955-2.213.118-.111.152-.195.358-.154a14.742,14.742,0,0,1,2.084.817c.143.052.352.262.332.358-.047.223-.307.3-.509.384q-1.839.721-3.688,1.418c-.442.167-.821.535-1.5.438" transform="translate(-76.896 -41.626)" fill="#ec9165"/>
        <path id="Trazado_610302" data-name="Trazado 610302" d="M199.179,81.955,195.6,80.6c-.38-.144-.763-.281-1.143-.427-.458-.175-.53-.457-.107-.672a14.174,14.174,0,0,1,1.829-.678.3.3,0,0,1,.311.125c.857,1.027,1.81,1.967,2.684,3" transform="translate(-102.965 -41.814)" fill="#ec9165"/>
        <path id="Trazado_610303" data-name="Trazado 610303" d="M142.645,125.654c0-.079.026-.142.11-.143s.115.062.111.142h-.222" transform="translate(-75.679 -66.589)" fill="#495065"/>
        <path id="Trazado_610304" data-name="Trazado 610304" d="M185.774,79.327q-.032-.176-.063-.352c.188.088.142.216.063.352" transform="translate(-98.527 -41.9)" fill="#495065"/>
        <path id="Trazado_610305" data-name="Trazado 610305" d="M130.7,125.748a.126.126,0,0,1,.2.006l-.2-.006" transform="translate(-69.341 -66.689)" fill="#495065"/>
        <path id="Trazado_610306" data-name="Trazado 610306" d="M177.587,72.355l.173-.012a.107.107,0,0,1-.173.012" transform="translate(-94.217 -38.381)" fill="#495065"/>
        <path id="Trazado_610307" data-name="Trazado 610307" d="M129.956,125.727a.05.05,0,0,1,.083,0l-.043.028Z" transform="translate(-68.947 -66.693)" fill="#495065"/>
        <path id="Trazado_610308" data-name="Trazado 610308" d="M221.434,125.287a.049.049,0,0,1,.006-.068l.028.037Z" transform="translate(-117.474 -66.434)" fill="#495065"/>
        <path id="Trazado_610309" data-name="Trazado 610309" d="M221.5,124.044a.041.041,0,0,1,0-.069l.03.038Z" transform="translate(-117.504 -65.774)" fill="#495065"/>
        <path id="Trazado_610310" data-name="Trazado 610310" d="M31.112,220.223a1.684,1.684,0,0,1-1.13-.654q-2.386-3.4-4.786-6.783-3.027-4.268-6.065-8.527-3.9-5.479-7.79-10.96c-1.025-1.445-2.028-2.908-3.062-4.347a.851.851,0,0,1,.1-1.235,10.854,10.854,0,0,1,1.808-1.381c2.2-1.573,4.44-3.077,6.613-4.679,1.407-1.037,2.848-2.028,4.268-3.046.867-.622.927-.855,1.69.227,2.216,3.144,4.469,6.262,6.7,9.4,2.121,2.987,4.222,5.987,6.342,8.974q3.774,5.314,7.569,10.614c.509.714,1,1.438,1.542,2.129.3.378.284.606-.125.892-1.867,1.307-3.712,2.647-5.575,3.963q-3.27,2.31-6.556,4.6a4.656,4.656,0,0,1-1.542.817" transform="translate(-4.276 -94.482)" fill="#0096d8"/>
        <path id="Trazado_610311" data-name="Trazado 610311" d="M73.3,196.97c.015.554-.421.822-.738,1.057-1.478,1.092-3.015,2.105-4.515,3.169-.268.19-.363.182-.558-.095q-3.5-4.962-7.023-9.9-5.11-7.194-10.222-14.386c-1.257-1.764-2.59-3.476-3.794-5.274-.525-.784-1.127-1.509-1.627-2.309-.17-.272-.153-.492.093-.653,1.6-1.045,3.043-2.32,4.727-3.241a1.2,1.2,0,0,1,1.76.389c1.621,2.261,3.223,4.536,4.854,6.79,1.806,2.5,3.509,5.065,5.341,7.545,1.566,2.12,3.041,4.307,4.565,6.458,1.805,2.547,3.627,5.081,5.425,7.633.507.721,1.068,1.4,1.514,2.172.131.227.072.484.2.646" transform="translate(-23.72 -87.598)" fill="#f5f4f4"/>
        <path id="Trazado_610312" data-name="Trazado 610312" d="M94.952,144.527c.046.3-.111.438-.358.585-2.709,1.608-5.2,3.532-7.8,5.31-1.744,1.2-3.449,2.446-5.165,3.681a4.581,4.581,0,0,0-2,3.4,3.668,3.668,0,0,0,.529,2.23c1.406,2.326,3,4.531,4.583,6.737.631.878,1.247,1.768,1.875,2.649,1.177,1.652,2.361,3.3,3.535,4.954.638.9,1.26,1.812,1.895,2.714a.855.855,0,0,1,.1.5,32.059,32.059,0,0,0-3.607,1.764c-.458.285-.686-.036-.9-.339-.782-1.092-1.549-2.2-2.327-3.291s-1.566-2.179-2.341-3.274c-1.515-2.14-3.021-4.287-4.536-6.427-.987-1.394-1.983-2.781-2.978-4.169-1.043-1.457-2.081-2.918-3.14-4.363-.2-.271-.192-.369.1-.573,2.429-1.686,4.842-3.4,7.258-5.1,1.734-1.223,3.485-2.424,5.193-3.683a23.236,23.236,0,0,1,3.469-2.262,9.8,9.8,0,0,1,5.867-1.069,6.028,6.028,0,0,0,.755.018" transform="translate(-38.291 -76.619)" fill="#ec9165"/>
        <path id="Trazado_610313" data-name="Trazado 610313" d="M216.352,158.577c1.156-1.621,2.286-3.192,3.4-4.773q3.017-4.271,6.022-8.55.454-.645.941-1.266a4.432,4.432,0,0,1,4.444-1.6,4.558,4.558,0,0,1,3.769,3.263c.1.285.146.547-.215.664-2.165.7-3.825,2.225-5.642,3.482-3.727,2.577-7.412,5.214-11.112,7.83-.3.213-.579.46-.879.677a.854.854,0,0,1-.731.279" transform="translate(-114.784 -75.5)" fill="#ec9165"/>
      </g>
    </g>
  </g>
</svg>
