<svg xmlns="http://www.w3.org/2000/svg" xmlns:xlink="http://www.w3.org/1999/xlink" width="201" height="189" viewBox="0 0 201 189">
  <defs>
    <clipPath id="clip-path">
      <rect id="Rect치ngulo_378081" data-name="Rect치ngulo 378081" width="119.425" height="118.566" fill="none"/>
    </clipPath>
  </defs>
  <g id="Grupo_1073655" data-name="Grupo 1073655" transform="translate(-715 -16054)">
    <path id="Trazado_608379" data-name="Trazado 608379" d="M94.5,0A94.5,94.5,0,1,1,0,94.5,94.5,94.5,0,0,1,94.5,0Z" transform="translate(715 16054)" fill="#0c5e46"/>
    <rect id="Rect치ngulo_378073" data-name="Rect치ngulo 378073" width="16" height="5" transform="translate(900 16153)" fill="#0c5e46"/>
    <circle id="Elipse_1142" data-name="Elipse 1142" cx="83.5" cy="83.5" r="83.5" transform="translate(726 16065)" fill="#e1efe3"/>
    <g id="Grupo_1072864" data-name="Grupo 1072864" transform="translate(748.575 16086.695)" clip-path="url(#clip-path)">
      <path id="Trazado_610314" data-name="Trazado 610314" d="M68.935,170.473a13.326,13.326,0,0,1-2.743,1.112,3.222,3.222,0,0,0-.97.506c-.1-.144-.2-.285-.292-.431a2.219,2.219,0,0,0-2.422-1.031c-1.61.36-3.224.691-4.849.983-2.143.385-4.312.434-6.463.7-.492.06-.985.049-1.473.111a29.662,29.662,0,0,1-4.51.063c-1.491-.04-2.975-.353-4.465-.375a33.525,33.525,0,0,1-4.61-.492,33.824,33.824,0,0,1-4.621-1,43.057,43.057,0,0,1-4.62-1.546,30.719,30.719,0,0,1-5.741-3.09,25.338,25.338,0,0,1-3.006-2.316c-.744-.716-1.416-1.5-2.088-2.284a23.01,23.01,0,0,1-2.883-4.258c-.64-1.218-1.095-2.518-1.651-3.773a30.136,30.136,0,0,1-1.155-3.642c-.305-1.021-.282-2.13-.568-3.17-.292-1.065-.127-2.169-.311-3.242a16.365,16.365,0,0,1-.231-2.772c0-.037,0-.074,0-.111l-.005-.308c0-.041,0-.081,0-.122q-.011-.411-.022-.821c0-.083,0-.166,0-.249,0-.059,0-.118,0-.177l.009-.138q.014-.526.028-1.054a.1.1,0,0,0,0-.1c-.062-1.184.268-2.336.306-3.505a28.569,28.569,0,0,1,.879-5.284,37.924,37.924,0,0,1,1.108-3.919c.527-1.559,1.166-3.071,1.783-4.594a2.006,2.006,0,0,0-.776-2.691c-.052-.259.148-.425.25-.617a52.267,52.267,0,0,1,3.817-6.067c.175,0,.362-.045.515.076.543.427,1.046.177,1.554-.078a5.42,5.42,0,0,0,1.629-1.75c2.095-2.62,4.4-5.05,6.684-7.5a.984.984,0,0,1,.445-.277.308.308,0,0,0,.353-.027l19.982,0q8.659,0,17.317,0c.037.049.075.05.114,0l.419,0a.128.128,0,0,0,.219,0l2.234,0a.208.208,0,0,0,.319-.012,8.184,8.184,0,0,0,2.1-.46c.793.879,1.6,1.75,2.378,2.64.935,1.065,1.853,2.146,2.777,3.221a.581.581,0,0,1,.211.517c-.632.042-1.265.078-1.9.127a5.016,5.016,0,0,0-2.981,1.384,6.405,6.405,0,0,0-2.069,4.884.967.967,0,0,0-.081.618q-.011,27.555-.013,55.111c0,.206-.058.428.1.614q0,.308,0,.615m-23.792-18.91a.142.142,0,0,0,0,.226v.2a.142.142,0,0,0,0,.226c0,.067,0,.133,0,.2a.142.142,0,0,0,0,.226v.2a.142.142,0,0,0,0,.226c0,.066,0,.133,0,.2a.141.141,0,0,0,0,.225v.2a.14.14,0,0,0,0,.225c0,.067,0,.133,0,.2a.137.137,0,0,0,0,.225v.2a.134.134,0,0,0,0,.223q0,.314,0,.627c-.012.012-.035.026-.033.034a.482.482,0,0,0,.034.084v.405c-.227.009-.058.246-.182.315-.406.256-.834.018-1.19-.06a12.377,12.377,0,0,1-6.639-3.643,7.116,7.116,0,0,1-1.975-4.5,2.212,2.212,0,0,0-1.455-2.221,1.981,1.981,0,0,0-2.383,1.305,9.11,9.11,0,0,0,1.1,5.414c2.653,4.747,6.9,7.044,12.148,7.759.224.03.479-.014.559.288a.625.625,0,0,0,.02.567c0,.1,0,.207,0,.311a.488.488,0,0,0,.006.538c0,.105,0,.21,0,.316-.01.011-.03.024-.028.032a.449.449,0,0,0,.032.075,2,2,0,0,0,1.674,2.018,1.958,1.958,0,0,0,2.178-1.6,7.414,7.414,0,0,0,.1-2.009c0-.364.136-.509.491-.531a4.08,4.08,0,0,0,.842-.061c1.021-.275,2.046-.508,3.052-.86a14.977,14.977,0,0,0,5.453-3.194c2.72-2.566,4.311-5.6,3.935-9.465a10.764,10.764,0,0,0-1.121-3.948,13.7,13.7,0,0,0-5.536-5.56,18.249,18.249,0,0,0-6.283-2.11c-.821-.135-.827-.127-.827-.96q0-8.154,0-16.308c0-.637.039-.671.663-.545A14.852,14.852,0,0,1,53.95,118.7a10.523,10.523,0,0,1,3.978,3.52,7.05,7.05,0,0,1,1.114,3.6,2.562,2.562,0,0,0,.163.829,2.331,2.331,0,0,0,2.144,1.289,2.216,2.216,0,0,0,1.56-1.792,4.867,4.867,0,0,0-.032-.914,9.275,9.275,0,0,0-1.481-4.9,15.034,15.034,0,0,0-8.762-6.41,24.869,24.869,0,0,0-2.948-.595.6.6,0,0,1-.561-.69,8.35,8.35,0,0,0-.084-1.63,2.016,2.016,0,0,0-1.814-1.845,1.98,1.98,0,0,0-2.051,1.7c-.073.066-.1.136-.018.214q-.006.314-.012.628c-.012.012-.035.026-.033.035a.5.5,0,0,0,.032.086c0,.067,0,.135,0,.2a.971.971,0,0,0-.027.659c.008.089.015.177.023.266l-.05.153a1.027,1.027,0,0,1-.593.2,13.813,13.813,0,0,0-3.915.9,16.852,16.852,0,0,0-6.36,4.232,10.064,10.064,0,0,0-2.89,6.523,1.023,1.023,0,0,1-.007.211,5.942,5.942,0,0,0,.1,2.867,12.049,12.049,0,0,0,3.281,5.9,15.221,15.221,0,0,0,4.3,3.022,13.611,13.611,0,0,0,5.555,1.542c.223.006.484-.013.533.31a1.2,1.2,0,0,0,.025.555l.012.376c0,.047.007.095.011.142l0,.2a.145.145,0,0,0,0,.226c0,.066,0,.133,0,.2a.142.142,0,0,0,0,.225c0,.067,0,.134,0,.2a.142.142,0,0,0,0,.225v.2a.141.141,0,0,0,0,.225c0,.067,0,.133,0,.2a.141.141,0,0,0,0,.225v.2a.141.141,0,0,0,0,.225v.2a.141.141,0,0,0,0,.225v.2a.142.142,0,0,0,0,.226v.2a.142.142,0,0,0,0,.226v.2a.142.142,0,0,0,0,.226v.2a.142.142,0,0,0,0,.226v.2a.142.142,0,0,0,0,.226v.2a.142.142,0,0,0,0,.226v.2a.141.141,0,0,0,0,.225c0,.067,0,.133,0,.2a.143.143,0,0,0,0,.226c0,.067,0,.133,0,.2a.143.143,0,0,0,0,.226c0,.067,0,.133,0,.2a.143.143,0,0,0,0,.225v.2a.142.142,0,0,0,0,.225v.3c-.012.012-.035.026-.033.036a.525.525,0,0,0,.032.087c0,.066,0,.132,0,.2a.141.141,0,0,0,0,.226v.2a.141.141,0,0,0,0,.226v.2a.142.142,0,0,0,0,.226c0,.067,0,.133,0,.2a.142.142,0,0,0,0,.226v.2a.141.141,0,0,0,0,.225v.2a.141.141,0,0,0,0,.225v.2a.141.141,0,0,0,0,.225v.2a.141.141,0,0,0,0,.225v.2" transform="translate(-5.294 -57.787)" fill="#f38008"/>
      <path id="Trazado_610315" data-name="Trazado 610315" d="M36.362,43.449a.98.98,0,0,0-.445.277c-2.288,2.445-4.59,4.875-6.684,7.5a5.429,5.429,0,0,1-1.629,1.75c-.508.255-1.012.505-1.554.078-.154-.121-.341-.072-.515-.076a3.334,3.334,0,0,0-.474-.608,1.932,1.932,0,0,1,.161-2.325C26.1,48.931,27,47.831,27.889,46.73a38.36,38.36,0,0,1,3.379-3.787c.329-.311.365-.545-.035-.8A7.216,7.216,0,0,1,28.709,39.1a5.666,5.666,0,0,1-.426-2.2,6.854,6.854,0,0,1,5.346-7.166,1.892,1.892,0,0,1,.469-.041c.7,0,1.41,0,2.221,0-.733-1.072-1.42-2.059-2.09-3.058A85.317,85.317,0,0,1,28.245,16.4a36.23,36.23,0,0,1-2.668-7.163,10.227,10.227,0,0,1-.209-3.912A4.338,4.338,0,0,1,28.83,1.446a5.016,5.016,0,0,1,2.912.453,19.515,19.515,0,0,1,3.1,1.618,15.671,15.671,0,0,0,4.614,1.99,8.317,8.317,0,0,0,6.7-.773,11.906,11.906,0,0,0,1.786-1.5,11.987,11.987,0,0,1,3.4-2.268A11.115,11.115,0,0,1,57,.051a11.449,11.449,0,0,1,3.879,1.1,12.35,12.35,0,0,1,3.434,2.414,7.708,7.708,0,0,0,3.8,2.143,8.407,8.407,0,0,0,3.1.057,13.634,13.634,0,0,0,4.8-1.6,36.664,36.664,0,0,1,3.647-2.035,6.647,6.647,0,0,1,2.787-.712,3.992,3.992,0,0,1,3.492,2.021,5.615,5.615,0,0,1,.735,3.49,19.5,19.5,0,0,1-1.259,5.6,57.886,57.886,0,0,1-3.827,7.945c-1.269,2.232-2.652,4.395-4.072,6.533-.578.871-1.2,1.712-1.827,2.6a1.253,1.253,0,0,0,.7.1,6.331,6.331,0,0,1,3.967.9,6.868,6.868,0,0,1,2.885,3.28,5.719,5.719,0,0,1,.424,2.292,9.678,9.678,0,0,1-.238,2.384,6.417,6.417,0,0,1-2.776,3.678c-.391.268-.825.475-1.239.71a8.184,8.184,0,0,1-2.1.46L77,43.426l-2.233,0h-.219l-.419,0-.114,0q-8.659,0-17.317,0-9.991,0-19.982,0a.411.411,0,0,0-.353.027m25.61-18.967c0-1.576-.051-3.155.017-4.728a1.887,1.887,0,0,1,1.922-1.962A1.958,1.958,0,0,1,65.9,19.811c.016,2.072.007,4.144.008,6.216,0,1.08,0,2.16-.008,3.241,0,.24.064.509.3.465.5-.1.988.1,1.453.038a25.17,25.17,0,0,1,2.8-.079.882.882,0,0,0,.847-.59,2.925,2.925,0,0,1,.328-.59c.563-.828,1.15-1.639,1.713-2.467A84.155,84.155,0,0,0,81.387,12c.818-1.91,1.668-3.827,1.484-6-.035-.414-.165-.576-.574-.542a4.847,4.847,0,0,0-1.928.705c-.8.442-1.572.95-2.38,1.384a21.5,21.5,0,0,1-5.331,1.934,10.842,10.842,0,0,1-4.871.13A13,13,0,0,1,62.571,7.25c-.649-.5-1.151-1.175-1.822-1.669A10.466,10.466,0,0,0,57.224,4a7.382,7.382,0,0,0-4.13.437,7.885,7.885,0,0,0-3,1.987,8.253,8.253,0,0,1-.945.925A14.561,14.561,0,0,1,44.3,9.587a10.979,10.979,0,0,1-4.085.075,20.637,20.637,0,0,1-3.575-.945,16.642,16.642,0,0,1-3.851-1.826,12.807,12.807,0,0,0-2.569-1.344c-.629-.239-.851-.127-1.079.486a1.775,1.775,0,0,0-.1.931,19.65,19.65,0,0,0,.918,3.672,50.15,50.15,0,0,0,3.318,6.921c1.34,2.364,2.676,4.732,4.23,6.974,1.05,1.514,2.073,3.048,3.142,4.549a1.349,1.349,0,0,0,1.216.621c1.207-.037,2.415-.029,3.623,0,.459.01.608-.117.605-.6-.019-3.152-.009-6.3,0-9.458a1.969,1.969,0,1,1,3.93.232q.012,4.676-.006,9.351c0,.37.09.473.468.47,2.737-.017,5.475-.009,8.213-.009.924,0,1.848-.019,2.77.009.387.012.513-.077.506-.489-.027-1.575-.011-3.152-.011-4.729m-7.129,9.035H43.765c-2.805,0-5.61.013-8.415,0-2.23-.012-4.141,2.367-2.77,4.461a2.856,2.856,0,0,0,1.874,1.4,8.513,8.513,0,0,0,1.579.087q20.142,0,40.284-.011a4.375,4.375,0,0,0,.881.067,3.6,3.6,0,0,0,2.124-1.443,2.882,2.882,0,0,0-2.082-4.448,23.352,23.352,0,0,0-3.168-.1c-6.41-.022-12.819-.011-19.229-.011" transform="translate(-14.192 0)" fill="#060607"/>
      <path id="Trazado_610316" data-name="Trazado 610316" d="M149.259,122.1a6.4,6.4,0,0,1,2.07-4.884,5.014,5.014,0,0,1,2.981-1.384c.632-.049,1.265-.085,1.9-.127,4.368.01,8.736.027,13.1.029q14.545.006,29.09.008a6.32,6.32,0,0,1,5.037,1.973,5.506,5.506,0,0,1,1.476,3.68c.247,19.049.054,38.1.087,57.147a5.874,5.874,0,0,1-3.747,5.9,5.432,5.432,0,0,1-2.236.457q-21.977.02-43.954-.008a5.792,5.792,0,0,1-5.249-3.679,7.972,7.972,0,0,1-.555-2.158q0-.308,0-.615c0-.3.006-.6.006-.9q.006-26.686.01-53.373c0-.689-.011-1.379-.017-2.069m6.185,58.9a.215.215,0,0,0,.263.011c.585.012,1.171.035,1.756.035q18.987.012,37.974.018a4.055,4.055,0,0,0,1.06-.07c.816.006,1.635.058,2.447.006a2.178,2.178,0,0,0,1.843-1.173,3.686,3.686,0,0,0,.31-1.912q0-27.706.006-55.413c0-.3,0-.6-.024-.9a2.029,2.029,0,0,0-1.875-1.92c-.9-.052-1.808-.007-2.713-.005-.231-.009-.461-.028-.692-.028q-18.835,0-37.671,0c-.906,0-1.813-.017-2.717.023a2,2,0,0,0-2.1,2.144q.029,28.481,0,56.962c0,1.2.452,2.034,2.136,2.227" transform="translate(-85.618 -66.368)" fill="#060607"/>
      <path id="Trazado_610317" data-name="Trazado 610317" d="M3.973,159.723l-.028,1.053a.083.083,0,0,0-.009.138c0,.059,0,.118,0,.177a.193.193,0,0,0,0,.249q.012.411.023.821c-.01.013-.031.027-.029.038a.5.5,0,0,0,.033.085c0,.1,0,.205,0,.308-.009.011-.027.024-.026.034a.488.488,0,0,0,.029.078,16.321,16.321,0,0,0,.231,2.772c.184,1.073.018,2.178.311,3.242.286,1.04.262,2.149.568,3.17a30.12,30.12,0,0,0,1.155,3.643c.556,1.255,1.011,2.555,1.651,3.773a23.057,23.057,0,0,0,2.883,4.258c.672.786,1.344,1.568,2.088,2.284a25.349,25.349,0,0,0,3.006,2.316,30.7,30.7,0,0,0,5.741,3.09,43.191,43.191,0,0,0,4.621,1.546,33.9,33.9,0,0,0,4.62,1,33.59,33.59,0,0,0,4.611.492c1.49.022,2.974.336,4.465.375a29.606,29.606,0,0,0,4.51-.062c.487-.061.981-.051,1.473-.111,2.15-.262,4.32-.311,6.462-.7,1.625-.292,3.24-.623,4.849-.983a2.219,2.219,0,0,1,2.422,1.031c.093.146.194.287.292.431-.205.3-.085.668-.194,1a2.122,2.122,0,0,1-1.692,1.421q-2.211.513-4.451.9c-1.179.207-2.37.351-3.559.49q-2.048.24-4.1.418c-.493.044-.993.009-1.49.009-2.078,0-4.157.054-6.232-.021-1.2-.043-2.4-.167-3.6-.269-1.338-.113-2.65-.4-3.993-.469a15.677,15.677,0,0,1-1.769-.335c-1.1-.184-2.172-.469-3.251-.731q-.989-.24-1.963-.539a39.793,39.793,0,0,1-6-2.345,31.429,31.429,0,0,1-4.183-2.467,29.444,29.444,0,0,1-5.818-5.337,28.248,28.248,0,0,1-4.089-6.655,38.933,38.933,0,0,1-1.85-5.185,39.357,39.357,0,0,1-1.036-4.875c-.24-1.657-.4-3.316-.533-4.982a47.714,47.714,0,0,1-.054-5.981,39.948,39.948,0,0,1,.674-5.523c.211-1.14.423-2.283.7-3.4a45.78,45.78,0,0,1,3.133-8.795,1.943,1.943,0,0,1,2.7-.976,2.007,2.007,0,0,1,.776,2.692c-.617,1.523-1.256,3.035-1.783,4.593a37.931,37.931,0,0,0-1.108,3.92,28.521,28.521,0,0,0-.88,5.284c-.037,1.17-.368,2.322-.305,3.505-.009.009-.026.02-.025.028a.413.413,0,0,0,.023.07" transform="translate(0 -79.974)" fill="#060607"/>
      <path id="Trazado_610318" data-name="Trazado 610318" d="M74.689,165.437c0-.067,0-.133,0-.2v-.225c0-.067,0-.133,0-.2s0-.15,0-.225,0-.133,0-.2v-.651c0-.066,0-.133,0-.2V160.76c0-.066,0-.133,0-.2v-.85c0-.075,0-.151,0-.226s0-.132,0-.2c0-.041,0-.082,0-.123v-.3c0-.075,0-.15,0-.225v-.2c0-.075,0-.15,0-.225s0-.133,0-.2,0-.151,0-.226,0-.133,0-.2v-.226c0-.066,0-.133,0-.2v-4.052c0-.067,0-.133,0-.2s0-.15,0-.225v-.2c0-.075,0-.15,0-.225s0-.133,0-.2,0-.15,0-.225,0-.133,0-.2v-.226l0-.2c0-.047-.007-.094-.012-.142q-.005-.188-.011-.376a.561.561,0,0,0-.025-.555c-.049-.322-.309-.3-.533-.31a13.618,13.618,0,0,1-5.555-1.542,15.229,15.229,0,0,1-4.3-3.022,12.051,12.051,0,0,1-3.281-5.9,5.942,5.942,0,0,1-.1-2.867,1.023,1.023,0,0,0,.007-.211,10.064,10.064,0,0,1,2.89-6.523,16.852,16.852,0,0,1,6.36-4.232,13.812,13.812,0,0,1,3.915-.9,1.027,1.027,0,0,0,.593-.2c.1-.026.108-.078.05-.153q-.011-.132-.023-.265a.964.964,0,0,0,.027-.66c0-.067,0-.135,0-.2,0-.04,0-.081,0-.121q.006-.313.012-.628l.018-.214a1.98,1.98,0,0,1,2.051-1.7,2.016,2.016,0,0,1,1.814,1.844,8.356,8.356,0,0,1,.084,1.631.6.6,0,0,0,.561.69,24.78,24.78,0,0,1,2.948.595,15.034,15.034,0,0,1,8.762,6.41,9.275,9.275,0,0,1,1.481,4.9,4.866,4.866,0,0,1,.032.914,2.215,2.215,0,0,1-1.56,1.792,2.33,2.33,0,0,1-2.144-1.289,2.565,2.565,0,0,1-.163-.829,7.05,7.05,0,0,0-1.114-3.6,10.523,10.523,0,0,0-3.978-3.52,14.852,14.852,0,0,0-4.153-1.422c-.623-.126-.663-.092-.663.545q0,8.155,0,16.309c0,.833.006.825.827.96a18.249,18.249,0,0,1,6.283,2.11,13.7,13.7,0,0,1,5.535,5.56,10.757,10.757,0,0,1,1.122,3.948c.376,3.869-1.215,6.9-3.935,9.465a14.976,14.976,0,0,1-5.453,3.194c-1.005.352-2.031.585-3.052.86a4.079,4.079,0,0,1-.842.061c-.354.022-.489.167-.491.531a7.414,7.414,0,0,1-.1,2.009,1.958,1.958,0,0,1-2.178,1.6,2,2,0,0,1-1.674-2.018c0-.036,0-.071,0-.107q0-.158,0-.316a1.073,1.073,0,0,0-.006-.538c0-.1,0-.207,0-.311a.9.9,0,0,0-.02-.567c-.08-.3-.336-.258-.559-.288-5.251-.715-9.495-3.012-12.148-7.759a9.11,9.11,0,0,1-1.1-5.415,1.982,1.982,0,0,1,2.383-1.3,2.212,2.212,0,0,1,1.455,2.221,7.116,7.116,0,0,0,1.975,4.5,12.377,12.377,0,0,0,6.639,3.643c.356.078.785.316,1.19.059.291.028.21-.159.182-.315v-.405c0-.039,0-.078,0-.118q0-.313,0-.627v-.424c0-.075,0-.15,0-.225m-.006-28.91v-4.251c0-.067,0-.133,0-.2v-.425c0-.075,0-.15,0-.225s0-.134,0-.2,0-.149,0-.224,0-.134,0-.2,0-.15,0-.224v-.2c0-.075,0-.151,0-.226l-.005-.2c.009-.015.027-.033.025-.045a.61.61,0,0,0-.036-.095l-.009-.273a.18.18,0,0,0,0-.252v-.174a.078.078,0,0,0,0-.138q0-.155-.009-.311c.038-.13-.05-.1-.121-.1a3.041,3.041,0,0,0-1,.1,12.48,12.48,0,0,0-6.918,3.768,6.961,6.961,0,0,0-1.859,5.678c.369,2.767,2.186,4.63,4.43,6.061a13.152,13.152,0,0,0,4.978,1.8c.165.027.352.1.5-.065a.3.3,0,0,0,.046-.344c0-.139,0-.277,0-.416,0-.039,0-.078,0-.116q0-.314,0-.628v-.223c0-.067,0-.134,0-.2s0-.15,0-.224v-.425c0-.067,0-.134,0-.2s0-.15,0-.225,0-.133,0-.2v-.65c0-.067,0-.133,0-.2v-5.326m3.988,22.413h0c0,2.743.006,5.487-.007,8.23,0,.375.058.569.495.49a12.567,12.567,0,0,0,7.072-3.543,7.637,7.637,0,0,0,2.361-5.5,6.1,6.1,0,0,0-.38-1.584c-.787-2.841-2.985-4.4-5.388-5.653a13.492,13.492,0,0,0-3.568-1.07c-.49-.1-.589,0-.588.456.012,2.726.006,5.451.006,8.177" transform="translate(-34.835 -69.11)" fill="#060607"/>
      <path id="Trazado_610319" data-name="Trazado 610319" d="M149.119,130.7c.006.689.017,1.379.017,2.069q0,26.686-.01,53.373c0,.3,0,.6-.006.9-.154-.185-.1-.408-.1-.614q0-27.555.014-55.111a.964.964,0,0,1,.081-.618" transform="translate(-85.477 -74.971)" fill="#903e21"/>
      <path id="Trazado_610320" data-name="Trazado 610320" d="M93.366,127.21a.965.965,0,0,1-.027.66.969.969,0,0,1,.027-.66" transform="translate(-53.516 -72.97)" fill="#903e21"/>
      <path id="Trazado_610321" data-name="Trazado 610321" d="M93.305,190.03a.559.559,0,0,1,.025.555,1.2,1.2,0,0,1-.025-.555" transform="translate(-53.51 -109.005)" fill="#903e21"/>
      <path id="Trazado_610322" data-name="Trazado 610322" d="M93.247,230.135c.027.156.108.343-.182.315.124-.068-.045-.306.182-.315" transform="translate(-53.383 -132.01)" fill="#903e21"/>
      <path id="Trazado_610323" data-name="Trazado 610323" d="M93.368,241.063a.9.9,0,0,1,.02.567.622.622,0,0,1-.02-.567" transform="translate(-53.524 -138.278)" fill="#903e21"/>
      <path id="Trazado_610324" data-name="Trazado 610324" d="M93.4,243.122a1.073,1.073,0,0,1,.006.538.489.489,0,0,1-.006-.538" transform="translate(-53.529 -139.459)" fill="#903e21"/>
      <path id="Trazado_610325" data-name="Trazado 610325" d="M147.3,101.833l.318-.012a.208.208,0,0,1-.318.012" transform="translate(-84.496 -58.406)" fill="#903e21"/>
      <path id="Trazado_610326" data-name="Trazado 610326" d="M52,101.829a.41.41,0,0,1,.353-.027.307.307,0,0,1-.353.027" transform="translate(-29.827 -58.38)" fill="#903e21"/>
      <path id="Trazado_610327" data-name="Trazado 610327" d="M93.383,215.945v.226a.142.142,0,0,1,0-.226" transform="translate(-53.534 -123.87)" fill="#903e21"/>
      <path id="Trazado_610328" data-name="Trazado 610328" d="M141.553,101.838h.218a.128.128,0,0,1-.218,0" transform="translate(-81.197 -58.416)" fill="#903e21"/>
      <path id="Trazado_610329" data-name="Trazado 610329" d="M93.443,124.477c-.006.072-.012.143-.018.214-.082-.079-.055-.149.018-.214" transform="translate(-53.561 -71.402)" fill="#903e21"/>
      <path id="Trazado_610330" data-name="Trazado 610330" d="M9.17,190.5a.193.193,0,0,1,0-.249c0,.083,0,.166,0,.249" transform="translate(-5.235 -109.129)" fill="#903e21"/>
      <path id="Trazado_610331" data-name="Trazado 610331" d="M93.382,193.01v.226a.144.144,0,0,1,0-.226" transform="translate(-53.534 -110.714)" fill="#903e21"/>
      <path id="Trazado_610332" data-name="Trazado 610332" d="M93.381,194.009c0,.075,0,.15,0,.225a.142.142,0,0,1,0-.225" transform="translate(-53.534 -111.287)" fill="#903e21"/>
      <path id="Trazado_610333" data-name="Trazado 610333" d="M93.383,195.007c0,.075,0,.15,0,.225a.141.141,0,0,1,0-.225" transform="translate(-53.534 -111.86)" fill="#903e21"/>
      <path id="Trazado_610334" data-name="Trazado 610334" d="M93.384,196v.226a.142.142,0,0,1,0-.226" transform="translate(-53.535 -112.431)" fill="#903e21"/>
      <path id="Trazado_610335" data-name="Trazado 610335" d="M93.384,197v.226a.142.142,0,0,1,0-.226" transform="translate(-53.535 -113.003)" fill="#903e21"/>
      <path id="Trazado_610336" data-name="Trazado 610336" d="M93.384,198v.226a.142.142,0,0,1,0-.226" transform="translate(-53.535 -113.575)" fill="#903e21"/>
      <path id="Trazado_610337" data-name="Trazado 610337" d="M93.383,198.994v.226a.142.142,0,0,1,0-.226" transform="translate(-53.534 -114.147)" fill="#903e21"/>
      <path id="Trazado_610338" data-name="Trazado 610338" d="M93.383,199.991v.226a.142.142,0,0,1,0-.226" transform="translate(-53.534 -114.719)" fill="#903e21"/>
      <path id="Trazado_610339" data-name="Trazado 610339" d="M93.383,200.988v.226a.142.142,0,0,1,0-.226" transform="translate(-53.534 -115.29)" fill="#903e21"/>
      <path id="Trazado_610340" data-name="Trazado 610340" d="M93.383,201.985v.226a.142.142,0,0,1,0-.226" transform="translate(-53.534 -115.862)" fill="#903e21"/>
      <path id="Trazado_610341" data-name="Trazado 610341" d="M93.383,202.983v.226a.142.142,0,0,1,0-.226" transform="translate(-53.534 -116.435)" fill="#903e21"/>
      <path id="Trazado_610342" data-name="Trazado 610342" d="M93.383,203.98v.226a.142.142,0,0,1,0-.226" transform="translate(-53.534 -117.007)" fill="#903e21"/>
      <path id="Trazado_610343" data-name="Trazado 610343" d="M93.383,204.977v.226a.142.142,0,0,1,0-.226" transform="translate(-53.534 -117.579)" fill="#903e21"/>
      <path id="Trazado_610344" data-name="Trazado 610344" d="M93.383,205.974v.226a.142.142,0,0,1,0-.226" transform="translate(-53.534 -118.15)" fill="#903e21"/>
      <path id="Trazado_610345" data-name="Trazado 610345" d="M93.383,206.971c0,.075,0,.151,0,.226a.142.142,0,0,1,0-.226" transform="translate(-53.534 -118.722)" fill="#903e21"/>
      <path id="Trazado_610346" data-name="Trazado 610346" d="M93.381,207.968c0,.075,0,.15,0,.226a.143.143,0,0,1,0-.226" transform="translate(-53.534 -119.294)" fill="#903e21"/>
      <path id="Trazado_610347" data-name="Trazado 610347" d="M93.379,208.965c0,.075,0,.15,0,.226a.144.144,0,0,1,0-.226" transform="translate(-53.533 -119.866)" fill="#903e21"/>
      <path id="Trazado_610348" data-name="Trazado 610348" d="M93.382,209.963c0,.075,0,.15,0,.225a.142.142,0,0,1,0-.225" transform="translate(-53.535 -120.439)" fill="#903e21"/>
      <path id="Trazado_610349" data-name="Trazado 610349" d="M93.385,211.957c0,.075,0,.15,0,.225a.141.141,0,0,1,0-.225" transform="translate(-53.535 -121.582)" fill="#903e21"/>
      <path id="Trazado_610350" data-name="Trazado 610350" d="M93.383,212.954v.226a.141.141,0,0,1,0-.226" transform="translate(-53.534 -122.154)" fill="#903e21"/>
      <path id="Trazado_610351" data-name="Trazado 610351" d="M93.384,213.95v.226a.142.142,0,0,1,0-.226" transform="translate(-53.535 -122.726)" fill="#903e21"/>
      <path id="Trazado_610352" data-name="Trazado 610352" d="M93.384,214.948v.226a.142.142,0,0,1,0-.226" transform="translate(-53.535 -123.298)" fill="#903e21"/>
      <path id="Trazado_610353" data-name="Trazado 610353" d="M93.383,216.942v.226a.142.142,0,0,1,0-.226" transform="translate(-53.534 -124.442)" fill="#903e21"/>
      <path id="Trazado_610354" data-name="Trazado 610354" d="M93.383,217.939v.226a.142.142,0,0,1,0-.226" transform="translate(-53.534 -125.014)" fill="#903e21"/>
      <path id="Trazado_610355" data-name="Trazado 610355" d="M93.383,218.936v.226a.142.142,0,0,1,0-.226" transform="translate(-53.534 -125.586)" fill="#903e21"/>
      <path id="Trazado_610356" data-name="Trazado 610356" d="M93.383,219.933v.226a.142.142,0,0,1,0-.226" transform="translate(-53.534 -126.158)" fill="#903e21"/>
      <path id="Trazado_610357" data-name="Trazado 610357" d="M93.383,220.93v.226a.142.142,0,0,1,0-.226" transform="translate(-53.534 -126.729)" fill="#903e21"/>
      <path id="Trazado_610358" data-name="Trazado 610358" d="M93.384,221.927v.226a.142.142,0,0,1,0-.226" transform="translate(-53.535 -127.301)" fill="#903e21"/>
      <path id="Trazado_610359" data-name="Trazado 610359" d="M93.384,222.925v.225a.141.141,0,0,1,0-.225" transform="translate(-53.535 -127.874)" fill="#903e21"/>
      <path id="Trazado_610360" data-name="Trazado 610360" d="M93.385,223.922c0,.075,0,.15,0,.225a.141.141,0,0,1,0-.225" transform="translate(-53.535 -128.446)" fill="#903e21"/>
      <path id="Trazado_610361" data-name="Trazado 610361" d="M93.387,224.919v.225a.14.14,0,0,1,0-.225" transform="translate(-53.536 -129.018)" fill="#903e21"/>
      <path id="Trazado_610362" data-name="Trazado 610362" d="M93.394,225.916c0,.075,0,.15,0,.225a.137.137,0,0,1,0-.225" transform="translate(-53.54 -129.59)" fill="#903e21"/>
      <path id="Trazado_610363" data-name="Trazado 610363" d="M93.4,226.915v.223a.134.134,0,0,1,0-.223" transform="translate(-53.543 -130.163)" fill="#903e21"/>
      <path id="Trazado_610364" data-name="Trazado 610364" d="M93.418,211.2c0,.041,0,.082,0,.123a.528.528,0,0,1-.033-.087c0-.009.022-.024.033-.036" transform="translate(-53.567 -121.15)" fill="#903e21"/>
      <path id="Trazado_610365" data-name="Trazado 610365" d="M93.443,228.91c0,.039,0,.078,0,.118a.486.486,0,0,1-.034-.084c0-.008.021-.022.033-.034" transform="translate(-53.582 -131.307)" fill="#903e21"/>
      <path id="Trazado_610366" data-name="Trazado 610366" d="M9.273,193.875a.437.437,0,0,1-.029-.078c0-.009.017-.022.026-.034,0,.037,0,.074,0,.111" transform="translate(-5.302 -111.147)" fill="#903e21"/>
      <path id="Trazado_610367" data-name="Trazado 610367" d="M9.248,192.877a.5.5,0,0,1-.033-.085c0-.01.018-.025.029-.037,0,.041,0,.081,0,.122" transform="translate(-5.286 -110.568)" fill="#903e21"/>
      <path id="Trazado_610368" data-name="Trazado 610368" d="M93.488,245.122c0,.036,0,.072,0,.107a.458.458,0,0,1-.032-.075c0-.008.018-.021.028-.032" transform="translate(-53.61 -140.607)" fill="#903e21"/>
      <path id="Trazado_610369" data-name="Trazado 610369" d="M93.418,192.214l.011.142-.011-.142" transform="translate(-53.586 -110.257)" fill="#903e21"/>
      <path id="Trazado_610370" data-name="Trazado 610370" d="M93.385,129.379c.058.075.045.127-.05.153l.05-.153" transform="translate(-53.539 -74.214)" fill="#903e21"/>
      <path id="Trazado_610371" data-name="Trazado 610371" d="M93.419,126.453c0,.04,0,.081,0,.121a.5.5,0,0,1-.032-.087c0-.009.021-.023.033-.035" transform="translate(-53.568 -72.536)" fill="#903e21"/>
      <path id="Trazado_610372" data-name="Trazado 610372" d="M140.3,101.837l.114,0c-.039.048-.077.046-.114,0" transform="translate(-80.48 -58.416)" fill="#903e21"/>
      <path id="Trazado_610373" data-name="Trazado 610373" d="M9.187,189.645a.083.083,0,0,1,.009-.138c0,.046-.006.092-.009.138" transform="translate(-5.251 -108.705)" fill="#903e21"/>
      <path id="Trazado_610374" data-name="Trazado 610374" d="M9.288,186.906a.412.412,0,0,1-.023-.07c0-.008.016-.019.025-.028a.1.1,0,0,1,0,.1" transform="translate(-5.315 -107.157)" fill="#903e21"/>
      <path id="Trazado_610375" data-name="Trazado 610375" d="M67.736,29.65c0,1.576-.016,3.153.011,4.729.007.411-.119.5-.506.488-.923-.028-1.847-.009-2.77-.009-2.737,0-5.475-.008-8.213.009-.377,0-.469-.1-.467-.47q.022-4.675.006-9.351a1.969,1.969,0,1,0-3.931-.232c-.012,3.153-.021,6.305,0,9.458,0,.48-.145.607-.6.6-1.208-.026-2.416-.035-3.623,0a1.348,1.348,0,0,1-1.215-.621c-1.069-1.5-2.093-3.035-3.142-4.549-1.554-2.241-2.889-4.61-4.229-6.974a50.221,50.221,0,0,1-3.319-6.921,19.662,19.662,0,0,1-.918-3.673,1.775,1.775,0,0,1,.1-.931c.228-.612.449-.724,1.078-.486a12.833,12.833,0,0,1,2.57,1.344,16.645,16.645,0,0,0,3.85,1.826,20.637,20.637,0,0,0,3.576.945,10.976,10.976,0,0,0,4.085-.075,14.549,14.549,0,0,0,4.844-2.243,8.253,8.253,0,0,0,.945-.925,7.885,7.885,0,0,1,3-1.987,7.384,7.384,0,0,1,4.131-.437,10.468,10.468,0,0,1,3.525,1.586c.671.494,1.173,1.167,1.822,1.669a13,13,0,0,0,5.216,2.357,10.842,10.842,0,0,0,4.871-.13,21.487,21.487,0,0,0,5.331-1.934c.808-.434,1.575-.942,2.38-1.384a4.847,4.847,0,0,1,1.928-.705c.409-.034.539.128.574.542.183,2.171-.666,4.089-1.484,6A84.156,84.156,0,0,1,79.1,31.212c-.562.828-1.15,1.639-1.713,2.467a2.923,2.923,0,0,0-.327.59.882.882,0,0,1-.847.59,25.271,25.271,0,0,0-2.8.079c-.465.067-.952-.133-1.453-.038-.232.044-.3-.225-.3-.465.011-1.08.008-2.16.008-3.24,0-2.072.009-4.144-.008-6.216a1.958,1.958,0,0,0-1.987-2.019,1.887,1.887,0,0,0-1.922,1.962c-.067,1.573-.017,3.152-.017,4.728" transform="translate(-19.955 -5.168)" fill="#f38008"/>
      <path id="Trazado_610376" data-name="Trazado 610376" d="M64.768,78.607c6.409,0,12.819-.011,19.229.011a23.283,23.283,0,0,1,3.168.1,2.882,2.882,0,0,1,2.082,4.448,3.608,3.608,0,0,1-2.124,1.443,4.409,4.409,0,0,1-.881-.067q-20.143.011-40.284.012a8.512,8.512,0,0,1-1.579-.087,2.859,2.859,0,0,1-1.874-1.4c-1.37-2.095.54-4.474,2.77-4.462,2.805.015,5.61,0,8.416,0H64.768" transform="translate(-24.116 -45.089)" fill="#903e21"/>
      <path id="Trazado_610377" data-name="Trazado 610377" d="M201.942,186.284a4.049,4.049,0,0,1-1.059.07q-18.987-.006-37.974-.018c-.585,0-1.171-.023-1.756-.035l-.263-.011c-1.685-.193-2.137-1.029-2.136-2.227q.031-28.481,0-56.962a2,2,0,0,1,2.1-2.144c.9-.04,1.811-.023,2.717-.023q18.835,0,37.671,0c.231,0,.461.018.692.028a3.172,3.172,0,0,1,.437,1,15.869,15.869,0,0,1,.2,2.258q.009,11.273,0,22.546c0,.814-.007,1.627.007,2.44,0,.26-.052.451-.316.537a2.337,2.337,0,0,0-2.237-1.049c-.709.025-1.421-.005-2.131.006a34.075,34.075,0,0,0-3.831.089,1.937,1.937,0,0,0-1.426,2.276,2.137,2.137,0,0,0,2.154,1.551c1.722,0,3.445-.018,5.166.008a2.6,2.6,0,0,0,2.4-1.182.92.92,0,0,1,.078.2,50.139,50.139,0,0,1,.133,5.716c.008.223-.145.255-.317.263a2.913,2.913,0,0,0-2.716-1.181c-1.418.032-2.838.015-4.256,0a3.075,3.075,0,0,0-1.838.549,2.033,2.033,0,0,0-.865,1.963,2.2,2.2,0,0,0,1.9,1.517c1.915.011,3.831,0,5.745.019a2.287,2.287,0,0,0,1.509-.508c.206-.163.266-.454.527-.56a1.371,1.371,0,0,1,.3,1.121c.033,1.5.016,3,.014,4.5,0,.187.047.408-.237.452-.226.01-.264-.208-.386-.322a1.7,1.7,0,0,0-1.123-.643c-2.147-.008-4.3-.023-6.442.011a2,2,0,0,0-1.828,1.876,1.935,1.935,0,0,0,1.855,1.932c1.934.031,3.869-.015,5.8.024a2.286,2.286,0,0,0,1.95-.868c.5.068.388.5.393.777.028,1.539.015,3.079.013,4.619,0,.231,0,.472-.3.549a2.515,2.515,0,0,0-2.323-1.111c-1.718.015-3.436.009-5.154.012-.04-.048-.075-.04-.107.008a2.462,2.462,0,0,0-1.105.35,1.827,1.827,0,0,0-.243,3.131,2.05,2.05,0,0,0,1.372.487c1.758-.012,3.517-.032,5.274.008a2.5,2.5,0,0,0,2.352-1.141,4.226,4.226,0,0,1,.227,1.343c.09,1.428-.111,2.852-.107,4.281a1.662,1.662,0,0,1-.362,1.03.636.636,0,0,0-.158.433m-15.668-13.906c.038.049.073.044.107,0,.053,0,.106-.012.159-.014a1.874,1.874,0,0,0,1.977-2.1,1.947,1.947,0,0,0-2.04-1.73q-2.874,0-5.747,0a1.874,1.874,0,0,0-2.024,1.859,1.909,1.909,0,0,0,1.929,1.969c1.879.033,3.759.018,5.639.023m-3.657-25.653v0q6.792,0,13.585,0a4.059,4.059,0,0,0,4.309-4.148c.054-2.478.027-4.958.008-7.437a4.069,4.069,0,0,0-4.205-4.237q-13.718-.017-27.436.006a3.914,3.914,0,0,0-3.62,2.094c-.115.206-.51.258-.4.462.167.318,0,.574-.016.847-.156,2.8-.048,5.594-.049,8.391a3.486,3.486,0,0,0,.264,1.583,4.168,4.168,0,0,0,4.032,2.438q6.766.008,13.532,0m.964,17.757v0c1.028,0,2.057-.014,3.085,0a2.076,2.076,0,0,0,1.862-1.589,2.207,2.207,0,0,0-2.192-2.424c-1.789-.069-3.583-.047-5.372,0a2.257,2.257,0,0,0-2.082,1.258,1.9,1.9,0,0,0,1.773,2.745c.974.032,1.951.006,2.926.006m-13.848.008v0c.9,0,1.808.009,2.712-.005a2.545,2.545,0,0,0,.836-.116,1.908,1.908,0,0,0,1.237-2.488,2.574,2.574,0,0,0-2.458-1.424c-1.613-.019-3.226,0-4.839-.007a3.026,3.026,0,0,0-1.889.737,1.092,1.092,0,0,0-.46.611,2.01,2.01,0,0,0,2.15,2.693c.9.017,1.808,0,2.712,0m-.023,11.885v.012c-1.011,0-2.027-.053-3.034.014a1.83,1.83,0,0,0-1.842,2.038,1.782,1.782,0,0,0,1.777,1.867c2.041.042,4.084.015,6.126.009a2.147,2.147,0,0,0,1.931-2.141,2.194,2.194,0,0,0-1.976-1.786c-.991-.053-1.987-.012-2.981-.012m13.83,3.943v.009h1.436c.479,0,.958.005,1.436,0a2.007,2.007,0,0,0,2.1-1.752,1.98,1.98,0,0,0-1.987-2.2c-.9-.05-1.806-.041-2.71-.038-1.046,0-2.093,0-3.136.056a1.98,1.98,0,0,0-1.972,2.017,2.02,2.02,0,0,0,2.119,1.907c.9.006,1.808,0,2.712,0m-13.842-23.7c.87,0,1.74-.011,2.609,0a2.661,2.661,0,0,0,1.46-.418,1.931,1.931,0,0,0,.869-1.91,1.969,1.969,0,0,0-1.59-1.51,49.952,49.952,0,0,0-6.646,0,1.711,1.711,0,0,0-1.538,1.325,1.884,1.884,0,0,0,.854,2.159,2.593,2.593,0,0,0,1.319.354c.887-.009,1.775,0,2.663,0m13.907,0c.941,0,1.882.013,2.822,0a2.024,2.024,0,0,0,2.085-1.958c-.019-1.125-.565-1.743-1.827-1.857a41.839,41.839,0,0,0-6.583-.005,1.179,1.179,0,0,0-.831.428,1.921,1.921,0,0,0-.391,2.162,2.063,2.063,0,0,0,1.955,1.227c.922.028,1.846.006,2.769.006M169.7,172.361v-.007c1.029,0,2.059.012,3.088,0a1.956,1.956,0,0,0,1.872-1.874,2,2,0,0,0-1.867-1.944q-3.062-.022-6.124,0a1.8,1.8,0,0,0-1.839,1.857,1.827,1.827,0,0,0,1.781,1.965c1.028.034,2.058.007,3.087.007" transform="translate(-91.064 -71.662)" fill="#0a93d5"/>
      <path id="Trazado_610378" data-name="Trazado 610378" d="M260.353,161.641c.172-.008.325-.04.317-.263a50.143,50.143,0,0,0-.132-5.716.924.924,0,0,0-.078-.2,2.708,2.708,0,0,0-.1-1.7c.264-.087.32-.278.316-.537-.014-.813-.007-1.627-.007-2.44q0-11.273,0-22.546a15.939,15.939,0,0,0-.2-2.258,3.173,3.173,0,0,0-.437-1c.9,0,1.811-.047,2.713,0a2.029,2.029,0,0,1,1.875,1.92c.028.3.024.6.024.9q0,27.706-.005,55.413a3.688,3.688,0,0,1-.31,1.912,2.179,2.179,0,0,1-1.843,1.173c-.813.052-1.632,0-2.448-.006a.637.637,0,0,1,.158-.433,1.661,1.661,0,0,0,.362-1.03c0-1.428.2-2.852.107-4.281a4.225,4.225,0,0,0-.227-1.342,2.6,2.6,0,0,0-.064-1.745c.3-.077.3-.318.3-.549,0-1.54.015-3.08-.012-4.619-.005-.28.109-.709-.393-.777a3.161,3.161,0,0,0,.171-2.009c.284-.044.236-.266.237-.452,0-1.5.019-3-.014-4.5a1.371,1.371,0,0,0-.3-1.122,3.426,3.426,0,0,0,0-1.8" transform="translate(-149.159 -71.681)" fill="#0065b0"/>
      <path id="Trazado_610379" data-name="Trazado 610379" d="M163.765,268.837l.263.011a.215.215,0,0,1-.263-.011" transform="translate(-93.939 -154.21)" fill="#0065b0"/>
      <path id="Trazado_610380" data-name="Trazado 610380" d="M80,141.238c0,.067,0,.134,0,.2a.141.141,0,0,0,0,.224v.2a.14.14,0,0,0,0,.224v.2a.141.141,0,0,0,0,.225c0,.067,0,.133,0,.2a.141.141,0,0,0,0,.225v.2a.141.141,0,0,0,0,.225v.2a.141.141,0,0,0,0,.225v.2a.141.141,0,0,0,0,.225v.2a.141.141,0,0,0,0,.225v.2a.141.141,0,0,0,0,.225v.2a.141.141,0,0,0,0,.225v.2a.141.141,0,0,0,0,.225v.2a.141.141,0,0,0,0,.225v.2a.141.141,0,0,0,0,.225v.2a.141.141,0,0,0,0,.225v.2a.141.141,0,0,0,0,.225v.2a.141.141,0,0,0,0,.225v.2a.141.141,0,0,0,0,.225v.2a.141.141,0,0,0,0,.225v.2a.141.141,0,0,0,0,.225v.2a.141.141,0,0,0,0,.225v.2a.141.141,0,0,0,0,.225v.2a.141.141,0,0,0,0,.225v.2a.141.141,0,0,0,0,.225v.2a.141.141,0,0,0,0,.225v.2a.141.141,0,0,0,0,.225v.2a.141.141,0,0,0,0,.225v.2a.141.141,0,0,0,0,.225v.2a.141.141,0,0,0,0,.225v.2a.141.141,0,0,0,0,.225c0,.067,0,.133,0,.2a.14.14,0,0,0,0,.225c0,.067,0,.133,0,.2a.139.139,0,0,0,0,.225v.2a.137.137,0,0,0,0,.224v.2a.134.134,0,0,0,0,.223q0,.313,0,.627c-.012.012-.035.026-.033.034a.513.513,0,0,0,.035.082q0,.208,0,.416a.354.354,0,0,0-.046.344c-.148.162-.334.092-.5.065a13.152,13.152,0,0,1-4.979-1.8c-2.244-1.431-4.061-3.293-4.43-6.06a6.961,6.961,0,0,1,1.859-5.678,12.477,12.477,0,0,1,6.918-3.768,3.027,3.027,0,0,1,1-.1l.121.1c0,.1.006.207.009.311,0,.046,0,.092,0,.138v.174c0,.084,0,.168,0,.252l.009.273c-.009.015-.026.033-.023.046a.609.609,0,0,0,.035.094l.005.2a.144.144,0,0,0,0,.226" transform="translate(-40.154 -79.973)" fill="#f38008"/>
      <path id="Trazado_610381" data-name="Trazado 610381" d="M102.8,199.019c0-2.726.006-5.451-.006-8.177,0-.456.1-.554.588-.456a13.493,13.493,0,0,1,3.568,1.07c2.4,1.251,4.6,2.813,5.388,5.653a6.1,6.1,0,0,1,.38,1.584,7.637,7.637,0,0,1-2.361,5.5,12.567,12.567,0,0,1-7.072,3.543c-.437.078-.5-.115-.495-.49.013-2.743.007-5.487.007-8.23Z" transform="translate(-58.959 -109.189)" fill="#f38008"/>
      <path id="Trazado_610382" data-name="Trazado 610382" d="M93.354,179.65a.355.355,0,0,1,.046-.344.3.3,0,0,1-.046.344" transform="translate(-53.537 -102.853)" fill="#903e21"/>
      <path id="Trazado_610383" data-name="Trazado 610383" d="M93.383,155.348a.141.141,0,0,1,0-.225v.225" transform="translate(-53.534 -88.981)" fill="#903e21"/>
      <path id="Trazado_610384" data-name="Trazado 610384" d="M93.384,145.377a.14.14,0,0,1,0-.224c0,.075,0,.149,0,.224" transform="translate(-53.535 -83.262)" fill="#903e21"/>
      <path id="Trazado_610385" data-name="Trazado 610385" d="M93.383,158.339a.141.141,0,0,1,0-.225v.225" transform="translate(-53.534 -90.697)" fill="#903e21"/>
      <path id="Trazado_610386" data-name="Trazado 610386" d="M93.383,159.336a.141.141,0,0,1,0-.225v.225" transform="translate(-53.534 -91.269)" fill="#903e21"/>
      <path id="Trazado_610387" data-name="Trazado 610387" d="M93.383,160.333a.141.141,0,0,1,0-.225v.225" transform="translate(-53.534 -91.841)" fill="#903e21"/>
      <path id="Trazado_610388" data-name="Trazado 610388" d="M93.383,161.33a.141.141,0,0,1,0-.225v.225" transform="translate(-53.534 -92.413)" fill="#903e21"/>
      <path id="Trazado_610389" data-name="Trazado 610389" d="M93.383,162.328a.141.141,0,0,1,0-.225v.225" transform="translate(-53.534 -92.985)" fill="#903e21"/>
      <path id="Trazado_610390" data-name="Trazado 610390" d="M93.383,163.325a.141.141,0,0,1,0-.225v.225" transform="translate(-53.534 -93.557)" fill="#903e21"/>
      <path id="Trazado_610391" data-name="Trazado 610391" d="M93.383,164.322a.141.141,0,0,1,0-.225v.225" transform="translate(-53.534 -94.129)" fill="#903e21"/>
      <path id="Trazado_610392" data-name="Trazado 610392" d="M93.383,165.319a.141.141,0,0,1,0-.225v.225" transform="translate(-53.534 -94.701)" fill="#903e21"/>
      <path id="Trazado_610393" data-name="Trazado 610393" d="M93.383,166.316a.141.141,0,0,1,0-.225v.225" transform="translate(-53.534 -95.273)" fill="#903e21"/>
      <path id="Trazado_610394" data-name="Trazado 610394" d="M93.383,167.313a.141.141,0,0,1,0-.225v.225" transform="translate(-53.534 -95.845)" fill="#903e21"/>
      <path id="Trazado_610395" data-name="Trazado 610395" d="M93.383,168.31a.141.141,0,0,1,0-.225v.225" transform="translate(-53.534 -96.417)" fill="#903e21"/>
      <path id="Trazado_610396" data-name="Trazado 610396" d="M93.383,169.307a.141.141,0,0,1,0-.225v.225" transform="translate(-53.534 -96.989)" fill="#903e21"/>
      <path id="Trazado_610397" data-name="Trazado 610397" d="M93.384,170.3a.141.141,0,0,1,0-.225v.225" transform="translate(-53.535 -97.561)" fill="#903e21"/>
      <path id="Trazado_610398" data-name="Trazado 610398" d="M93.384,171.3a.141.141,0,0,1,0-.225v.225" transform="translate(-53.535 -98.133)" fill="#903e21"/>
      <path id="Trazado_610399" data-name="Trazado 610399" d="M93.383,172.3a.141.141,0,0,1,0-.225v.225" transform="translate(-53.534 -98.705)" fill="#903e21"/>
      <path id="Trazado_610400" data-name="Trazado 610400" d="M93.385,173.3a.14.14,0,0,1,0-.225c0,.075,0,.15,0,.225" transform="translate(-53.535 -99.277)" fill="#903e21"/>
      <path id="Trazado_610401" data-name="Trazado 610401" d="M93.389,174.293a.139.139,0,0,1,0-.225v.225" transform="translate(-53.536 -99.849)" fill="#903e21"/>
      <path id="Trazado_610402" data-name="Trazado 610402" d="M93.394,175.289a.137.137,0,0,1,0-.224c0,.075,0,.15,0,.224" transform="translate(-53.539 -100.421)" fill="#903e21"/>
      <path id="Trazado_610403" data-name="Trazado 610403" d="M93.4,176.287a.134.134,0,0,1,0-.223v.223" transform="translate(-53.541 -100.994)" fill="#903e21"/>
      <path id="Trazado_610404" data-name="Trazado 610404" d="M93.383,156.345a.141.141,0,0,1,0-.225v.225" transform="translate(-53.534 -89.553)" fill="#903e21"/>
      <path id="Trazado_610405" data-name="Trazado 610405" d="M93.383,154.351a.141.141,0,0,1,0-.225v.225" transform="translate(-53.534 -88.41)" fill="#903e21"/>
      <path id="Trazado_610406" data-name="Trazado 610406" d="M93.383,153.354a.141.141,0,0,1,0-.225v.225" transform="translate(-53.534 -87.838)" fill="#903e21"/>
      <path id="Trazado_610407" data-name="Trazado 610407" d="M93.383,152.357a.141.141,0,0,1,0-.225v.225" transform="translate(-53.534 -87.266)" fill="#903e21"/>
      <path id="Trazado_610408" data-name="Trazado 610408" d="M93.383,151.359a.141.141,0,0,1,0-.225v.225" transform="translate(-53.534 -86.693)" fill="#903e21"/>
      <path id="Trazado_610409" data-name="Trazado 610409" d="M93.194,139.533l-.121-.1c.071-.006.159-.034.121.1" transform="translate(-53.388 -79.979)" fill="#903e21"/>
      <path id="Trazado_610410" data-name="Trazado 610410" d="M93.389,141.381c0-.084,0-.168,0-.252a.181.181,0,0,1,0,.252" transform="translate(-53.568 -80.954)" fill="#903e21"/>
      <path id="Trazado_610411" data-name="Trazado 610411" d="M93.383,143.382a.144.144,0,0,1,0-.226c0,.075,0,.15,0,.226" transform="translate(-53.534 -82.117)" fill="#903e21"/>
      <path id="Trazado_610412" data-name="Trazado 610412" d="M93.383,150.362a.141.141,0,0,1,0-.225v.225" transform="translate(-53.534 -86.121)" fill="#903e21"/>
      <path id="Trazado_610413" data-name="Trazado 610413" d="M93.383,149.365a.141.141,0,0,1,0-.225v.225" transform="translate(-53.534 -85.549)" fill="#903e21"/>
      <path id="Trazado_610414" data-name="Trazado 610414" d="M93.383,148.368a.141.141,0,0,1,0-.225v.225" transform="translate(-53.534 -84.978)" fill="#903e21"/>
      <path id="Trazado_610415" data-name="Trazado 610415" d="M93.385,144.379a.141.141,0,0,1,0-.224c0,.075,0,.15,0,.224" transform="translate(-53.535 -82.69)" fill="#903e21"/>
      <path id="Trazado_610416" data-name="Trazado 610416" d="M93.384,147.371a.141.141,0,0,1,0-.225v.225" transform="translate(-53.535 -84.406)" fill="#903e21"/>
      <path id="Trazado_610417" data-name="Trazado 610417" d="M93.385,146.374a.14.14,0,0,1,0-.225c0,.075,0,.15,0,.225" transform="translate(-53.535 -83.834)" fill="#903e21"/>
      <path id="Trazado_610418" data-name="Trazado 610418" d="M93.383,157.342a.141.141,0,0,1,0-.225v.225" transform="translate(-53.534 -90.125)" fill="#903e21"/>
      <path id="Trazado_610419" data-name="Trazado 610419" d="M93.392,142.5a.6.6,0,0,1-.035-.094c0-.013.015-.03.023-.046a.568.568,0,0,1,.036.095c0,.013-.016.03-.025.045" transform="translate(-53.551 -81.661)" fill="#903e21"/>
      <path id="Trazado_610420" data-name="Trazado 610420" d="M93.379,140.538c0-.046,0-.092,0-.138a.078.078,0,0,1,0,.138" transform="translate(-53.562 -80.536)" fill="#903e21"/>
      <path id="Trazado_610421" data-name="Trazado 610421" d="M93.445,178.174a.478.478,0,0,1-.035-.083c0-.008.021-.022.032-.034,0,.039,0,.078,0,.116" transform="translate(-53.582 -102.137)" fill="#903e21"/>
      <path id="Trazado_610422" data-name="Trazado 610422" d="M190.688,154.751q-6.766,0-13.532,0a4.169,4.169,0,0,1-4.032-2.438,3.488,3.488,0,0,1-.264-1.583c0-2.8-.107-5.594.049-8.39.015-.273.183-.53.017-.848-.107-.2.288-.255.4-.462a3.914,3.914,0,0,1,3.62-2.094q13.718-.031,27.436-.006a4.069,4.069,0,0,1,4.205,4.237c.02,2.479.046,4.96-.008,7.438a4.059,4.059,0,0,1-4.309,4.148q-6.792.013-13.585,0Zm10.051-11.757c-.177-.01-.354-.028-.53-.028q-11.457,0-22.913,0a1.7,1.7,0,0,1-.213,0c-.292-.038-.357.109-.356.371.013,2.214.013,4.428.024,6.641,0,.859-.128.762.76.762q10.978,0,21.954,0c.39,0,.78-.017,1.17-.026,1.15,0,2.3,0,3.451.01.28,0,.482-.041.481-.394q-.009-3.5,0-6.991c0-.276-.109-.368-.38-.365-1.15.017-2.3.018-3.45.026" transform="translate(-99.135 -79.687)" fill="#060607"/>
      <path id="Trazado_610423" data-name="Trazado 610423" d="M210.412,212.236c-.976,0-1.952.027-2.926-.006a1.9,1.9,0,0,1-1.773-2.744,2.257,2.257,0,0,1,2.082-1.259c1.79-.051,3.584-.072,5.372,0a2.207,2.207,0,0,1,2.192,2.424,2.075,2.075,0,0,1-1.862,1.588c-1.028-.018-2.057,0-3.086,0v0" transform="translate(-117.895 -119.416)" fill="#060607"/>
      <path id="Trazado_610424" data-name="Trazado 610424" d="M177.858,212.269c-.9,0-1.808.014-2.712,0a2.01,2.01,0,0,1-2.15-2.693,1.092,1.092,0,0,1,.46-.611,3.026,3.026,0,0,1,1.889-.737c1.613.009,3.226-.012,4.839.008a2.573,2.573,0,0,1,2.458,1.424,1.908,1.908,0,0,1-1.237,2.488,2.534,2.534,0,0,1-.836.116c-.9.014-1.808.005-2.712.005Z" transform="translate(-99.19 -119.441)" fill="#060607"/>
      <path id="Trazado_610425" data-name="Trazado 610425" d="M247.713,209.393a3.427,3.427,0,0,1,0,1.8c-.26.106-.321.4-.526.56a2.287,2.287,0,0,1-1.509.509c-1.915-.019-3.83-.007-5.745-.019a2.2,2.2,0,0,1-1.9-1.517,2.031,2.031,0,0,1,.865-1.962,3.078,3.078,0,0,1,1.838-.549c1.419.012,2.838.027,4.256,0a2.913,2.913,0,0,1,2.716,1.181" transform="translate(-136.518 -119.433)" fill="#060607"/>
      <path id="Trazado_610426" data-name="Trazado 610426" d="M177.888,245.565c.993,0,1.99-.041,2.98.012a2.195,2.195,0,0,1,1.977,1.786,2.147,2.147,0,0,1-1.931,2.142c-2.042.006-4.085.034-6.126-.009a1.782,1.782,0,0,1-1.777-1.866,1.83,1.83,0,0,1,1.842-2.039c1.007-.067,2.023-.014,3.034-.014v-.012" transform="translate(-99.242 -140.852)" fill="#060607"/>
      <path id="Trazado_610427" data-name="Trazado 610427" d="M247.765,246.617a2.6,2.6,0,0,1,.065,1.745,2.5,2.5,0,0,1-2.352,1.14c-1.757-.039-3.516-.02-5.273-.008a2.049,2.049,0,0,1-1.372-.487,1.827,1.827,0,0,1,.243-3.132,2.467,2.467,0,0,1,1.106-.35l.107-.008c1.718,0,3.436,0,5.154-.012a2.516,2.516,0,0,1,2.324,1.111" transform="translate(-136.552 -140.827)" fill="#060607"/>
      <path id="Trazado_610428" data-name="Trazado 610428" d="M210.381,249.474c-.9,0-1.808,0-2.712,0a2.02,2.02,0,0,1-2.119-1.907,1.981,1.981,0,0,1,1.972-2.017c1.043-.061,2.091-.052,3.136-.056.9,0,1.808-.012,2.71.038a1.98,1.98,0,0,1,1.987,2.2,2.008,2.008,0,0,1-2.1,1.752c-.478.009-.957,0-1.436,0h-1.436Z" transform="translate(-117.906 -140.818)" fill="#060607"/>
      <path id="Trazado_610429" data-name="Trazado 610429" d="M247.773,191.1a2.708,2.708,0,0,1,.1,1.7,2.6,2.6,0,0,1-2.4,1.182c-1.722-.026-3.444,0-5.166-.008a2.138,2.138,0,0,1-2.154-1.551,1.938,1.938,0,0,1,1.426-2.277,34.181,34.181,0,0,1,3.831-.089c.71-.012,1.421.018,2.131-.006a2.338,2.338,0,0,1,2.237,1.049" transform="translate(-136.57 -109.014)" fill="#060607"/>
      <path id="Trazado_610430" data-name="Trazado 610430" d="M177.842,193.948c-.888,0-1.775-.006-2.663,0a2.593,2.593,0,0,1-1.319-.354,1.884,1.884,0,0,1-.854-2.159,1.712,1.712,0,0,1,1.538-1.325,49.952,49.952,0,0,1,6.646,0,1.97,1.97,0,0,1,1.59,1.51,1.932,1.932,0,0,1-.869,1.911,2.664,2.664,0,0,1-1.46.418c-.869-.015-1.74,0-2.609,0" transform="translate(-99.209 -108.989)" fill="#060607"/>
      <path id="Trazado_610431" data-name="Trazado 610431" d="M210.437,193.94c-.924,0-1.847.022-2.769-.006a2.063,2.063,0,0,1-1.955-1.227,1.92,1.92,0,0,1,.391-2.162,1.177,1.177,0,0,1,.831-.428,41.83,41.83,0,0,1,6.582.005c1.263.114,1.809.733,1.828,1.857a2.024,2.024,0,0,1-2.086,1.958c-.94.016-1.881,0-2.822,0" transform="translate(-117.897 -108.981)" fill="#060607"/>
      <path id="Trazado_610432" data-name="Trazado 610432" d="M247.821,228.144a3.162,3.162,0,0,1-.172,2.01,2.286,2.286,0,0,1-1.95.868c-1.933-.04-3.869.007-5.8-.024a1.935,1.935,0,0,1-1.855-1.932,2,2,0,0,1,1.828-1.875c2.147-.034,4.295-.019,6.442-.011a1.7,1.7,0,0,1,1.123.643c.122.114.16.332.386.322" transform="translate(-136.545 -130.308)" fill="#060607"/>
      <path id="Trazado_610433" data-name="Trazado 610433" d="M177.866,231c-1.029,0-2.059.027-3.087-.007A1.827,1.827,0,0,1,173,229.031a1.8,1.8,0,0,1,1.839-1.857q3.062-.024,6.124,0a2,2,0,0,1,1.867,1.944,1.956,1.956,0,0,1-1.872,1.874c-1.029.015-2.059,0-3.088,0V231" transform="translate(-99.234 -130.305)" fill="#060607"/>
      <path id="Trazado_610434" data-name="Trazado 610434" d="M213.114,231.027c-1.879-.005-3.76.01-5.639-.023a1.908,1.908,0,0,1-1.929-1.969,1.874,1.874,0,0,1,2.023-1.859q2.874-.006,5.747,0a1.947,1.947,0,0,1,2.04,1.73,1.874,1.874,0,0,1-1.977,2.1c-.053,0-.106.009-.159.014l-.107,0" transform="translate(-117.905 -130.311)" fill="#060607"/>
      <path id="Trazado_610435" data-name="Trazado 610435" d="M223.3,236.205l.107,0c-.034.048-.07.053-.107,0" transform="translate(-128.087 -135.489)" fill="#0065b0"/>
      <path id="Trazado_610436" data-name="Trazado 610436" d="M243.149,245.49l-.107.009c.032-.049.067-.057.107-.009" transform="translate(-139.413 -140.799)" fill="#0065b0"/>
      <path id="Trazado_610437" data-name="Trazado 610437" d="M205.885,156.14c-.39.009-.78.026-1.17.026q-10.977,0-21.954,0c-.889,0-.756.1-.761-.762-.011-2.214-.011-4.428-.024-6.641,0-.263.064-.409.356-.371a1.689,1.689,0,0,0,.213,0q11.457,0,22.913,0c.177,0,.353.018.53.028-.237,2.569-.023,5.143-.1,7.715" transform="translate(-104.385 -85.119)" fill="#fff"/>
      <path id="Trazado_610438" data-name="Trazado 610438" d="M238.034,156.155c.081-2.571-.133-5.146.1-7.715,1.15-.007,2.3-.009,3.45-.026.271,0,.381.089.38.365q-.01,3.5,0,6.991c0,.353-.2.4-.481.394-1.15-.007-2.3-.007-3.451-.01" transform="translate(-136.534 -85.133)" fill="#bebdbe"/>
    </g>
  </g>
</svg>
