<svg xmlns="http://www.w3.org/2000/svg" xmlns:xlink="http://www.w3.org/1999/xlink" width="201" height="189" viewBox="0 0 201 189">
  <defs>
    <clipPath id="clip-path">
      <rect id="Rect치ngulo_378083" data-name="Rect치ngulo 378083" width="126.046" height="125.581" fill="none"/>
    </clipPath>
  </defs>
  <g id="Grupo_1073657" data-name="Grupo 1073657" transform="translate(-715 -16489)">
    <path id="Trazado_608379" data-name="Trazado 608379" d="M94.5,0A94.5,94.5,0,1,1,0,94.5,94.5,94.5,0,0,1,94.5,0Z" transform="translate(715 16489)" fill="#0c5e46"/>
    <rect id="Rect치ngulo_378074" data-name="Rect치ngulo 378074" width="16" height="5" transform="translate(900 16583)" fill="#0c5e46"/>
    <circle id="Elipse_1142" data-name="Elipse 1142" cx="83.5" cy="83.5" r="83.5" transform="translate(726 16500)" fill="#e1efe3"/>
    <g id="Grupo_1072868" data-name="Grupo 1072868" transform="translate(746.977 16520.209)" clip-path="url(#clip-path)">
      <path id="Trazado_610459" data-name="Trazado 610459" d="M51.328,7.614c0-.919-.031-1.839.007-2.756a4.556,4.556,0,0,1,1.646-3.216A5.914,5.914,0,0,1,56.766.357C58.111.262,59.452.117,60.8.022c.559-.039,1.124-.015,1.686,0,2.323.041,4.642.19,6.96.343,3.18.21,4.689,1.839,5.263,4.369a2.313,2.313,0,0,1,.021.5c0,1.8.014,3.6-.009,5.4a.639.639,0,0,0,.58.755,49.363,49.363,0,0,1,14.365,5.726c.316.191.667.325.986.511.738.432.807.454,1.337-.186a23.569,23.569,0,0,1,2.268-2.327,21.872,21.872,0,0,1,2.238-1.9,3.688,3.688,0,0,1,1.771-.591,5.728,5.728,0,0,1,4.478,1.507,66.376,66.376,0,0,1,5.364,4.946,42.51,42.51,0,0,1,4.617,5.37,4.646,4.646,0,0,1,.533,3.822A4.353,4.353,0,0,1,112,30.405c-1.255,1.264-2.511,2.528-3.79,3.767a.5.5,0,0,0-.086.771,48.279,48.279,0,0,1,3.948,7.652,53.5,53.5,0,0,1,2.032,5.812,14.522,14.522,0,0,0,.66,2.352.565.565,0,0,0,.62.393c1.594-.022,3.188-.029,4.781-.034a6.17,6.17,0,0,1,2.739.579,4.917,4.917,0,0,1,2.69,4.3q.291,2.763.418,5.535a17.943,17.943,0,0,1-.066,3.188c-.11.823-.006,1.672-.135,2.5a24.6,24.6,0,0,1-.451,3.67,4.458,4.458,0,0,1-3.691,3.384,31.713,31.713,0,0,1-6.137.146.726.726,0,0,0-.819.507,13.945,13.945,0,0,0-.6,2.149,45.3,45.3,0,0,1-2.166,6.214,48.905,48.905,0,0,1-3.884,7.468c-.217.337-.034.46.145.638,1.182,1.178,2.348,2.372,3.552,3.527a5.128,5.128,0,0,1,1.669,4.447,4.671,4.671,0,0,1-1.07,2.355,57.43,57.43,0,0,1-3.926,4.482,46.233,46.233,0,0,1-6.947,6.139,4.733,4.733,0,0,1-5.56-.41c-1.4-1.249-2.728-2.572-4.024-3.926-.382-.4-.614-.469-1.151-.146a55.508,55.508,0,0,1-9.412,4.565c-1.97.724-4,1.237-5.992,1.863-.156.049-.341.014-.491.072-.246.1-.5.231-.23.555.149.179.1.388.1.586,0,1.594.045,3.189-.009,4.781a4.843,4.843,0,0,1-3.8,4.705,20.879,20.879,0,0,1-2.96.354c-2.172.186-4.347.251-6.526.225-1.506-.018-3-.178-4.493-.317a10.338,10.338,0,0,1-2.168-.335,4.765,4.765,0,0,1-3.012-2.686,4.847,4.847,0,0,1-.442-2.2c.023-1.706-.008-3.413.018-5.119.006-.4-.114-.548-.5-.638a36.058,36.058,0,0,1-3.9-1.007q-2.578-.921-5.114-1.975a52.972,52.972,0,0,1-6.875-3.648c-.271-.163-.406-.032-.57.135-1.283,1.309-2.551,2.633-3.913,3.864a5.082,5.082,0,0,1-3.255,1.369,5,5,0,0,1-3.544-1.285,68.831,68.831,0,0,1-6.526-6.006c-1.045-1.05-1.982-2.184-2.939-3.3a5.7,5.7,0,0,1-1.694-3.871,4.776,4.776,0,0,1,1.21-3.063c.854-1,1.828-1.866,2.729-2.81.4-.415.858-.762,1.272-1.162a.677.677,0,0,0,.117-.97c-.712-1.252-1.477-2.472-2.127-3.76a63.027,63.027,0,0,1-3.356-8.116c-.428-1.256-.743-2.551-1.074-3.837a.511.511,0,0,0-.6-.433,31.091,31.091,0,0,1-5.867.032,4.556,4.556,0,0,1-3.9-2.846,7.165,7.165,0,0,1-.567-2.623C.306,67.808.076,66.656.037,65.5-.021,63.793,0,62.086.03,60.38c.02-1.089.176-2.17.3-3.253a14.97,14.97,0,0,1,.255-2.2A4.891,4.891,0,0,1,4.85,51.2c1.778-.169,3.56-.066,5.34-.07,1.082,0,1.066.022,1.318-1a32.085,32.085,0,0,1,1.421-4.734c.5-1.2.831-2.455,1.386-3.635,1.056-2.246,2.184-4.453,3.409-6.611.123-.217.469-.364.383-.617-.114-.332-.446-.54-.708-.779-1.722-1.562-3.594-3.038-4.584-5.191a4.289,4.289,0,0,1,.631-4.439c.839-1.155,1.8-2.213,2.743-3.28.92-1.039,1.872-2.056,2.879-3.008,1.321-1.249,2.689-2.451,4.078-3.625a5.721,5.721,0,0,1,1.989-1.332,5.13,5.13,0,0,1,5.5,1.211c1.2,1.237,2.457,2.419,3.67,3.645.279.282.417.387.792.068a7.2,7.2,0,0,1,1.638-.974c1.074-.5,2.065-1.15,3.142-1.655,1.551-.726,3.139-1.344,4.721-1.987a48.868,48.868,0,0,1,4.832-1.521A11.66,11.66,0,0,1,50.8,11.31a.544.544,0,0,0,.535-.659c-.036-1.011-.012-2.025-.012-3.037Zm-11.7,11.761c-1.217.621-2.369,1.351-3.521,2.083-1.663,1.055-2.2.974-3.587-.437-1.461-1.482-2.932-2.953-4.43-4.4-.762-.735-1.245-.737-2.06-.043-1.769,1.505-3.566,2.977-5.2,4.642-1.34,1.369-2.565,2.832-3.819,4.274-1.173,1.348-1.2,1.593.062,2.844,1.448,1.438,2.9,2.873,4.332,4.328a2.093,2.093,0,0,1,.455,2.764c-.31.527-.661,1.028-.981,1.549a50.322,50.322,0,0,0-4.36,9.047,59.507,59.507,0,0,0-2.062,7.2,1.866,1.866,0,0,1-1.939,1.563c-1.35.01-2.7.007-4.049.008-.975,0-1.95-.01-2.925.005-1.026.017-1.452.469-1.474,1.475a12.667,12.667,0,0,1-.118,1.832,31.062,31.062,0,0,0-.327,5.337,13.429,13.429,0,0,0,.023,1.628c.171,1.362.37,2.722.416,4.094.043,1.294.345,1.629,1.64,1.628,2.137,0,4.275-.041,6.412.007,1.339.03,2.074.263,2.429,1.844.27,1.2.5,2.414.875,3.594.392,1.229.723,2.479,1.2,3.676.469,1.169.9,2.353,1.438,3.5a56.331,56.331,0,0,0,3.673,6.556,2.022,2.022,0,0,1-.306,2.927c-1.2,1.236-2.43,2.448-3.646,3.67a18.571,18.571,0,0,0-1.436,1.5.845.845,0,0,0-.066,1.07,17.19,17.19,0,0,0,1.615,2.014,56.1,56.1,0,0,0,8.156,7.877,1.316,1.316,0,0,0,2.078-.082c.356-.333.7-.678,1.045-1.023,1.206-1.207,2.4-2.425,3.616-3.622,1.1-1.08,1.715-1.138,3.031-.335.207.127.411.261.616.392a48.137,48.137,0,0,0,9.485,4.7,63.315,63.315,0,0,0,7.4,2.122,1.842,1.842,0,0,1,1.647,2.122c.013,1.837.009,3.675.018,5.512,0,.562-.006,1.125.037,1.684a1.115,1.115,0,0,0,.965,1.014c.632.036,1.263.063,1.895.1,1.169.077,2.331.226,3.5.286a37.2,37.2,0,0,0,5.147-.12c.893-.078,1.782-.182,2.686-.189.576,0,1.3.063,1.665-.649a2.586,2.586,0,0,0,.188-1.207c0-2.193-.015-4.387.012-6.579A1.856,1.856,0,0,1,72.6,111.2c1.112-.381,2.28-.512,3.411-.823a52.211,52.211,0,0,0,8.141-2.976,50.418,50.418,0,0,0,6.071-3.4,2.783,2.783,0,0,1,1.173-.492,2.215,2.215,0,0,1,1.928.825c1.465,1.477,2.922,2.963,4.407,4.42,1.014.994,1.461.975,2.549.09a60.972,60.972,0,0,0,8.844-8.778c1.1-1.353,1.1-1.6-.154-2.833q-2.168-2.126-4.294-4.295a2.078,2.078,0,0,1-.284-3.063c.747-1.143,1.444-2.316,2.112-3.506.088-.158.241-.3.166-.512a3.741,3.741,0,0,0,.361-.489,47.94,47.94,0,0,0,2.881-6.848,56.185,56.185,0,0,0,1.511-5.613c.148-.665.214-1.41.965-1.793a3.348,3.348,0,0,1,1.562-.313q3.319-.01,6.637,0a1.337,1.337,0,0,0,1.411-1.4,11.388,11.388,0,0,1,.094-2.558c.148-.949.118-1.926.264-2.864a20.413,20.413,0,0,0-.06-3.9c-.043-1.28-.389-2.556-.3-3.851a1.317,1.317,0,0,0-1.461-1.423c-2.381-.022-4.762-.02-7.143-.018a1.865,1.865,0,0,1-1.759-1.365c-.383-1.254-.656-2.538-.977-3.806a43.829,43.829,0,0,0-2.083-6.068,50.762,50.762,0,0,0-4.145-7.764c-.839-1.319-.781-2.1.3-3.206,1.508-1.541,3.047-3.052,4.568-4.58.843-.846.846-1.235.1-2.147a60.692,60.692,0,0,0-8.79-8.827c-1.568-1.274-1.754-1.293-3.2.15-1.364,1.366-2.722,2.739-4.1,4.09-1.089,1.066-1.761,1.2-3,.373-.109-.072-.225-.133-.336-.2A48.076,48.076,0,0,0,79.477,16.31a47.524,47.524,0,0,0-6.566-1.781,1.914,1.914,0,0,1-1.829-2.059c-.02-.261-.009-.524-.011-.787l-.05-6.409a1.053,1.053,0,0,0-.694-1.057,2.449,2.449,0,0,0-1.033-.154,16.938,16.938,0,0,1-3.369-.247,25.1,25.1,0,0,0-3.446-.155c-.841.04-1.7.057-2.547.149a24.01,24.01,0,0,1-3.605.279A1.23,1.23,0,0,0,55,5.334c-.066,2.306-.014,4.611-.029,6.917a1.91,1.91,0,0,1-1.6,2.163c-.8.243-1.659.28-2.431.539-.934.314-1.895.516-2.829.819a46.048,46.048,0,0,0-8.482,3.6" transform="translate(0 0)" fill="#060707"/>
      <path id="Trazado_610460" data-name="Trazado 610460" d="M111.076,105.485c.075.212-.077.355-.166.512-.668,1.19-1.366,2.363-2.112,3.506a2.078,2.078,0,0,0,.284,3.063q2.126,2.168,4.294,4.295c1.253,1.229,1.256,1.481.154,2.833a60.972,60.972,0,0,1-8.844,8.778c-1.088.885-1.535.9-2.549-.09-1.486-1.456-2.942-2.943-4.407-4.42a2.215,2.215,0,0,0-1.928-.825,2.777,2.777,0,0,0-1.173.492,50.353,50.353,0,0,1-6.071,3.4A52.167,52.167,0,0,1,80.417,130c-1.131.311-2.3.442-3.411.823A1.855,1.855,0,0,0,75.5,132.79c-.027,2.193-.008,4.386-.012,6.579a2.586,2.586,0,0,1-.188,1.207c-.361.712-1.09.645-1.665.649-.9.006-1.793.111-2.686.188a37.125,37.125,0,0,1-5.147.121c-1.173-.06-2.336-.209-3.5-.286-.631-.041-1.263-.069-1.895-.1a1.115,1.115,0,0,1-.965-1.014c-.043-.559-.035-1.123-.037-1.684-.008-1.837,0-3.675-.018-5.512a1.843,1.843,0,0,0-1.647-2.123,63.225,63.225,0,0,1-7.4-2.121,48.162,48.162,0,0,1-9.485-4.7c-.2-.132-.408-.266-.616-.392-1.316-.8-1.935-.746-3.031.335-1.215,1.2-2.41,2.415-3.616,3.622-.344.345-.689.69-1.045,1.023a1.316,1.316,0,0,1-2.078.082,56.1,56.1,0,0,1-8.156-7.877,17.228,17.228,0,0,1-1.615-2.014.845.845,0,0,1,.066-1.07,18.571,18.571,0,0,1,1.436-1.5c1.216-1.222,2.444-2.434,3.646-3.67a2.022,2.022,0,0,0,.306-2.927,56.331,56.331,0,0,1-3.673-6.556c-.541-1.143-.969-2.327-1.438-3.5-.48-1.2-.812-2.448-1.2-3.676-.375-1.18-.605-2.394-.875-3.594-.356-1.581-1.09-1.814-2.429-1.844-2.137-.048-4.275-.009-6.412-.007-1.3,0-1.6-.334-1.64-1.628-.046-1.371-.245-2.732-.416-4.094a13.43,13.43,0,0,1-.023-1.628,31.062,31.062,0,0,1,.327-5.337,12.667,12.667,0,0,0,.118-1.832c.023-1.007.449-1.459,1.474-1.475.974-.016,1.95,0,2.925-.005,1.35,0,2.7,0,4.049-.008a1.866,1.866,0,0,0,1.939-1.563,59.506,59.506,0,0,1,2.062-7.2,50.322,50.322,0,0,1,4.36-9.047c.32-.521.672-1.023.981-1.549a2.093,2.093,0,0,0-.455-2.764c-1.432-1.455-2.884-2.889-4.332-4.328-1.259-1.25-1.235-1.5-.062-2.844,1.254-1.442,2.48-2.905,3.819-4.274,1.631-1.665,3.428-3.137,5.2-4.642.816-.694,1.3-.691,2.06.043,1.5,1.443,2.97,2.915,4.43,4.4,1.391,1.411,1.925,1.493,3.587.437,1.152-.732,2.3-1.462,3.521-2.083a2.4,2.4,0,0,1,.209,1.3c-.48,1.678-.265,3.415-.425,5.12-.056.6.022.642.525.329A51.981,51.981,0,0,1,49.8,42.864,33.191,33.191,0,0,1,54.67,41.05c1.867-.538,3.764-.993,5.691-1.348a60.177,60.177,0,0,1,6.732-.577,34.213,34.213,0,0,1,4.022.193,30.464,30.464,0,0,1,6.217.961c1.444.374,2.879.761,4.294,1.24A39.448,39.448,0,0,1,88.015,44.3a45.193,45.193,0,0,1,5.06,3.172,45.724,45.724,0,0,1,4.537,3.882c.971.933,1.893,1.919,2.8,2.913a28.975,28.975,0,0,1,2,2.458c.988,1.351,1.821,2.815,2.715,4.234a6.991,6.991,0,0,1,.88,1.475c.374,1.176,1.1,2.18,1.49,3.345.348,1.038.9,2.015,1.187,3.066a61.436,61.436,0,0,1,1.727,7.773,43.036,43.036,0,0,1,.3,6.371c-.008,1-.036,2.016-.077,3.024-.011.261-.014.52-.041.782-.094.9-.29,1.784-.471,2.673-.149.733-.18,1.495-.383,2.235-.436,1.6-.789,3.216-1.359,4.779a43.543,43.543,0,0,1-3.057,6.789,23.155,23.155,0,0,1-1.312,2.2c-.216.3-.122.463.278.471a21.877,21.877,0,0,0,2.227-.185,31.092,31.092,0,0,1,4.556-.273m-68.6,4.743a2.019,2.019,0,0,0,.375,2.76,30.091,30.091,0,0,0,2.93,2.125,41.367,41.367,0,0,0,10.073,4.721,38.3,38.3,0,0,0,9.213,1.722,19.3,19.3,0,0,0,4.578.021c.952-.166,1.938-.109,2.877-.261a44.786,44.786,0,0,0,8.621-2.2,39.54,39.54,0,0,0,19.354-15.55,38.059,38.059,0,0,0,4.532-9.788c.419-1.414.723-2.853,1-4.3.122-.632.14-1.283.257-1.907a31.25,31.25,0,0,0,.41-3.511,37.118,37.118,0,0,0-.207-5.585,46.87,46.87,0,0,0-1.008-5.762c-.224-1.089-.646-2.135-.952-3.209a25.627,25.627,0,0,0-1.228-3,37.328,37.328,0,0,0-5.168-8.5,1.794,1.794,0,0,0-2.694-.461c-.174-.129-.014-.4-.183-.5-.82-.494-1.307-1.348-2.079-1.9-.256-.182-.6-.343-.655-.725a2.217,2.217,0,0,0-.378-2.414,12.968,12.968,0,0,0-1.709-1.276c-.924-.654-1.93-1.21-2.863-1.846a28.6,28.6,0,0,0-3.14-1.75,32.5,32.5,0,0,0-4.5-1.768,41.473,41.473,0,0,0-5.363-1.427,54.675,54.675,0,0,0-6.038-.667,21.5,21.5,0,0,0-4.847.257c-.648.1-1.292,0-1.939.154-.554.135-1.119.27-1.685.353a32.5,32.5,0,0,0-8.343,2.532,38.351,38.351,0,0,0-11.81,7.961,40.827,40.827,0,0,0-4.758,5.6,39.213,39.213,0,0,0-6.142,14.19,33.609,33.609,0,0,0-.8,5.269,39.645,39.645,0,0,0,.287,8.086,46.219,46.219,0,0,0,1.427,6.361A39.945,39.945,0,0,0,36.2,106.241a4.389,4.389,0,0,0,1.139,1.229,1.366,1.366,0,0,0,1.568.07c.23-.145.475-.266.714-.4a6.664,6.664,0,0,0,.579.786c.667.86,1.6,1.45,2.273,2.3" transform="translate(-4.41 -19.629)" fill="#9c949e"/>
      <path id="Trazado_610461" data-name="Trazado 610461" d="M154.8,90.31a31.218,31.218,0,0,0-4.556.273,21.774,21.774,0,0,1-2.226.185c-.4-.008-.495-.175-.278-.471a23.346,23.346,0,0,0,1.312-2.2,43.566,43.566,0,0,0,3.057-6.789c.57-1.562.923-3.18,1.359-4.778.2-.741.233-1.5.382-2.236.181-.888.378-1.768.472-2.673.027-.262.031-.521.041-.782.041-1.008.07-2.021.077-3.024a43.028,43.028,0,0,0-.3-6.371,61.4,61.4,0,0,0-1.727-7.773c-.291-1.051-.839-2.028-1.188-3.066-.391-1.165-1.117-2.17-1.49-3.345a6.962,6.962,0,0,0-.88-1.475c-.895-1.419-1.727-2.883-2.715-4.234a28.979,28.979,0,0,0-2.005-2.458c-.909-.994-1.831-1.98-2.8-2.913A45.939,45.939,0,0,0,136.8,32.3a45.2,45.2,0,0,0-5.06-3.173,39.5,39.5,0,0,0-6.388-2.781c-1.415-.479-2.851-.866-4.294-1.24a30.491,30.491,0,0,0-6.217-.962,34.225,34.225,0,0,0-4.023-.193,60.071,60.071,0,0,0-6.732.577c-1.927.356-3.824.81-5.69,1.349a33.143,33.143,0,0,0-4.874,1.814,52.066,52.066,0,0,0-5.452,2.884c-.5.313-.581.266-.525-.329.16-1.7-.055-3.441.425-5.12a2.4,2.4,0,0,0-.209-1.3,46.145,46.145,0,0,1,8.482-3.6c.935-.3,1.9-.505,2.83-.819.772-.259,1.631-.3,2.43-.539a1.91,1.91,0,0,0,1.6-2.163c.015-2.305-.036-4.61.029-6.917a1.231,1.231,0,0,1,1.33-1.245,23.936,23.936,0,0,0,3.6-.279c.849-.092,1.705-.108,2.547-.149a25.165,25.165,0,0,1,3.446.155,16.975,16.975,0,0,0,3.369.247,2.436,2.436,0,0,1,1.034.154,1.053,1.053,0,0,1,.694,1.056q.025,3.2.05,6.41c0,.262-.01.525.011.786a1.913,1.913,0,0,0,1.829,2.059,47.5,47.5,0,0,1,6.565,1.781A48.057,48.057,0,0,1,138.1,25.889c.111.071.227.132.336.2,1.235.822,1.908.692,3-.374,1.38-1.35,2.737-2.723,4.1-4.09,1.441-1.443,1.627-1.425,3.2-.15a60.687,60.687,0,0,1,8.79,8.826c.743.912.74,1.3-.1,2.147-1.522,1.528-3.061,3.039-4.568,4.58-1.081,1.1-1.138,1.887-.3,3.206A50.82,50.82,0,0,1,156.694,48a43.951,43.951,0,0,1,2.084,6.068c.32,1.268.592,2.551.976,3.806a1.866,1.866,0,0,0,1.759,1.365c2.381,0,4.762,0,7.143.018a1.317,1.317,0,0,1,1.46,1.423c-.085,1.3.263,2.571.305,3.851a20.376,20.376,0,0,1,.06,3.9c-.146.938-.116,1.914-.264,2.863a11.387,11.387,0,0,0-.095,2.558,1.337,1.337,0,0,1-1.411,1.4q-3.319-.016-6.638,0a3.35,3.35,0,0,0-1.562.313c-.751.383-.817,1.128-.965,1.793a56.029,56.029,0,0,1-1.51,5.613,47.867,47.867,0,0,1-2.881,6.848,3.825,3.825,0,0,1-.361.489" transform="translate(-48.131 -4.454)" fill="#b1adb3"/>
      <path id="Trazado_610462" data-name="Trazado 610462" d="M120,66.764a1.794,1.794,0,0,1,2.694.461,37.329,37.329,0,0,1,5.168,8.5,25.6,25.6,0,0,1,1.228,3c.306,1.073.728,2.12.952,3.209a46.868,46.868,0,0,1,1.008,5.762,37.117,37.117,0,0,1,.207,5.585,31.253,31.253,0,0,1-.41,3.511c-.117.624-.135,1.275-.257,1.907-.278,1.446-.582,2.885-1,4.3a38.066,38.066,0,0,1-4.532,9.788,39.54,39.54,0,0,1-19.354,15.55,44.82,44.82,0,0,1-8.621,2.2c-.939.151-1.925.095-2.877.26a19.3,19.3,0,0,1-4.578-.021,38.3,38.3,0,0,1-9.212-1.722,41.363,41.363,0,0,1-10.073-4.721,30.094,30.094,0,0,1-2.93-2.125,2.019,2.019,0,0,1-.375-2.76,2.308,2.308,0,0,1,3.058.195,36.281,36.281,0,0,0,9.726,5.433c.365.145.48.042.478-.315q-.012-2.046-.02-4.094c.007-1.049-.046-2.1.036-3.146a3.065,3.065,0,0,0-1-2.507q-1.661-1.686-3.328-3.366c-2.014-2.04-4.111-4-6.048-6.114a5.506,5.506,0,0,1-1.459-3.79q-.019-3.092.017-6.184a.517.517,0,0,0-.374-.585,5.135,5.135,0,0,1-2.016-1.394,5.406,5.406,0,0,1-1.227-5.758,5.469,5.469,0,0,1,4.428-3.743,5.255,5.255,0,0,1,3.278.347A5.734,5.734,0,0,1,72.6,94.9a.532.532,0,0,0-.421.6c.019,1.912.094,3.828-.013,5.733a3.325,3.325,0,0,0,1.176,2.708q4.317,4.269,8.626,8.545a7.234,7.234,0,0,1,1.31,1.675,6.7,6.7,0,0,1,.713,3.242c0,1.536.011,3.072.018,4.608-.009,1.234.016,2.469-.045,3.7-.023.468.111.625.542.695a39.029,39.029,0,0,0,6.27.7,18.749,18.749,0,0,1,2.683.069c.326.047.655.012.652-.459-.009-1.271-.014-2.542-.02-3.813.009-1.855.025-3.711.023-5.566a7.141,7.141,0,0,1,.195-1.945,7.32,7.32,0,0,1,2.016-3.184c3.413-3.37,6.823-6.745,10.194-10.157a7.416,7.416,0,0,1,5.733-2.446c3.446.088,6.9.009,10.346,0,1.179.009,2.358,0,3.536.039a.6.6,0,0,0,.717-.576c.193-1.174.415-2.345.579-3.522a8.732,8.732,0,0,0,.126-1.723c-.015-.257-.087-.376-.357-.373-1.235.016-2.47.022-3.7.032-.112-.01-.223-.029-.335-.029-5.1,0-10.2-.015-15.295.007a2.905,2.905,0,0,0-2.042.7c-.378.345-.708.731-1.079,1.077-1.714,1.6-3.232,3.4-5.043,4.885a4.778,4.778,0,0,1-3.012,1.177q-3.261.018-6.522,0a.779.779,0,0,0-.829.51,5.775,5.775,0,0,1-1.453,1.9,5.467,5.467,0,0,1-6.946.545,5.611,5.611,0,0,1-2.561-5.1,5.766,5.766,0,0,1,6.983-5.271A5.476,5.476,0,0,1,89.3,97.1a.854.854,0,0,0,.97.616c.893-.07,1.792-.083,2.688-.095,1.143-.015,2.286,0,3.429-.007a2.064,2.064,0,0,0,.848-.226,7.3,7.3,0,0,0,1.9-1.722c1.683-1.609,3.269-3.32,5.056-4.82a2.645,2.645,0,0,1,.92-.636,14.013,14.013,0,0,1,3.373-.417q7.029.018,14.058.006c.316,0,.633-.034.95-.052,1.252.024,2.5.042,3.756.075.319.008.3-.181.3-.4a16.532,16.532,0,0,0-.363-3.2c-.123-.7-.21-1.4-.326-2.1a.511.511,0,0,0-.56-.5c-1.235.021-2.47.025-3.7.036q-10.346-.015-20.693-.033a.618.618,0,0,0-.567.288l-.133.286.006-.009c-.057.03-.163.014-.124.134a5.771,5.771,0,0,1-1.446,1.8,5.1,5.1,0,0,1-3.882,1.421,5.353,5.353,0,0,1-3.269-1.157,6.028,6.028,0,0,1-2.256-3.705,5.749,5.749,0,0,1,10.805-3.477c.194.387.373.77.972.767,5.925-.029,11.849-.026,17.774-.033.487,0,.974-.015,1.461-.023,1.291.009,2.583.008,3.874.032.416.008.466-.142.346-.5a42.6,42.6,0,0,0-2.45-5.4c-.093-.186-.253-.192-.427-.191q-2.077.013-4.155.021c-.243-.006-.487-.018-.73-.018-3.916,0-7.832-.006-11.748.006a2.9,2.9,0,0,1-1.266-.182,4.274,4.274,0,0,1-2.7-4.395c.072-2.489,0-4.982-.009-7.474,0-1.235,0-2.47.018-3.7a.684.684,0,0,0-.507-.709c-.388-.158-.84-.087-1.2-.23a26.712,26.712,0,0,0-4.09-.763c-.278-.066-.412-.03-.405.3.025,1.216.027,2.431.039,3.647-.14,1.594.023,3.188-.184,4.8a5.575,5.575,0,0,1-1.646,3.387q-1.377,1.385-2.784,2.741c-.8.769-1.582,1.582-2.342,2.4a6.4,6.4,0,0,1-5.071,2.1c-1.2-.024-2.4-.007-3.6-.023a.763.763,0,0,0-.815.519,5.263,5.263,0,0,1-2.43,2.657,5.13,5.13,0,0,1-4.707.356,5.877,5.877,0,0,1-3.761-4.955,5.525,5.525,0,0,1,3.046-5.45,5.775,5.775,0,0,1,6.524.791,5.952,5.952,0,0,1,1.368,1.829c.139.289.229.687.725.646,1.346-.11,2.7-.066,4.045-.041a2.624,2.624,0,0,0,1.964-.814c1.706-1.686,3.4-3.386,5.1-5.073a2.65,2.65,0,0,0,.852-1.938c0-1.423-.021-2.847-.034-4.27.006-1.161.008-2.322.022-3.484,0-.325-.148-.42-.447-.413a43.593,43.593,0,0,0-5.221.463,33.514,33.514,0,0,0-7.963,2.2,35.367,35.367,0,0,0-19.74,20.105,30.017,30.017,0,0,0-1.962,7.674c-.051.519-.335.984-.336,1.5,0,3.364-.213,6.748.47,10.07a34.7,34.7,0,0,0,1.543,5.491,32.1,32.1,0,0,0,4.111,7.94c.519.69,1,1.441,1.51,2.158a2.21,2.21,0,0,1,.1,2.629c-.238.132-.483.253-.713.4a1.367,1.367,0,0,1-1.568-.07,4.4,4.4,0,0,1-1.139-1.229,39.955,39.955,0,0,1-6.282-12.192A46.211,46.211,0,0,1,53.057,96.9a39.672,39.672,0,0,1-.287-8.086,33.655,33.655,0,0,1,.8-5.269,39.221,39.221,0,0,1,6.142-14.19,40.83,40.83,0,0,1,4.758-5.6,38.336,38.336,0,0,1,11.81-7.961,32.5,32.5,0,0,1,8.343-2.532c.566-.084,1.132-.219,1.685-.353.648-.157,1.292-.058,1.939-.154A21.5,21.5,0,0,1,93.1,52.49a54.566,54.566,0,0,1,6.038.667,41.474,41.474,0,0,1,5.363,1.427,32.555,32.555,0,0,1,4.5,1.768,28.673,28.673,0,0,1,3.14,1.75c.933.636,1.939,1.192,2.863,1.846a13,13,0,0,1,1.71,1.276,2.218,2.218,0,0,1,.378,2.414,1.96,1.96,0,0,1-2.976.119c-.045-.033-.088-.07-.133-.1a36.589,36.589,0,0,0-7.811-4.619c-.237-.1-.507-.315-.5.2q.031,2.191.054,4.383-.023,3.058-.045,6.116c0,.309.16.417.462.415q4.181-.026,8.362-.038c1.759.01,3.519.022,5.278.025.156,0,.373.1.455-.1s-.115-.3-.23-.41a2.032,2.032,0,0,1,0-2.865m-22.169,55.69c-.1,1.252-.038,2.507-.061,3.76-.008.411.2.472.531.4a43.9,43.9,0,0,0,4.438-1.1,40.5,40.5,0,0,0,4.225-1.652,34.5,34.5,0,0,0,12.391-9.5c.686-.839,1.353-1.7,1.96-2.6a22.609,22.609,0,0,0,1.8-2.908c.115-.242.114-.568.282-.749a4.575,4.575,0,0,0,.907-1.513c.156-.4.284-.821.466-1.213.24-.518.491-1.028.693-1.564.158-.42.025-.539-.388-.505-.74.06-1.483.024-2.227.076-.589.041-1.213-.079-1.826-.048-3.143,0-6.286-.018-9.43-.009a3.236,3.236,0,0,0-2.234,1.031c-1.452,1.372-2.784,2.863-4.261,4.21a4.042,4.042,0,0,0-1.045,1.186l-.01.01a5.539,5.539,0,0,0-1.47,1.353c-.068-.006-.1.025-.093.092l-1.025,1.049a.44.44,0,0,0-.3.313,2.767,2.767,0,0,0-.837.789.3.3,0,0,0-.218.212.378.378,0,0,0-.233.235.311.311,0,0,0-.218.214c-.385.415-.775.825-1.155,1.244a1.972,1.972,0,0,0-.649,1.148,53.849,53.849,0,0,0-.019,6.039M72.22,73.949a2.072,2.072,0,0,0,1.955,2.113,1.982,1.982,0,0,0,2.063-2.026,2.051,2.051,0,0,0-1.982-2.074,2,2,0,0,0-2.036,1.987m13.9,25.619A2.092,2.092,0,0,0,84.118,97.5a2.161,2.161,0,0,0-2.1,2.052,2.064,2.064,0,0,0,2.1,1.959,1.915,1.915,0,0,0,2.011-1.943m7.7-17.765a2.04,2.04,0,0,0,1.93,2.027,2,2,0,0,0,.417-3.984A2.172,2.172,0,0,0,93.826,81.8M72.192,89.817a1.826,1.826,0,0,0-1.924-2.1,1.912,1.912,0,0,0-2,1.966,1.976,1.976,0,0,0,2.015,2.027,1.744,1.744,0,0,0,1.91-1.894" transform="translate(-28.975 -28.839)" fill="#060707"/>
      <path id="Trazado_610463" data-name="Trazado 610463" d="M84.839,125.154q.01,2.047.02,4.094c0,.357-.113.46-.478.315a36.3,36.3,0,0,1-9.726-5.433,2.307,2.307,0,0,0-3.057-.2c-.671-.852-1.606-1.443-2.273-2.3a6.7,6.7,0,0,1-.579-.785,2.211,2.211,0,0,0-.1-2.629c-.505-.717-.991-1.468-1.51-2.158a32.09,32.09,0,0,1-4.111-7.94,34.654,34.654,0,0,1-1.543-5.491c-.684-3.322-.474-6.705-.47-10.07,0-.517.285-.982.336-1.5a30.017,30.017,0,0,1,1.962-7.674,35.367,35.367,0,0,1,19.74-20.105,33.535,33.535,0,0,1,7.963-2.2,43.686,43.686,0,0,1,5.221-.463c.3-.007.451.088.447.413-.015,1.161-.016,2.322-.022,3.484a7.059,7.059,0,0,1-1.447.117c-1.022.067-2.044.161-3.062.263a21.256,21.256,0,0,0-4.176.939,43.4,43.4,0,0,0-4.433,1.58,31.874,31.874,0,0,0-5.323,3.058,33.69,33.69,0,0,0-4.405,3.711,28.206,28.206,0,0,0-3.934,5.136,29.9,29.9,0,0,0-4,9.42,28.871,28.871,0,0,0-.825,7.652,15.209,15.209,0,0,0,.046,2.3c.28,1.423.374,2.872.721,4.289a38.324,38.324,0,0,0,1.252,4.208,32.854,32.854,0,0,0,3.237,6.245,33.561,33.561,0,0,0,5.386,6.181,24.124,24.124,0,0,0,4.18,3.08,26.94,26.94,0,0,0,4.963,2.457" transform="translate(-33.533 -33.335)" fill="#7db669"/>
      <path id="Trazado_610464" data-name="Trazado 610464" d="M184.73,74.657a2.032,2.032,0,0,0,0,2.865c.115.108.309.226.23.41s-.3.1-.456.1c-1.759,0-3.518-.016-5.278-.025a.974.974,0,0,0-.391-.983,9.8,9.8,0,0,1-.884-.771,27.809,27.809,0,0,0-5.718-4.175,2.885,2.885,0,0,0-1.787-.564q-.026-2.191-.054-4.383c-.007-.515.263-.3.5-.2a36.585,36.585,0,0,1,7.81,4.619c.045.034.087.071.133.1a1.961,1.961,0,0,0,2.977-.119c.06.382.4.543.654.725.772.55,1.259,1.4,2.079,1.9.169.1.009.374.183.5" transform="translate(-93.701 -36.732)" fill="#7db669"/>
      <path id="Trazado_610465" data-name="Trazado 610465" d="M89.786,129.916a26.941,26.941,0,0,1-4.963-2.457,24.125,24.125,0,0,1-4.18-3.08,33.561,33.561,0,0,1-5.386-6.181,32.854,32.854,0,0,1-3.238-6.245,38.328,38.328,0,0,1-1.252-4.208c-.347-1.418-.441-2.866-.721-4.289a15.21,15.21,0,0,1-.046-2.3,28.871,28.871,0,0,1,.825-7.652,29.9,29.9,0,0,1,4-9.42,28.205,28.205,0,0,1,3.934-5.136,33.689,33.689,0,0,1,4.405-3.711,31.875,31.875,0,0,1,5.323-3.058,43.4,43.4,0,0,1,4.433-1.58,21.256,21.256,0,0,1,4.176-.939c1.018-.1,2.04-.2,3.062-.263a7.059,7.059,0,0,0,1.447-.117c.013,1.423.035,2.847.034,4.27a2.651,2.651,0,0,1-.852,1.938c-1.706,1.686-3.4,3.386-5.1,5.072a2.622,2.622,0,0,1-1.964.814c-1.348-.025-2.7-.069-4.045.041-.5.041-.586-.357-.725-.646a5.952,5.952,0,0,0-1.368-1.829,5.776,5.776,0,0,0-6.525-.791,5.524,5.524,0,0,0-3.046,5.45,5.877,5.877,0,0,0,3.761,4.955,5.13,5.13,0,0,0,4.707-.357,5.263,5.263,0,0,0,2.43-2.657.763.763,0,0,1,.815-.519c1.2.015,2.4,0,3.6.023a6.4,6.4,0,0,0,5.071-2.1c.76-.821,1.539-1.633,2.342-2.4q1.411-1.352,2.784-2.741a5.574,5.574,0,0,0,1.646-3.387c.206-1.609.044-3.2.184-4.8a48.8,48.8,0,0,1,5.8,1.182c.125.024.225.179.338.273.009,2.491.081,4.985.009,7.474a4.273,4.273,0,0,0,2.7,4.395,2.887,2.887,0,0,0,1.266.182c3.916-.013,7.832-.007,11.748-.006.243,0,.487.012.73.018a1.343,1.343,0,0,0,.18.861,25.5,25.5,0,0,1,2.632,5.179c-.487.008-.974.023-1.461.023-5.925.008-11.849,0-17.774.033-.6,0-.779-.379-.972-.766a5.662,5.662,0,0,0-2.251-2.37,5.74,5.74,0,0,0-8.554,5.847A6.032,6.032,0,0,0,102,95.646a5.355,5.355,0,0,0,3.269,1.157,5.106,5.106,0,0,0,3.882-1.421,5.765,5.765,0,0,0,1.446-1.8l.124-.134-.006.009c.138-.052.134-.17.133-.286a.619.619,0,0,1,.567-.288q10.346.022,20.693.033c.047,1.1.491,2.121.528,3.233.032.953.335,1.892.365,2.859-.317.018-.634.052-.951.052q-7.028,0-14.057-.006a14.034,14.034,0,0,0-3.373.417,2.651,2.651,0,0,0-.92.636c-1.787,1.5-3.373,3.211-5.056,4.82a7.294,7.294,0,0,1-1.9,1.721,2.073,2.073,0,0,1-.848.227c-1.143.007-2.286-.008-3.429.007-.9.012-1.8.025-2.688.095a.853.853,0,0,1-.97-.616,5.477,5.477,0,0,0-3.935-3.219,5.767,5.767,0,0,0-6.983,5.271,5.611,5.611,0,0,0,2.562,5.1,5.467,5.467,0,0,0,6.946-.545,5.778,5.778,0,0,0,1.453-1.9.779.779,0,0,1,.829-.511q3.262.02,6.523,0a4.778,4.778,0,0,0,3.012-1.177c1.811-1.487,3.329-3.289,5.043-4.885.371-.345.7-.731,1.079-1.076a2.9,2.9,0,0,1,2.042-.7c5.1-.023,10.2-.01,15.295-.008.112,0,.223.019.335.029a1.556,1.556,0,0,1,0,.279,40.745,40.745,0,0,1-.744,4.583,3.176,3.176,0,0,0-.154,1.262c-3.449.008-6.9.086-10.346,0a7.417,7.417,0,0,0-5.733,2.446c-3.371,3.413-6.781,6.787-10.194,10.157a7.323,7.323,0,0,0-2.016,3.184,7.145,7.145,0,0,0-.195,1.946c0,1.855-.014,3.711-.023,5.566-1.4,0-2.8,0-4.2.006-.24,0-.519.127-.714.043a7.417,7.417,0,0,0-2.369-.523c-.948-.076-1.844-.423-2.795-.423-.007-1.536-.022-3.072-.018-4.608a6.7,6.7,0,0,0-.713-3.242,7.234,7.234,0,0,0-1.31-1.675q-4.315-4.27-8.626-8.545a3.323,3.323,0,0,1-1.176-2.708c.106-1.905.032-3.821.013-5.733a.532.532,0,0,1,.421-.6,5.734,5.734,0,0,0-.015-10.484,5.258,5.258,0,0,0-3.278-.347,5.468,5.468,0,0,0-4.428,3.743,5.4,5.4,0,0,0,1.227,5.758,5.135,5.135,0,0,0,2.016,1.394.517.517,0,0,1,.374.585q-.032,3.092-.017,6.184a5.5,5.5,0,0,0,1.459,3.79c1.937,2.116,4.034,4.074,6.048,6.114q1.662,1.684,3.327,3.365a3.064,3.064,0,0,1,1,2.507c-.082,1.043-.03,2.1-.036,3.146" transform="translate(-38.48 -38.097)" fill="#95be62"/>
      <path id="Trazado_610466" data-name="Trazado 610466" d="M159.124,171.922a4.029,4.029,0,0,1,1.045-1.186c1.477-1.348,2.81-2.839,4.261-4.211a3.236,3.236,0,0,1,2.234-1.031c3.143-.009,6.287,0,9.43.009a2.873,2.873,0,0,1-.413,1.369c-.369.8-.849,1.533-1.274,2.3-.58,1.045-1.278,2.011-1.934,2.995a22.061,22.061,0,0,1-2.107,2.654,29.142,29.142,0,0,1-4.152,3.82,34.249,34.249,0,0,1-7.807,4.339c-1.676.658-3.438,1-5.117,1.618a1.4,1.4,0,0,1-.389.025,53.864,53.864,0,0,1,.019-6.04,1.973,1.973,0,0,1,.649-1.148c.381-.419.77-.83,1.155-1.244a.2.2,0,0,0,.218-.214.378.378,0,0,1,.233-.235.2.2,0,0,0,.218-.212,2.761,2.761,0,0,1,.837-.789c.209,0,.3-.107.295-.313l1.025-1.048.093-.092a5.541,5.541,0,0,1,1.47-1.353l.047.017-.037-.027" transform="translate(-84.04 -91.006)" fill="#95be62"/>
      <path id="Trazado_610467" data-name="Trazado 610467" d="M152.919,184.594a1.368,1.368,0,0,0,.389-.025c1.679-.621,3.441-.959,5.117-1.617a34.252,34.252,0,0,0,7.807-4.339,29.092,29.092,0,0,0,4.152-3.82,22.062,22.062,0,0,0,2.106-2.653c.656-.984,1.354-1.95,1.935-2.995.424-.764.9-1.5,1.273-2.3a2.871,2.871,0,0,0,.413-1.368c.613-.032,1.238.088,1.826.048.744-.051,1.487-.016,2.227-.076.413-.034.546.085.388.505-.2.536-.453,1.046-.693,1.564-.182.392-.311.809-.466,1.213a4.567,4.567,0,0,1-.907,1.513c-.168.18-.167.507-.282.749a22.561,22.561,0,0,1-1.8,2.908c-.608.9-1.274,1.758-1.96,2.6a34.51,34.51,0,0,1-12.391,9.5,40.555,40.555,0,0,1-4.225,1.651,43.9,43.9,0,0,1-4.438,1.1c-.33.073-.539.013-.531-.4.023-1.253-.037-2.508.061-3.76" transform="translate(-84.058 -90.979)" fill="#7db669"/>
      <path id="Trazado_610468" data-name="Trazado 610468" d="M122.224,207.005c.951,0,1.846.347,2.795.423a7.416,7.416,0,0,1,2.369.523c.195.085.473-.042.714-.043,1.4-.007,2.8-.005,4.2-.006q.009,1.907.02,3.813c0,.471-.326.506-.652.459a18.754,18.754,0,0,0-2.683-.069,39.091,39.091,0,0,1-6.27-.7c-.431-.07-.565-.227-.542-.695.061-1.231.036-2.466.045-3.7" transform="translate(-67.186 -113.834)" fill="#7db669"/>
      <path id="Trazado_610469" data-name="Trazado 610469" d="M170.46,77.257a2.883,2.883,0,0,1,1.786.564A27.767,27.767,0,0,1,177.965,82a9.8,9.8,0,0,0,.884.771.974.974,0,0,1,.391.983q-4.182.017-8.363.038c-.3,0-.464-.106-.462-.415q.022-3.058.045-6.116" transform="translate(-93.713 -42.479)" fill="#95be62"/>
      <path id="Trazado_610470" data-name="Trazado 610470" d="M201.572,106.077a25.508,25.508,0,0,0-2.632-5.179,1.339,1.339,0,0,1-.18-.86q2.077-.01,4.155-.021c.174,0,.334,0,.426.191a42.568,42.568,0,0,1,2.451,5.4c.12.359.07.509-.346.5-1.291-.024-2.582-.023-3.873-.032" transform="translate(-109.296 -55)" fill="#7db669"/>
      <path id="Trazado_610471" data-name="Trazado 610471" d="M208,149.715a3.192,3.192,0,0,1,.153-1.262,40.742,40.742,0,0,0,.744-4.583,1.553,1.553,0,0,0,0-.278c1.235-.01,2.47-.017,3.7-.032.271,0,.343.116.357.372a8.728,8.728,0,0,1-.126,1.723c-.164,1.178-.387,2.349-.58,3.523a.6.6,0,0,1-.717.576c-1.178-.039-2.358-.029-3.537-.038" transform="translate(-114.374 -78.945)" fill="#7db669"/>
      <path id="Trazado_610472" data-name="Trazado 610472" d="M208.914,127.846c-.03-.966-.334-1.906-.365-2.859-.037-1.112-.482-2.137-.528-3.233,1.235-.011,2.47-.015,3.7-.036a.511.511,0,0,1,.56.5c.116.7.2,1.4.326,2.1a16.525,16.525,0,0,1,.363,3.2c0,.218.015.408-.3.4-1.252-.033-2.5-.051-3.756-.075" transform="translate(-114.392 -66.934)" fill="#7db669"/>
      <path id="Trazado_610473" data-name="Trazado 610473" d="M154.67,66.625c-.112-.094-.212-.248-.337-.272a48.92,48.92,0,0,0-5.8-1.183c-.011-1.216-.014-2.432-.038-3.647-.007-.334.126-.37.4-.3a26.747,26.747,0,0,1,4.09.763c.355.143.807.072,1.2.23a.684.684,0,0,1,.506.709c-.02,1.235-.014,2.47-.018,3.7" transform="translate(-81.657 -33.65)" fill="#7db669"/>
      <path id="Trazado_610474" data-name="Trazado 610474" d="M96.066,97.8A2,2,0,0,1,98.1,95.809a2.051,2.051,0,0,1,1.982,2.074,1.982,1.982,0,0,1-2.063,2.025A2.071,2.071,0,0,1,96.066,97.8" transform="translate(-52.82 -52.686)" fill="#7db669"/>
      <path id="Trazado_610475" data-name="Trazado 610475" d="M121.952,154.616a1.915,1.915,0,0,1-2.011,1.942,2.063,2.063,0,0,1-2.1-1.958,2.161,2.161,0,0,1,2.1-2.052,2.092,2.092,0,0,1,2.007,2.068" transform="translate(-64.801 -83.888)" fill="#7db669"/>
      <path id="Trazado_610476" data-name="Trazado 610476" d="M144.086,115.282a2.172,2.172,0,0,1,2.346-1.957,2,2,0,0,1-.417,3.983,2.04,2.04,0,0,1-1.929-2.027" transform="translate(-79.234 -62.319)" fill="#7db669"/>
      <path id="Trazado_610477" data-name="Trazado 610477" d="M91.224,132.916a1.744,1.744,0,0,1-1.91,1.894,1.976,1.976,0,0,1-2.015-2.027,1.912,1.912,0,0,1,2-1.966,1.826,1.826,0,0,1,1.924,2.1" transform="translate(-48.007 -71.938)" fill="#7db669"/>
      <path id="Trazado_610478" data-name="Trazado 610478" d="M160.686,185.342a.262.262,0,0,1-.3.313.442.442,0,0,1,.3-.313" transform="translate(-88.201 -101.921)" fill="#7db669"/>
      <path id="Trazado_610479" data-name="Trazado 610479" d="M160.621,122.364c0,.116,0,.234-.133.286l.133-.286" transform="translate(-88.254 -67.289)" fill="#7db669"/>
      <path id="Trazado_610480" data-name="Trazado 610480" d="M158.265,187.789a.2.2,0,0,1-.219.212.3.3,0,0,1,.219-.212" transform="translate(-86.911 -103.267)" fill="#7db669"/>
      <path id="Trazado_610481" data-name="Trazado 610481" d="M157.263,188.781a.2.2,0,0,1-.218.215.311.311,0,0,1,.218-.215" transform="translate(-86.361 -103.813)" fill="#7db669"/>
      <path id="Trazado_610482" data-name="Trazado 610482" d="M160.34,122.979l-.124.134c-.039-.119.068-.1.124-.134" transform="translate(-88.1 -67.627)" fill="#7db669"/>
      <path id="Trazado_610483" data-name="Trazado 610483" d="M163.417,182.807l-.093.092c-.005-.068.026-.1.093-.092" transform="translate(-89.813 -100.527)" fill="#7db669"/>
      <path id="Trazado_610484" data-name="Trazado 610484" d="M166.807,179.779l.037.027-.047-.017.01-.01" transform="translate(-91.723 -98.862)" fill="#7db669"/>
    </g>
  </g>
</svg>
