<svg id="Grupo_1072429" data-name="Grupo 1072429" xmlns="http://www.w3.org/2000/svg" xmlns:xlink="http://www.w3.org/1999/xlink" width="28.397" height="28.397" viewBox="0 0 28.397 28.397">
  <defs>
    <clipPath id="clip-path">
      <rect id="Rectángulo_377802" data-name="Rectángulo 377802" width="28.397" height="28.397" fill="#03386e"/>
    </clipPath>
  </defs>
  <g id="Grupo_1072428" data-name="Grupo 1072428" clip-path="url(#clip-path)">
    <path id="Trazado_609444" data-name="Trazado 609444" d="M148.7,132.609a1.225,1.225,0,0,0-.729-.84,22.675,22.675,0,0,0-3.574-.9.581.581,0,0,1-.329-.585.956.956,0,0,1,.125-.456,3.318,3.318,0,0,0,1.794-3.072,2.825,2.825,0,1,0-5.571,0,3.315,3.315,0,0,0,1.8,3.075.624.624,0,0,1,.143.429.637.637,0,0,1-.356.609,22.674,22.674,0,0,0-3.574.9,1.225,1.225,0,0,0-.729.84,3.959,3.959,0,0,0,.024,2.294.246.246,0,0,0,.231.159h10.486a.247.247,0,0,0,.231-.159,3.958,3.958,0,0,0,.024-2.294" transform="translate(-128.94 -115.734)" fill="#03386e"/>
    <path id="Trazado_609445" data-name="Trazado 609445" d="M213.909,6.046a.936.936,0,0,1-.936-.936V.937a.936.936,0,1,1,1.872,0V5.111a.936.936,0,0,1-.936.936" transform="translate(-199.652 -0.001)" fill="#03386e"/>
    <path id="Trazado_609446" data-name="Trazado 609446" d="M213.909,363.4a.936.936,0,0,1-.936-.936v-4.174a.936.936,0,1,1,1.872,0v4.174a.936.936,0,0,1-.936.936" transform="translate(-199.652 -335.007)" fill="#03386e"/>
    <path id="Trazado_609447" data-name="Trazado 609447" d="M5.11,213.931H.936a.936.936,0,1,1,0-1.872H5.11a.936.936,0,1,1,0,1.872" transform="translate(0 -198.795)" fill="#03386e"/>
    <path id="Trazado_609448" data-name="Trazado 609448" d="M43.2,50.121a10.509,10.509,0,0,1,7.869-7.863V40.823a11.913,11.913,0,0,0-9.305,9.3Z" transform="translate(-39.147 -38.27)" fill="#03386e"/>
    <path id="Trazado_609449" data-name="Trazado 609449" d="M273.333,50.146h1.436a11.913,11.913,0,0,0-9.3-9.3v1.436a10.509,10.509,0,0,1,7.86,7.861" transform="translate(-248.869 -38.294)" fill="#03386e"/>
    <path id="Trazado_609450" data-name="Trazado 609450" d="M273.336,264.424a10.509,10.509,0,0,1-7.863,7.869v1.436a11.913,11.913,0,0,0,9.3-9.3Z" transform="translate(-248.869 -247.885)" fill="#03386e"/>
    <path id="Trazado_609451" data-name="Trazado 609451" d="M51.044,272.3a10.509,10.509,0,0,1-7.871-7.871H41.737a11.913,11.913,0,0,0,9.307,9.307Z" transform="translate(-39.126 -247.885)" fill="#03386e"/>
    <path id="Trazado_609452" data-name="Trazado 609452" d="M362.468,213.931h-4.174a.936.936,0,0,1,0-1.872h4.174a.936.936,0,0,1,0,1.872" transform="translate(-335.007 -198.795)" fill="#03386e"/>
  </g>
</svg>
