<svg xmlns="http://www.w3.org/2000/svg" xmlns:xlink="http://www.w3.org/1999/xlink" width="120" height="120" viewBox="0 0 120 120">
  <defs>
    <linearGradient id="linear-gradient" x1="0.5" x2="0.5" y2="1" gradientUnits="objectBoundingBox">
      <stop offset="0" stop-color="#fef5e5"/>
      <stop offset="0.137" stop-color="#fffefc"/>
      <stop offset="0.479" stop-color="#fff"/>
      <stop offset="0.773" stop-color="#fffefd"/>
      <stop offset="1" stop-color="#fef7ea"/>
    </linearGradient>
    <clipPath id="clip-path">
      <rect id="Rectángulo_378122" data-name="Rectángulo 378122" width="80.306" height="80.325" fill="url(#linear-gradient)"/>
    </clipPath>
  </defs>
  <g id="Grupo_1073659" data-name="Grupo 1073659" transform="translate(-180 -19991.711)">
    <g id="Grupo_1072070" data-name="Grupo 1072070" transform="translate(-89 19033.711)">
      <path id="Trazado_608972" data-name="Trazado 608972" d="M60,0A60,60,0,1,1,0,60,60,60,0,0,1,60,0Z" transform="translate(269 958)" fill="#0c5e46"/>
    </g>
    <g id="Grupo_1072936" data-name="Grupo 1072936" transform="translate(199.694 20009.549)">
      <g id="Grupo_1072935" data-name="Grupo 1072935" clip-path="url(#clip-path)">
        <path id="Trazado_610745" data-name="Trazado 610745" d="M13.589,25.39h4.346a17.648,17.648,0,0,1-1.289-12.458A16.986,16.986,0,0,1,24.029,2.807,17.292,17.292,0,0,1,44.037,3.6,17.049,17.049,0,0,1,50.451,13.63a17.384,17.384,0,0,1-1.494,11.738,6.272,6.272,0,0,0,.629.077c4.815,0,9.63,0,14.654,0V23.994q0-7.092,0-14.184c0-1.218.577-1.9,1.484-1.722.351.068.9.357.935.608.207,1.381,1.383,1.6,2.325,2.075,3.331,1.691,6.692,3.324,10,5.061.545.286,1.221.995,1.2,1.488s-.738,1.164-1.3,1.4c-3.477,1.474-6.973,2.914-10.516,4.219-1.249.46-1.738,1.071-1.334,2.507H74.02c4.29,0,6.285,2,6.285,6.295q0,21.276,0,42.553c0,3.914-2.11,6.027-6.02,6.027q-33.856,0-67.711,0C2.454,80.323,0,77.876,0,73.76q0-25.425,0-50.85a6.646,6.646,0,0,1,5.651-6.757,6.536,6.536,0,0,1,7.288,4.338,28.231,28.231,0,0,1,.643,4.9M64.18,28.131c-5.55,0-10.945-.014-16.339.028a1.93,1.93,0,0,0-1.2.641c-7.572,8.1-18.776,8.1-26.373-.021a1.69,1.69,0,0,0-.941-.616c-1.945-.057-3.892-.028-5.937-.028v1.736q0,17.728,0,35.456a5.324,5.324,0,0,1-5.606,5.628c-.669.005-1.343-.043-2.005.025A3.315,3.315,0,0,0,3.065,75.81c.776,1.489,2.128,1.847,3.717,1.845q33.583-.028,67.166-.013c2.85,0,3.676-.819,3.676-3.647q0-21.14,0-42.28a7.885,7.885,0,0,0-.029-1.2,2.369,2.369,0,0,0-2.108-2.273c-2.825-.139-5.663-.044-8.5-.044V33.43c.316.018.572.039.829.048,2.215.07,3.113,1,3.122,3.247a19.189,19.189,0,0,0,.031,2.4c.056.428.433.809.633,1.226.233.485.676,1.046.574,1.464a1.868,1.868,0,0,1-1.2.987,12.131,12.131,0,0,1-1.859.062,5.457,5.457,0,0,0-2.376.507c-4.18,2.962-8.3,6.015-12.4,9.085a2.266,2.266,0,0,0-.781,1.374,4.052,4.052,0,0,1-8.084-.073,2.21,2.21,0,0,0-.752-1.373c-2.6-1.95-5.264-3.82-7.889-5.74a1.657,1.657,0,0,0-1.654-.234,7.076,7.076,0,0,1-3.338.054,1.645,1.645,0,0,0-1.643.281c-3.8,2.95-7.627,5.87-11.436,8.811-.8.615-1.627,1.159-2.411.118s0-1.684.791-2.286q5.686-4.339,11.352-8.7a1.847,1.847,0,0,0,.989-1.71,3.9,3.9,0,0,1,3.94-4.144A4.038,4.038,0,0,1,37.5,42.911a1.783,1.783,0,0,0,.511,1.216c2.713,2.023,5.463,4,8.23,5.947a1.189,1.189,0,0,0,1.043.106,4.254,4.254,0,0,1,5.024.392L62.465,43.1a21.357,21.357,0,0,0-2.338-.3,1.625,1.625,0,0,1-1.119-.911c-.089-.447.286-1,.506-1.491a8.39,8.39,0,0,0,.686-1.339,5.163,5.163,0,0,0,.021-1.6c-.236-2.8.854-4.164,3.729-4.02.067,0,.138-.086.231-.148ZM18.745,17.415A14.718,14.718,0,1,0,33.437,2.707,14.762,14.762,0,0,0,18.745,17.415M2.685,68.8c1.61-.188,3.041-.457,4.478-.5,2.664-.08,3.545-.891,3.545-3.526q0-16.041,0-32.082c0-3.253.031-6.506-.01-9.758a3.994,3.994,0,0,0-5.651-3.8c-1.781.833-2.377,2.363-2.375,4.269q.03,22.19.011,44.38ZM75.665,17.14l-8.691-4.325v7.8l8.691-3.477m-12.7,22.929h5.227V36.161H62.962Zm-28,3.072.022-.563c-.52-.35-1.053-.986-1.556-.964-.447.02-.861.772-1.289,1.2.452.45.851,1.164,1.372,1.267.406.08.962-.6,1.451-.941M49.231,55.059l.562.022c.35-.521.986-1.054.963-1.559A1.816,1.816,0,0,0,49.54,52.3a1.081,1.081,0,0,0-1.286,1.286c.079.529.634.987.976,1.476" transform="translate(0 0)" fill="url(#linear-gradient)"/>
        <path id="Trazado_610746" data-name="Trazado 610746" d="M242.705,2.124c0,1.432-.527,2.129-1.527,1.956-1.2-.207-1.153-1.139-1.164-2.06s.111-1.733,1.2-1.9c.971-.154,1.493.578,1.491,2.009" transform="translate(-175.783 -0.07)" fill="url(#linear-gradient)"/>
        <path id="Trazado_610747" data-name="Trazado 610747" d="M217.607,11.14c1.2.235,2.762,1.72,2.525,2.5a2.118,2.118,0,0,1-1.258,1.221c-.777.221-2.445-1.385-2.281-2.187.114-.558.66-1.028,1.014-1.537" transform="translate(-158.622 -8.159)" fill="url(#linear-gradient)"/>
        <path id="Trazado_610748" data-name="Trazado 610748" d="M263.943,13.067c-.141,1.081-1.647,2.607-2.474,2.6-.85-.01-1.6-.639-1.288-1.282a6.071,6.071,0,0,1,2.175-2.188c.237-.155,1.043.558,1.587.873" transform="translate(-190.5 -8.914)" fill="url(#linear-gradient)"/>
        <path id="Trazado_610749" data-name="Trazado 610749" d="M91.367,218.158c-1,.668-1.973,1.288-2.911,1.957a1.707,1.707,0,0,1-2.205,0c-.94-.669-1.913-1.291-2.911-1.959-.914.607-1.833,1.152-2.676,1.8a1.923,1.923,0,0,1-2.652.021c-.841-.65-1.765-1.193-2.7-1.816-.975.648-1.94,1.277-2.891,1.927-.779.532-1.57.792-2.2-.132s-.158-1.566.657-2.1c1.157-.753,2.243-1.633,3.461-2.264a2.467,2.467,0,0,1,1.937,0,26.289,26.289,0,0,1,3.053,1.989c.985-.658,1.962-1.272,2.9-1.945a1.709,1.709,0,0,1,2.2-.025c.944.664,1.919,1.285,2.941,1.964a26.222,26.222,0,0,1,3.01-1.965,2.454,2.454,0,0,1,1.936-.029A39.893,39.893,0,0,1,95.992,218a1.357,1.357,0,1,1-1.5,2.251c-1.045-.671-2.066-1.378-3.128-2.09" transform="translate(-51.211 -157.625)" fill="url(#linear-gradient)"/>
        <path id="Trazado_610750" data-name="Trazado 610750" d="M87.354,242.6a25.475,25.475,0,0,1,3.006-1.969,2.46,2.46,0,0,1,1.934-.022,41.972,41.972,0,0,1,3.682,2.405,1.284,1.284,0,0,1,.5,1.932,1.269,1.269,0,0,1-1.965.336c-1.048-.667-2.068-1.377-3.157-2.106-.968.643-1.947,1.249-2.877,1.924a1.744,1.744,0,0,1-2.308-.013c-.894-.657-1.843-1.24-2.844-1.9-.945.624-1.927,1.223-2.853,1.9a1.747,1.747,0,0,1-2.309.02c-.9-.654-1.845-1.242-2.869-1.924-1,.667-2.016,1.364-3.051,2.037-.756.492-1.525.615-2.082-.261-.542-.852-.188-1.5.6-2.012,1.156-.751,2.309-1.507,3.436-2.3a1.713,1.713,0,0,1,2.2.014c.94.666,1.916,1.28,2.911,1.94.992-.66,1.967-1.274,2.9-1.941a1.713,1.713,0,0,1,2.2-.009c.942.664,1.918,1.279,2.941,1.956" transform="translate(-51.194 -175.952)" fill="url(#linear-gradient)"/>
        <path id="Trazado_610751" data-name="Trazado 610751" d="M173.237,140.351c-.906.573-1.634,2.148-2.9.9s.264-2,.877-2.91c-.554-.924-2.2-1.7-.85-2.979,1.257-1.191,1.99.388,2.892.935.9-.611,1.662-2.133,2.907-.9s-.27,2-.887,2.905c.511.94,2.214,1.693.853,2.982-1.267,1.2-1.986-.4-2.894-.93" transform="translate(-124.396 -98.817)" fill="url(#linear-gradient)"/>
        <path id="Trazado_610752" data-name="Trazado 610752" d="M248.237,190.342c-.936.668-1.691,2.161-2.932.9s.283-1.994.91-2.906c-.543-.915-2.2-1.686-.874-2.959,1.25-1.2,2,.333,2.892.925.9-.559,1.635-2.125,2.89-.939,1.346,1.272-.288,2.049-.845,2.967.574.915,2.136,1.644.894,2.9s-2-.238-2.934-.891" transform="translate(-179.315 -135.441)" fill="url(#linear-gradient)"/>
        <path id="Trazado_610753" data-name="Trazado 610753" d="M212.162,238.148c-.894.053-1.79-.022-1.9-1.126-.042-.426.306-1.228.593-1.286a7.07,7.07,0,0,1,2.684-.015c.292.056.663.85.623,1.271-.112,1.2-1.082,1.2-2,1.156" transform="translate(-153.992 -172.551)" fill="url(#linear-gradient)"/>
        <path id="Trazado_610754" data-name="Trazado 610754" d="M237.674,238.854c-.644-.276-1.448-.377-1.724-.812a2.264,2.264,0,0,1,.131-1.686,11.024,11.024,0,0,1,3.133.022,2.4,2.4,0,0,1,.094,1.7c-.222.406-1.006.5-1.635.778" transform="translate(-172.726 -173.029)" fill="url(#linear-gradient)"/>
        <path id="Trazado_610755" data-name="Trazado 610755" d="M262.288,233.613a7.629,7.629,0,0,1,1.892,1.343c.189.253-.185,1.376-.424,1.418a8.388,8.388,0,0,1-2.916-.009c-.235-.043-.592-1.146-.4-1.431a6.869,6.869,0,0,1,1.848-1.321" transform="translate(-190.703 -171.095)" fill="url(#linear-gradient)"/>
        <path id="Trazado_610756" data-name="Trazado 610756" d="M119.983,31.213c0-1.427.017-2.855-.006-4.282-.016-.976.28-1.739,1.374-1.72s1.329.819,1.321,1.777c-.021,2.453-.047,4.907.024,7.359a2.814,2.814,0,0,0,.665,1.612c.84.978,1.8,1.854,2.719,2.764.658.652.9,1.386.194,2.1s-1.45.476-2.1-.179c-1.2-1.2-2.435-2.361-3.571-3.616a2.657,2.657,0,0,1-.589-1.538c-.079-1.423-.027-2.853-.027-4.28" transform="translate(-87.862 -18.464)" fill="url(#linear-gradient)"/>
      </g>
    </g>
  </g>
</svg>
