<svg xmlns="http://www.w3.org/2000/svg" xmlns:xlink="http://www.w3.org/1999/xlink" width="30" height="30" viewBox="0 0 30 30">
  <defs>
    <clipPath id="clip-path">
      <rect id="Rectángulo_377803" data-name="Rectángulo 377803" width="30" height="30" transform="translate(0 0.001)" fill="#03386e"/>
    </clipPath>
  </defs>
  <g id="Grupo_1072431" data-name="Grupo 1072431" transform="translate(0 0)">
    <g id="Grupo_1072430" data-name="Grupo 1072430" clip-path="url(#clip-path)">
      <path id="Trazado_609453" data-name="Trazado 609453" d="M96.621,104.3a9.268,9.268,0,1,1,9.268-9.268,9.279,9.279,0,0,1-9.268,9.268m0-17.064a7.8,7.8,0,1,0,7.8,7.8,7.8,7.8,0,0,0-7.8-7.8" transform="translate(-81.721 -80.235)" fill="#03386e"/>
      <path id="Trazado_609454" data-name="Trazado 609454" d="M150.706,144.527l1.363,2.762a.462.462,0,0,0,.348.253l3.048.443a.462.462,0,0,1,.256.788l-2.206,2.15a.462.462,0,0,0-.133.409l.521,3.036a.462.462,0,0,1-.671.487l-2.726-1.433a.462.462,0,0,0-.43,0l-2.726,1.433a.462.462,0,0,1-.671-.487l.521-3.036a.462.462,0,0,0-.133-.409l-2.205-2.15a.462.462,0,0,1,.256-.788l3.048-.443a.462.462,0,0,0,.348-.253l1.363-2.762a.462.462,0,0,1,.829,0" transform="translate(-135.392 -134.968)" fill="#03386e"/>
      <path id="Trazado_609455" data-name="Trazado 609455" d="M4.551,270.432a.281.281,0,0,0-.428-.171c-2.012,1.368-4.534,3.823-4.067,7.378a.4.4,0,0,0,.561.3,10.217,10.217,0,0,1,3.43-1.23.388.388,0,0,1,.426.42,8.69,8.69,0,0,0,1.049,5.261.367.367,0,0,0,.648.014,18.334,18.334,0,0,1,3.188-5.234.277.277,0,0,0-.06-.428,10.77,10.77,0,0,1-4.747-6.311" transform="translate(0 -252.793)" fill="#03386e"/>
      <path id="Trazado_609456" data-name="Trazado 609456" d="M327.011,4.954a.4.4,0,0,0-.561-.3,10.216,10.216,0,0,1-3.43,1.23.388.388,0,0,1-.427-.42A8.69,8.69,0,0,0,321.545.2.367.367,0,0,0,320.9.188,18.5,18.5,0,0,1,317.826,5.3a.277.277,0,0,0,.06.424,10.767,10.767,0,0,1,4.68,6.4.282.282,0,0,0,.43.175c2-1.375,4.478-3.819,4.016-7.343" transform="translate(-297.267 0)" fill="#03386e"/>
    </g>
  </g>
</svg>
