<svg xmlns="http://www.w3.org/2000/svg" xmlns:xlink="http://www.w3.org/1999/xlink" width="609.199" height="525.471" viewBox="0 0 609.199 525.471">
  <defs>
    <clipPath id="clip-path">
      <rect id="Rectángulo_378104" data-name="Rectángulo 378104" width="547.968" height="470.132" transform="translate(0 0)" fill="none"/>
    </clipPath>
    <linearGradient id="linear-gradient" x1="-18.067" y1="8.9" x2="-17.975" y2="8.9" gradientUnits="objectBoundingBox">
      <stop offset="0" stop-color="#09005d"/>
      <stop offset="1" stop-color="#1a0f91"/>
    </linearGradient>
    <linearGradient id="linear-gradient-2" x1="-13.24" y1="8.111" x2="-13.184" y2="8.111" xlink:href="#linear-gradient"/>
    <linearGradient id="linear-gradient-3" x1="-10.246" y1="6.647" x2="-10.192" y2="6.647" xlink:href="#linear-gradient"/>
    <linearGradient id="linear-gradient-4" x1="-12.171" y1="6.684" x2="-12.119" y2="6.684" xlink:href="#linear-gradient"/>
  </defs>
  <g id="Grupo_1072924" data-name="Grupo 1072924" transform="translate(92.215 83.6)">
    <g id="Grupo_1072923" data-name="Grupo 1072923" transform="translate(-30.984 -28.259)" clip-path="url(#clip-path)">
      <path id="Trazado_610682" data-name="Trazado 610682" d="M257.077,231.909H12.872A12.871,12.871,0,0,1,0,219.039V157.648A157.648,157.648,0,0,1,157.648,0h99.429a12.87,12.87,0,0,1,12.87,12.87V219.039a12.87,12.87,0,0,1-12.87,12.87" transform="translate(0.312 0.453)" fill="#6debff"/>
      <path id="Trazado_610683" data-name="Trazado 610683" d="M238.87,231.909H483.076a12.871,12.871,0,0,0,12.872-12.87V157.648A157.648,157.648,0,0,0,338.3,0H238.87A12.87,12.87,0,0,0,226,12.87V219.039a12.87,12.87,0,0,0,12.87,12.87" transform="translate(51.622 0.453)" fill="#fef5e5"/>
      <path id="Trazado_610684" data-name="Trazado 610684" d="M238.87,194H483.076a12.871,12.871,0,0,1,12.872,12.87v61.391A157.648,157.648,0,0,1,338.3,425.91H238.87A12.87,12.87,0,0,1,226,413.039V206.87A12.87,12.87,0,0,1,238.87,194" transform="translate(51.622 44.498)" fill="#e1efe3"/>
      <path id="Trazado_610685" data-name="Trazado 610685" d="M257.077,194H12.872A12.871,12.871,0,0,0,0,206.87v61.391A157.648,157.648,0,0,0,157.648,425.91h99.429a12.87,12.87,0,0,0,12.87-12.87V206.87A12.87,12.87,0,0,0,257.077,194" transform="translate(0.312 44.498)" fill="#dbe5f3"/>
      <path id="Trazado_610687" data-name="Trazado 610687" d="M197.271,157.13h0v6.606h6.468v24.536h6.93V157.13h0v31.142h-6.93V163.736h-6.468V157.13Z" transform="translate(45.099 36.127)" fill="url(#linear-gradient)"/>
      <path id="Trazado_610689" data-name="Trazado 610689" d="M239.261,167.626h0l-4.028-4.028s4.491-6.6,10.959-6.6a10.779,10.779,0,0,1,10.842,10.626c0,8.085-12.69,16.632-12.69,16.632h12.69v6.93h-21.8V184.81l13.5-14.181a5.189,5.189,0,0,0,1.437-3.216,3.611,3.611,0,0,0-1.437-2.789,4.514,4.514,0,0,0-3.009-1.064c-2.884,0-5.958,2.217-6.463,4.066h0c.5-1.849,3.579-4.066,6.463-4.066a4.514,4.514,0,0,1,3.009,1.064,3.611,3.611,0,0,1,1.437,2.789,5.189,5.189,0,0,1-1.437,3.216l-13.5,14.181v6.379h21.8v-6.93h-12.69s12.69-8.548,12.69-16.632A10.779,10.779,0,0,0,246.192,157c-6.468,0-10.959,6.6-10.959,6.6l4.028,4.028Z" transform="translate(53.718 36.097)" fill="url(#linear-gradient-2)"/>
      <path id="Trazado_610691" data-name="Trazado 610691" d="M194.731,203.066h20.583v6.389l-7.1,7.1s7.766.836,7.766,10.538c0,6.017-6.22,9.192-12.6,9.192-3.906,0-7.87-1.19-10.5-3.647l3.234-6.036s5.146,2.686,9.067,2.686c2.239,0,4.079-.876,4.331-3.63.021-.229.031-.449.031-.658,0-3.286-2.51-4.123-5.068-4.123a19.534,19.534,0,0,0-5.358.9v-4.62l6.428-6.428H194.5l.231-7.663h0l-.231,7.663h11.048l-6.428,6.428v4.62a19.534,19.534,0,0,1,5.358-.9c2.557,0,5.068.837,5.068,4.123,0,.209-.01.428-.031.658-.253,2.753-2.092,3.63-4.331,3.63-3.92,0-9.067-2.686-9.067-2.686l-3.234,6.036c2.632,2.457,6.6,3.647,10.5,3.647,6.378,0,12.6-3.174,12.6-9.192,0-9.7-7.766-10.538-7.766-10.538l7.1-7.1v-6.389Z" transform="translate(44.103 46.556)" fill="url(#linear-gradient-3)"/>
      <path id="Trazado_610693" data-name="Trazado 610693" d="M246.445,202.066h8.07l-12.17,18.48h4.777V215h7.235v5.544h3.776v6.468h-3.3v8.268h-6.921v-8.268H234.492v-5.347l11.954-19.6h0l-11.954,19.6v5.347h13.418v8.268h6.921v-8.268h3.3v-6.468h-3.776V215h-7.235v5.544h-4.777l12.17-18.48Z" transform="translate(53.55 46.329)" fill="url(#linear-gradient-4)"/>
    </g>
    <path id="Sustracción_15" data-name="Sustracción 15" d="M244.727,48.2h0l.239-11.473c-.046,0-.279,0-.691.008C224.313,36.924,118.721,37.929,0,38.6V11.04l244.437.365L244.3,0l36,24.317L244.729,48.2Z" transform="translate(302.248 -35.404) rotate(180)" fill="#dbe5f3"/>
    <path id="Sustracción_17" data-name="Sustracción 17" d="M224.6,48.2h0l.219-11.473c-.042,0-.256,0-.634.008-18.32.194-115.23,1.2-224.19,1.868V11.04l224.339.365L224.216,0l33.039,24.317L224.606,48.2Z" transform="translate(-92.215 242.468) rotate(-90)" fill="#dbe5f3"/>
    <path id="Trazado_612165" data-name="Trazado 612165" d="M13.665,11.211A4.025,4.025,0,0,1,12.309,14.1a4.76,4.76,0,0,1-3.223,1.055,4.28,4.28,0,0,1-3.441-1.473A6.038,6.038,0,0,1,4.391,9.641v-.7a6.819,6.819,0,0,1,.578-2.891A4.332,4.332,0,0,1,6.622,4.137a4.629,4.629,0,0,1,2.5-.668A4.637,4.637,0,0,1,12.29,4.523,4.326,4.326,0,0,1,13.68,7.484H11.337a2.376,2.376,0,0,0-.613-1.6,2.271,2.271,0,0,0-1.605-.5,1.991,1.991,0,0,0-1.754.84,4.707,4.707,0,0,0-.6,2.605V9.7a5.038,5.038,0,0,0,.559,2.7,1.954,1.954,0,0,0,1.762.852,2.314,2.314,0,0,0,1.621-.5,2.241,2.241,0,0,0,.613-1.535Zm6.141-2.547a6.134,6.134,0,0,0-.812-.062,1.654,1.654,0,0,0-1.68.867V15H15.055V6.547h2.133l.063,1.008a2.092,2.092,0,0,1,1.883-1.164,2.366,2.366,0,0,1,.7.1Zm4.828,6.492a4.15,4.15,0,0,1-3.027-1.141,4.054,4.054,0,0,1-1.168-3.039v-.219A5.106,5.106,0,0,1,20.93,8.48a3.612,3.612,0,0,1,1.395-1.547,3.914,3.914,0,0,1,2.059-.543,3.508,3.508,0,0,1,2.73,1.094,4.444,4.444,0,0,1,1,3.1v.922H22.727a2.1,2.1,0,0,0,.66,1.328,2,2,0,0,0,1.395.5,2.437,2.437,0,0,0,2.039-.945l1.109,1.242a3.389,3.389,0,0,1-1.375,1.121A4.511,4.511,0,0,1,24.633,15.156Zm-.258-6.945a1.411,1.411,0,0,0-1.09.455,2.357,2.357,0,0,0-.535,1.3h3.141V9.788a1.681,1.681,0,0,0-.406-1.165A1.456,1.456,0,0,0,24.376,8.211Zm8.531,5.125a1.481,1.481,0,0,0,1.016-.344,1.2,1.2,0,0,0,.406-.914h2.117a2.9,2.9,0,0,1-.469,1.574,3.093,3.093,0,0,1-1.262,1.109,3.949,3.949,0,0,1-1.77.395A3.67,3.67,0,0,1,30.087,14,4.56,4.56,0,0,1,29.04,10.82v-.148a4.508,4.508,0,0,1,1.039-3.117A3.627,3.627,0,0,1,32.93,6.391a3.555,3.555,0,0,1,2.543.9,3.2,3.2,0,0,1,.973,2.4H34.329a1.551,1.551,0,0,0-.406-1.072,1.51,1.51,0,0,0-2.223.163,3.333,3.333,0,0,0-.4,1.866v.235a3.375,3.375,0,0,0,.4,1.878A1.377,1.377,0,0,0,32.907,13.336ZM40.118,15H37.852V6.547h2.266Zm-2.4-10.641a1.112,1.112,0,0,1,.34-.836,1.465,1.465,0,0,1,1.848,0,1.105,1.105,0,0,1,.344.836A1.108,1.108,0,0,1,39.9,5.2a1.448,1.448,0,0,1-1.836,0A1.108,1.108,0,0,1,37.719,4.359Zm6.375,2.188.07.945a2.971,2.971,0,0,1,2.43-1.1A2.255,2.255,0,0,1,48.837,7.68a2.9,2.9,0,0,1,2.539-1.289,2.521,2.521,0,0,1,2.047.8,3.681,3.681,0,0,1,.672,2.41V15H51.829V9.609a1.61,1.61,0,0,0-.281-1.051,1.246,1.246,0,0,0-.992-.332,1.409,1.409,0,0,0-1.406.969l.008,5.8H46.9V9.617a1.59,1.59,0,0,0-.289-1.062,1.259,1.259,0,0,0-.984-.328,1.463,1.463,0,0,0-1.391.8V15H41.977V6.547ZM58.212,15H55.946V6.547h2.266Zm-2.4-10.641a1.112,1.112,0,0,1,.34-.836,1.465,1.465,0,0,1,1.848,0,1.105,1.105,0,0,1,.344.836A1.108,1.108,0,0,1,58,5.2a1.448,1.448,0,0,1-1.836,0A1.108,1.108,0,0,1,55.813,4.359Zm8.148,10.8a4.15,4.15,0,0,1-3.027-1.141,4.054,4.054,0,0,1-1.168-3.039v-.219a5.106,5.106,0,0,1,.492-2.277,3.612,3.612,0,0,1,1.395-1.547,3.914,3.914,0,0,1,2.059-.543,3.508,3.508,0,0,1,2.73,1.094,4.444,4.444,0,0,1,1,3.1v.922H62.055a2.1,2.1,0,0,0,.66,1.328,2,2,0,0,0,1.395.5,2.437,2.437,0,0,0,2.039-.945l1.109,1.242a3.389,3.389,0,0,1-1.375,1.121A4.511,4.511,0,0,1,63.962,15.156ZM63.7,8.211a1.411,1.411,0,0,0-1.09.455,2.357,2.357,0,0,0-.535,1.3h3.141V9.788a1.681,1.681,0,0,0-.406-1.165A1.456,1.456,0,0,0,63.7,8.211ZM70.8,6.547l.07.977A2.951,2.951,0,0,1,73.3,6.391a2.453,2.453,0,0,1,2,.789,3.682,3.682,0,0,1,.672,2.359V15H73.712V9.594A1.465,1.465,0,0,0,73.4,8.551a1.4,1.4,0,0,0-1.039-.324,1.553,1.553,0,0,0-1.43.813V15H68.672V6.547Zm9.586-2.078V6.547h1.445V8.2H80.383v4.219a1.007,1.007,0,0,0,.18.672.9.9,0,0,0,.688.2,3.6,3.6,0,0,0,.664-.055v1.711a4.648,4.648,0,0,1-1.367.2,2.156,2.156,0,0,1-2.422-2.4V8.2H76.891V6.547h1.234V4.469ZM82.5,10.7a5.013,5.013,0,0,1,.484-2.242A3.546,3.546,0,0,1,84.379,6.93a4.069,4.069,0,0,1,2.113-.539,3.849,3.849,0,0,1,2.793,1.047,4.2,4.2,0,0,1,1.207,2.844l.016.578a4.418,4.418,0,0,1-1.086,3.121,4.209,4.209,0,0,1-5.832,0A4.5,4.5,0,0,1,82.5,10.8Zm2.258.16a3.16,3.16,0,0,0,.453,1.843,1.628,1.628,0,0,0,2.578.008,3.457,3.457,0,0,0,.461-2.015A3.128,3.128,0,0,0,87.79,8.86a1.5,1.5,0,0,0-1.3-.649,1.474,1.474,0,0,0-1.281.646A3.516,3.516,0,0,0,84.758,10.856Zm10.773-.145a5.094,5.094,0,0,1,.887-3.148,2.877,2.877,0,0,1,2.426-1.172,2.589,2.589,0,0,1,2.039.922V3h2.266V15H101.11L101,14.1a2.657,2.657,0,0,1-2.172,1.055,2.869,2.869,0,0,1-2.395-1.176A5.258,5.258,0,0,1,95.532,10.711Zm2.258.168A3.337,3.337,0,0,0,98.2,12.7a1.349,1.349,0,0,0,1.2.634,1.511,1.511,0,0,0,1.477-.884V9.111a1.489,1.489,0,0,0-1.461-.884Q97.79,8.227,97.79,10.879Zm11,4.277a4.15,4.15,0,0,1-3.027-1.141,4.054,4.054,0,0,1-1.168-3.039v-.219a5.106,5.106,0,0,1,.492-2.277,3.612,3.612,0,0,1,1.395-1.547,3.914,3.914,0,0,1,2.059-.543,3.508,3.508,0,0,1,2.73,1.094,4.444,4.444,0,0,1,1,3.1v.922h-5.383a2.1,2.1,0,0,0,.66,1.328,2,2,0,0,0,1.395.5,2.437,2.437,0,0,0,2.039-.945l1.109,1.242a3.389,3.389,0,0,1-1.375,1.121A4.511,4.511,0,0,1,108.79,15.156Zm-.258-6.945a1.411,1.411,0,0,0-1.09.455,2.357,2.357,0,0,0-.535,1.3h3.141V9.788a1.681,1.681,0,0,0-.406-1.165A1.456,1.456,0,0,0,108.532,8.211ZM115.93,15h-2.266V3h2.266Zm7.961-8.453.07.945a2.971,2.971,0,0,1,2.43-1.1,2.255,2.255,0,0,1,2.242,1.289,2.9,2.9,0,0,1,2.539-1.289,2.521,2.521,0,0,1,2.047.8,3.681,3.681,0,0,1,.672,2.41V15h-2.266V9.609a1.61,1.61,0,0,0-.281-1.051,1.246,1.246,0,0,0-.992-.332,1.409,1.409,0,0,0-1.406.969l.008,5.8H126.7V9.617a1.59,1.59,0,0,0-.289-1.062,1.259,1.259,0,0,0-.984-.328,1.463,1.463,0,0,0-1.391.8V15h-2.258V6.547Zm15.625,8.609a4.15,4.15,0,0,1-3.027-1.141,4.054,4.054,0,0,1-1.168-3.039v-.219a5.106,5.106,0,0,1,.492-2.277,3.612,3.612,0,0,1,1.395-1.547,3.914,3.914,0,0,1,2.059-.543A3.508,3.508,0,0,1,142,7.484a4.444,4.444,0,0,1,1,3.1v.922H137.61a2.1,2.1,0,0,0,.66,1.328,2,2,0,0,0,1.395.5,2.437,2.437,0,0,0,2.039-.945l1.109,1.242a3.389,3.389,0,0,1-1.375,1.121A4.511,4.511,0,0,1,139.516,15.156Zm-.258-6.945a1.411,1.411,0,0,0-1.09.455,2.357,2.357,0,0,0-.535,1.3h3.141V9.788a1.681,1.681,0,0,0-.406-1.165A1.456,1.456,0,0,0,139.258,8.211Zm9.766.453a6.134,6.134,0,0,0-.812-.062,1.654,1.654,0,0,0-1.68.867V15h-2.258V6.547h2.133l.063,1.008a2.092,2.092,0,0,1,1.883-1.164,2.366,2.366,0,0,1,.7.1Zm4.453,4.672a1.481,1.481,0,0,0,1.016-.344,1.2,1.2,0,0,0,.406-.914h2.117a2.9,2.9,0,0,1-.469,1.574,3.093,3.093,0,0,1-1.262,1.109,3.949,3.949,0,0,1-1.77.395A3.67,3.67,0,0,1,150.657,14a4.56,4.56,0,0,1-1.047-3.184v-.148a4.508,4.508,0,0,1,1.039-3.117A3.627,3.627,0,0,1,153.5,6.391a3.555,3.555,0,0,1,2.543.9,3.2,3.2,0,0,1,.973,2.4H154.9a1.551,1.551,0,0,0-.406-1.072,1.51,1.51,0,0,0-2.223.163,3.333,3.333,0,0,0-.4,1.866v.235a3.375,3.375,0,0,0,.4,1.878A1.377,1.377,0,0,0,153.477,13.336ZM163.2,15a2.507,2.507,0,0,1-.227-.758,2.732,2.732,0,0,1-2.133.914,3,3,0,0,1-2.059-.719,2.312,2.312,0,0,1-.816-1.812,2.389,2.389,0,0,1,1-2.062,4.915,4.915,0,0,1,2.879-.727h1.039V9.352a1.393,1.393,0,0,0-.3-.937,1.183,1.183,0,0,0-.949-.352,1.345,1.345,0,0,0-.895.273.929.929,0,0,0-.324.75h-2.258a2.268,2.268,0,0,1,.453-1.359,3,3,0,0,1,1.281-.98,4.669,4.669,0,0,1,1.859-.355,3.689,3.689,0,0,1,2.48.785,2.747,2.747,0,0,1,.918,2.207v3.664a4.041,4.041,0,0,0,.336,1.82V15Zm-1.867-1.57a1.945,1.945,0,0,0,.922-.223,1.462,1.462,0,0,0,.625-.6V11.156h-.844q-1.7,0-1.8,1.172l-.008.133a.9.9,0,0,0,.3.7A1.153,1.153,0,0,0,161.337,13.43Zm5.2-2.719a5.094,5.094,0,0,1,.887-3.148,2.877,2.877,0,0,1,2.426-1.172,2.589,2.589,0,0,1,2.039.922V3h2.266V15H172.11L172,14.1a2.657,2.657,0,0,1-2.172,1.055,2.869,2.869,0,0,1-2.395-1.176A5.258,5.258,0,0,1,166.532,10.711Zm2.258.168A3.337,3.337,0,0,0,169.2,12.7a1.349,1.349,0,0,0,1.2.634,1.511,1.511,0,0,0,1.477-.884V9.111a1.489,1.489,0,0,0-1.461-.884Q168.79,8.227,168.79,10.879Zm6.758-.184a5.013,5.013,0,0,1,.484-2.242,3.546,3.546,0,0,1,1.395-1.523,4.069,4.069,0,0,1,2.113-.539,3.849,3.849,0,0,1,2.793,1.047,4.2,4.2,0,0,1,1.207,2.844l.016.578a4.418,4.418,0,0,1-1.086,3.121,4.209,4.209,0,0,1-5.832,0,4.5,4.5,0,0,1-1.09-3.187Zm2.258.16a3.16,3.16,0,0,0,.453,1.843,1.628,1.628,0,0,0,2.578.008,3.457,3.457,0,0,0,.461-2.015,3.128,3.128,0,0,0-.461-1.831,1.5,1.5,0,0,0-1.3-.649,1.474,1.474,0,0,0-1.281.646A3.516,3.516,0,0,0,177.805,10.856Z" transform="translate(-75.17 442.289) rotate(-90)" fill="#12263f"/>
    <path id="Trazado_612162" data-name="Trazado 612162" d="M11.69,11.211A4.025,4.025,0,0,1,10.335,14.1a4.76,4.76,0,0,1-3.223,1.055,4.28,4.28,0,0,1-3.441-1.473A6.038,6.038,0,0,1,2.417,9.641v-.7a6.819,6.819,0,0,1,.578-2.891A4.332,4.332,0,0,1,4.647,4.137a4.629,4.629,0,0,1,2.5-.668,4.637,4.637,0,0,1,3.172,1.055,4.326,4.326,0,0,1,1.391,2.961H9.362a2.376,2.376,0,0,0-.613-1.6,2.271,2.271,0,0,0-1.605-.5,1.991,1.991,0,0,0-1.754.84,4.707,4.707,0,0,0-.6,2.605V9.7a5.038,5.038,0,0,0,.559,2.7,1.954,1.954,0,0,0,1.762.852,2.314,2.314,0,0,0,1.621-.5,2.241,2.241,0,0,0,.613-1.535Zm6.453,2.93a2.831,2.831,0,0,1-2.313,1.016,2.67,2.67,0,0,1-2.074-.781,3.335,3.335,0,0,1-.73-2.289V6.547h2.258v5.467q0,1.322,1.2,1.322a1.63,1.63,0,0,0,1.578-.8V6.547h2.266V15H18.206ZM21.682,10.7a5.013,5.013,0,0,1,.484-2.242A3.546,3.546,0,0,1,23.561,6.93a4.069,4.069,0,0,1,2.113-.539,3.849,3.849,0,0,1,2.793,1.047,4.2,4.2,0,0,1,1.207,2.844l.016.578A4.418,4.418,0,0,1,28.6,13.98a3.775,3.775,0,0,1-2.914,1.176,3.793,3.793,0,0,1-2.918-1.172,4.5,4.5,0,0,1-1.09-3.187Zm2.258.16a3.16,3.16,0,0,0,.453,1.843,1.628,1.628,0,0,0,2.578.008,3.457,3.457,0,0,0,.461-2.015,3.128,3.128,0,0,0-.461-1.831,1.5,1.5,0,0,0-1.3-.649,1.474,1.474,0,0,0-1.281.646A3.516,3.516,0,0,0,23.94,10.856Zm9.844-6.387V6.547h1.445V8.2H33.784v4.219a1.007,1.007,0,0,0,.18.672.9.9,0,0,0,.688.2,3.6,3.6,0,0,0,.664-.055v1.711a4.648,4.648,0,0,1-1.367.2,2.156,2.156,0,0,1-2.422-2.4V8.2H30.292V6.547h1.234V4.469ZM41.385,15a2.507,2.507,0,0,1-.227-.758,2.732,2.732,0,0,1-2.133.914,3,3,0,0,1-2.059-.719,2.312,2.312,0,0,1-.816-1.812,2.389,2.389,0,0,1,1-2.062,4.915,4.915,0,0,1,2.879-.727h1.039V9.352a1.393,1.393,0,0,0-.3-.937,1.183,1.183,0,0,0-.949-.352,1.345,1.345,0,0,0-.895.273.929.929,0,0,0-.324.75H36.339a2.268,2.268,0,0,1,.453-1.359,3,3,0,0,1,1.281-.98,4.669,4.669,0,0,1,1.859-.355,3.689,3.689,0,0,1,2.48.785,2.747,2.747,0,0,1,.918,2.207v3.664a4.041,4.041,0,0,0,.336,1.82V15Zm-1.867-1.57a1.945,1.945,0,0,0,.922-.223,1.462,1.462,0,0,0,.625-.6V11.156h-.844q-1.7,0-1.8,1.172l-.008.133a.9.9,0,0,0,.3.7A1.153,1.153,0,0,0,39.518,13.43Zm9.18-2.719a5.094,5.094,0,0,1,.887-3.148A2.877,2.877,0,0,1,52.01,6.391a2.589,2.589,0,0,1,2.039.922V3h2.266V15H54.276l-.109-.9a2.657,2.657,0,0,1-2.172,1.055A2.869,2.869,0,0,1,49.6,13.98,5.258,5.258,0,0,1,48.7,10.711Zm2.258.168A3.337,3.337,0,0,0,51.37,12.7a1.349,1.349,0,0,0,1.2.634,1.511,1.511,0,0,0,1.477-.884V9.111a1.489,1.489,0,0,0-1.461-.884Q50.956,8.227,50.956,10.879Zm11,4.277a4.15,4.15,0,0,1-3.027-1.141,4.054,4.054,0,0,1-1.168-3.039v-.219a5.106,5.106,0,0,1,.492-2.277,3.612,3.612,0,0,1,1.395-1.547,3.914,3.914,0,0,1,2.059-.543,3.508,3.508,0,0,1,2.73,1.094,4.444,4.444,0,0,1,1,3.1v.922H60.05a2.1,2.1,0,0,0,.66,1.328,2,2,0,0,0,1.395.5,2.437,2.437,0,0,0,2.039-.945l1.109,1.242a3.389,3.389,0,0,1-1.375,1.121A4.511,4.511,0,0,1,61.956,15.156ZM61.7,8.211a1.411,1.411,0,0,0-1.09.455,2.357,2.357,0,0,0-.535,1.3h3.141V9.788a1.681,1.681,0,0,0-.406-1.165A1.456,1.456,0,0,0,61.7,8.211ZM69.1,15H66.831V3H69.1Zm7.961-8.453.07.945a2.971,2.971,0,0,1,2.43-1.1A2.255,2.255,0,0,1,81.8,7.68a2.9,2.9,0,0,1,2.539-1.289,2.521,2.521,0,0,1,2.047.8,3.681,3.681,0,0,1,.672,2.41V15H84.792V9.609a1.61,1.61,0,0,0-.281-1.051,1.246,1.246,0,0,0-.992-.332,1.409,1.409,0,0,0-1.406.969L82.12,15H79.862V9.617a1.59,1.59,0,0,0-.289-1.062,1.259,1.259,0,0,0-.984-.328,1.463,1.463,0,0,0-1.391.8V15H74.94V6.547Zm15.625,8.609a4.15,4.15,0,0,1-3.027-1.141,4.054,4.054,0,0,1-1.168-3.039v-.219a5.106,5.106,0,0,1,.492-2.277,3.612,3.612,0,0,1,1.395-1.547,3.914,3.914,0,0,1,2.059-.543,3.508,3.508,0,0,1,2.73,1.094,4.444,4.444,0,0,1,1,3.1v.922H90.776a2.1,2.1,0,0,0,.66,1.328,2,2,0,0,0,1.395.5,2.437,2.437,0,0,0,2.039-.945l1.109,1.242A3.389,3.389,0,0,1,94.6,14.754,4.511,4.511,0,0,1,92.682,15.156Zm-.258-6.945a1.411,1.411,0,0,0-1.09.455,2.357,2.357,0,0,0-.535,1.3H93.94V9.788a1.681,1.681,0,0,0-.406-1.165A1.456,1.456,0,0,0,92.425,8.211Zm9.766.453a6.134,6.134,0,0,0-.812-.062,1.654,1.654,0,0,0-1.68.867V15H97.44V6.547h2.133l.063,1.008a2.092,2.092,0,0,1,1.883-1.164,2.366,2.366,0,0,1,.7.1Zm4.453,4.672a1.481,1.481,0,0,0,1.016-.344,1.2,1.2,0,0,0,.406-.914h2.117a2.9,2.9,0,0,1-.469,1.574,3.093,3.093,0,0,1-1.262,1.109,3.949,3.949,0,0,1-1.77.395A3.67,3.67,0,0,1,103.823,14a4.56,4.56,0,0,1-1.047-3.184v-.148a4.508,4.508,0,0,1,1.039-3.117,3.627,3.627,0,0,1,2.852-1.164,3.555,3.555,0,0,1,2.543.9,3.2,3.2,0,0,1,.973,2.4h-2.117a1.551,1.551,0,0,0-.406-1.072,1.51,1.51,0,0,0-2.223.163,3.333,3.333,0,0,0-.4,1.866v.235a3.375,3.375,0,0,0,.4,1.878A1.377,1.377,0,0,0,106.643,13.336ZM116.37,15a2.507,2.507,0,0,1-.227-.758,2.732,2.732,0,0,1-2.133.914,3,3,0,0,1-2.059-.719,2.312,2.312,0,0,1-.816-1.812,2.389,2.389,0,0,1,1-2.062,4.915,4.915,0,0,1,2.879-.727h1.039V9.352a1.393,1.393,0,0,0-.3-.937,1.183,1.183,0,0,0-.949-.352,1.345,1.345,0,0,0-.895.273.929.929,0,0,0-.324.75h-2.258a2.268,2.268,0,0,1,.453-1.359,3,3,0,0,1,1.281-.98,4.669,4.669,0,0,1,1.859-.355,3.689,3.689,0,0,1,2.48.785,2.747,2.747,0,0,1,.918,2.207v3.664a4.041,4.041,0,0,0,.336,1.82V15ZM114.5,13.43a1.945,1.945,0,0,0,.922-.223,1.462,1.462,0,0,0,.625-.6V11.156h-.844q-1.7,0-1.8,1.172l-.008.133a.9.9,0,0,0,.3.7A1.153,1.153,0,0,0,114.5,13.43Zm5.2-2.719a5.094,5.094,0,0,1,.887-3.148,2.877,2.877,0,0,1,2.426-1.172,2.589,2.589,0,0,1,2.039.922V3h2.266V15h-2.039l-.109-.9a2.657,2.657,0,0,1-2.172,1.055A2.869,2.869,0,0,1,120.6,13.98,5.258,5.258,0,0,1,119.7,10.711Zm2.258.168a3.337,3.337,0,0,0,.414,1.823,1.349,1.349,0,0,0,1.2.634,1.511,1.511,0,0,0,1.477-.884V9.111a1.489,1.489,0,0,0-1.461-.884Q121.956,8.227,121.956,10.879Zm6.758-.184a5.013,5.013,0,0,1,.484-2.242,3.546,3.546,0,0,1,1.395-1.523,4.069,4.069,0,0,1,2.113-.539A3.849,3.849,0,0,1,135.5,7.438a4.2,4.2,0,0,1,1.207,2.844l.016.578a4.418,4.418,0,0,1-1.086,3.121,4.209,4.209,0,0,1-5.832,0,4.5,4.5,0,0,1-1.09-3.187Zm2.258.16a3.16,3.16,0,0,0,.453,1.843,1.628,1.628,0,0,0,2.578.008,3.457,3.457,0,0,0,.461-2.015A3.128,3.128,0,0,0,134,8.86a1.5,1.5,0,0,0-1.3-.649,1.474,1.474,0,0,0-1.281.646A3.516,3.516,0,0,0,130.971,10.856Zm15.875-2.192a6.134,6.134,0,0,0-.812-.062,1.654,1.654,0,0,0-1.68.867V15H142.1V6.547h2.133l.063,1.008a2.092,2.092,0,0,1,1.883-1.164,2.366,2.366,0,0,1,.7.1Zm4.828,6.492a4.15,4.15,0,0,1-3.027-1.141,4.054,4.054,0,0,1-1.168-3.039v-.219a5.106,5.106,0,0,1,.492-2.277,3.612,3.612,0,0,1,1.395-1.547,3.914,3.914,0,0,1,2.059-.543,3.508,3.508,0,0,1,2.73,1.094,4.444,4.444,0,0,1,1,3.1v.922h-5.383a2.1,2.1,0,0,0,.66,1.328,2,2,0,0,0,1.395.5,2.437,2.437,0,0,0,2.039-.945l1.109,1.242a3.389,3.389,0,0,1-1.375,1.121A4.511,4.511,0,0,1,151.674,15.156Zm-.258-6.945a1.411,1.411,0,0,0-1.09.455,2.357,2.357,0,0,0-.535,1.3h3.141V9.788a1.681,1.681,0,0,0-.406-1.165A1.456,1.456,0,0,0,151.417,8.211Zm7.4,6.789h-2.266V3h2.266Zm6.758,0a2.507,2.507,0,0,1-.227-.758,2.732,2.732,0,0,1-2.133.914,3,3,0,0,1-2.059-.719,2.312,2.312,0,0,1-.816-1.812,2.389,2.389,0,0,1,1-2.062,4.915,4.915,0,0,1,2.879-.727h1.039V9.352a1.393,1.393,0,0,0-.3-.937A1.183,1.183,0,0,0,164,8.063a1.345,1.345,0,0,0-.895.273.929.929,0,0,0-.324.75h-2.258a2.268,2.268,0,0,1,.453-1.359,3,3,0,0,1,1.281-.98,4.669,4.669,0,0,1,1.859-.355,3.689,3.689,0,0,1,2.48.785,2.747,2.747,0,0,1,.918,2.207v3.664a4.041,4.041,0,0,0,.336,1.82V15Zm-1.867-1.57a1.945,1.945,0,0,0,.922-.223,1.462,1.462,0,0,0,.625-.6V11.156h-.844q-1.7,0-1.8,1.172l-.008.133a.9.9,0,0,0,.3.7A1.153,1.153,0,0,0,163.706,13.43Zm8.25-8.961V6.547H173.4V8.2h-1.445v4.219a1.007,1.007,0,0,0,.18.672.9.9,0,0,0,.688.2,3.6,3.6,0,0,0,.664-.055v1.711a4.648,4.648,0,0,1-1.367.2,2.156,2.156,0,0,1-2.422-2.4V8.2h-1.234V6.547H169.7V4.469ZM177.042,15h-2.266V6.547h2.266Zm-2.4-10.641a1.112,1.112,0,0,1,.34-.836,1.465,1.465,0,0,1,1.848,0,1.105,1.105,0,0,1,.344.836,1.109,1.109,0,0,1-.348.844,1.448,1.448,0,0,1-1.836,0A1.109,1.109,0,0,1,174.643,4.359Zm7.422,7.883,1.57-5.7h2.359L183.143,15h-2.156l-2.852-8.453h2.359Zm4.453-1.547A5.013,5.013,0,0,1,187,8.453,3.546,3.546,0,0,1,188.4,6.93a4.069,4.069,0,0,1,2.113-.539A3.849,3.849,0,0,1,193.3,7.438a4.2,4.2,0,0,1,1.207,2.844l.016.578a4.418,4.418,0,0,1-1.086,3.121,4.209,4.209,0,0,1-5.832,0,4.5,4.5,0,0,1-1.09-3.187Zm2.258.16a3.16,3.16,0,0,0,.453,1.843,1.628,1.628,0,0,0,2.578.008,3.457,3.457,0,0,0,.461-2.015,3.128,3.128,0,0,0-.461-1.831,1.5,1.5,0,0,0-1.3-.649,1.474,1.474,0,0,0-1.281.646A3.516,3.516,0,0,0,188.776,10.856Z" transform="translate(318.761 -65.62)" fill="#12263f"/>
    <path id="Trazado_612164" data-name="Trazado 612164" d="M36.436,10.07h-4.5v3.047h5.281V15H29.592V3.625H37.2v1.9H31.936V8.234h4.5Zm6.586,2.594a.727.727,0,0,0-.41-.652,4.659,4.659,0,0,0-1.316-.426q-3.016-.633-3.016-2.562a2.323,2.323,0,0,1,.934-1.879,3.766,3.766,0,0,1,2.441-.754,4.053,4.053,0,0,1,2.574.758,2.388,2.388,0,0,1,.965,1.969H42.936a1.092,1.092,0,0,0-.312-.8A1.322,1.322,0,0,0,41.647,8a1.351,1.351,0,0,0-.883.258.814.814,0,0,0-.312.656.7.7,0,0,0,.355.605,3.657,3.657,0,0,0,1.2.4,9.8,9.8,0,0,1,1.422.379,2.336,2.336,0,0,1,1.789,2.273,2.2,2.2,0,0,1-.992,1.871,4.28,4.28,0,0,1-2.562.715,4.47,4.47,0,0,1-1.887-.379,3.166,3.166,0,0,1-1.293-1.039,2.414,2.414,0,0,1-.469-1.426h2.141a1.179,1.179,0,0,0,.445.922,1.766,1.766,0,0,0,1.109.32,1.635,1.635,0,0,0,.98-.246A.766.766,0,0,0,43.022,12.664Zm6.352-8.2V6.547h1.445V8.2H49.374v4.219a1.007,1.007,0,0,0,.18.672.9.9,0,0,0,.688.2,3.6,3.6,0,0,0,.664-.055v1.711a4.648,4.648,0,0,1-1.367.2,2.156,2.156,0,0,1-2.422-2.4V8.2H45.882V6.547h1.234V4.469Zm7.453,4.2a6.134,6.134,0,0,0-.812-.062,1.654,1.654,0,0,0-1.68.867V15H52.077V6.547H54.21l.063,1.008a2.092,2.092,0,0,1,1.883-1.164,2.366,2.366,0,0,1,.7.1Zm4.828,6.492a4.15,4.15,0,0,1-3.027-1.141,4.054,4.054,0,0,1-1.168-3.039v-.219a5.106,5.106,0,0,1,.492-2.277,3.612,3.612,0,0,1,1.395-1.547A3.914,3.914,0,0,1,61.4,6.391a3.508,3.508,0,0,1,2.73,1.094,4.444,4.444,0,0,1,1,3.1v.922H59.749a2.1,2.1,0,0,0,.66,1.328,2,2,0,0,0,1.395.5,2.437,2.437,0,0,0,2.039-.945l1.109,1.242a3.389,3.389,0,0,1-1.375,1.121A4.511,4.511,0,0,1,61.655,15.156ZM61.4,8.211a1.411,1.411,0,0,0-1.09.455,2.357,2.357,0,0,0-.535,1.3h3.141V9.788a1.681,1.681,0,0,0-.406-1.165A1.456,1.456,0,0,0,61.4,8.211ZM68.8,15H66.53V3H68.8Zm4.242,0H70.772V3h2.266ZM79.8,15a2.507,2.507,0,0,1-.227-.758,2.732,2.732,0,0,1-2.133.914,3,3,0,0,1-2.059-.719,2.312,2.312,0,0,1-.816-1.812,2.389,2.389,0,0,1,1-2.062,4.915,4.915,0,0,1,2.879-.727h1.039V9.352a1.393,1.393,0,0,0-.3-.937,1.183,1.183,0,0,0-.949-.352,1.345,1.345,0,0,0-.895.273.929.929,0,0,0-.324.75H74.749A2.268,2.268,0,0,1,75.2,7.727a3,3,0,0,1,1.281-.98,4.669,4.669,0,0,1,1.859-.355,3.689,3.689,0,0,1,2.48.785,2.747,2.747,0,0,1,.918,2.207v3.664a4.041,4.041,0,0,0,.336,1.82V15Zm-1.867-1.57a1.945,1.945,0,0,0,.922-.223,1.462,1.462,0,0,0,.625-.6V11.156h-.844q-1.7,0-1.8,1.172l-.008.133a.9.9,0,0,0,.3.7A1.153,1.153,0,0,0,77.928,13.43ZM91.35,15.156a4.15,4.15,0,0,1-3.027-1.141,4.054,4.054,0,0,1-1.168-3.039v-.219a5.106,5.106,0,0,1,.492-2.277,3.612,3.612,0,0,1,1.395-1.547A3.914,3.914,0,0,1,91.1,6.391a3.508,3.508,0,0,1,2.73,1.094,4.444,4.444,0,0,1,1,3.1v.922H89.444a2.1,2.1,0,0,0,.66,1.328,2,2,0,0,0,1.395.5,2.437,2.437,0,0,0,2.039-.945l1.109,1.242a3.389,3.389,0,0,1-1.375,1.121A4.511,4.511,0,0,1,91.35,15.156Zm-.258-6.945A1.411,1.411,0,0,0,90,8.666a2.357,2.357,0,0,0-.535,1.3h3.141V9.788A1.681,1.681,0,0,0,92.2,8.623,1.456,1.456,0,0,0,91.092,8.211Zm7.094-1.664.07.977a2.951,2.951,0,0,1,2.43-1.133,2.453,2.453,0,0,1,2,.789,3.682,3.682,0,0,1,.672,2.359V15H101.1V9.594a1.465,1.465,0,0,0-.312-1.043,1.4,1.4,0,0,0-1.039-.324,1.553,1.553,0,0,0-1.43.813V15H96.061V6.547ZM113.952,15a2.507,2.507,0,0,1-.227-.758,2.732,2.732,0,0,1-2.133.914,3,3,0,0,1-2.059-.719,2.312,2.312,0,0,1-.816-1.812,2.389,2.389,0,0,1,1-2.062,4.915,4.915,0,0,1,2.879-.727h1.039V9.352a1.393,1.393,0,0,0-.3-.937,1.183,1.183,0,0,0-.949-.352,1.345,1.345,0,0,0-.895.273.929.929,0,0,0-.324.75H108.9a2.268,2.268,0,0,1,.453-1.359,3,3,0,0,1,1.281-.98,4.669,4.669,0,0,1,1.859-.355,3.689,3.689,0,0,1,2.48.785,2.747,2.747,0,0,1,.918,2.207v3.664a4.041,4.041,0,0,0,.336,1.82V15Zm-1.867-1.57a1.945,1.945,0,0,0,.922-.223,1.462,1.462,0,0,0,.625-.6V11.156h-.844q-1.7,0-1.8,1.172l-.008.133a.9.9,0,0,0,.3.7A1.153,1.153,0,0,0,112.085,13.43Zm10.125-.766a.727.727,0,0,0-.41-.652,4.659,4.659,0,0,0-1.316-.426q-3.016-.633-3.016-2.562a2.323,2.323,0,0,1,.934-1.879,3.766,3.766,0,0,1,2.441-.754,4.053,4.053,0,0,1,2.574.758,2.388,2.388,0,0,1,.965,1.969h-2.258a1.092,1.092,0,0,0-.312-.8A1.322,1.322,0,0,0,120.835,8a1.351,1.351,0,0,0-.883.258.814.814,0,0,0-.312.656.7.7,0,0,0,.355.605,3.657,3.657,0,0,0,1.2.4,9.8,9.8,0,0,1,1.422.379A2.336,2.336,0,0,1,124.4,12.57a2.2,2.2,0,0,1-.992,1.871,4.28,4.28,0,0,1-2.562.715,4.47,4.47,0,0,1-1.887-.379,3.166,3.166,0,0,1-1.293-1.039,2.414,2.414,0,0,1-.469-1.426h2.141a1.179,1.179,0,0,0,.445.922,1.766,1.766,0,0,0,1.109.32,1.635,1.635,0,0,0,.98-.246A.766.766,0,0,0,122.21,12.664Zm7.164.672a1.481,1.481,0,0,0,1.016-.344,1.2,1.2,0,0,0,.406-.914h2.117a2.9,2.9,0,0,1-.469,1.574,3.093,3.093,0,0,1-1.262,1.109,3.949,3.949,0,0,1-1.77.395A3.67,3.67,0,0,1,126.553,14a4.56,4.56,0,0,1-1.047-3.184v-.148a4.508,4.508,0,0,1,1.039-3.117A3.627,3.627,0,0,1,129.4,6.391a3.555,3.555,0,0,1,2.543.9,3.2,3.2,0,0,1,.973,2.4H130.8a1.551,1.551,0,0,0-.406-1.072,1.51,1.51,0,0,0-2.223.163,3.333,3.333,0,0,0-.4,1.866v.235a3.375,3.375,0,0,0,.4,1.878A1.377,1.377,0,0,0,129.374,13.336Zm8.719,1.82a4.15,4.15,0,0,1-3.027-1.141,4.054,4.054,0,0,1-1.168-3.039v-.219a5.106,5.106,0,0,1,.492-2.277,3.612,3.612,0,0,1,1.395-1.547,3.914,3.914,0,0,1,2.059-.543,3.508,3.508,0,0,1,2.73,1.094,4.444,4.444,0,0,1,1,3.1v.922h-5.383a2.1,2.1,0,0,0,.66,1.328,2,2,0,0,0,1.395.5,2.437,2.437,0,0,0,2.039-.945l1.109,1.242a3.389,3.389,0,0,1-1.375,1.121A4.511,4.511,0,0,1,138.092,15.156Zm-.258-6.945a1.411,1.411,0,0,0-1.09.455,2.357,2.357,0,0,0-.535,1.3h3.141V9.788a1.681,1.681,0,0,0-.406-1.165A1.456,1.456,0,0,0,137.835,8.211Zm7.094-1.664.07.977a2.951,2.951,0,0,1,2.43-1.133,2.453,2.453,0,0,1,2,.789,3.682,3.682,0,0,1,.672,2.359V15h-2.258V9.594a1.465,1.465,0,0,0-.312-1.043,1.4,1.4,0,0,0-1.039-.324,1.553,1.553,0,0,0-1.43.813V15H142.8V6.547Zm11.461,6.117a.727.727,0,0,0-.41-.652,4.659,4.659,0,0,0-1.316-.426q-3.016-.633-3.016-2.562a2.323,2.323,0,0,1,.934-1.879,3.766,3.766,0,0,1,2.441-.754,4.053,4.053,0,0,1,2.574.758,2.388,2.388,0,0,1,.965,1.969H156.3a1.092,1.092,0,0,0-.312-.8A1.322,1.322,0,0,0,155.014,8a1.351,1.351,0,0,0-.883.258.814.814,0,0,0-.312.656.7.7,0,0,0,.355.605,3.657,3.657,0,0,0,1.2.4,9.8,9.8,0,0,1,1.422.379,2.336,2.336,0,0,1,1.789,2.273,2.205,2.205,0,0,1-.992,1.871,4.28,4.28,0,0,1-2.562.715,4.47,4.47,0,0,1-1.887-.379,3.166,3.166,0,0,1-1.293-1.039,2.414,2.414,0,0,1-.469-1.426h2.141a1.179,1.179,0,0,0,.445.922,1.766,1.766,0,0,0,1.109.32,1.635,1.635,0,0,0,.98-.246A.766.766,0,0,0,156.389,12.664Zm3.3-1.969a5.013,5.013,0,0,1,.484-2.242,3.546,3.546,0,0,1,1.395-1.523,4.069,4.069,0,0,1,2.113-.539,3.849,3.849,0,0,1,2.793,1.047,4.2,4.2,0,0,1,1.207,2.844l.016.578a4.418,4.418,0,0,1-1.086,3.121,4.209,4.209,0,0,1-5.832,0,4.5,4.5,0,0,1-1.09-3.187Zm2.258.16A3.16,3.16,0,0,0,162.4,12.7a1.628,1.628,0,0,0,2.578.008,3.457,3.457,0,0,0,.461-2.015,3.128,3.128,0,0,0-.461-1.831,1.5,1.5,0,0,0-1.3-.649,1.474,1.474,0,0,0-1.281.646A3.516,3.516,0,0,0,161.944,10.856Z" transform="translate(21.945 92.425)" fill="#12263f"/>
    <path id="Trazado_612166" data-name="Trazado 612166" d="M85.815,12.18l2.578-8.555H91L87.042,15H84.6L80.651,3.625h2.6ZM96.464,15a2.507,2.507,0,0,1-.227-.758,2.732,2.732,0,0,1-2.133.914,3,3,0,0,1-2.059-.719,2.312,2.312,0,0,1-.816-1.812,2.389,2.389,0,0,1,1-2.062A4.915,4.915,0,0,1,95.1,9.836h1.039V9.352a1.393,1.393,0,0,0-.3-.937,1.183,1.183,0,0,0-.949-.352A1.345,1.345,0,0,0,94,8.336a.929.929,0,0,0-.324.75H91.417a2.268,2.268,0,0,1,.453-1.359,3,3,0,0,1,1.281-.98,4.669,4.669,0,0,1,1.859-.355,3.689,3.689,0,0,1,2.48.785,2.747,2.747,0,0,1,.918,2.207v3.664a4.041,4.041,0,0,0,.336,1.82V15ZM94.6,13.43a1.945,1.945,0,0,0,.922-.223,1.462,1.462,0,0,0,.625-.6V11.156H95.3q-1.7,0-1.8,1.172l-.008.133a.9.9,0,0,0,.3.7A1.153,1.153,0,0,0,94.6,13.43Zm9.063-.094a1.481,1.481,0,0,0,1.016-.344,1.2,1.2,0,0,0,.406-.914H107.2a2.9,2.9,0,0,1-.469,1.574,3.093,3.093,0,0,1-1.262,1.109,3.949,3.949,0,0,1-1.77.395A3.67,3.67,0,0,1,100.839,14a4.56,4.56,0,0,1-1.047-3.184v-.148a4.508,4.508,0,0,1,1.039-3.117,3.627,3.627,0,0,1,2.852-1.164,3.555,3.555,0,0,1,2.543.9,3.2,3.2,0,0,1,.973,2.4h-2.117a1.551,1.551,0,0,0-.406-1.072,1.51,1.51,0,0,0-2.223.163,3.333,3.333,0,0,0-.4,1.866v.235a3.375,3.375,0,0,0,.4,1.878A1.377,1.377,0,0,0,103.659,13.336ZM113.385,15a2.507,2.507,0,0,1-.227-.758,2.732,2.732,0,0,1-2.133.914,3,3,0,0,1-2.059-.719,2.312,2.312,0,0,1-.816-1.812,2.389,2.389,0,0,1,1-2.062,4.915,4.915,0,0,1,2.879-.727h1.039V9.352a1.393,1.393,0,0,0-.3-.937,1.183,1.183,0,0,0-.949-.352,1.345,1.345,0,0,0-.895.273.929.929,0,0,0-.324.75h-2.258a2.268,2.268,0,0,1,.453-1.359,3,3,0,0,1,1.281-.98,4.669,4.669,0,0,1,1.859-.355,3.689,3.689,0,0,1,2.48.785,2.747,2.747,0,0,1,.918,2.207v3.664a4.041,4.041,0,0,0,.336,1.82V15Zm-1.867-1.57a1.945,1.945,0,0,0,.922-.223,1.462,1.462,0,0,0,.625-.6V11.156h-.844q-1.7,0-1.8,1.172l-.008.133a.9.9,0,0,0,.3.7A1.153,1.153,0,0,0,111.518,13.43Z" transform="translate(21.945 305.427)" fill="#12263f"/>
    <path id="Trazado_612163" data-name="Trazado 612163" d="M21.6,12.016A1.2,1.2,0,0,0,21.135,11a6.148,6.148,0,0,0-1.687-.75,11.963,11.963,0,0,1-1.93-.777,3.153,3.153,0,0,1-1.938-2.82A2.747,2.747,0,0,1,16.1,5a3.389,3.389,0,0,1,1.492-1.129,5.616,5.616,0,0,1,2.184-.406,5.112,5.112,0,0,1,2.172.441,3.458,3.458,0,0,1,1.48,1.246,3.261,3.261,0,0,1,.527,1.828H21.612A1.534,1.534,0,0,0,21.12,5.77a2.023,2.023,0,0,0-1.383-.434A2.162,2.162,0,0,0,18.4,5.7a1.146,1.146,0,0,0-.477.957,1.1,1.1,0,0,0,.559.93,6.311,6.311,0,0,0,1.645.7,7.106,7.106,0,0,1,2.914,1.492A2.972,2.972,0,0,1,23.956,12a2.737,2.737,0,0,1-1.117,2.316,4.891,4.891,0,0,1-3.008.84,5.808,5.808,0,0,1-2.391-.48A3.783,3.783,0,0,1,15.8,13.359a3.371,3.371,0,0,1-.566-1.937h2.352q0,1.883,2.25,1.883a2.189,2.189,0,0,0,1.3-.34A1.106,1.106,0,0,0,21.6,12.016ZM27.776,15H25.51V6.547h2.266Zm-2.4-10.641a1.112,1.112,0,0,1,.34-.836,1.465,1.465,0,0,1,1.848,0,1.105,1.105,0,0,1,.344.836,1.108,1.108,0,0,1-.348.844,1.448,1.448,0,0,1-1.836,0A1.108,1.108,0,0,1,25.378,4.359Zm6.961.109V6.547h1.445V8.2H32.339v4.219a1.007,1.007,0,0,0,.18.672.9.9,0,0,0,.688.2,3.6,3.6,0,0,0,.664-.055v1.711a4.648,4.648,0,0,1-1.367.2,2.156,2.156,0,0,1-2.422-2.4V8.2H28.846V6.547h1.234V4.469ZM40.1,14.141a2.831,2.831,0,0,1-2.312,1.016,2.67,2.67,0,0,1-2.074-.781,3.335,3.335,0,0,1-.73-2.289V6.547h2.258v5.467q0,1.322,1.2,1.322a1.63,1.63,0,0,0,1.578-.8V6.547h2.266V15H40.167ZM48.893,15a2.507,2.507,0,0,1-.227-.758,2.732,2.732,0,0,1-2.133.914,3,3,0,0,1-2.059-.719,2.312,2.312,0,0,1-.816-1.812,2.389,2.389,0,0,1,1-2.062,4.915,4.915,0,0,1,2.879-.727h1.039V9.352a1.393,1.393,0,0,0-.3-.937,1.183,1.183,0,0,0-.949-.352,1.345,1.345,0,0,0-.895.273.929.929,0,0,0-.324.75H43.846A2.268,2.268,0,0,1,44.3,7.727a3,3,0,0,1,1.281-.98,4.669,4.669,0,0,1,1.859-.355,3.689,3.689,0,0,1,2.48.785,2.747,2.747,0,0,1,.918,2.207v3.664a4.041,4.041,0,0,0,.336,1.82V15Zm-1.867-1.57a1.945,1.945,0,0,0,.922-.223,1.462,1.462,0,0,0,.625-.6V11.156h-.844q-1.7,0-1.8,1.172l-.008.133a.9.9,0,0,0,.3.7A1.153,1.153,0,0,0,47.026,13.43Zm9.063-.094a1.481,1.481,0,0,0,1.016-.344,1.2,1.2,0,0,0,.406-.914h2.117a2.9,2.9,0,0,1-.469,1.574A3.093,3.093,0,0,1,57.9,14.762a3.949,3.949,0,0,1-1.77.395A3.67,3.67,0,0,1,53.268,14a4.56,4.56,0,0,1-1.047-3.184v-.148A4.508,4.508,0,0,1,53.26,7.555a3.627,3.627,0,0,1,2.852-1.164,3.555,3.555,0,0,1,2.543.9,3.2,3.2,0,0,1,.973,2.4H57.51A1.551,1.551,0,0,0,57.1,8.623a1.51,1.51,0,0,0-2.223.163,3.333,3.333,0,0,0-.4,1.866v.235a3.375,3.375,0,0,0,.4,1.878A1.377,1.377,0,0,0,56.089,13.336ZM63.3,15H61.034V6.547H63.3ZM60.9,4.359a1.112,1.112,0,0,1,.34-.836,1.465,1.465,0,0,1,1.848,0,1.105,1.105,0,0,1,.344.836,1.108,1.108,0,0,1-.348.844,1.448,1.448,0,0,1-1.836,0A1.108,1.108,0,0,1,60.9,4.359ZM64.807,10.7a5.013,5.013,0,0,1,.484-2.242A3.546,3.546,0,0,1,66.686,6.93,4.069,4.069,0,0,1,68.8,6.391a3.849,3.849,0,0,1,2.793,1.047A4.2,4.2,0,0,1,72.8,10.281l.016.578a4.418,4.418,0,0,1-1.086,3.121,4.209,4.209,0,0,1-5.832,0,4.5,4.5,0,0,1-1.09-3.187Zm2.258.16a3.16,3.16,0,0,0,.453,1.843,1.628,1.628,0,0,0,2.578.008,3.457,3.457,0,0,0,.461-2.015A3.128,3.128,0,0,0,70.1,8.86a1.5,1.5,0,0,0-1.3-.649,1.474,1.474,0,0,0-1.281.646A3.516,3.516,0,0,0,67.065,10.856ZM69.245,3h2.461L69.542,5.422H67.706Zm7.039,3.547.07.977a2.951,2.951,0,0,1,2.43-1.133,2.453,2.453,0,0,1,2,.789,3.682,3.682,0,0,1,.672,2.359V15H79.2V9.594a1.465,1.465,0,0,0-.312-1.043,1.4,1.4,0,0,0-1.039-.324,1.553,1.553,0,0,0-1.43.813V15H74.159V6.547Zm13.359,4.445V15H87.3V3.625h4.438a5.134,5.134,0,0,1,2.254.469,3.454,3.454,0,0,1,1.5,1.332,3.714,3.714,0,0,1,.523,1.965,3.266,3.266,0,0,1-1.145,2.637,4.767,4.767,0,0,1-3.168.965Zm0-1.9h2.094a2.059,2.059,0,0,0,1.418-.437,1.591,1.591,0,0,0,.488-1.25,1.876,1.876,0,0,0-.492-1.352,1.839,1.839,0,0,0-1.359-.531H89.643Zm12.578-.43a6.134,6.134,0,0,0-.812-.062,1.654,1.654,0,0,0-1.68.867V15H97.471V6.547H99.6l.063,1.008a2.092,2.092,0,0,1,1.883-1.164,2.366,2.366,0,0,1,.7.1Zm.453,2.031a5.013,5.013,0,0,1,.484-2.242,3.546,3.546,0,0,1,1.395-1.523,4.069,4.069,0,0,1,2.113-.539,3.849,3.849,0,0,1,2.793,1.047,4.2,4.2,0,0,1,1.207,2.844l.016.578A4.418,4.418,0,0,1,109.6,13.98a4.209,4.209,0,0,1-5.832,0,4.5,4.5,0,0,1-1.09-3.187Zm2.258.16a3.16,3.16,0,0,0,.453,1.843,1.628,1.628,0,0,0,2.578.008,3.457,3.457,0,0,0,.461-2.015,3.128,3.128,0,0,0-.461-1.831,1.5,1.5,0,0,0-1.3-.649,1.474,1.474,0,0,0-1.281.646A3.516,3.516,0,0,0,104.932,10.856Zm14.758,0a5.119,5.119,0,0,1-.867,3.168,2.872,2.872,0,0,1-2.422,1.137,2.639,2.639,0,0,1-2.2-1.055l-.1.9h-2.031V3h2.258V7.3a2.571,2.571,0,0,1,2.055-.914,2.9,2.9,0,0,1,2.426,1.137,5.126,5.126,0,0,1,.879,3.2Zm-2.258-.164a3.363,3.363,0,0,0-.406-1.871,1.374,1.374,0,0,0-1.211-.59,1.489,1.489,0,0,0-1.484.883v3.336a1.509,1.509,0,0,0,1.5.891,1.394,1.394,0,0,0,1.438-1.078A5.562,5.562,0,0,0,117.432,10.688ZM123.464,15H121.2V3h2.266Zm5.75.156a4.15,4.15,0,0,1-3.027-1.141,4.054,4.054,0,0,1-1.168-3.039v-.219a5.106,5.106,0,0,1,.492-2.277A3.612,3.612,0,0,1,126.9,6.934a3.914,3.914,0,0,1,2.059-.543,3.508,3.508,0,0,1,2.73,1.094,4.444,4.444,0,0,1,1,3.1v.922h-5.383a2.1,2.1,0,0,0,.66,1.328,2,2,0,0,0,1.395.5,2.437,2.437,0,0,0,2.039-.945l1.109,1.242a3.389,3.389,0,0,1-1.375,1.121A4.511,4.511,0,0,1,129.214,15.156Zm-.258-6.945a1.411,1.411,0,0,0-1.09.455,2.357,2.357,0,0,0-.535,1.3h3.141V9.788a1.681,1.681,0,0,0-.406-1.165A1.456,1.456,0,0,0,128.956,8.211Zm7.133-1.664.07.945a2.971,2.971,0,0,1,2.43-1.1,2.255,2.255,0,0,1,2.242,1.289,2.9,2.9,0,0,1,2.539-1.289,2.521,2.521,0,0,1,2.047.8,3.681,3.681,0,0,1,.672,2.41V15h-2.266V9.609a1.61,1.61,0,0,0-.281-1.051,1.246,1.246,0,0,0-.992-.332,1.409,1.409,0,0,0-1.406.969l.008,5.8h-2.258V9.617a1.59,1.59,0,0,0-.289-1.062,1.259,1.259,0,0,0-.984-.328,1.463,1.463,0,0,0-1.391.8V15h-2.258V6.547ZM152.721,15a2.507,2.507,0,0,1-.227-.758,2.732,2.732,0,0,1-2.133.914,3,3,0,0,1-2.059-.719,2.312,2.312,0,0,1-.816-1.812,2.389,2.389,0,0,1,1-2.062,4.915,4.915,0,0,1,2.879-.727H152.4V9.352a1.393,1.393,0,0,0-.3-.937,1.183,1.183,0,0,0-.949-.352,1.345,1.345,0,0,0-.895.273.929.929,0,0,0-.324.75h-2.258a2.268,2.268,0,0,1,.453-1.359,3,3,0,0,1,1.281-.98,4.669,4.669,0,0,1,1.859-.355,3.689,3.689,0,0,1,2.48.785,2.747,2.747,0,0,1,.918,2.207v3.664a4.041,4.041,0,0,0,.336,1.82V15Zm-1.867-1.57a1.945,1.945,0,0,0,.922-.223,1.462,1.462,0,0,0,.625-.6V11.156h-.844q-1.7,0-1.8,1.172l-.008.133a.9.9,0,0,0,.3.7A1.153,1.153,0,0,0,150.854,13.43ZM151.714,3h2.461L152.01,5.422h-1.836ZM159.1,4.469V6.547h1.445V8.2H159.1v4.219a1.007,1.007,0,0,0,.18.672.9.9,0,0,0,.688.2,3.6,3.6,0,0,0,.664-.055v1.711a4.648,4.648,0,0,1-1.367.2,2.156,2.156,0,0,1-2.422-2.4V8.2h-1.234V6.547h1.234V4.469ZM164.19,15h-2.266V6.547h2.266Zm-2.4-10.641a1.112,1.112,0,0,1,.34-.836,1.465,1.465,0,0,1,1.848,0,1.105,1.105,0,0,1,.344.836,1.109,1.109,0,0,1-.348.844,1.448,1.448,0,0,1-1.836,0A1.109,1.109,0,0,1,161.792,4.359Zm7.773,8.977a1.481,1.481,0,0,0,1.016-.344,1.2,1.2,0,0,0,.406-.914H173.1a2.9,2.9,0,0,1-.469,1.574,3.093,3.093,0,0,1-1.262,1.109,3.949,3.949,0,0,1-1.77.395A3.67,3.67,0,0,1,166.745,14,4.56,4.56,0,0,1,165.7,10.82v-.148a4.508,4.508,0,0,1,1.039-3.117,3.627,3.627,0,0,1,2.852-1.164,3.555,3.555,0,0,1,2.543.9,3.2,3.2,0,0,1,.973,2.4h-2.117a1.551,1.551,0,0,0-.406-1.072,1.51,1.51,0,0,0-2.223.163,3.333,3.333,0,0,0-.4,1.866v.235a3.375,3.375,0,0,0,.4,1.878A1.377,1.377,0,0,0,169.565,13.336ZM179.292,15a2.507,2.507,0,0,1-.227-.758,2.732,2.732,0,0,1-2.133.914,3,3,0,0,1-2.059-.719,2.312,2.312,0,0,1-.816-1.812,2.389,2.389,0,0,1,1-2.062,4.915,4.915,0,0,1,2.879-.727h1.039V9.352a1.393,1.393,0,0,0-.3-.937,1.183,1.183,0,0,0-.949-.352,1.345,1.345,0,0,0-.895.273.929.929,0,0,0-.324.75h-2.258a2.268,2.268,0,0,1,.453-1.359,3,3,0,0,1,1.281-.98,4.669,4.669,0,0,1,1.859-.355,3.689,3.689,0,0,1,2.48.785,2.747,2.747,0,0,1,.918,2.207v3.664a4.041,4.041,0,0,0,.336,1.82V15Zm-1.867-1.57a1.945,1.945,0,0,0,.922-.223,1.462,1.462,0,0,0,.625-.6V11.156h-.844q-1.7,0-1.8,1.172l-.008.133a.9.9,0,0,0,.3.7A1.153,1.153,0,0,0,177.424,13.43Z" transform="translate(274.135 92.426)" fill="#12263f"/>
    <path id="Trazado_612167" data-name="Trazado 612167" d="M82.1,10.992V15H79.76V3.625H84.2a5.134,5.134,0,0,1,2.254.469,3.454,3.454,0,0,1,1.5,1.332,3.714,3.714,0,0,1,.523,1.965,3.266,3.266,0,0,1-1.145,2.637,4.767,4.767,0,0,1-3.168.965Zm0-1.9H84.2a2.059,2.059,0,0,0,1.418-.437,1.591,1.591,0,0,0,.488-1.25,1.876,1.876,0,0,0-.492-1.352,1.839,1.839,0,0,0-1.359-.531H82.1Zm11.617,6.063a4.15,4.15,0,0,1-3.027-1.141,4.054,4.054,0,0,1-1.168-3.039v-.219a5.106,5.106,0,0,1,.492-2.277,3.612,3.612,0,0,1,1.395-1.547,3.914,3.914,0,0,1,2.059-.543A3.508,3.508,0,0,1,96.2,7.484a4.444,4.444,0,0,1,1,3.1v.922H91.815a2.1,2.1,0,0,0,.66,1.328,2,2,0,0,0,1.395.5,2.437,2.437,0,0,0,2.039-.945l1.109,1.242a3.389,3.389,0,0,1-1.375,1.121A4.511,4.511,0,0,1,93.721,15.156Zm-.258-6.945a1.411,1.411,0,0,0-1.09.455,2.357,2.357,0,0,0-.535,1.3h3.141V9.788a1.681,1.681,0,0,0-.406-1.165A1.456,1.456,0,0,0,93.464,8.211Zm9.766.453a6.134,6.134,0,0,0-.812-.062,1.654,1.654,0,0,0-1.68.867V15H98.479V6.547h2.133l.063,1.008a2.092,2.092,0,0,1,1.883-1.164,2.366,2.366,0,0,1,.7.1Zm5.836,0a6.134,6.134,0,0,0-.812-.062,1.654,1.654,0,0,0-1.68.867V15h-2.258V6.547h2.133l.063,1.008a2.092,2.092,0,0,1,1.883-1.164,2.366,2.366,0,0,1,.7.1Zm.453,2.031A5.013,5.013,0,0,1,110,8.453,3.546,3.546,0,0,1,111.4,6.93a4.069,4.069,0,0,1,2.113-.539A3.849,3.849,0,0,1,116.3,7.438a4.2,4.2,0,0,1,1.207,2.844l.016.578a4.418,4.418,0,0,1-1.086,3.121,4.209,4.209,0,0,1-5.832,0,4.5,4.5,0,0,1-1.09-3.187Zm2.258.16a3.16,3.16,0,0,0,.453,1.843,1.628,1.628,0,0,0,2.578.008,3.457,3.457,0,0,0,.461-2.015,3.128,3.128,0,0,0-.461-1.831,1.5,1.5,0,0,0-1.3-.649,1.474,1.474,0,0,0-1.281.646A3.516,3.516,0,0,0,111.776,10.856Z" transform="translate(274.135 305.425)" fill="#12263f"/>
  </g>
</svg>
