<svg xmlns="http://www.w3.org/2000/svg" xmlns:xlink="http://www.w3.org/1999/xlink" width="400" height="336" viewBox="0 0 400 336">
  <defs>
    <clipPath id="clip-path">
      <rect id="Rect치ngulo_378114" data-name="Rect치ngulo 378114" width="400" height="336" transform="translate(1020 26427)" fill="#fff" stroke="#707070" stroke-width="1"/>
    </clipPath>
    <clipPath id="clip-path-2">
      <rect id="Rect치ngulo_378113" data-name="Rect치ngulo 378113" width="310.369" height="310.168" fill="none"/>
    </clipPath>
  </defs>
  <g id="Enmascarar_grupo_154293" data-name="Enmascarar grupo 154293" transform="translate(-1020 -26427.001)" clip-path="url(#clip-path)">
    <g id="Grupo_1072927" data-name="Grupo 1072927" transform="translate(1065 26440)">
      <g id="Grupo_1072926" data-name="Grupo 1072926" clip-path="url(#clip-path-2)">
        <path id="Trazado_610697" data-name="Trazado 610697" d="M155.179,309.925q-75.221,0-150.443-.052c-1.475,0-3.918,1.107-4.332-.965a17.091,17.091,0,0,1,.224-8.335C1.143,299,4,299.8,5.693,300.011c3.774.465,4.614-.872,4.6-4.594Q10.1,207.21,10.206,119c0-8.226.812-9.023,9.171-9.023q51.231,0,102.462,0c7.3,0,8.344,1.049,8.346,8.351.005,28.986.136,57.973-.131,86.958-.043,4.744,1.947,4.606,5.475,4.8,4.163.235,4.753-1.339,4.735-5.006-.141-28.986-.082-57.972-.075-86.959,0-6.953,1.177-8.139,8.042-8.148,9.329-.013,18.663-.167,27.986.083,3.365.09,4.05-.975,4.034-4.144-.126-25.82-.074-51.641-.069-77.462,0-7.349,1.073-8.371,8.236-8.484,3.785-.06,8.727,1.618,11.038-.689s.631-7.251.693-11.035c.114-7.056,1.162-8.235,7.979-8.239q27.24-.018,54.479,0c6.207.006,7.484,1.364,7.568,7.638.054,3.962-1.267,9.15.726,11.546,2.1,2.532,7.482.675,11.423.769,6.589.158,7.831,1.284,7.832,7.9q.012,83.459-.08,166.92c-.009,3.827.405,5.615,4.9,5.325,4.34-.28,5.219,3.1,5.206,6.857-.059,16.658-.026,33.318-.026,49.976,0,12.827.161,25.657-.1,38.479-.076,3.748.86,5.046,4.62,4.589,1.691-.205,4.548-1.015,5.063.566a17.075,17.075,0,0,1,.218,8.337c-.415,2.062-2.859.955-4.337.958q-50.232.1-100.463.052Zm24.985-119.8c-8.942-.055-17.888,0-26.825-.227-2.8-.07-3.284,1.045-3.2,3.473.157,4.467.212,8.952-.016,13.413-.142,2.79,1.011,3.3,3.458,3.215,4.8-.158,9.608-.077,14.412-.037,5.646.046,7.05,1.44,7.191,6.962.033,1.322.113,2.642.172,3.964-.507,9.062-.507,9.062,8.3,9.061a21.227,21.227,0,0,1,2.986.022c2.864.409,3.648-.783,3.6-3.591-.168-8.962-.062-17.931-.062-26.9,0-9.883,0-9.883-10.013-9.358m49.992,0c-8.98-.054-17.962-.038-26.939-.212-2.4-.046-3.124.709-3.087,3.1.163,10.64.157,21.284.212,31.926-.874,3.682.036,5.7,4.351,5.062a20.758,20.758,0,0,1,5.964,0c4.315.636,5.225-1.38,4.351-5.062.056-6.289.143-12.579.156-18.867.009-4.084,1.955-6.112,6.06-6.119,2.977,0,5.954-.1,8.932-.158a39.333,39.333,0,0,1,4.951.2c4.107.663,5.237-.855,5.237-5.033s-1.13-5.7-5.237-5.032a39.344,39.344,0,0,1-4.951.2m0-69.981c-8.98-.055-17.962-.039-26.939-.212-2.4-.047-3.124.708-3.087,3.1.163,10.641.157,21.284.212,31.926-.878,3.691.044,5.256,4.354,5.122,10.625-.331,21.268-.2,31.9-.047,2.81.041,3.693-.732,3.636-3.6-.176-8.968-.064-17.944-.064-26.916,0-9.9,0-9.9-10.013-9.371M150.349,154.95c-.878,3.691.045,5.256,4.354,5.122,10.625-.331,21.268-.2,31.9-.047,2.81.041,3.693-.732,3.637-3.6-.177-8.968-.065-17.944-.065-26.916,0-9.9,0-9.9-10.013-9.371-8.98-.055-17.961-.039-26.939-.212-2.4-.047-3.123.708-3.087,3.1.164,10.641.157,21.284.212,31.926M85.371,274.99c-.97,3.773.135,5.078,4.343,5.04,23.81-.218,47.624-.171,71.435-.029,3.247.019,4.137-.809,4.1-4.086-.17-17.149-.229-34.3.027-51.447.063-4.211-1.268-5.315-5.041-4.345q-36.129-.086-72.259-.213c-2.135-.011-2.847.533-2.829,2.763.143,17.439.163,34.878.22,52.316M20.2,209.423h.037c0,28.808.051,57.615-.074,86.421-.015,3.237.8,4.166,4.095,4.128,15.484-.178,30.976-.236,46.459.03,3.928.067,4.543-1.179,4.525-4.736-.141-25.976-.07-51.953-.039-77.929.008-5.943,1.416-7.355,7.312-7.377,10.991-.041,21.986-.169,32.972.036,3.5.065,4.806-.492,4.775-4.484q-.315-40.462-.021-80.925c.022-3.652-.755-4.7-4.579-4.679q-45.46.252-90.925-.028c-3.729-.022-4.654.875-4.631,4.62.175,28.307.1,56.616.1,84.923m269.923,45.9c0-13.808-.072-27.617.06-41.423.028-2.85-.4-4.027-3.71-4-19.3.166-38.6.1-57.9.007-2.428-.011-3.483.382-3.471,3.2q.177,41.671.032,83.343c-.011,2.94.974,3.521,3.679,3.506,19.132-.106,38.267-.155,57.4.034,3.486.034,4.007-1.191,3.974-4.241-.145-13.473-.063-26.949-.063-40.424M234.662,39.987c13.485,0,26.974-.18,40.454.108,4.118.089,5.225-.9,5.221-5.095-.005-4.18-1.072-5.641-5.219-5.053a48.814,48.814,0,0,1-6.984.057c-6.668-.026-7.94-1.255-7.973-7.723-.016-3.163-.124-6.332.039-9.487.111-2.17-.583-2.843-2.793-2.83q-22.225.135-44.45,0c-2.175-.013-2.93.6-2.818,2.806.168,3.32.069,6.657.037,9.985-.055,5.835-1.464,7.2-7.453,7.244-2.83.022-5.71.34-8.48-.071-4.616-.686-4.1,2.182-4.086,5.054.013,2.839-.581,5.264,4.055,5.136,13.474-.374,26.966-.133,40.451-.133m-39.21,219.951c-5.666,0-11.336.137-17-.059-2.7-.094-3.358.837-3.329,3.408.125,11.162.105,22.327.012,33.489-.019,2.279.505,3.227,3.016,3.2q16.994-.179,33.992,0c2.442.024,3.091-.8,3.069-3.147-.1-11.163-.154-22.329.027-33.489.049-3.068-1.177-3.531-3.8-3.45-5.327.165-10.663.05-16,.05M250.171,124.46c0,23.653.142,47.308-.127,70.959-.05,4.382,1.678,4.642,5.11,4.623,3.377-.02,5.154-.163,5.135-4.595q-.3-70.46,0-140.922c.018-4.376-1.674-4.642-5.106-4.622-3.377.019-5.192.156-5.139,4.6.278,23.317.13,46.639.13,69.96m29.992.513c0-23.484-.143-46.969.127-70.449.051-4.4-1.7-4.624-5.126-4.625s-5.14.234-5.121,4.625q.3,70.448,0,140.9c-.019,4.392,1.7,4.624,5.121,4.624s5.177-.228,5.126-4.625c-.27-23.48-.127-46.965-.127-70.448m-85.235,54.951c13.661,0,27.328-.22,40.98.128,4.346.111,4.428-1.824,4.27-4.971-.139-2.771.685-5.257-4.021-5.213q-40.979.389-81.963,0c-4.711-.044-3.876,2.449-4.018,5.216-.162,3.152-.069,5.08,4.272,4.968,13.485-.35,26.985-.128,40.48-.128M124.934,299.893c12.161,0,24.326-.184,36.48.107,3.848.092,4.1-1.713,3.7-4.439-.337-2.3,1.8-5.733-3.442-5.688q-36.481.311-72.965-.007c-4.7-.04-3.35,2.837-3.458,5.185-.116,2.577-.755,5.084,3.7,4.958,11.984-.34,23.985-.116,35.98-.116M240.169,80.158c0-8.988-.2-17.984.077-26.963.153-5-3.28-2.923-5.409-3.133-2.272-.224-4.819-1.006-4.764,3.284q.35,26.712.018,53.43c-.058,5,3.282,2.922,5.411,3.133,2.275.226,4.92,1.014,4.764-3.288-.322-8.81-.1-17.641-.1-26.462m-29.992-.673c0,8.991.261,17.994-.107,26.97-.193,4.7,2.72,3.485,5.1,3.485s5.179,1.2,5.106-3.481q-.41-26.469,0-52.947c.073-4.686-2.722-3.482-5.1-3.482s-5.305-1.215-5.1,3.484c.372,8.642.106,17.313.106,25.971m-10,1c0-8.988-.263-17.987.107-26.96.194-4.7-2.715-3.5-5.1-3.5s-5.183-1.191-5.11,3.493q.411,26.46,0,52.928c-.073,4.686,2.718,3.5,5.108,3.5s5.31,1.2,5.107-3.5c-.373-8.639-.106-17.306-.106-25.962m-5.008,169.421c5.5,0,11.017-.319,16.48.1,4.313.332,3.677-2.314,3.428-4.676-.226-2.146,1.82-5.538-3.154-5.43q-16.731.365-33.474,0c-4.982-.113-2.96,3.263-3.172,5.416-.231,2.344-.917,5.022,3.41,4.692,5.465-.416,10.985-.1,16.481-.1" transform="translate(0 0)"/>
        <path id="Trazado_610698" data-name="Trazado 610698" d="M30.722,54.994c6.474,3.671,9.569-2.379,13.593-6.232,1.923-1.842,3.691-3.849,5.672-5.623,3.857-3.455,6.9-6.543,5.517-12.911-1.29-5.919,2.538-10.862,8.076-13.626a14.007,14.007,0,0,1,15.513,1.421c4.945,3.725,7.128,8.887,5.635,14.93-.717,2.9-.247,4.74,1.959,6.448a23.587,23.587,0,0,1,2.146,2.088c9.453,9.474,9.453,9.434,21.822,9.546,1.649.015,2.365-1,3.269-1.9,8.484-8.459,16.9-16.988,25.46-25.371,1.674-1.639,1.889-3.072,1.376-5.272A14.468,14.468,0,0,1,148.353,1.73a14.9,14.9,0,0,1,20.01,20.242c-3.294,6.176-9.575,9.066-16.835,7.377a4.847,4.847,0,0,0-5.227,1.58q-12.6,12.818-25.414,25.419a4.318,4.318,0,0,0-1.375,4.818c1.857,6.731-.423,12.137-5.909,16.153a14.3,14.3,0,0,1-16.829,0c-5.513-4-7.766-9.414-5.925-16.141a4.161,4.161,0,0,0-1.357-4.821c-2.358-2.1-4.523-4.418-6.7-6.71-3.3-3.476-6.546-4.935-12.047-5.285-7.32-.465-10.827,2.808-14.877,7.051Q52.94,54.482,49.851,57.4c-3.482,3.3-6.189,6.132-4.988,12.14C46.441,77.428,39,84.616,30.8,84.96A15.035,15.035,0,0,1,15.215,70.181c-.109-8.2,6.51-15.038,15.507-15.187M160.166,15.237c-.234-3.037-1.752-5.061-4.868-5.122-3.087-.061-4.969,1.793-5.015,4.892a4.513,4.513,0,0,0,4.53,4.883c3.109.217,4.815-1.635,5.353-4.653M35.19,69.952c-.411-3.038-2.036-4.942-5.156-4.859a4.517,4.517,0,0,0-4.727,4.693c-.092,3.094,1.719,5.024,4.81,5.088,3.119.065,4.711-1.9,5.073-4.922m74.987-4.924c-.369-3.036-1.968-4.993-5.086-4.927-3.094.066-4.9,2.009-4.8,5.1a4.51,4.51,0,0,0,4.733,4.683c3.119.076,4.745-1.825,5.153-4.853m-34.993-35c-.367-3.028-1.96-4.988-5.081-4.915-3.089.072-4.9,2.008-4.8,5.1a4.506,4.506,0,0,0,4.734,4.68c3.119.073,4.744-1.828,5.15-4.865" transform="translate(0.006 0)"/>
        <path id="Trazado_610699" data-name="Trazado 610699" d="M20.2,209.377c0-28.307.079-56.616-.1-84.923-.023-3.744.9-4.642,4.63-4.62q45.463.267,90.926.029c3.823-.022,4.6,1.025,4.579,4.678q-.246,40.462.021,80.925c.031,3.992-1.28,4.549-4.775,4.484-10.987-.205-21.981-.077-32.972-.036-5.9.022-7.3,1.434-7.313,7.377-.031,25.976-.1,51.953.039,77.929.019,3.556-.6,4.8-4.524,4.736-15.484-.266-30.975-.208-46.461-.03-3.292.038-4.109-.89-4.094-4.128.126-28.806.073-57.613.073-86.421Zm44.985-24.3c0-3.154.028-6.309-.008-9.464-.04-3.589-1.848-5.619-5.478-5.662-6.308-.075-12.619-.063-18.928-.007-3.615.032-5.522,1.977-5.549,5.586-.046,6.308-.071,12.618.014,18.926.049,3.634,2.119,5.408,5.7,5.44,3.155.029,6.309-.007,9.465.015,15.788.11,14.9.98,14.785-14.835m.041,79.6h-.039c0-2.992.019-5.984,0-8.976-.03-3.876-2.033-5.794-5.883-5.8-6.151-.007-12.3-.028-18.454.014-3.609.025-5.579,1.9-5.619,5.528q-.105,9.473-.031,18.949c.034,3.63,2.041,5.485,5.641,5.509,6.151.041,12.3.021,18.454.014,4.165-.005,6-2.212,5.944-6.262-.044-2.992-.009-5.984-.009-8.976M90.186,199.9c2.823,0,5.648-.066,8.468.015,4.635.134,6.641-2.108,6.554-6.674-.108-5.642-.077-11.289-.01-16.934.052-4.323-1.916-6.454-6.3-6.41q-8.717.089-17.435,0c-4.39-.044-6.343,2.095-6.29,6.417.071,5.81.044,11.621.01,17.433-.024,4.088,1.912,6.168,6.037,6.154,2.989-.011,5.978,0,8.966,0m-25.014-54.7c0-3.32.082-6.644-.022-9.961-.105-3.36-1.97-5.24-5.329-5.283-6.475-.084-12.953-.108-19.427.013-3.379.063-5.139,2.09-5.171,5.433q-.089,9.463,0,18.926c.032,3.615,1.979,5.5,5.585,5.558,3.153.055,6.309,0,9.464.023,15.842.1,15.044,1.055,14.9-14.71m24.956,14.7c3.155,0,6.311.047,9.465-.012,3.61-.067,5.534-1.977,5.565-5.583.053-6.308.074-12.618-.012-18.926-.049-3.628-2.1-5.43-5.692-5.445q-9.217-.039-18.431-.005c-3.862.01-5.815,1.983-5.825,5.839-.016,5.644-.039,11.289,0,16.935.04,5.8,1.473,7.157,7.458,7.2,2.491.02,4.982,0,7.472-.007M50.352,209.913c-3.155,0-6.31-.026-9.465.007-3.594.037-5.617,1.848-5.659,5.477-.074,6.307-.063,12.618-.006,18.926.033,3.615,1.985,5.521,5.59,5.549,6.309.049,12.62.076,18.928-.014,3.632-.052,5.4-2.13,5.436-5.709.029-3.154-.006-6.309.015-9.464.11-15.812.969-14.887-14.84-14.773" transform="translate(0.008 0.046)" fill="#c1cacf"/>
        <path id="Trazado_610700" data-name="Trazado 610700" d="M290.04,255.238c0,13.474-.083,26.95.063,40.424.032,3.049-.487,4.275-3.974,4.241-19.131-.189-38.266-.14-57.4-.034-2.705.015-3.689-.566-3.679-3.506q.15-41.671-.032-83.343c-.012-2.813,1.044-3.206,3.472-3.2,19.3.094,38.6.159,57.9-.007,3.307-.028,3.737,1.148,3.71,4-.132,13.805-.059,27.614-.059,41.422m-31.955-25.372c-6.65,0-13.306.19-19.946-.065-4.593-.176-2.967,3.031-2.96,5.055s-1.652,5.144,2.945,5.074q19.445-.3,38.9,0c4.587.071,2.965-3.037,2.959-5.061s1.656-5.251-2.947-5.068c-6.306.251-12.631.063-18.948.063m-.519,29.99c6.483,0,12.974-.193,19.447.065,4.59.184,2.981-3.021,2.968-5.048s1.663-5.15-2.938-5.08q-19.446.294-38.9,0c-4.583-.072-2.98,3.027-2.966,5.055s-1.667,5.25,2.939,5.074c6.475-.247,12.964-.062,19.448-.062M257.3,279.85c6.483,0,12.981-.259,19.446.09,4.374.236,3.428-2.569,3.262-4.8-.161-2.164,1.732-5.462-3.2-5.365q-19.194.378-38.4-.013c-4.366-.094-3.424,2.578-3.258,4.811.162,2.164-1.745,5.6,3.2,5.357,6.3-.309,12.63-.075,18.947-.075" transform="translate(0.087 0.081)" fill="#c1cacf"/>
        <path id="Trazado_610701" data-name="Trazado 610701" d="M234.589,39.984c-13.485,0-26.976-.241-40.452.132-4.635.129-4.042-2.3-4.055-5.135-.013-2.873-.53-5.74,4.087-5.055,2.769.411,5.649.094,8.479.072,5.989-.047,7.4-1.409,7.454-7.244.032-3.329.131-6.665-.038-9.986-.112-2.206.644-2.818,2.818-2.805q22.225.128,44.45,0c2.21-.014,2.905.659,2.793,2.83-.162,3.154-.054,6.323-.038,9.486.032,6.468,1.306,7.7,7.972,7.723a48.828,48.828,0,0,0,6.985-.056c4.147-.588,5.214.873,5.218,5.053.005,4.2-1.1,5.183-5.221,5.095-13.479-.288-26.967-.108-40.453-.108" transform="translate(0.074 0.004)" fill="#c6e1fa"/>
        <path id="Trazado_610702" data-name="Trazado 610702" d="M85.337,274.905c-.057-17.439-.076-34.877-.219-52.316-.018-2.231.694-2.774,2.829-2.763q36.129.185,72.258.213-.014,21.227-.029,42.453c-.011,8.792-3.6,12.376-12.4,12.383q-31.218.028-62.438.03m39.306-5.052c7.986,0,15.973-.069,23.958.026,4.634.055,6.633-2.083,6.582-6.67-.1-8.982-.075-17.967-.011-26.949.031-4.331-1.9-6.433-6.3-6.421q-23.709.066-47.417,0c-4.388-.013-6.348,2.059-6.316,6.4.067,8.982.1,17.967-.011,26.949-.054,4.582,1.914,6.744,6.559,6.687,7.652-.1,15.307-.026,22.96-.026" transform="translate(0.033 0.085)" fill="#f6f6f6"/>
        <path id="Trazado_610703" data-name="Trazado 610703" d="M195.384,259.838c5.332,0,10.668.115,16-.05,2.619-.081,3.846.382,3.8,3.45-.18,11.16-.127,22.326-.026,33.488.021,2.344-.627,3.172-3.069,3.148q-17-.168-33.993,0c-2.51.027-3.034-.921-3.015-3.2.092-11.162.113-22.328-.013-33.489-.028-2.571.635-3.5,3.33-3.408,5.658.2,11.329.059,16.995.059" transform="translate(0.068 0.101)" fill="#4595eb"/>
        <path id="Trazado_610704" data-name="Trazado 610704" d="M250.074,124.441c0-23.32.148-46.643-.13-69.96-.053-4.439,1.762-4.576,5.139-4.6,3.432-.019,5.124.247,5.106,4.623q-.3,70.46,0,140.921c.019,4.433-1.758,4.576-5.135,4.595-3.432.02-5.16-.241-5.11-4.623.269-23.65.127-47.306.127-70.959" transform="translate(0.097 0.019)" fill="#f6f6f6"/>
        <path id="Trazado_610705" data-name="Trazado 610705" d="M280.059,124.954c0,23.483-.144,46.968.126,70.448.051,4.4-1.7,4.626-5.126,4.626s-5.14-.233-5.121-4.624q.3-70.449,0-140.9c-.019-4.39,1.7-4.624,5.121-4.624s5.177.227,5.126,4.625c-.27,23.48-.126,46.965-.126,70.448" transform="translate(0.105 0.019)" fill="#c6e1fa"/>
        <path id="Trazado_610706" data-name="Trazado 610706" d="M150.292,154.9c-.056-10.642-.049-21.286-.213-31.926-.035-2.387.689-3.142,3.087-3.1,8.979.174,17.959.158,26.939.212,0,6.653.094,13.306-.007,19.957-.129,8.537-6.3,14.693-14.838,14.851-4.989.092-9.98.008-14.969,0" transform="translate(0.058 0.046)" fill="#69aaef"/>
        <path id="Trazado_610707" data-name="Trazado 610707" d="M200.264,154.9c-.055-10.642-.048-21.286-.212-31.926-.036-2.387.688-3.142,3.087-3.1,8.978.174,17.959.158,26.939.212,0,6.653.094,13.306-.007,19.957-.13,8.537-6.3,14.693-14.839,14.851-4.988.092-9.979.008-14.969,0" transform="translate(0.077 0.046)" fill="#69aaef"/>
        <path id="Trazado_610708" data-name="Trazado 610708" d="M194.87,179.859c-13.494,0-26.994-.222-40.48.128-4.341.113-4.435-1.815-4.273-4.968.142-2.767-.692-5.26,4.018-5.215q40.979.389,81.963,0c4.707-.045,3.882,2.441,4.021,5.212.158,3.147.076,5.082-4.269,4.971-13.652-.348-27.319-.128-40.98-.128" transform="translate(0.058 0.066)" fill="#c1cacf"/>
        <path id="Trazado_610709" data-name="Trazado 610709" d="M124.9,299.781c-11.995,0-24-.224-35.981.116-4.46.126-3.819-2.38-3.7-4.958.106-2.348-1.243-5.225,3.457-5.184q36.481.315,72.965.006c5.247-.045,3.105,3.385,3.442,5.688.4,2.726.148,4.532-3.7,4.439-12.155-.291-24.32-.107-36.481-.107" transform="translate(0.033 0.112)" fill="#c1cacf"/>
        <path id="Trazado_610710" data-name="Trazado 610710" d="M85.338,274.905q31.22-.013,62.437-.03c8.8-.007,12.389-3.59,12.4-12.383q.03-21.226.029-42.453c3.774-.97,5.1.134,5.042,4.345-.256,17.146-.2,34.3-.027,51.447.032,3.276-.856,4.1-4.1,4.086-23.811-.142-47.625-.189-71.436.028-4.208.039-5.313-1.267-4.343-5.039" transform="translate(0.033 0.085)" fill="#c6e1fa"/>
        <path id="Trazado_610711" data-name="Trazado 610711" d="M230.079,199.714c-2.977.056-5.954.153-8.931.158-4.107.007-6.052,2.035-6.06,6.118-.013,6.289-.1,12.579-.157,18.868H200.264c-.055-10.643-.048-21.286-.212-31.927-.036-2.387.688-3.141,3.088-3.1,8.977.174,17.958.157,26.938.212v9.666" transform="translate(0.077 0.074)" fill="#69aaef"/>
        <path id="Trazado_610712" data-name="Trazado 610712" d="M175.3,220.811c-.059-1.322-.139-2.641-.173-3.964-.14-5.522-1.544-6.916-7.19-6.962-4.8-.039-9.613-.12-14.412.038-2.448.081-3.6-.426-3.458-3.215.228-4.462.173-8.946.016-13.414-.085-2.427.4-3.543,3.2-3.473,8.938.225,17.884.173,26.826.228.005,6.283-.078,12.569.043,18.85.091,4.72-1.307,8.725-4.851,11.912" transform="translate(0.058 0.074)" fill="#69aaef"/>
        <path id="Trazado_610713" data-name="Trazado 610713" d="M240.08,80.139c0,8.822-.225,17.653.1,26.463.157,4.3-2.487,3.513-4.762,3.288-2.13-.212-5.47,1.866-5.412-3.133q.309-26.713-.017-53.431c-.056-4.291,2.491-3.508,4.764-3.284,2.129.211,5.561-1.872,5.408,3.133-.274,8.98-.077,17.975-.077,26.963" transform="translate(0.089 0.019)" fill="#c6e1fa"/>
        <path id="Trazado_610714" data-name="Trazado 610714" d="M210.1,79.465c0-8.658.266-17.329-.106-25.971-.2-4.7,2.72-3.484,5.1-3.484s5.178-1.2,5.106,3.482q-.411,26.469,0,52.947c.073,4.685-2.723,3.481-5.1,3.481s-5.3,1.214-5.1-3.485c.369-8.976.107-17.979.107-26.97" transform="translate(0.081 0.019)" fill="#f6f6f6"/>
        <path id="Trazado_610715" data-name="Trazado 610715" d="M200.1,80.467c0,8.655-.267,17.323.106,25.962.2,4.7-2.717,3.5-5.106,3.5s-5.181,1.189-5.108-3.5q.413-26.46,0-52.928c-.072-4.684,2.721-3.493,5.11-3.493s5.3-1.2,5.106,3.5c-.371,8.972-.108,17.972-.108,26.96" transform="translate(0.074 0.019)" fill="#c6e1fa"/>
        <path id="Trazado_610716" data-name="Trazado 610716" d="M200.264,154.9c4.99,0,9.981.089,14.969,0,8.536-.158,14.709-6.313,14.839-14.851.1-6.651.011-13.3.007-19.957,10.013-.525,10.013-.525,10.013,9.372,0,8.972-.112,17.947.064,26.916.057,2.865-.826,3.638-3.636,3.6-10.633-.154-21.276-.284-31.9.047-4.309.134-5.232-1.431-4.354-5.122" transform="translate(0.077 0.046)" fill="#4595eb"/>
        <path id="Trazado_610717" data-name="Trazado 610717" d="M150.292,154.9c4.989,0,9.98.089,14.969,0,8.535-.158,14.709-6.313,14.838-14.851.1-6.651.011-13.3.007-19.957,10.014-.525,10.014-.525,10.014,9.372,0,8.972-.112,17.947.063,26.916.058,2.865-.826,3.638-3.635,3.6-10.633-.154-21.277-.284-31.9.047-4.308.134-5.232-1.431-4.353-5.122" transform="translate(0.058 0.046)" fill="#4595eb"/>
        <path id="Trazado_610718" data-name="Trazado 610718" d="M175.289,220.811c3.544-3.186,4.942-7.192,4.851-11.912-.121-6.281-.038-12.567-.043-18.85,10.013-.526,10.013-.526,10.013,9.357,0,8.966-.106,17.934.062,26.9.052,2.809-.732,4-3.6,3.591a21.37,21.37,0,0,0-2.985-.021c-8.808,0-8.808,0-8.3-9.061" transform="translate(0.068 0.074)" fill="#4595eb"/>
        <path id="Trazado_610719" data-name="Trazado 610719" d="M195.1,249.813c-5.5,0-11.016-.316-16.481.1-4.328.33-3.641-2.348-3.41-4.692.212-2.153-1.81-5.529,3.172-5.416q16.73.383,33.474,0c4.974-.108,2.928,3.284,3.154,5.43.249,2.362.884,5.008-3.428,4.676-5.463-.421-10.984-.1-16.48-.1" transform="translate(0.068 0.093)" fill="#c1cacf"/>
        <path id="Trazado_610720" data-name="Trazado 610720" d="M230.067,199.714v-9.666a39.542,39.542,0,0,0,4.952-.2c4.106-.664,5.236.854,5.236,5.032s-1.129,5.7-5.236,5.032a39.537,39.537,0,0,0-4.952-.2" transform="translate(0.089 0.073)" fill="#4595eb"/>
        <path id="Trazado_610721" data-name="Trazado 610721" d="M200.264,224.845H214.93c.874,3.682-.036,5.7-4.351,5.062a20.755,20.755,0,0,0-5.964,0c-4.315.636-5.225-1.379-4.351-5.062" transform="translate(0.077 0.087)" fill="#4595eb"/>
        <path id="Trazado_610722" data-name="Trazado 610722" d="M160.115,15.233c-.539,3.018-2.246,4.87-5.353,4.653A4.514,4.514,0,0,1,150.231,15c.046-3.1,1.928-4.953,5.016-4.892,3.116.061,4.633,2.085,4.868,5.122" transform="translate(0.058 0.004)" fill="#4595eb"/>
        <path id="Trazado_610723" data-name="Trazado 610723" d="M35.187,69.927c-.362,3.026-1.954,4.986-5.073,4.922-3.091-.064-4.9-1.994-4.81-5.088a4.515,4.515,0,0,1,4.726-4.693c3.121-.083,4.745,1.821,5.157,4.859" transform="translate(0.01 0.025)" fill="#4595eb"/>
        <path id="Trazado_610724" data-name="Trazado 610724" d="M110.144,65c-.407,3.028-2.033,4.928-5.152,4.853a4.512,4.512,0,0,1-4.734-4.683c-.1-3.088,1.706-5.032,4.8-5.1,3.117-.067,4.716,1.891,5.086,4.927" transform="translate(0.039 0.023)" fill="#4595eb"/>
        <path id="Trazado_610725" data-name="Trazado 610725" d="M75.165,30.016c-.406,3.037-2.031,4.938-5.15,4.865a4.506,4.506,0,0,1-4.734-4.68c-.1-3.092,1.714-5.028,4.8-5.1,3.121-.073,4.714,1.887,5.081,4.915" transform="translate(0.025 0.01)" fill="#4595eb"/>
        <path id="Trazado_610726" data-name="Trazado 610726" d="M65.179,185.056c.117,15.814,1,14.945-14.788,14.835-3.155-.022-6.31.013-9.465-.015-3.582-.033-5.651-1.806-5.7-5.441-.086-6.307-.06-12.618-.014-18.926.027-3.608,1.934-5.553,5.549-5.585,6.309-.056,12.62-.068,18.928.007,3.63.043,5.438,2.073,5.478,5.662.036,3.154.008,6.308.011,9.464m-10.173-.09c1.14-3.915-.3-5.323-4.595-5.212-3.7.1-5.642.364-5.383,4.917.209,3.675.38,5.716,4.94,5.358,3.518-.276,6.46-.046,5.038-5.063" transform="translate(0.014 0.066)"/>
        <path id="Trazado_610727" data-name="Trazado 610727" d="M65.216,264.626c0,2.992-.034,5.984.009,8.976.058,4.051-1.779,6.257-5.944,6.262-6.151.008-12.3.027-18.453-.014-3.6-.023-5.608-1.879-5.642-5.509q-.089-9.473.031-18.949c.04-3.626,2.01-5.5,5.62-5.528,6.15-.042,12.3-.021,18.453-.014,3.85.005,5.853,1.924,5.883,5.8.023,2.992,0,5.984,0,8.976ZM50.46,259.964c-3.975-.928-5.565.293-5.418,4.652.124,3.7.369,5.641,4.922,5.382,3.676-.209,5.717-.38,5.359-4.939-.277-3.518-.046-6.461-4.863-5.1" transform="translate(0.014 0.097)"/>
        <path id="Trazado_610728" data-name="Trazado 610728" d="M90.165,199.886c-2.989,0-5.978-.009-8.966,0-4.126.015-6.062-2.066-6.038-6.153.034-5.811.062-11.623-.009-17.433-.053-4.323,1.9-6.461,6.289-6.417q8.717.087,17.435,0c4.385-.044,6.352,2.088,6.3,6.41-.067,5.644-.1,11.291.009,16.934.088,4.565-1.919,6.808-6.554,6.674-2.82-.081-5.645-.015-8.467-.015m4.873-14.776c1.01-4.081-.449-5.443-4.695-5.363-3.789.071-5.54.514-5.341,4.971.167,3.769.527,5.615,4.992,5.315,3.6-.242,6.383-.2,5.044-4.923" transform="translate(0.029 0.066)"/>
        <path id="Trazado_610729" data-name="Trazado 610729" d="M65.167,145.207c.142,15.764.939,14.8-14.9,14.709-3.154-.02-6.309.032-9.464-.023-3.606-.062-5.553-1.943-5.585-5.557q-.084-9.464,0-18.927c.031-3.343,1.792-5.369,5.171-5.433,6.472-.121,12.951-.1,19.426-.013,3.359.043,5.224,1.923,5.329,5.284.1,3.317.023,6.64.023,9.961m-15.3,4.59c3.884.853,5.673-.156,5.464-4.614-.169-3.617-.25-5.727-4.881-5.418-3.6.239-5.8.262-5.392,4.895.305,3.443-.081,6.524,4.809,5.137" transform="translate(0.014 0.05)"/>
        <path id="Trazado_610730" data-name="Trazado 610730" d="M90.107,159.909c-2.491,0-4.982.021-7.472,0-5.986-.048-7.419-1.408-7.459-7.2-.039-5.644-.016-11.289,0-16.935.01-3.857,1.964-5.828,5.825-5.838q9.215-.024,18.431,0c3.588.016,5.643,1.817,5.692,5.446.086,6.307.065,12.618.012,18.926-.031,3.605-1.954,5.515-5.565,5.582-3.153.059-6.309.013-9.464.018m.432-19.874c-3.794-.775-5.782.023-5.513,4.58.208,3.539.133,5.807,4.836,5.451,3.521-.267,5.889-.139,5.427-4.847-.331-3.363.21-6.581-4.75-5.184" transform="translate(0.029 0.05)"/>
        <path id="Trazado_610731" data-name="Trazado 610731" d="M50.345,209.875c15.81-.111,14.951-1.036,14.841,14.777-.022,3.154.013,6.308-.015,9.463-.032,3.58-1.8,5.658-5.436,5.709-6.308.09-12.62.064-18.928.015-3.605-.029-5.557-1.935-5.59-5.55-.058-6.308-.069-12.618.005-18.926.043-3.628,2.065-5.44,5.66-5.477,3.154-.032,6.309-.007,9.464-.01m4.713,14.832c1.306-4.628-1.294-4.783-4.989-4.985-4.362-.239-4.928,1.394-5.049,5.264-.135,4.351,1.4,5.015,5.292,5.026,4.127.012,5.828-1.112,4.746-5.305" transform="translate(0.014 0.081)"/>
        <path id="Trazado_610732" data-name="Trazado 610732" d="M258.081,229.858c6.317,0,12.642.188,18.948-.063,4.6-.183,2.94,3.05,2.946,5.067s1.629,5.133-2.958,5.062q-19.445-.3-38.9,0c-4.6.07-2.938-3.057-2.945-5.074s-1.634-5.231,2.96-5.055c6.64.254,13.3.065,19.946.065" transform="translate(0.091 0.089)"/>
        <path id="Trazado_610733" data-name="Trazado 610733" d="M257.562,259.84c-6.483,0-12.973-.185-19.448.062-4.607.176-2.925-3.06-2.939-5.074s-1.617-5.127,2.966-5.054q19.445.308,38.9,0c4.6-.07,2.924,3.066,2.938,5.08s1.622,5.232-2.968,5.048c-6.473-.258-12.963-.065-19.447-.065" transform="translate(0.091 0.097)"/>
        <path id="Trazado_610734" data-name="Trazado 610734" d="M257.3,279.827c-6.317,0-12.646-.234-18.947.075-4.947.243-3.04-3.193-3.2-5.357-.166-2.233-1.107-4.9,3.258-4.811q19.191.413,38.4.013c4.933-.1,3.04,3.2,3.2,5.365.166,2.236,1.111,5.041-3.262,4.8-6.464-.349-12.962-.09-19.446-.09" transform="translate(0.091 0.104)"/>
        <path id="Trazado_610735" data-name="Trazado 610735" d="M124.639,269.85c-7.653,0-15.308-.069-22.96.025-4.645.058-6.613-2.1-6.559-6.686.106-8.982.078-17.967.011-26.95-.032-4.345,1.929-6.415,6.316-6.4q23.708.067,47.417,0c4.4-.013,6.333,2.09,6.3,6.42-.064,8.982-.09,17.967.011,26.949.051,4.587-1.948,6.725-6.582,6.67-7.985-.1-15.972-.026-23.958-.026M120.152,250.3a30.5,30.5,0,0,1,.043-4.98c.775-4.632-1.149-5.742-5.6-5.578-9.436.349-9.445.1-9.445,9.652a30.515,30.515,0,0,1-.043,4.981c-.775,4.632,1.149,5.742,5.6,5.577,9.436-.349,9.445-.1,9.445-9.652m25,0a30.612,30.612,0,0,1,.043-4.98c.775-4.632-1.149-5.742-5.6-5.578-9.435.349-9.444.1-9.444,9.652a30.626,30.626,0,0,1-.043,4.981c-.775,4.632,1.148,5.742,5.6,5.577,9.435-.349,9.444-.1,9.444-9.652" transform="translate(0.037 0.089)"/>
        <path id="Trazado_610736" data-name="Trazado 610736" d="M55,184.962c1.423,5.017-1.52,4.787-5.038,5.063-4.56.358-4.731-1.683-4.94-5.358-.259-4.553,1.68-4.822,5.383-4.917,4.3-.111,5.735,1.3,4.595,5.212" transform="translate(0.017 0.07)" fill="#4595eb"/>
        <path id="Trazado_610737" data-name="Trazado 610737" d="M50.456,259.96c4.817-1.366,4.586,1.577,4.863,5.095.358,4.559-1.683,4.73-5.359,4.939-4.553.259-4.8-1.685-4.922-5.382-.147-4.359,1.444-5.58,5.418-4.652" transform="translate(0.017 0.101)" fill="#4595eb"/>
        <path id="Trazado_610738" data-name="Trazado 610738" d="M95.034,185.106c1.34,4.728-1.441,4.681-5.044,4.923-4.465.3-4.825-1.546-4.992-5.315-.2-4.457,1.552-4.9,5.341-4.971,4.246-.08,5.705,1.283,4.695,5.363" transform="translate(0.033 0.07)" fill="#4595eb"/>
        <path id="Trazado_610739" data-name="Trazado 610739" d="M49.859,149.793c-4.89,1.387-4.5-1.694-4.809-5.137-.409-4.633,1.792-4.656,5.392-4.895,4.631-.309,4.712,1.8,4.881,5.418.209,4.458-1.581,5.467-5.464,4.614" transform="translate(0.017 0.054)" fill="#4595eb"/>
        <path id="Trazado_610740" data-name="Trazado 610740" d="M90.535,140.031c4.96-1.4,4.419,1.821,4.75,5.184.462,4.708-1.906,4.58-5.427,4.847-4.7.356-4.628-1.912-4.836-5.451-.269-4.557,1.719-5.355,5.513-4.58" transform="translate(0.033 0.054)" fill="#4595eb"/>
        <path id="Trazado_610741" data-name="Trazado 610741" d="M55.054,224.7c1.082,4.193-.619,5.317-4.746,5.305-3.894-.011-5.427-.675-5.292-5.026.121-3.87.687-5.5,5.049-5.264,3.7.2,6.294.357,4.989,4.985" transform="translate(0.017 0.085)" fill="#4595eb"/>
        <path id="Trazado_610742" data-name="Trazado 610742" d="M120.148,250.3c0,9.549-.009,9.3-9.444,9.652-4.448.165-6.371-.945-5.6-5.577a30.626,30.626,0,0,0,.043-4.981c0-9.548.009-9.3,9.444-9.652,4.448-.165,6.371.946,5.6,5.578a30.612,30.612,0,0,0-.043,4.98" transform="translate(0.041 0.093)" fill="#c6e1fa"/>
        <path id="Trazado_610743" data-name="Trazado 610743" d="M145.134,250.3c0,9.549-.009,9.3-9.444,9.652-4.448.165-6.371-.945-5.6-5.577a30.627,30.627,0,0,0,.043-4.981c0-9.548.009-9.3,9.444-9.652,4.447-.164,6.371.946,5.6,5.578a30.614,30.614,0,0,0-.043,4.98" transform="translate(0.05 0.093)" fill="#c6e1fa"/>
      </g>
    </g>
  </g>
</svg>
