<svg xmlns="http://www.w3.org/2000/svg" xmlns:xlink="http://www.w3.org/1999/xlink" width="295" height="324.158" viewBox="0 0 295 324.158">
  <defs>
    <clipPath id="clip-path">
      <rect id="Rectangle_378122" data-name="Rectangle 378122" width="83.836" height="245.663" fill="none"/>
    </clipPath>
  </defs>
  <g id="Group_1074133" data-name="Group 1074133" transform="translate(-180 -17118.883)">
    <rect id="Rectangle_347466" data-name="Rectangle 347466" width="295" height="324.158" rx="20" transform="translate(180 17118.883)" fill="#fef5e5"/>
    <text id="_Que_" data-name="¿Que?" transform="translate(199 17401.32)" fill="#12263f" font-size="18" font-family="Roboto-Bold, Roboto" font-weight="700"><tspan x="-25.071" y="17">¿Que?</tspan></text>
    <g id="Group_1074040" data-name="Group 1074040" transform="translate(0 -228.025)">
      <rect id="Rectangle_378776" data-name="Rectangle 378776" width="170" height="245.66" transform="translate(243 17361)" fill="none"/>
      <g id="Group_1072891" data-name="Group 1072891" transform="translate(294.562 17361.346)">
        <path id="Path_610814" data-name="Path 610814" d="M7.09,125.016c6.229-24.155,14.1-35.921,30.971-38.409s20.923,37.443,48.278,29.232,41.711-5.786,46.882,17.274,7.51,98.926-33.043,88.5S46.683,191.774,28.2,202.292,2.175,209.318.355,192.455s3.791-56.024,6.735-67.439" transform="translate(-35.562 -43.242)" fill="#e1efe3"/>
        <g id="Group_1072890" data-name="Group 1072890" clip-path="url(#clip-path)">
          <path id="Path_610708" data-name="Path 610708" d="M24.348,64.531s-2.368,11.23-.987,17.546,5.921,5.527,6.612,5.329,1.281-2.046,1.281-2.046a3.158,3.158,0,0,0,2.859,1.552,10.143,10.143,0,0,0,4.052-1.37s6.223,1.469,9.871.68S52.2,83.854,52.2,83.854s2.159.987,4.619-1.184-1-10.926-2.327-14.394-30.148-3.744-30.148-3.744" transform="translate(-7.966 -22.42)" fill="#00557f"/>
          <path id="Path_610709" data-name="Path 610709" d="M43.555,345.879l.79,9.079,7.3-1.085v-8.29Z" transform="translate(-15.132 -120.065)" fill="#ffa78c"/>
          <path id="Path_610710" data-name="Path 610710" d="M89.075,345.583l2.073,8.191h6.612l-.789-8.191Z" transform="translate(-30.947 -120.065)" fill="#ffa78c"/>
          <path id="Path_610711" data-name="Path 610711" d="M51.22,356.623s5.823,7.4,8.586,9.079,1.48,3.257.395,3.652-4.219.139-10.165,0c-.529-.012-4.545-.4-6.641-.7a1.246,1.246,0,0,1-1.052-1.435l1.5-9.285,6.318-1.118Z" transform="translate(-14.705 -123.901)" fill="#00557f"/>
          <path id="Path_610712" data-name="Path 610712" d="M91,355l-.919,11.284a.844.844,0,0,0,.761.91c2.535.243,10.072.957,11.04.957,1.165,0,7.124,0,8.419-.74s.906-2.073,0-2.961a58.445,58.445,0,0,0-5.959-3.7l-6.451-6.028Z" transform="translate(-31.297 -123.24)" fill="#00557f"/>
          <path id="Path_610713" data-name="Path 610713" d="M57.651,106.832s-4.854-5.291-16.509-5.291c-8.88,0-16.508,6.287-16.508,6.287L31,137.586l-3.07,13.775H62.467l-3.3-15.614s3.534-20.616-1.521-28.915" transform="translate(-8.559 -35.278)" fill="#ffd07f"/>
          <path id="Path_610714" data-name="Path 610714" d="M56.865,58.667S58.929,69.893,59,73.149s-3.036,6.591-6.434,8.378S42.1,80.109,40.529,77.813s-4.634-14.5-4.634-14.5,14.744-11.849,20.97-4.645" transform="translate(-12.471 -19.575)" fill="#ffa78c"/>
          <path id="Path_610715" data-name="Path 610715" d="M53.514,91.7a23.107,23.107,0,0,0,1.5,7.268L44.332,97.333l-1.924-9.145Z" transform="translate(-14.734 -30.639)" fill="#ffa78c"/>
          <path id="Path_610716" data-name="Path 610716" d="M38.363,75.406s-2.419-3.122-4.422-1.548-.089,5.9,1.635,7.166,3.611-.538,3.611-.538Z" transform="translate(-11.495 -25.506)" fill="#ffa78c"/>
          <path id="Path_610717" data-name="Path 610717" d="M55.422,94.618s-4.633.076-7.792-1.777c0,0,4.211,5.114,8.341,5.075Z" transform="translate(-16.548 -32.256)" fill="#d88471"/>
          <path id="Path_610718" data-name="Path 610718" d="M48.33,53.544s.565,3.969-5.006,6.6c-4.153,1.96-5.208,4.074-5.208,4.074S39.2,68.2,36.028,69.349c0,0-1.956-6.417-4.488-5.561s-.046,8.328,3.889,7.523a10.072,10.072,0,0,1,1.51,5.338s-9.056-4.354-11.6-12.17,2.58-11.222,2.58-11.222,1.254-4.277,7.662-6.708S49.23,45.592,52.735,48.4a6.63,6.63,0,0,1,2.607,6.467s2.584,1.973,2.284,4.923a5.437,5.437,0,0,1-3.152,4.143s-1.989-7.765-3.634-9.678-2.51-.708-2.51-.708" transform="translate(-8.558 -15.746)" fill="#00557f"/>
          <path id="Path_610719" data-name="Path 610719" d="M61.4,72.2a6.989,6.989,0,0,0,1.368,3.549c1.16,1.238-.649,2.241-.649,2.241" transform="translate(-21.334 -25.084)" fill="none" stroke="#bf6d60" stroke-linecap="round" stroke-linejoin="round" stroke-width="1"/>
          <path id="Path_610720" data-name="Path 610720" d="M66.242,66.5a2.094,2.094,0,0,0-2.909.109" transform="translate(-22.004 -22.908)" fill="none" stroke="#00557f" stroke-linecap="round" stroke-linejoin="round" stroke-width="1"/>
          <path id="Path_610721" data-name="Path 610721" d="M54.011,69.079a9.531,9.531,0,0,1-3.147,1.553" transform="translate(-17.672 -24)" fill="none" stroke="#00557f" stroke-linecap="round" stroke-linejoin="round" stroke-width="1"/>
          <path id="Path_610722" data-name="Path 610722" d="M35.687,76.708a4.5,4.5,0,0,1,2.858,3.2" transform="translate(-12.399 -26.651)" fill="none" stroke="#bf6d60" stroke-linecap="round" stroke-linejoin="round" stroke-width="1"/>
          <path id="Path_610723" data-name="Path 610723" d="M37.871,80.4a1.51,1.51,0,0,1,.345-1.524" transform="translate(-13.131 -27.405)" fill="none" stroke="#bf6d60" stroke-linecap="round" stroke-linejoin="round" stroke-width="1"/>
          <path id="Path_610724" data-name="Path 610724" d="M53.681,74.8c.147.623.552,1.06.906.977s.521-.656.373-1.278-.552-1.06-.905-.978-.521.656-.374,1.279" transform="translate(-18.632 -25.538)" fill="#00557f"/>
          <path id="Path_610725" data-name="Path 610725" d="M64.751,72.185c.147.623.552,1.06.906.977s.521-.656.373-1.278-.552-1.06-.905-.978-.521.656-.374,1.279" transform="translate(-22.478 -24.631)" fill="#00557f"/>
          <path id="Path_610726" data-name="Path 610726" d="M62.115,85.375a3.314,3.314,0,0,0-2.745,1" transform="translate(-20.627 -29.652)" fill="none" stroke="#bf6d60" stroke-linecap="round" stroke-linejoin="round" stroke-width="1"/>
          <path id="Path_610727" data-name="Path 610727" d="M96.358,86.633c-1.524-4.886-11.2-23.108-11.2-23.108a20.4,20.4,0,0,0-3.3-5.315s-2.7-2.4-3.817-2.716a8.307,8.307,0,0,0-2.214-1.32c-1.188-.365-4.02.856-4.259,1.348s.443.672,1.564.375,1.5-.407,1.5-.407l.861,1.069a6.05,6.05,0,0,0-1.767,1.61c-.152.548.591,1.366.591,1.366s.452,1.719,1.084,1.908l.633.189s1.38,2.455,3.056,2.61c0,0,.762,2.6,2.5,3.029.378,3.224,1.851,15.249,3.252,19.511l-6.084,1.247c.356,2.431,3.2,11.747,3.2,11.747,2.805-.4,16.554-6.257,14.406-13.142" transform="translate(-24.847 -18.798)" fill="#ffa78c"/>
          <path id="Path_610728" data-name="Path 610728" d="M72.917,248.535s-1.816-50.112-10.229-70.65H28.151s-3.542,9.661-2.772,29.793c.619,16.18,4.648,34.071,6.208,40.476-.169,6.323-.132,24,4.628,39.88H46.281l-.593-37.427,2.9-46.77,8.807,41.906-.04-.007s1.365,25.777,9.358,42.3h8.882Z" transform="translate(-8.779 -61.802)" fill="#03386e"/>
          <path id="Path_610729" data-name="Path 610729" d="M89.021,73.917a1.863,1.863,0,0,1-2.071.237" transform="translate(-30.209 -25.681)" fill="none" stroke="#bf6d60" stroke-linecap="round" stroke-linejoin="round" stroke-width="1"/>
          <path id="Path_610730" data-name="Path 610730" d="M33.324,179.436s-4.155,16.777-2.773,33.16a291.12,291.12,0,0,0,4.836,32.369" transform="translate(-10.516 -62.341)" fill="none" stroke="#004560" stroke-linecap="round" stroke-linejoin="round" stroke-width="1"/>
          <path id="Path_610731" data-name="Path 610731" d="M82.858,68.521a.8.8,0,0,0,.2-1.051l-.693-1.043" transform="translate(-28.615 -23.079)" fill="none" stroke="#bf6d60" stroke-linecap="round" stroke-linejoin="round" stroke-width="1"/>
          <path id="Path_610732" data-name="Path 610732" d="M80.2,63.427s-1.612.683-1.761,1.442" transform="translate(-27.252 -22.036)" fill="none" stroke="#bf6d60" stroke-linecap="round" stroke-linejoin="round" stroke-width="1"/>
          <path id="Path_610733" data-name="Path 610733" d="M78.094,60.584a3.64,3.64,0,0,0-2.287,1.2" transform="translate(-26.338 -21.049)" fill="none" stroke="#bf6d60" stroke-linecap="round" stroke-linejoin="round" stroke-width="1"/>
          <path id="Path_610734" data-name="Path 610734" d="M65.759,104.1l11.817.4,3.047,12.644s-4.828,2.823-8.919,2.724c-6.092-.147-5.946-15.771-5.946-15.771" transform="translate(-22.846 -36.166)" fill="#ffd07f"/>
          <path id="Path_610735" data-name="Path 610735" d="M30.277,167.247s.856.311,1.6.506,1.6.234,1.246-.583-2.336-1.831-4.36-1.519-2.686.5-2.687.5l-3.609.394L11.669,151.364l3.767-9.881-9.684-6.92A109.069,109.069,0,0,0,.146,150.586c-2.024,8.1,17.647,20.762,17.647,20.762a7.667,7.667,0,0,0,3.737,1.973,15.8,15.8,0,0,0,4.883.074c.012,0,.024,0,.037,0l.178-.029c.191-.027.3-.046.3-.046v0l2.353-.388s.856.312,1.6.506,1.6.234,1.246-.584c-.3-.711-1.846-1.567-3.573-1.574l1.224-.2s.857.311,1.6.506,1.6.234,1.246-.584-2.268-1.789-4.255-1.526l1.759-.29s.857.311,1.6.506,1.6.234,1.246-.584-2.336-1.831-4.36-1.519c-.724.112-1.267.206-1.674.283V167.8Z" transform="translate(0 -46.751)" fill="#ffa78c"/>
          <path id="Path_610736" data-name="Path 610736" d="M18.742,111.092A34.49,34.49,0,0,0,7.675,126.908l11.592,7.4s5.058-7.23,6.689-12.608-3.771-11.844-7.214-10.609" transform="translate(-2.667 -38.544)" fill="#ffd07f"/>
          <path id="Path_610737" data-name="Path 610737" d="M34.694,103.617a21.526,21.526,0,0,0,11.338,2.5c7.076-.2,8.933-3.175,8.933-3.175l-3.194-1.179-10.317-1Z" transform="translate(-12.054 -35.008)" fill="#ffa78c"/>
          <path id="Path_610738" data-name="Path 610738" d="M30.665,132.943a32.729,32.729,0,0,0,2.629-10.221" transform="translate(-10.654 -42.637)" fill="none" stroke="#bf6d60" stroke-linecap="round" stroke-linejoin="round" stroke-width="1"/>
          <path id="Path_610739" data-name="Path 610739" d="M74.869,111.954s3.465,7.375,3.209,10.236" transform="translate(-26.012 -38.896)" fill="none" stroke="#bf6d60" stroke-linecap="round" stroke-linejoin="round" stroke-width="1"/>
          <line id="Line_895" data-name="Line 895" x1="7.794" y2="1.776" transform="translate(40.07 99.33)" fill="none" stroke="#bf6d60" stroke-linecap="round" stroke-linejoin="round" stroke-width="1"/>
          <path id="Path_610740" data-name="Path 610740" d="M37.761,156.751l1.505.861-1.505.705" transform="translate(-13.119 -54.46)" fill="none" stroke="#bf6d60" stroke-linecap="round" stroke-linejoin="round" stroke-width="1"/>
          <path id="Path_610741" data-name="Path 610741" d="M36.146,107.865s8.1,2.77,13.766,1.28,6.885-3.371,6.885-3.371" transform="translate(-12.558 -36.749)" fill="none" stroke="#bf6d60" stroke-linecap="round" stroke-linejoin="round" stroke-width="1"/>
          <path id="Path_610742" data-name="Path 610742" d="M15.163,160.31a10.667,10.667,0,0,1-5.106,1.823" transform="translate(-3.494 -55.696)" fill="none" stroke="#bf6d60" stroke-linecap="round" stroke-linejoin="round" stroke-width="1"/>
          <path id="Path_610743" data-name="Path 610743" d="M91.932,104.177a35.792,35.792,0,0,0,5.784,1.889" transform="translate(-31.94 -36.194)" fill="none" stroke="#bf6d60" stroke-linecap="round" stroke-linejoin="round" stroke-width="1"/>
          <path id="Path_610744" data-name="Path 610744" d="M46.579,286.053a5.831,5.831,0,0,0,5.724,0" transform="translate(-16.183 -99.383)" fill="none" stroke="#004560" stroke-linecap="round" stroke-linejoin="round" stroke-width="1"/>
          <path id="Path_610745" data-name="Path 610745" d="M93.339,283.91s-3.75.493-5.625-1.184" transform="translate(-30.474 -98.227)" fill="none" stroke="#004560" stroke-linecap="round" stroke-linejoin="round" stroke-width="1"/>
          <line id="Line_896" data-name="Line 896" x2="3.298" y2="1.184" transform="translate(48.612 183.941)" fill="none" stroke="#004560" stroke-linecap="round" stroke-linejoin="round" stroke-width="1"/>
          <line id="Line_897" data-name="Line 897" x2="2.062" y2="1.897" transform="translate(22.807 186.352)" fill="none" stroke="#004560" stroke-linecap="round" stroke-linejoin="round" stroke-width="1"/>
          <path id="Path_610746" data-name="Path 610746" d="M61,210.26s.754-7.571,2.925-10.334a10.764,10.764,0,0,1,5.132-3.553" transform="translate(-21.193 -68.226)" fill="none" stroke="#004560" stroke-linecap="round" stroke-linejoin="round" stroke-width="1"/>
          <path id="Path_610747" data-name="Path 610747" d="M42.545,371.658s4.064.538,9.689.883a52.472,52.472,0,0,0,8.487,0" transform="translate(-14.781 -129.125)" fill="none" stroke="#004560" stroke-linecap="round" stroke-linejoin="round" stroke-width="1"/>
          <path id="Path_610748" data-name="Path 610748" d="M90.587,371.272s9.622.85,13.273.77a33.96,33.96,0,0,0,6.514-.77" transform="translate(-31.473 -128.991)" fill="none" stroke="#004560" stroke-linecap="round" stroke-linejoin="round" stroke-width="1"/>
          <path id="Path_610749" data-name="Path 610749" d="M43.527,328.085S36.521,303.425,38,293.161" transform="translate(-13.131 -101.853)" fill="none" stroke="#004560" stroke-linecap="round" stroke-linejoin="round" stroke-width="1"/>
          <path id="Path_610750" data-name="Path 610750" d="M63.826,207.014s8.442,43.19,8.61,47.533" transform="translate(-22.175 -71.923)" fill="none" stroke="#004560" stroke-linecap="round" stroke-linejoin="round" stroke-width="1"/>
          <path id="Path_610751" data-name="Path 610751" d="M79.547,287.2s.987,27.356,8.142,38.816" transform="translate(-27.637 -99.78)" fill="none" stroke="#004560" stroke-linecap="round" stroke-linejoin="round" stroke-width="1"/>
          <path id="Path_610752" data-name="Path 610752" d="M29.672,57.425a30.474,30.474,0,0,1,4.915,0" transform="translate(-10.309 -19.914)" fill="none" stroke="#004560" stroke-linecap="round" stroke-linejoin="round" stroke-width="1"/>
          <path id="Path_610753" data-name="Path 610753" d="M54,55.653a5.8,5.8,0,0,1-1.086,5.794c-2.368,2.842-7.4,2.619-8.734,6.357,0,0,.809,4.8-2.088,5.135" transform="translate(-14.625 -19.335)" fill="none" stroke="#004560" stroke-linecap="round" stroke-linejoin="round" stroke-width="1"/>
          <path id="Path_610754" data-name="Path 610754" d="M43.4,70.81a9.491,9.491,0,0,1,.691-3.437" transform="translate(-15.079 -23.407)" fill="none" stroke="#004560" stroke-linecap="round" stroke-linejoin="round" stroke-width="1"/>
          <line id="Line_898" data-name="Line 898" x2="1.535" y2="0.679" transform="translate(45.249 38.439)" fill="none" stroke="#004560" stroke-linecap="round" stroke-linejoin="round" stroke-width="1"/>
          <path id="Path_610755" data-name="Path 610755" d="M26.856,77.62a18.989,18.989,0,0,0,0,3.972" transform="translate(-9.292 -26.967)" fill="none" stroke="#004560" stroke-linecap="round" stroke-linejoin="round" stroke-width="1"/>
          <path id="Path_610756" data-name="Path 610756" d="M31.043,89.1a12.911,12.911,0,0,0,0,2.442" transform="translate(-10.762 -30.955)" fill="none" stroke="#004560" stroke-linecap="round" stroke-linejoin="round" stroke-width="1"/>
          <line id="Line_899" data-name="Line 899" y2="1.44" transform="translate(25.085 58.909)" fill="none" stroke="#004560" stroke-linecap="round" stroke-linejoin="round" stroke-width="1"/>
          <path id="Path_610757" data-name="Path 610757" d="M61.4,49.226a9.042,9.042,0,0,1,3.352,1.924" transform="translate(-21.334 -17.103)" fill="none" stroke="#004560" stroke-linecap="round" stroke-linejoin="round" stroke-width="1"/>
          <line id="Line_900" data-name="Line 900" x2="0.14" y2="1.521" transform="translate(46.53 57.388)" fill="none" stroke="#004560" stroke-linecap="round" stroke-linejoin="round" stroke-width="1"/>
          <path id="Path_610758" data-name="Path 610758" d="M30.862,63.427a6.909,6.909,0,0,0-.345,3.019" transform="translate(-10.582 -22.036)" fill="none" stroke="#004560" stroke-linecap="round" stroke-linejoin="round" stroke-width="1"/>
          <path id="Path_610759" data-name="Path 610759" d="M50.54,54.973A4.539,4.539,0,0,1,49.931,57" transform="translate(-17.347 -19.099)" fill="none" stroke="#004560" stroke-linecap="round" stroke-linejoin="round" stroke-width="1"/>
          <path id="Path_610760" data-name="Path 610760" d="M36.522,51.4a9.821,9.821,0,0,1,3.86-2.171" transform="translate(-12.689 -17.103)" fill="none" stroke="#004560" stroke-linecap="round" stroke-linejoin="round" stroke-width="1"/>
          <path id="Path_610761" data-name="Path 610761" d="M103.2,0H77a5.482,5.482,0,0,0-5.482,5.482V25.6A5.482,5.482,0,0,0,77,31.087h8.633l-.884,3.808a1.237,1.237,0,0,0,1.881,1.315l7.832-5.123H103.2a5.482,5.482,0,0,0,5.482-5.482V5.482A5.481,5.481,0,0,0,103.2,0" transform="translate(-24.847)" fill="#0c5e46"/>
          <path id="Path_610762" data-name="Path 610762" d="M90.322,10.94a2.383,2.383,0,0,1-.844-3.589A7.606,7.606,0,0,1,95.9,4.536c4.311.041,8.134,2.895,8.1,6.947-.027,2.816-2.142,4.52-4.912,5.671-.981.422-1.018,1.226-1.027,2.174a1.609,1.609,0,0,1-1.625,1.594l-1.523-.014a1.61,1.61,0,0,1-1.594-1.626l.014-1.523c.012-1.264.08-2.3,1.381-3.119,1.764-1.1,3.4-1.174,3.422-3.215a2.289,2.289,0,0,0-2.3-2.379,3.16,3.16,0,0,0-2.572,1.233,2.4,2.4,0,0,1-2.935.66m8.592,14.92a3.29,3.29,0,1,1-3.273-3.337,3.281,3.281,0,0,1,3.273,3.337" transform="translate(-30.915 -1.576)" fill="#fff"/>
        </g>
      </g>
    </g>
  </g>
</svg>
