<svg xmlns="http://www.w3.org/2000/svg" xmlns:xlink="http://www.w3.org/1999/xlink" width="610" height="324.158" viewBox="0 0 610 324.158">
  <defs>
    <clipPath id="clip-path">
      <rect id="Rectangle_378122" data-name="Rectangle 378122" width="83.836" height="245.663" fill="none"/>
    </clipPath>
    <clipPath id="clip-path-2">
      <rect id="Rectangle_378125" data-name="Rectangle 378125" width="124.904" height="245.66" fill="none"/>
    </clipPath>
  </defs>
  <g id="Group_1074134" data-name="Group 1074134" transform="translate(-180 -17118.883)">
    <rect id="Rectangle_377362" data-name="Rectangle 377362" width="295" height="324.158" rx="20" transform="translate(495 17118.883)" fill="#fef5e5"/>
    <text id="_Como_" data-name="多Como?" transform="translate(514 17401.32)" fill="#12263f" font-size="18" font-family="Roboto-Bold, Roboto" font-weight="700"><tspan x="-32.814" y="17">多Como?</tspan></text>
    <g id="Group_1074133" data-name="Group 1074133">
      <rect id="Rectangle_347466" data-name="Rectangle 347466" width="295" height="324.158" rx="20" transform="translate(180 17118.883)" fill="#fef5e5"/>
      <text id="_Que_" data-name="多Que?" transform="translate(199 17401.32)" fill="#12263f" font-size="18" font-family="Roboto-Bold, Roboto" font-weight="700"><tspan x="-25.071" y="17">多Que?</tspan></text>
      <g id="Group_1074040" data-name="Group 1074040" transform="translate(0 -228.025)">
        <rect id="Rectangle_378776" data-name="Rectangle 378776" width="170" height="245.66" transform="translate(243 17361)" fill="none"/>
        <g id="Group_1072891" data-name="Group 1072891" transform="translate(294.562 17361.346)">
          <path id="Path_610814" data-name="Path 610814" d="M7.09,125.016c6.229-24.155,14.1-35.921,30.971-38.409s20.923,37.443,48.278,29.232,41.711-5.786,46.882,17.274,7.51,98.926-33.043,88.5S46.683,191.774,28.2,202.292,2.175,209.318.355,192.455s3.791-56.024,6.735-67.439" transform="translate(-35.562 -43.242)" fill="#e1efe3"/>
          <g id="Group_1072890" data-name="Group 1072890" clip-path="url(#clip-path)">
            <path id="Path_610708" data-name="Path 610708" d="M24.348,64.531s-2.368,11.23-.987,17.546,5.921,5.527,6.612,5.329,1.281-2.046,1.281-2.046a3.158,3.158,0,0,0,2.859,1.552,10.143,10.143,0,0,0,4.052-1.37s6.223,1.469,9.871.68S52.2,83.854,52.2,83.854s2.159.987,4.619-1.184-1-10.926-2.327-14.394-30.148-3.744-30.148-3.744" transform="translate(-7.966 -22.42)" fill="#00557f"/>
            <path id="Path_610709" data-name="Path 610709" d="M43.555,345.879l.79,9.079,7.3-1.085v-8.29Z" transform="translate(-15.132 -120.065)" fill="#ffa78c"/>
            <path id="Path_610710" data-name="Path 610710" d="M89.075,345.583l2.073,8.191h6.612l-.789-8.191Z" transform="translate(-30.947 -120.065)" fill="#ffa78c"/>
            <path id="Path_610711" data-name="Path 610711" d="M51.22,356.623s5.823,7.4,8.586,9.079,1.48,3.257.395,3.652-4.219.139-10.165,0c-.529-.012-4.545-.4-6.641-.7a1.246,1.246,0,0,1-1.052-1.435l1.5-9.285,6.318-1.118Z" transform="translate(-14.705 -123.901)" fill="#00557f"/>
            <path id="Path_610712" data-name="Path 610712" d="M91,355l-.919,11.284a.844.844,0,0,0,.761.91c2.535.243,10.072.957,11.04.957,1.165,0,7.124,0,8.419-.74s.906-2.073,0-2.961a58.445,58.445,0,0,0-5.959-3.7l-6.451-6.028Z" transform="translate(-31.297 -123.24)" fill="#00557f"/>
            <path id="Path_610713" data-name="Path 610713" d="M57.651,106.832s-4.854-5.291-16.509-5.291c-8.88,0-16.508,6.287-16.508,6.287L31,137.586l-3.07,13.775H62.467l-3.3-15.614s3.534-20.616-1.521-28.915" transform="translate(-8.559 -35.278)" fill="#ffd07f"/>
            <path id="Path_610714" data-name="Path 610714" d="M56.865,58.667S58.929,69.893,59,73.149s-3.036,6.591-6.434,8.378S42.1,80.109,40.529,77.813s-4.634-14.5-4.634-14.5,14.744-11.849,20.97-4.645" transform="translate(-12.471 -19.575)" fill="#ffa78c"/>
            <path id="Path_610715" data-name="Path 610715" d="M53.514,91.7a23.107,23.107,0,0,0,1.5,7.268L44.332,97.333l-1.924-9.145Z" transform="translate(-14.734 -30.639)" fill="#ffa78c"/>
            <path id="Path_610716" data-name="Path 610716" d="M38.363,75.406s-2.419-3.122-4.422-1.548-.089,5.9,1.635,7.166,3.611-.538,3.611-.538Z" transform="translate(-11.495 -25.506)" fill="#ffa78c"/>
            <path id="Path_610717" data-name="Path 610717" d="M55.422,94.618s-4.633.076-7.792-1.777c0,0,4.211,5.114,8.341,5.075Z" transform="translate(-16.548 -32.256)" fill="#d88471"/>
            <path id="Path_610718" data-name="Path 610718" d="M48.33,53.544s.565,3.969-5.006,6.6c-4.153,1.96-5.208,4.074-5.208,4.074S39.2,68.2,36.028,69.349c0,0-1.956-6.417-4.488-5.561s-.046,8.328,3.889,7.523a10.072,10.072,0,0,1,1.51,5.338s-9.056-4.354-11.6-12.17,2.58-11.222,2.58-11.222,1.254-4.277,7.662-6.708S49.23,45.592,52.735,48.4a6.63,6.63,0,0,1,2.607,6.467s2.584,1.973,2.284,4.923a5.437,5.437,0,0,1-3.152,4.143s-1.989-7.765-3.634-9.678-2.51-.708-2.51-.708" transform="translate(-8.558 -15.746)" fill="#00557f"/>
            <path id="Path_610719" data-name="Path 610719" d="M61.4,72.2a6.989,6.989,0,0,0,1.368,3.549c1.16,1.238-.649,2.241-.649,2.241" transform="translate(-21.334 -25.084)" fill="none" stroke="#bf6d60" stroke-linecap="round" stroke-linejoin="round" stroke-width="1"/>
            <path id="Path_610720" data-name="Path 610720" d="M66.242,66.5a2.094,2.094,0,0,0-2.909.109" transform="translate(-22.004 -22.908)" fill="none" stroke="#00557f" stroke-linecap="round" stroke-linejoin="round" stroke-width="1"/>
            <path id="Path_610721" data-name="Path 610721" d="M54.011,69.079a9.531,9.531,0,0,1-3.147,1.553" transform="translate(-17.672 -24)" fill="none" stroke="#00557f" stroke-linecap="round" stroke-linejoin="round" stroke-width="1"/>
            <path id="Path_610722" data-name="Path 610722" d="M35.687,76.708a4.5,4.5,0,0,1,2.858,3.2" transform="translate(-12.399 -26.651)" fill="none" stroke="#bf6d60" stroke-linecap="round" stroke-linejoin="round" stroke-width="1"/>
            <path id="Path_610723" data-name="Path 610723" d="M37.871,80.4a1.51,1.51,0,0,1,.345-1.524" transform="translate(-13.131 -27.405)" fill="none" stroke="#bf6d60" stroke-linecap="round" stroke-linejoin="round" stroke-width="1"/>
            <path id="Path_610724" data-name="Path 610724" d="M53.681,74.8c.147.623.552,1.06.906.977s.521-.656.373-1.278-.552-1.06-.905-.978-.521.656-.374,1.279" transform="translate(-18.632 -25.538)" fill="#00557f"/>
            <path id="Path_610725" data-name="Path 610725" d="M64.751,72.185c.147.623.552,1.06.906.977s.521-.656.373-1.278-.552-1.06-.905-.978-.521.656-.374,1.279" transform="translate(-22.478 -24.631)" fill="#00557f"/>
            <path id="Path_610726" data-name="Path 610726" d="M62.115,85.375a3.314,3.314,0,0,0-2.745,1" transform="translate(-20.627 -29.652)" fill="none" stroke="#bf6d60" stroke-linecap="round" stroke-linejoin="round" stroke-width="1"/>
            <path id="Path_610727" data-name="Path 610727" d="M96.358,86.633c-1.524-4.886-11.2-23.108-11.2-23.108a20.4,20.4,0,0,0-3.3-5.315s-2.7-2.4-3.817-2.716a8.307,8.307,0,0,0-2.214-1.32c-1.188-.365-4.02.856-4.259,1.348s.443.672,1.564.375,1.5-.407,1.5-.407l.861,1.069a6.05,6.05,0,0,0-1.767,1.61c-.152.548.591,1.366.591,1.366s.452,1.719,1.084,1.908l.633.189s1.38,2.455,3.056,2.61c0,0,.762,2.6,2.5,3.029.378,3.224,1.851,15.249,3.252,19.511l-6.084,1.247c.356,2.431,3.2,11.747,3.2,11.747,2.805-.4,16.554-6.257,14.406-13.142" transform="translate(-24.847 -18.798)" fill="#ffa78c"/>
            <path id="Path_610728" data-name="Path 610728" d="M72.917,248.535s-1.816-50.112-10.229-70.65H28.151s-3.542,9.661-2.772,29.793c.619,16.18,4.648,34.071,6.208,40.476-.169,6.323-.132,24,4.628,39.88H46.281l-.593-37.427,2.9-46.77,8.807,41.906-.04-.007s1.365,25.777,9.358,42.3h8.882Z" transform="translate(-8.779 -61.802)" fill="#03386e"/>
            <path id="Path_610729" data-name="Path 610729" d="M89.021,73.917a1.863,1.863,0,0,1-2.071.237" transform="translate(-30.209 -25.681)" fill="none" stroke="#bf6d60" stroke-linecap="round" stroke-linejoin="round" stroke-width="1"/>
            <path id="Path_610730" data-name="Path 610730" d="M33.324,179.436s-4.155,16.777-2.773,33.16a291.12,291.12,0,0,0,4.836,32.369" transform="translate(-10.516 -62.341)" fill="none" stroke="#004560" stroke-linecap="round" stroke-linejoin="round" stroke-width="1"/>
            <path id="Path_610731" data-name="Path 610731" d="M82.858,68.521a.8.8,0,0,0,.2-1.051l-.693-1.043" transform="translate(-28.615 -23.079)" fill="none" stroke="#bf6d60" stroke-linecap="round" stroke-linejoin="round" stroke-width="1"/>
            <path id="Path_610732" data-name="Path 610732" d="M80.2,63.427s-1.612.683-1.761,1.442" transform="translate(-27.252 -22.036)" fill="none" stroke="#bf6d60" stroke-linecap="round" stroke-linejoin="round" stroke-width="1"/>
            <path id="Path_610733" data-name="Path 610733" d="M78.094,60.584a3.64,3.64,0,0,0-2.287,1.2" transform="translate(-26.338 -21.049)" fill="none" stroke="#bf6d60" stroke-linecap="round" stroke-linejoin="round" stroke-width="1"/>
            <path id="Path_610734" data-name="Path 610734" d="M65.759,104.1l11.817.4,3.047,12.644s-4.828,2.823-8.919,2.724c-6.092-.147-5.946-15.771-5.946-15.771" transform="translate(-22.846 -36.166)" fill="#ffd07f"/>
            <path id="Path_610735" data-name="Path 610735" d="M30.277,167.247s.856.311,1.6.506,1.6.234,1.246-.583-2.336-1.831-4.36-1.519-2.686.5-2.687.5l-3.609.394L11.669,151.364l3.767-9.881-9.684-6.92A109.069,109.069,0,0,0,.146,150.586c-2.024,8.1,17.647,20.762,17.647,20.762a7.667,7.667,0,0,0,3.737,1.973,15.8,15.8,0,0,0,4.883.074c.012,0,.024,0,.037,0l.178-.029c.191-.027.3-.046.3-.046v0l2.353-.388s.856.312,1.6.506,1.6.234,1.246-.584c-.3-.711-1.846-1.567-3.573-1.574l1.224-.2s.857.311,1.6.506,1.6.234,1.246-.584-2.268-1.789-4.255-1.526l1.759-.29s.857.311,1.6.506,1.6.234,1.246-.584-2.336-1.831-4.36-1.519c-.724.112-1.267.206-1.674.283V167.8Z" transform="translate(0 -46.751)" fill="#ffa78c"/>
            <path id="Path_610736" data-name="Path 610736" d="M18.742,111.092A34.49,34.49,0,0,0,7.675,126.908l11.592,7.4s5.058-7.23,6.689-12.608-3.771-11.844-7.214-10.609" transform="translate(-2.667 -38.544)" fill="#ffd07f"/>
            <path id="Path_610737" data-name="Path 610737" d="M34.694,103.617a21.526,21.526,0,0,0,11.338,2.5c7.076-.2,8.933-3.175,8.933-3.175l-3.194-1.179-10.317-1Z" transform="translate(-12.054 -35.008)" fill="#ffa78c"/>
            <path id="Path_610738" data-name="Path 610738" d="M30.665,132.943a32.729,32.729,0,0,0,2.629-10.221" transform="translate(-10.654 -42.637)" fill="none" stroke="#bf6d60" stroke-linecap="round" stroke-linejoin="round" stroke-width="1"/>
            <path id="Path_610739" data-name="Path 610739" d="M74.869,111.954s3.465,7.375,3.209,10.236" transform="translate(-26.012 -38.896)" fill="none" stroke="#bf6d60" stroke-linecap="round" stroke-linejoin="round" stroke-width="1"/>
            <line id="Line_895" data-name="Line 895" x1="7.794" y2="1.776" transform="translate(40.07 99.33)" fill="none" stroke="#bf6d60" stroke-linecap="round" stroke-linejoin="round" stroke-width="1"/>
            <path id="Path_610740" data-name="Path 610740" d="M37.761,156.751l1.505.861-1.505.705" transform="translate(-13.119 -54.46)" fill="none" stroke="#bf6d60" stroke-linecap="round" stroke-linejoin="round" stroke-width="1"/>
            <path id="Path_610741" data-name="Path 610741" d="M36.146,107.865s8.1,2.77,13.766,1.28,6.885-3.371,6.885-3.371" transform="translate(-12.558 -36.749)" fill="none" stroke="#bf6d60" stroke-linecap="round" stroke-linejoin="round" stroke-width="1"/>
            <path id="Path_610742" data-name="Path 610742" d="M15.163,160.31a10.667,10.667,0,0,1-5.106,1.823" transform="translate(-3.494 -55.696)" fill="none" stroke="#bf6d60" stroke-linecap="round" stroke-linejoin="round" stroke-width="1"/>
            <path id="Path_610743" data-name="Path 610743" d="M91.932,104.177a35.792,35.792,0,0,0,5.784,1.889" transform="translate(-31.94 -36.194)" fill="none" stroke="#bf6d60" stroke-linecap="round" stroke-linejoin="round" stroke-width="1"/>
            <path id="Path_610744" data-name="Path 610744" d="M46.579,286.053a5.831,5.831,0,0,0,5.724,0" transform="translate(-16.183 -99.383)" fill="none" stroke="#004560" stroke-linecap="round" stroke-linejoin="round" stroke-width="1"/>
            <path id="Path_610745" data-name="Path 610745" d="M93.339,283.91s-3.75.493-5.625-1.184" transform="translate(-30.474 -98.227)" fill="none" stroke="#004560" stroke-linecap="round" stroke-linejoin="round" stroke-width="1"/>
            <line id="Line_896" data-name="Line 896" x2="3.298" y2="1.184" transform="translate(48.612 183.941)" fill="none" stroke="#004560" stroke-linecap="round" stroke-linejoin="round" stroke-width="1"/>
            <line id="Line_897" data-name="Line 897" x2="2.062" y2="1.897" transform="translate(22.807 186.352)" fill="none" stroke="#004560" stroke-linecap="round" stroke-linejoin="round" stroke-width="1"/>
            <path id="Path_610746" data-name="Path 610746" d="M61,210.26s.754-7.571,2.925-10.334a10.764,10.764,0,0,1,5.132-3.553" transform="translate(-21.193 -68.226)" fill="none" stroke="#004560" stroke-linecap="round" stroke-linejoin="round" stroke-width="1"/>
            <path id="Path_610747" data-name="Path 610747" d="M42.545,371.658s4.064.538,9.689.883a52.472,52.472,0,0,0,8.487,0" transform="translate(-14.781 -129.125)" fill="none" stroke="#004560" stroke-linecap="round" stroke-linejoin="round" stroke-width="1"/>
            <path id="Path_610748" data-name="Path 610748" d="M90.587,371.272s9.622.85,13.273.77a33.96,33.96,0,0,0,6.514-.77" transform="translate(-31.473 -128.991)" fill="none" stroke="#004560" stroke-linecap="round" stroke-linejoin="round" stroke-width="1"/>
            <path id="Path_610749" data-name="Path 610749" d="M43.527,328.085S36.521,303.425,38,293.161" transform="translate(-13.131 -101.853)" fill="none" stroke="#004560" stroke-linecap="round" stroke-linejoin="round" stroke-width="1"/>
            <path id="Path_610750" data-name="Path 610750" d="M63.826,207.014s8.442,43.19,8.61,47.533" transform="translate(-22.175 -71.923)" fill="none" stroke="#004560" stroke-linecap="round" stroke-linejoin="round" stroke-width="1"/>
            <path id="Path_610751" data-name="Path 610751" d="M79.547,287.2s.987,27.356,8.142,38.816" transform="translate(-27.637 -99.78)" fill="none" stroke="#004560" stroke-linecap="round" stroke-linejoin="round" stroke-width="1"/>
            <path id="Path_610752" data-name="Path 610752" d="M29.672,57.425a30.474,30.474,0,0,1,4.915,0" transform="translate(-10.309 -19.914)" fill="none" stroke="#004560" stroke-linecap="round" stroke-linejoin="round" stroke-width="1"/>
            <path id="Path_610753" data-name="Path 610753" d="M54,55.653a5.8,5.8,0,0,1-1.086,5.794c-2.368,2.842-7.4,2.619-8.734,6.357,0,0,.809,4.8-2.088,5.135" transform="translate(-14.625 -19.335)" fill="none" stroke="#004560" stroke-linecap="round" stroke-linejoin="round" stroke-width="1"/>
            <path id="Path_610754" data-name="Path 610754" d="M43.4,70.81a9.491,9.491,0,0,1,.691-3.437" transform="translate(-15.079 -23.407)" fill="none" stroke="#004560" stroke-linecap="round" stroke-linejoin="round" stroke-width="1"/>
            <line id="Line_898" data-name="Line 898" x2="1.535" y2="0.679" transform="translate(45.249 38.439)" fill="none" stroke="#004560" stroke-linecap="round" stroke-linejoin="round" stroke-width="1"/>
            <path id="Path_610755" data-name="Path 610755" d="M26.856,77.62a18.989,18.989,0,0,0,0,3.972" transform="translate(-9.292 -26.967)" fill="none" stroke="#004560" stroke-linecap="round" stroke-linejoin="round" stroke-width="1"/>
            <path id="Path_610756" data-name="Path 610756" d="M31.043,89.1a12.911,12.911,0,0,0,0,2.442" transform="translate(-10.762 -30.955)" fill="none" stroke="#004560" stroke-linecap="round" stroke-linejoin="round" stroke-width="1"/>
            <line id="Line_899" data-name="Line 899" y2="1.44" transform="translate(25.085 58.909)" fill="none" stroke="#004560" stroke-linecap="round" stroke-linejoin="round" stroke-width="1"/>
            <path id="Path_610757" data-name="Path 610757" d="M61.4,49.226a9.042,9.042,0,0,1,3.352,1.924" transform="translate(-21.334 -17.103)" fill="none" stroke="#004560" stroke-linecap="round" stroke-linejoin="round" stroke-width="1"/>
            <line id="Line_900" data-name="Line 900" x2="0.14" y2="1.521" transform="translate(46.53 57.388)" fill="none" stroke="#004560" stroke-linecap="round" stroke-linejoin="round" stroke-width="1"/>
            <path id="Path_610758" data-name="Path 610758" d="M30.862,63.427a6.909,6.909,0,0,0-.345,3.019" transform="translate(-10.582 -22.036)" fill="none" stroke="#004560" stroke-linecap="round" stroke-linejoin="round" stroke-width="1"/>
            <path id="Path_610759" data-name="Path 610759" d="M50.54,54.973A4.539,4.539,0,0,1,49.931,57" transform="translate(-17.347 -19.099)" fill="none" stroke="#004560" stroke-linecap="round" stroke-linejoin="round" stroke-width="1"/>
            <path id="Path_610760" data-name="Path 610760" d="M36.522,51.4a9.821,9.821,0,0,1,3.86-2.171" transform="translate(-12.689 -17.103)" fill="none" stroke="#004560" stroke-linecap="round" stroke-linejoin="round" stroke-width="1"/>
            <path id="Path_610761" data-name="Path 610761" d="M103.2,0H77a5.482,5.482,0,0,0-5.482,5.482V25.6A5.482,5.482,0,0,0,77,31.087h8.633l-.884,3.808a1.237,1.237,0,0,0,1.881,1.315l7.832-5.123H103.2a5.482,5.482,0,0,0,5.482-5.482V5.482A5.481,5.481,0,0,0,103.2,0" transform="translate(-24.847)" fill="#0c5e46"/>
            <path id="Path_610762" data-name="Path 610762" d="M90.322,10.94a2.383,2.383,0,0,1-.844-3.589A7.606,7.606,0,0,1,95.9,4.536c4.311.041,8.134,2.895,8.1,6.947-.027,2.816-2.142,4.52-4.912,5.671-.981.422-1.018,1.226-1.027,2.174a1.609,1.609,0,0,1-1.625,1.594l-1.523-.014a1.61,1.61,0,0,1-1.594-1.626l.014-1.523c.012-1.264.08-2.3,1.381-3.119,1.764-1.1,3.4-1.174,3.422-3.215a2.289,2.289,0,0,0-2.3-2.379,3.16,3.16,0,0,0-2.572,1.233,2.4,2.4,0,0,1-2.935.66m8.592,14.92a3.29,3.29,0,1,1-3.273-3.337,3.281,3.281,0,0,1,3.273,3.337" transform="translate(-30.915 -1.576)" fill="#fff"/>
          </g>
        </g>
      </g>
    </g>
    <g id="Group_1074039" data-name="Group 1074039" transform="translate(0 -228.025)">
      <rect id="Rectangle_378777" data-name="Rectangle 378777" width="170" height="245.66" transform="translate(558 17361)" fill="none"/>
      <g id="Group_1074036" data-name="Group 1074036" transform="translate(579.306 17361.346)">
        <g id="Group_1072896" data-name="Group 1072896" clip-path="url(#clip-path-2)">
          <path id="Path_610871" data-name="Path 610871" d="M6.51,144.216c5.72-21.762,12.946-32.362,28.438-34.6s19.211,33.733,44.33,26.336,38.3-5.213,43.048,15.563,6.9,89.125-30.341,79.735-49.12-26.886-66.093-17.41S2,220.166.326,204.974,3.807,154.5,6.51,144.216" transform="translate(0 -38.501)" fill="#e1efe3"/>
          <path id="Path_610872" data-name="Path 610872" d="M98.383,6.241a2.313,2.313,0,0,1-.819-3.524A7.662,7.662,0,0,1,104,0c4.306.07,8.106,2.893,8.039,6.865-.047,2.76-2.172,4.416-4.947,5.526-.983.407-1.026,1.194-1.042,2.124a1.594,1.594,0,0,1-1.634,1.551l-1.521-.025a1.592,1.592,0,0,1-1.581-1.6l.025-1.493c.021-1.239.1-2.253,1.4-3.048,1.77-1.069,3.407-1.127,3.441-3.127A2.264,2.264,0,0,0,103.9,4.423a3.182,3.182,0,0,0-2.579,1.191,2.43,2.43,0,0,1-2.937.628m8.48,14.684a3.288,3.288,0,1,1-3.246-3.293,3.251,3.251,0,0,1,3.246,3.293" transform="translate(-32.916 0)" fill="#0c5e46"/>
          <path id="Path_610873" data-name="Path 610873" d="M136.663,25.777a2.312,2.312,0,0,1,.763-3.536,7.73,7.73,0,0,1,7.006.183c3.879,1.835,6.123,5.961,4.364,9.54-1.222,2.486-3.858,3.116-6.852,2.981-1.067-.035-1.441.663-1.853,1.5a1.622,1.622,0,0,1-2.147.736l-1.371-.649a1.564,1.564,0,0,1-.75-2.106l.661-1.345c.549-1.117,1.049-2.006,2.575-2.191,2.064-.243,3.575.379,4.461-1.423a2.226,2.226,0,0,0-1.073-3.072,3.213,3.213,0,0,0-2.85.02,2.43,2.43,0,0,1-2.934-.639m1.425,16.82a3.306,3.306,0,0,1-4.4,1.486,3.184,3.184,0,0,1-1.527-4.287,3.307,3.307,0,0,1,4.383-1.524,3.2,3.2,0,0,1,1.54,4.326" transform="translate(-44.711 -7.557)" fill="#0c5e46"/>
          <path id="Path_610874" data-name="Path 610874" d="M55.764,23.352a2.368,2.368,0,0,1-2.837-2.305,7.421,7.421,0,0,1,3.419-6c3.459-2.518,8.225-2.55,10.637.64,1.677,2.217,1.02,4.8-.492,7.338-.527.91-.071,1.561.494,2.307a1.559,1.559,0,0,1-.333,2.207l-1.222.89a1.628,1.628,0,0,1-2.25-.327l-.907-1.2c-.753-1-1.322-1.844-.781-3.255.74-1.906,2-2.931.788-4.537a2.315,2.315,0,0,0-3.271-.5A3.08,3.08,0,0,0,57.7,21.1a2.368,2.368,0,0,1-1.94,2.253m15.842,6.576a3.177,3.177,0,0,1-.7,4.509,3.313,3.313,0,0,1-4.579-.665,3.176,3.176,0,0,1,.661-4.515,3.326,3.326,0,0,1,4.619.671" transform="translate(-17.949 -4.647)" fill="#0c5e46"/>
          <path id="Path_610875" data-name="Path 610875" d="M57.612,343.327l-.664,9.582-9.425,7.661,1.809,2.615L67.04,360.1l1.428-16.14Z" transform="translate(-16.116 -120.704)" fill="#ffa78c"/>
          <path id="Path_610876" data-name="Path 610876" d="M50.894,362.139a12.017,12.017,0,0,0,7.794,3.162c1.539.04,6.321-1.41,6.321-1.41a17.048,17.048,0,0,1-.452,5.675c-.377,1.123-17.232,3.5-19.8,3.409s-3.237-.373-3.808-1.168-1.047-2.148,1.333-3.643,8.616-6.025,8.616-6.025" transform="translate(-13.728 -127.317)" fill="#00557f"/>
          <path id="Path_610877" data-name="Path 610877" d="M124.994,342.353l.664,9.582,9.425,7.66-1.809,2.616-17.709-3.083-1.428-16.141Z" transform="translate(-38.708 -120.361)" fill="#ffa78c"/>
          <path id="Path_610878" data-name="Path 610878" d="M129.841,361.165a12.018,12.018,0,0,1-7.794,3.162c-1.538.04-6.321-1.41-6.321-1.41a17.048,17.048,0,0,0,.452,5.675c.378,1.123,17.232,3.5,19.8,3.409s3.237-.373,3.809-1.168,1.047-2.148-1.333-3.643-8.616-6.025-8.616-6.025" transform="translate(-39.226 -126.975)" fill="#00557f"/>
          <path id="Path_610879" data-name="Path 610879" d="M64.278,183.327,58.47,287.71H73.989l9.388-87.642,2.084.4L93.6,287.71l14.823-.645-5.068-103.739Z" transform="translate(-19.829 -64.452)" fill="#03386e"/>
          <path id="Path_610880" data-name="Path 610880" d="M104.663,139.191V99.26A93.7,93.7,0,0,0,82.675,96.4s-11.9-.613-14.9,0l-2.484,42.787L62.32,156.607s17.021,2.9,21.02,2.624l2.856-4.064,2.427,4.083s11-.223,18.422-2.643Z" transform="translate(-21.135 -33.797)" fill="#ffd07f"/>
          <path id="Path_610881" data-name="Path 610881" d="M102.392,96.908a17.178,17.178,0,0,0,.073,2.171l-4.712,2.635-5.938-4.068a16.539,16.539,0,0,0,.86-3.047c.04-.215.08-.425.113-.628.067-.379.114-.739.147-1.066.1-.883.133-1.543.14-1.8.007-.078.007-.117.007-.117l.693.144,9.283,1.909a6.526,6.526,0,0,0-.393,1.242,9.467,9.467,0,0,0-.219,1.491c-.034.393-.054.772-.054,1.132" transform="translate(-31.137 -31.989)" fill="#ffa78c"/>
          <path id="Path_610882" data-name="Path 610882" d="M48.531,116.422S57.654,97.2,63.1,96.536c7-.847,1.809,16.494,1.809,16.494L56.243,128.1Z" transform="translate(-16.458 -33.929)" fill="#ffd07f"/>
          <path id="Path_610883" data-name="Path 610883" d="M138.072,119.873s-9.123-18.45-14.566-19.109c-7-.848-1.809,16.493-1.809,16.493l8.664,13.825Z" transform="translate(-40.644 -35.415)" fill="#ffd07f"/>
          <path id="Path_610884" data-name="Path 610884" d="M42.618,126.967c-1-1.791-15.114-12.6-18.533-15.2l-.936-1.268a7.712,7.712,0,0,0-3.19-2.522,41.669,41.669,0,0,0-5.426-1.4c-1.047-.045,0,1.3.809,1.607s2.333.8,2.333.8l-6.236,2.731s-3.558,1.343-3.88,2.254,1.143.35,2.464-.176c.979-.389,2.035-.855,2.516-1.07l.108.1c-.433.167-3.527,1.386-3.826,2.233-.321.911,1.143.351,2.464-.175.95-.377,1.964-.824,2.465-1.047l.2.184c-.683.268-3.446,1.4-3.727,2.194-.321.911,1.143.35,2.463-.175.895-.356,1.844-.772,2.371-1.006l.165.152c-1,.412-3.112,1.353-3.357,2.045-.321.91,1.143.35,2.463-.175.716-.285,1.466-.608,2.011-.847,0,0,1.194-.367,2.6-.94.58.87,12.966,19.336,18.823,19.336,6,0,6-5.591,4.855-7.629" transform="translate(-2.548 -37.467)" fill="#ffa78c"/>
          <path id="Path_610885" data-name="Path 610885" d="M166.965,114.573c-.321-.911-3.88-2.253-3.88-2.253l-6.236-2.732s1.523-.492,2.333-.8,1.856-1.653.809-1.607a41.828,41.828,0,0,0-5.426,1.4,7.712,7.712,0,0,0-3.189,2.522l-.654.886c-2.565,3-14.359,16.834-14.964,18.821-.679,2.229.521,7.694,6.384,6.455,4.914-1.039,11.611-16.372,13.652-21.313,1.316.525,2.394.855,2.394.855.544.239,1.294.562,2.01.846,1.321.525,2.785,1.086,2.463.175-.244-.693-2.357-1.633-3.357-2.045l.165-.151c.527.234,1.476.649,2.371,1.005,1.321.526,2.785,1.086,2.463.175-.281-.8-3.045-1.926-3.727-2.194l.2-.184c.5.224,1.515.67,2.464,1.048,1.321.525,2.785,1.085,2.464.175-.3-.847-3.392-2.066-3.826-2.233l.108-.1c.481.215,1.537.681,2.516,1.071,1.321.525,2.785,1.086,2.464.175" transform="translate(-45.981 -37.681)" fill="#ffa78c"/>
          <path id="Path_610886" data-name="Path 610886" d="M70.892,101.6a31.136,31.136,0,0,1-.219,16.248" transform="translate(-23.967 -35.721)" fill="none" stroke="#bf6d60" stroke-linecap="round" stroke-linejoin="round" stroke-width="1"/>
          <path id="Path_610887" data-name="Path 610887" d="M125.545,105.924s-2.575,9.088-1.287,15.053" transform="translate(-42.017 -37.24)" fill="none" stroke="#bf6d60" stroke-linecap="round" stroke-linejoin="round" stroke-width="1"/>
          <path id="Path_610888" data-name="Path 610888" d="M69.708,162.326l1.806.981-1.168,1.821" transform="translate(-23.64 -57.069)" fill="none" stroke="#bf6d60" stroke-linecap="round" stroke-linejoin="round" stroke-width="1"/>
          <line id="Line_911" data-name="Line 911" x1="1.882" y2="1.401" transform="translate(80.822 106.658)" fill="none" stroke="#bf6d60" stroke-linecap="round" stroke-linejoin="round" stroke-width="1"/>
          <line id="Line_912" data-name="Line 912" x1="1.552" y2="51.647" transform="translate(65.061 69.724)" fill="none" stroke="#bf6d60" stroke-linecap="round" stroke-linejoin="round" stroke-width="1"/>
          <path id="Path_610889" data-name="Path 610889" d="M103.557,93.107a6.466,6.466,0,0,0-.393,1.242,9.547,9.547,0,0,0-.22,1.491c-.033.392-.053.772-.053,1.132a8.581,8.581,0,0,1-4.952-.556,19.437,19.437,0,0,1-4.652-2.38c.067-.379.114-.739.147-1.066.1-.883.133-1.543.14-1.8l.7.026Z" transform="translate(-31.636 -32.053)" fill="#d88471"/>
          <path id="Path_610890" data-name="Path 610890" d="M86.89,59.719s-1.075,9.884-.878,13.4,5.346,7.757,9.421,8.855c3.464.934,9.714-2.759,11.246-5.363s3.756-15.4,3.756-15.4S98.456,45.183,86.89,59.719" transform="translate(-29.161 -18.853)" fill="#ffa78c"/>
          <path id="Path_610891" data-name="Path 610891" d="M85.478,71.327S83.7,68.508,82.131,69.01s-1.735,3.95-.354,6.1,3,1.666,3,1.666Z" transform="translate(-27.415 -24.241)" fill="#ffa78c"/>
          <path id="Path_610892" data-name="Path 610892" d="M119.065,75.662s2.5-2.228,3.869-1.322.556,4.267-1.377,5.964-3.355.788-3.355.788Z" transform="translate(-40.086 -26.06)" fill="#ffa78c"/>
          <path id="Path_610893" data-name="Path 610893" d="M92.348,44.642c-4.855.981-4.784,3.783-7.426,4.414a5.026,5.026,0,0,0-4.138,3.923c-.36,1.682.211,1.682.711,1.682h.786s.062,1.637-.072,3.643.894,2.312.894,2.312,2.247,1.472,2.319,3.573a1.859,1.859,0,0,0,1.357-1.4,55.961,55.961,0,0,0,.429-5.815A12.325,12.325,0,0,0,92.419,55.5a4.109,4.109,0,0,0,2.642.7c1.856,0,7.283-1.752,8.782-.841a6.182,6.182,0,0,0,2.214,2.873,58.733,58.733,0,0,0-.583,5.955,3.339,3.339,0,0,0,.714,1.89s1.154-2.286,3.082-2.473a14.445,14.445,0,0,0,2-4.881,1.339,1.339,0,0,0,1.285-1.541c-.143-1.471-.714-1.962-1.071-3.433s-1.571-3.013-2.427-3.083c0,0,.785-1.191-3.07-3.784a17.951,17.951,0,0,0-13.638-2.242" transform="translate(-27.358 -15.541)" fill="#00557f"/>
          <path id="Path_610894" data-name="Path 610894" d="M91.889,93.94a10.189,10.189,0,0,0,1.072,4.405,23.039,23.039,0,0,0,3.742,4.405,10.365,10.365,0,0,0-3.647-.805,8.667,8.667,0,0,0-3.189.805l-1.143-7.157Z" transform="translate(-30.089 -33.027)" fill="#fffbdc"/>
          <path id="Path_610895" data-name="Path 610895" d="M105.708,96.074s-1.122,5.43-4.912,7.427a12.493,12.493,0,0,1,3.827,0,5.209,5.209,0,0,1,2.285,1.25s1.873-5.618,1.913-7.293Z" transform="translate(-34.183 -33.777)" fill="#fffbdc"/>
          <path id="Path_610896" data-name="Path 610896" d="M82.961,71.639a6.832,6.832,0,0,1,2,3.643" transform="translate(-28.135 -25.186)" fill="none" stroke="#bf6d60" stroke-linecap="round" stroke-linejoin="round" stroke-width="1"/>
          <path id="Path_610897" data-name="Path 610897" d="M83.826,75.989s.083-1.308.78-1.541" transform="translate(-28.428 -26.174)" fill="none" stroke="#bf6d60" stroke-linecap="round" stroke-linejoin="round" stroke-width="1"/>
          <path id="Path_610898" data-name="Path 610898" d="M122.747,76.825a6.7,6.7,0,0,0-2.9,3.269" transform="translate(-40.644 -27.009)" fill="none" stroke="#bf6d60" stroke-linecap="round" stroke-linejoin="round" stroke-width="1"/>
          <path id="Path_610899" data-name="Path 610899" d="M122.041,80.7a1.353,1.353,0,0,0,0-1.355" transform="translate(-41.388 -27.896)" fill="none" stroke="#bf6d60" stroke-linecap="round" stroke-linejoin="round" stroke-width="1"/>
          <path id="Path_610900" data-name="Path 610900" d="M97.131,73.27c-.086.662-.466,1.159-.849,1.111s-.623-.623-.537-1.285.466-1.159.849-1.111.623.623.537,1.285" transform="translate(-32.464 -25.307)" fill="#00557f"/>
          <path id="Path_610901" data-name="Path 610901" d="M93.644,67.707s2.537.652,3.9-.158" transform="translate(-31.758 -23.748)" fill="none" stroke="#00557f" stroke-linecap="round" stroke-linejoin="round" stroke-width="1"/>
          <path id="Path_610902" data-name="Path 610902" d="M109.144,74.125c-.012.667.291,1.213.676,1.22s.708-.528.72-1.2-.291-1.213-.676-1.22-.708.528-.72,1.2" transform="translate(-37.014 -25.64)" fill="#00557f"/>
          <path id="Path_610903" data-name="Path 610903" d="M112.231,68.883s-2.606.287-3.836-.709" transform="translate(-36.76 -23.968)" fill="none" stroke="#00557f" stroke-linecap="round" stroke-linejoin="round" stroke-width="1"/>
          <path id="Path_610904" data-name="Path 610904" d="M102.5,73.3s-.194,2.652-.535,2.968a.932.932,0,0,0-.931.972,1.258,1.258,0,0,0,.845,1.277" transform="translate(-34.262 -25.771)" fill="none" stroke="#bf6d60" stroke-linecap="round" stroke-linejoin="round" stroke-width="1"/>
          <path id="Path_610905" data-name="Path 610905" d="M100.321,85.865a5.064,5.064,0,0,1,2.751-.841,2.318,2.318,0,0,1,1.575.841" transform="translate(-34.022 -29.884)" fill="none" stroke="#bf6d60" stroke-linecap="round" stroke-linejoin="round" stroke-width="1"/>
          <line id="Line_913" data-name="Line 913" x2="2.166" y2="1.097" transform="translate(15.126 71.512)" fill="none" stroke="#bf6d60" stroke-linecap="round" stroke-linejoin="round" stroke-width="1"/>
          <line id="Line_914" data-name="Line 914" x2="3.189" y2="2.803" transform="translate(9.699 74.944)" fill="none" stroke="#bf6d60" stroke-linecap="round" stroke-linejoin="round" stroke-width="1"/>
          <path id="Path_610906" data-name="Path 610906" d="M24.8,119.44s2.59-.934,2.829-.981" transform="translate(-8.411 -41.647)" fill="none" stroke="#bf6d60" stroke-linecap="round" stroke-linejoin="round" stroke-width="1"/>
          <line id="Line_915" data-name="Line 915" x1="1.907" y1="0.621" transform="translate(107.904 77.653)" fill="none" stroke="#bf6d60" stroke-linecap="round" stroke-linejoin="round" stroke-width="1"/>
          <line id="Line_916" data-name="Line 916" x1="3.285" y2="3.037" transform="translate(113.045 75.236)" fill="none" stroke="#bf6d60" stroke-linecap="round" stroke-linejoin="round" stroke-width="1"/>
          <path id="Path_610907" data-name="Path 610907" d="M166.728,110.894a11.3,11.3,0,0,1-2.01,1.683" transform="translate(-55.861 -38.987)" fill="none" stroke="#bf6d60" stroke-linecap="round" stroke-linejoin="round" stroke-width="1"/>
          <line id="Line_917" data-name="Line 917" x2="15.55" transform="translate(39.047 219.175)" fill="none" stroke="#004560" stroke-linecap="round" stroke-linejoin="round" stroke-width="1"/>
          <line id="Line_918" data-name="Line 918" y1="0.715" x2="15.269" transform="translate(73.327 217.773)" fill="none" stroke="#004560" stroke-linecap="round" stroke-linejoin="round" stroke-width="1"/>
          <path id="Path_610908" data-name="Path 610908" d="M73.45,199.349s-2.871,37.832-3.721,41.8,0,5.465,0,5.465a41.353,41.353,0,0,0-.378,4.484c.1.748-1.8,33.442-1.8,33.442" transform="translate(-22.907 -70.085)" fill="none" stroke="#004560" stroke-linecap="round" stroke-linejoin="round" stroke-width="1"/>
          <path id="Path_610909" data-name="Path 610909" d="M115.375,199.349s3.237,44.838,3.618,47.08a10.625,10.625,0,0,1,0,3.852,20.228,20.228,0,0,0,.169,3.061c.211,1.307,2.306,31.2,2.306,31.2" transform="translate(-39.127 -70.085)" fill="none" stroke="#004560" stroke-linecap="round" stroke-linejoin="round" stroke-width="1"/>
          <line id="Line_919" data-name="Line 919" x1="4.342" y1="4.017" transform="translate(59.206 131.599)" fill="none" stroke="#004560" stroke-linecap="round" stroke-linejoin="round" stroke-width="1"/>
          <line id="Line_920" data-name="Line 920" y1="1.985" x2="3.475" transform="translate(65.632 134.028)" fill="none" stroke="#004560" stroke-linecap="round" stroke-linejoin="round" stroke-width="1"/>
          <path id="Path_610910" data-name="Path 610910" d="M76.646,122.853l8.95.832s-.1,9.817-5.332,9.817-3.618-10.649-3.618-10.649" transform="translate(-25.913 -43.192)" fill="#f2bd70"/>
          <line id="Line_921" data-name="Line 921" x1="2.071" y2="1.167" transform="translate(79.203 35.687)" fill="none" stroke="#004560" stroke-linecap="round" stroke-linejoin="round" stroke-width="1"/>
          <path id="Path_610911" data-name="Path 610911" d="M87.858,62.728s4.856.654,7-1.308c0,0,1.757,1.378,5,.362s5.952-.782,6.429-.5c0,0,1.1,2.849,3.189,3.129s2.427-.42,2.427-.42" transform="translate(-29.795 -21.46)" fill="none" stroke="#004560" stroke-linecap="round" stroke-linejoin="round" stroke-width="1"/>
          <line id="Line_922" data-name="Line 922" x1="0.571" y2="0.654" transform="translate(83.293 42.062)" fill="none" stroke="#004560" stroke-linecap="round" stroke-linejoin="round" stroke-width="1"/>
          <path id="Path_610912" data-name="Path 610912" d="M85,60.521a3.839,3.839,0,0,1,.981-1.775" transform="translate(-28.828 -20.653)" fill="none" stroke="#004560" stroke-linecap="round" stroke-linejoin="round" stroke-width="1"/>
          <path id="Path_610913" data-name="Path 610913" d="M120.66,52.13a2.95,2.95,0,0,0-1.468-1.308" transform="translate(-40.422 -17.868)" fill="none" stroke="#004560" stroke-linecap="round" stroke-linejoin="round" stroke-width="1"/>
          <path id="Path_610914" data-name="Path 610914" d="M90.741,50.615a25.291,25.291,0,0,0,2.427-2.242" transform="translate(-30.773 -17.007)" fill="none" stroke="#004560" stroke-linecap="round" stroke-linejoin="round" stroke-width="1"/>
          <path id="Path_610915" data-name="Path 610915" d="M98.88,58.732a4.331,4.331,0,0,1,1.714-1.355" transform="translate(-33.533 -20.172)" fill="none" stroke="#004560" stroke-linecap="round" stroke-linejoin="round" stroke-width="1"/>
        </g>
      </g>
    </g>
  </g>
</svg>
