<svg xmlns="http://www.w3.org/2000/svg" xmlns:xlink="http://www.w3.org/1999/xlink" width="295" height="324.158" viewBox="0 0 295 324.158">
  <defs>
    <clipPath id="clip-path">
      <rect id="Rectangle_378124" data-name="Rectangle 378124" width="134.306" height="245.66" fill="none"/>
    </clipPath>
  </defs>
  <g id="Group_1074135" data-name="Group 1074135" transform="translate(-810 -17118.883)">
    <rect id="Rectangle_377363" data-name="Rectangle 377363" width="295" height="324.158" rx="20" transform="translate(810 17118.883)" fill="#fef5e5"/>
    <text id="_Cuantos_" data-name="¿Cuantos?" transform="translate(829 17401.32)" fill="#12263f" font-size="18" font-family="Roboto-Bold, Roboto" font-weight="700"><tspan x="-42.372" y="17">¿Cuantos?</tspan></text>
    <g id="Group_1074038" data-name="Group 1074038" transform="translate(0 -228.025)">
      <rect id="Rectangle_378778" data-name="Rectangle 378778" width="170" height="245.66" transform="translate(873 17361)" fill="none"/>
      <g id="Group_1074035" data-name="Group 1074035" transform="translate(890 17361.346)">
        <g id="Group_1072894" data-name="Group 1072894" clip-path="url(#clip-path)">
          <path id="Path_610815" data-name="Path 610815" d="M6.954,115.624C13.064,91.712,20.783,80.065,37.331,77.6s20.521,37.065,47.352,28.937,40.911-5.728,45.983,17.1,7.366,97.928-32.409,87.61-52.469-29.541-70.6-19.129S2.133,199.075.349,182.383s3.718-55.459,6.605-66.759" transform="translate(0 -22.281)" fill="#e1efe3"/>
          <path id="Path_610816" data-name="Path 610816" d="M164.659,0H129.7a6.048,6.048,0,0,0-6.02,6.076V30.5a6.048,6.048,0,0,0,6.02,6.076h4.21c-1.111,3.188-2.387,7.53-1.3,8.019,1.228.553,6.864-4.82,10.064-8.019h21.983a6.048,6.048,0,0,0,6.02-6.076V6.076A6.048,6.048,0,0,0,164.659,0" transform="translate(-36.372)" fill="#0c5e46"/>
          <path id="Path_610817" data-name="Path 610817" d="M145,12.321a2.835,2.835,0,0,1-.864-4.278,8.89,8.89,0,0,1,7.635-3.1c5.054.2,9.438,3.718,9.248,8.512-.132,3.333-2.672,5.274-5.962,6.538-1.165.464-1.237,1.414-1.281,2.537a1.9,1.9,0,0,1-1.962,1.828l-1.786-.072a1.9,1.9,0,0,1-1.811-1.98l.071-1.8c.059-1.5.175-2.717,1.73-3.643,2.108-1.243,4.032-1.268,4.128-3.682a2.7,2.7,0,0,0-2.619-2.9,3.694,3.694,0,0,0-3.061,1.367,2.8,2.8,0,0,1-3.465.677m9.55,17.968a3.861,3.861,0,1,1-3.72-4.067,3.864,3.864,0,0,1,3.72,4.067" transform="translate(-42.202 -1.417)" fill="#fff"/>
          <path id="Path_610818" data-name="Path 610818" d="M124.574,314.112l2.675,10.653,3.567.8,6.241-.8-2.289-10.653Z" transform="translate(-36.634 -90.315)" fill="#ffa78c"/>
          <path id="Path_610819" data-name="Path 610819" d="M127.442,328.008s.514,7.055.868,8.155,1.041.987,1.041.987a62.681,62.681,0,0,0,6.505,1.581,44.657,44.657,0,0,0,8.909.963c3.111-.137,4.313-.55,4.313-1.581s-.354-3.024-4.171-5.361-6.01-3.849-6.01-3.849a4.275,4.275,0,0,0-2.051-1.719c-1.343-.481-4.478,1.443-5.279,1.65s-3.206-1.581-4.125-.825" transform="translate(-37.478 -94.051)" fill="#00557f"/>
          <path id="Path_610820" data-name="Path 610820" d="M72.545,315.978v8.283l5.534,1.585,3.585-1.585v-8.283Z" transform="translate(-21.334 -90.851)" fill="#ffa78c"/>
          <path id="Path_610821" data-name="Path 610821" d="M66.839,326.829a48.851,48.851,0,0,1-6.586,5.113C56.2,334.6,56.1,335.214,56.3,336.85s10.03,1.125,13.78.512,5.269-.921,5.269-.921l2.533-.818-1.014-9.408a20.2,20.2,0,0,1-3.356.895c-1.026.076-3.343-1.764-4.863-2.147s-1.837,1.354-1.811,1.866" transform="translate(-16.539 -93.419)" fill="#00557f"/>
          <path id="Path_610822" data-name="Path 610822" d="M160.856,71.134c-.777.135-1.911,1.622-2.513,2.489l-.364-.056c.888-1.377,2.961-3.654,1.555-3.314-1.261.3-2.462,2.3-2.9,3.107l-.452-.07c.865-1.481,3.232-4.15,1.713-3.767-1.406.355-2.742,2.813-3.115,3.551l-.259-.04c.822-1.452,1.975-3.223.83-2.818-1.272.45-2.3,2.821-2.6,3.569-.677.707-1.457,1.57-1.965,2.137-.441-1.763-1.574-3.929-2.121-3.791-.608.154.076,2.224.19,3.644a9.084,9.084,0,0,0,.784,2.668c-1.766,3.565-7.163,12.115-9.982,18.405L131.9,88.7l-11.346,6.749s12.594,16.669,17.578,15.9c11.087-1.708,16.656-25.535,17.841-31.28l3.507-6.023s2.475-3.1,1.373-2.911" transform="translate(-35.453 -19.979)" fill="#ffa78c"/>
          <path id="Path_610823" data-name="Path 610823" d="M93.947,74.1l-4.206,4.137L82.394,75.48a19.037,19.037,0,0,0,.057-3.522c-.05-.695-.121-1.339-.2-1.9-.177-1.267-.383-2.1-.383-2.1l11.029-.53a7.486,7.486,0,0,0-.071,1.453,11.841,11.841,0,0,0,.184,1.668,21.542,21.542,0,0,0,.936,3.55" transform="translate(-24.076 -19.387)" fill="#ffa78c"/>
          <path id="Path_610824" data-name="Path 610824" d="M93.171,71.135c-1.241,1.1-3.454,2.885-4.951,2.985s-4.113-.923-5.61-1.575c-.049-.694-.121-1.338-.2-1.9a9.443,9.443,0,0,0,5.652.916,13.29,13.29,0,0,0,4.922-2.1,11.818,11.818,0,0,0,.184,1.668" transform="translate(-24.235 -19.973)" fill="#d88471"/>
          <path id="Path_610825" data-name="Path 610825" d="M68.488,38.387s1.616,10.95,2.8,14.683,7.756,6.892,12.331,6.956c3.888.054,9.413-5.644,10.3-8.871s-.337-17.629-.337-17.629-17-13.987-25.088,4.861" transform="translate(-20.141 -8.204)" fill="#ffa78c"/>
          <path id="Path_610826" data-name="Path 610826" d="M81.657,50.661c.095.737-.164,1.378-.578,1.433s-.827-.5-.921-1.236.164-1.379.578-1.433.827.5.921,1.236" transform="translate(-23.567 -14.21)" fill="#00557f"/>
          <path id="Path_610827" data-name="Path 610827" d="M95,48.844c.068.74-.213,1.372-.629,1.411s-.808-.529-.877-1.269.214-1.372.629-1.411.808.529.877,1.269" transform="translate(-27.492 -13.679)" fill="#00557f"/>
          <path id="Path_610828" data-name="Path 610828" d="M69.373,50.919s-2.647-2.55-4.15-1.578-.722,4.735,1.323,6.677,3.609.972,3.609.972Z" transform="translate(-18.95 -14.123)" fill="#ffa78c"/>
          <path id="Path_610829" data-name="Path 610829" d="M103.468,46.349s2-3.089,3.687-2.487,1.768,4.447.212,6.807-3.3,1.773-3.3,1.773Z" transform="translate(-30.427 -12.589)" fill="#ffa78c"/>
          <path id="Path_610830" data-name="Path 610830" d="M68.288,42.4l1.023,3.814s2.428-.892,1.507-9.174c0,0,4.94-.76,6.447-3.126,0,0,4.1,1.006,6.531.587a10.333,10.333,0,0,0,4.437-2.193S88.4,38.353,91,39.259c0,0-.019,3.824,1.372,4.224,0,0,.283-5.309,2.428-5.919,0,0,1.559-5,1.056-6.61a3.212,3.212,0,0,0-2.093-2.028s-.665-8.66-13.983-6.761C66.939,24,65.153,30.869,64.761,32.052c-.556,1.685.28,3.354.447,5.438a13.294,13.294,0,0,0,.921,3.809Z" transform="translate(-18.989 -6.295)" fill="#00557f"/>
          <path id="Path_610831" data-name="Path 610831" d="M121.043,271.837h-14.49L89.227,181.951l-1.823.107-3.589,89.779h-14.9l-.418-48.7-.114-13.193L67.95,159.96h37.845l6.738,49.421,1.816,13.314Z" transform="translate(-19.982 -45.993)" fill="#ffd07f"/>
          <path id="Path_610832" data-name="Path 610832" d="M64.151,158.429c1.52.383,1.976-.345,1.634-.767s-3.31-1.888-4.033-2.717l-2.41-2.767a21.651,21.651,0,0,0,2.944,0c1.478-.115,2.549-1.036.383-1.265-1.58-.168-3.878-.5-5.009-.664l-.39-.448-7.12-15.544,7.031-21.066L45.939,107.55s-7.9,21.8-8.714,26.706,16.212,22.5,16.212,22.5l.008-.016a22.734,22.734,0,0,0,2.423,4.184c1.6,1.993,2.9,2.211,2.9,2.211h0a4.314,4.314,0,0,0,1.009.435c1.52.384,1.976-.345,1.634-.767a14.64,14.64,0,0,0-2-1.282l.153-.385a9.03,9.03,0,0,0,2.683,1.552c1.52.383,1.976-.345,1.634-.767-.3-.37-2.625-1.545-3.676-2.388l.232-.581a10.156,10.156,0,0,0,3.027,1.82c1.52.383,1.976-.345,1.634-.767s-3.248-1.857-4.008-2.691l.22-.553a9.523,9.523,0,0,0,2.837,1.671" transform="translate(-10.939 -30.923)" fill="#ffa78c"/>
          <path id="Path_610833" data-name="Path 610833" d="M75.416,74.691,57.833,82.934l5.506,35.944,1.637,16.566h37.843l.76-17.793V77.634L86.466,74.918s-1.58,3.48-4.924,3.933-6.126-4.16-6.126-4.16" transform="translate(-17.007 -21.476)" fill="#03386e"/>
          <path id="Path_610834" data-name="Path 610834" d="M54.224,86.26s-6.839,11.212-8.663,16.318c0,0,7.085,4.288,14.08,4.492,0,0,.611-15.441-5.417-20.81" transform="translate(-13.398 -24.802)" fill="#03386e"/>
          <path id="Path_610835" data-name="Path 610835" d="M122,78.818s8.719,8.073,12.484,11.949a73.709,73.709,0,0,1-12.462,10.175S118.738,86.233,122,78.818" transform="translate(-35.453 -22.662)" fill="#03386e"/>
          <path id="Path_610836" data-name="Path 610836" d="M76.579,45.68s2.84,0,4.04-1.25" transform="translate(-22.52 -12.775)" fill="none" stroke="#00557f" stroke-linecap="round" stroke-linejoin="round" stroke-width="1"/>
          <path id="Path_610837" data-name="Path 610837" d="M96.4,43.188a6.437,6.437,0,0,0-3.34,0" transform="translate(-27.368 -12.348)" fill="none" stroke="#00557f" stroke-linecap="round" stroke-linejoin="round" stroke-width="1"/>
          <path id="Path_610838" data-name="Path 610838" d="M87.22,49.12s.539,2.911.27,3.346a1.025,1.025,0,0,0-.7,1.305,1.387,1.387,0,0,0,1.242,1.141" transform="translate(-25.512 -14.123)" fill="none" stroke="#bf6d60" stroke-linecap="round" stroke-linejoin="round" stroke-width="1"/>
          <path id="Path_610839" data-name="Path 610839" d="M85.959,61.263s3.179-1.033,4.795,0S86.982,63,85.959,63s-.97-1.2,0-1.74" transform="translate(-25.058 -17.483)" fill="#fff"/>
          <path id="Path_610840" data-name="Path 610840" d="M107.464,47.387a7.181,7.181,0,0,0-2.02,3.833" transform="translate(-31.008 -13.625)" fill="none" stroke="#bf6d60" stroke-linecap="round" stroke-linejoin="round" stroke-width="1"/>
          <path id="Path_610841" data-name="Path 610841" d="M107.5,51.367a4.153,4.153,0,0,0-.825-1.91" transform="translate(-31.372 -14.22)" fill="none" stroke="#bf6d60" stroke-linecap="round" stroke-linejoin="round" stroke-width="1"/>
          <path id="Path_610842" data-name="Path 610842" d="M66.467,52.023a7.425,7.425,0,0,1,2.747,3.724" transform="translate(-19.546 -14.958)" fill="none" stroke="#bf6d60" stroke-linecap="round" stroke-linejoin="round" stroke-width="1"/>
          <path id="Path_610843" data-name="Path 610843" d="M67.726,55.753a4.875,4.875,0,0,1,.485-1.961" transform="translate(-19.917 -15.467)" fill="none" stroke="#bf6d60" stroke-linecap="round" stroke-linejoin="round" stroke-width="1"/>
          <path id="Path_610844" data-name="Path 610844" d="M61.38,91.11s-.252,11.308.643,17.154" transform="translate(-18.041 -26.196)" fill="none" stroke="#004560" stroke-linecap="round" stroke-linejoin="round" stroke-width="1"/>
          <path id="Path_610845" data-name="Path 610845" d="M120.748,86.9s1.879,11.034,1.246,15.947" transform="translate(-35.509 -24.987)" fill="#03386e" stroke="#004560" stroke-linecap="round" stroke-linejoin="round" stroke-width="1"/>
          <path id="Path_610846" data-name="Path 610846" d="M81.869,80.016a9.2,9.2,0,0,0,6.679,2.25c4.053-.307,5.4-2.25,5.4-2.25" transform="translate(-24.076 -23.007)" fill="none" stroke="#004560" stroke-linecap="round" stroke-linejoin="round" stroke-width="1"/>
          <path id="Path_610847" data-name="Path 610847" d="M52.9,145.16s-2.128-.1-4.053,0" transform="translate(-14.364 -41.724)" fill="none" stroke="#bf6d60" stroke-linecap="round" stroke-linejoin="round" stroke-width="1"/>
          <path id="Path_610848" data-name="Path 610848" d="M146.843,107.89s-1.427,3.67-1.833,5.2" transform="translate(-42.644 -31.021)" fill="none" stroke="#bf6d60" stroke-linecap="round" stroke-linejoin="round" stroke-width="1"/>
          <line id="Line_906" data-name="Line 906" x2="1.122" y2="1.782" transform="translate(115.328 55.943)" fill="none" stroke="#bf6d60" stroke-linecap="round" stroke-linejoin="round" stroke-width="1"/>
          <path id="Path_610849" data-name="Path 610849" d="M167.257,74.691s3.724.126,4.965.938" transform="translate(-49.186 -21.476)" fill="none" stroke="#bf6d60" stroke-linecap="round" stroke-linejoin="round" stroke-width="1"/>
          <line id="Line_907" data-name="Line 907" x2="34.803" transform="translate(49.072 116.27)" fill="none" stroke="#bf6d60" stroke-linecap="round" stroke-linejoin="round" stroke-width="1"/>
          <path id="Path_610850" data-name="Path 610850" d="M93.107,163.191s-2.584,14.095,1.976,16.481V166.565" transform="translate(-27.166 -46.921)" fill="none" stroke="#bf6d60" stroke-linecap="round" stroke-linejoin="round" stroke-width="1"/>
          <path id="Path_610851" data-name="Path 610851" d="M83.077,182.783s4.356,2.75,6.566,4.295" transform="translate(-24.431 -52.555)" fill="none" stroke="#bf6d60" stroke-linecap="round" stroke-linejoin="round" stroke-width="1"/>
          <path id="Path_610852" data-name="Path 610852" d="M100.516,185.963s5.319-5.368,6.383-7.056" transform="translate(-29.559 -51.44)" fill="none" stroke="#bf6d60" stroke-linecap="round" stroke-linejoin="round" stroke-width="1"/>
          <path id="Path_610853" data-name="Path 610853" d="M71.57,311.744a55.483,55.483,0,0,0,10.82,0" transform="translate(-21.047 -89.634)" fill="none" stroke="#bf6d60" stroke-linecap="round" stroke-linejoin="round" stroke-width="1"/>
          <path id="Path_610854" data-name="Path 610854" d="M135.015,311.744s-6.687.477-11.247.512" transform="translate(-36.397 -89.634)" fill="none" stroke="#bf6d60" stroke-linecap="round" stroke-linejoin="round" stroke-width="1"/>
          <path id="Path_610855" data-name="Path 610855" d="M57.242,339s2.2.69,8.131.383a63.4,63.4,0,0,0,11.791-1.917" transform="translate(-16.833 -97.031)" fill="none" stroke="#00415b" stroke-linecap="round" stroke-linejoin="round" stroke-width="1"/>
          <path id="Path_610856" data-name="Path 610856" d="M130.011,338.225a96,96,0,0,0,12.311,2.761,16.338,16.338,0,0,0,6.991-.536" transform="translate(-38.233 -97.248)" fill="none" stroke="#00415b" stroke-linecap="round" stroke-linejoin="round" stroke-width="1"/>
          <path id="Path_610857" data-name="Path 610857" d="M65.947,331.978a6.041,6.041,0,0,1,3.544,1.483" transform="translate(-19.393 -95.452)" fill="none" stroke="#00415b" stroke-linecap="round" stroke-linejoin="round" stroke-width="1"/>
          <path id="Path_610858" data-name="Path 610858" d="M67.525,330.627a6.043,6.043,0,0,1,3.544,1.483" transform="translate(-19.857 -95.063)" fill="none" stroke="#00415b" stroke-linecap="round" stroke-linejoin="round" stroke-width="1"/>
          <path id="Path_610859" data-name="Path 610859" d="M69.1,329.276a6.042,6.042,0,0,1,3.544,1.483" transform="translate(-20.321 -94.675)" fill="none" stroke="#00415b" stroke-linecap="round" stroke-linejoin="round" stroke-width="1"/>
          <path id="Path_610860" data-name="Path 610860" d="M145.773,332.57a6.041,6.041,0,0,0-3.544,1.483" transform="translate(-41.826 -95.622)" fill="none" stroke="#00415b" stroke-linecap="round" stroke-linejoin="round" stroke-width="1"/>
          <path id="Path_610861" data-name="Path 610861" d="M144.2,331.218a6.043,6.043,0,0,0-3.544,1.483" transform="translate(-41.362 -95.233)" fill="none" stroke="#00415b" stroke-linecap="round" stroke-linejoin="round" stroke-width="1"/>
          <path id="Path_610862" data-name="Path 610862" d="M142.618,329.867a6.041,6.041,0,0,0-3.544,1.483" transform="translate(-40.898 -94.845)" fill="none" stroke="#00415b" stroke-linecap="round" stroke-linejoin="round" stroke-width="1"/>
          <line id="Line_908" data-name="Line 908" x1="2.66" y2="1.381" transform="translate(71.033 23.161)" fill="none" stroke="#004560" stroke-linecap="round" stroke-linejoin="round" stroke-width="1"/>
          <path id="Path_610863" data-name="Path 610863" d="M90.842,35.307s-2.767,5.076-11.617,2.462c0,0-3.8,3.556-7.989,3.1" transform="translate(-20.949 -10.152)" fill="none" stroke="#004560" stroke-linecap="round" stroke-linejoin="round" stroke-width="1"/>
          <path id="Path_610864" data-name="Path 610864" d="M100.854,43.461s-2.347-.984-2.763-6.953" transform="translate(-28.846 -10.497)" fill="none" stroke="#004560" stroke-linecap="round" stroke-linejoin="round" stroke-width="1"/>
          <path id="Path_610865" data-name="Path 610865" d="M66.888,35.307a6.424,6.424,0,0,0-.428,2.6" transform="translate(-19.539 -10.152)" fill="none" stroke="#004560" stroke-linecap="round" stroke-linejoin="round" stroke-width="1"/>
          <path id="Path_610866" data-name="Path 610866" d="M69.29,39.239a10.875,10.875,0,0,0-.364,1.53" transform="translate(-20.269 -11.282)" fill="none" stroke="#004560" stroke-linecap="round" stroke-linejoin="round" stroke-width="1"/>
          <line id="Line_909" data-name="Line 909" x2="0.595" y2="1.166" transform="translate(73.041 26.791)" fill="none" stroke="#004560" stroke-linecap="round" stroke-linejoin="round" stroke-width="1"/>
          <path id="Path_610867" data-name="Path 610867" d="M101.306,27.341s1.064.818,1.165,1.483" transform="translate(-29.792 -7.861)" fill="none" stroke="#004560" stroke-linecap="round" stroke-linejoin="round" stroke-width="1"/>
          <path id="Path_610868" data-name="Path 610868" d="M98.65,29.422a4.694,4.694,0,0,1,.987.869" transform="translate(-29.011 -8.46)" fill="none" stroke="#004560" stroke-linecap="round" stroke-linejoin="round" stroke-width="1"/>
          <line id="Line_910" data-name="Line 910" y1="1.214" x2="1.19" transform="translate(58.9 24.797)" fill="none" stroke="#004560" stroke-linecap="round" stroke-linejoin="round" stroke-width="1"/>
          <path id="Path_610869" data-name="Path 610869" d="M77.541,236.362c0,4.066-2.766,7.366-6.178,7.366a5.3,5.3,0,0,1-2.688-.737L68.562,229.8a5.383,5.383,0,0,1,2.8-.794c3.412,0,6.178,3.292,6.178,7.358" transform="translate(-20.162 -65.844)" fill="#f2bd70"/>
          <path id="Path_610870" data-name="Path 610870" d="M129.709,242.546a5.41,5.41,0,0,1-3.348,1.181c-3.412,0-6.178-3.3-6.178-7.366S122.95,229,126.362,229a5.19,5.19,0,0,1,1.532.229Z" transform="translate(-35.343 -65.844)" fill="#f2bd70"/>
        </g>
      </g>
    </g>
  </g>
</svg>
