<svg xmlns="http://www.w3.org/2000/svg" xmlns:xlink="http://www.w3.org/1999/xlink" width="295" height="324.158" viewBox="0 0 295 324.158">
  <defs>
    <clipPath id="clip-path">
      <rect id="Rectangle_378123" data-name="Rectangle 378123" width="136.03" height="245.66" fill="none"/>
    </clipPath>
  </defs>
  <g id="Group_1074136" data-name="Group 1074136" transform="translate(-1125 -17118.883)">
    <path id="Path_608394" data-name="Path 608394" d="M20,0H275a20,20,0,0,1,20,20V304.158a20,20,0,0,1-20,20H20a20,20,0,0,1-20-20V20A20,20,0,0,1,20,0Z" transform="translate(1125 17118.883)" fill="#fef5e5"/>
    <text id="_Cuales_" data-name="¿Cuales?" transform="translate(1134.5 17401.32)" fill="#12263f" font-size="18" font-family="Roboto-Bold, Roboto" font-weight="700"><tspan x="-36.584" y="17">¿Cuales?</tspan></text>
    <g id="Group_1074037" data-name="Group 1074037" transform="translate(0 -228.025)">
      <rect id="Rectangle_378779" data-name="Rectangle 378779" width="170" height="245.66" transform="translate(1188 17361)" fill="none"/>
      <g id="Group_1074034" data-name="Group 1074034" transform="translate(1204.485 17361.346)">
        <g id="Group_1072892" data-name="Group 1072892" clip-path="url(#clip-path)">
          <path id="Path_610763" data-name="Path 610763" d="M7.09,124.291c6.229-23.7,14.1-35.245,30.971-37.686s20.923,36.738,48.278,28.682,41.711-5.677,46.882,16.949,7.51,97.064-33.043,86.837-53.495-29.281-71.98-18.96S2.175,207.006.355,190.461s3.791-54.969,6.735-66.17" transform="translate(0 -25.414)" fill="#e1efe3"/>
          <path id="Path_610764" data-name="Path 610764" d="M58.6,9.123a2.58,2.58,0,0,1-2.2-3.354,8.317,8.317,0,0,1,5.641-5.2c4.5-1.516,9.523.011,10.975,4.158,1.01,2.882-.561,5.385-3.016,7.561-.864.785-.606,1.618-.266,2.589a1.734,1.734,0,0,1-1.1,2.213l-1.588.535a1.783,1.783,0,0,1-2.256-1.08l-.546-1.559c-.453-1.294-.764-2.373.286-3.681,1.427-1.763,3.1-2.428,2.373-4.516A2.536,2.536,0,0,0,63.631,5.2a3.452,3.452,0,0,0-2.22,2.188A2.651,2.651,0,0,1,58.6,9.123M73.035,21.234a3.536,3.536,0,0,1-2.273,4.515,3.63,3.63,0,0,1-4.591-2.2A3.535,3.535,0,0,1,68.4,19.014a3.643,3.643,0,0,1,4.632,2.22" transform="translate(-15.77 0)" fill="#0c5e46"/>
          <path id="Path_610765" data-name="Path 610765" d="M100.516,308.062c-.438-2.619-1.776-10.52-3.4-19.268-1.988-10.728-7.289-24.3-7.289-24.3l-11.7,9.022,14.084,37.344a11.854,11.854,0,0,1-1.808,3.7c-1.325,1.544-1.822,2.172-1.822,2.172a22.941,22.941,0,0,0,5.219.917c2.153,0,7.786-4.876,8.034-5.77.139-.5-.623-2.307-1.324-3.813" transform="translate(-21.898 -77.712)" fill="#d88471"/>
          <path id="Path_610766" data-name="Path 610766" d="M91.646,334.019a27.491,27.491,0,0,1-3.3,2.885c-2.485,1.95-3.4,3.251-3.4,4.063s9.692,1.107,11.763.554,8.117-6.568,8.78-7.868-2.461-5.549-2.461-5.549a38.408,38.408,0,0,1-2.012,3.68c-.828,1.219-3.9,2.563-5.752,3.171-4.208,1.381-3.618-.936-3.618-.936" transform="translate(-23.808 -96.402)" fill="#004560"/>
          <path id="Path_610767" data-name="Path 610767" d="M67.813,169.355s-.977,13.2-.759,31.092,5.887,36.093,5.887,36.093l14.514-4.362-1.085-62.823Z" transform="translate(-18.784 -49.759)" fill="#062546"/>
          <path id="Path_610768" data-name="Path 610768" d="M74.855,101.8s-6.728,12.458-8.627,17.25,3.395,10.884,3.395,10.884l3.93-3.644s2.17-20.338,1.3-24.491" transform="translate(-18.446 -29.912)" fill="#d88471"/>
          <path id="Path_610769" data-name="Path 610769" d="M75.5,98.406s11.612-6.282,21.27-7.88,12.805,3.94,12.805,3.94l-6.75,36.736,3.386,14.907H68.122L72.68,124.92s-.543-18.208,2.821-26.514" transform="translate(-19.092 -26.513)" fill="#ffd07f"/>
          <path id="Path_610770" data-name="Path 610770" d="M75.927,53.649s0,12.353.568,15.832,4.606,6.422,8.647,7.66,11.071-3.554,12.319-6.306S99.6,54.5,99.6,54.5s-18.353-9.731-23.673-.847" transform="translate(-21.28 -14.664)" fill="#ffa78c"/>
          <path id="Path_610771" data-name="Path 610771" d="M90.4,84.311a24.541,24.541,0,0,1-.183,8.03l11.265-3.832.266-10.11Z" transform="translate(-25.284 -23.034)" fill="#ffa78c"/>
          <path id="Path_610772" data-name="Path 610772" d="M105.332,65.492s2-3.8,4.488-2.512,1.271,6.258-.347,7.947-4.024.132-4.024.132Z" transform="translate(-29.521 -18.426)" fill="#ffa78c"/>
          <path id="Path_610773" data-name="Path 610773" d="M90.685,87.331s5.042-.824,8.1-3.414c0,0-3.55,6.266-8.038,7.032Z" transform="translate(-25.416 -24.656)" fill="#d88471"/>
          <path id="Path_610774" data-name="Path 610774" d="M82.068,47.675a18.862,18.862,0,0,0,5.486,6.158c4.009,3.037,7.09,3.306,7.09,3.306s-1.267,3.733.862,5.014c0,0,.844-7.212,3.762-6.8s1.709,8.856-2.72,8.767a10.716,10.716,0,0,0-.576,5.976s8.956-6.4,10.157-15.22-5.034-11.441-5.034-11.441-2.212-4.306-9.648-5.642S80.172,40.63,80.172,40.63a6.876,6.876,0,0,0-6.963,2.486,7.07,7.07,0,0,0-1.54,7.393s-2.41,2.6-1.5,5.685a5.973,5.973,0,0,0,4.244,3.794s.611-8.654,2.015-11.011,5.637-1.3,5.637-1.3" transform="translate(-19.609 -11.028)" fill="#00557f"/>
          <path id="Path_610775" data-name="Path 610775" d="M84.255,66.1a7.434,7.434,0,0,1-.777,4.045c-1.011,1.544,1.152,2.258,1.152,2.258" transform="translate(-23.321 -19.422)" fill="none" stroke="#bf6d60" stroke-linecap="round" stroke-linejoin="round" stroke-width="1"/>
          <path id="Path_610776" data-name="Path 610776" d="M77.407,61.561a2.337,2.337,0,0,1,3.178-.453" transform="translate(-21.695 -17.814)" fill="none" stroke="#00557f" stroke-linecap="round" stroke-linejoin="round" stroke-width="1"/>
          <path id="Path_610777" data-name="Path 610777" d="M89.724,62a10.655,10.655,0,0,0,3.722,1.038" transform="translate(-25.147 -18.217)" fill="none" stroke="#00557f" stroke-linecap="round" stroke-linejoin="round" stroke-width="1"/>
          <path id="Path_610778" data-name="Path 610778" d="M109.812,65.894a4.877,4.877,0,0,0-2.464,3.962" transform="translate(-30.086 -19.361)" fill="none" stroke="#bf6d60" stroke-linecap="round" stroke-linejoin="round" stroke-width="1"/>
          <path id="Path_610779" data-name="Path 610779" d="M108.087,96.794s3.364.426,4.341,7.028-5.544,23.526-7.813,27.152c-3.8,6.069-37.548,1.065-37.548,1.065l1.845-7.347,27.13-3.3s3.473-14.8,5.535-20.231,6.511-4.366,6.511-4.366" transform="translate(-18.796 -28.415)" fill="#ffa78c"/>
          <path id="Path_610780" data-name="Path 610780" d="M109.133,70.081a1.616,1.616,0,0,0-.678-1.554" transform="translate(-30.396 -20.134)" fill="none" stroke="#bf6d60" stroke-linecap="round" stroke-linejoin="round" stroke-width="1"/>
          <path id="Path_610781" data-name="Path 610781" d="M92.26,67.406c-.035.691-.388,1.237-.788,1.217s-.7-.6-.66-1.288.388-1.237.788-1.217.7.6.66,1.288" transform="translate(-25.451 -19.426)" fill="#00557f"/>
          <path id="Path_610782" data-name="Path 610782" d="M80.9,66.837c-.035.691-.388,1.237-.788,1.217s-.7-.6-.66-1.288.388-1.237.788-1.217.7.6.66,1.288" transform="translate(-22.267 -19.259)" fill="#00557f"/>
          <path id="Path_610783" data-name="Path 610783" d="M84.909,79.408a3.715,3.715,0,0,1,3.176.525" transform="translate(-23.797 -23.288)" fill="none" stroke="#bf6d60" stroke-linecap="round" stroke-linejoin="round" stroke-width="1"/>
          <path id="Path_610784" data-name="Path 610784" d="M118.5,43.345a5.577,5.577,0,1,1-5.576-5.471,5.524,5.524,0,0,1,5.576,5.471" transform="translate(-30.086 -11.128)" fill="#00557f"/>
          <path id="Path_610785" data-name="Path 610785" d="M68.962,90.913s2.7-3.354,3.779-3.674,4.774,1.551,5.043,2.107-.381,1.567-.381,1.567-.163,1.917-.814,2.236l-.651.32s-1.031,2.875-2.821,3.354c0,0-.38,3.354-2.551,3.833L66.387,97.2a21.811,21.811,0,0,1,2.575-6.282" transform="translate(-18.606 -25.622)" fill="#ffa78c"/>
          <path id="Path_610786" data-name="Path 610786" d="M74.077,87.255A12.3,12.3,0,0,1,76.9,84.673c1.221-.612,4.531.16,4.884.638s-.353.8-1.628.692-1.709-.153-1.709-.153l-.923,1.638Z" transform="translate(-20.761 -24.812)" fill="#ffa78c"/>
          <path id="Path_610787" data-name="Path 610787" d="M63.365,101.353s-7.9,21.189-7.759,26.726,3.762,6.389,5.933,6.247,5.119-3.27,6.367-7.1,0-23.426,0-23.426Z" transform="translate(-15.584 -29.779)" fill="#ffa78c"/>
          <path id="Path_610788" data-name="Path 610788" d="M107.878,133.168a16.329,16.329,0,0,1,3.039,4.259" transform="translate(-30.235 -39.127)" fill="none" stroke="#bf6d60" stroke-linecap="round" stroke-linejoin="round" stroke-width="1"/>
          <path id="Path_610789" data-name="Path 610789" d="M69.579,106.2a2.088,2.088,0,0,0,2.3-.135" transform="translate(-19.501 -31.163)" fill="none" stroke="#bf6d60" stroke-linecap="round" stroke-linejoin="round" stroke-width="1"/>
          <path id="Path_610790" data-name="Path 610790" d="M75.556,99.858a.86.86,0,0,1-.416-1.083l.553-1.242" transform="translate(-21.047 -28.657)" fill="none" stroke="#bf6d60" stroke-linecap="round" stroke-linejoin="round" stroke-width="1"/>
          <path id="Path_610791" data-name="Path 610791" d="M76.616,94.367s1.881.426,2.188,1.207" transform="translate(-21.473 -27.726)" fill="none" stroke="#bf6d60" stroke-linecap="round" stroke-linejoin="round" stroke-width="1"/>
          <path id="Path_610792" data-name="Path 610792" d="M77.922,91.249a4.077,4.077,0,0,1,2.713.852" transform="translate(-21.839 -26.809)" fill="none" stroke="#bf6d60" stroke-linecap="round" stroke-linejoin="round" stroke-width="1"/>
          <path id="Path_610793" data-name="Path 610793" d="M81.5,283.264l-15.119.765-5.22,34.648c-1.617.732-3.39,2.769-7.151,4.2-2.957,1.128-2.229,1.614-2.852,2.761a2.955,2.955,0,0,0,0,2.447H70.973a1.267,1.267,0,0,0,1.264-1.244c.015-1.969.039-5.825.009-8.031.4-1.562,1.984-7.7,4.266-15.209,2.65-8.717,4.988-20.34,4.988-20.34" transform="translate(-14.26 -83.227)" fill="#ffa78c"/>
          <path id="Path_610794" data-name="Path 610794" d="M56.523,336.585s1.379,2.014,7.2,1.659,7.2-1.659,7.2-1.659.738,6.772.417,7.445-7.3.287-8.265.267-13.84.588-15.442,0-2.051-1.722-1.538-2.5,8.214-4.147,10.425-5.208" transform="translate(-12.863 -98.894)" fill="#00557f"/>
          <path id="Path_610795" data-name="Path 610795" d="M84.187,96.806s-.715,2,5.885,2.075,15.861-6.6,15.861-6.6l-5.643-.428L88.519,94.835Z" transform="translate(-23.588 -26.987)" fill="#ffa78c"/>
          <path id="Path_610796" data-name="Path 610796" d="M112,71.5s.507,7.628,4.63,9.9a5.76,5.76,0,0,1,5.065,4.046c1.085,3.833-3.256,6.459-3.256,6.459s-.361,4.614-6.149,5.183-8.536-6.957-8.536-11.074S108.82,72.893,112,71.5" transform="translate(-29.08 -21.009)" fill="#00557f"/>
          <path id="Path_610797" data-name="Path 610797" d="M106.741,169.355s1.169,11.011-3.974,28.216S88.037,250.56,88.037,250.56h-18l9.585-70.653-1.169-10.552Z" transform="translate(-19.628 -49.759)" fill="#03386e"/>
          <line id="Line_901" data-name="Line 901" x1="7.418" y2="5.396" transform="translate(59.992 124.752)" fill="none" stroke="#004560" stroke-linecap="round" stroke-linejoin="round" stroke-width="1"/>
          <path id="Path_610798" data-name="Path 610798" d="M109.769,170.854s-.62,14.841-3.719,26.7-14.256,50.324-14.256,50.324" transform="translate(-25.727 -50.199)" fill="none" stroke="#004560" stroke-linecap="round" stroke-linejoin="round" stroke-width="1"/>
          <path id="Path_610799" data-name="Path 610799" d="M70.624,279.925s14.549.38,18.418,0" transform="translate(-19.794 -82.246)" fill="none" stroke="#004560" stroke-linecap="round" stroke-linejoin="round" stroke-width="1"/>
          <path id="Path_610800" data-name="Path 610800" d="M83.209,101.353s.083,1.486,5.042,1.789A27.133,27.133,0,0,0,98,101.673" transform="translate(-23.321 -29.779)" fill="none" stroke="#bf6d60" stroke-linecap="round" stroke-linejoin="round" stroke-width="1"/>
          <path id="Path_610801" data-name="Path 610801" d="M85.929,48.676A17.56,17.56,0,0,0,99.118,60.412" transform="translate(-24.083 -14.302)" fill="none" stroke="#004560" stroke-linecap="round" stroke-linejoin="round" stroke-width="1"/>
          <line id="Line_902" data-name="Line 902" x2="1.591" y2="1.071" transform="translate(60.563 29.602)" fill="none" stroke="#004560" stroke-linecap="round" stroke-linejoin="round" stroke-width="1"/>
          <path id="Path_610802" data-name="Path 610802" d="M72.331,55.908A9.716,9.716,0,0,0,74.1,57.031" transform="translate(-20.272 -16.427)" fill="none" stroke="#004560" stroke-linecap="round" stroke-linejoin="round" stroke-width="1"/>
          <path id="Path_610803" data-name="Path 610803" d="M109.06,41.918s4.79,2.982,6.537,6.512" transform="translate(-30.566 -12.316)" fill="none" stroke="#004560" stroke-linecap="round" stroke-linejoin="round" stroke-width="1"/>
          <path id="Path_610804" data-name="Path 610804" d="M107.348,51.926a2.571,2.571,0,0,1,1.059,1.563" transform="translate(-30.086 -15.257)" fill="none" stroke="#004560" stroke-linecap="round" stroke-linejoin="round" stroke-width="1"/>
          <line id="Line_903" data-name="Line 903" x2="1.201" y2="0.908" transform="translate(75.811 31.575)" fill="none" stroke="#004560" stroke-linecap="round" stroke-linejoin="round" stroke-width="1"/>
          <path id="Path_610805" data-name="Path 610805" d="M114.411,74s.578,4.6,1.914,6.817" transform="translate(-32.066 -21.741)" fill="none" stroke="#004560" stroke-linecap="round" stroke-linejoin="round" stroke-width="1"/>
          <line id="Line_904" data-name="Line 904" y1="1.016" x2="1.163" transform="translate(76.363 58.056)" fill="none" stroke="#004560" stroke-linecap="round" stroke-linejoin="round" stroke-width="1"/>
          <line id="Line_905" data-name="Line 905" y2="1.398" transform="translate(81.124 54.576)" fill="none" stroke="#004560" stroke-linecap="round" stroke-linejoin="round" stroke-width="1"/>
          <path id="Path_610806" data-name="Path 610806" d="M121.286,94.367a6.7,6.7,0,0,1,2.07,4.259" transform="translate(-33.992 -27.726)" fill="none" stroke="#004560" stroke-linecap="round" stroke-linejoin="round" stroke-width="1"/>
          <path id="Path_610807" data-name="Path 610807" d="M117.929,101.353a3.307,3.307,0,0,1,0,1.514" transform="translate(-33.052 -29.779)" fill="none" stroke="#004560" stroke-linecap="round" stroke-linejoin="round" stroke-width="1"/>
          <path id="Path_610808" data-name="Path 610808" d="M108.455,92.457a10.114,10.114,0,0,0,.906,3.478" transform="translate(-30.396 -27.165)" fill="none" stroke="#004560" stroke-linecap="round" stroke-linejoin="round" stroke-width="1"/>
          <path id="Path_610809" data-name="Path 610809" d="M115.357,88.27a6.674,6.674,0,0,1,1.234,1.39" transform="translate(-32.331 -25.935)" fill="none" stroke="#004560" stroke-linecap="round" stroke-linejoin="round" stroke-width="1"/>
          <path id="Path_610810" data-name="Path 610810" d="M92.373,47.069a4.539,4.539,0,0,0,1.3,2.422" transform="translate(-25.889 -13.83)" fill="none" stroke="#004560" stroke-linecap="round" stroke-linejoin="round" stroke-width="1"/>
          <path id="Path_610811" data-name="Path 610811" d="M100.822,58.211a6.334,6.334,0,0,0,1.465,1.175" transform="translate(-28.257 -17.103)" fill="none" stroke="#004560" stroke-linecap="round" stroke-linejoin="round" stroke-width="1"/>
          <path id="Path_610812" data-name="Path 610812" d="M70.035,167.2s16.433.1,20.594,0,13.62.172,13.62.172" transform="translate(-19.628 -49.12)" fill="none" stroke="#bf6d60" stroke-linecap="round" stroke-linejoin="round" stroke-width="1"/>
          <path id="Path_610813" data-name="Path 610813" d="M127.7,34.491a3.328,3.328,0,0,1-.056-5.212c1.98-1.592,5.185-2.986,9.922-1.9,6.047,1.391,10.524,6.511,9.19,12.089-.926,3.876-4.437,5.573-8.7,6.3-1.513.278-1.818,1.376-2.13,2.681a2.322,2.322,0,0,1-2.788,1.7l-2.137-.492a2.273,2.273,0,0,1-1.728-2.734l.5-2.1c.416-1.741.837-3.146,2.926-3.876,2.828-.977,5.154-.566,5.826-3.375a3.235,3.235,0,0,0-2.49-4,4.621,4.621,0,0,0-4.006.9,3.512,3.512,0,0,1-4.335,0m7.375,23.243a4.732,4.732,0,0,1-5.715,3.443,4.628,4.628,0,0,1-3.518-5.568,4.731,4.731,0,0,1,5.684-3.491,4.645,4.645,0,0,1,3.549,5.616" transform="translate(-35.235 -7.932)" fill="#0c5e46"/>
        </g>
      </g>
    </g>
  </g>
</svg>
