<svg xmlns="http://www.w3.org/2000/svg" xmlns:xlink="http://www.w3.org/1999/xlink" width="1030" height="650" viewBox="0 0 1030 650">
  <defs>
    <linearGradient id="linear-gradient" x1="0.5" x2="0.5" y2="1" gradientUnits="objectBoundingBox">
      <stop offset="0" stop-color="#e1fbff"/>
      <stop offset="1" stop-color="#e9f3ff"/>
    </linearGradient>
  </defs>
  <g id="Group_1074119" data-name="Group 1074119" transform="translate(-285 -16645)">
    <path id="Path_613020" data-name="Path 613020" d="M0,0H1030V650H0Z" transform="translate(285 16645)" fill="url(#linear-gradient)"/>
    <g id="Path_613021" data-name="Path 613021" transform="translate(629 16739)" fill="#fff">
      <path d="M 633.5 534.5 L 0.5 534.5 L 0.5 0.5 L 633.5 0.5 L 633.5 534.5 Z" stroke="none"/>
      <path d="M 1 1 L 1 534 L 633 534 L 633 1 L 1 1 M 0 0 L 634 0 L 634 535 L 0 535 L 0 0 Z" stroke="none" fill="#707070"/>
    </g>
    <path id="Path_612600" data-name="Path 612600" d="M0,0H208.4V182.238H0Z" transform="translate(629.091 16739.006)" fill="#7bec61"/>
    <path id="Path_612599" data-name="Path 612599" d="M0,0H197.061V172.646H0Z" transform="translate(837.488 16921.244)" fill="#fff27d"/>
    <g id="Path_612601" data-name="Path 612601" transform="translate(1034.549 17093.891)" fill="#ee7575">
      <path d="M 227.9512329101562 179.993896484375 L 0.4999911785125732 179.993896484375 L 0.4999911785125732 0.5000070929527283 L 227.9512329101562 0.5000070929527283 L 227.9512329101562 179.993896484375 Z" stroke="none"/>
      <path d="M 0.9999847412109375 1 L 0.9999847412109375 179.493896484375 L 227.4512329101562 179.493896484375 L 227.4512329101562 1 L 0.9999847412109375 1 M -1.52587890625e-05 0 L 228.4512329101562 0 L 228.4512329101562 180.493896484375 L -1.52587890625e-05 180.493896484375 L -1.52587890625e-05 0 Z" stroke="none" fill="#707070"/>
    </g>
    <path id="Path_613022" data-name="Path 613022" d="M0,0H634V34H0Z" transform="translate(629 16707)" fill="#dadddf"/>
    <path id="Path_613023" data-name="Path 613023" d="M0,0H81V567H0Z" transform="translate(548 16707)" fill="#dadddf"/>
    <path id="Path_613024" data-name="Path 613024" d="M0,0H715V4H0Z" transform="translate(548 16705)" fill="#6debff"/>
    <path id="Path_613025" data-name="Path 613025" d="M96.824,12.656H92.715L91.934,15H89.441L93.676,3.625h2.172L100.105,15H97.613Zm-3.477-1.9h2.844L94.762,6.5ZM103.4,15h-2.266V3H103.4Zm4.563-10.531V6.547h1.445V8.2h-1.445v4.219a1.007,1.007,0,0,0,.18.672.9.9,0,0,0,.688.2,3.6,3.6,0,0,0,.664-.055v1.711a4.648,4.648,0,0,1-1.367.2,2.156,2.156,0,0,1-2.422-2.4V8.2h-1.234V6.547h1.234V4.469Zm2.117,6.227a5.013,5.013,0,0,1,.484-2.242,3.546,3.546,0,0,1,1.395-1.523,4.069,4.069,0,0,1,2.113-.539,3.849,3.849,0,0,1,2.793,1.047,4.2,4.2,0,0,1,1.207,2.844l.016.578A4.418,4.418,0,0,1,117,13.98a4.209,4.209,0,0,1-5.832,0,4.5,4.5,0,0,1-1.09-3.187Zm2.258.16a3.16,3.16,0,0,0,.453,1.843,1.628,1.628,0,0,0,2.578.008,3.457,3.457,0,0,0,.461-2.015,3.128,3.128,0,0,0-.461-1.831,1.5,1.5,0,0,0-1.3-.649,1.474,1.474,0,0,0-1.281.646A3.516,3.516,0,0,0,112.34,10.856Z" transform="translate(629 16719)" fill="#12263f"/>
    <path id="Path_613026" data-name="Path 613026" d="M25.324,12.656H21.215L20.434,15H17.941L22.176,3.625h2.172L28.605,15H26.113Zm-3.477-1.9h2.844L23.262,6.5ZM31.9,15H29.637V3H31.9ZM36.465,4.469V6.547H37.91V8.2H36.465v4.219a1.007,1.007,0,0,0,.18.672.9.9,0,0,0,.688.2A3.6,3.6,0,0,0,38,13.242v1.711a4.648,4.648,0,0,1-1.367.2,2.156,2.156,0,0,1-2.422-2.4V8.2H32.973V6.547h1.234V4.469ZM38.582,10.7a5.013,5.013,0,0,1,.484-2.242A3.546,3.546,0,0,1,40.461,6.93a4.069,4.069,0,0,1,2.113-.539,3.849,3.849,0,0,1,2.793,1.047,4.2,4.2,0,0,1,1.207,2.844l.016.578A4.418,4.418,0,0,1,45.5,13.98a4.209,4.209,0,0,1-5.832,0,4.5,4.5,0,0,1-1.09-3.187Zm2.258.16a3.16,3.16,0,0,0,.453,1.843,1.628,1.628,0,0,0,2.578.008,3.457,3.457,0,0,0,.461-2.015,3.128,3.128,0,0,0-.461-1.831,1.5,1.5,0,0,0-1.3-.649,1.474,1.474,0,0,0-1.281.646A3.516,3.516,0,0,0,40.84,10.856Z" transform="translate(557 16822)" fill="#12263f"/>
    <path id="Path_613027" data-name="Path 613027" d="M80.594,3.625l2.922,8.25,2.906-8.25H89.5V15H87.148V11.891l.234-5.367L84.313,15H82.7L79.641,6.531l.234,5.359V15H77.531V3.625Zm14.7,11.531a4.15,4.15,0,0,1-3.027-1.141,4.054,4.054,0,0,1-1.168-3.039v-.219a5.106,5.106,0,0,1,.492-2.277A3.612,3.612,0,0,1,92.98,6.934a3.914,3.914,0,0,1,2.059-.543,3.508,3.508,0,0,1,2.73,1.094,4.444,4.444,0,0,1,1,3.1v.922H93.383a2.1,2.1,0,0,0,.66,1.328,2,2,0,0,0,1.395.5,2.437,2.437,0,0,0,2.039-.945l1.109,1.242a3.389,3.389,0,0,1-1.375,1.121A4.511,4.511,0,0,1,95.289,15.156Zm-.258-6.945a1.411,1.411,0,0,0-1.09.455,2.357,2.357,0,0,0-.535,1.3h3.141V9.788a1.681,1.681,0,0,0-.406-1.165A1.456,1.456,0,0,0,95.031,8.211Zm4.664,2.5a5.094,5.094,0,0,1,.887-3.148,2.877,2.877,0,0,1,2.426-1.172,2.589,2.589,0,0,1,2.039.922V3h2.266V15h-2.039l-.109-.9a2.657,2.657,0,0,1-2.172,1.055A2.869,2.869,0,0,1,100.6,13.98,5.258,5.258,0,0,1,99.7,10.711Zm2.258.168a3.337,3.337,0,0,0,.414,1.823,1.349,1.349,0,0,0,1.2.634,1.511,1.511,0,0,0,1.477-.884V9.111a1.489,1.489,0,0,0-1.461-.884Q101.953,8.227,101.953,10.879ZM111.445,15H109.18V6.547h2.266Zm-2.4-10.641a1.112,1.112,0,0,1,.34-.836,1.465,1.465,0,0,1,1.848,0,1.105,1.105,0,0,1,.344.836,1.108,1.108,0,0,1-.348.844,1.448,1.448,0,0,1-1.836,0A1.108,1.108,0,0,1,109.047,4.359Zm3.906,6.336a5.013,5.013,0,0,1,.484-2.242,3.546,3.546,0,0,1,1.395-1.523,4.069,4.069,0,0,1,2.113-.539,3.849,3.849,0,0,1,2.793,1.047,4.2,4.2,0,0,1,1.207,2.844l.016.578a4.418,4.418,0,0,1-1.086,3.121,4.209,4.209,0,0,1-5.832,0,4.5,4.5,0,0,1-1.09-3.187Zm2.258.16a3.16,3.16,0,0,0,.453,1.843,1.628,1.628,0,0,0,2.578.008,3.457,3.457,0,0,0,.461-2.015,3.128,3.128,0,0,0-.461-1.831,1.5,1.5,0,0,0-1.3-.649,1.474,1.474,0,0,0-1.281.646A3.516,3.516,0,0,0,115.211,10.856Z" transform="translate(837 16719)" fill="#12263f"/>
    <path id="Path_613028" data-name="Path 613028" d="M14.094,3.625l2.922,8.25,2.906-8.25H23V15H20.648V11.891l.234-5.367L17.813,15H16.2L13.141,6.531l.234,5.359V15H11.031V3.625Zm14.7,11.531a4.15,4.15,0,0,1-3.027-1.141,4.054,4.054,0,0,1-1.168-3.039v-.219a5.106,5.106,0,0,1,.492-2.277A3.612,3.612,0,0,1,26.48,6.934a3.914,3.914,0,0,1,2.059-.543,3.508,3.508,0,0,1,2.73,1.094,4.444,4.444,0,0,1,1,3.1v.922H26.883a2.1,2.1,0,0,0,.66,1.328,2,2,0,0,0,1.395.5,2.437,2.437,0,0,0,2.039-.945l1.109,1.242a3.389,3.389,0,0,1-1.375,1.121A4.511,4.511,0,0,1,28.789,15.156Zm-.258-6.945a1.411,1.411,0,0,0-1.09.455,2.357,2.357,0,0,0-.535,1.3h3.141V9.788a1.681,1.681,0,0,0-.406-1.165A1.456,1.456,0,0,0,28.531,8.211Zm4.664,2.5a5.094,5.094,0,0,1,.887-3.148,2.877,2.877,0,0,1,2.426-1.172,2.589,2.589,0,0,1,2.039.922V3h2.266V15H38.773l-.109-.9a2.657,2.657,0,0,1-2.172,1.055A2.869,2.869,0,0,1,34.1,13.98,5.258,5.258,0,0,1,33.2,10.711Zm2.258.168a3.337,3.337,0,0,0,.414,1.823,1.349,1.349,0,0,0,1.2.634,1.511,1.511,0,0,0,1.477-.884V9.111a1.489,1.489,0,0,0-1.461-.884Q35.453,8.227,35.453,10.879ZM44.945,15H42.68V6.547h2.266Zm-2.4-10.641a1.112,1.112,0,0,1,.34-.836,1.465,1.465,0,0,1,1.848,0,1.105,1.105,0,0,1,.344.836,1.108,1.108,0,0,1-.348.844,1.448,1.448,0,0,1-1.836,0A1.108,1.108,0,0,1,42.547,4.359ZM46.453,10.7a5.013,5.013,0,0,1,.484-2.242A3.546,3.546,0,0,1,48.332,6.93a4.069,4.069,0,0,1,2.113-.539,3.849,3.849,0,0,1,2.793,1.047,4.2,4.2,0,0,1,1.207,2.844l.016.578a4.418,4.418,0,0,1-1.086,3.121,4.209,4.209,0,0,1-5.832,0,4.5,4.5,0,0,1-1.09-3.187Zm2.258.16a3.16,3.16,0,0,0,.453,1.843,1.628,1.628,0,0,0,2.578.008,3.457,3.457,0,0,0,.461-2.015,3.128,3.128,0,0,0-.461-1.831,1.5,1.5,0,0,0-1.3-.649,1.474,1.474,0,0,0-1.281.646A3.516,3.516,0,0,0,48.711,10.856Z" transform="translate(557 17000)" fill="#12263f"/>
    <path id="Path_613029" data-name="Path 613029" d="M99.02,15V3.625H103a5.232,5.232,0,0,1,3.141.793,2.712,2.712,0,0,1,1.07,2.324,2.57,2.57,0,0,1-.43,1.473,2.482,2.482,0,0,1-1.2.934,2.4,2.4,0,0,1,1.379.883,2.61,2.61,0,0,1,.5,1.625,3,3,0,0,1-1.047,2.484,4.713,4.713,0,0,1-2.984.859Zm2.344-4.953v3.07h2.008a1.938,1.938,0,0,0,1.293-.395,1.353,1.353,0,0,0,.465-1.09,1.428,1.428,0,0,0-1.617-1.586Zm0-1.656H103.1q1.773-.031,1.773-1.414a1.307,1.307,0,0,0-.449-1.113A2.363,2.363,0,0,0,103,5.523h-1.641ZM113.98,15a2.507,2.507,0,0,1-.227-.758,2.732,2.732,0,0,1-2.133.914,3,3,0,0,1-2.059-.719,2.312,2.312,0,0,1-.816-1.812,2.389,2.389,0,0,1,1-2.062,4.915,4.915,0,0,1,2.879-.727h1.039V9.352a1.393,1.393,0,0,0-.3-.937,1.183,1.183,0,0,0-.949-.352,1.345,1.345,0,0,0-.895.273.929.929,0,0,0-.324.75h-2.258a2.268,2.268,0,0,1,.453-1.359,3,3,0,0,1,1.281-.98,4.669,4.669,0,0,1,1.859-.355,3.689,3.689,0,0,1,2.48.785,2.747,2.747,0,0,1,.918,2.207v3.664a4.041,4.041,0,0,0,.336,1.82V15Zm-1.867-1.57a1.945,1.945,0,0,0,.922-.223,1.462,1.462,0,0,0,.625-.6V11.156h-.844q-1.7,0-1.8,1.172l-.008.133a.9.9,0,0,0,.3.7A1.153,1.153,0,0,0,112.113,13.43Zm7.938-6.883v8.914a3.024,3.024,0,0,1-.742,2.176,2.821,2.821,0,0,1-2.141.777,4.591,4.591,0,0,1-1.117-.133V16.492a4.238,4.238,0,0,0,.711.07q1.023,0,1.023-1.086V6.547Zm-2.445-2.187a1.112,1.112,0,0,1,.34-.836,1.47,1.47,0,0,1,1.852,0,1.112,1.112,0,0,1,.34.836,1.108,1.108,0,0,1-.348.844,1.448,1.448,0,0,1-1.836,0A1.108,1.108,0,0,1,117.605,4.359Zm3.859,6.336a5.013,5.013,0,0,1,.484-2.242,3.546,3.546,0,0,1,1.395-1.523,4.069,4.069,0,0,1,2.113-.539,3.849,3.849,0,0,1,2.793,1.047,4.2,4.2,0,0,1,1.207,2.844l.016.578a4.418,4.418,0,0,1-1.086,3.121,4.209,4.209,0,0,1-5.832,0,4.5,4.5,0,0,1-1.09-3.187Zm2.258.16a3.16,3.16,0,0,0,.453,1.843,1.628,1.628,0,0,0,2.578.008,3.457,3.457,0,0,0,.461-2.015,3.128,3.128,0,0,0-.461-1.831,1.5,1.5,0,0,0-1.3-.649,1.474,1.474,0,0,0-1.281.646A3.516,3.516,0,0,0,123.723,10.856Z" transform="translate(1035 16719)" fill="#12263f"/>
    <path id="Path_613030" data-name="Path 613030" d="M17.52,15V3.625H21.5a5.232,5.232,0,0,1,3.141.793,2.712,2.712,0,0,1,1.07,2.324,2.57,2.57,0,0,1-.43,1.473,2.482,2.482,0,0,1-1.2.934,2.4,2.4,0,0,1,1.379.883,2.61,2.61,0,0,1,.5,1.625,3,3,0,0,1-1.047,2.484A4.713,4.713,0,0,1,21.941,15Zm2.344-4.953v3.07h2.008a1.938,1.938,0,0,0,1.293-.395,1.353,1.353,0,0,0,.465-1.09,1.428,1.428,0,0,0-1.617-1.586Zm0-1.656H21.6q1.773-.031,1.773-1.414a1.307,1.307,0,0,0-.449-1.113,2.363,2.363,0,0,0-1.418-.34H19.863ZM32.48,15a2.507,2.507,0,0,1-.227-.758,2.732,2.732,0,0,1-2.133.914,3,3,0,0,1-2.059-.719,2.312,2.312,0,0,1-.816-1.812,2.389,2.389,0,0,1,1-2.062,4.915,4.915,0,0,1,2.879-.727H32.16V9.352a1.393,1.393,0,0,0-.3-.937,1.183,1.183,0,0,0-.949-.352,1.345,1.345,0,0,0-.895.273.929.929,0,0,0-.324.75H27.434a2.268,2.268,0,0,1,.453-1.359,3,3,0,0,1,1.281-.98,4.669,4.669,0,0,1,1.859-.355,3.689,3.689,0,0,1,2.48.785,2.747,2.747,0,0,1,.918,2.207v3.664a4.041,4.041,0,0,0,.336,1.82V15Zm-1.867-1.57a1.945,1.945,0,0,0,.922-.223,1.462,1.462,0,0,0,.625-.6V11.156h-.844q-1.7,0-1.8,1.172l-.008.133a.9.9,0,0,0,.3.7A1.153,1.153,0,0,0,30.613,13.43Zm7.938-6.883v8.914a3.024,3.024,0,0,1-.742,2.176,2.821,2.821,0,0,1-2.141.777,4.591,4.591,0,0,1-1.117-.133V16.492a4.238,4.238,0,0,0,.711.07q1.023,0,1.023-1.086V6.547ZM36.105,4.359a1.112,1.112,0,0,1,.34-.836,1.47,1.47,0,0,1,1.852,0,1.112,1.112,0,0,1,.34.836,1.108,1.108,0,0,1-.348.844,1.448,1.448,0,0,1-1.836,0A1.108,1.108,0,0,1,36.105,4.359ZM39.965,10.7a5.013,5.013,0,0,1,.484-2.242A3.546,3.546,0,0,1,41.844,6.93a4.069,4.069,0,0,1,2.113-.539A3.849,3.849,0,0,1,46.75,7.438a4.2,4.2,0,0,1,1.207,2.844l.016.578a4.418,4.418,0,0,1-1.086,3.121,4.209,4.209,0,0,1-5.832,0,4.5,4.5,0,0,1-1.09-3.187Zm2.258.16a3.16,3.16,0,0,0,.453,1.843,1.628,1.628,0,0,0,2.578.008,3.457,3.457,0,0,0,.461-2.015,3.128,3.128,0,0,0-.461-1.831,1.5,1.5,0,0,0-1.3-.649,1.474,1.474,0,0,0-1.281.646A3.516,3.516,0,0,0,42.223,10.856Z" transform="translate(557 17176)" fill="#12263f"/>
    <path id="Path_610642" data-name="Path 610642" d="M-7820,5576v533.352" transform="translate(8657.092 11164.675)" fill="none" stroke="#707070" stroke-width="1"/>
    <path id="Path_610644" data-name="Path 610644" d="M0,0V633.838" transform="translate(629.162 17093.535) rotate(-90)" fill="none" stroke="#707070" stroke-width="1"/>
    <path id="Path_610643" data-name="Path 610643" d="M-7820,5576v534.9" transform="translate(8854.973 11163.129)" fill="none" stroke="#707070" stroke-width="1"/>
    <path id="Path_610645" data-name="Path 610645" d="M0,0V633.838" transform="translate(629.162 16921.164) rotate(-90)" fill="none" stroke="#707070" stroke-width="1"/>
    <path id="Path_613031" data-name="Path 613031" d="M40.5,0A40.5,40.5,0,1,1,0,40.5,40.5,40.5,0,0,1,40.5,0Z" transform="translate(791 16876)" fill="#0c5e46"/>
    <path id="Path_613032" data-name="Path 613032" d="M40.581,0A40.581,40.581,0,1,1,0,40.581,40.581,40.581,0,0,1,40.581,0Z" transform="matrix(0.719, 0.695, -0.695, 0.719, 983.001, 17125.016)" fill="#0c5e46"/>
    <path id="Path_613033" data-name="Path 613033" d="M-8.5-5h1.3v2.285H-8.5V0h-2.962V-2.716h-4.948l-.176-1.811,5.124-8.244V-12.8H-8.5Zm-5.265,0h2.3V-8.938l-.185.3ZM2.988-5.229a6.11,6.11,0,0,1-1.165,4A4.024,4.024,0,0,1-1.459.176a4.046,4.046,0,0,1-3.3-1.415,6.1,6.1,0,0,1-1.169-3.99V-7.567a6.11,6.11,0,0,1,1.165-4,4.034,4.034,0,0,1,3.292-1.406,4.036,4.036,0,0,1,3.3,1.415,6.116,6.116,0,0,1,1.169,4ZM.026-7.945a4.564,4.564,0,0,0-.36-2.061,1.2,1.2,0,0,0-1.143-.681,1.176,1.176,0,0,0-1.112.633,4.3,4.3,0,0,0-.374,1.916v3.27a4.6,4.6,0,0,0,.36,2.1,1.209,1.209,0,0,0,1.143.664A1.193,1.193,0,0,0-.343-2.755,4.39,4.39,0,0,0,.026-4.781Zm4.509-2.391a2.512,2.512,0,0,1,.773-1.916,2.9,2.9,0,0,1,2.074-.729,2.9,2.9,0,0,1,2.083.725,2.578,2.578,0,0,1,.765,1.964v.633a2.5,2.5,0,0,1-.765,1.907A2.889,2.889,0,0,1,7.4-7.031a2.968,2.968,0,0,1-2.079-.716,2.524,2.524,0,0,1-.787-1.964Zm1.907.675a1.062,1.062,0,0,0,.255.738.9.9,0,0,0,.7.284q.923,0,.923-1.17v-.524a1.12,1.12,0,0,0-.246-.747.857.857,0,0,0-.694-.293.876.876,0,0,0-.686.284,1.114,1.114,0,0,0-.255.773Zm4.175,6.524A2.487,2.487,0,0,1,11.4-5.054a2.924,2.924,0,0,1,2.07-.721,2.956,2.956,0,0,1,2.083.712,2.565,2.565,0,0,1,.773,1.986v.615a2.509,2.509,0,0,1-.765,1.916,2.9,2.9,0,0,1-2.074.721A2.968,2.968,0,0,1,11.4-.541,2.524,2.524,0,0,1,10.617-2.5Zm1.9.675a1.039,1.039,0,0,0,.281.72.891.891,0,0,0,.686.31.808.808,0,0,0,.923-.8l.009-.9a1.075,1.075,0,0,0-.255-.747.886.886,0,0,0-.694-.284.893.893,0,0,0-.677.266,1.061,1.061,0,0,0-.272.72ZM7.963-.958l-1.38-.694,6.249-10,1.38.694Z" transform="translate(832 16924)" fill="#fff"/>
    <path id="Path_613034" data-name="Path 613034" d="M-13.614-7.638h1.4a1.453,1.453,0,0,0,1.661-1.626,1.406,1.406,0,0,0-.4-1.033,1.5,1.5,0,0,0-1.116-.4,1.606,1.606,0,0,0-1.024.343,1.046,1.046,0,0,0-.435.853h-2.962a3.032,3.032,0,0,1,.563-1.8,3.715,3.715,0,0,1,1.56-1.235,5.334,5.334,0,0,1,2.193-.444,5.241,5.241,0,0,1,3.357.976A3.243,3.243,0,0,1-7.594-9.325,2.7,2.7,0,0,1-8.1-7.765,3.6,3.6,0,0,1-9.571-6.574a3.441,3.441,0,0,1,1.6,1.121,2.951,2.951,0,0,1,.58,1.859A3.3,3.3,0,0,1-8.71-.853,5.472,5.472,0,0,1-12.173.176,5.675,5.675,0,0,1-14.506-.3a3.656,3.656,0,0,1-1.63-1.327A3.45,3.45,0,0,1-16.69-3.56h2.979a1.334,1.334,0,0,0,.475,1.02,1.676,1.676,0,0,0,1.169.431,1.755,1.755,0,0,0,1.248-.435,1.454,1.454,0,0,0,.466-1.112,1.7,1.7,0,0,0-.483-1.371,2.021,2.021,0,0,0-1.336-.4h-1.441Zm16.6,2.408a6.11,6.11,0,0,1-1.165,4A4.024,4.024,0,0,1-1.459.176a4.046,4.046,0,0,1-3.3-1.415,6.1,6.1,0,0,1-1.169-3.99V-7.567a6.11,6.11,0,0,1,1.165-4,4.034,4.034,0,0,1,3.292-1.406,4.036,4.036,0,0,1,3.3,1.415,6.116,6.116,0,0,1,1.169,4ZM.026-7.945a4.564,4.564,0,0,0-.36-2.061,1.2,1.2,0,0,0-1.143-.681,1.176,1.176,0,0,0-1.112.633,4.3,4.3,0,0,0-.374,1.916v3.27a4.6,4.6,0,0,0,.36,2.1,1.209,1.209,0,0,0,1.143.664A1.193,1.193,0,0,0-.343-2.755,4.39,4.39,0,0,0,.026-4.781Zm4.509-2.391a2.512,2.512,0,0,1,.773-1.916,2.9,2.9,0,0,1,2.074-.729,2.9,2.9,0,0,1,2.083.725,2.578,2.578,0,0,1,.765,1.964v.633a2.5,2.5,0,0,1-.765,1.907A2.889,2.889,0,0,1,7.4-7.031a2.968,2.968,0,0,1-2.079-.716,2.524,2.524,0,0,1-.787-1.964Zm1.907.675a1.062,1.062,0,0,0,.255.738.9.9,0,0,0,.7.284q.923,0,.923-1.17v-.524a1.12,1.12,0,0,0-.246-.747.857.857,0,0,0-.694-.293.876.876,0,0,0-.686.284,1.114,1.114,0,0,0-.255.773Zm4.175,6.524A2.487,2.487,0,0,1,11.4-5.054a2.924,2.924,0,0,1,2.07-.721,2.956,2.956,0,0,1,2.083.712,2.565,2.565,0,0,1,.773,1.986v.615a2.509,2.509,0,0,1-.765,1.916,2.9,2.9,0,0,1-2.074.721A2.968,2.968,0,0,1,11.4-.541,2.524,2.524,0,0,1,10.617-2.5Zm1.9.675a1.039,1.039,0,0,0,.281.72.891.891,0,0,0,.686.31.808.808,0,0,0,.923-.8l.009-.9a1.075,1.075,0,0,0-.255-.747.886.886,0,0,0-.694-.284.893.893,0,0,0-.677.266,1.061,1.061,0,0,0-.272.72ZM7.963-.958l-1.38-.694,6.249-10,1.38.694Z" transform="translate(984 17188)" fill="#fff"/>
    <path id="Path_610646" data-name="Path 610646" d="M0,38.125,26.99,9.531,21.679,5.517,42.24,0l-4.4,18.775-3.521-3.729L9.664,46.326Z" transform="matrix(0.996, 0.087, -0.087, 0.996, 858.516, 16847.398)" fill="#0c5e46"/>
    <path id="Path_610647" data-name="Path 610647" d="M0,38.125,26.99,9.531,21.679,5.517,42.24,0l-4.4,18.775-3.521-3.729L9.664,46.326Z" transform="translate(1052.158 17151.508) rotate(49)" fill="#0c5e46"/>
    <g id="Path_613035" data-name="Path 613035" transform="translate(758 16666)" fill="#03386e">
      <path d="M 385 33.5 L 15 33.5 C 11.12689971923828 33.5 7.485650062561035 31.99175071716309 4.746950149536133 29.25304985046387 C 2.008249998092651 26.51435089111328 0.5 22.87310028076172 0.5 19 L 0.5 15 C 0.5 11.12689971923828 2.008249998092651 7.485650062561035 4.746950149536133 4.746950149536133 C 7.485650062561035 2.008249998092651 11.12689971923828 0.5 15 0.5 L 385 0.5 C 388.8731079101562 0.5 392.5143432617188 2.008249998092651 395.2530517578125 4.746950149536133 C 397.9917602539062 7.485650062561035 399.5 11.12689971923828 399.5 15 L 399.5 19 C 399.5 22.87310028076172 397.9917602539062 26.51435089111328 395.2530517578125 29.25304985046387 C 392.5143432617188 31.99175071716309 388.8731079101562 33.5 385 33.5 Z" stroke="none"/>
      <path d="M 15 1 C 11.26043701171875 1 7.7447509765625 2.456249237060547 5.100494384765625 5.100500106811523 C 2.45623779296875 7.744749069213867 1 11.26045036315918 1 15 L 1 19 C 1 22.73954963684082 2.45623779296875 26.2552490234375 5.100494384765625 28.89949989318848 C 7.7447509765625 31.54375076293945 11.26043701171875 33 15 33 L 385 33 C 388.7395629882812 33 392.2552490234375 31.54375076293945 394.8995056152344 28.89949989318848 C 397.5437622070312 26.2552490234375 399 22.73954963684082 399 19 L 399 15 C 399 11.26045036315918 397.5437622070312 7.744749069213867 394.8995056152344 5.100500106811523 C 392.2552490234375 2.456249237060547 388.7395629882812 1 385 1 L 15 1 M 15 0 L 385 0 C 393.2842407226562 0 400 6.715749740600586 400 15 L 400 19 C 400 27.28425025939941 393.2842407226562 34 385 34 L 15 34 C 6.7156982421875 34 0 27.28425025939941 0 19 L 0 15 C 0 6.715749740600586 6.7156982421875 0 15 0 Z" stroke="none" fill="#707070"/>
    </g>
    <path id="Path_613036" data-name="Path 613036" d="M20,0H170a20,20,0,0,1,20,20V38a20,20,0,0,1-20,20H20A20,20,0,0,1,0,38V20A20,20,0,0,1,20,0Z" transform="translate(338 16981)" fill="#03386e"/>
    <path id="Path_613037" data-name="Path 613037" d="M13.9,11.771H8.837V17H6.2V4.2h8.332V6.339h-5.7v3.3H13.9Zm7.5,4.263a3.185,3.185,0,0,1-2.6,1.143,3,3,0,0,1-2.333-.879,3.752,3.752,0,0,1-.822-2.575V7.49h2.54v6.151q0,1.487,1.354,1.487a1.834,1.834,0,0,0,1.775-.9V7.49h2.549V17H21.467Zm8.754,1.143a4.668,4.668,0,0,1-3.406-1.283,4.561,4.561,0,0,1-1.314-3.419v-.246a5.745,5.745,0,0,1,.554-2.562,4.064,4.064,0,0,1,1.569-1.74,4.4,4.4,0,0,1,2.316-.611,3.947,3.947,0,0,1,3.072,1.23,5,5,0,0,1,1.121,3.489v1.037H28.006a2.36,2.36,0,0,0,.743,1.494,2.245,2.245,0,0,0,1.569.563,2.742,2.742,0,0,0,2.294-1.063l1.248,1.4a3.813,3.813,0,0,1-1.547,1.261A5.075,5.075,0,0,1,30.151,17.176Zm-.29-7.813a1.587,1.587,0,0,0-1.226.512,2.651,2.651,0,0,0-.6,1.466h3.533v-.2a1.891,1.891,0,0,0-.457-1.311A1.638,1.638,0,0,0,29.861,9.362Zm10.986.51a6.9,6.9,0,0,0-.914-.07,1.86,1.86,0,0,0-1.89.976V17H35.5V7.49h2.4l.07,1.134a2.354,2.354,0,0,1,2.118-1.31,2.662,2.662,0,0,1,.791.114Zm4.14,5.08h4.649V17H41.744V15.453l4.474-5.915H41.875V7.49H49.5v1.5ZM56.738,17a2.821,2.821,0,0,1-.255-.853,3.073,3.073,0,0,1-2.4,1.028,3.376,3.376,0,0,1-2.316-.809,2.6,2.6,0,0,1-.918-2.039,2.687,2.687,0,0,1,1.121-2.32,5.529,5.529,0,0,1,3.239-.817h1.169v-.545a1.567,1.567,0,0,0-.338-1.055,1.331,1.331,0,0,0-1.068-.4,1.513,1.513,0,0,0-1.006.308,1.045,1.045,0,0,0-.365.844H51.06a2.551,2.551,0,0,1,.51-1.529,3.37,3.37,0,0,1,1.441-1.1,5.253,5.253,0,0,1,2.092-.4,4.15,4.15,0,0,1,2.791.883,3.09,3.09,0,0,1,1.033,2.483V14.8a4.546,4.546,0,0,0,.378,2.048V17Zm-2.1-1.767a2.188,2.188,0,0,0,1.037-.25,1.645,1.645,0,0,0,.7-.672V12.676h-.949q-1.907,0-2.03,1.318l-.009.149a1.017,1.017,0,0,0,.334.782A1.3,1.3,0,0,0,54.637,15.233Zm10.327-3.059a5.731,5.731,0,0,1,1-3.542,3.237,3.237,0,0,1,2.729-1.318,2.913,2.913,0,0,1,2.294,1.037V3.5h2.549V17H71.24l-.123-1.011a2.989,2.989,0,0,1-2.443,1.187,3.228,3.228,0,0,1-2.694-1.323A5.916,5.916,0,0,1,64.964,12.175Zm2.54.189a3.754,3.754,0,0,0,.466,2.051,1.517,1.517,0,0,0,1.354.713,1.7,1.7,0,0,0,1.661-.995V10.375a1.675,1.675,0,0,0-1.644-.995Q67.5,9.38,67.5,12.364Zm12.375,4.812a4.668,4.668,0,0,1-3.406-1.283,4.561,4.561,0,0,1-1.314-3.419v-.246a5.745,5.745,0,0,1,.554-2.562,4.064,4.064,0,0,1,1.569-1.74A4.4,4.4,0,0,1,79.6,7.314a3.947,3.947,0,0,1,3.072,1.23,5,5,0,0,1,1.121,3.489v1.037H77.735a2.36,2.36,0,0,0,.743,1.494,2.245,2.245,0,0,0,1.569.563,2.742,2.742,0,0,0,2.294-1.063l1.248,1.4a3.813,3.813,0,0,1-1.547,1.261A5.075,5.075,0,0,1,79.879,17.176Zm-.29-7.813a1.587,1.587,0,0,0-1.226.512,2.651,2.651,0,0,0-.6,1.466h3.533v-.2a1.891,1.891,0,0,0-.457-1.311A1.638,1.638,0,0,0,79.589,9.362ZM92.4,17H89.846V3.5H92.4Zm7.6,0a2.821,2.821,0,0,1-.255-.853,3.073,3.073,0,0,1-2.4,1.028,3.376,3.376,0,0,1-2.316-.809,2.6,2.6,0,0,1-.918-2.039,2.687,2.687,0,0,1,1.121-2.32,5.529,5.529,0,0,1,3.239-.817h1.169v-.545A1.567,1.567,0,0,0,99.3,9.591a1.331,1.331,0,0,0-1.068-.4,1.513,1.513,0,0,0-1.006.308,1.045,1.045,0,0,0-.365.844H94.32a2.551,2.551,0,0,1,.51-1.529,3.37,3.37,0,0,1,1.441-1.1,5.253,5.253,0,0,1,2.092-.4,4.15,4.15,0,0,1,2.791.883,3.09,3.09,0,0,1,1.033,2.483V14.8a4.546,4.546,0,0,0,.378,2.048V17Zm-2.1-1.767a2.188,2.188,0,0,0,1.037-.25,1.645,1.645,0,0,0,.7-.672V12.676h-.949q-1.907,0-2.03,1.318l-.009.149a1.017,1.017,0,0,0,.334.782A1.3,1.3,0,0,0,97.9,15.233Zm16.418.8a3.185,3.185,0,0,1-2.6,1.143,3,3,0,0,1-2.333-.879,3.752,3.752,0,0,1-.822-2.575V7.49h2.54v6.151q0,1.487,1.354,1.487a1.834,1.834,0,0,0,1.775-.9V7.49h2.549V17h-2.391ZM121.03,7.49l.079,1.1a3.32,3.32,0,0,1,2.733-1.274,2.759,2.759,0,0,1,2.25.888,4.142,4.142,0,0,1,.756,2.654V17h-2.54V10.918a1.648,1.648,0,0,0-.352-1.173,1.574,1.574,0,0,0-1.169-.365,1.747,1.747,0,0,0-1.608.914V17h-2.54V7.49ZM131.454,17H128.9V7.49h2.549Zm-2.7-11.971a1.251,1.251,0,0,1,.382-.94,1.648,1.648,0,0,1,2.079,0,1.244,1.244,0,0,1,.387.94,1.247,1.247,0,0,1-.391.949,1.629,1.629,0,0,1-2.065,0A1.247,1.247,0,0,1,128.755,5.029Zm4.395,7.146a5.731,5.731,0,0,1,1-3.542,3.237,3.237,0,0,1,2.729-1.318,2.913,2.913,0,0,1,2.294,1.037V3.5h2.549V17h-2.294l-.123-1.011a2.989,2.989,0,0,1-2.443,1.187,3.228,3.228,0,0,1-2.694-1.323A5.916,5.916,0,0,1,133.15,12.175Zm2.54.189a3.754,3.754,0,0,0,.466,2.051,1.517,1.517,0,0,0,1.354.713,1.7,1.7,0,0,0,1.661-.995V10.375a1.675,1.675,0,0,0-1.644-.995Q135.69,9.38,135.69,12.364ZM149.2,17a2.821,2.821,0,0,1-.255-.853,3.073,3.073,0,0,1-2.4,1.028,3.376,3.376,0,0,1-2.316-.809,2.6,2.6,0,0,1-.918-2.039,2.687,2.687,0,0,1,1.121-2.32,5.529,5.529,0,0,1,3.239-.817h1.169v-.545a1.567,1.567,0,0,0-.338-1.055,1.331,1.331,0,0,0-1.068-.4,1.513,1.513,0,0,0-1.006.308,1.045,1.045,0,0,0-.365.844h-2.54a2.551,2.551,0,0,1,.51-1.529,3.37,3.37,0,0,1,1.441-1.1,5.253,5.253,0,0,1,2.092-.4,4.15,4.15,0,0,1,2.791.883,3.09,3.09,0,0,1,1.033,2.483V14.8a4.546,4.546,0,0,0,.378,2.048V17Zm-2.1-1.767a2.188,2.188,0,0,0,1.037-.25,1.645,1.645,0,0,0,.7-.672V12.676h-.949q-1.907,0-2.03,1.318l-.009.149a1.017,1.017,0,0,0,.334.782A1.3,1.3,0,0,0,147.1,15.233Zm5.845-3.059a5.731,5.731,0,0,1,1-3.542,3.237,3.237,0,0,1,2.729-1.318,2.913,2.913,0,0,1,2.294,1.037V3.5h2.549V17h-2.294l-.123-1.011a2.989,2.989,0,0,1-2.443,1.187,3.228,3.228,0,0,1-2.694-1.323A5.916,5.916,0,0,1,152.943,12.175Zm2.54.189a3.754,3.754,0,0,0,.466,2.051,1.517,1.517,0,0,0,1.354.713,1.7,1.7,0,0,0,1.661-.995V10.375a1.675,1.675,0,0,0-1.644-.995Q155.483,9.38,155.483,12.364Zm12.085-.189a5.731,5.731,0,0,1,1-3.542,3.237,3.237,0,0,1,2.729-1.318,2.913,2.913,0,0,1,2.294,1.037V3.5h2.549V17h-2.294l-.123-1.011a2.989,2.989,0,0,1-2.443,1.187,3.228,3.228,0,0,1-2.694-1.323A5.916,5.916,0,0,1,167.568,12.175Zm2.54.189a3.754,3.754,0,0,0,.466,2.051,1.517,1.517,0,0,0,1.354.713,1.7,1.7,0,0,0,1.661-.995V10.375a1.675,1.675,0,0,0-1.644-.995Q170.108,9.38,170.108,12.364Zm12.375,4.812a4.668,4.668,0,0,1-3.406-1.283,4.561,4.561,0,0,1-1.314-3.419v-.246a5.745,5.745,0,0,1,.554-2.562,4.064,4.064,0,0,1,1.569-1.74,4.4,4.4,0,0,1,2.316-.611,3.947,3.947,0,0,1,3.072,1.23,5,5,0,0,1,1.121,3.489v1.037h-6.056a2.36,2.36,0,0,0,.743,1.494,2.245,2.245,0,0,0,1.569.563,2.742,2.742,0,0,0,2.294-1.063l1.248,1.4a3.813,3.813,0,0,1-1.547,1.261A5.075,5.075,0,0,1,182.483,17.176Zm-.29-7.813a1.587,1.587,0,0,0-1.226.512,2.651,2.651,0,0,0-.6,1.466H183.9v-.2a1.891,1.891,0,0,0-.457-1.311A1.638,1.638,0,0,0,182.193,9.362ZM194.656,7.49l.079,1.1a3.32,3.32,0,0,1,2.733-1.274,2.759,2.759,0,0,1,2.25.888,4.142,4.142,0,0,1,.756,2.654V17h-2.54V10.918a1.648,1.648,0,0,0-.352-1.173,1.574,1.574,0,0,0-1.169-.365,1.747,1.747,0,0,0-1.608.914V17h-2.54V7.49Zm12.12,9.686a4.668,4.668,0,0,1-3.406-1.283,4.561,4.561,0,0,1-1.314-3.419v-.246a5.745,5.745,0,0,1,.554-2.562,4.064,4.064,0,0,1,1.569-1.74,4.4,4.4,0,0,1,2.316-.611,3.947,3.947,0,0,1,3.072,1.23,5,5,0,0,1,1.121,3.489v1.037h-6.056a2.36,2.36,0,0,0,.743,1.494,2.245,2.245,0,0,0,1.569.563,2.742,2.742,0,0,0,2.294-1.063l1.248,1.4a3.813,3.813,0,0,1-1.547,1.261A5.075,5.075,0,0,1,206.776,17.176Zm-.29-7.813a1.587,1.587,0,0,0-1.226.512,2.651,2.651,0,0,0-.6,1.466h3.533v-.2a1.891,1.891,0,0,0-.457-1.311A1.638,1.638,0,0,0,206.486,9.362Zm5.273,2.813A5.573,5.573,0,0,1,212.8,8.65a3.375,3.375,0,0,1,2.808-1.336,2.96,2.96,0,0,1,2.435,1.072l.105-.9h2.3v9.193a4.064,4.064,0,0,1-.567,2.171,3.641,3.641,0,0,1-1.6,1.406,5.608,5.608,0,0,1-2.408.483,5.215,5.215,0,0,1-2.039-.417,3.619,3.619,0,0,1-1.5-1.077l1.125-1.547a2.975,2.975,0,0,0,2.3,1.063,2.178,2.178,0,0,0,1.573-.541,2.027,2.027,0,0,0,.563-1.534v-.51a2.938,2.938,0,0,1-2.312.993,3.366,3.366,0,0,1-2.773-1.34,5.572,5.572,0,0,1-1.059-3.555Zm2.54.189a3.47,3.47,0,0,0,.519,2.029,1.65,1.65,0,0,0,1.424.735,1.764,1.764,0,0,0,1.661-.871V10.251a1.76,1.76,0,0,0-1.644-.871,1.66,1.66,0,0,0-1.437.748A3.911,3.911,0,0,0,214.3,12.364Zm7.708-.207a5.64,5.64,0,0,1,.545-2.522,3.989,3.989,0,0,1,1.569-1.714,4.577,4.577,0,0,1,2.377-.606,4.33,4.33,0,0,1,3.142,1.178,4.727,4.727,0,0,1,1.358,3.2l.018.65a4.97,4.97,0,0,1-1.222,3.511,4.735,4.735,0,0,1-6.561,0,5.058,5.058,0,0,1-1.226-3.586Zm2.54.18a3.555,3.555,0,0,0,.51,2.073,1.831,1.831,0,0,0,2.9.009,3.89,3.89,0,0,0,.519-2.267,3.519,3.519,0,0,0-.519-2.06,1.686,1.686,0,0,0-1.459-.731,1.658,1.658,0,0,0-1.441.726A3.955,3.955,0,0,0,224.547,12.338Zm11.988,2.79a1.666,1.666,0,0,0,1.143-.387,1.355,1.355,0,0,0,.457-1.028h2.382a3.258,3.258,0,0,1-.527,1.771,3.48,3.48,0,0,1-1.419,1.248,4.442,4.442,0,0,1-1.991.444,4.129,4.129,0,0,1-3.217-1.3,5.13,5.13,0,0,1-1.178-3.582v-.167a5.071,5.071,0,0,1,1.169-3.507,4.08,4.08,0,0,1,3.208-1.31,4,4,0,0,1,2.861,1.015,3.594,3.594,0,0,1,1.094,2.7h-2.382a1.745,1.745,0,0,0-.457-1.206,1.7,1.7,0,0,0-2.5.183,3.749,3.749,0,0,0-.453,2.1v.264a3.8,3.8,0,0,0,.448,2.113A1.549,1.549,0,0,0,236.536,15.128ZM244.648,17H242.1V7.49h2.549Zm-2.7-11.971a1.251,1.251,0,0,1,.382-.94,1.648,1.648,0,0,1,2.079,0,1.244,1.244,0,0,1,.387.94,1.247,1.247,0,0,1-.391.949,1.629,1.629,0,0,1-2.065,0A1.247,1.247,0,0,1,241.95,5.029Zm4.395,7.128a5.64,5.64,0,0,1,.545-2.522,3.989,3.989,0,0,1,1.569-1.714,4.577,4.577,0,0,1,2.377-.606,4.33,4.33,0,0,1,3.142,1.178,4.727,4.727,0,0,1,1.358,3.2l.018.65a4.97,4.97,0,0,1-1.222,3.511,4.735,4.735,0,0,1-6.561,0,5.058,5.058,0,0,1-1.226-3.586Zm2.54.18a3.555,3.555,0,0,0,.51,2.073,1.831,1.831,0,0,0,2.9.009,3.89,3.89,0,0,0,.519-2.267,3.519,3.519,0,0,0-.519-2.06,1.686,1.686,0,0,0-1.459-.731,1.658,1.658,0,0,0-1.441.726A3.955,3.955,0,0,0,248.884,12.338Z" transform="translate(828 16672)" fill="#fff"/>
    <path id="Path_613038" data-name="Path 613038" d="M66.677,14.363H62.054L61.175,17h-2.8L63.135,4.2h2.443L70.369,17h-2.8Zm-3.911-2.136h3.2l-1.608-4.79ZM74.289,5.152V7.49h1.626V9.354H74.289V14.1a1.133,1.133,0,0,0,.2.756,1.015,1.015,0,0,0,.773.229,4.051,4.051,0,0,0,.747-.062v1.925a5.229,5.229,0,0,1-1.538.229,2.425,2.425,0,0,1-2.725-2.7V9.354H70.36V7.49h1.389V5.152Zm8.385,4.72a6.9,6.9,0,0,0-.914-.07,1.86,1.86,0,0,0-1.89.976V17H77.33V7.49h2.4l.07,1.134a2.354,2.354,0,0,1,2.118-1.31,2.662,2.662,0,0,1,.791.114ZM89.142,17a2.821,2.821,0,0,1-.255-.853,3.073,3.073,0,0,1-2.4,1.028,3.376,3.376,0,0,1-2.316-.809,2.6,2.6,0,0,1-.918-2.039,2.687,2.687,0,0,1,1.121-2.32,5.529,5.529,0,0,1,3.239-.817h1.169v-.545a1.567,1.567,0,0,0-.338-1.055,1.331,1.331,0,0,0-1.068-.4,1.513,1.513,0,0,0-1.006.308,1.045,1.045,0,0,0-.365.844h-2.54a2.551,2.551,0,0,1,.51-1.529,3.37,3.37,0,0,1,1.441-1.1,5.253,5.253,0,0,1,2.092-.4A4.15,4.15,0,0,1,90.3,8.2a3.09,3.09,0,0,1,1.033,2.483V14.8a4.546,4.546,0,0,0,.378,2.048V17Zm-2.1-1.767a2.188,2.188,0,0,0,1.037-.25,1.645,1.645,0,0,0,.7-.672V12.676h-.949q-1.907,0-2.03,1.318l-.009.149a1.017,1.017,0,0,0,.334.782A1.3,1.3,0,0,0,87.042,15.233Zm10.2-.105a1.666,1.666,0,0,0,1.143-.387,1.355,1.355,0,0,0,.457-1.028h2.382a3.258,3.258,0,0,1-.527,1.771,3.48,3.48,0,0,1-1.419,1.248,4.442,4.442,0,0,1-1.991.444,4.129,4.129,0,0,1-3.217-1.3A5.13,5.13,0,0,1,92.886,12.3v-.167a5.071,5.071,0,0,1,1.169-3.507,4.08,4.08,0,0,1,3.208-1.31,4,4,0,0,1,2.861,1.015,3.594,3.594,0,0,1,1.094,2.7H98.836a1.745,1.745,0,0,0-.457-1.206,1.7,1.7,0,0,0-2.5.183,3.749,3.749,0,0,0-.453,2.1v.264a3.8,3.8,0,0,0,.448,2.113A1.549,1.549,0,0,0,97.237,15.128Zm8.473-9.976V7.49h1.626V9.354h-1.626V14.1a1.133,1.133,0,0,0,.2.756,1.015,1.015,0,0,0,.773.229,4.051,4.051,0,0,0,.747-.062v1.925a5.229,5.229,0,0,1-1.538.229,2.425,2.425,0,0,1-2.725-2.7V9.354h-1.389V7.49h1.389V5.152ZM111.431,17h-2.549V7.49h2.549Zm-2.7-11.971a1.251,1.251,0,0,1,.382-.94,1.648,1.648,0,0,1,2.079,0,1.244,1.244,0,0,1,.387.94,1.247,1.247,0,0,1-.391.949,1.629,1.629,0,0,1-2.065,0A1.247,1.247,0,0,1,108.733,5.029Zm8.35,8.868,1.767-6.407H121.5L118.3,17H115.87l-3.208-9.51h2.654Zm5.01-1.74a5.64,5.64,0,0,1,.545-2.522,3.989,3.989,0,0,1,1.569-1.714,4.577,4.577,0,0,1,2.377-.606,4.33,4.33,0,0,1,3.142,1.178,4.727,4.727,0,0,1,1.358,3.2l.018.65a4.97,4.97,0,0,1-1.222,3.511,4.735,4.735,0,0,1-6.561,0,5.058,5.058,0,0,1-1.226-3.586Zm2.54.18a3.555,3.555,0,0,0,.51,2.073,1.831,1.831,0,0,0,2.9.009,3.89,3.89,0,0,0,.519-2.267,3.519,3.519,0,0,0-.519-2.06,1.686,1.686,0,0,0-1.459-.731,1.658,1.658,0,0,0-1.441.726A3.955,3.955,0,0,0,124.632,12.338ZM47.724,32.175a5.731,5.731,0,0,1,1-3.542,3.237,3.237,0,0,1,2.729-1.318,2.913,2.913,0,0,1,2.294,1.037V23.5h2.549V37H54l-.123-1.011a2.989,2.989,0,0,1-2.443,1.187,3.228,3.228,0,0,1-2.694-1.323A5.916,5.916,0,0,1,47.724,32.175Zm2.54.189a3.754,3.754,0,0,0,.466,2.051,1.517,1.517,0,0,0,1.354.713,1.7,1.7,0,0,0,1.661-.995V30.375A1.675,1.675,0,0,0,52.1,29.38Q50.264,29.38,50.264,32.364Zm12.375,4.812a4.668,4.668,0,0,1-3.406-1.283,4.561,4.561,0,0,1-1.314-3.419v-.246a5.745,5.745,0,0,1,.554-2.562,4.064,4.064,0,0,1,1.569-1.74,4.4,4.4,0,0,1,2.316-.611,3.947,3.947,0,0,1,3.072,1.23,5,5,0,0,1,1.121,3.489v1.037H60.494a2.36,2.36,0,0,0,.743,1.494,2.245,2.245,0,0,0,1.569.563A2.742,2.742,0,0,0,65.1,34.064l1.248,1.4A3.813,3.813,0,0,1,64.8,36.723,5.075,5.075,0,0,1,62.639,37.176Zm-.29-7.813a1.587,1.587,0,0,0-1.226.512,2.651,2.651,0,0,0-.6,1.466h3.533v-.2a1.891,1.891,0,0,0-.457-1.311A1.638,1.638,0,0,0,62.349,29.362ZM70.672,37H68.123V23.5h2.549Zm8.956-9.51.079,1.063a3.342,3.342,0,0,1,2.733-1.239,2.536,2.536,0,0,1,2.522,1.45,3.265,3.265,0,0,1,2.856-1.45,2.836,2.836,0,0,1,2.3.9,4.141,4.141,0,0,1,.756,2.711V37H88.329V30.936a1.811,1.811,0,0,0-.316-1.182A1.4,1.4,0,0,0,86.9,29.38a1.585,1.585,0,0,0-1.582,1.09L85.323,37h-2.54V30.944a1.789,1.789,0,0,0-.325-1.2,1.416,1.416,0,0,0-1.107-.369,1.646,1.646,0,0,0-1.564.9V37h-2.54V27.49Zm17.578,9.686A4.668,4.668,0,0,1,93.8,35.893a4.561,4.561,0,0,1-1.314-3.419v-.246a5.745,5.745,0,0,1,.554-2.562,4.064,4.064,0,0,1,1.569-1.74,4.4,4.4,0,0,1,2.316-.611A3.947,3.947,0,0,1,100,28.545a5,5,0,0,1,1.121,3.489v1.037H95.062a2.36,2.36,0,0,0,.743,1.494,2.245,2.245,0,0,0,1.569.563,2.742,2.742,0,0,0,2.294-1.063l1.248,1.4a3.813,3.813,0,0,1-1.547,1.261A5.075,5.075,0,0,1,97.206,37.176Zm-.29-7.813a1.587,1.587,0,0,0-1.226.512,2.651,2.651,0,0,0-.6,1.466h3.533v-.2a1.891,1.891,0,0,0-.457-1.311A1.638,1.638,0,0,0,96.916,29.362Zm10.986.51a6.9,6.9,0,0,0-.914-.07,1.86,1.86,0,0,0-1.89.976V37h-2.54V27.49h2.4l.07,1.134a2.354,2.354,0,0,1,2.118-1.31,2.662,2.662,0,0,1,.791.114Zm5.01,5.256a1.666,1.666,0,0,0,1.143-.387,1.355,1.355,0,0,0,.457-1.028h2.382a3.258,3.258,0,0,1-.527,1.771,3.48,3.48,0,0,1-1.419,1.248,4.442,4.442,0,0,1-1.991.444,4.129,4.129,0,0,1-3.217-1.3,5.13,5.13,0,0,1-1.178-3.582v-.167a5.071,5.071,0,0,1,1.169-3.507,4.08,4.08,0,0,1,3.208-1.31A4,4,0,0,1,115.8,28.33a3.594,3.594,0,0,1,1.094,2.7h-2.382a1.745,1.745,0,0,0-.457-1.206,1.7,1.7,0,0,0-2.5.183,3.749,3.749,0,0,0-.453,2.1v.264a3.8,3.8,0,0,0,.448,2.113A1.549,1.549,0,0,0,112.912,35.128ZM123.854,37a2.821,2.821,0,0,1-.255-.853,3.073,3.073,0,0,1-2.4,1.028,3.376,3.376,0,0,1-2.316-.809,2.6,2.6,0,0,1-.918-2.039,2.687,2.687,0,0,1,1.121-2.32,5.529,5.529,0,0,1,3.239-.817h1.169v-.545a1.567,1.567,0,0,0-.338-1.055,1.331,1.331,0,0,0-1.068-.4,1.513,1.513,0,0,0-1.006.308,1.045,1.045,0,0,0-.365.844h-2.54a2.551,2.551,0,0,1,.51-1.529,3.37,3.37,0,0,1,1.441-1.1,5.253,5.253,0,0,1,2.092-.4,4.15,4.15,0,0,1,2.791.883,3.09,3.09,0,0,1,1.033,2.483V34.8a4.546,4.546,0,0,0,.378,2.048V37Zm-2.1-1.767a2.188,2.188,0,0,0,1.037-.25,1.645,1.645,0,0,0,.7-.672V32.676h-.949q-1.907,0-2.03,1.318l-.009.149a1.017,1.017,0,0,0,.334.782A1.3,1.3,0,0,0,121.754,35.233Zm5.845-3.059a5.731,5.731,0,0,1,1-3.542,3.237,3.237,0,0,1,2.729-1.318,2.913,2.913,0,0,1,2.294,1.037V23.5h2.549V37h-2.294l-.123-1.011a2.989,2.989,0,0,1-2.443,1.187,3.228,3.228,0,0,1-2.694-1.323A5.916,5.916,0,0,1,127.6,32.175Zm2.54.189a3.754,3.754,0,0,0,.466,2.051,1.517,1.517,0,0,0,1.354.713,1.7,1.7,0,0,0,1.661-.995V30.375a1.675,1.675,0,0,0-1.644-.995Q130.139,29.38,130.139,32.364Zm7.6-.207a5.64,5.64,0,0,1,.545-2.522,3.989,3.989,0,0,1,1.569-1.714,4.577,4.577,0,0,1,2.377-.606,4.33,4.33,0,0,1,3.142,1.178,4.727,4.727,0,0,1,1.358,3.2l.018.65a4.97,4.97,0,0,1-1.222,3.511,4.735,4.735,0,0,1-6.561,0,5.058,5.058,0,0,1-1.226-3.586Zm2.54.18a3.555,3.555,0,0,0,.51,2.073,1.831,1.831,0,0,0,2.9.009,3.89,3.89,0,0,0,.519-2.267,3.519,3.519,0,0,0-.519-2.06,1.686,1.686,0,0,0-1.459-.731,1.658,1.658,0,0,0-1.441.726A3.955,3.955,0,0,0,140.281,32.338Z" transform="translate(338 16988)" fill="#fff"/>
  </g>
</svg>
