<svg xmlns="http://www.w3.org/2000/svg" width="85" height="85" viewBox="0 0 85 85">
  <g id="Group_1074019" data-name="Group 1074019" transform="translate(-285 -24513)">
    <circle id="Ellipse_5864" data-name="Ellipse 5864" cx="42.5" cy="42.5" r="42.5" transform="translate(285 24513)" fill="#0c5e46"/>
    <g id="_OUTLINE" data-name="/ OUTLINE" transform="translate(285 24513)">
      <path id="Path_612644" data-name="Path 612644" d="M284.6,272h-4.5v1.8h4.5a10.8,10.8,0,1,1-10.8,10.8v-2.7H272v2.7A12.6,12.6,0,1,0,284.6,272Z" transform="translate(-227.2 -227.2)" fill="#fff"/>
      <path id="Path_612645" data-name="Path 612645" d="M39.4,284.6a10.8,10.8,0,1,1-10.8-10.8h3.6V272H28.6a12.6,12.6,0,1,0,12.6,12.6v-2.7H39.4Z" transform="translate(0 -227.2)" fill="#fff"/>
      <path id="Path_612646" data-name="Path 612646" d="M28.6,41.2H34V39.4H28.6A10.8,10.8,0,1,1,39.4,28.6v2.7h1.8V28.6A12.6,12.6,0,1,0,28.6,41.2Z" fill="#fff"/>
      <path id="Path_612647" data-name="Path 612647" d="M273.8,28.6a10.8,10.8,0,1,1,10.8,10.8H281v1.8h3.6A12.6,12.6,0,1,0,272,28.6v2.7h1.8Z" transform="translate(-227.2)" fill="#fff"/>
      <path id="Path_612648" data-name="Path 612648" d="M190.539,175.09v.618a6.259,6.259,0,0,1-1.845,4.455l-1.755,1.755v4.873h1.8v-4.127l1.228-1.228a8.047,8.047,0,0,0,2.372-5.728v-.618a8.1,8.1,0,1,0-16.2-.256l-1.757,2.93a1.8,1.8,0,0,0,1.544,2.726h.21v.9a2.7,2.7,0,0,0,2.7,2.7v2.7h1.8v-4.5h-1.8a.9.9,0,0,1-.9-.9v-2.7h-2.01l2.01-3.351v-.249a6.3,6.3,0,1,1,12.6,0Z" transform="translate(-140.339 -133.89)" fill="#fff"/>
      <path id="Path_612649" data-name="Path 612649" d="M67.6,64v1.8h-.9A2.7,2.7,0,0,0,64,68.5v7.2a2.7,2.7,0,0,0,2.7,2.7h9a2.7,2.7,0,0,0,2.7-2.7V68.5a2.7,2.7,0,0,0-2.7-2.7h-.9V64H73v1.8H69.4V64Zm9,11.7a.9.9,0,0,1-.9.9h-9a.9.9,0,0,1-.9-.9V71.2H76.6Zm-.9-8.1a.9.9,0,0,1,.9.9v.9H65.8v-.9a.9.9,0,0,1,.9-.9Z" transform="translate(-42.6 -42.6)" fill="#fff"/>
      <rect id="Rectangle_378762" data-name="Rectangle 378762" width="2" height="2" transform="translate(26 30)" fill="#fff"/>
      <rect id="Rectangle_378763" data-name="Rectangle 378763" width="1" height="2" transform="translate(30 30)" fill="#fff"/>
      <path id="Path_612650" data-name="Path 612650" d="M78.4,335.2v-2.811L77.3,328H65.1L64,332.389V335.2h.9v3.6H64v1.8H78.4v-1.8h-.9v-3.6Zm-9-2.589.7-2.811H72.3l.7,2.811v.789H69.4Zm-3.6,0,.7-2.811h1.745l-.647,2.589V333.4H65.8Zm4.5,6.189H66.7v-3.6h3.6Zm5.4,0H72.1v-3.6h3.6Zm.9-5.4H74.8v-1.011l-.647-2.589H75.9l.7,2.811Z" transform="translate(-42.6 -276.9)" fill="#fff"/>
      <path id="Path_612651" data-name="Path 612651" d="M311.441,334.113l6.936,6.936,6.936-6.936a4.718,4.718,0,0,0-6.673-6.673l-.264.264-.264-.264a4.718,4.718,0,1,0-6.673,6.673Zm1.273-5.4a2.918,2.918,0,0,1,4.127,0l1.536,1.536,1.536-1.536a2.918,2.918,0,1,1,4.127,4.127l-5.664,5.664-5.664-5.664a2.918,2.918,0,0,1,0-4.127Z" transform="translate(-260.977 -275.177)" fill="#fff"/>
      <path id="Path_612652" data-name="Path 612652" d="M318.1,80.743l5.4-5.4a2.682,2.682,0,0,0,.791-1.909V69.153l1.536-1.536-1.273-1.273-1.536,1.536h-4.282a2.682,2.682,0,0,0-1.909.791l-5.4,5.4a2.7,2.7,0,0,0,0,3.818l2.854,2.854a2.7,2.7,0,0,0,3.818,0Zm-5.4-4.127a.9.9,0,0,1,0-1.273l5.4-5.4a.894.894,0,0,1,.636-.264h2.482l-2.064,2.064,1.273,1.273,2.064-2.064v2.482a.894.894,0,0,1-.264.636l-5.4,5.4a.9.9,0,0,1-1.273,0Z" transform="translate(-261.492 -44.68)" fill="#fff"/>
    </g>
  </g>
</svg>
