<svg xmlns="http://www.w3.org/2000/svg" xmlns:xlink="http://www.w3.org/1999/xlink" width="190" height="190" viewBox="0 0 190 190">
  <defs>
    <clipPath id="clip-path">
      <rect id="Rect치ngulo_377972" data-name="Rect치ngulo 377972" width="190" height="190" transform="translate(1125 5923)" fill="#fff" stroke="#707070" stroke-width="1"/>
    </clipPath>
    <clipPath id="clip-path-2">
      <rect id="Rect치ngulo_377978" data-name="Rect치ngulo 377978" width="169.253" height="172" fill="#03386e"/>
    </clipPath>
  </defs>
  <g id="Enmascarar_grupo_154285" data-name="Enmascarar grupo 154285" transform="translate(-1125 -5923)" clip-path="url(#clip-path)">
    <g id="Grupo_1072734" data-name="Grupo 1072734" transform="translate(1135 5932)">
      <g id="Grupo_1072733" data-name="Grupo 1072733" clip-path="url(#clip-path-2)">
        <path id="Trazado_609775" data-name="Trazado 609775" d="M90.243,186.376c2.3.477,2.824,2.067,2.81,4.183-.052,7.981.047,15.963-.069,23.943-.029,1.981.5,2.728,2.487,2.462a18.226,18.226,0,0,1,3.095-.005c1.49.056,2.715.813,2.79,2.273.226,4.385.719,8.864-1.609,12.927-2.687,4.691-6.8,7.284-12.188,7.3q-36.755.114-73.51.006A13.972,13.972,0,0,1,.011,225.53c-.013-.469,0-.939,0-1.409-.015-6.75-.019-6.854,6.757-7.126,2.3-.093,1.682-1.506,1.683-2.663q.035-26.9.016-53.8c0-5.321.288-5.616,5.5-5.616,7.511,0,15.022.029,22.532-.019,2.044-.013,3.513.505,3.717,2.813-.128,2.337-1.617,2.867-3.64,2.861-4.661-.015-9.322.041-13.982.068-1.874-.027-3.765.091-5.619-.117-2.429-.272-2.933.733-2.92,3q.135,25.185-.012,50.372c-.017,2.515.678,3.112,3.135,3.1,20.727-.1,41.455-.033,62.182-.088,2.583-.007,6.027,1.212,7.537-.559,1.552-1.82.438-5.2.413-7.9.027-5.986.1-11.972.059-17.957-.014-2.137.588-3.667,2.873-4.113M50.84,222.54q-7.328,0-14.657,0c-9.4.005-18.792-.005-28.187.05-.852.005-2.074-.65-2.388,1.076a8.938,8.938,0,0,0,5.9,9.776c1.939.641,3.915.284,5.868.451,1.7.144,2.621-.214,2.429-2.232-.186-1.951.762-3.388,2.881-3.328,1.966.055,2.814,1.476,2.638,3.289-.19,1.953.637,2.294,2.388,2.288q22.972-.089,45.944.009c1.914.01,2.708-.394,2.531-2.443-.159-1.838.807-3.168,2.771-3.147a2.633,2.633,0,0,1,2.736,3.2c-.213,2.146.742,2.573,2.58,2.373,1.115-.122,2.255.02,3.379-.039a8.6,8.6,0,0,0,8.272-8.354c.155-2.206-.286-3.056-2.8-3.031-14.092.14-28.186.067-42.279.067" transform="translate(-0.002 -67.52)" fill="#03386e"/>
        <path id="Trazado_609776" data-name="Trazado 609776" d="M107.734,124.794c1.938-.575,3.179.205,4.148,1.9,4.36,7.637,8.8,15.227,13.166,22.862,1.515,2.651.975,4.052-1.909,5.17-5.92,2.3-11.859,4.543-17.79,6.81-7.278,2.7-14.537,5.463-21.85,8.068-1.657.59-1.454,1.244-.746,2.4,1.126,1.836,2.069,3.79,3.264,5.578,2.5,3.737,2.731,7.464.3,11.3-5.012,4.083-8.491,4.082-13.419,0-1.709-3-3.523-5.942-5.085-9.015-.866-1.7-1.607-1.8-3.184-.836-3.568,2.188-7.537,2.9-11.1.428-2.439-1.691-4.268-1.546-6.427-.021a7.124,7.124,0,0,1-1.269.573c-2.883.536-5.541.177-7.792-1.9-3.864-3.567-3.9-7.438-.1-12.946,1.581-1.046,4.187-1.029,3.948-3.937-.463-5.627,2.21-9.347,7-12.035,5.687-3.2,11.63-6.061,16.206-10.925q13.932-11.387,27.862-22.776c1.816-1.485,3.592-3.018,5.446-4.453,2.164-1.675,3.551-1.4,5.049.957.754,1.184,1.451,2.406,2.139,3.63a3.305,3.305,0,0,1-.636,4.551,2.989,2.989,0,0,1-4.182-1.627c-.672-1.34-1.252-1.19-2.281-.336q-16.226,13.465-32.54,26.826c-1.293,1.055-1.1,1.849-.386,3.048,1.967,3.3,3.773,6.692,5.781,9.963,1.044,1.7,1.068,3.128-.351,4.544-2.137.953-3.535.18-4.613-1.783-1.761-3.206-3.66-6.335-5.464-9.518-.615-1.085-1.19-1.884-2.6-1.026-2.726,1.653-5.57,3.118-8.24,4.854a5.52,5.52,0,0,0-1.895,7.662q2.533,4.7,5.345,9.258c1.912,3.1,4.787,3.9,7.973,2.136,4.016-2.224,7.932-4.626,11.891-6.952,5.538-2.006,11.09-3.976,16.611-6.028,9.615-3.574,19.211-7.2,28.984-10.863-4-6.934-7.834-13.7-11.811-20.375-1.2-2.01-1.307-3.621.572-5.155m-31.954,48a17.675,17.675,0,0,0-3.611,2.274c-.739.736.353,1.706.764,2.467,1.333,2.476,2.733,4.921,4.224,7.3a2.569,2.569,0,0,0,3.872.954,2.506,2.506,0,0,0,.955-3.652c-1.634-2.846-3.332-5.655-5.021-8.469-.226-.375-.366-.9-1.183-.879M43.667,174.45c1.174-.453,3.17-.532,2.982-2.176-.162-1.413-.786-3.715-2.6-3.693a3.191,3.191,0,0,0-3.222,3.244c.051,1.667,1.174,2.418,2.84,2.625" transform="translate(-15.306 -47.932)" fill="#03386e"/>
        <path id="Trazado_609777" data-name="Trazado 609777" d="M130.824,130.656c-1.879,1.533-1.769,3.144-.572,5.155,3.977,6.677,7.806,13.441,11.811,20.375-9.773,3.666-19.369,7.29-28.984,10.863-5.521,2.052-11.073,4.021-16.611,6.027q-1.2-2.316-2.394-4.631c1.419-1.416,1.394-2.844.351-4.545-2.008-3.271-3.814-6.665-5.781-9.962-.716-1.2-.906-1.993.386-3.048q16.332-13.337,32.54-26.826c1.028-.853,1.609-1,2.281.336a2.988,2.988,0,0,0,4.182,1.627q1.394,2.315,2.791,4.629" transform="translate(-38.396 -53.795)" fill="#3085cc"/>
        <path id="Trazado_609778" data-name="Trazado 609778" d="M262.2,192.567q0,2.736,0,5.473c-2.133.409-2.934,1.772-2.832,3.851.055,1.123-.006,2.252-.027,3.378-.061,3.3-.84,4.084-4.215,4.089q-15.488.022-30.975,0c-3.365-.005-4.187-.8-4.192-4.1q-.026-15.631,0-31.261c.006-3.174.824-4.006,3.991-4.017q15.769-.054,31.537-.036c2.98,0,3.86.887,3.882,3.846.036,4.975.052,9.951-.009,14.926-.026,2.081.713,3.438,2.84,3.855m-11.282-3.013a11.272,11.272,0,1,0-22.542.247,11.161,11.161,0,0,0,11.366,11.137,11.3,11.3,0,0,0,11.176-11.384" transform="translate(-95.874 -74.076)" fill="#ff7b08"/>
        <path id="Trazado_609779" data-name="Trazado 609779" d="M212.595,21.893c-2.153-.408-2.7-1.82-2.831-3.867-.622-9.878,2.62-13.6,12.81-13.2,9.468.375,18.964.068,28.447.084,6.191.011,9.514,3.361,9.521,9.6q.02,15.776,0,31.553c-.008,6.232-3.335,9.582-9.531,9.591q-15.915.024-31.83,0c-6-.012-9.353-3.413-9.374-9.463-.017-4.977.036-9.955-.023-14.931-.024-2.063.653-3.464,2.81-3.865,2.15.379,2.889,1.748,2.866,3.823-.052,4.786-.025,9.573-.013,14.36.01,3.7.737,4.433,4.439,4.437q14.779.014,29.56,0c5.145,0,5.61-.491,5.378-5.672q.04-15.174.08-30.348c.007-2.309-1.128-3.455-3.445-3.448q-15.172.047-30.343.081c-5.168-.234-5.669.232-5.671,5.27,0,.743-.031,1.487,0,2.228.1,2.062-.743,3.39-2.854,3.767" transform="translate(-91.406 -2.091)" fill="#03386e"/>
        <path id="Trazado_609780" data-name="Trazado 609780" d="M257.809,188.2c-2.126-.417-2.866-1.774-2.84-3.855.061-4.975.045-9.951.01-14.926-.021-2.959-.9-3.842-3.882-3.846q-15.769-.019-31.537.036c-3.167.011-3.985.843-3.99,4.017q-.03,15.631,0,31.261c.006,3.3.827,4.1,4.192,4.1q15.488.022,30.975,0c3.376,0,4.155-.786,4.215-4.089.021-1.126.081-2.255.027-3.378-.1-2.08.7-3.442,2.832-3.851,2.138.407,2.729,1.792,2.858,3.85.619,9.9-2.622,13.63-12.793,13.23-9.472-.373-18.969-.068-28.455-.084-6.195-.011-9.523-3.364-9.531-9.595q-.019-15.78,0-31.562c.008-6.234,3.332-9.577,9.536-9.586q15.92-.023,31.839,0c5.894.012,9.323,3.389,9.358,9.2.031,5.072-.034,10.145.027,15.217.025,2.08-.708,3.443-2.839,3.857" transform="translate(-91.488 -69.707)" fill="#03386e"/>
        <path id="Trazado_609781" data-name="Trazado 609781" d="M0,75.2c0-7.038-.014-14.076.006-21.114.01-3.31.82-4.109,4.175-4.113q15.622-.022,31.244,0c3.176.006,4.031.839,4.035,3.971q.027,21.4,0,42.791c0,3.13-.863,3.97-4.035,3.975q-15.622.028-31.244,0C.837,100.707.02,99.9.011,96.595-.009,89.463,0,82.331,0,75.2m33.791.432h.037c0-5.916-.042-11.832.028-17.747.019-1.565-.184-2.351-2.087-2.322-8.072.12-16.148.1-24.221.052-1.5-.01-1.9.484-1.9,1.935Q5.727,75.3,5.647,93.043c-.009,1.643.539,2.041,2.1,2.028,7.98-.067,15.961-.089,23.94.012,1.827.024,2.172-.624,2.147-2.27-.086-5.727-.033-11.455-.033-17.183" transform="translate(0 -21.778)" fill="#03386e"/>
        <path id="Trazado_609782" data-name="Trazado 609782" d="M105.25,0A25.372,25.372,0,1,1,79.968,25.526,25.381,25.381,0,0,1,105.25,0m-.068,45.083A19.723,19.723,0,1,0,85.627,25.2a19.758,19.758,0,0,0,19.555,19.883" transform="translate(-34.859 0)" fill="#3a529d"/>
        <path id="Trazado_609783" data-name="Trazado 609783" d="M214.839,26.363c2.111-.377,2.953-1.7,2.854-3.767-.036-.741-.005-1.485,0-2.228,0-5.038.5-5.5,5.671-5.27-.011,4.116-.268,8.252.045,12.343.261,3.394.3,7.06,3.359,9.552l-.036-.018c.391,3.171,2.814,4.842,4.957,6.72.261,1.755-.408,3.874,1.83,4.867,1.7.754,2.813-.2,3.819-1.4,6.4,2.666,13.13,1.422,19.735,1.653.232,5.181-.233,5.671-5.378,5.672q-14.779,0-29.56,0c-3.7,0-4.43-.737-4.439-4.437-.012-4.787-.039-9.574.013-14.36.023-2.076-.715-3.444-2.866-3.823v-5.5" transform="translate(-93.65 -6.561)" fill="#57b6ea"/>
        <path id="Trazado_609784" data-name="Trazado 609784" d="M122.719,228.736c2.435-3.831,2.2-7.558-.3-11.295-1.195-1.788-2.137-3.742-3.264-5.578-.708-1.154-.911-1.807.746-2.4,7.313-2.6,14.572-5.364,21.85-8.068q.1,2.624.2,5.249c-2.285.446-2.886,1.975-2.873,4.112.037,5.986-.032,11.972-.059,17.957l-16.3.019" transform="translate(-51.714 -87.791)" fill="#a9e0f8"/>
        <path id="Trazado_609785" data-name="Trazado 609785" d="M67.236,160.017c-4.576,4.864-10.519,7.729-16.206,10.925-4.786,2.689-7.458,6.409-6.995,12.035.239,2.908-2.367,2.892-3.949,3.938q-.018-12.052-.033-24.1c4.661-.027,9.322-.083,13.982-.068,2.023.007,3.512-.523,3.64-2.861l9.561.135" transform="translate(-17.459 -69.694)" fill="#a9e0f8"/>
        <path id="Trazado_609786" data-name="Trazado 609786" d="M203.183,143.374c-2.4,0-3.585-.886-3.768-2.592a2.672,2.672,0,0,1,2.369-3.006c4.755-.983,9.516-1.947,14.291-2.832a2.6,2.6,0,0,1,3.232,2c.416,1.547-.091,3.019-1.671,3.39-5,1.172-10.043,2.126-14.453,3.036" transform="translate(-86.918 -58.795)" fill="#03386e"/>
        <path id="Trazado_609787" data-name="Trazado 609787" d="M172.758,96.81a2.694,2.694,0,0,1-2.371-4.166c2.748-4.009,5.707-7.879,8.7-11.714a2.771,2.771,0,0,1,4.417,3.327c-2.848,3.943-5.787,7.82-8.74,11.685a2.431,2.431,0,0,1-2,.868" transform="translate(-74.069 -34.817)" fill="#03386e"/>
        <path id="Trazado_609788" data-name="Trazado 609788" d="M201.78,107.46a3.226,3.226,0,0,1-1.405,2.82c-3.518,2.639-7.016,5.307-10.548,7.927-1.563,1.159-3.185,1.312-4.4-.441-1.125-1.627-.449-3.012,1.006-4.107,3.515-2.644,7.024-5.3,10.55-7.923a2.88,2.88,0,0,1,4.794,1.724" transform="translate(-80.584 -45.76)" fill="#03386e"/>
        <path id="Trazado_609789" data-name="Trazado 609789" d="M33.444,164.95q.016,12.052.033,24.1c-3.8,5.508-3.759,9.379.106,12.946,2.251,2.079,4.909,2.439,7.792,1.9,2.3,3.1,5.544,4.93,8.928,6.552,5.785,2.775,11.981,2.391,18.134,2.319,4.927,4.087,8.407,4.088,13.419,0l16.3-.019c.024,2.7,1.139,6.083-.413,7.9-1.511,1.771-4.954.552-7.537.559-20.727.055-41.455-.012-62.182.088-2.457.012-3.153-.585-3.135-3.1q.177-25.185.012-50.372c-.012-2.271.491-3.276,2.92-3,1.855.208,3.746.09,5.62.117" transform="translate(-10.85 -71.833)" fill="#57b6ea"/>
        <path id="Trazado_609790" data-name="Trazado 609790" d="M55.074,274.762c14.093,0,28.188.073,42.279-.067,2.517-.025,2.958.825,2.8,3.031a8.6,8.6,0,0,1-8.272,8.354c-1.124.059-2.265-.082-3.379.039-1.838.2-2.793-.227-2.58-2.373a2.633,2.633,0,0,0-2.736-3.2c-1.964-.021-2.93,1.309-2.771,3.147.177,2.049-.617,2.453-2.531,2.443q-22.971-.116-45.944-.009c-1.75.007-2.578-.335-2.388-2.287.176-1.813-.672-3.234-2.638-3.289-2.119-.06-3.067,1.378-2.881,3.328.192,2.018-.733,2.377-2.429,2.232-1.953-.166-3.929.191-5.868-.45a8.938,8.938,0,0,1-5.9-9.776c.315-1.726,1.537-1.071,2.388-1.076,9.395-.055,18.791-.045,28.187-.05q7.328,0,14.657,0" transform="translate(-4.236 -119.741)" fill="#03386e"/>
        <path id="Trazado_609791" data-name="Trazado 609791" d="M80.448,193.444q1.2,2.315,2.394,4.631c-3.96,2.326-7.876,4.728-11.892,6.952-3.186,1.764-6.061.968-7.973-2.136q-2.8-4.551-5.345-9.258a5.52,5.52,0,0,1,1.895-7.662c2.67-1.736,5.514-3.2,8.24-4.853,1.415-.859,1.99-.06,2.6,1.026,1.8,3.183,3.7,6.313,5.463,9.518,1.079,1.964,2.476,2.736,4.613,1.783" transform="translate(-24.77 -78.792)" fill="#f49a8c"/>
        <path id="Trazado_609792" data-name="Trazado 609792" d="M81.176,241.633c-6.153.071-12.349.456-18.134-2.319-3.384-1.623-6.626-3.451-8.928-6.552a7.118,7.118,0,0,0,1.269-.573c2.16-1.525,3.988-1.671,6.427.02,3.56,2.468,7.529,1.761,11.1-.427,1.577-.967,2.318-.868,3.184.836,1.561,3.073,3.376,6.017,5.085,9.015" transform="translate(-23.589 -100.691)" fill="#a9e0f8"/>
        <path id="Trazado_609793" data-name="Trazado 609793" d="M104.222,221.352c.817-.018.957.5,1.183.879,1.689,2.814,3.387,5.623,5.022,8.469a2.508,2.508,0,0,1-.955,3.652,2.569,2.569,0,0,1-3.873-.954c-1.491-2.384-2.891-4.829-4.224-7.3-.41-.762-1.5-1.732-.764-2.468a17.7,17.7,0,0,1,3.611-2.274" transform="translate(-43.748 -96.489)" fill="#f49a8c"/>
        <path id="Trazado_609794" data-name="Trazado 609794" d="M48.08,219.75c-1.666-.207-2.789-.958-2.84-2.625a3.191,3.191,0,0,1,3.222-3.244c1.815-.023,2.439,2.28,2.6,3.693.188,1.644-1.807,1.723-2.982,2.176" transform="translate(-19.72 -93.232)" fill="#f49a8c"/>
        <path id="Trazado_609795" data-name="Trazado 609795" d="M257.428,196.089a11.3,11.3,0,0,1-11.176,11.383,11.16,11.16,0,0,1-11.366-11.136,11.272,11.272,0,1,1,22.542-.247m-10.017-5.168c-2.764-.891-4.741.267-6.108,2.555a5.555,5.555,0,0,0,7.577,7.577c2.281-1.37,3.451-3.343,2.55-6.109a4.419,4.419,0,0,0-4.019-4.023" transform="translate(-102.389 -80.611)" fill="#3a529d"/>
        <path id="Trazado_609796" data-name="Trazado 609796" d="M263.569,48.785c-6.6-.231-13.333,1.014-19.735-1.652.029-2.529.111-5.058.066-7.585-.023-1.32.164-2.162,1.8-2.024,1.979.166,3.739-.431,3.769-2.731.033-2.489-1.825-3-3.907-2.881-1.177.069-1.625-.33-1.667-1.579-.095-2.8.883-3.98,3.7-4.059,1.685-.047,3.382.08,5.053-.087a2.575,2.575,0,0,0,2.488-2.862,2.565,2.565,0,0,0-2.449-2.621,38.484,38.484,0,0,0-4.21-.075c-6.831,0-9.808,2.732-10.164,9.452-.065,1.235-.279,1.776-1.693,1.866-3.878.247-4.494,1.275-3.351,5.019-3.06-2.493-3.1-6.158-3.359-9.552-.314-4.091-.056-8.227-.045-12.343q15.171-.039,30.342-.081c2.317-.007,3.452,1.138,3.446,3.448q-.043,15.174-.08,30.348" transform="translate(-100.15 -6.534)" fill="#a9e0f8"/>
        <path id="Trazado_609797" data-name="Trazado 609797" d="M38.16,79.959c0,5.728-.053,11.456.033,17.183.025,1.645-.32,2.293-2.147,2.27-7.979-.1-15.96-.08-23.94-.012-1.556.013-2.1-.386-2.1-2.028q.1-17.747.007-35.494c-.006-1.451.4-1.944,1.9-1.935,8.073.053,16.149.068,24.221-.052,1.9-.028,2.105.757,2.087,2.322-.069,5.915-.028,11.831-.028,17.747ZM24.343,82.476c1.775,0,3.553.067,5.324-.019a2.791,2.791,0,1,0-.087-5.579q-5.464-.08-10.93,0a2.684,2.684,0,0,0-2.967,2.707c-.064,1.953,1.225,2.828,3.055,2.885,1.867.058,3.737.013,5.605.008m-.16,11.317c1.78,0,3.561.045,5.338-.012,1.732-.055,2.915-.966,2.962-2.728.052-1.929-1.174-2.881-3.043-2.906q-5.337-.071-10.677-.036c-1.864.012-3.109.944-3.083,2.875s1.313,2.784,3.164,2.807c1.779.021,3.559,0,5.339,0m2.7-22.595c.931,0,1.865.058,2.791-.012,1.724-.13,2.837-1.062,2.814-2.827a2.65,2.65,0,0,0-2.88-2.758c-1.859-.063-3.725-.082-5.581.021a2.588,2.588,0,0,0-2.677,2.664,2.664,2.664,0,0,0,2.744,2.892c.922.086,1.859.015,2.79.02" transform="translate(-4.364 -26.106)" fill="#fff"/>
        <path id="Trazado_609798" data-name="Trazado 609798" d="M109.555,49.439a19.723,19.723,0,1,1,19.883-19.558,19.753,19.753,0,0,1-19.883,19.558m-8.3-19.769h-.014c0,2.718-.087,5.439.024,8.152.114,2.751,1.938,3.875,4.417,2.674,5.389-2.609,10.72-5.341,16.077-8.017a3.007,3.007,0,0,0,1.981-2.808,3.1,3.1,0,0,0-2.077-2.749c-5.278-2.627-10.524-5.32-15.83-7.887-2.651-1.282-4.454-.162-4.56,2.763-.094,2.62-.02,5.247-.02,7.871" transform="translate(-39.231 -4.357)" fill="#ff1800"/>
        <path id="Trazado_609799" data-name="Trazado 609799" d="M235.582,41.308c-1.143-3.744-.526-4.772,3.351-5.019,1.415-.09,1.628-.631,1.693-1.866.356-6.72,3.333-9.451,10.164-9.452a38.483,38.483,0,0,1,4.21.075,2.565,2.565,0,0,1,2.449,2.621,2.574,2.574,0,0,1-2.488,2.862c-1.67.167-3.368.041-5.052.087-2.818.08-3.8,1.259-3.7,4.06.042,1.249.491,1.648,1.667,1.578,2.082-.122,3.94.391,3.907,2.881-.03,2.3-1.79,2.9-3.769,2.73-1.632-.137-1.819.7-1.8,2.024.045,2.528-.037,5.057-.066,7.585-1.006,1.2-2.12,2.157-3.819,1.4-2.237-.993-1.568-3.112-1.829-4.866,0-1.856.5-3.911-.134-5.511-.58-1.454-2.961-.107-4.281-1.13-.126-.1-.359-.056-.543-.079Z" transform="translate(-102.468 -10.876)" fill="#03386e"/>
        <path id="Trazado_609800" data-name="Trazado 609800" d="M235.915,53.917c.183.023.417-.018.543.079,1.32,1.023,3.7-.324,4.281,1.13.639,1.6.138,3.655.134,5.511-2.144-1.878-4.566-3.55-4.958-6.72" transform="translate(-102.837 -23.503)" fill="#a9e0f8"/>
        <path id="Trazado_609801" data-name="Trazado 609801" d="M255.737,199.345c.9,2.766-.268,4.739-2.55,6.109a5.555,5.555,0,0,1-7.577-7.577c1.367-2.288,3.344-3.446,6.108-2.554-1.346,1.366-1.843,2.924-.373,4.395s3.028.976,4.391-.372" transform="translate(-106.696 -85.011)" fill="#57b6ea"/>
        <path id="Trazado_609802" data-name="Trazado 609802" d="M260.13,199.578c-1.363,1.348-2.921,1.844-4.391.372s-.973-3.029.373-4.395a4.417,4.417,0,0,1,4.019,4.023" transform="translate(-111.089 -85.244)" fill="#a9e0f8"/>
        <path id="Trazado_609803" data-name="Trazado 609803" d="M28.724,95.577c-1.868,0-3.738.048-5.605-.01-1.829-.057-3.118-.932-3.055-2.885a2.683,2.683,0,0,1,2.967-2.707q5.464-.07,10.93,0a2.791,2.791,0,1,1,.087,5.579c-1.771.086-3.549.019-5.324.021" transform="translate(-8.745 -39.205)" fill="#03386e"/>
        <path id="Trazado_609804" data-name="Trazado 609804" d="M28.563,115.594c-1.78,0-3.559.019-5.339,0-1.851-.023-3.137-.873-3.164-2.807s1.219-2.862,3.083-2.875q5.337-.036,10.677.035c1.869.025,3.1.978,3.043,2.907-.047,1.762-1.23,2.673-2.962,2.728-1.777.056-3.558.012-5.338.015" transform="translate(-8.744 -47.905)" fill="#03386e"/>
        <path id="Trazado_609805" data-name="Trazado 609805" d="M35.644,75.569c-.931,0-1.868.068-2.79-.017a2.664,2.664,0,0,1-2.744-2.893A2.588,2.588,0,0,1,32.787,70c1.856-.1,3.722-.083,5.581-.021a2.65,2.65,0,0,1,2.88,2.758c.023,1.766-1.09,2.7-2.814,2.827-.925.07-1.86.012-2.791.01" transform="translate(-13.124 -30.48)" fill="#03386e"/>
        <path id="Trazado_609806" data-name="Trazado 609806" d="M109.922,36.252c0-2.624-.075-5.251.02-7.871.105-2.925,1.908-4.046,4.559-2.763,5.306,2.567,10.552,5.26,15.83,7.887a3.1,3.1,0,0,1,2.077,2.749,3,3,0,0,1-1.981,2.808c-5.358,2.675-10.688,5.407-16.078,8.017-2.479,1.2-4.3.077-4.417-2.674-.112-2.713-.024-5.434-.024-8.152h.014m5.7,3.8a38.958,38.958,0,0,0,7.436-3.928l-7.436-3.6Z" transform="translate(-47.895 -10.938)" fill="#3a529d"/>
        <path id="Trazado_609807" data-name="Trazado 609807" d="M120.061,45.8v-7.53l7.436,3.6a38.958,38.958,0,0,1-7.436,3.928" transform="translate(-52.336 -16.681)" fill="#fff"/>
      </g>
    </g>
  </g>
</svg>
