<svg xmlns="http://www.w3.org/2000/svg" width="85" height="85" viewBox="0 0 85 85">
  <g id="Group_1074017" data-name="Group 1074017" transform="translate(-285 -24717)">
    <circle id="Ellipse_5866" data-name="Ellipse 5866" cx="42.5" cy="42.5" r="42.5" transform="translate(285 24717)" fill="#0c5e46"/>
    <g id="compras" transform="translate(301 24733)">
      <g id="mobilephone_路_ecommerce_路_shopping_路_buy_路_cart">
        <path id="Path_612670" data-name="Path 612670" d="M112.9,25.8h.9a.9.9,0,0,0,0-1.8h-.9a.9.9,0,1,0,0,1.8Z" transform="translate(-99.4 -21.3)" fill="#fff"/>
        <path id="Path_612671" data-name="Path 612671" d="M152.9,25.8h.9a.9.9,0,1,0,0-1.8h-.9a.9.9,0,0,0,0,1.8Z" transform="translate(-134.9 -21.3)" fill="#fff"/>
        <path id="Path_612672" data-name="Path 612672" d="M53.1,9H32.4V4.5A4.5,4.5,0,0,0,27.9,0H4.5A4.5,4.5,0,0,0,0,4.5V45a4.5,4.5,0,0,0,4.5,4.5H21.6v3.6a.9.9,0,0,0,.9.9h18a.9.9,0,0,0,.9-.9V47.7a.9.9,0,0,0-.9-.9h-.9v-.351a.92.92,0,0,1,.153-.5l.585-.882a6.3,6.3,0,0,0,1.062-3.5V32.4H53.1a.9.9,0,0,0,.9-.9V9.9A.9.9,0,0,0,53.1,9ZM1.8,4.5A2.708,2.708,0,0,1,4.5,1.8H27.9a2.708,2.708,0,0,1,2.7,2.7v.9H1.8Zm0,2.7H30.6V9H27.9a.9.9,0,0,0-.9.9V19.971A2.811,2.811,0,0,0,25.2,22.6v8h-.9a2.708,2.708,0,0,0-2.7,2.7v7.2H1.8ZM21.6,47.7H4.5A2.708,2.708,0,0,1,1.8,45V42.3H21.654a6.306,6.306,0,0,0,1.008,2.763l.585.882a.92.92,0,0,1,.153.5V46.8h-.9A.9.9,0,0,0,21.6,47.7Zm18,4.5H23.4V48.6H39.6Zm0-10.638a4.514,4.514,0,0,1-.756,2.5l-.594.882a2.7,2.7,0,0,0-.45,1.5V46.8H25.2v-.351a2.7,2.7,0,0,0-.45-1.5l-.594-.882a4.514,4.514,0,0,1-.756-2.5V33.3a.9.9,0,0,1,.9-.9h.9v4.5a.9.9,0,1,0,1.8,0V22.6a.983.983,0,0,1,.819-1,.886.886,0,0,1,.72.279.835.835,0,0,1,.261.621V33.3a.9.9,0,0,0,1.8,0V28.8a.9.9,0,0,1,.9-.9.854.854,0,0,1,.639.279.835.835,0,0,1,.261.621v4.5a.9.9,0,0,0,1.8,0V29.7a.9.9,0,0,1,.9-.9.854.854,0,0,1,.639.279A.835.835,0,0,1,36,29.7v3.6a.9.9,0,0,0,1.8,0V31.5a.9.9,0,0,1,.9-.9.854.854,0,0,1,.639.279.835.835,0,0,1,.261.621ZM52.2,30.6H41.238a2.675,2.675,0,0,0-.621-1,2.755,2.755,0,0,0-2.907-.612,2.647,2.647,0,0,0-.693-1.188,2.776,2.776,0,0,0-3.24-.45,2.469,2.469,0,0,0-.36-.45,2.759,2.759,0,0,0-2.817-.648V22.5a2.658,2.658,0,0,0-.783-1.9,2.743,2.743,0,0,0-1.017-.639V10.8H52.2Z" fill="#fff"/>
        <path id="Path_612673" data-name="Path 612673" d="M49.8,248h-.9a.9.9,0,1,0,0,1.8h.9a.9.9,0,1,0,0-1.8Z" transform="translate(-42.6 -220.1)" fill="#fff"/>
        <path id="Path_612674" data-name="Path 612674" d="M97.9,248h-9a.9.9,0,1,0,0,1.8h9a.9.9,0,0,0,0-1.8Z" transform="translate(-78.1 -220.1)" fill="#fff"/>
        <path id="Path_612675" data-name="Path 612675" d="M49.8,280h-.9a.9.9,0,0,0,0,1.8h.9a.9.9,0,0,0,0-1.8Z" transform="translate(-42.6 -248.5)" fill="#fff"/>
        <path id="Path_612676" data-name="Path 612676" d="M96.1,280H88.9a.9.9,0,0,0,0,1.8h7.2a.9.9,0,0,0,0-1.8Z" transform="translate(-78.1 -248.5)" fill="#fff"/>
        <path id="Path_612677" data-name="Path 612677" d="M49.8,312h-.9a.9.9,0,1,0,0,1.8h.9a.9.9,0,1,0,0-1.8Z" transform="translate(-42.6 -276.9)" fill="#fff"/>
        <path id="Path_612678" data-name="Path 612678" d="M96.1,312H88.9a.9.9,0,1,0,0,1.8h7.2a.9.9,0,0,0,0-1.8Z" transform="translate(-78.1 -276.9)" fill="#fff"/>
        <circle id="Ellipse_5868" data-name="Ellipse 5868" cx="1.676" cy="1.676" r="1.676" transform="translate(37.057 22.69)" fill="#fff"/>
        <ellipse id="Ellipse_5869" data-name="Ellipse 5869" cx="1.916" cy="1.676" rx="1.916" ry="1.676" transform="translate(41.367 22.69)" fill="#fff"/>
        <path id="Path_612679" data-name="Path 612679" d="M304.9,121.8h1.005l.125,1v.026l.673,5.386a.9.9,0,0,0,.9.788h6.3a.9.9,0,0,0,.854-.616l1.8-5.4a.9.9,0,0,0-.854-1.184h-7.98l-.127-1.012A.9.9,0,0,0,306.7,120h-1.8a.9.9,0,1,0,0,1.8Zm9.552,1.8-1.2,3.6h-4.86l-.45-3.6Z" transform="translate(-269.8 -106.5)" fill="#fff"/>
        <path id="Path_612680" data-name="Path 612680" d="M124.5,392h-3.6a.9.9,0,0,0,0,1.8h3.6a.9.9,0,0,0,0-1.8Z" transform="translate(-106.5 -347.9)" fill="#fff"/>
        <path id="Path_612681" data-name="Path 612681" d="M81.32,96.927l-3.585-.9A.891.891,0,0,0,77.516,96H75.7a.9.9,0,0,0-.9.9,1.8,1.8,0,0,1-3.6,0,.9.9,0,0,0-.9-.9H68.478a.9.9,0,0,0-.22.027l-3.577.9A.9.9,0,0,0,64,97.8v3.6a.9.9,0,0,0,1.119.873l2.481-.62V109.5a.9.9,0,0,0,.9.9h9a.9.9,0,0,0,.9-.9v-7.847l2.481.62A.9.9,0,0,0,82,101.4V97.8A.9.9,0,0,0,81.32,96.927Zm-1.12,3.32-2.481-.62a.9.9,0,0,0-1.119.873v8.1H69.4v-8.1a.9.9,0,0,0-1.119-.873l-2.481.62V98.5l2.79-.7h.924a3.6,3.6,0,0,0,6.973,0h.918l2.795.7Z" transform="translate(-56.8 -85.2)" fill="#fff"/>
      </g>
    </g>
  </g>
</svg>
