<svg xmlns="http://www.w3.org/2000/svg" width="85" height="85" viewBox="0 0 85 85">
  <g id="Group_1074016" data-name="Group 1074016" transform="translate(-285 -24821)">
    <circle id="Ellipse_5867" data-name="Ellipse 5867" cx="42.5" cy="42.5" r="42.5" transform="translate(285 24821)" fill="#0c5e46"/>
    <g id="medios-de-comunicacion-en-masa" transform="translate(301 24837)">
      <circle id="Ellipse_5870" data-name="Ellipse 5870" cx="1" cy="1" r="1" transform="translate(23 21)" fill="#fff"/>
      <circle id="Ellipse_5871" data-name="Ellipse 5871" cx="1" cy="1" r="1" transform="translate(28 21)" fill="#fff"/>
      <path id="Path_612682" data-name="Path 612682" d="M50.435,44.452H48.4l-1.035-2.07a2.41,2.41,0,0,0-1.2-1.121V35.048A2.568,2.568,0,0,0,43.6,32.484H39.484A13.609,13.609,0,0,0,36.42,18.807a10.279,10.279,0,0,0-7.356-7.357V7.694a.856.856,0,0,1,.855-.855h7.744a7.726,7.726,0,1,0,.4-1.71H29.919a2.568,2.568,0,0,0-2.565,2.565v3.463c-.283-.024-.566-.044-.855-.044s-.572.02-.855.044V7.694a2.568,2.568,0,0,0-2.565-2.565H11.968V2.565A2.568,2.568,0,0,0,9.4,0H2.565A2.568,2.568,0,0,0,0,2.565V14.532A2.568,2.568,0,0,0,2.565,17.1H9.4a2.568,2.568,0,0,0,2.565-2.565V6.839H23.081a.856.856,0,0,1,.855.855v3.757a10.278,10.278,0,0,0-7.356,7.357,13.588,13.588,0,0,0-3.757,9.4c0,.289.026.571.044.855H10.258a2.568,2.568,0,0,0-2.565,2.565v2.565H2.565A2.568,2.568,0,0,0,0,36.758V47.016a2.568,2.568,0,0,0,2.565,2.565H5.129v1.71H3.419V53H15.387V51.29h-1.71v-1.71h2.565a2.568,2.568,0,0,0,2.565-2.565V39.509A13.642,13.642,0,0,0,38.78,34.194H43.6a.856.856,0,0,1,.855.855v6.108a2.435,2.435,0,0,0-1.71,2.316v.98H40.177a2.568,2.568,0,0,0-2.565,2.565v3.419A2.568,2.568,0,0,0,40.177,53H50.435A2.568,2.568,0,0,0,53,50.435V47.016a2.568,2.568,0,0,0-2.565-2.565ZM41.92,8.548a11.176,11.176,0,0,0,.264,1.71H39.908a5.93,5.93,0,0,1-.517-1.71Zm4.745-3.419a9.586,9.586,0,0,1,.309,1.71H43.64a9.586,9.586,0,0,1,.309-1.71Zm-2.058-1.71a9.66,9.66,0,0,1,.7-1.192,9.66,9.66,0,0,1,.7,1.192Zm2.367,5.129a9.586,9.586,0,0,1-.309,1.71H43.949a9.586,9.586,0,0,1-.309-1.71Zm-.969,3.419a9.659,9.659,0,0,1-.7,1.193,9.553,9.553,0,0,1-.7-1.193Zm-3.282,0a11.323,11.323,0,0,0,.685,1.4,5.991,5.991,0,0,1-2.282-1.4Zm5.165,0h1.6a5.981,5.981,0,0,1-2.282,1.4A11.446,11.446,0,0,0,47.889,11.968Zm.54-1.71a11.174,11.174,0,0,0,.264-1.71h2.529a5.93,5.93,0,0,1-.517,1.71Zm.264-3.419a11.175,11.175,0,0,0-.264-1.71H50.7a5.93,5.93,0,0,1,.517,1.71Zm-.8-3.419a11.323,11.323,0,0,0-.685-1.4,5.991,5.991,0,0,1,2.282,1.4Zm-5.165,0h-1.6a5.981,5.981,0,0,1,2.282-1.4,11.446,11.446,0,0,0-.685,1.4Zm-.54,1.71a11.174,11.174,0,0,0-.264,1.71H39.391a5.93,5.93,0,0,1,.517-1.71ZM2.565,1.71H9.4a.856.856,0,0,1,.855.855v.855H1.71V2.565A.856.856,0,0,1,2.565,1.71Zm7.694,3.419v6.839H1.71V5.129ZM9.4,15.387H2.565a.856.856,0,0,1-.855-.855v-.855h8.548v.855A.856.856,0,0,1,9.4,15.387Zm8.548,5.984a8.548,8.548,0,0,1,17.1,0v7.694a5.951,5.951,0,0,1-1.1,3.448,6.06,6.06,0,0,0-2.806-3.531,5.114,5.114,0,0,0,2.2-4.191V20.516a2.568,2.568,0,0,0-2.565-2.565H29.582a9.3,9.3,0,0,1-5.173-1.566l-.932-.621-.4,1.194a2.7,2.7,0,0,1-2.565,1.848h-.855V24.79a5.11,5.11,0,0,0,2.2,4.19,6.061,6.061,0,0,0-2.806,3.532,5.951,5.951,0,0,1-1.1-3.448Zm7.694,17.952v-.855a2.548,2.548,0,0,0,1.71-.667v1.522a.855.855,0,1,1-1.71,0ZM26.5,35.9a.856.856,0,0,1-.855.855H24.79v-1.71h.855A.856.856,0,0,1,26.5,35.9Zm-.85-2.564H23.935v-.855a.856.856,0,0,1,.855-.855H28.21a.856.856,0,0,1,.855.855v.855Zm-.68-4.115a1.723,1.723,0,0,1-.18-.765v-.25a1.71,1.71,0,1,1,3.419,0v.25a1.724,1.724,0,0,1-.18.765l-.348.695H25.319Zm4.9-1.452a3.4,3.4,0,0,0-6.75,0,3.414,3.414,0,0,1-1.754-2.983V20.433a4.41,4.41,0,0,0,2.956-2.1,10.985,10.985,0,0,0,5.255,1.332h1.193a.856.856,0,0,1,.855.855V24.79A3.414,3.414,0,0,1,29.875,27.773ZM23.51,30.125l.059.119a2.555,2.555,0,0,0-1.343,2.241v.855a1.7,1.7,0,0,0,.032.311l-1.269.634.765,1.529,1.327-.664v1.609h-.855a1.711,1.711,0,0,1-1.71-1.71v-.855a4.3,4.3,0,0,1,2.994-4.069Zm5.555,4.924a1.711,1.711,0,0,0,1.71-1.71v-.855a2.555,2.555,0,0,0-1.343-2.241l.059-.119a4.3,4.3,0,0,1,2.994,4.069v.855a1.711,1.711,0,0,1-1.71,1.71h-1.71ZM16.242,22.064v7a7.651,7.651,0,0,0,2.565,5.719v.265a3.423,3.423,0,0,0,3.419,3.419h1.71v.855a2.541,2.541,0,0,0,.075.591,11.948,11.948,0,0,1-7.769-17.849ZM9.4,31.629a.856.856,0,0,1,.855-.855h2.814a13.56,13.56,0,0,0,1.148,3.419H9.4ZM11.968,51.29H6.839v-1.71h5.129Zm4.274-3.419H2.565a.856.856,0,0,1-.855-.855v-.855H17.1v.855A.856.856,0,0,1,16.242,47.871Zm.855-3.419H1.71V36.758a.856.856,0,0,1,.855-.855H15.2a13.786,13.786,0,0,0,1.9,2.213Zm11.893-4.538a2.541,2.541,0,0,0,.075-.591v-.855h1.71a3.423,3.423,0,0,0,3.419-3.419v-.265a7.65,7.65,0,0,0,2.565-5.719v-7a11.948,11.948,0,0,1-7.769,17.849Zm22.3,10.522a.856.856,0,0,1-.855.855H40.177a.856.856,0,0,1-.855-.855V47.016a.856.856,0,0,1,.855-.855h4.274V43.472a.73.73,0,0,1,1.383-.326l1.508,3.015h3.093a.856.856,0,0,1,.855.855Z" fill="#fff"/>
      <path id="Path_612683" data-name="Path 612683" d="M52,56h1.71v1.71H52Z" transform="translate(-7.548 -8.129)" fill="#fff"/>
      <path id="Path_612684" data-name="Path 612684" d="M56,56h1.71v1.71H56Z" transform="translate(-8.129 -8.129)" fill="#fff"/>
      <path id="Path_612685" data-name="Path 612685" d="M48,56h1.71v1.71H48Z" transform="translate(-6.968 -8.129)" fill="#fff"/>
      <path id="Path_612686" data-name="Path 612686" d="M28.878,59.756l1.21,1.209a.872.872,0,0,1,1.208,0l1.21-1.209a2.627,2.627,0,0,0-3.627,0Z" transform="translate(-4.192 -8.569)" fill="#fff"/>
      <path id="Path_612687" data-name="Path 612687" d="M26.05,56.753l1.209,1.209a4.274,4.274,0,0,1,6.045,0l1.209-1.209a5.983,5.983,0,0,0-8.463,0Z" transform="translate(-3.781 -7.984)" fill="#fff"/>
      <path id="Path_612688" data-name="Path 612688" d="M23.222,53.755l1.209,1.209a7.7,7.7,0,0,1,10.881,0l1.209-1.209A9.414,9.414,0,0,0,23.222,53.755Z" transform="translate(-3.371 -7.404)" fill="#fff"/>
      <path id="Path_612689" data-name="Path 612689" d="M51.95,32.752l1.209,1.209a.855.855,0,0,1,1.21,0l1.209-1.209A2.567,2.567,0,0,0,51.95,32.752Z" transform="translate(-7.541 -4.645)" fill="#fff"/>
      <path id="Path_612690" data-name="Path 612690" d="M57.584,29.753a5.983,5.983,0,0,0-8.463,0l1.209,1.209a4.273,4.273,0,0,1,6.045,0Z" transform="translate(-7.13 -4.065)" fill="#fff"/>
      <path id="Path_612691" data-name="Path 612691" d="M59.591,26.755a9.413,9.413,0,0,0-13.3,0L47.5,27.964a7.7,7.7,0,0,1,10.88,0Z" transform="translate(-6.72 -3.485)" fill="#fff"/>
      <path id="Path_612692" data-name="Path 612692" d="M5.808,30.752,7.017,31.96a.854.854,0,0,1,1.21,0l1.209-1.209a2.567,2.567,0,0,0-3.627,0Z" transform="translate(-0.843 -4.355)" fill="#fff"/>
      <path id="Path_612693" data-name="Path 612693" d="M11.441,27.753a5.981,5.981,0,0,0-8.461,0l1.209,1.209a4.273,4.273,0,0,1,6.045,0Z" transform="translate(-0.433 -3.774)" fill="#fff"/>
      <path id="Path_612694" data-name="Path 612694" d="M13.449,24.755a9.413,9.413,0,0,0-13.3,0L1.36,25.964a7.7,7.7,0,0,1,10.88,0Z" transform="translate(-0.022 -3.194)" fill="#fff"/>
    </g>
  </g>
</svg>
