<svg xmlns="http://www.w3.org/2000/svg" xmlns:xlink="http://www.w3.org/1999/xlink" width="190" height="190" viewBox="0 0 190 190">
  <defs>
    <clipPath id="clip-path">
      <rect id="Rect치ngulo_377961" data-name="Rect치ngulo 377961" width="190" height="190" transform="translate(1125 5923)" fill="#fff" stroke="#707070" stroke-width="1"/>
    </clipPath>
    <clipPath id="clip-path-2">
      <rect id="Rect치ngulo_377960" data-name="Rect치ngulo 377960" width="158.723" height="141.963" fill="none"/>
    </clipPath>
  </defs>
  <g id="Enmascarar_grupo_154283" data-name="Enmascarar grupo 154283" transform="translate(-1125 -5923)" clip-path="url(#clip-path)">
    <g id="Grupo_1072723" data-name="Grupo 1072723" transform="translate(1140.639 5944)">
      <g id="Grupo_1072722" data-name="Grupo 1072722" clip-path="url(#clip-path-2)">
        <path id="Trazado_609711" data-name="Trazado 609711" d="M34.628,6.5l7.615.01c.32,1.745,1.283,2.924,3.12,2.931,1.86.008,2.746-1.269,3.156-2.941h6.772c.389,2.718,2.312,3.025,4.562,3.023q45.736-.029,91.471-.01c4.838,0,7.4,2.19,7.426,6.618q.1,20.075,0,40.15c-.02,4.084-2.421,6.406-6.524,6.488-4.378.087-8.759,0-13.138.04a2.476,2.476,0,0,1-2.442-1.243A39.4,39.4,0,0,0,117.067,45.2c-1.05-.41-1.347-.865-.743-2,1.344-2.528,2.509-5.152,3.924-8.105,1.778,3.41,3.42,6.519,5.022,9.65.71,1.388,1.506,2.531,3.322,2.483,1.7-.045,2.447-1.132,3.081-2.452,2.317-4.825,4.664-9.636,6.961-14.471,1.1-2.313.687-4.025-1.075-4.912-1.808-.91-3.266-.233-4.455,2.157-1.529,3.07-3.01,6.164-4.52,9.266-.869-.423-1.008-1.2-1.343-1.843-1.419-2.7-2.745-5.446-4.263-8.086-1.5-2.616-4.1-2.56-5.63.025-.46.778-.837,1.606-1.234,2.419-1.229,2.519-2.45,5.043-3.817,7.858-1.995-3.811-3.678-7.206-5.539-10.5-.843-1.493-2.251-2.223-3.981-1.289a2.865,2.865,0,0,0-1.4,4.146c.312.672.664,1.326,1,1.985,1.872,3.652,3.746,7.3,5.863,11.427-5.848-1.374-11.164-.282-16.665.741.32-.739.53-1.27.775-1.783q2.772-5.795,5.561-11.581a4.029,4.029,0,0,0,.36-3.555,2.95,2.95,0,0,0-2.535-1.757,3.167,3.167,0,0,0-3.12,2.033c-1.573,3.233-3.143,6.468-4.928,10.143-1.783-3.415-3.4-6.431-4.936-9.487-.7-1.4-1.569-2.681-3.224-2.717-1.79-.039-2.686,1.293-3.39,2.807-1.437,3.092-2.961,6.143-4.547,9.413-1.83-3.509-3.489-6.73-5.188-9.93-.945-1.78-2.24-2.917-4.385-1.865-1.751.858-2.187,2.54-1.109,4.659,2.541,4.992,5.164,9.942,7.727,14.923.691,1.344,1.565,2.278,3.23,2.218,1.568-.057,2.308-1.018,2.914-2.286,1.51-3.165,3.069-6.307,4.781-9.812,1.754,3.369,3.288,6.45,4.957,9.456.663,1.194.558,1.76-.715,2.411a38.774,38.774,0,0,0-15.6,14.446,2.457,2.457,0,0,1-2.348,1.386c-15.617-.038-31.234.009-46.851-.055-4.069-.017-6.448-2.439-6.467-6.541q-.091-20.075,0-40.15c.02-4.153,2.536-6.5,6.742-6.55,3.635-.045,7.274-.086,10.906.018,2.308.065,3.824-.757,4.432-3.038M30.887,37.2c-1.825-3.506-3.478-6.721-5.172-9.915-.946-1.784-2.25-2.9-4.4-1.875-1.71.817-2.186,2.586-1.125,4.671,2.54,4.992,5.175,9.937,7.738,14.917.694,1.347,1.559,2.281,3.227,2.222,1.57-.056,2.317-1.02,2.92-2.283,1.517-3.174,3.069-6.332,4.609-9.5.764.412.919,1.1,1.218,1.672,1.406,2.7,2.726,5.456,4.2,8.119,1.585,2.855,4.434,2.842,5.909-.092,2.588-5.149,5.021-10.376,7.5-15.58a2.852,2.852,0,0,0-1.392-4.15c-1.84-.971-3.236-.148-4.1,1.486-1.385,2.619-2.606,5.325-3.919,7.982-.335.677-.419,1.573-1.392,1.883-1.621-3.142-3.218-6.209-4.787-9.29-.672-1.318-1.583-2.475-3.125-2.48-1.646-.006-2.588,1.141-3.266,2.612-1.443,3.13-3,6.207-4.653,9.6" transform="translate(-6.298 -3.277)" fill="#e1fbff"/>
        <path id="Trazado_609712" data-name="Trazado 609712" d="M28.33,3.227c-.609,2.282-2.124,3.1-4.433,3.038-3.633-.1-7.271-.063-10.906-.017-4.206.052-6.722,2.4-6.742,6.55q-.1,20.075,0,40.15c.018,4.1,2.4,6.524,6.466,6.541,15.617.064,31.234.017,46.851.055a2.458,2.458,0,0,0,2.349-1.386,38.766,38.766,0,0,1,15.6-14.446c1.274-.651,1.379-1.217.716-2.411-1.669-3.005-3.2-6.086-4.957-9.456C71.554,35.35,70,38.492,68.485,41.657c-.605,1.268-1.345,2.23-2.914,2.287-1.665.06-2.539-.874-3.23-2.218-2.562-4.981-5.185-9.931-7.726-14.923-1.079-2.119-.642-3.8,1.108-4.659,2.145-1.052,3.441.086,4.385,1.865,1.7,3.2,3.358,6.421,5.188,9.93,1.586-3.269,3.11-6.321,4.547-9.412.7-1.514,1.6-2.846,3.389-2.808,1.655.036,2.519,1.315,3.224,2.717,1.536,3.056,3.152,6.072,4.936,9.487,1.786-3.675,3.355-6.91,4.928-10.143a3.168,3.168,0,0,1,3.12-2.033A2.951,2.951,0,0,1,91.977,23.5a4.032,4.032,0,0,1-.36,3.555q-2.8,5.78-5.561,11.581c-.246.514-.456,1.044-.775,1.783,5.5-1.022,10.817-2.115,16.664-.741-2.116-4.124-3.99-7.775-5.862-11.427-.338-.66-.69-1.314-1-1.986a2.865,2.865,0,0,1,1.4-4.146c1.73-.935,3.138-.2,3.981,1.288,1.86,3.3,3.544,6.691,5.539,10.5,1.367-2.815,2.588-5.338,3.818-7.858.4-.814.774-1.641,1.234-2.419,1.527-2.585,4.127-2.641,5.631-.025,1.518,2.639,2.843,5.389,4.262,8.086.336.638.475,1.419,1.344,1.842,1.51-3.1,2.991-6.2,4.52-9.266,1.19-2.39,2.647-3.068,4.455-2.157,1.762.887,2.174,2.6,1.075,4.912-2.3,4.834-4.644,9.646-6.962,14.471-.634,1.321-1.383,2.407-3.081,2.452-1.816.048-2.612-1.095-3.322-2.483-1.6-3.13-3.245-6.239-5.023-9.65-1.414,2.953-2.579,5.577-3.924,8.106-.6,1.137-.307,1.593.743,2a39.4,39.4,0,0,1,19.576,16.365,2.476,2.476,0,0,0,2.442,1.243c4.379-.043,8.76.046,13.138-.041,4.1-.081,6.5-2.4,6.525-6.488q.1-20.074,0-40.15c-.021-4.428-2.588-6.618-7.426-6.619q-45.736-.009-91.471.01c-2.25,0-4.173-.306-4.562-3.023.2-2.218,1.531-3.16,3.635-3.192,1.651-.025,3.3-.008,4.954-.008q43.468,0,86.936-.017c4.114,0,7.832.827,10.762,3.956a12.406,12.406,0,0,1,3.407,8.759c.021,13.455.079,26.91-.022,40.365-.056,7.39-5.307,12.489-12.734,12.634-3.384.066-6.772.081-10.154-.02-1.429-.043-1.734.421-1.31,1.674a39.006,39.006,0,0,1,.875,20.963c-1.07,5.05-3.389,9.567-6,13.958-2.119,2.4-3.951,5.086-6.519,7.054-1.377,1.056-1.119,1.771-.012,2.866,7.274,7.2,14.478,14.466,21.73,21.686,2.15,2.14,4.8,2.365,6.576.666,1.913-1.836,1.752-4.481-.478-6.751-2.718-2.766-5.425-5.546-8.24-8.212-1.686-1.6-2.1-3.257-.946-5.282,1.979-1.39,3.643-.894,5.236.744,2.879,2.959,5.851,5.828,8.736,8.782a10.505,10.505,0,0,1-6.024,18.013c-3.721.525-6.72-1.037-9.3-3.627-7.4-7.428-14.873-14.789-22.207-22.284-1.344-1.374-2.23-1.418-3.906-.571-23.3,11.783-52.2-2.149-57.321-27.608a40.447,40.447,0,0,1,1.477-21.919c-1-.044-1.856-.114-2.709-.115q-20.691-.01-41.383-.006C4.973,65.729.008,60.747,0,51.638Q0,32.808,0,13.979C.01,5.034,4.968.069,13.929.029c3.3-.015,6.61.066,9.911-.024,2.39-.065,4.012.727,4.49,3.222M130.155,79.439a34.079,34.079,0,1,0-34.272,33.912,33.974,33.974,0,0,0,34.272-33.912" transform="translate(0 0)" fill="#050404"/>
        <path id="Trazado_609713" data-name="Trazado 609713" d="M265.245,218.22c-1.156,2.025-.74,3.685.946,5.282,2.815,2.666,5.522,5.446,8.24,8.212,2.23,2.27,2.39,4.916.478,6.751-1.771,1.7-4.426,1.475-6.576-.666-7.252-7.22-14.456-14.488-21.73-21.686-1.106-1.094-1.365-1.81.012-2.866,2.568-1.968,4.4-4.651,6.519-7.054l4.825,4.656c-.931,1.509-1.265,3.022.146,4.425,1.438,1.431,2.931.979,4.4.006l2.741,2.94" transform="translate(-123.791 -103.897)" fill="#f95b5b"/>
        <path id="Trazado_609714" data-name="Trazado 609714" d="M274.162,219.211c-1.469.973-2.961,1.425-4.4-.005-1.411-1.4-1.077-2.917-.146-4.425,1.518-.914,3.078-1.235,4.433.172,1.266,1.315.928,2.815.113,4.259" transform="translate(-135.448 -107.828)" fill="#050404"/>
        <path id="Trazado_609715" data-name="Trazado 609715" d="M78.729,3.353c-.41,1.672-1.3,2.949-3.156,2.941-1.837-.007-2.8-1.186-3.12-2.931C72.7,1.532,73.589.266,75.561.25c2-.016,2.835,1.328,3.168,3.1" transform="translate(-36.508 -0.126)" fill="#050404"/>
        <path id="Trazado_609716" data-name="Trazado 609716" d="M38.131,55.975c1.653-3.392,3.21-6.47,4.653-9.6.678-1.47,1.621-2.618,3.266-2.612,1.542.005,2.453,1.162,3.125,2.48,1.569,3.08,3.166,6.147,4.787,9.29.973-.31,1.057-1.206,1.392-1.883,1.314-2.657,2.535-5.363,3.919-7.982.864-1.634,2.261-2.457,4.1-1.486a2.852,2.852,0,0,1,1.392,4.15c-2.479,5.2-4.912,10.431-7.5,15.58-1.475,2.934-4.325,2.947-5.909.092-1.478-2.663-2.8-5.415-4.2-8.119-.3-.575-.454-1.261-1.218-1.672-1.539,3.167-3.092,6.325-4.609,9.5-.6,1.263-1.35,2.227-2.92,2.283-1.668.059-2.534-.875-3.227-2.222-2.564-4.98-5.2-9.924-7.738-14.917-1.061-2.086-.584-3.854,1.125-4.671,2.146-1.025,3.45.091,4.4,1.875,1.694,3.194,3.346,6.409,5.172,9.915" transform="translate(-13.543 -22.052)" fill="#050404"/>
        <path id="Trazado_609717" data-name="Trazado 609717" d="M193.123,125.527a34.079,34.079,0,1,1-33.878-34.06,33.96,33.96,0,0,1,33.878,34.06M159.04,152.7A27.245,27.245,0,1,0,159.2,98.21a27.245,27.245,0,0,0-.159,54.489" transform="translate(-62.967 -46.089)" fill="#f9f9f9"/>
        <path id="Trazado_609718" data-name="Trazado 609718" d="M166.063,159.546a27.245,27.245,0,0,1,.16-54.489,27.245,27.245,0,1,1-.16,54.489M187.05,132.38a20.954,20.954,0,0,0-20.965-21.144,21.065,21.065,0,1,0-.159,42.129A20.959,20.959,0,0,0,187.05,132.38" transform="translate(-69.991 -52.936)" fill="#050404"/>
        <path id="Trazado_609719" data-name="Trazado 609719" d="M193.159,138.658a20.959,20.959,0,0,1-21.124,20.986,21.065,21.065,0,1,1,.159-42.129,20.953,20.953,0,0,1,20.965,21.144m-20.812-14.038a2.969,2.969,0,0,0-3.124,2.652,2.82,2.82,0,0,0,2.659,3.5c4.942.492,7.614,2.991,8.077,7.985a2.906,2.906,0,0,0,3.385,2.858c1.971-.258,2.919-1.715,2.784-3.75a14.272,14.272,0,0,0-13.781-13.246" transform="translate(-76.101 -59.213)" fill="#70d5fb"/>
        <path id="Trazado_609720" data-name="Trazado 609720" d="M190.775,131.836a14.272,14.272,0,0,1,13.781,13.246c.135,2.035-.813,3.491-2.784,3.75a2.906,2.906,0,0,1-3.385-2.858c-.463-4.994-3.134-7.493-8.077-7.985a2.82,2.82,0,0,1-2.659-3.5,2.969,2.969,0,0,1,3.124-2.652" transform="translate(-94.529 -66.43)" fill="#050404"/>
      </g>
    </g>
  </g>
</svg>
