<svg xmlns="http://www.w3.org/2000/svg" width="85" height="85" viewBox="0 0 85 85">
  <g id="Group_1074018" data-name="Group 1074018" transform="translate(-285 -24613)">
    <circle id="Ellipse_5865" data-name="Ellipse 5865" cx="42.5" cy="42.5" r="42.5" transform="translate(285 24613)" fill="#0c5e46"/>
    <g id="presupuesto" transform="translate(300.451 24629)">
      <g id="Group_1073983" data-name="Group 1073983" transform="translate(0.549)">
        <g id="Group_1073982" data-name="Group 1073982" transform="translate(0)">
          <path id="Path_612653" data-name="Path 612653" d="M47.825,17.651H43.933V9.991a4.975,4.975,0,0,0-1.375-3.428L40.042,3.931c-2.135-2.2-2.4-2.821-3.675-3.438A4.974,4.974,0,0,0,34.213,0H15.841a4.968,4.968,0,0,0-4.963,4.963V31.725H9.832A2.861,2.861,0,0,0,7.8,36.6a2.853,2.853,0,0,0-.831,2.015,2.937,2.937,0,0,0,.056.566A7.217,7.217,0,0,0,8.056,53.574l14.118-.005a2.861,2.861,0,0,0,2.032-4.878,2.847,2.847,0,0,0,.827-1.873h1.074v.574A6.617,6.617,0,0,0,32.717,54H47.825a6.617,6.617,0,0,0,6.609-6.609V24.261A6.617,6.617,0,0,0,47.825,17.651ZM41.072,7.465s0,0,0,0h0l0,.005h0a.018.018,0,0,0,.006.006l0,0s0,0,0,0,0,0,0,0,0,0,0,0H36.848V3ZM9.832,33.421H22.174a1.166,1.166,0,1,1,0,2.333H9.832a1.166,1.166,0,1,1,0-2.333Zm0,4.029H22.174a1.166,1.166,0,1,1,0,2.333H13.649a6.91,6.91,0,0,0-1.074-.388,7.152,7.152,0,0,0-1.7-.249c-.166,0-.333,0-.5,0H8.8a1.147,1.147,0,0,1-.13-.533A1.169,1.169,0,0,1,9.832,37.451Zm13.509,5.2a1.168,1.168,0,0,1-1.166,1.166H17.427a7.136,7.136,0,0,0-1.44-2.333h6.187A1.168,1.168,0,0,1,23.341,42.647ZM5.7,41.124a7.32,7.32,0,0,0-1.336,1.714H3.38A5.6,5.6,0,0,1,5.7,41.124Zm-3.227,3.3H3.713A7.323,7.323,0,0,0,3.482,45.7H2.177A5.574,5.574,0,0,1,2.478,44.428Zm.137,4.2a5.569,5.569,0,0,1-.4-1.342h1.3a6.4,6.4,0,0,0,.3,1.342Zm1.058,1.591c.521,0,.823,0,.894,0A7.164,7.164,0,0,0,5.708,51.6,5.6,5.6,0,0,1,3.673,50.223Zm7.238,1.761a5.627,5.627,0,1,1,3.565-9.767A5.623,5.623,0,0,1,10.911,51.985Zm11.264-.112H15.328a7.267,7.267,0,0,0,1.823-2.333h5.024a1.166,1.166,0,0,1,0,2.333Zm1.157-5.054a1.167,1.167,0,0,1-1.157,1.024H17.736a7.288,7.288,0,0,0,.1-2.333h4.336A1.167,1.167,0,0,1,23.331,46.818Zm2.776-1.7H24.576a2.815,2.815,0,0,0-.37-.46,2.857,2.857,0,0,0,0-4.029,2.857,2.857,0,0,0,0-4.029,2.865,2.865,0,0,0-2.032-4.878h-9.6V4.963A3.27,3.27,0,0,1,15.841,1.7H35.151V8.342A.848.848,0,0,0,36,9.19h6.135c.177.687.068.46.1,8.461H32.717a6.617,6.617,0,0,0-6.609,6.609V45.122Zm26.737,2.27a5.024,5.024,0,0,1-5.019,5.019H32.717A5.025,5.025,0,0,1,27.7,47.392V24.261a5.025,5.025,0,0,1,5.019-5.019H47.825a5.024,5.024,0,0,1,5.019,5.019V47.392Z" transform="translate(-0.549)" fill="#f6f6f6"/>
        </g>
      </g>
      <g id="Group_1073985" data-name="Group 1073985" transform="translate(30.103 21.046)">
        <g id="Group_1073984" data-name="Group 1073984">
          <path id="Path_612654" data-name="Path 612654" d="M298.423,199.538h-15a2.67,2.67,0,0,0-2.67,2.67v2.911a2.67,2.67,0,0,0,2.67,2.67h2.885a.8.8,0,1,0,0-1.591h-2.885a1.083,1.083,0,0,1-1.079-1.08v-2.911a1.083,1.083,0,0,1,1.079-1.08h15a1.081,1.081,0,0,1,1.079,1.08v2.911a1.081,1.081,0,0,1-1.079,1.079h-8.681a.8.8,0,0,0,0,1.591h8.681a2.673,2.673,0,0,0,2.67-2.67v-2.911A2.673,2.673,0,0,0,298.423,199.538Z" transform="translate(-280.757 -199.538)" fill="#f6f6f6"/>
        </g>
      </g>
      <g id="Group_1073987" data-name="Group 1073987" transform="translate(30.103 37.804)">
        <g id="Group_1073986" data-name="Group 1073986">
          <path id="Path_612655" data-name="Path 612655" d="M285.14,358.428h-2.718a1.667,1.667,0,0,0-1.665,1.665v2.717a1.667,1.667,0,0,0,1.665,1.665h2.718a1.666,1.666,0,0,0,1.665-1.665v-2.717A1.666,1.666,0,0,0,285.14,358.428Zm.074,4.381a.074.074,0,0,1-.074.074h-2.718a.074.074,0,0,1-.074-.074v-2.717a.075.075,0,0,1,.074-.074h2.718a.075.075,0,0,1,.074.074Z" transform="translate(-280.757 -358.428)" fill="#f6f6f6"/>
        </g>
      </g>
      <g id="Group_1073989" data-name="Group 1073989" transform="translate(44.479 30.699)">
        <g id="Group_1073988" data-name="Group 1073988">
          <path id="Path_612656" data-name="Path 612656" d="M421.438,291.068h-2.717a1.666,1.666,0,0,0-1.665,1.665v2.717a1.666,1.666,0,0,0,1.665,1.665h2.717a1.666,1.666,0,0,0,1.665-1.665v-2.717A1.666,1.666,0,0,0,421.438,291.068Zm.074,4.382a.074.074,0,0,1-.074.074h-2.717a.074.074,0,0,1-.074-.074c.033-2.688-.069-2.791.074-2.791h2.717a.074.074,0,0,1,.074.074Z" transform="translate(-417.056 -291.068)" fill="#f6f6f6"/>
        </g>
      </g>
      <g id="Group_1073991" data-name="Group 1073991" transform="translate(30.103 30.699)">
        <g id="Group_1073990" data-name="Group 1073990">
          <path id="Path_612657" data-name="Path 612657" d="M285.14,291.068h-2.718a1.667,1.667,0,0,0-1.665,1.665v2.717a1.667,1.667,0,0,0,1.665,1.665h2.718a1.666,1.666,0,0,0,1.665-1.665v-2.717A1.666,1.666,0,0,0,285.14,291.068Zm.074,4.382a.074.074,0,0,1-.074.074h-2.718a.074.074,0,0,1-.074-.074v-2.717a.074.074,0,0,1,.074-.074h2.718a.074.074,0,0,1,.074.074Z" transform="translate(-280.757 -291.068)" fill="#f6f6f6"/>
        </g>
      </g>
      <g id="Group_1073993" data-name="Group 1073993" transform="translate(30.1 44.561)">
        <g id="Group_1073992" data-name="Group 1073992">
          <path id="Path_612658" data-name="Path 612658" d="M286.361,423.052a1.664,1.664,0,0,0-1.246-.561H282.4a1.66,1.66,0,0,0-1.245.561,2.275,2.275,0,0,0-.42,1.7v2.124a1.667,1.667,0,0,0,1.665,1.665h2.718a1.666,1.666,0,0,0,1.665-1.665v-2.124A2.294,2.294,0,0,0,286.361,423.052Zm-1.246,3.895c-2.685-.033-2.792.069-2.792-.074,0-2.877-.032-2.791.074-2.791h2.718c.13,0,.05.181.074.667A11.309,11.309,0,0,1,285.116,426.947Z" transform="translate(-280.73 -422.491)" fill="#f6f6f6"/>
        </g>
      </g>
      <g id="Group_1073995" data-name="Group 1073995" transform="translate(44.479 37.804)">
        <g id="Group_1073994" data-name="Group 1073994" transform="translate(0)">
          <path id="Path_612659" data-name="Path 612659" d="M421.014,358.428h-1.873a2.089,2.089,0,0,0-2.087,2.087v8.438a2.281,2.281,0,0,0,2.278,2.279h1.491a2.28,2.28,0,0,0,2.278-2.279v-8.437A2.089,2.089,0,0,0,421.014,358.428Zm-.191,11.213h-1.491a.689.689,0,0,1-.687-.688v-8.438a.5.5,0,0,1,.5-.5h1.873a.5.5,0,0,1,.5.5v8.438h0A.688.688,0,0,1,420.824,369.641Z" transform="translate(-417.055 -358.428)" fill="#f6f6f6"/>
        </g>
      </g>
      <g id="Group_1073997" data-name="Group 1073997" transform="translate(17.652 17.644)">
        <g id="Group_1073996" data-name="Group 1073996">
          <path id="Path_612660" data-name="Path 612660" d="M166.076,172.745c-.97-.356-1.67-.614-1.67-1.512,0-.819.544-1.234,1.616-1.234,1.138,0,1.445.5,1.846.5a.764.764,0,0,0,.678-.783c0-.663-1.081-.991-2.047-1.078v-.6a.754.754,0,0,0-1.507,0v.693a2.465,2.465,0,0,0-2.047,2.578c0,1.851,1.363,2.363,2.458,2.775,1.072.4,1.919.721,1.919,1.945,0,1.011-.561,1.524-1.669,1.524-1.621,0-1.636-1.094-2.254-1.094a.8.8,0,0,0-.691.783c0,.627.933,1.45,2.284,1.664v.577a.754.754,0,1,0,1.507,0v-.593a2.722,2.722,0,0,0,2.284-2.941C168.783,173.74,167.282,173.188,166.076,172.745Z" transform="translate(-162.707 -167.288)" fill="#f6f6f6"/>
        </g>
      </g>
      <g id="Group_1073999" data-name="Group 1073999" transform="translate(37.245 44.561)">
        <g id="Group_1073998" data-name="Group 1073998">
          <path id="Path_612661" data-name="Path 612661" d="M354.013,422.958a1.658,1.658,0,0,0-1.154-.467h-2.718a1.664,1.664,0,0,0-1.246.561,2.284,2.284,0,0,0-.419,1.7v2.124a1.666,1.666,0,0,0,1.665,1.665h2.718a1.666,1.666,0,0,0,1.664-1.665v-2.718A1.659,1.659,0,0,0,354.013,422.958Zm-1.154,3.989c-2.685-.033-2.792.069-2.792-.074v-2.718a.074.074,0,0,1,.074-.073h2.718a.073.073,0,0,1,.073.073C352.9,426.846,353,426.947,352.859,426.947Z" transform="translate(-348.474 -422.491)" fill="#f6f6f6"/>
        </g>
      </g>
      <g id="Group_1074001" data-name="Group 1074001" transform="translate(37.248 30.699)">
        <g id="Group_1074000" data-name="Group 1074000">
          <path id="Path_612662" data-name="Path 612662" d="M352.882,291.068h-2.718a1.666,1.666,0,0,0-1.665,1.665v2.717a1.666,1.666,0,0,0,1.665,1.665h2.718a1.64,1.64,0,0,0,.606-.115,1.667,1.667,0,0,0,1.058-1.55v-2.717A1.667,1.667,0,0,0,352.882,291.068Zm0,4.456h-2.718a.075.075,0,0,1-.074-.074v-2.717c0-.143.1-.042,2.792-.074a.074.074,0,0,1,.073.074v2.717h0A.074.074,0,0,1,352.882,295.524Z" transform="translate(-348.499 -291.068)" fill="#f6f6f6"/>
        </g>
      </g>
      <g id="Group_1074003" data-name="Group 1074003" transform="translate(37.248 37.804)">
        <g id="Group_1074002" data-name="Group 1074002">
          <path id="Path_612663" data-name="Path 612663" d="M353.487,358.543a1.639,1.639,0,0,0-.606-.115h-2.718a1.666,1.666,0,0,0-1.665,1.665v2.717a1.666,1.666,0,0,0,1.665,1.665h2.718a1.666,1.666,0,0,0,1.664-1.665v-2.717A1.667,1.667,0,0,0,353.487,358.543Zm-.532,4.267a.074.074,0,0,1-.073.074h-2.718a.074.074,0,0,1-.074-.074v-2.717a.075.075,0,0,1,.074-.074h2.718a.074.074,0,0,1,.073.074Z" transform="translate(-348.499 -358.428)" fill="#f6f6f6"/>
        </g>
      </g>
      <g id="Group_1074005" data-name="Group 1074005" transform="translate(34.247 10.868)">
        <g id="Group_1074004" data-name="Group 1074004">
          <path id="Path_612664" data-name="Path 612664" d="M322.84,103.041h-2a.8.8,0,0,0,0,1.591h2a.8.8,0,0,0,0-1.591Z" transform="translate(-320.047 -103.041)" fill="#f6f6f6"/>
        </g>
      </g>
      <g id="Group_1074007" data-name="Group 1074007" transform="translate(16.963 10.868)">
        <g id="Group_1074006" data-name="Group 1074006">
          <path id="Path_612665" data-name="Path 612665" d="M171.068,103.041h-14.1a.8.8,0,0,0,0,1.591h14.1a.8.8,0,1,0,0-1.591Z" transform="translate(-156.17 -103.041)" fill="#f6f6f6"/>
        </g>
      </g>
      <g id="Group_1074009" data-name="Group 1074009" transform="translate(16.963 14.816)">
        <g id="Group_1074008" data-name="Group 1074008">
          <path id="Path_612666" data-name="Path 612666" d="M159.493,140.472h-2.528a.8.8,0,0,0,0,1.59h2.528a.8.8,0,0,0,0-1.59Z" transform="translate(-156.17 -140.472)" fill="#f6f6f6"/>
        </g>
      </g>
      <g id="Group_1074011" data-name="Group 1074011" transform="translate(22.672 14.816)">
        <g id="Group_1074010" data-name="Group 1074010">
          <path id="Path_612667" data-name="Path 612667" d="M224.667,140.472H211.094a.8.8,0,1,0,0,1.59h13.573a.8.8,0,1,0,0-1.59Z" transform="translate(-210.299 -140.472)" fill="#f6f6f6"/>
        </g>
      </g>
      <g id="Group_1074013" data-name="Group 1074013" transform="translate(8.492 42.12)">
        <g id="Group_1074012" data-name="Group 1074012">
          <path id="Path_612668" data-name="Path 612668" d="M77.588,402.069c0-.2.074-.257.142-.3a1.367,1.367,0,0,1,1.153.078.909.909,0,0,0,.43.131c.784,0,1.4-1.457-.469-1.78v-.05a.806.806,0,1,0-1.612,0v.153A1.808,1.808,0,0,0,76,402.117c0,1.356.985,1.727,1.705,2,.686.258.924.371.924.838,0,.292-.079.562-.649.562-.831,0-.732-.657-1.354-.657a.831.831,0,0,0-.768.824c0,.551.573,1.074,1.372,1.286v.06a.806.806,0,1,0,1.612,0v-.081a1.992,1.992,0,0,0,1.372-2.041C80.217,402.487,77.588,402.85,77.588,402.069Z" transform="translate(-75.861 -399.347)" fill="#f6f6f6"/>
        </g>
      </g>
    </g>
  </g>
</svg>
