<svg xmlns="http://www.w3.org/2000/svg" width="120" height="120" viewBox="0 0 120 120">
  <g id="Group_1074131" data-name="Group 1074131" transform="translate(-180 -10323)">
    <g id="Group_1074029" data-name="Group 1074029" transform="translate(-89 9365)">
      <path id="Path_608972" data-name="Path 608972" d="M60,0A60,60,0,1,1,0,60,60,60,0,0,1,60,0Z" transform="translate(269 958)" fill="#0c5e46"/>
    </g>
    <path id="analisis-exploratorio" d="M48.03,77.062a13.367,13.367,0,1,0,0-18.9,13.281,13.281,0,0,0,0,18.9Zm1.723-17.18a10.93,10.93,0,1,1,0,15.456,10.861,10.861,0,0,1,0-15.456ZM87.026,77.025V29.359a1.219,1.219,0,0,0-1.219-1.219H58.274a1.219,1.219,0,0,0-.862.357L49.8,36.1a1.219,1.219,0,0,0-.357.862v14.9A17.682,17.682,0,0,0,39.8,67.612a18,18,0,0,0,.12,2.067V94.523H37.43V62.172a1.219,1.219,0,0,0-1.219-1.219H29.049a1.219,1.219,0,0,0-1.219,1.219V94.523H25.341V71.844a1.219,1.219,0,0,0-1.219-1.219H16.955a1.219,1.219,0,0,0-1.219,1.219V94.523H14.218a1.219,1.219,0,0,0,0,2.437H63.14a1.219,1.219,0,1,0,0-2.437H61.617v-9.73a17.584,17.584,0,0,0,5.135-2.128l2.483,3.6h0a1.215,1.215,0,0,0,.141.171l9.054,9.054a5.029,5.029,0,0,0,7.072.026,4.634,4.634,0,0,0,1.521-3.347A5.139,5.139,0,0,0,85.53,88.4l-9.054-9.054A1.229,1.229,0,0,0,76.3,79.2h0l-1.393-.96h10.9a1.219,1.219,0,0,0,1.219-1.219Zm-29.2-45.493v4.984H52.84Zm-11.119,25.3a15.231,15.231,0,1,1-4.35,12.66c0-.013,0-.025,0-.038a15.494,15.494,0,0,1-.11-1.844,15.143,15.143,0,0,1,4.465-10.778ZM52.017,84.42v10.1H49.523V83.4a17.578,17.578,0,0,0,2.494,1.024Zm-9.656-7.64a17.858,17.858,0,0,0,4.726,5.129V94.523H42.361ZM30.267,63.391h4.726V94.523H30.267ZM18.174,73.062H22.9V94.523h-4.73ZM59.18,94.523H54.454v-9.5a17.824,17.824,0,0,0,3.03.26q.849,0,1.7-.081v9.324ZM69.986,80.11a18,18,0,0,0,1.277-1.421l2.454,1.691-3.3,3.3-1.677-2.435q.646-.534,1.252-1.137Zm13.82,10.012a2.692,2.692,0,0,1,.782,1.977,2.222,2.222,0,0,1-.729,1.62l-.052.049a2.589,2.589,0,0,1-3.653,0l-8.192-8.192,3.651-3.648,8.193,8.193Zm.783-14.316H73.158A17.683,17.683,0,0,0,51.885,50.845V38.953h7.157a1.219,1.219,0,0,0,1.219-1.219V30.577H84.589V75.806ZM80.282,62.695a1.219,1.219,0,0,1-1.219,1.219H77.116a1.219,1.219,0,0,1,0-2.437h1.947A1.219,1.219,0,0,1,80.282,62.695Zm0-11.977a1.219,1.219,0,0,1-1.219,1.219H66.456a1.219,1.219,0,0,1,0-2.437H79.063A1.219,1.219,0,0,1,80.282,50.718Zm0,5.988a1.219,1.219,0,0,1-1.219,1.219h-4.3a1.219,1.219,0,0,1,0-2.437h4.3A1.219,1.219,0,0,1,80.282,56.706Zm0-11.977a1.219,1.219,0,0,1-1.219,1.219H57.411a1.219,1.219,0,1,1,0-2.437H79.063A1.219,1.219,0,0,1,80.282,44.729ZM65.238,38.74a1.219,1.219,0,0,1,1.219-1.219H79.063a1.219,1.219,0,1,1,0,2.437H66.456A1.219,1.219,0,0,1,65.238,38.74ZM80.282,68.683A1.219,1.219,0,0,1,79.063,69.9H77.116a1.219,1.219,0,0,1,0-2.437h1.947A1.219,1.219,0,0,1,80.282,68.683Zm-26.57.663A1.219,1.219,0,1,1,55.4,67.589l1.667,1.6,4.014-4.4a1.219,1.219,0,0,1,1.8,1.643l-4.857,5.324a1.219,1.219,0,0,1-.86.4h-.04a1.219,1.219,0,0,1-.844-.34l-2.569-2.47ZM26.13,57.389A13.146,13.146,0,0,0,39.261,44.258V43.04H27.348V31.128H26.13a13.131,13.131,0,0,0,0,26.262ZM36.754,45.477a10.685,10.685,0,0,1-16.88,7.446l6.79-7.446ZM24.911,33.634V43.783l-6.837,7.5a10.685,10.685,0,0,1,6.837-17.646ZM43.1,40.416A13.146,13.146,0,0,0,29.973,27.285H28.754V41.634H43.1ZM31.191,39.2V29.791A10.715,10.715,0,0,1,40.6,39.2Z" transform="translate(190.001 10320.715)" fill="#fff"/>
  </g>
</svg>
