<svg xmlns="http://www.w3.org/2000/svg" xmlns:xlink="http://www.w3.org/1999/xlink" width="70" height="70" viewBox="0 0 70 70">
  <defs>
    <clipPath id="clip-path">
      <rect id="Rectángulo_378000" data-name="Rectángulo 378000" width="52.472" height="52.8" fill="#fff"/>
    </clipPath>
  </defs>
  <g id="Grupo_1071455" data-name="Grupo 1071455" transform="translate(-269 -958)">
    <circle id="Elipse_5614" data-name="Elipse 5614" cx="35" cy="35" r="35" transform="translate(269 958)" fill="#0c5e46"/>
    <g id="Grupo_1072755" data-name="Grupo 1072755" transform="translate(278 967)">
      <g id="Grupo_1072754" data-name="Grupo 1072754" clip-path="url(#clip-path)">
        <path id="Trazado_609913" data-name="Trazado 609913" d="M36.051,45.424c-3.621,2.092-7.2,4.181-10.8,6.228-2.708,1.54-1.72,1.518-4.358.008C14.249,47.852,7.628,44,.981,40.189A1.725,1.725,0,0,1,0,38.489q.032-12.15,0-24.3A1.722,1.722,0,0,1,.991,12.5Q11.55,6.44,22.071.318A1.7,1.7,0,0,1,24.021.3q10.6,6.163,21.229,12.261a1.45,1.45,0,0,1,.815,1.433c-.025,5.03,0,10.061-.026,15.092a1.029,1.029,0,0,0,.727,1.126,9.475,9.475,0,0,1-1.9,17.973,9.547,9.547,0,0,1-8.811-2.756M1.762,15.036c-.019.31-.034.449-.034.587,0,7.449.008,14.9-.018,22.347,0,.613.314.83.746,1.079q9.443,5.443,18.88,10.9c.237.137.486.251.795.41.018-.248.04-.41.04-.572,0-7.449-.006-14.9.017-22.347a1.057,1.057,0,0,0-.7-1.02Q14.847,22.6,8.214,18.757L1.762,15.036M34.974,44.063c-1.964-3.5-2.1-6.968.046-10.308s5.375-4.618,9.24-4.339V15.095c-1.963,1.133-3.839,2.193-5.682,3.307a1.118,1.118,0,0,0-.357.835q-.039,4.262-.005,8.525a1.38,1.38,0,0,1-.792,1.363c-1.9,1.07-3.783,2.185-5.678,3.272-1.091.626-1.674.3-1.68-.951-.01-2.245,0-4.49,0-6.735V23.346c-.392.2-.64.319-.877.455-1.525.877-3.033,1.783-4.577,2.625a1.229,1.229,0,0,0-.74,1.255c.024,7.275.016,14.549.016,21.824v.966l11.091-6.408M29.192,21.815c-.327-.2-.564-.351-.807-.492-6.043-3.493-12.107-6.95-18.112-10.507a2.438,2.438,0,0,0-3.018.014c-1.44.976-3,1.778-4.5,2.65.057.115.062.15.081.161q9.943,5.756,19.9,11.494a.9.9,0,0,0,.747-.04c1.879-1.055,3.741-2.142,5.712-3.28M16.924,5.287c.154.094.227.141.3.184Q27.1,11.176,36.989,16.862a1.1,1.1,0,0,0,.9-.083c1.686-.937,3.35-1.914,5.018-2.883a6.125,6.125,0,0,0,.518-.389L40.11,11.591Q31.893,6.842,23.669,2.1a1.141,1.141,0,0,0-.892-.158c-1.934,1.063-3.838,2.181-5.853,3.341M42.949,46.658A7.776,7.776,0,1,0,35.2,38.9a7.834,7.834,0,0,0,7.75,7.756M10.489,9.01c6.755,3.9,13.414,7.741,20.078,11.575a.693.693,0,0,0,.541.1c1.49-.831,2.963-1.692,4.534-2.6C28.868,14.179,22.234,10.35,15.591,6.536a.834.834,0,0,0-.685-.062c-1.459.808-2.9,1.655-4.416,2.536m26,10.572c-1.553.9-2.958,1.678-4.325,2.522a1.137,1.137,0,0,0-.373.834c-.037,1.473-.017,2.948-.017,4.422v3.02c1.6-.916,3.05-1.73,4.479-2.572a.664.664,0,0,0,.227-.5c.014-2.518.01-5.036.01-7.73" transform="translate(0 0)" fill="#fff"/>
        <path id="Trazado_609914" data-name="Trazado 609914" d="M152.376,233.484c-.413-1.29.383-2.067,1.663-2.662,1.026-.476,1.968-1.13,2.961-1.679.869-.481,1.419-.161,1.484.834,0,.057,0,.114,0,.171.078,2.923.078,2.923-2.48,4.393-.738.424-1.466.867-2.215,1.271-.831.448-1.385.12-1.413-.816-.013-.426,0-.853,0-1.512m4.3-2.037c-.877.677-2.389.594-2.526,2.119.8-.773,2.325-.65,2.526-2.119" transform="translate(-126.3 -189.885)" fill="#fff"/>
        <path id="Trazado_609915" data-name="Trazado 609915" d="M221.046,204.6c1.328-1.3,2.489-2.466,3.689-3.594a2.06,2.06,0,0,1,3.561,1.036,2.438,2.438,0,0,1-.5,1.855c-1.662,1.826-3.428,3.559-5.193,5.288a2.023,2.023,0,0,1-2.92-.01c-.993-.934-1.957-1.9-2.893-2.892a2.074,2.074,0,0,1,.019-2.985,2.1,2.1,0,0,1,2.99-.021c.457.42.854.9,1.244,1.323m.1,3.486a2.1,2.1,0,0,0,.39-.24c1.661-1.673,3.322-3.347,4.962-5.041.105-.108.035-.386.047-.585a1.663,1.663,0,0,0-.594.01c-.17.068-.292.261-.432.4q-1.8,1.816-3.6,3.634a.941.941,0,0,1-1.54.007c-.514-.53-1.02-1.074-1.579-1.552-.18-.154-.52-.12-.786-.173.06.245.043.562.193.722.8.849,1.632,1.662,2.462,2.48a3.531,3.531,0,0,0,.477.336" transform="translate(-179.306 -166.18)" fill="#fff"/>
      </g>
    </g>
  </g>
</svg>
