<svg xmlns="http://www.w3.org/2000/svg" xmlns:xlink="http://www.w3.org/1999/xlink" width="141" height="141" viewBox="0 0 141 141">
  <defs>
    <clipPath id="clip-path">
      <rect id="Rectángulo_378042" data-name="Rectángulo 378042" width="101.628" height="97.577" fill="none"/>
    </clipPath>
  </defs>
  <g id="Grupo_1073647" data-name="Grupo 1073647" transform="translate(-730 -14089)">
    <g id="Grupo_1071490" data-name="Grupo 1071490" transform="translate(461 13131)">
      <circle id="Elipse_5614" data-name="Elipse 5614" cx="70.5" cy="70.5" r="70.5" transform="translate(269 958)" fill="#fff"/>
    </g>
    <g id="Grupo_1072822" data-name="Grupo 1072822" transform="translate(749.186 14110.712)">
      <g id="Grupo_1072821" data-name="Grupo 1072821" clip-path="url(#clip-path)">
        <path id="Trazado_610041" data-name="Trazado 610041" d="M51.072,16.2c9.188.013,18.377.086,27.563-.017,1.662-.019,3.348-.269,5.031-.258,3.076.021,4.934,1.878,4.936,4.921q.006,9.428,0,18.855c-.235-.115-.479-.216-.7-.346A19.031,19.031,0,0,0,59.566,52.421a19.927,19.927,0,0,0,2.347,13.294c-.011,2.746.052,5.5-.064,8.237-.063,1.486.331,2.024,1.913,1.986,4.079-.1,4.081-.023,4.2-4.049a20.051,20.051,0,0,0,15.79,2.182c.157.328.3.661.472.985,1.369,2.648,3.185,5.042,4.41,7.771a5.131,5.131,0,0,1-5.32,3.281c-3.508-.14-7.025-.037-10.538-.039-.472-.029-.945-.084-1.417-.084q-26.983,0-53.965.016c-.473,0-.945.057-1.418.087-3.491-.006-6.982-.065-10.472,0-3.654.065-5.515-2.223-5.5-5.4.1-19.89.052-39.78.052-59.67,0-3.2,1.555-4.771,4.726-4.776l32.844-.056,13.45.016m9.777,16.4-8.1,11.333a6.089,6.089,0,0,0-5.072,1.135l-5.228-3.1a5,5,0,0,0-2.178-5.1,4.6,4.6,0,0,0-5.233-.155,5.045,5.045,0,0,0-2.432,5.279L27.4,45.012c-.464-.25-.918-.52-1.393-.746a4.869,4.869,0,0,0-5.568.934,4.788,4.788,0,0,0-1.129,5.372,4.947,4.947,0,0,0,4.725,3.1c3.016-.081,4.918-2.462,4.822-6.037l5.232-2.992a5.379,5.379,0,0,0,6.889-.005L46.3,47.649c-.138,3.549,1.636,5.818,4.589,6.027a5.043,5.043,0,0,0,4.326-7.959L63.275,34.27c.2.05.406.106.612.148a4.853,4.853,0,1,0-3.494-6.666,5.391,5.391,0,0,0,.456,4.845M40.6,65.537V59.668c0-4.519,0-4.474-4.529-4.452-1.232.006-1.505.448-1.494,1.58.05,4.917.021,9.834.021,14.752,0,4.507,0,4.475,4.548,4.375,1.118-.024,1.482-.431,1.467-1.5-.041-2.96-.014-5.922-.014-8.883M26.949,69.4c0-.793.011-1.586,0-2.379-.084-5.027.867-4.28-4.708-4.349-.99-.012-1.45.419-1.445,1.426.018,3.489.013,6.978.006,10.467,0,1,.448,1.414,1.467,1.35a23.3,23.3,0,0,1,3.169,0c1.23.091,1.563-.485,1.526-1.6-.055-1.637-.014-3.277-.014-4.916m27.323-.076c0-.793.009-1.586,0-2.379-.063-4.822.716-4.191-4.317-4.292-1.4-.028-1.9.521-1.881,1.853.039,2.273-.017,4.547.016,6.82.078,5.558-.8,4.428,4.741,4.589,1.138.033,1.484-.459,1.455-1.516-.047-1.69-.013-3.383-.012-5.075" transform="translate(0 -10.87)" fill="#eaedf0"/>
        <path id="Trazado_610042" data-name="Trazado 610042" d="M211.093,118.827a20.05,20.05,0,0,1-15.79-2.182,23.538,23.538,0,0,1-6.044-6.174,19.929,19.929,0,0,1-2.347-13.294,19.031,19.031,0,0,1,28.335-13.064c.226.131.47.232.7.346,4.086,2.936,7.108,6.675,8.161,11.671,1.343,6.37.073,12.167-4.352,17.118-.351.392-.663.819-.993,1.23a26.959,26.959,0,0,1-7.673,4.349M206.475,87.24a13.377,13.377,0,0,0-14.259,12.446c-.621,7.145,5,13.516,12.551,14.225,7.165.673,13.735-4.992,14.22-12.674a13.158,13.158,0,0,0-12.513-14" transform="translate(-127.345 -55.626)" fill="#f0de35"/>
        <path id="Trazado_610043" data-name="Trazado 610043" d="M50.292,236.644c.473-.03.945-.086,1.418-.086q26.983-.015,53.965-.016c.472,0,.945.054,1.417.084,0,.9.007,1.8-.014,2.7-.04,1.708-.7,2.4-2.416,2.406-4.386.014-8.772-.011-13.157-.013-.633,0-1.266.037-1.9.057H86.4l-15.4,0-3.255.006q-7.094-.031-14.188-.06c-2.751-.009-3.265-.528-3.27-3.332q0-.867,0-1.735" transform="translate(-34.321 -161.425)" fill="#f0de35"/>
        <path id="Trazado_610044" data-name="Trazado 610044" d="M263.724,189.675a26.943,26.943,0,0,0,7.673-4.349c3.217,5.579,6.483,11.132,9.628,16.752a4.257,4.257,0,0,1-1.679,5.9,4.368,4.368,0,0,1-6.032-1.681c-1.633-2.583-2.925-5.37-4.709-7.864-1.225-2.73-3.041-5.124-4.41-7.772-.167-.324-.315-.656-.472-.985" transform="translate(-179.976 -126.474)" fill="#ec5676"/>
        <path id="Trazado_610045" data-name="Trazado 610045" d="M131.69,5.332l-13.45-.016C117.832.671,118.4.05,123.034.043c1.8,0,3.6-.046,5.392-.044,2.546,0,3.344.787,3.346,3.277,0,.685-.054,1.371-.083,2.056" transform="translate(-80.618 0.001)" fill="#f0de35"/>
        <path id="Trazado_610046" data-name="Trazado 610046" d="M164.007,253.005h3.2q3.564,7.034,7.129,14.067c.119.235.252.463.368.7.446.906.507,1.772-.54,2.272-1.025.488-1.689-.047-2.156-.962-1.982-3.89-3.994-7.765-5.95-11.667a19.522,19.522,0,0,1-2.055-4.409" transform="translate(-111.925 -172.661)" fill="#22436a"/>
        <path id="Trazado_610047" data-name="Trazado 610047" d="M88.523,253l3.255-.006c-1.7,4.084-3.977,7.88-5.887,11.859-.636,1.326-1.36,2.611-2.019,3.927-.481.96-1.056,1.86-2.282,1.257-1.338-.659-.847-1.714-.346-2.692q3.38-6.6,6.761-13.2c.191-.372.346-.763.518-1.145" transform="translate(-55.091 -172.65)" fill="#22436a"/>
        <path id="Trazado_610048" data-name="Trazado 610048" d="M114.92,149.963c0,2.961-.027,5.922.014,8.883.015,1.072-.349,1.479-1.467,1.5-4.548.1-4.548.133-4.548-4.375,0-4.917.028-9.835-.021-14.752-.011-1.132.262-1.574,1.494-1.58,4.529-.023,4.529-.067,4.529,4.451q0,2.935,0,5.869" transform="translate(-74.316 -95.295)" fill="#5d9cec"/>
        <path id="Trazado_610049" data-name="Trazado 610049" d="M71.638,169.843c0,1.639-.041,3.279.014,4.916.037,1.117-.3,1.692-1.526,1.6a23.3,23.3,0,0,0-3.169,0c-1.018.064-1.469-.346-1.467-1.35.007-3.489.012-6.978-.006-10.467-.005-1.007.455-1.438,1.445-1.426,5.575.069,4.624-.678,4.708,4.349.013.793,0,1.586,0,2.379" transform="translate(-44.689 -111.314)" fill="#5d9cec"/>
        <path id="Trazado_610050" data-name="Trazado 610050" d="M157.582,169.73c0,1.692-.034,3.385.012,5.075.029,1.057-.316,1.549-1.454,1.516-5.541-.161-4.663.969-4.741-4.589-.032-2.273.024-4.547-.015-6.82-.023-1.332.483-1.881,1.881-1.853,5.033.1,4.254-.53,4.317,4.292.01.793,0,1.586,0,2.379" transform="translate(-103.31 -111.277)" fill="#5d9cec"/>
        <path id="Trazado_610051" data-name="Trazado 610051" d="M102.583,85.062a5.043,5.043,0,0,1,2.431-5.28,4.6,4.6,0,0,1,5.233.156,5,5,0,0,1,2.179,5.1A9.824,9.824,0,0,1,110.95,87.7a5.379,5.379,0,0,1-6.889.008,10.689,10.689,0,0,1-1.478-2.649" transform="translate(-69.975 -53.941)" fill="#f0de35"/>
        <path id="Trazado_610052" data-name="Trazado 610052" d="M147.169,104.954a6.09,6.09,0,0,1,5.072-1.135,11.026,11.026,0,0,1,2.469,1.787,5.043,5.043,0,0,1-4.326,7.958c-2.953-.209-4.728-2.479-4.589-6.027a10.392,10.392,0,0,1,1.374-2.584" transform="translate(-99.492 -70.758)" fill="#ec5676"/>
        <path id="Trazado_610053" data-name="Trazado 610053" d="M69.529,107.479c.1,3.574-1.806,5.955-4.822,6.037a4.948,4.948,0,0,1-4.725-3.1,4.788,4.788,0,0,1,1.129-5.372,4.869,4.869,0,0,1,5.568-.934c.475.226.929.5,1.393.745l1.457,2.62" transform="translate(-40.674 -70.717)" fill="#5d9cec"/>
        <path id="Trazado_610054" data-name="Trazado 610054" d="M189.821,51.679a5.391,5.391,0,0,1-.456-4.845,4.838,4.838,0,1,1,3.494,6.666c-.205-.042-.408-.1-.612-.148a10.058,10.058,0,0,1-2.426-1.673" transform="translate(-128.972 -29.951)" fill="#f0de35"/>
        <path id="Trazado_610055" data-name="Trazado 610055" d="M174.209,68.422a10.058,10.058,0,0,0,2.426,1.673l-8.056,11.447a11.036,11.036,0,0,0-2.469-1.787l8.1-11.333" transform="translate(-113.36 -46.694)" fill="#22436a"/>
        <path id="Trazado_610056" data-name="Trazado 610056" d="M194.816,172.709a23.542,23.542,0,0,0,6.044,6.174c-.114,4.026-.116,3.951-4.195,4.049-1.582.038-1.976-.5-1.913-1.986.116-2.741.052-5.491.064-8.237" transform="translate(-132.903 -117.864)" fill="#5d9cec"/>
        <path id="Trazado_610057" data-name="Trazado 610057" d="M87.732,103.642l-1.457-2.62L91.485,98a10.708,10.708,0,0,0,1.479,2.65l-5.231,2.991" transform="translate(-58.878 -66.88)" fill="#22436a"/>
        <path id="Trazado_610058" data-name="Trazado 610058" d="M135.734,101.017a10.392,10.392,0,0,0-1.374,2.584l-5.329-3.016a9.835,9.835,0,0,0,1.475-2.67l5.227,3.1" transform="translate(-88.057 -66.821)" fill="#22436a"/>
        <path id="Trazado_610059" data-name="Trazado 610059" d="M218.439,99.453a13.158,13.158,0,0,1,12.513,14c-.486,7.682-7.055,13.347-14.22,12.674-7.551-.709-13.172-7.08-12.551-14.225a13.377,13.377,0,0,1,14.259-12.446" transform="translate(-139.309 -67.839)" fill="#5d9cec"/>
      </g>
    </g>
  </g>
</svg>
