<svg xmlns="http://www.w3.org/2000/svg" xmlns:xlink="http://www.w3.org/1999/xlink" width="70" height="70" viewBox="0 0 70 70">
  <defs>
    <clipPath id="clip-path">
      <rect id="Rectangle_377801" data-name="Rectangle 377801" width="43" height="43" fill="#fff"/>
    </clipPath>
  </defs>
  <g id="Group_1073938" data-name="Group 1073938" transform="translate(-610 -2413)">
    <g id="Group_1073930" data-name="Group 1073930" transform="translate(341 1455)">
      <path id="Path_609168" data-name="Path 609168" d="M35,0A35,35,0,1,1,0,35,35,35,0,0,1,35,0Z" transform="translate(269 958)" fill="#03386e"/>
    </g>
    <g id="Group_1073935" data-name="Group 1073935" transform="translate(487.503 -46.15)">
      <g id="Group_1072427" data-name="Group 1072427" transform="translate(137.497 2474.15)">
        <g id="Group_1072426" data-name="Group 1072426" clip-path="url(#clip-path)">
          <path id="Path_609434" data-name="Path 609434" d="M7.91,14.412H1.028A1.028,1.028,0,0,1,0,13.384V4.419A4.42,4.42,0,0,1,4.415,0h.108A4.42,4.42,0,0,1,8.938,4.419v8.966A1.028,1.028,0,0,1,7.91,14.412M2.055,12.357H6.882V4.419A2.362,2.362,0,0,0,4.523,2.059H4.415A2.362,2.362,0,0,0,2.055,4.419Z" transform="translate(0 -0.004)" fill="#fff"/>
          <path id="Path_609435" data-name="Path 609435" d="M198.06,65.277h-5.83a1.028,1.028,0,0,1,0-2.055h5.83a1.028,1.028,0,0,1,0,2.055" transform="translate(-173.584 -57.397)" fill="#fff"/>
          <path id="Path_609436" data-name="Path 609436" d="M150.778,139.825H134.266a1.028,1.028,0,1,1,0-2.055h16.512a1.028,1.028,0,0,1,0,2.055" transform="translate(-120.961 -125.075)" fill="#fff"/>
          <path id="Path_609437" data-name="Path 609437" d="M150.778,205.779H134.266a1.028,1.028,0,0,1,0-2.055h16.512a1.028,1.028,0,0,1,0,2.055" transform="translate(-120.961 -184.952)" fill="#fff"/>
          <path id="Path_609438" data-name="Path 609438" d="M147.541,271.734H134.266a1.028,1.028,0,1,1,0-2.055h13.275a1.028,1.028,0,1,1,0,2.055" transform="translate(-120.961 -244.83)" fill="#fff"/>
          <path id="Path_609439" data-name="Path 609439" d="M306.993,234.106a10.106,10.106,0,0,1-7.337-7.337.307.307,0,0,0-.6,0,10.106,10.106,0,0,1-7.337,7.337.307.307,0,0,0,0,.6,10.105,10.105,0,0,1,7.337,7.337.307.307,0,0,0,.6,0,10.105,10.105,0,0,1,7.337-7.337.307.307,0,0,0,0-.6" transform="translate(-264.619 -205.654)" fill="#fff"/>
          <path id="Path_609440" data-name="Path 609440" d="M257.793,363.954a6.093,6.093,0,0,1-4.424-4.424.185.185,0,0,0-.362,0,6.093,6.093,0,0,1-4.424,4.424.185.185,0,0,0,0,.362,6.093,6.093,0,0,1,4.424,4.424.185.185,0,0,0,.362,0,6.093,6.093,0,0,1,4.424-4.424.185.185,0,0,0,0-.362" transform="translate(-225.547 -326.27)" fill="#fff"/>
          <path id="Path_609441" data-name="Path 609441" d="M70.143,19.622V4.952A4.957,4.957,0,0,0,65.192,0H38.373a1.028,1.028,0,0,0,0,2.055h26.82a2.9,2.9,0,0,1,2.9,2.9V19.083a1.979,1.979,0,0,1,2.055.539" transform="translate(-33.904)" fill="#fff"/>
          <path id="Path_609442" data-name="Path 609442" d="M90.39,151.427c.029-.007.052-.024.08-.032H76.75V128.328a1.028,1.028,0,1,0-2.055,0v23.656a1.468,1.468,0,0,0,1.467,1.467H88.822c0-.005,0-.01,0-.015a2.072,2.072,0,0,1,1.57-2.009" transform="translate(-67.812 -115.57)" fill="#fff"/>
        </g>
      </g>
    </g>
  </g>
</svg>
