<svg xmlns="http://www.w3.org/2000/svg" xmlns:xlink="http://www.w3.org/1999/xlink" width="400" height="605" viewBox="0 0 400 605">
  <defs>
    <clipPath id="clip-path">
      <rect id="Rectángulo_378040" data-name="Rectángulo 378040" width="400" height="605" transform="translate(285 12274)" fill="#fff" stroke="#707070" stroke-width="1"/>
    </clipPath>
    <clipPath id="clip-path-2">
      <rect id="Rectángulo_378070" data-name="Rectángulo 378070" width="575" height="506.662" fill="none"/>
    </clipPath>
  </defs>
  <g id="Enmascarar_grupo_154289" data-name="Enmascarar grupo 154289" transform="translate(-285 -12274)" clip-path="url(#clip-path)">
    <path id="Trazado_610013" data-name="Trazado 610013" d="M188.714,0c48.25,0,92.3,27.428,125.872,72.714,39.254,52.944,64.049,130.46,64.049,216.8,0,159.9-85.031,289.518-189.921,289.518S-53.3,423.871-1.207,289.518,83.824,0,188.714,0Z" transform="translate(302.365 12341.6)" fill="#e1fbff"/>
    <g id="Grupo_1072842" data-name="Grupo 1072842" transform="translate(186 12314.838)">
      <g id="Grupo_1072841" data-name="Grupo 1072841" transform="translate(39 64.5)" clip-path="url(#clip-path-2)">
        <path id="Trazado_610118" data-name="Trazado 610118" d="M147.883,157.044a10.434,10.434,0,0,0-17.567-2.872,16.949,16.949,0,0,0-22.428-8.69,19.927,19.927,0,0,0-36.733,8.605,10.431,10.431,0,0,0-17.489,2.958Z" transform="translate(54.093 -85.407)" fill="#e4e0ff"/>
        <path id="Trazado_610119" data-name="Trazado 610119" d="M331.377,34.14a19.047,19.047,0,0,0-14.445,6.625,31,31,0,0,0-41.016-15.894,36.443,36.443,0,0,0-67.174,15.737,19.077,19.077,0,0,0-31.982,5.408h172.3a19.1,19.1,0,0,0-17.68-11.877" transform="translate(74.817 3.275)" fill="#e4e0ff"/>
        <path id="Trazado_610120" data-name="Trazado 610120" d="M126.1,68.311s-6.173-8.447.992-24.117,8.165-22.039,27.095-20.572c5.848.453,9.147,4.627,5.107,12.328-2.847,5.427,1.867,14.022,2.047,18.68.49,12.794-7.878,14.611-13.421,13.606-18.246-3.3-21.819.074-21.819.074" transform="translate(52.329 9.912)" fill="#152a3b"/>
        <path id="Trazado_610121" data-name="Trazado 610121" d="M144.65,46.167s12.439,9.492,24.591,11.426c18.073,2.878,22.11,2.444,26.6.958s6.352.917,5.753,3.528.8,13.359-21.921,15.518-40.839-4.833-39.867-14.307a54.71,54.71,0,0,1,4.841-17.123" transform="translate(59.161 19.541)" fill="#0c5e46"/>
        <path id="Trazado_610122" data-name="Trazado 610122" d="M127.161,47.483s-12.35,25.19-12.35,40.133c0,15.387,17.432,23.084,17.432,23.084s8.491-41.929,7.307-48.525-12.39-14.692-12.39-14.692" transform="translate(48.596 20.098)" fill="#0c5e46"/>
        <path id="Trazado_610123" data-name="Trazado 610123" d="M166.016,91.892a112.432,112.432,0,0,1-37.685-1.806S117.9,53.8,124.066,48.589c3.259-2.751,8.762-3.74,14.859-3.712l.159.01c1.187,0,2.4.047,3.618.131h.038c2.242.151,4.513.406,6.736.744l.754.114c4.069.64,11.842,11.947,11.842,11.947s1.594-3.782.534,1.869c-6.018,32.075,24.684,29.7,3.409,32.2" transform="translate(51.687 18.995)" fill="#0c5e46"/>
        <path id="Trazado_610124" data-name="Trazado 610124" d="M143.86,42.614s-1.531,3.414,0,5.3-.021,5.788-3.487,5.655-7.348-2.824-7.466-5.475,3.063-8.658,3.063-8.658Z" transform="translate(56.254 16.692)" fill="#ffc09c"/>
        <path id="Trazado_610125" data-name="Trazado 610125" d="M134.034,29.88s-3.793,9.549,2.5,17.4c2.96,3.691,6.439,3.326,10.67-1.5a13.117,13.117,0,0,0,2.948-5.965,37.287,37.287,0,0,0,.868-5.156c.246-2.731.418-4.123-.865-6.143-2.515-3.957-12.4-7.185-16.124,1.369" transform="translate(56.253 10.361)" fill="#ffd8bc"/>
        <path id="Trazado_610126" data-name="Trazado 610126" d="M159.791,28.359s.238-6.07-9.973-7.081c-5.42-.537-9.755,1.02-16.351,10.837-.995,1.48-6.457,5.707-6.457,5.707s-11.521,5.868-8.191,14.351c3.44,8.763-4.88,8.8-5.084,14.677-.283,8.228,17.543,13.8,24.207-8.934h0v0c11.826-40.654,21.847-29.553,21.847-29.553" transform="translate(48.139 8.967)" fill="#152a3b"/>
        <path id="Trazado_610127" data-name="Trazado 610127" d="M150.965,24.559s.763,7.25-5.924,9.109c0,0-2.825.3-3.165,2.212s.595,5.233-1.729,9.143-3.666,1.818-6.244,9.234c-2.042,5.882-6.711-.353-1.775-9.347s7.753-22.714,18.837-20.351" transform="translate(54.999 10.281)" fill="#152a3b"/>
        <path id="Trazado_610128" data-name="Trazado 610128" d="M575,350.722c0,7.173-128.719,12.989-287.5,12.989S0,357.895,0,350.722s128.719-12.989,287.5-12.989S575,343.548,575,350.722" transform="translate(0 142.951)" fill="#edebff"/>
        <path id="Trazado_610129" data-name="Trazado 610129" d="M64.725,380.909H460.632s-3.308-31.429-23.887-30.069S425.553,317.276,399.63,284.1c-19.11-24.453-60.041-24.911-83.738,7.193s-134.652-9.57-166.941,14.883S129.4,353.726,105.883,349.65s-39.2,14.97-41.158,31.259" transform="translate(27.396 112.764)" fill="#d7d1ff"/>
        <path id="Trazado_610130" data-name="Trazado 610130" d="M370.816,457.724V81.049a2.849,2.849,0,0,0-2.849-2.849H103.552a2.849,2.849,0,0,0-2.849,2.849V457.724a2.849,2.849,0,0,0,2.849,2.849H367.967a2.849,2.849,0,0,0,2.849-2.849" transform="translate(42.624 33.1)" fill="#03386e"/>
        <rect id="Rectángulo_378054" data-name="Rectángulo 378054" width="240.186" height="350.969" transform="translate(159.863 128.652)" fill="#8d81e3"/>
        <rect id="Rectángulo_378055" data-name="Rectángulo 378055" width="237.042" height="347.67" transform="translate(159.863 128.652)" fill="#fff"/>
        <rect id="Rectángulo_378056" data-name="Rectángulo 378056" width="140.156" height="24.63" transform="translate(194.119 226.258)" fill="#d7d1ff"/>
        <rect id="Rectángulo_378057" data-name="Rectángulo 378057" width="140.156" height="24.63" transform="translate(194.119 287.103)" fill="#d7d1ff"/>
        <rect id="Rectángulo_378058" data-name="Rectángulo 378058" width="23.625" height="24.792" transform="translate(355.262 287.103)" fill="#d7d1ff"/>
        <rect id="Rectángulo_378059" data-name="Rectángulo 378059" width="140.156" height="24.63" transform="translate(194.119 347.948)" fill="#d7d1ff"/>
        <rect id="Rectángulo_378060" data-name="Rectángulo 378060" width="23.625" height="24.792" transform="translate(355.262 347.948)" fill="#d7d1ff"/>
        <rect id="Rectángulo_378061" data-name="Rectángulo 378061" width="140.156" height="24.63" transform="translate(194.119 408.794)" fill="#d7d1ff"/>
        <rect id="Rectángulo_378062" data-name="Rectángulo 378062" width="23.625" height="24.792" transform="translate(355.262 408.794)" fill="#d7d1ff"/>
        <path id="Trazado_610131" data-name="Trazado 610131" d="M257.125,87.108l-.47-2.377-.228-1.124-.74-3.743-3.316-16.709c-.825-4.17-3.046-6.974-5.536-6.974h-80.3c-2.491,0-4.711,2.8-5.551,6.974l-3.316,16.709-.74,3.743-.228,1.124-.47,2.377-1.21,6.106H258.349ZM206.67,75.522a4.5,4.5,0,1,1,4.512-4.5,4.5,4.5,0,0,1-4.512,4.5" transform="translate(65.615 23.779)" fill="#03386e"/>
        <path id="Trazado_610132" data-name="Trazado 610132" d="M256.765,78.951H155.87l.47-2.377.228-1.124h99.5l.228,1.124Z" transform="translate(65.975 31.935)" fill="#8d81e3"/>
        <path id="Trazado_610133" data-name="Trazado 610133" d="M263.273,11.013A11.013,11.013,0,1,1,252.26,0a11.013,11.013,0,0,1,11.013,11.013" transform="translate(102.112 0)" fill="#ffcc26"/>
        <rect id="Rectángulo_378063" data-name="Rectángulo 378063" width="147.077" height="24.63" transform="matrix(0.987, -0.159, 0.159, 0.987, 183.675, 174.801)" fill="#d7d1ff"/>
        <path id="Trazado_610134" data-name="Trazado 610134" d="M178.331,75.081H125.19a2.219,2.219,0,1,0,0,4.438h53.141a2.219,2.219,0,0,0,0-4.438" transform="translate(52.049 31.779)" fill="#c6bff5"/>
        <path id="Trazado_610135" data-name="Trazado 610135" d="M230.333,47.653H167.769a5.412,5.412,0,0,0-4.859,3.03L143.082,91.13h70.052l19.5-39.782a2.565,2.565,0,0,0-2.3-3.695" transform="translate(60.562 20.17)" fill="#d7d1ff"/>
        <path id="Trazado_610136" data-name="Trazado 610136" d="M179.744,65.538a2.673,2.673,0,1,1-1.083-3.844,2.833,2.833,0,0,1,1.083,3.844" transform="translate(73.918 26.011)" fill="#c6bff5"/>
        <path id="Trazado_610137" data-name="Trazado 610137" d="M115.615,72.577h0a4.758,4.758,0,0,0-4.744,4.744L42.314,463.358a4.744,4.744,0,1,0,9.489,0L120.359,77.321a4.758,4.758,0,0,0-4.744-4.744" transform="translate(17.91 30.719)" fill="#edebff"/>
        <path id="Trazado_610138" data-name="Trazado 610138" d="M168.107,72.577h0a4.758,4.758,0,0,0-4.744,4.744L94.806,463.358a4.744,4.744,0,1,0,9.489,0L172.851,77.321a4.758,4.758,0,0,0-4.744-4.744" transform="translate(40.128 30.719)" fill="#edebff"/>
        <rect id="Rectángulo_378064" data-name="Rectángulo 378064" width="77.782" height="10.35" transform="translate(75.17 417.295)" fill="#edebff"/>
        <rect id="Rectángulo_378065" data-name="Rectángulo 378065" width="77.782" height="10.35" transform="translate(91.277 334.045)" fill="#edebff"/>
        <rect id="Rectángulo_378066" data-name="Rectángulo 378066" width="77.782" height="10.35" transform="translate(107.383 250.794)" fill="#edebff"/>
        <rect id="Rectángulo_378067" data-name="Rectángulo 378067" width="77.782" height="10.35" transform="translate(123.49 167.544)" fill="#edebff"/>
        <path id="Trazado_610139" data-name="Trazado 610139" d="M173.475,259.2s-1.156,4.576-1.011,5.635,3.322,7.846,3.322,7.846,5.969-2.119,6.5-4.912-5.777-8.569-5.777-8.569Z" transform="translate(72.993 109.712)" fill="#ffd8bc"/>
        <rect id="Rectángulo_378068" data-name="Rectángulo 378068" width="19.996" height="119.406" transform="matrix(0.986, -0.165, 0.165, 0.986, 239.308, 379.065)" fill="#edebff"/>
        <path id="Trazado_610140" data-name="Trazado 610140" d="M176,260.559s-1.156,3.47.962,4.626a22.872,22.872,0,0,1,2.6,1.54s.867,3.467,1.734,3.37.675-4.815,0-5.488-3.948-5.778-3.948-5.778Z" transform="translate(74.364 109.553)" fill="#ffd8bc"/>
        <path id="Trazado_610141" data-name="Trazado 610141" d="M220.164,214.564c-2.506-2.438-5.5-7.361-8.947-6.8-3.8.622-16.154,5.525-26.957,18.366-14.513,17.251-15.571,54.837-10.578,56.622a11.283,11.283,0,0,0,6.3-.407,2.461,2.461,0,0,0,1.345-2.114c.236-6.237,3.617-30.341,8.8-35.552,26.619-26.777,44.52-16.036,30.041-30.118" transform="translate(72.37 87.922)" fill="#0fa528"/>
        <rect id="Rectángulo_378069" data-name="Rectángulo 378069" width="24.792" height="24.792" transform="translate(338.677 234.782) rotate(-71.449)" fill="#d7d1ff"/>
        <path id="Trazado_610142" data-name="Trazado 610142" d="M198.575,278.51c2.176,36.638,9.98,105.221,9.98,105.221a1.306,1.306,0,0,0,.24.084c4.839,1.692,5.329.048,6.941.226.78.084,8.256-80.762,5.756-129.507l-23.978,5.579c-2.078,13.811.249,12.96,1.06,18.4" transform="translate(83.246 107.736)" fill="#0f1d29"/>
        <path id="Trazado_610143" data-name="Trazado 610143" d="M197.329,280.192c.175,28.544-24.009,80.729-26.927,91.7-.868,2.97,3.164,5.861,4.657,6.6.723.353,42.917-58.563,50.6-121.383l-26.123,2.8c-4.727,9.308-2.758,15.37-2.207,20.283" transform="translate(72.074 108.824)" fill="#152a3b"/>
        <path id="Trazado_610144" data-name="Trazado 610144" d="M193.5,215.582s3.352-6.131,3.079-11.259a60.509,60.509,0,0,1,.016-8.131l9.842,5.324.262,12.836Z" transform="translate(81.902 83.041)" fill="#ffceab"/>
        <path id="Trazado_610145" data-name="Trazado 610145" d="M222.856,222.781c3.819,13.243,6.578,49.016,2.26,55.086s-26.868,6.056-32.624,3.339c-5.25-2.478,1.227-9.949-2.494-44.5a49.243,49.243,0,0,1,.07-5.418c0-25.716,25.38-34.183,32.788-8.51" transform="translate(80.389 87.722)" fill="#0fa528"/>
        <path id="Trazado_610146" data-name="Trazado 610146" d="M205.7,184.265s2.5.629,3.839,4.553c2.089,6.126,2.008,4.641,5.038,10.828.626,1.281,1.483,7.688.648,10.351-.525,1.672-4.463,2.908-4.463,2.908-1.376.353-5.787.854-12.005-4.348-2.365-1.98-11.073-15.334-10.635-16.481s11.642-12.4,17.579-7.811" transform="translate(79.62 77.53)" fill="#ffd8bc"/>
        <path id="Trazado_610147" data-name="Trazado 610147" d="M193.206,198.711s4.115-.559,5.815-1.883,10.7-6.971,11.658-10.519a6.442,6.442,0,0,0-1.413-5.945,11.756,11.756,0,0,1-4.443,2.257c-3.508.868-18.554,3.059-18.179,12.136,0,0,4.547,4.34,6.563,3.954" transform="translate(78.997 76.342)" fill="#152a3b"/>
        <path id="Trazado_610148" data-name="Trazado 610148" d="M201.128,191.157s.558-.539-.08,1.1c0,0,.882,5.731,1.107,6.987a2.3,2.3,0,0,1-.528,1.768,4.544,4.544,0,0,0-2.182-3.224,1.7,1.7,0,0,0-1.349-.009,1.878,1.878,0,0,0-1.156,2.025,4.043,4.043,0,0,0,1.539,2.266,3.676,3.676,0,0,1,1.057,4.313l-.148.336s-10.46-8.643-12.371-13.56,3.641-5.645,3.641-5.645Z" transform="translate(78.989 79.369)" fill="#152a3b"/>
        <path id="Trazado_610149" data-name="Trazado 610149" d="M194.969,211.347s-4.627,7.462-4.943,20.39c0,0,24.7-22.227,21.275-25.542,0,0-10.613,2.216-16.332,5.152" transform="translate(80.432 87.276)" fill="#0fa528"/>
        <path id="Trazado_610150" data-name="Trazado 610150" d="M224.644,352.3s.918-.208-5.638-2.106c-4.552-1.317-5.978-2.773-6.442-4.885h-7.276s-1.119,7.169,0,7.169,19.473.445,19.355-.178" transform="translate(86.682 146.158)" fill="#0f1d29"/>
        <path id="Trazado_610151" data-name="Trazado 610151" d="M179.684,358.512s.961.743-1.419-5.838c-1.652-4.569-2.092-8.833-.621-10.492l-6.427-4.735s-3.148,6.8-2.474,7.733,10.5,13.807,10.941,13.333" transform="translate(71.383 142.83)" fill="#0f1d29"/>
        <path id="Trazado_610152" data-name="Trazado 610152" d="M244.829,175.969s7.475-6.05,7-7.474-3.856-8.421-4.448-8.659-4.152-.058-4.507.534-6.167,6.247-6.109,7.482,1.817,7.815,1.817,7.815Z" transform="translate(100.215 67.611)" fill="#ffd8bc"/>
        <path id="Trazado_610153" data-name="Trazado 610153" d="M207.187,239.391c2.29,2.642,6.575,2.152,9.845.908,5.038-1.917,15.544-7.442,30.021-19.522,12.572-10.488,17.125-46.154,12.918-49.38-1.6-1.224-4.576-.971-6.245-.3a2.462,2.462,0,0,0-1.519,1.993c-.764,6.194-8.306,25.683-11.682,30.064-5.028,6.524-18.209,13.349-33,17.852-10.125,3.084-7.086,10.608-.342,18.387" transform="translate(85.073 72.182)" fill="#0fa528"/>
        <path id="Trazado_610154" data-name="Trazado 610154" d="M194.5,136.827s-.107-5.538.712-6.315c1.322-1.257,4.12-4.173,4.428-4.122a1.3,1.3,0,0,1,.666,1.282c-.1.512-.929,2.832-.929,2.832l8.6-1.385s-1.348,3.881-2.829,5.394c-.433.441-5.934,5.381-5.934,5.381Z" transform="translate(82.325 53.497)" fill="#ffceab"/>
        <path id="Trazado_610155" data-name="Trazado 610155" d="M111.953,118.611s3.107-4.456,6.309-4.634,9.429,1.61,10.141,2.317,1.067,3.013,1.067,3.013h-8.759Z" transform="translate(47.386 48.237)" fill="#ffceab"/>
        <path id="Trazado_610156" data-name="Trazado 610156" d="M134.146,174.1s-24.433-17.765-27.735-30.6c-2.818-10.952,5.035-26.96,8.143-26.262s6.843,5.871,6.843,5.871-2.432,6.04-1.26,10.882c2.817,11.641,26.609,20.475,26.609,20.475l3.649,5.283" transform="translate(44.786 49.613)" fill="#6debff"/>
        <path id="Trazado_610157" data-name="Trazado 610157" d="M150.958,198.091s3.856,3.925-15.089,27.69c-20.035,37.475-27.925,103.839-27.925,103.839h-7.276S98.508,225.781,123.059,190.1Z" transform="translate(42.589 80.462)" fill="#0f1d29"/>
        <path id="Trazado_610158" data-name="Trazado 610158" d="M156.435,190.039s-54.575-12.869-70.469-7.176c-9.886,3.543,2.088,68.91,2.088,68.91h6.677s5.112-36.767,3.689-46.968c-.5-3.585,16.244,11.977,38.286,11.778,11.139-.1,15.561-18.343,15.561-18.343Z" transform="translate(34.731 76.785)" fill="#152a3b"/>
        <path id="Trazado_610159" data-name="Trazado 610159" d="M77.586,236.656s-.919-.208,5.638-2.105c4.55-1.318,5.976-2.774,6.442-4.886h7.276s1.117,7.169,0,7.169-19.473.446-19.355-.178" transform="translate(32.821 97.21)" fill="#152a3b"/>
        <path id="Trazado_610160" data-name="Trazado 610160" d="M92.19,295.118s-.918-.208,5.638-2.106c4.552-1.316,5.978-2.772,6.442-4.885h7.276s1.119,7.169,0,7.169-19.473.445-19.355-.178" transform="translate(39.002 121.955)" fill="#0f1d29"/>
        <path id="Trazado_610161" data-name="Trazado 610161" d="M123.916,117.489s.084.726.485.9,5.648,1.823,5.737,2.179.178,1.913-.312,1.913-8.228,1.129-8.628.9a8.208,8.208,0,0,0-2.4,0l-6.843-5.872s10.1-2.125,11.963-.021" transform="translate(47.386 49.336)" fill="#ffceab"/>
        <path id="Trazado_610162" data-name="Trazado 610162" d="M142.681,169.674c.7,3.426,5.648,12.381,9.106,12.9,5.33.8,23.818-2.185,38.63-8.718,14.981-6.607,33.7-32.653,31.619-37.527-.791-1.85-3.511-3.091-5.293-3.328-.891-.118-1,.312-1.539,1.035-3.706,5.023-20.6,18.259-25.694,20.42-7.583,3.218-21.8,3.827-36.89.5-10.334-2.282-12,4.633-9.94,14.721" transform="translate(60.066 56.287)" fill="#6debff"/>
        <path id="Trazado_610163" data-name="Trazado 610163" d="M163.646,128.676s1.869,1.773,1.11,5.85c-1.183,6.362-.527,5.031-.924,11.908-.081,1.423-2.479,7.428-4.513,9.337-1.278,1.2-5.317.343-5.317.343-1.371-.367-5.461-2.094-8.326-9.678-1.09-2.886-2.125-18.794-1.18-19.58s16.23-5.091,19.15,1.82" transform="translate(61.004 52.828)" fill="#ffceab"/>
        <path id="Trazado_610164" data-name="Trazado 610164" d="M140.563,153.791s3.884-11.528,6.163-16.13,3.924-1.513,3.924-1.513l5.391,6.139-2.59,14.644Z" transform="translate(59.496 57.198)" fill="#ffceab"/>
        <path id="Trazado_610165" data-name="Trazado 610165" d="M142.851,149.547s-.137-18.491,2.185-22.411,14.283-3.823,20.442-.658a11.1,11.1,0,0,0,6.076,1.334,6.192,6.192,0,0,1-4.182,4.347,10.19,10.19,0,0,0-5.781,5.892c-.178.881-5.343,11.645-7.758,12.762s-9.789,1.459-10.982-1.267" transform="translate(60.464 52.547)" fill="#152a3b"/>
        <path id="Trazado_610166" data-name="Trazado 610166" d="M180.173,171.107c-3.352,13.37-27.036,48.227-34.05,50.738-15.659,5.6-38.632-17.35-33.692-21.367,8.9-7.234,6.985-14.245,15.713-36.04,7.313-18.265,14.475-21.716,16.089-21.027,28.2,12.044,41.39,5.948,35.94,27.7" transform="translate(47.299 60.667)" fill="#6debff"/>
        <path id="Trazado_610167" data-name="Trazado 610167" d="M155.425,138.6s-.031-3.357-1.455-3.467-2.9,5.76-2.135,6.472a4.063,4.063,0,0,0,2.077.831Z" transform="translate(64.178 57.197)" fill="#ffceab"/>
      </g>
    </g>
  </g>
</svg>
