<svg xmlns="http://www.w3.org/2000/svg" xmlns:xlink="http://www.w3.org/1999/xlink" width="141" height="141" viewBox="0 0 141 141">
  <defs>
    <clipPath id="clip-path">
      <rect id="Rectángulo_378041" data-name="Rectángulo 378041" width="94.722" height="94.728" fill="none"/>
    </clipPath>
  </defs>
  <g id="Grupo_1073646" data-name="Grupo 1073646" transform="translate(-317 -14089)">
    <g id="Grupo_1071492" data-name="Grupo 1071492" transform="translate(48 13131)">
      <circle id="Elipse_5614" data-name="Elipse 5614" cx="70.5" cy="70.5" r="70.5" transform="translate(269 958)" fill="#fff"/>
    </g>
    <g id="Grupo_1072820" data-name="Grupo 1072820" transform="translate(340.139 14114.836)">
      <g id="Grupo_1072819" data-name="Grupo 1072819" clip-path="url(#clip-path)">
        <path id="Trazado_610015" data-name="Trazado 610015" d="M.051,58.42Q.045,31.034.043,3.648C.044,1.062,1.1.009,3.682.008q42.38-.005,84.76,0,0,26.665-.008,53.33c0,.473.027.949-.01,1.42-.2,2.529-1.41,3.647-3.948,3.651q-2.919,0-5.838,0c.028-.524.017-1.053.089-1.571a24.44,24.44,0,0,0-2.736-15.059A25.978,25.978,0,0,0,63.631,30.342l9.019-8.786c0,.99.043,1.862-.01,2.728-.077,1.252.818,1.008,1.49.959s1.7.492,1.687-.92c-.027-2.26,0-4.521-.015-6.781a1.556,1.556,0,0,0-1.633-1.736c-2.312-.044-4.626-.02-6.939-.014-.354,0-.7-.031-.873.455-.587,1.619.108,2.7,1.79,2.7.6,0,1.2,0,1.8,0l.276.5a13.474,13.474,0,0,0-1.476,1.135c-2.81,2.831-5.6,5.687-8.39,8.534L55.4,28.354c-2.522-4.539-5.444-8.832-8.161-13.25a2.088,2.088,0,0,0-2.038-.9c-2.414.008-4.828-.014-7.242-.023-.013-1.5,0-3.008-.045-4.511-.054-2.011-1.052-3.039-3.142-3.3-6.309-.017-12.619-.054-18.928-.039a2.957,2.957,0,0,0-3.166,3.163c-.023,4.206.021,8.412.039,12.619.261,2.059,1.267,3.122,3.2,3.134q9.367.054,18.736,0a3.1,3.1,0,0,0,3.258-3.284c.048-1.52.033-3.043.046-4.564,1.787-.01,3.581.065,5.36-.059a2.435,2.435,0,0,1,2.512,1.423C47.779,22,49.8,25.2,51.8,28.408c-.565.1-1.128.207-1.7.29A24.434,24.434,0,0,0,34.78,37.019c-1.523-.466-2.149-1.9-3.14-2.933-1.148-1.2-2.068-1.239-3.187-.022q-5.172,5.626-10.33,11.265c-1.986,2.169-3.937,4.371-5.961,6.5-.925.975-.083,1.409.492,1.838.513.383.912,1.445,1.873.378C19.1,48.976,23.73,43.961,28.314,38.9c1.606-1.773,1.567-1.8,3.248-.027a7.557,7.557,0,0,0,.715.6c.248.648-.194,1.107-.466,1.594a27.329,27.329,0,0,0-2.7,6.857A29.635,29.635,0,0,0,28.764,58.4l-18.779.013c-2.053,0-2.054,0-2.054-2.11,0-12.993-.017-25.987.029-38.98,0-1.237-.315-1.573-1.555-1.58-1.283-.008-1.719.283-1.664,1.637.113,2.784.037,5.575.034,8.363Q4.75,42.073,4.723,58.406L.051,58.42" transform="translate(-0.029 -0.005)" fill="#e4e4e4"/>
        <path id="Trazado_610016" data-name="Trazado 610016" d="M96.332,98.41a24.431,24.431,0,0,1,15.323-8.321c.567-.084,1.131-.193,1.7-.291l3.606-.054,4.953.761a14.024,14.024,0,0,0,3.273,1.227,25.976,25.976,0,0,1,12.361,11.442,24.44,24.44,0,0,1,2.736,15.059c-.072.518-.062,1.047-.089,1.571a38.465,38.465,0,0,1-2.93,7.827l-1.2,1.915-3.524,4.054-2.77,2.245a27.025,27.025,0,0,1-19.863,4.069,8.571,8.571,0,0,0-3.342-.889c-.311-.582-.958-.6-1.463-.823a26.383,26.383,0,0,1-11.84-10.57l-2-4.666-.948-3.177a29.625,29.625,0,0,1,.341-10.479,27.337,27.337,0,0,1,2.7-6.857c.273-.487.715-.945.467-1.594,1.314-.326,1.547-1.758,2.5-2.45m4.057,4.946a9.3,9.3,0,0,0-1.963,3.083,17.642,17.642,0,0,0-1.442,13.351,6.688,6.688,0,0,0,1.132,3.174,15.239,15.239,0,0,0,5.148,6.625,17.557,17.557,0,0,0,16.319,3.86c10.181-2.544,16.108-11.654,14.25-21.957a17.5,17.5,0,0,0-9.4-12.879,10.9,10.9,0,0,0-4.748-1.889,8.537,8.537,0,0,0-3.809-.562,18.346,18.346,0,0,0-15.486,7.192" transform="translate(-61.581 -61.395)" fill="#4e6db5"/>
        <path id="Trazado_610017" data-name="Trazado 610017" d="M239.578,66.236a38.464,38.464,0,0,0,2.93-7.827q2.919,0,5.838,0c2.538,0,3.752-1.122,3.948-3.651.037-.471.01-.946.01-1.42q0-26.665.008-53.33c.735,0,1.471-.007,2.206-.006,3.023,0,4.1,1.059,4.1,4.032q0,11.189,0,22.378,0,17.965,0,35.93c0,2.726-1.218,3.964-3.915,3.957q-7.562-.018-15.125-.061" transform="translate(-163.898 -0.001)" fill="#d5d5d5"/>
        <path id="Trazado_610018" data-name="Trazado 610018" d="M20.088,255.68c-.017-4.206-.061-8.412-.04-12.618a2.972,2.972,0,0,1,3.167-3.164c6.309-.013,12.619.023,18.928.04q0,5.982-.01,11.964c-.005,2.481-1.294,3.765-3.785,3.768q-9.13.012-18.26.01m12.491-7.9c2.257,0,4.516-.053,6.77.022,1.184.039,1.277-.6,1.209-1.475-.061-.774.316-1.734-1.116-1.719q-6.77.071-13.541,0c-1.422-.016-1.078.923-1.13,1.707-.057.866,0,1.529,1.2,1.488,2.2-.074,4.408-.021,6.612-.021m0,6.314c2.257,0,4.516-.053,6.77.022,1.185.039,1.277-.6,1.209-1.475-.06-.774.316-1.734-1.116-1.719q-6.77.071-13.541,0c-1.422-.016-1.078.923-1.13,1.707-.057.866,0,1.528,1.2,1.488,2.2-.075,4.408-.021,6.613-.021" transform="translate(-13.711 -164.115)" fill="#4c6cb4"/>
        <path id="Trazado_610019" data-name="Trazado 610019" d="M242.657,231.675a9.3,9.3,0,0,0,.917-.856c.481-.582.855-.56,1.393-.014,3.351,3.4,6.745,6.753,10.1,10.149a5.179,5.179,0,0,1,1.464,2.553,4.913,4.913,0,0,0-.6.693,6.446,6.446,0,0,1-10.38,1.352c-2.372-2.362-4.731-4.737-7.107-7.1-.4-.394-.709-.936-1.373-.957l5.591-5.825" transform="translate(-162.179 -157.611)" fill="#5f87c9"/>
        <path id="Trazado_610020" data-name="Trazado 610020" d="M29.683,188.047l2,4.666c-9.508.021-19.015.057-28.523.047a3.243,3.243,0,0,1-3.133-3.14c-.049-1.574,0-3.152,0-4.728l4.672-.015c.165,3.15.179,3.163,3.423,3.163l21.566.006" transform="translate(0 -126.476)" fill="#d5d5d5"/>
        <path id="Trazado_610021" data-name="Trazado 610021" d="M20.186,255.773q9.13,0,18.26-.01c2.491,0,3.78-1.287,3.785-3.768q.014-5.982.01-11.964c2.09.259,3.091,1.29,3.143,3.3.039,1.5.03,3.008.042,4.512v3.22c-.012,1.522,0,3.045-.044,4.565a3.1,3.1,0,0,1-3.259,3.283q-9.369.054-18.738,0c-1.929-.011-2.94-1.079-3.2-3.135" transform="translate(-13.809 -164.208)" fill="#3c5892"/>
        <path id="Trazado_610022" data-name="Trazado 610022" d="M232.694,252.9c.664.021.977.563,1.373.957,2.376,2.357,4.735,4.733,7.107,7.1a6.446,6.446,0,0,0,10.38-1.352,4.919,4.919,0,0,1,.6-.694A6.677,6.677,0,0,1,241,265.663c-3.3-3.225-6.517-6.539-9.813-9.771-1.435-1.407.586-1.593.76-2.419l.747-.571" transform="translate(-157.807 -173.013)" fill="#4e6db5"/>
        <path id="Trazado_610023" data-name="Trazado 610023" d="M100.09,254.971v-3.22c2.314,0,4.784.5,6.9-.148,2.072-.64,3.274-2.992,4.943-4.5.5-.456,1.016-.9,1.525-1.353a8.566,8.566,0,0,1,3.343.889q-3.792,3.864-7.588,7.725a2.447,2.447,0,0,1-1.891.585c-2.409-.007-4.818.014-7.228.024" transform="translate(-68.473 -168.119)" fill="#949494"/>
        <path id="Trazado_610024" data-name="Trazado 610024" d="M222.557,235.806l-.747.571-5.952-6.01,2.77-2.245c.671.729,1.356,1.445,2.007,2.191.847.972,1.594.891,2.5,0,.877-.858,1.526-2.012,2.808-2.4l2.2,2.068-5.591,5.826" transform="translate(-147.671 -155.917)" fill="#efae44"/>
        <path id="Trazado_610025" data-name="Trazado 610025" d="M231.943,219.586c-1.282.392-1.931,1.546-2.808,2.4-.907.888-1.655.968-2.5,0-.65-.747-1.336-1.462-2.007-2.191l3.523-4.054a31.432,31.432,0,0,1,3.793,3.844" transform="translate(-153.67 -147.591)" fill="#f7d168"/>
        <path id="Trazado_610026" data-name="Trazado 610026" d="M40.075,35.8c-.017-4.206-.062-8.412-.039-12.619A2.957,2.957,0,0,1,43.2,20.021c6.31-.015,12.619.022,18.929.039q0,5.982-.011,11.964c-.006,2.481-1.295,3.765-3.785,3.768q-9.13.012-18.26.011m12.414-7.9c2.257,0,4.516-.062,6.77.024,1.262.048,1.339-.612,1.3-1.558-.038-.842.157-1.664-1.206-1.645q-6.691.092-13.383,0c-1.353-.019-1.187.783-1.217,1.635-.033.933.01,1.621,1.285,1.569,2.148-.088,4.3-.024,6.455-.024m.243,3.158c-2.2,0-4.411.058-6.613-.023-1.169-.044-1.444.448-1.375,1.483.06.89-.161,1.75,1.294,1.724q6.611-.118,13.226,0c1.453.027,1.237-.83,1.295-1.723.068-1.033-.2-1.53-1.372-1.485-2.149.082-4.3.023-6.455.023" transform="translate(-27.385 -13.694)" fill="#4c6cb4"/>
        <path id="Trazado_610027" data-name="Trazado 610027" d="M39.848,95.65l-21.566-.006c-3.244,0-3.258-.013-3.423-3.163q.026-16.332.051-32.664c0-2.788.08-5.579-.033-8.363-.055-1.354.381-1.645,1.664-1.637,1.24.007,1.56.343,1.555,1.58-.046,12.993-.028,25.986-.028,38.98,0,2.11,0,2.111,2.053,2.11L38.9,92.473l.948,3.177" transform="translate(-10.165 -34.079)" fill="#3b5891"/>
        <path id="Trazado_610028" data-name="Trazado 610028" d="M40.173,35.894q9.13,0,18.26-.011c2.491,0,3.78-1.287,3.785-3.768q.014-5.982.011-11.964c2.09.26,3.088,1.289,3.142,3.3.04,1.5.031,3.007.044,4.511V31.18c-.013,1.522,0,3.044-.046,4.564a3.1,3.1,0,0,1-3.259,3.283q-9.368.055-18.736,0c-1.935-.011-2.942-1.074-3.2-3.134" transform="translate(-27.483 -13.785)" fill="#3c5892"/>
        <path id="Trazado_610029" data-name="Trazado 610029" d="M60.136,108.837c-.957.692-1.19,2.123-2.5,2.45a7.6,7.6,0,0,1-.715-.595c-1.681-1.776-1.643-1.746-3.248.027-4.584,5.061-9.218,10.075-13.787,15.149-.961,1.066-1.359.005-1.872-.378-.574-.429-1.416-.863-.492-1.838,2.024-2.134,3.975-4.336,5.961-6.505q5.161-5.636,10.33-11.265c1.119-1.216,2.039-1.175,3.187.023.991,1.034,1.617,2.467,3.14,2.933" transform="translate(-25.385 -71.823)" fill="#6189ca"/>
        <path id="Trazado_610030" data-name="Trazado 610030" d="M194.255,64.5a14.037,14.037,0,0,1-3.273-1.227c2.794-2.847,5.579-5.7,8.39-8.534a13.437,13.437,0,0,1,1.476-1.135l-.276-.5c-.6,0-1.2,0-1.8,0-1.682,0-2.377-1.083-1.79-2.7.176-.486.519-.454.873-.455,2.313-.006,4.627-.03,6.939.014a1.556,1.556,0,0,1,1.633,1.735c.019,2.26-.012,4.521.015,6.781.017,1.412-1.026.871-1.687.92s-1.566.293-1.489-.959c.053-.866.01-1.738.01-2.728L194.255,64.5" transform="translate(-130.653 -34.167)" fill="#6189ca"/>
        <path id="Trazado_610031" data-name="Trazado 610031" d="M120.084,48.1V44.877c2.414.01,4.828.031,7.242.023a2.089,2.089,0,0,1,2.038.9c2.717,4.418,5.639,8.711,8.161,13.25l-3.6.054c-1.994-3.211-4.02-6.4-5.965-9.644a2.435,2.435,0,0,0-2.512-1.423c-1.779.124-3.573.049-5.36.059" transform="translate(-82.151 -30.701)" fill="#949494"/>
        <path id="Trazado_610032" data-name="Trazado 610032" d="M133.259,111.841a10.9,10.9,0,0,1,4.748,1.889,1.382,1.382,0,0,0,.442.97,18.781,18.781,0,0,1,4.322,15.2,19.029,19.029,0,0,1-18.387,16.085c-2.613.053-5.048-.747-7.544-1.279a15.24,15.24,0,0,1-5.147-6.625c6.253,0,12.506-.039,18.758.027,1.3.014,1.57-.428,1.585-1.624.016-1.252-.372-1.6-1.614-1.593-6.62.053-13.241.019-19.862.015A17.641,17.641,0,0,1,112,121.555a24.289,24.289,0,0,1,3.725,4.009c1.609,1.8,2.342,1.94,4.058.229q6.285-6.271,12.554-12.558c.4-.4.931-.721.921-1.393" transform="translate(-75.156 -76.512)" fill="#fefefe"/>
        <path id="Trazado_610033" data-name="Trazado 610033" d="M131.954,148.8c2.5.532,4.931,1.332,7.544,1.279a19.029,19.029,0,0,0,18.387-16.085,18.782,18.782,0,0,0-4.322-15.2,1.382,1.382,0,0,1-.442-.97,17.5,17.5,0,0,1,9.4,12.879c1.858,10.3-4.07,19.413-14.25,21.957a17.557,17.557,0,0,1-16.319-3.86" transform="translate(-90.271 -80.602)" fill="#f0f0f1"/>
        <path id="Trazado_610034" data-name="Trazado 610034" d="M137.9,110.567c.01.673-.525,1-.921,1.393q-6.269,6.287-12.554,12.558c-1.716,1.711-2.449,1.569-4.058-.229a24.289,24.289,0,0,0-3.725-4.009A9.3,9.3,0,0,1,118.6,117.2c.773,1.589,2.27,2.59,3.258,4.008.342.491.761.434,1.181.006q5.515-5.611,11.045-11.206a8.537,8.537,0,0,1,3.809.562" transform="translate(-79.795 -75.238)" fill="#c2dbfb"/>
        <path id="Trazado_610035" data-name="Trazado 610035" d="M138.341,110.047q-5.524,5.6-11.045,11.206c-.42.428-.839.485-1.182-.006-.988-1.417-2.485-2.419-3.258-4.007a18.346,18.346,0,0,1,15.486-7.193" transform="translate(-84.046 -75.28)" fill="#fefefe"/>
        <path id="Trazado_610036" data-name="Trazado 610036" d="M112.076,184.822c6.621,0,13.242.038,19.862-.015,1.242-.01,1.631.341,1.614,1.593-.016,1.2-.29,1.638-1.585,1.624-6.252-.066-12.506-.028-18.759-.027a6.686,6.686,0,0,1-1.132-3.174" transform="translate(-76.672 -126.428)" fill="#c2dbfb"/>
        <path id="Trazado_610037" data-name="Trazado 610037" d="M42.786,257.976c-2.2,0-4.41-.053-6.613.021-1.2.04-1.253-.622-1.2-1.488.051-.784-.292-1.723,1.13-1.707q6.77.075,13.541,0c1.432-.015,1.056.945,1.116,1.719.069.879-.024,1.514-1.209,1.475-2.254-.075-4.513-.022-6.77-.022" transform="translate(-23.918 -174.313)" fill="#789fd3"/>
        <path id="Trazado_610038" data-name="Trazado 610038" d="M42.785,277.965c-2.2,0-4.41-.053-6.613.021-1.2.04-1.253-.622-1.2-1.488.052-.784-.292-1.723,1.13-1.707q6.77.075,13.541,0c1.432-.015,1.056.945,1.116,1.719.069.879-.024,1.514-1.209,1.475-2.254-.075-4.513-.022-6.77-.022" transform="translate(-23.918 -187.988)" fill="#789fd3"/>
        <path id="Trazado_610039" data-name="Trazado 610039" d="M62.693,38.085c-2.152,0-4.307-.063-6.455.024-1.276.052-1.319-.635-1.286-1.569.03-.852-.136-1.654,1.217-1.635q6.691.095,13.383,0c1.363-.019,1.168.8,1.206,1.645.042.946-.034,1.606-1.3,1.558-2.254-.086-4.513-.024-6.77-.024" transform="translate(-37.589 -23.879)" fill="#789fd3"/>
        <path id="Trazado_610040" data-name="Trazado 610040" d="M62.92,54.913c2.152,0,4.306.059,6.455-.023,1.172-.045,1.44.452,1.372,1.485-.058.892.158,1.749-1.295,1.723q-6.611-.118-13.226,0c-1.455.026-1.234-.834-1.294-1.724-.069-1.036.206-1.527,1.375-1.483,2.2.082,4.408.023,6.613.023" transform="translate(-37.573 -37.549)" fill="#789fd3"/>
      </g>
    </g>
  </g>
</svg>
