<svg xmlns="http://www.w3.org/2000/svg" xmlns:xlink="http://www.w3.org/1999/xlink" width="203" height="189" viewBox="0 0 203 189">
  <defs>
    <clipPath id="clip-path">
      <rect id="Rect치ngulo_378078" data-name="Rect치ngulo 378078" width="141.046" height="142" fill="none"/>
    </clipPath>
  </defs>
  <g id="Grupo_1073652" data-name="Grupo 1073652" transform="translate(-701 -15407)">
    <g id="Grupo_1071429" data-name="Grupo 1071429" transform="translate(-35 14356)">
      <g id="Grupo_161157" data-name="Grupo 161157" transform="translate(750 1051)">
        <path id="Trazado_608968" data-name="Trazado 608968" d="M94.5,0A94.5,94.5,0,1,1,0,94.5,94.5,94.5,0,0,1,94.5,0Z" fill="#0c5e46"/>
      </g>
    </g>
    <rect id="Rect치ngulo_377358" data-name="Rect치ngulo 377358" width="16" height="5" transform="translate(701 15501)" fill="#0c5e46"/>
    <g id="Grupo_1071497" data-name="Grupo 1071497" transform="translate(726.537 15418.537)">
      <circle id="Elipse_1142" data-name="Elipse 1142" cx="83.5" cy="83.5" r="83.5" transform="translate(-0.537 -0.537)" fill="#e1efe3"/>
    </g>
    <g id="Grupo_1072859" data-name="Grupo 1072859" transform="translate(739 15430.999)">
      <g id="Grupo_1072858" data-name="Grupo 1072858" transform="translate(0 0.001)" clip-path="url(#clip-path)">
        <path id="Trazado_610215" data-name="Trazado 610215" d="M37.1,151.318c-.643,1.719-1.486,1.715-3,1.462-2.239-.374-4.422-1.071-6.651-1.521-1.566-.316-3.125-.681-4.687-1.009a5.09,5.09,0,0,1-4.063-3.4,5.99,5.99,0,0,1-.153-1.759c-.035-2.312-.067-4.626-.067-6.939q0-14.325.02-28.65c0-.358-.08-.524-.453-.6-1.633-.336-3.253-.74-4.892-1.047-1.379-.259-2.71-.737-4.117-.869a11.928,11.928,0,0,1-1.255-.38c-2.1-.447-4.227-.837-6.292-1.424a1.934,1.934,0,0,1-.846-3.321c1.494-1.565,3.057-3.064,4.588-4.594Q11.9,90.6,18.564,83.94a5.041,5.041,0,0,1,2.585-1.312c2.4-.559,4.812-1.071,7.21-1.642,1.442-.343,2.9-.632,4.338-.985a9.506,9.506,0,0,0,1.627-.431c-1.163-1.285-2.374-2.649-3.615-3.982A12.072,12.072,0,0,1,29.033,73.6a5.4,5.4,0,0,1,1.79-7.282,7.656,7.656,0,0,1,3.246-1.043c2.012-.335,4.027-.631,6.059-.826a2,2,0,0,1,2.112,1.182c.111.2.226.407.339.61A2.434,2.434,0,0,1,40.54,68.5c-1.993.249-3.959.672-5.969.814a2.042,2.042,0,0,0-2.1,1.328c-.273.885.4,1.342.894,1.849.721.746,1.5,1.439,2.243,2.163q6.322,6.135,12.646,12.269a5.91,5.91,0,0,1,1.411,1.936,1.335,1.335,0,0,0,1.092.817c2.57.54,5.153,1.033,7.7,1.677,1.052.266,2.114.475,3.166.736,1.786.442,3.565.945,5.376,1.242,1.734.285,3.4,1.134,5.282.456A27.413,27.413,0,0,1,75.461,93c2.55-.581,5.11-1.125,7.655-1.729,2.378-.565,4.754-1.168,7.163-1.611.4-.073.881-.113,1.1-.62.191-.444.458-.855.691-1.281,1.646-1.606,3.218-3.285,4.9-4.853,1.608-1.494,3.091-3.123,4.7-4.613.886-.82,1.776-1.639,2.657-2.465,1.257-1.178,2.458-2.415,3.662-3.649a1.993,1.993,0,0,0,.647-1.163c.079-.826-.42-1.347-1.485-1.574s-2.168-.177-3.243-.388c-1.347-.264-2.732-.34-4.076-.574-1.4-.245-2.817-.378-4.22-.6-1.333-.208-2.711-.248-4.005-.546-1.932-.444-3.909-.512-5.832-.96A5.782,5.782,0,0,1,81.9,63.729c-.448-.748-.826-1.54-1.215-2.322-1.545-3.1-3.074-6.214-4.624-9.314-1.4-2.8-2.715-5.654-4.246-8.393a1.2,1.2,0,0,0-.65-.636c-.934-.328-1.6.023-2.137,1.116Q65.8,50.727,62.549,57.265c-.684,1.377-1.4,2.738-2.075,4.121A9.69,9.69,0,0,1,58,65.119a6.493,6.493,0,0,1-3.218,1.27c-.116.037-.23.082-.348.109-1.408.326-2.874.248-4.278.622a1.8,1.8,0,0,1-1.026-.18c-.787-.271-.959-1.015-1.367-1.58.169-1.6.93-2.194,2.44-2.423s3.008-.424,4.51-.649a1.561,1.561,0,0,0,1.209-.906c.894-1.86,1.871-3.678,2.7-5.572.592-1.348,1.339-2.627,1.986-3.952q1.5-3.077,3.015-6.148a35.044,35.044,0,0,1,2.151-4.205,5.52,5.52,0,0,1,9.364-.237c1.169,1.876,2,3.93,3.027,5.885.815,1.557,1.558,3.15,2.333,4.728,1.494,3.042,3.009,6.075,4.469,9.134A2.239,2.239,0,0,0,86.857,62.4a31.287,31.287,0,0,1,3.284.424c1.735.4,3.513.455,5.259.8,1.243.244,2.534.4,3.808.563,2.429.315,4.863.575,7.277,1.011a10.943,10.943,0,0,1,3.309.82,5.41,5.41,0,0,1,3.047,5.1,5.177,5.177,0,0,1-1.672,3.755c-1.411,1.379-2.839,2.741-4.256,4.114-.147.142-.406.259-.359.482s.327.11.5.163c1.809.556,3.674.875,5.517,1.286,2.385.533,4.736,1.259,7.143,1.639a6.6,6.6,0,0,1,3.746,2.233q8.47,8.5,16.978,16.963a1.909,1.909,0,0,1,.591,1.678c-.144,1.116-.672,1.619-1.912,1.9-1.743.39-3.489.762-5.23,1.159-2.16.493-4.306,1.051-6.477,1.491-1.408.285-2.8.627-4.211.9-.5.1-.587.3-.585.757q.041,16.076.049,32.152a26.465,26.465,0,0,1-.152,4.447,4.459,4.459,0,0,1-2.646,3.459,28.6,28.6,0,0,1-4.634,1.219c-1.566.428-3.163.74-4.743,1.113-1.355.321-2.716.638-4.08.928-2.251.479-4.495.983-6.74,1.488-2.323.522-4.663.986-6.96,1.606-2.47.667-4.985,1.125-7.47,1.718-2.018.481-4.057.91-6.087,1.35s-4.034.886-6.031,1.4a12.364,12.364,0,0,1-2.8.455,9.844,9.844,0,0,1-2.413-.476c-1.761-.413-3.536-.762-5.3-1.161-1.813-.41-3.618-.852-5.428-1.274q-2.084-.484-4.171-.952c-1.978-.448-3.964-.864-5.932-1.351-.847-.21-1.71-.326-2.551-.537-1.471-.369-1.921-1.042-1.973-2.747a2.252,2.252,0,0,1,2.753-1.377c1.605.358,3.2.751,4.809,1.1,1.9.414,3.8.874,5.7,1.3q2.184.491,4.369,1c2.547.593,5.114,1.107,7.64,1.79.731.2.711.226.709-.547q-.021-9.994-.028-19.988a2.167,2.167,0,0,1,2.079-2.469,2.012,2.012,0,0,1,1.529.788A3.121,3.121,0,0,1,72.7,136q-.03,7.54-.022,15.08c0,1.356.012,2.713.019,4.069a2.222,2.222,0,0,0-.036.865c-.136.5.246.443.473.366a12.044,12.044,0,0,1,2.113-.544c.912-.133,1.8-.429,2.706-.625s1.784-.461,2.7-.621,1.779-.508,2.7-.608a20.081,20.081,0,0,1,2.5-.587,7.681,7.681,0,0,0,1.671-.419c1.7-.39,3.406-.743,5.1-1.158.747-.183,1.5-.37,2.244-.561s1.553-.282,2.306-.473c1.29-.329,2.6-.6,3.886-.922,1.258-.313,2.563-.56,3.844-.841,1.967-.433,3.928-.9,5.889-1.363,2.241-.523,4.5-.983,6.733-1.538,1.044-.259.871-.136,1.021-1.307l0-.121c.006-.106.016-.211.016-.317q0-11.445-.008-22.889c0-3.347-.021-6.7-.032-10.043a.071.071,0,0,0,0-.11c0-.093-.008-.186-.012-.28.01-.019.032-.04.028-.056a.734.734,0,0,0-.048-.112.162.162,0,0,0-.05-.2c.2-.217.144-.378-.106-.5-.155-.276-.372-.1-.553-.06-.533.133-1.054.319-1.59.434-2.053.44-4.111.854-6.165,1.29-1.888.4-2.443.188-3.264-1.292-.062-1.311.356-2.07,1.369-2.43a10.922,10.922,0,0,1,1.27-.358c2.537-.569,5.071-1.151,7.615-1.68,1.354-.282,2.731-.523,4.055-.87,2.5-.655,5.041-1.108,7.541-1.752,1.875-.483,3.79-.825,5.671-1.3.18-.045.443,0,.489-.205s-.135-.4-.293-.532c-1.969-1.679-3.7-3.6-5.549-5.4-2.879-2.819-5.725-5.672-8.586-8.509-.115-.114-.205-.252-.408-.269a8.04,8.04,0,0,0-1.911.288c-.8.124-1.542.537-2.357.592a29.356,29.356,0,0,0-3.065.635c-.883.155-1.812.415-2.714.643-1.831.462-3.679.859-5.52,1.279-2.529.577-5.065,1.124-7.586,1.735-1.507.365-3.028.668-4.532,1.054-2.323.6-4.679,1.06-7.019,1.588-1.4.316-2.787.7-4.2.964-2.128.4-4.193,1.077-6.414,1.376.35.332.661.613.956.908q6.8,6.787,13.6,13.583a.749.749,0,0,0,.829.226c1.14-.287,2.3-.483,3.445-.758,1.59-.383,3.206-.661,4.783-1.1s2.37-.121,3.1,1.341a2.1,2.1,0,0,1-1.8,2.646c-1.694.387-3.387.776-5.082,1.155-1.532.343-3.1.563-4.587,1.049a2.282,2.282,0,0,1-2.51-.6c-1.832-1.661-3.556-3.432-5.315-5.167q-4.434-4.374-8.756-8.857c-.172-.179-.331-.381-.644-.359.013.148.026.294.039.439,0,.116-.53.248.01.349l.013,1.053a.063.063,0,0,0,.01.1q0,.208.01.415c-.011.017-.033.037-.03.051a.692.692,0,0,0,.04.11c-.011.126-.031.252-.031.378q-.008,7.949-.012,15.9c0,1.483.022,2.965.033,4.447l-.03.046.029.046q-.018.458-.035.915a.126.126,0,0,0-.025.119,2.423,2.423,0,0,1-2.069,1.931,2.363,2.363,0,0,1-2.095-2.623q.016-11.552.04-23.1a1,1,0,0,0-.062-.614c-.278.011-.4.237-.553.391q-6.353,6.332-12.7,12.668c-.51.509-1.023,1.019-1.569,1.488a1.886,1.886,0,0,1-1.774.658,25.236,25.236,0,0,0-2.526-.591c-1.542-.346-3.078-.72-4.615-1.088-2.557-.612-5.142-1.1-7.7-1.7-1.077-.254-2.181-.49-3.265-.726-1.408-.307-2.829-.6-4.233-.944-1.984-.493-4-.838-5.973-1.4-.9-.257-.924-.226-.924.708q0,16.132-.007,32.265c0,.72.018,1.441.021,2.162a.717.717,0,0,0,.679.766c1.967.371,3.9.889,5.854,1.332s3.917.84,5.856,1.341c1.609.415,2,.909,2.073,2.558M27.415,88.68a4.949,4.949,0,0,0-1.134-.388,28.272,28.272,0,0,1-3.474-.739c-1.625-.358-1.629-.416-2.824.766q-6.462,6.388-12.9,12.795c-.265.263-.8.494-.69.837.121.385.717.351,1.1.438,1.918.437,3.85.81,5.777,1.206a2.364,2.364,0,0,0,.562.23c.644.207,1.34.147,1.966.377a24.806,24.806,0,0,0,2.756.611c1.683.411,3.388.73,5.079,1.112,1.366.308,2.72.669,4.086.976,1.443.325,2.913.546,4.336.94,1.473.408,2.973.7,4.46,1.026,2.064.449,4.113.97,6.185,1.386,1.4.281,2.782.638,4.176.945,1.372.3,2.761.534,4.115.9a.942.942,0,0,0,1.046-.276q2.668-2.642,5.332-5.286,4.153-4.127,8.3-8.261c.262-.262.813-.421.72-.8-.079-.324-.6-.079-.916-.166-1.882-.525-3.811-.848-5.705-1.3a64.838,64.838,0,0,1-6.578-1.61,2.857,2.857,0,0,0-.558-.121c-2.172-.3-4.26-1-6.414-1.391-1.688-.309-3.352-.755-5.025-1.14l-3.3-.759C36,90.548,34.124,90.1,32.239,89.69c-1.6-.354-3.216-.674-4.824-1.01m15.535-.841.071-.166a2.928,2.928,0,0,0-.23-.287c-1.2-1.165-2.476-2.267-3.593-3.51a2.193,2.193,0,0,0-2.407-.624q-2.712.628-5.418,1.281c-.372.09-.8-.028-1.228.384L42.95,87.839m55.023-.072a10.236,10.236,0,0,0,2.156-.357c3.563-.8,7.11-1.676,10.7-2.334.074-.013.178.027.2-.092s-.05-.2-.145-.253a1.709,1.709,0,0,0-.671-.17c-.45-.059-.906-.1-1.348-.194-1.7-.379-3.381-.8-5.081-1.159a1.588,1.588,0,0,0-1.6.454c-1.32,1.365-2.716,2.656-4.214,4.1" transform="translate(0 -18.969)" fill="#060707"/>
        <path id="Trazado_610216" data-name="Trazado 610216" d="M92.235,193.257a2.167,2.167,0,0,0-2.079,2.469q0,9.994.028,19.988c0,.773.022.745-.709.547-2.526-.683-5.093-1.2-7.64-1.79q-2.183-.508-4.369-1c-1.9-.427-3.793-.887-5.7-1.3-1.607-.35-3.2-.743-4.809-1.1a2.251,2.251,0,0,0-2.753,1.377,54.451,54.451,0,0,1-5.45-1.152c-.076-1.649-.463-2.142-2.073-2.558-1.939-.5-3.9-.9-5.856-1.341s-3.886-.961-5.854-1.332a.717.717,0,0,1-.679-.767c0-.72-.021-1.441-.021-2.162q0-16.132.007-32.265c0-.934.022-.965.924-.708,1.97.561,3.99.906,5.973,1.4,1.4.349,2.825.637,4.233.944,1.084.236,2.188.472,3.265.725,2.56.6,5.145,1.091,7.7,1.7,1.537.367,3.073.742,4.615,1.088a25.232,25.232,0,0,1,2.526.591,1.888,1.888,0,0,0,1.774-.658c.546-.469,1.059-.979,1.569-1.488q6.352-6.332,12.7-12.668c.156-.155.275-.381.553-.391a1,1,0,0,1,.062.614q-.018,11.552-.04,23.1a2.364,2.364,0,0,0,2.095,2.623q0,2.755,0,5.511" transform="translate(-21.654 -78.944)" fill="#da8555"/>
        <path id="Trazado_610217" data-name="Trazado 610217" d="M78.789,90.8c.408.565.58,1.309,1.366,1.58a1.8,1.8,0,0,0,1.026.18c1.4-.373,2.87-.3,4.278-.622.118-.028.232-.073.348-.109a9.346,9.346,0,0,0,1.522,4.393A30.451,30.451,0,0,0,89.4,99.6c.75,1.044,1.537,2.054,2.352,3.042a26.556,26.556,0,0,0,4.408,4.175,28.7,28.7,0,0,0,5.4,3.478,36.138,36.138,0,0,0,8,2.733,31.53,31.53,0,0,0,5.639.662,22.052,22.052,0,0,0,6.652-.57,1.677,1.677,0,0,1,1.245.076c-.233.426-.5.837-.691,1.281-.218.507-.7.547-1.1.62-2.409.442-4.785,1.047-7.163,1.611-2.546.6-5.105,1.148-7.655,1.729a27.412,27.412,0,0,0-3.186.793c-1.88.678-3.548-.171-5.282-.456-1.811-.3-3.59-.8-5.376-1.242-1.051-.261-2.114-.47-3.166-.736-2.544-.644-5.126-1.137-7.7-1.677a1.335,1.335,0,0,1-1.092-.817,5.91,5.91,0,0,0-1.411-1.936Q72.94,106.25,66.629,100.1c-.745-.723-1.522-1.416-2.243-2.163-.489-.507-1.166-.964-.894-1.849a2.041,2.041,0,0,1,2.1-1.328c2.01-.143,3.977-.565,5.97-.814A2.433,2.433,0,0,0,73.6,91.686l5.187-.882" transform="translate(-31.024 -44.413)" fill="#faac6a"/>
        <path id="Trazado_610218" data-name="Trazado 610218" d="M224.677,53.9a1.879,1.879,0,0,1,1.848,1.167,1.857,1.857,0,0,1-.441,2.215c-1.283,1.1-2.563,2.206-3.855,3.3-.9.761-1.832,1.484-2.72,2.257-1.5,1.3-3.172.311-3.568-1.282-.146-.587.335-1.139.729-1.585.685-.776,1.612-1.293,2.35-2,1.1-1.054,2.433-1.819,3.465-2.943a2.831,2.831,0,0,1,2.192-1.128" transform="translate(-105.604 -26.36)" fill="#060707"/>
        <path id="Trazado_610219" data-name="Trazado 610219" d="M168.737,43.878c-.163-.616.292-1.119.684-1.6.986-1.2,2.028-2.348,3.042-3.523.747-.865,1.424-1.788,2.174-2.654a2.25,2.25,0,0,1,2.9-.207,2.1,2.1,0,0,1,.268,2.751c-.526.735-1.132,1.414-1.712,2.11-1.091,1.309-2.173,2.627-3.291,3.912-.543.623-1.069,1.331-2.019,1.351a1.892,1.892,0,0,1-2.045-2.144" transform="translate(-82.513 -17.345)" fill="#060707"/>
        <path id="Trazado_610220" data-name="Trazado 610220" d="M41.245,53.89c.74-.07,1.248.444,1.776.881,1.382,1.142,2.734,2.322,4.125,3.453a23.2,23.2,0,0,1,2.095,1.858,1.838,1.838,0,0,1-.657,3.122,1.771,1.771,0,0,1-2-.219c-1.34-.969-2.538-2.1-3.8-3.162-.5-.418-1.1-.721-1.544-1.157a6.565,6.565,0,0,1-2-2.3,1.9,1.9,0,0,1,2-2.479" transform="translate(-19.14 -26.355)" fill="#060707"/>
        <path id="Trazado_610221" data-name="Trazado 610221" d="M90.906,35.442a1.567,1.567,0,0,1,1.413.632c1.69,1.906,3.32,3.862,4.923,5.842a3.59,3.59,0,0,1,.995,1.482,1.8,1.8,0,0,1-.87,2.3,1.858,1.858,0,0,1-2.486-.29,26.626,26.626,0,0,1-1.9-2.329c-1.181-1.354-2.38-2.7-3.491-4.107a2.09,2.09,0,0,1-.414-2.575,1.863,1.863,0,0,1,1.833-.956" transform="translate(-43.422 -17.328)" fill="#060707"/>
        <path id="Trazado_610222" data-name="Trazado 610222" d="M134.054,7.959c.01-1.97.063-3.94.014-5.908a2.01,2.01,0,0,1,2.7-1.965,2.226,2.226,0,0,1,1.442,1.991c-.008,2.817.011,5.634,0,8.451a2.115,2.115,0,0,1-1.857,1.98c-1.428.014-2.2-.618-2.262-1.887-.032-.613-.024-1.227-.035-1.84a1.762,1.762,0,0,0,0-.823" transform="translate(-65.565 -0.001)" fill="#060707"/>
        <path id="Trazado_610223" data-name="Trazado 610223" d="M133.825,15.578a1.762,1.762,0,0,1,0,.823.473.473,0,0,1,0-.823" transform="translate(-65.336 -7.62)" fill="#da8555"/>
        <path id="Trazado_610224" data-name="Trazado 610224" d="M138.149,193.293q0-2.755,0-5.511a2.424,2.424,0,0,0,2.069-1.931c.015-.01.042-.019.042-.029a.51.51,0,0,0-.017-.09q.018-.457.035-.915a.057.057,0,0,0,0-.092c-.011-1.483-.033-2.965-.033-4.447q0-7.949.012-15.9c0-.126.02-.252.031-.378,0-.054-.007-.107-.01-.16q0-.208-.01-.415c.008-.011.025-.025.022-.034a.413.413,0,0,0-.032-.071q-.007-.527-.013-1.053a.231.231,0,0,0-.01-.349c-.013-.145-.026-.291-.039-.439.313-.022.473.179.644.359q4.309,4.5,8.756,8.857c1.759,1.735,3.483,3.506,5.315,5.167a2.283,2.283,0,0,0,2.51.6c1.485-.486,3.056-.706,4.587-1.049,1.7-.38,3.388-.768,5.081-1.155a2.1,2.1,0,0,0,1.8-2.646,18.939,18.939,0,0,0,3.4-.6,7.879,7.879,0,0,1,2.026-.445c.821,1.48,1.375,1.693,3.264,1.292,2.053-.436,4.112-.85,6.165-1.29.536-.115,1.057-.3,1.59-.434.18-.045.4-.217.552.06-.138.2-.164.382.107.5a.163.163,0,0,1,.05.205c.006.056.013.111.019.168,0,.093.008.186.012.28-.01.011-.03.025-.028.033a.439.439,0,0,0,.032.077c.011,3.348.029,6.7.032,10.043q.01,11.445.008,22.889c0,.106-.011.211-.016.317-.013.011-.038.026-.037.034a.512.512,0,0,0,.034.086c-.151,1.171.022,1.048-1.021,1.307-2.236.555-4.492,1.015-6.733,1.538-1.961.458-3.922.93-5.889,1.363-1.28.281-2.585.528-3.844.841-1.287.321-2.6.593-3.886.921-.753.192-1.561.282-2.306.474s-1.5.378-2.244.561c-1.693.415-3.4.767-5.1,1.158a7.681,7.681,0,0,1-1.671.419,20.081,20.081,0,0,0-2.5.587c-.918.1-1.793.45-2.7.608s-1.8.426-2.7.621-1.793.492-2.706.625a12.043,12.043,0,0,0-2.113.544c-.227.077-.609.132-.473-.366a1.129,1.129,0,0,0,.036-.865c-.007-1.356-.019-2.713-.019-4.069q0-7.54.022-15.08a3.118,3.118,0,0,0-.588-1.933,2.01,2.01,0,0,0-1.528-.788" transform="translate(-67.568 -78.98)" fill="#f2965d"/>
        <path id="Trazado_610225" data-name="Trazado 610225" d="M144.515,91.742a1.675,1.675,0,0,0-1.245-.076,22.051,22.051,0,0,1-6.652.57,31.53,31.53,0,0,1-5.639-.662,36.191,36.191,0,0,1-8-2.733,28.674,28.674,0,0,1-5.4-3.478,26.512,26.512,0,0,1-4.408-4.175c-.815-.988-1.6-2-2.352-3.042a30.45,30.45,0,0,1-2.067-3.378,9.348,9.348,0,0,1-1.522-4.393,6.5,6.5,0,0,0,3.217-1.27,9.693,9.693,0,0,0,2.472-3.734c.672-1.383,1.392-2.743,2.075-4.121q3.244-6.539,6.475-13.085c.539-1.093,1.2-1.444,2.137-1.116a1.2,1.2,0,0,1,.65.637c1.53,2.739,2.843,5.589,4.246,8.393,1.55,3.1,3.079,6.211,4.623,9.314.39.782.768,1.573,1.216,2.322a5.784,5.784,0,0,0,3.886,2.646c1.922.449,3.9.516,5.832.96,1.295.3,2.672.337,4,.546,1.4.219,2.816.352,4.22.6,1.344.235,2.729.311,4.076.575,1.074.21,2.175.16,3.242.388s1.564.748,1.486,1.574a1.991,1.991,0,0,1-.647,1.163c-1.2,1.234-2.4,2.471-3.662,3.648-.881.826-1.771,1.645-2.657,2.465-1.611,1.49-3.095,3.119-4.7,4.613-1.686,1.567-3.259,3.246-4.9,4.853" transform="translate(-52.447 -22.955)" fill="#ffea7b"/>
        <path id="Trazado_610226" data-name="Trazado 610226" d="M178.181,156.948a7.849,7.849,0,0,0-2.026.445,18.939,18.939,0,0,1-3.4.6c-.729-1.462-1.513-1.784-3.1-1.341s-3.193.719-4.783,1.1c-1.145.275-2.305.471-3.445.758a.75.75,0,0,1-.83-.226q-6.79-6.8-13.6-13.583c-.3-.295-.606-.576-.956-.908,2.22-.3,4.285-.977,6.413-1.376,1.41-.264,2.8-.647,4.2-.964,2.34-.529,4.7-.992,7.02-1.589,1.5-.386,3.024-.689,4.532-1.054,2.521-.61,5.056-1.158,7.585-1.735,1.842-.42,3.69-.816,5.521-1.279.9-.228,1.831-.488,2.713-.643a29.369,29.369,0,0,1,3.065-.636c.815-.055,1.561-.468,2.357-.592a8.018,8.018,0,0,1,1.912-.287c.2.016.292.154.408.269,2.862,2.837,5.707,5.69,8.586,8.509,1.844,1.806,3.58,3.725,5.548,5.4.157.134.338.327.293.532s-.309.16-.489.205c-1.882.475-3.8.817-5.671,1.3-2.5.644-5.042,1.1-7.541,1.752-1.323.347-2.7.589-4.055.87-2.545.529-5.079,1.112-7.615,1.68a11.1,11.1,0,0,0-1.27.358c-1.014.361-1.431,1.119-1.369,2.43" transform="translate(-71.429 -65.36)" fill="#faac6a"/>
        <path id="Trazado_610227" data-name="Trazado 610227" d="M40.112,136.449c1.608.335,3.22.656,4.824,1.01,1.885.415,3.763.859,5.644,1.291l3.3.758c1.674.385,3.337.831,5.025,1.14,2.154.395,4.242,1.087,6.414,1.391a2.857,2.857,0,0,1,.558.121,64.838,64.838,0,0,0,6.578,1.61c1.894.456,3.823.779,5.705,1.3.312.087.836-.158.916.166.093.382-.458.541-.72.8q-4.14,4.139-8.3,8.261-2.663,2.646-5.332,5.286a.942.942,0,0,1-1.046.277c-1.354-.366-2.744-.6-4.115-.9-1.394-.307-2.777-.664-4.176-.945-2.072-.416-4.121-.937-6.185-1.386-1.487-.323-2.987-.618-4.46-1.026-1.423-.394-2.893-.614-4.336-.94-1.366-.308-2.72-.668-4.086-.976-1.691-.382-3.4-.7-5.079-1.112a24.806,24.806,0,0,1-2.756-.611c-.626-.23-1.323-.17-1.966-.377a2.363,2.363,0,0,1-.562-.23.966.966,0,0,1,.182-.653c.45-.475.873-.975,1.326-1.447,2.04-2.12,4.182-4.136,6.189-6.291,1.846-1.983,3.824-3.845,5.731-5.772.244-.246.676-.317.723-.752" transform="translate(-12.698 -66.738)" fill="#faac6a"/>
        <path id="Trazado_610228" data-name="Trazado 610228" d="M33.517,135.153c-.047.434-.479.505-.723.752-1.907,1.927-3.884,3.788-5.731,5.772-2.007,2.155-4.149,4.172-6.189,6.291-.453.472-.876.972-1.326,1.447a.966.966,0,0,0-.182.653c-1.927-.4-3.859-.769-5.777-1.206-.382-.087-.977-.053-1.1-.438-.108-.343.425-.574.69-.836q6.446-6.4,12.9-12.8c1.2-1.182,1.2-1.123,2.824-.766a28.272,28.272,0,0,0,3.474.739,4.949,4.949,0,0,1,1.134.388" transform="translate(-6.102 -65.442)" fill="#f2965d"/>
        <path id="Trazado_610229" data-name="Trazado 610229" d="M71.805,130.306,59,127.385c.425-.411.856-.293,1.228-.383q2.705-.657,5.418-1.281a2.193,2.193,0,0,1,2.407.624c1.117,1.243,2.389,2.346,3.593,3.51a2.847,2.847,0,0,1,.23.286Z" transform="translate(-28.856 -61.436)" fill="#f2965d"/>
        <path id="Trazado_610230" data-name="Trazado 610230" d="M191.765,130.249c1.5-1.448,2.895-2.739,4.214-4.1a1.588,1.588,0,0,1,1.6-.454c1.7.357,3.386.78,5.081,1.159.442.1.9.134,1.348.194a1.708,1.708,0,0,1,.671.17c.1.056.17.128.145.253s-.129.079-.2.092c-3.594.658-7.141,1.533-10.7,2.334a10.236,10.236,0,0,1-2.156.357" transform="translate(-93.792 -61.45)" fill="#f2965d"/>
        <path id="Trazado_610231" data-name="Trazado 610231" d="M231.606,179.037c-.271-.115-.245-.294-.107-.5.25.12.31.28.107.5" transform="translate(-113.176 -87.324)" fill="#da8555"/>
        <path id="Trazado_610232" data-name="Trazado 610232" d="M142.227,266.556a1.131,1.131,0,0,1-.036.865,2.221,2.221,0,0,1,.036-.865" transform="translate(-69.533 -130.373)" fill="#da8555"/>
        <path id="Trazado_610233" data-name="Trazado 610233" d="M142.007,162.341a.231.231,0,0,1,.009.349c-.54-.1-.01-.233-.009-.349" transform="translate(-69.341 -79.401)" fill="#da8555"/>
        <path id="Trazado_610234" data-name="Trazado 610234" d="M142.283,166.1c0,.054.007.107.01.16a.671.671,0,0,1-.04-.109c0-.014.019-.034.03-.051" transform="translate(-69.576 -81.242)" fill="#da8555"/>
        <path id="Trazado_610235" data-name="Trazado 610235" d="M231.921,180.081l-.02-.168a.721.721,0,0,1,.048.112c0,.015-.018.036-.028.055" transform="translate(-113.423 -87.996)" fill="#da8555"/>
        <path id="Trazado_610236" data-name="Trazado 610236" d="M231.94,180.9a.486.486,0,0,1-.033-.077c0-.008.018-.022.029-.033a.071.071,0,0,1,0,.11" transform="translate(-113.426 -88.425)" fill="#da8555"/>
        <path id="Trazado_610237" data-name="Trazado 610237" d="M142.285,206.98a.058.058,0,0,1,0,.093l-.029-.047Z" transform="translate(-69.577 -101.234)" fill="#da8555"/>
        <path id="Trazado_610238" data-name="Trazado 610238" d="M142.214,208.951a.472.472,0,0,1,.017.09c0,.01-.027.02-.042.03a.127.127,0,0,1,.025-.12" transform="translate(-69.542 -102.198)" fill="#da8555"/>
        <path id="Trazado_610239" data-name="Trazado 610239" d="M231.979,246.206a.5.5,0,0,1-.034-.087c0-.008.023-.022.036-.034,0,.04,0,.081,0,.121" transform="translate(-113.444 -120.361)" fill="#da8555"/>
        <path id="Trazado_610240" data-name="Trazado 610240" d="M142.252,165.087a.419.419,0,0,1,.032.071c0,.009-.014.022-.022.033a.063.063,0,0,1-.009-.1" transform="translate(-69.564 -80.745)" fill="#da8555"/>
      </g>
    </g>
  </g>
</svg>
