<svg xmlns="http://www.w3.org/2000/svg" xmlns:xlink="http://www.w3.org/1999/xlink" width="203" height="189" viewBox="0 0 203 189">
  <defs>
    <clipPath id="clip-path">
      <rect id="Rect치ngulo_378084" data-name="Rect치ngulo 378084" width="126.046" height="125.976" fill="none"/>
    </clipPath>
  </defs>
  <g id="Grupo_1073658" data-name="Grupo 1073658" transform="translate(-701 -16708)">
    <path id="Trazado_608968" data-name="Trazado 608968" d="M94.5,0A94.5,94.5,0,1,1,0,94.5,94.5,94.5,0,0,1,94.5,0Z" transform="translate(715 16708)" fill="#0c5e46"/>
    <rect id="Rect치ngulo_378076" data-name="Rect치ngulo 378076" width="16" height="5" transform="translate(701 16803)" fill="#0c5e46"/>
    <circle id="Elipse_1142" data-name="Elipse 1142" cx="83.5" cy="83.5" r="83.5" transform="translate(726 16719)" fill="#e1efe3"/>
    <g id="Grupo_1072870" data-name="Grupo 1072870" transform="translate(746 16740)" clip-path="url(#clip-path)">
      <path id="Trazado_610485" data-name="Trazado 610485" d="M115.484,118.034c.366.425.731.85,1.1,1.274.153.176.126.282-.066.438a32.017,32.017,0,0,1-4.607,3.1,24.586,24.586,0,0,1-2.853,1.3,22.239,22.239,0,0,1-5.184,1.4,37.9,37.9,0,0,1-5.418.405,23.3,23.3,0,0,1-4.545-.612,29.234,29.234,0,0,1-4.262-1.324,21.837,21.837,0,0,1-2.619-1.323c-.439-.231-.853-.51-1.3-.723a1.011,1.011,0,0,0-.86.013c-1.282.571-2.643.918-3.966,1.371-1.106.379-2.259.623-3.393.918a42.842,42.842,0,0,1-5.194.988c-1.124.148-2.265.269-3.387.414a57.111,57.111,0,0,1-8.135.276,45.717,45.717,0,0,1-5.195-.423c-2.1-.271-4.2-.6-6.27-1.045-1.554-.331-3.078-.807-4.608-1.245a42.84,42.84,0,0,1-4.986-1.791c-1.515-.646-3.067-1.215-4.541-1.942-1.612-.8-3.16-1.728-4.726-2.615-1.4-.793-2.686-1.795-4.012-2.719a56.757,56.757,0,0,1-7.089-5.872,65.657,65.657,0,0,1-6.984-7.974A60.27,60.27,0,0,1,8.86,95.054a65.436,65.436,0,0,1-5.4-11.6A59.117,59.117,0,0,1,1.4,76.05C.924,73.794.6,71.51.328,69.215A54.778,54.778,0,0,1,.038,61a36,36,0,0,1,.2-3.845c.168-1.2.442-2.394.539-3.6A43.155,43.155,0,0,1,1.6,49.121a42.675,42.675,0,0,1,1.611-5.91A69.568,69.568,0,0,1,5.9,36.583a68.842,68.842,0,0,1,3.661-6.729c.723-1.2,1.547-2.342,2.346-3.5a1.357,1.357,0,0,0,.265-.825Q12.154,13.063,12.15.591c0-.448.072-.594.562-.591q5.512.037,11.024,0c.45,0,.593.079.587.567-.03,2.37-.006,4.74-.021,7.11,0,.354.071.473.452.47q3.459-.023,6.918.01a3.3,3.3,0,0,0,1.664-.6,56.8,56.8,0,0,1,7.177-3.31,54.519,54.519,0,0,1,7.063-2.245c2.042-.5,4.094-.933,6.177-1.258C55.428.486,57.126.476,58.786.134A3.421,3.421,0,0,1,59.46.128c1.36,0,2.717-.183,4.078-.112,2,.1,4.009.186,6.007.352,1.443.12,2.864.435,4.308.6a15.522,15.522,0,0,1,2.828.566c1.108.345,2.242.584,3.353.9,1.683.483,3.329,1.062,4.976,1.643a25.774,25.774,0,0,1,2.664.969c2.305,1.118,4.632,2.2,6.853,3.5a72.974,72.974,0,0,1,6.188,4.074,45.882,45.882,0,0,1,4.371,3.616,71.668,71.668,0,0,1,6.186,6.433,65.025,65.025,0,0,1,4.83,6.62q1.746,2.752,3.218,5.653a60.419,60.419,0,0,1,2.546,5.814q.744,1.948,1.342,3.938a49.3,49.3,0,0,1,1.3,4.858c.27,1.4.55,2.812.748,4.235.193,1.388.312,2.784.514,4.169a14.123,14.123,0,0,1,.1,1.553,41.963,41.963,0,0,1,.121,5.163c-.151,1.68-.241,3.364-.4,5.044-.127,1.326-.381,2.631-.522,3.954a30.205,30.205,0,0,1-.864,3.963,58.176,58.176,0,0,1-2.124,7.028c-.052.135-.083.24-.232.269l-.086.019.092.02.037.261c-.009.037-.018.073-.027.109A12.775,12.775,0,0,0,123,87.549a26.125,26.125,0,0,1,2.518,7.3,25.1,25.1,0,0,1,.394,3.139A26.857,26.857,0,0,1,120.42,115.7c-.414.556-.622-.057-.891-.158-.168-.063-.3-.307-.508-.4a.533.533,0,0,0-.424-.246,3.269,3.269,0,0,0-1.381-1.087c-.326-.171-.247-.3-.1-.5.1-.133.224-.25.32-.387a24.174,24.174,0,0,0,3.568-7.023,26.556,26.556,0,0,0,.951-5.778c.04-.619-.1-1.226-.107-1.839a12.254,12.254,0,0,0-.208-2.109,29.884,29.884,0,0,0-1.176-4.639c-1.362-3.834-4.012-6.717-6.914-9.408a17.785,17.785,0,0,0-2.922-1.993,21,21,0,0,0-4.443-1.951,27.92,27.92,0,0,0-4.2-.8,15.376,15.376,0,0,0-4.293-.071,24.626,24.626,0,0,0-4.839.923A22.437,22.437,0,0,0,80.038,88.745a26.028,26.028,0,0,0-2.515,6.888c-.271,1.173-.03,2.38-.205,3.568a20.324,20.324,0,0,0,.061,2.063,13.127,13.127,0,0,0,.589,3.971,22.042,22.042,0,0,0,2.657,6.09,22.717,22.717,0,0,0,10.089,8.755,21.4,21.4,0,0,0,5.936,1.6,9.222,9.222,0,0,0,1.03.219,25.547,25.547,0,0,0,6.572-.5,22.887,22.887,0,0,0,9.521-4.593c.293-.238.452-.243.682.043.327.409.684.794,1.029,1.19M44.747,48.418a.06.06,0,0,0,0-.084c0-.093.015-.187.015-.281q0-9.095,0-18.189c0-.357-.013-.713-.013-1.07,0-.228-.093-.341-.335-.34-1.2,0-2.395.007-3.592,0-.312,0-.336.156-.271.394v.012q.022.281.044.562c-.009.01-.027.022-.026.03a.379.379,0,0,0,.026.07,1.439,1.439,0,0,0-.033.221q0,6.828,0,13.657v.023c0,.146,0,.293,0,.439-.007.012-.022.024-.021.036a.547.547,0,0,0,.02.078v.453a22.665,22.665,0,0,0,.018,2.725c0,.1,0,.2-.006.3a1.811,1.811,0,0,0-.014.724c0,.25-.216.593.3.591q1.77-.007,3.541.005c.25,0,.408-.063.35-.355m-24.42-1.241c0-.065,0-.13,0-.2v-.818a.065.065,0,0,0,0-.087q0-.408,0-.815a.063.063,0,0,0,0-.088q-.01-.3-.02-.61c.009-.015.028-.03.026-.044a.624.624,0,0,0-.023-.1c0-.143.005-.286.009-.429a2.639,2.639,0,0,0,.028-.278q0-18.684,0-37.366a1.179,1.179,0,0,0-.065-.657c-.007-.413-.034-.827-.016-1.239.013-.3-.08-.386-.378-.381-1.012.018-2.026.047-3.036-.008-.571-.031-.654.167-.654.686q.022,19.633.012,39.266c0,1.43.015,2.859,0,4.288,0,.361.083.483.46.473,1.011-.027,2.024,0,3.036-.014.191,0,.413.1.575-.1.012-.007.035-.014.035-.022a.4.4,0,0,0-.011-.076,3.207,3.207,0,0,0,.021-.939.061.061,0,0,0,0-.086c0-.122,0-.244,0-.366m44.678,73.8c-.187.137-.222.27.008.4l.008.468h-.092l.089-.012a2.706,2.706,0,0,0,1.43.059c2.041-.31,4.1-.445,6.145-.75a73.414,73.414,0,0,0,8.7-2.061c.37-.1.3-.271.11-.471-.309-.328-.633-.642-.941-.969a26.287,26.287,0,0,1-7.221-16.18,25.125,25.125,0,0,1,.964-9.156,27.6,27.6,0,0,1,2.228-5.361,24.622,24.622,0,0,1,5.052-6.551,29.73,29.73,0,0,1,2.821-2.345A24.533,24.533,0,0,1,91.3,74.514a28.812,28.812,0,0,1,7.614-1.357,25.368,25.368,0,0,1,6.224.624,28.581,28.581,0,0,1,4.44,1.461,22.687,22.687,0,0,1,3.642,1.811,20.317,20.317,0,0,1,3.13,2.309c.737.68,1.539,1.314,2.274,2.014.086.082.146.227.348.183.265-.731.474-1.5.689-2.256.5-1.742.873-3.522,1.24-5.3a49.068,49.068,0,0,0,.73-5.485c.082-.9.187-1.8.325-2.687.106-.684.032-.808-.662-.808H66.738c-.431,0-.864.024-1.293-.008-.389-.029-.461.13-.461.488Q65,79.865,65,94.226q0,13.373.008,26.746M56.945,32.687c-.2.083-.094.257-.094.382q0,9.565.026,19.129c0,.48-.116.647-.625.647q-21.8-.02-43.592,0c-.437,0-.51-.126-.509-.53q.024-9.227.014-18.453c0-.135.072-.3-.081-.4A32.2,32.2,0,0,0,9.5,38.14c-.515,1.127-.977,2.3-1.437,3.458-.682,1.72-1.223,3.483-1.76,5.247A50.22,50.22,0,0,0,4.966,52.6a43.119,43.119,0,0,0-.578,4.614c-.065.938-.2,1.872-.337,2.8-.116.8-.016.941.781.941h54.11c.563,0,1.125-.012,1.687,0,.286.008.391-.079.387-.384-.018-1.015,0-2.032,0-3.048q0-23.954,0-47.909c0-1.655-.017-3.311.021-4.965.012-.531-.181-.683-.645-.578-.746.168-1.512.09-2.265.212-1.765.287-3.557.359-5.323.677a58.926,58.926,0,0,0-16.886,5.677c-1,.517-1.96,1.094-2.941,1.64a.986.986,0,0,0-.58,1.035,21.189,21.189,0,0,1,.009,2.425c-.019.416.077.537.51.532,2.362-.024,4.725,0,7.087-.024.456-.005.55.136.546.56-.02,2.351.007,4.7-.031,7.053-.008.483.146.536.553.534,2.362-.016,4.725,0,7.087-.018.411,0,.545.088.542.523-.016,2.389.014,4.777-.006,7.165,0,.4.126.456.47.455,2.231-.013,4.462-.008,6.693-.005a1.693,1.693,0,0,1,1.078.178ZM25.581,65.056h-.406l-.022-.019-.022.019h-.406l-.022-.019-.022.019h-.406l-.022-.019-.022.019h-.405l-.022-.019-.022.019h-.406l-.022-.019-.022.019h-.406l-.022-.019-.022.019h-.406l-.022-.019-.022.019h-.406L22,65.037l-.022.019h-.406l-.022-.019-.022.019h-.406l-.022-.019-.022.019h-.406l-.022-.019-.022.019h-.405l-.022-.019-.022.019h-.406l-.022-.019-.022.019h-.406l-.022-.019-.022.019h-.406l-.022-.019-.022.019h-.406l-.022-.019-.022.019h-.405l-.022-.019-.022.019h-.406l-.022-.019-.022.019h-.406l-.022-.019-.022.019h-.406l-.022-.019-.022.019h-.406l-.022-.019-.022.019h-.406l-.022-.019-.022.019h-.406l-.022-.019-.022.019h-.406l-.022-.019-.022.019h-.405l-.022-.019-.022.019h-.406l-.022-.019-.022.019h-.406l-.022-.019-.022.019h-.406L13,65.037l-.022.019h-.406l-.022-.019-.022.019h-.405l-.022-.019-.022.019h-.406l-.022-.019-.022.019h-.406l-.022-.019-.022.019h-.406l-.022-.019-.022.019h-.406l-.022-.019-.022.019H9.875l-.022-.019-.022.019H9.426L9.4,65.037l-.022.019H8.976l-.022-.019-.022.019H8.526L8.5,65.037l-.022.019H6.726L6.7,65.037l-.023.019H6.275l-.021-.019-.022.019-.86,0H4.886c-.187-.007-.374-.012-.561-.022s-.27.076-.265.268c.01.375-.025.755.019,1.126.129,1.1.377,2.2.408,3.3.036,1.256.372,2.454.5,3.69a19.382,19.382,0,0,0,.536,2.542,12,12,0,0,0,.56,2.366c.143.306.126.683.244,1C6.812,80.637,7.157,82,7.687,83.3c.447,1.094.808,2.224,1.293,3.3q1.283,2.843,2.826,5.56a53.793,53.793,0,0,0,5.3,7.774A55.938,55.938,0,0,0,24.7,107.7c1.383,1.129,2.759,2.265,4.2,3.321a53.464,53.464,0,0,0,10.187,5.811A59.189,59.189,0,0,0,48,119.993a43.712,43.712,0,0,0,4.723.984c.817.118,1.612.34,2.446.4a10.915,10.915,0,0,1,2.206.2,7.059,7.059,0,0,0,1.863.226,1.592,1.592,0,0,1,.71.071c.724.307,1.063.019,1.062-.781q-.005-8.971-.011-17.941,0-18.788.017-37.575c0-.534-.334-.517-.632-.53-.635-.028-1.273,0-1.91.013l-.022-.019-.022.019h-.406L58,65.037l-.022.019H56.675l-.022-.019-.022.019h-.406l-.022-.019-.022.019h-.406l-.022-.019-.022.019h-.406l-.022-.019-.022.019h-.406l-.022-.019-.022.019h-.406l-.022-.019-.022.019h-.405l-.022-.019-.022.019h-.406l-.022-.019-.022.019h-.406l-.022-.019-.022.019h-.406l-.022-.019-.022.019h-.406l-.022-.019-.022.019h-.406l-.022-.019-.022.019h-.406l-.022-.019-.022.019h-.406l-.022-.019-.022.019h-.406l-.022-.019-.022.019h-.518l-.022-.019-.022.019-1.645,0h-1.8l-.023-.019-.022.019h-.406l-.022-.019-.022.019h-.406l-.022-.019-.022.019h-.406l-.022-.019-.022.019h-.406l-.022-.019-.022.019h-.406l-.022-.019-.022.019h-.406l-.022-.019-.022.019h-.406l-.022-.019-.022.019h-.406l-.022-.019-.022.019h-.406l-.022-.019-.022.019h-.406l-.022-.019-.022.019h-.406l-.022-.019-.022.019h-.406l-.022-.019-.022.019h-.406l-.022-.019-.022.019h-.405L40,65.037l-.022.019h-.406l-.022-.019-.022.019h-.406l-.022-.019-.022.019h-.406l-.022-.019-.022.019h-.406l-.022-.019-.022.019h-.405l-.022-.019-.022.019h-.406l-.022-.019-.022.019h-.406l-.022-.019-.022.019h-.406l-.022-.019-.022.019h-.406l-.022-.019-.022.019h-.406l-.022-.019-.022.019h-.406l-.022-.019-.022.019h-.406l-.022-.019-.022.019h-.405l-.022-.019-.022.019h-.406l-.022-.019-.022.019h-.406l-.022-.019-.022.019h-.406l-.022-.019-.022.019h-.406l-.022-.019-.022.019h-.405l-.022-.019-.022.019h-.406l-.022-.019-.022.019h-.406L31,65.037l-.022.019h-.406l-.022-.019-.022.019h-.406l-.022-.019-.022.019h-.406l-.022-.019-.022.019h-.406l-.022-.019-.022.019h-.406l-.022-.019-.022.019h-.406l-.022-.019-.022.019h-.406l-.022-.019-.022.019h-.406l-.022-.019-.022.019h-.406l-.022-.019-.022.019h-.406l-.022-.019-.022.019h-.405l-.022-.019-.022.019h-.406l-.022-.019Zm67.029-4.1v0c1.875,0,3.75-.009,5.625.007a1.264,1.264,0,0,0,.993-.4q6.415-6.448,12.849-12.876c1.831-1.832,3.656-3.67,5.515-5.473a.716.716,0,0,0,.227-.921c-.509-1.158-.982-2.334-1.534-3.471-.652-1.341-1.367-2.65-2.066-3.967-.348-.655-.474-.61-.93-.1-.872.974-1.821,1.865-2.739,2.787q-6.767,6.795-13.562,13.562c-.943.941-1.97,1.8-2.863,2.787-.662.731-1.379,1.406-2.035,2.14-.126.14-.233.352-.483.095-.745-.767-1.509-1.517-2.277-2.261-.3-.287-.27-.5.022-.786,1.307-1.285,2.593-2.592,3.889-3.889q6.713-6.725,13.428-13.447c1.588-1.587,3.091-3.262,4.8-4.729.213-.183.191-.369.023-.587-.563-.727-1.127-1.453-1.663-2.2-1.044-1.453-2.279-2.741-3.456-4.079-.183-.207-.358-.36-.639-.054-.673.732-1.378,1.434-2.081,2.137q-6.746,6.753-13.494,13.5c-.884.888-1.82,1.721-2.636,2.685-.587.693-1.43,1.167-2.019,1.858-1.207,1.417-2.617,2.625-3.9,3.96-1.732,1.8-3.576,3.488-5.347,5.249-2.336,2.324-4.649,4.671-6.971,7.008q-.531.534-1.058,1.071c-.2.2-.213.3.12.4a3.888,3.888,0,0,0,1.19-.014c3.394.007,6.787-.008,10.181.017a1.685,1.685,0,0,0,1.338-.542c1.461-1.512,2.952-2.994,4.417-4.5.334-.344.584-.375.927-.009.668.712,1.365,1.4,2.061,2.08.232.227.287.465.017.648a25.125,25.125,0,0,0-1.815,1.781c-.129.108-.3.222-.23.411.077.206.293.114.447.115,1.912.007,3.825,0,5.737,0m-27.6-9.41h0q0,2.793,0,5.586a1.5,1.5,0,0,0,.062.438c.108.362.347.305.472.093A10.555,10.555,0,0,1,67.482,55.7c2.212-2.194,4.368-4.446,6.621-6.6,1.548-1.478,2.975-3.074,4.5-4.575,1.195-1.174,2.349-2.4,3.536-3.58,1.723-1.72,3.429-3.459,5.193-5.139,2.147-2.044,4.225-4.16,6.325-6.254q4.5-4.484,8.982-8.98c.6-.6.6-.633-.052-1.2-1.787-1.547-3.609-3.048-5.538-4.417-.813-.577-.8-.6-1.532.067-.013.012-.037.012-.05.024-.939.961-1.886,1.914-2.81,2.889-.262.277-.434.258-.684,0-.707-.735-1.419-1.467-2.16-2.166-.291-.274-.31-.43-.014-.71.832-.786,1.635-1.6,2.45-2.408.442-.436.418-.646-.159-.89a4.764,4.764,0,0,1-.992-.386,12.264,12.264,0,0,0-2.522-1.414c-1.214-.618-2.5-1.086-3.741-1.66a.773.773,0,0,0-1.031.177q-3.262,3.294-6.559,6.553-2.994,2.979-5.993,5.954-2.952,2.943-5.887,5.9a.86.86,0,0,0-.337.663c.018,2.309,0,4.618-.014,6.927-.008,1.579-.022,3.159-.031,4.738,0,.133-.148.307.068.388.172.065.272-.082.378-.185.77-.747,1.569-1.468,2.3-2.249,1.341-1.427,2.8-2.733,4.084-4.223,1.155-1.337,2.6-2.425,3.8-3.749.93-1.025,1.969-1.947,2.965-2.91,2.281-2.2,4.5-4.475,6.741-6.72.4-.4.786-.806,1.182-1.207a.425.425,0,0,1,.712-.007c.675.7,1.369,1.391,2.069,2.071.3.293.322.5.014.84-.466.512-1.079.852-1.522,1.371a34.2,34.2,0,0,1-2.8,2.813c-.816.759-1.516,1.634-2.359,2.379-1.2,1.062-2.264,2.274-3.4,3.4-1.663,1.648-3.351,3.271-4.929,5.007-1,1.1-2.1,2.1-3.145,3.151-1.914,1.915-3.82,3.838-5.74,5.747a1.273,1.273,0,0,0-.405.991c.017,1.805.007,3.611.007,5.416M24.31,30.487h0q0,8.832-.009,17.663c0,.461.058.658.592.631,1.01-.051,2.025-.04,3.036,0,.469.019.55-.148.549-.574-.013-4.947-.007-9.894-.007-14.841q0-10.27,0-20.54c0-.412-.017-.662-.552-.637-.992.047-1.988.041-2.98,0-.5-.019-.651.1-.649.632.022,5.887.014,11.775.014,17.662M65.008,12.7h0q0,3.95,0,7.9c0,.251-.16.6.11.718s.424-.237.6-.413q4.188-4.175,8.368-8.36Q76.791,9.833,79.5,7.12c.151-.152.414-.305.343-.54-.083-.278-.395-.216-.63-.254-1.271-.2-2.492-.624-3.754-.884-1.439-.3-2.892-.5-4.328-.81-.88-.188-1.781-.061-2.671-.227-.981-.183-1.989-.225-2.985-.329C65.1,4.038,65,4.2,65,4.571c.015,2.708.008,5.417.008,8.125m39.6,48.265H110.9c3.522,0,7.045-.007,10.567.008.395,0,.547-.108.494-.5-.08-.605-.183-1.21-.215-1.818-.07-1.323-.252-2.636-.391-3.949-.157-1.482-.549-2.939-.8-4.413-.207-1.222-.711-2.371-.844-3.608-.02-.186,0-.4-.207-.485s-.335.108-.484.212a16.088,16.088,0,0,0-1.781,1.822A24.9,24.9,0,0,0,115.3,50.06c-1.276,1.513-2.84,2.733-4.138,4.22-.357.409-.838.71-1.193,1.121-1.237,1.433-2.681,2.657-3.976,4.029a7.355,7.355,0,0,0-1.385,1.53M32.41,34.53h.007c0,4.57.005,9.139-.009,13.709,0,.407.073.553.513.538,1.048-.035,2.1-.035,3.148,0,.472.018.554-.156.552-.58-.019-3.215-.02-6.431-.022-9.646q-.006-8.8,0-17.6c0-.48-.1-.659-.616-.638-1.029.044-2.062.033-3.092,0-.4-.011-.493.11-.492.5.014,4.57.009,9.139.009,13.709M48.7,42.618h-.017c0,1.9.009,3.8-.008,5.7,0,.349.1.465.44.461,1.125-.014,2.25-.011,3.374,0,.276,0,.407-.072.406-.38q-.014-5.7-.005-11.4c0-.314-.09-.427-.412-.422-1.124.016-2.249.013-3.374,0-.3,0-.419.05-.414.4.022,1.88.01,3.76.01,5.64" transform="translate(0 0)" fill="#060607"/>
      <path id="Trazado_610486" data-name="Trazado 610486" d="M209.368,211.811c-.344-.4-.7-.781-1.029-1.19-.229-.286-.389-.282-.682-.043a22.885,22.885,0,0,1-9.521,4.593,25.546,25.546,0,0,1-6.572.5,9.188,9.188,0,0,1-1.029-.219,21.389,21.389,0,0,1-5.937-1.6,22.717,22.717,0,0,1-10.089-8.755,22.058,22.058,0,0,1-2.657-6.09,13.141,13.141,0,0,1-.589-3.971,20.46,20.46,0,0,1-.061-2.063c.176-1.188-.066-2.4.205-3.568a26.034,26.034,0,0,1,2.515-6.887,22.436,22.436,0,0,1,12.822-10.506,24.665,24.665,0,0,1,4.839-.923,15.377,15.377,0,0,1,4.293.071,27.92,27.92,0,0,1,4.2.8,21,21,0,0,1,4.444,1.951,17.782,17.782,0,0,1,2.921,1.993c2.9,2.691,5.552,5.574,6.915,9.408a29.829,29.829,0,0,1,1.176,4.639,12.208,12.208,0,0,1,.208,2.109c.006.613.148,1.22.108,1.839a26.552,26.552,0,0,1-.952,5.778,24.184,24.184,0,0,1-3.568,7.023c-.1.137-.218.254-.32.387-.151.2-.231.326.1.5a3.274,3.274,0,0,1,1.381,1.087.418.418,0,0,0-.219.244,27.624,27.624,0,0,1-2.894,2.895m-30.023-16.963a21.146,21.146,0,0,1,.016-2.92c.006-.014.021-.03.019-.042a.625.625,0,0,0-.031-.087c-.018-.139-.037-.277-.055-.416l.025-.03-.042.01c-1.252-.126-2.507-.023-3.76-.056-.247-.006-.316.125-.316.353,0,1.109,0,2.218-.011,3.327,0,.236.047.379.339.388a32.926,32.926,0,0,0,3.77-.043.425.425,0,0,0,.046-.485m6.033-7.534a8.03,8.03,0,0,0,1.672,4.779,8.216,8.216,0,0,0,5.294,3.179c.607.1,1.217.081,1.824.2a4.014,4.014,0,0,1,2.682,6.083,3.711,3.711,0,0,1-2.255,1.743,3.665,3.665,0,0,1-2.235.026,4.27,4.27,0,0,1-2.944-3.448c-.065-.361-.194-.46-.542-.452-.993.022-1.988.041-2.98-.006-.524-.025-.6.2-.537.621a9.935,9.935,0,0,0,.784,2.725,7.849,7.849,0,0,0,4.752,4.272c.487.162.6.34.579.806-.043,1.108-.023,2.218-.047,3.328-.007.331.085.466.443.459,1.105-.022,2.212-.02,3.317,0,.321,0,.416-.1.411-.414-.017-1.034.033-2.07-.018-3.1-.032-.642.1-.908.791-1.176a8.027,8.027,0,0,0,2.415-13.553,8.509,8.509,0,0,0-5.425-2.081,4.048,4.048,0,0,1-3.512-2.353,3.068,3.068,0,0,1-.521-1.854,5.392,5.392,0,0,1,.73-2.047,3.945,3.945,0,0,1,3.815-1.78c1.683.092,3.628,1.855,3.515,3.526-.027.391.129.468.479.458.806-.022,1.612-.006,2.418-.006,1.335,0,1.381-.009,1.147-1.306a7.777,7.777,0,0,0-5.368-6.258.622.622,0,0,1-.482-.69c.03-1.165.01-2.331.01-3.5,0-.225.046-.448-.32-.443-1.087.017-2.174,0-3.261.009-.383,0-.59.176-.576.619.034,1.09.01,2.181.042,3.271.01.34-.076.549-.415.612a5.272,5.272,0,0,0-1.379.59,7.964,7.964,0,0,0-3.325,3.19,7.014,7.014,0,0,0-.982,3.951Zm26.414,6.078c0-.564-.011-1.128,0-1.691.008-.273-.045-.4-.363-.4-1.124.018-2.248.012-3.372,0-.238,0-.331.068-.33.317.007,1.146,0,2.292-.006,3.438,0,.244.094.319.334.317,1.124-.011,2.248-.016,3.372,0,.318,0,.371-.132.363-.4-.014-.526,0-1.052,0-1.579" transform="translate(-93.884 -93.777)" fill="#f8921f"/>
      <path id="Trazado_610487" data-name="Trazado 610487" d="M262.173,254.705a.417.417,0,0,1,.219-.243.533.533,0,0,1,.424.245l-.643,0" transform="translate(-143.795 -139.566)" fill="#e7e6e7"/>
      <path id="Trazado_610488" data-name="Trazado 610488" d="M269.761,188.136l-.092-.02.086-.019.006.038" transform="translate(-147.907 -103.167)" fill="#e7e6e7"/>
      <path id="Trazado_610489" data-name="Trazado 610489" d="M269.9,188.871l.026-.109a.494.494,0,0,1,.013.084c0,.009-.025.017-.039.025" transform="translate(-148.031 -103.531)" fill="#e7e6e7"/>
      <path id="Trazado_610490" data-name="Trazado 610490" d="M30.1,144.047h.405l.022.037.023-.037h.405l.022.037.023-.037h.405l.022.037.023-.037h.405l.022.037.023-.037h.405l.022.037.023-.037h.405l.022.037.023-.037h.405l.022.037.023-.037h.405l.022.037.023-.037h.405l.022.037.023-.037h.405l.022.037.023-.037h.405l.022.037.023-.037h.405l.022.037.023-.037h.405l.022.037.023-.037h.405l.022.037.023-.037h.405l.022.037.023-.037h.405l.022.037.023-.037h.405l.022.037.023-.037h.405l.022.037.023-.037h.405l.022.037.023-.037h.405l.022.037.023-.037h.405l.022.037.023-.037h.405l.022.037.023-.037h.405l.022.037.023-.037h.405l.022.037.023-.037h.405l.022.037.023-.037h.405l.022.037.023-.037h.405l.022.037.023-.037h.405l.022.037.023-.037h.405l.022.037.023-.037h.405l.022.037.023-.037h.405l.022.037.023-.037h.405l.022.037.023-.037h.405l.022.037.023-.037h.405l.022.037.023-.037h.405l.022.037.023-.037h.405l.022.037.023-.037h.405l.022.037.023-.037h.405l.022.037.023-.037h.405l.022.037.023-.037h.405l.022.037.023-.037h.405l.022.037.023-.037h.405l.022.037.023-.037h.405l.022.037.023-.037h.405l.022.037.023-.037h.405l.022.037.023-.037h.405l.022.037.023-.037h.405l.022.037.023-.037h.3c.05.075.1.074.15,0h.414a.446.446,0,0,0,.484,0h.411l.021.037.021-.037,1.645,0,.022.037.022-.037h.518l.022.037.023-.037h.405l.022.037.023-.037h.405l.022.037.023-.037h.405l.022.037.023-.037h.405l.022.037.023-.037h.405l.022.037.023-.037h.405l.022.037.023-.037h.405l.022.037.023-.037h.405l.022.037.023-.037h.405l.022.037.023-.037h.405l.022.037.023-.037h.405l.022.037.023-.037h.405l.022.037.023-.037h.405l.022.037.023-.037h.405l.022.037.023-.037h.41a.449.449,0,0,0,.485,0h.41l.022.037.023-.037h.405l.022.037.022-.037c.637-.008,1.276-.041,1.911-.013.3.014.633,0,.632.531q-.027,18.787-.017,37.575,0,8.971.011,17.941c0,.8-.339,1.088-1.062.781a1.605,1.605,0,0,0-.71-.071,7.02,7.02,0,0,1-1.863-.226,10.885,10.885,0,0,0-2.206-.2c-.834-.061-1.63-.283-2.446-.4a43.688,43.688,0,0,1-4.723-.984,59.174,59.174,0,0,1-8.92-3.165,53.439,53.439,0,0,1-10.187-5.811c-1.437-1.056-2.813-2.192-4.2-3.321a55.913,55.913,0,0,1-7.588-7.767,53.789,53.789,0,0,1-5.3-7.773q-1.545-2.714-2.826-5.56c-.485-1.075-.846-2.206-1.293-3.3-.531-1.3-.876-2.659-1.359-3.972-.118-.321-.1-.7-.244-1a12,12,0,0,1-.56-2.367,19.279,19.279,0,0,1-.536-2.542c-.13-1.235-.466-2.434-.5-3.69-.031-1.1-.279-2.2-.408-3.3-.043-.371-.009-.75-.019-1.126,0-.192.074-.278.265-.268s.374.015.561.023l.018.035.019-.035h.413l.019.036.019-.035.859,0,.021.037.022-.037h.406l.022.038.023-.038h1.755l.022.037.023-.037h.405l.022.037.023-.037h.405l.022.037.023-.037h.405l.022.037.023-.037h.405l.022.037.023-.037h.405l.022.037.023-.037h.405l.022.037.023-.037h.405l.022.037.023-.037h.405l.022.037.023-.037h.405l.022.037.023-.037h.405l.022.037.023-.037h.405l.022.037.023-.037h.405l.022.037.023-.037h.405l.022.037.023-.037h.405l.022.037.023-.037h.405l.022.037.023-.037h.405l.022.037.023-.037h.405l.022.037.023-.037h.405l.022.037.023-.037h.405l.022.037.023-.037h.405l.022.037.023-.037h.405l.022.037.023-.037h.405l.022.037.023-.037h.405l.022.037.023-.037h.405l.022.037.023-.037h.405l.022.037.023-.037h.405l.022.037.023-.037h.405l.022.037.023-.037h.405l.022.037.023-.037h.405l.022.037.023-.037h.405l.022.037.023-.037h.405l.022.037.023-.037h.405l.022.037.023-.037h.405l.022.037.023-.037h.405l.022.037.023-.037h.405l.022.037.023-.037h.405l.022.037.023-.037h.405l.022.037Zm2.631,35.885c.068-.06.135-.117.2-.177,1.354-1.259,2.586-2.641,3.957-3.886,1.285-1.167,2.467-2.447,3.694-3.678q4.83-4.846,9.661-9.692,3.223-3.227,6.456-6.443c.207-.207.55-.38.152-.758-.789-.75-1.553-1.527-2.31-2.309-.2-.205-.311-.177-.494.007q-2.986,3-5.985,6-1.768,1.768-3.541,3.533-3.485,3.482-6.967,6.966-3.624,3.621-7.257,7.234c-.262.26-.291.429-.023.711a23.638,23.638,0,0,1,2.3,2.375.8.8,0,0,0,.157.121m24.966-5.4c.052-3.365-2.594-6.172-6.522-6.139-2.7.022-5.686,3.079-5.608,5.967a6.171,6.171,0,0,0,6.348,6.2,5.948,5.948,0,0,0,5.782-6.03M35.354,152.253c-2.985-.351-6.025,2.78-6.02,5.915a6.27,6.27,0,0,0,5.906,6.151,6.055,6.055,0,0,0,6.243-6.09,5.936,5.936,0,0,0-6.128-5.975" transform="translate(-4.927 -78.99)" fill="#ffe593"/>
      <path id="Trazado_610491" data-name="Trazado 610491" d="M61.806,37.615a1.693,1.693,0,0,0-1.078-.178c-2.231,0-4.462-.007-6.693.005-.344,0-.473-.053-.469-.455.02-2.388-.01-4.777.006-7.165,0-.435-.131-.526-.542-.523-2.362.02-4.724,0-7.087.018-.407,0-.561-.051-.554-.534.037-2.351.011-4.7.031-7.053,0-.424-.09-.565-.546-.56-2.362.026-4.725,0-7.087.024-.433,0-.529-.116-.51-.532a21.3,21.3,0,0,0-.009-2.425.985.985,0,0,1,.58-1.035c.981-.545,1.945-1.124,2.94-1.64A58.926,58.926,0,0,1,57.675,9.886c1.766-.318,3.558-.39,5.323-.677.754-.122,1.519-.044,2.265-.212.465-.1.657.047.645.578-.038,1.654-.021,3.31-.021,4.965q0,23.954,0,47.909c0,1.016-.014,2.032,0,3.048,0,.305-.1.391-.387.383-.562-.015-1.125,0-1.687,0H9.7c-.8,0-.9-.144-.781-.941.136-.931.272-1.865.337-2.8a42.982,42.982,0,0,1,.578-4.614,50.2,50.2,0,0,1,1.341-5.756c.538-1.765,1.078-3.527,1.76-5.247.46-1.161.922-2.331,1.437-3.458a32.236,32.236,0,0,1,2.578-4.675c.154.1.081.262.081.4q0,9.227-.013,18.453c0,.4.072.531.509.53q21.8-.02,43.592,0c.509,0,.627-.167.625-.647q-.031-9.565-.026-19.129c0-.125-.107-.3.094-.382l-.033-.025.023.036" transform="translate(-4.872 -4.917)" fill="#e7e6e7"/>
      <path id="Trazado_610492" data-name="Trazado 610492" d="M143.957,200.814l-.008-.466a.567.567,0,0,0-.008-.4q0-13.373-.008-26.747,0-14.361-.014-28.721c0-.359.072-.517.461-.488.429.032.862.008,1.293.008h54.556c.694,0,.768.124.662.808-.138.891-.243,1.789-.325,2.687a49.057,49.057,0,0,1-.73,5.485c-.367,1.776-.741,3.556-1.24,5.3-.215.753-.424,1.525-.689,2.256-.2.044-.261-.1-.347-.183-.735-.7-1.537-1.334-2.274-2.014a20.365,20.365,0,0,0-3.13-2.309,22.7,22.7,0,0,0-3.642-1.811,28.627,28.627,0,0,0-4.44-1.46,25.372,25.372,0,0,0-6.225-.624,28.8,28.8,0,0,0-7.613,1.357,24.527,24.527,0,0,0-6.993,3.527,29.671,29.671,0,0,0-2.821,2.345,24.623,24.623,0,0,0-5.052,6.551,27.576,27.576,0,0,0-2.228,5.361,25.115,25.115,0,0,0-.964,9.156,26.284,26.284,0,0,0,7.221,16.18c.309.328.633.642.941.97.188.2.26.369-.109.471a73.436,73.436,0,0,1-8.7,2.061c-2.043.306-4.1.441-6.145.75a2.7,2.7,0,0,1-1.43-.059l0,.012" transform="translate(-78.937 -78.974)" fill="#e7e6e7"/>
      <path id="Trazado_610493" data-name="Trazado 610493" d="M175.307,88.811c-1.912,0-3.825,0-5.737,0-.153,0-.369.091-.447-.115-.071-.189.1-.3.23-.411a25.125,25.125,0,0,1,1.815-1.781c.27-.184.214-.421-.017-.648-.7-.684-1.393-1.368-2.061-2.08-.343-.365-.594-.334-.928.009-1.465,1.508-2.956,2.99-4.417,4.5a1.683,1.683,0,0,1-1.338.542c-3.394-.024-6.787-.009-10.181-.017a3.9,3.9,0,0,1-1.19.014c-.333-.1-.32-.193-.12-.4q.528-.537,1.058-1.071c2.322-2.338,4.635-4.685,6.971-7.008,1.771-1.761,3.615-3.451,5.347-5.25,1.285-1.335,2.7-2.543,3.9-3.959.589-.691,1.432-1.165,2.019-1.858.816-.964,1.751-1.8,2.636-2.685q6.735-6.764,13.494-13.5c.7-.7,1.408-1.4,2.081-2.137.282-.307.456-.154.639.054,1.177,1.338,2.412,2.627,3.456,4.079.536.746,1.1,1.473,1.663,2.2.168.218.191.4-.023.587-1.706,1.467-3.209,3.141-4.8,4.729q-6.72,6.717-13.428,13.447c-1.3,1.3-2.582,2.6-3.889,3.889-.291.287-.318.5-.022.786.768.744,1.532,1.494,2.277,2.261.25.257.357.045.483-.1.657-.734,1.373-1.409,2.035-2.14.893-.985,1.92-1.846,2.863-2.787q6.79-6.772,13.562-13.562c.918-.922,1.868-1.813,2.739-2.787.456-.51.582-.555.93.1.7,1.317,1.414,2.627,2.065,3.967.553,1.137,1.025,2.313,1.535,3.471a.716.716,0,0,1-.227.921c-1.859,1.8-3.684,3.642-5.515,5.473q-6.43,6.433-12.849,12.876a1.264,1.264,0,0,1-.993.4c-1.875-.017-3.75-.007-5.625-.007Z" transform="translate(-82.696 -27.852)" fill="#e14055"/>
      <path id="Trazado_610494" data-name="Trazado 610494" d="M143.885,61.493c0-1.806.01-3.611-.008-5.416a1.274,1.274,0,0,1,.405-.991c1.919-1.909,3.826-3.831,5.739-5.746,1.049-1.05,2.147-2.055,3.145-3.152,1.578-1.735,3.266-3.358,4.929-5.006,1.141-1.13,2.2-2.343,3.4-3.4.843-.745,1.543-1.62,2.359-2.38a34.123,34.123,0,0,0,2.8-2.813c.443-.519,1.056-.86,1.522-1.371.308-.338.287-.548-.014-.84-.7-.68-1.393-1.368-2.069-2.072-.266-.277-.48-.228-.712.008-.4.4-.783.809-1.182,1.207-2.242,2.245-4.46,4.516-6.741,6.72-1,.962-2.035,1.885-2.965,2.909-1.2,1.324-2.643,2.411-3.8,3.749-1.288,1.491-2.744,2.8-4.084,4.224-.734.782-1.533,1.5-2.3,2.249-.106.1-.206.25-.378.185-.215-.081-.068-.256-.067-.388.008-1.579.023-3.159.03-4.738.012-2.309.032-4.618.014-6.927a.862.862,0,0,1,.338-.664q2.935-2.959,5.887-5.9,2.991-2.983,5.993-5.954c2.19-2.18,4.384-4.357,6.559-6.553a.774.774,0,0,1,1.032-.178c1.238.574,2.527,1.042,3.741,1.661a12.222,12.222,0,0,1,2.522,1.414,4.779,4.779,0,0,0,.992.386c.577.244.6.454.159.89-.816.8-1.618,1.622-2.45,2.408-.3.28-.277.436.013.71.741.7,1.453,1.431,2.16,2.166.25.26.423.279.685,0,.924-.975,1.871-1.928,2.81-2.889.012-.013.036-.013.049-.024.735-.666.719-.644,1.532-.067,1.928,1.369,3.75,2.871,5.538,4.417.651.564.651.6.052,1.2q-4.494,4.486-8.983,8.979c-2.1,2.094-4.178,4.21-6.325,6.254-1.765,1.68-3.47,3.418-5.193,5.139-1.187,1.184-2.342,2.406-3.536,3.58-1.527,1.5-2.953,3.1-4.5,4.575-2.253,2.152-4.409,4.4-6.621,6.6a10.594,10.594,0,0,0-1.947,1.966c-.125.212-.363.269-.471-.093a1.472,1.472,0,0,1-.062-.438q0-2.793,0-5.586h0" transform="translate(-78.878 -9.943)" fill="#e14055"/>
      <path id="Trazado_610495" data-name="Trazado 610495" d="M39.993,48.924l-.008.428c-.011.013-.033.028-.031.041a.64.64,0,0,0,.028.1q.01.3.02.61c-.01.008-.029.019-.028.024a.38.38,0,0,0,.029.063q0,.408,0,.815c-.01.008-.031.019-.029.023a.419.419,0,0,0,.029.063v.818a.11.11,0,0,0,0,.2c0,.122,0,.244,0,.366-.009.008-.028.019-.027.024A.364.364,0,0,0,40,52.56a3.219,3.219,0,0,1-.021.938.084.084,0,0,0-.024.1c-.163.2-.385.094-.575.1-1.012.012-2.025-.013-3.037.014-.377.01-.465-.112-.46-.473.018-1.429,0-2.858,0-4.288q0-19.633-.012-39.266c0-.519.084-.717.654-.686,1.009.054,2.024.025,3.036.008.3,0,.391.085.378.381-.018.412.008.826.015,1.239,0,.093-.014.187-.014.281q0,18.762,0,37.523c0,.166.031.332.048.5" transform="translate(-19.677 -4.931)" fill="#f8921f"/>
      <path id="Trazado_610496" data-name="Trazado 610496" d="M53.824,45.293c0-5.887.008-11.775-.014-17.663,0-.532.154-.651.649-.632.992.037,1.989.044,2.98,0,.536-.025.553.225.552.637q-.012,10.27,0,20.541c0,4.947-.006,9.894.007,14.841,0,.426-.08.593-.549.574-1.011-.041-2.026-.052-3.036,0-.534.028-.593-.17-.592-.631q.022-8.831.01-17.663Z" transform="translate(-29.513 -14.806)" fill="#f8921f"/>
      <path id="Trazado_610497" data-name="Trazado 610497" d="M143.912,17.642c0-2.709.007-5.417-.008-8.125,0-.369.1-.533.471-.494,1,.1,2,.146,2.985.329.89.166,1.792.038,2.671.226,1.436.307,2.889.515,4.328.81,1.261.26,2.482.68,3.754.884.236.037.547-.025.63.254.07.235-.192.388-.343.54q-2.7,2.717-5.412,5.421-4.182,4.181-8.368,8.359c-.177.176-.34.523-.6.413s-.109-.466-.109-.717q0-3.95,0-7.9h0" transform="translate(-78.904 -4.946)" fill="#e14055"/>
      <path id="Trazado_610498" data-name="Trazado 610498" d="M231.677,117.047a7.355,7.355,0,0,1,1.385-1.53c1.295-1.373,2.739-2.6,3.976-4.029.355-.411.836-.712,1.193-1.121,1.3-1.487,2.862-2.707,4.137-4.22a24.906,24.906,0,0,1,1.936-1.832,16.169,16.169,0,0,1,1.781-1.822c.149-.1.271-.3.484-.212s.187.3.207.485c.133,1.237.637,2.386.844,3.608.25,1.474.642,2.93.8,4.413.139,1.313.321,2.627.391,3.949.032.608.135,1.213.215,1.818.052.393-.1.5-.494.5-3.522-.015-7.045-.008-10.567-.008h-6.289" transform="translate(-127.069 -56.086)" fill="#e14055"/>
      <path id="Trazado_610499" data-name="Trazado 610499" d="M71.769,59.208c0-4.57,0-9.14-.009-13.709,0-.391.091-.512.492-.5,1.03.029,2.063.04,3.092,0,.517-.022.617.158.616.638q-.02,8.8,0,17.6c0,3.216,0,6.432.023,9.647,0,.424-.08.6-.552.58-1.048-.04-2.1-.039-3.148,0-.44.014-.514-.132-.513-.538.015-4.57.009-9.139.009-13.709h-.007" transform="translate(-39.359 -24.677)" fill="#f8921f"/>
      <path id="Trazado_610500" data-name="Trazado 610500" d="M89.771,78.423c0-.146,0-.293,0-.439l.025-.01-.024-.013q0-6.828,0-13.657a1.482,1.482,0,0,1,.033-.221.079.079,0,0,0,0-.1l-.043-.561.024-.008-.026,0c-.064-.238-.041-.4.271-.394,1.2.009,2.395.007,3.592,0,.242,0,.335.112.335.34,0,.357.014.713.013,1.07q0,9.095,0,18.189c0,.093-.01.187-.015.281-.01.008-.03.02-.029.023a.454.454,0,0,0,.032.06c.058.292-.1.357-.35.355q-1.77-.009-3.541-.005c-.513,0-.3-.342-.3-.591a.983.983,0,0,0,.014-.725c0-.1,0-.2.006-.3a13.912,13.912,0,0,0-.018-2.725c0-.151,0-.3,0-.452.012-.01.035-.023.034-.03a.579.579,0,0,0-.034-.084" transform="translate(-49.209 -34.562)" fill="#f8921f"/>
      <path id="Trazado_610501" data-name="Trazado 610501" d="M107.833,87.048c0-1.88.012-3.761-.01-5.64,0-.351.117-.4.414-.4,1.125.012,2.249.014,3.374,0,.322,0,.413.108.412.422q-.009,5.7.005,11.4c0,.308-.13.382-.406.38-1.124-.009-2.249-.012-3.374,0-.342,0-.443-.111-.44-.461.018-1.9.008-3.8.008-5.7h.017" transform="translate(-59.13 -44.429)" fill="#f8921f"/>
      <path id="Trazado_610502" data-name="Trazado 610502" d="M44.936,50.905c-.017-.166-.048-.332-.048-.5q0-18.762,0-37.523c0-.093.009-.187.014-.281a1.173,1.173,0,0,1,.065.658q0,18.683,0,37.366a2.639,2.639,0,0,1-.029.278" transform="translate(-24.619 -6.912)" fill="#e14055"/>
      <path id="Trazado_610503" data-name="Trazado 610503" d="M89.79,98.4a13.943,13.943,0,0,1,.018,2.724A22.664,22.664,0,0,1,89.79,98.4" transform="translate(-49.23 -53.967)" fill="#e14055"/>
      <path id="Trazado_610504" data-name="Trazado 610504" d="M143.782,267.92a.567.567,0,0,1,.008.4c-.23-.13-.2-.264-.008-.4" transform="translate(-78.777 -146.947)" fill="#e14055"/>
      <path id="Trazado_610505" data-name="Trazado 610505" d="M89.8,105.093a.983.983,0,0,1-.014.725,1.814,1.814,0,0,1,.014-.725" transform="translate(-49.23 -57.641)" fill="#e14055"/>
      <path id="Trazado_610506" data-name="Trazado 610506" d="M126.913,144.082a.449.449,0,0,1-.485,0h.485" transform="translate(-69.343 -79.025)" fill="#f8921f"/>
      <path id="Trazado_610507" data-name="Trazado 610507" d="M104.988,144.079a.446.446,0,0,1-.484,0h.484" transform="translate(-57.318 -79.024)" fill="#f8921f"/>
      <path id="Trazado_610508" data-name="Trazado 610508" d="M143.891,269.827l0-.012-.089.012Z" transform="translate(-78.87 -147.987)" fill="#e14055"/>
      <path id="Trazado_610509" data-name="Trazado 610509" d="M89.875,65.159a.078.078,0,0,1,0,.1.436.436,0,0,1-.026-.071c0-.008.017-.019.026-.029" transform="translate(-49.28 -35.738)" fill="#e14055"/>
      <path id="Trazado_610510" data-name="Trazado 610510" d="M89.808,97.14a.579.579,0,0,1,.034.084c0,.007-.022.02-.034.03a.512.512,0,0,1-.02-.078c0-.011.013-.024.02-.036" transform="translate(-49.246 -53.279)" fill="#e14055"/>
      <path id="Trazado_610511" data-name="Trazado 610511" d="M44.936,98.522a.627.627,0,0,1-.028-.1c0-.012.02-.028.031-.041a.6.6,0,0,1,.023.1c0,.014-.017.029-.026.044" transform="translate(-24.631 -53.959)" fill="#e14055"/>
      <path id="Trazado_610512" data-name="Trazado 610512" d="M44.946,104.246a.11.11,0,0,1,0-.2c0,.065,0,.13,0,.2" transform="translate(-24.62 -57.069)" fill="#e14055"/>
      <path id="Trazado_610513" data-name="Trazado 610513" d="M103.4,144.081c-.05.074-.1.075-.15,0h.15" transform="translate(-56.632 -79.025)" fill="#f8921f"/>
      <path id="Trazado_610514" data-name="Trazado 610514" d="M81.614,144.059l-.023.038-.022-.038.023-.019Z" transform="translate(-44.739 -79.002)" fill="#f8921f"/>
      <path id="Trazado_610515" data-name="Trazado 610515" d="M122.475,144.059l-.023.038-.022-.038.023-.019Z" transform="translate(-67.15 -79.002)" fill="#f8921f"/>
      <path id="Trazado_610516" data-name="Trazado 610516" d="M29.79,144.059l-.023.038-.022-.038.023-.019Z" transform="translate(-16.315 -79.002)" fill="#f8921f"/>
      <path id="Trazado_610517" data-name="Trazado 610517" d="M30.787,144.059l-.023.038-.022-.038.023-.019Z" transform="translate(-16.861 -79.002)" fill="#f8921f"/>
      <path id="Trazado_610518" data-name="Trazado 610518" d="M31.783,144.059l-.023.038-.022-.038.023-.019Z" transform="translate(-17.408 -79.002)" fill="#f8921f"/>
      <path id="Trazado_610519" data-name="Trazado 610519" d="M32.78,144.059l-.023.038-.022-.038.023-.019Z" transform="translate(-17.955 -79.002)" fill="#f8921f"/>
      <path id="Trazado_610520" data-name="Trazado 610520" d="M33.777,144.059l-.023.038-.022-.038.023-.019Z" transform="translate(-18.501 -79.002)" fill="#f8921f"/>
      <path id="Trazado_610521" data-name="Trazado 610521" d="M34.773,144.059l-.023.038-.022-.038.023-.019Z" transform="translate(-19.048 -79.002)" fill="#f8921f"/>
      <path id="Trazado_610522" data-name="Trazado 610522" d="M35.77,144.059l-.023.038-.022-.038.023-.019Z" transform="translate(-19.594 -79.002)" fill="#f8921f"/>
      <path id="Trazado_610523" data-name="Trazado 610523" d="M36.767,144.059l-.023.038-.022-.038.023-.019Z" transform="translate(-20.141 -79.002)" fill="#f8921f"/>
      <path id="Trazado_610524" data-name="Trazado 610524" d="M37.763,144.059l-.023.038-.022-.038.023-.019Z" transform="translate(-20.688 -79.002)" fill="#f8921f"/>
      <path id="Trazado_610525" data-name="Trazado 610525" d="M38.76,144.059l-.023.038-.022-.038.023-.019Z" transform="translate(-21.234 -79.002)" fill="#f8921f"/>
      <path id="Trazado_610526" data-name="Trazado 610526" d="M39.756,144.059l-.023.038-.022-.038.023-.019Z" transform="translate(-21.781 -79.002)" fill="#f8921f"/>
      <path id="Trazado_610527" data-name="Trazado 610527" d="M40.753,144.059l-.023.038-.022-.038.023-.019Z" transform="translate(-22.327 -79.002)" fill="#f8921f"/>
      <path id="Trazado_610528" data-name="Trazado 610528" d="M41.75,144.059l-.023.038-.022-.038.023-.019Z" transform="translate(-22.874 -79.002)" fill="#f8921f"/>
      <path id="Trazado_610529" data-name="Trazado 610529" d="M42.746,144.059l-.023.038-.022-.038.023-.019Z" transform="translate(-23.421 -79.002)" fill="#f8921f"/>
      <path id="Trazado_610530" data-name="Trazado 610530" d="M43.743,144.059l-.023.038-.022-.038.023-.019Z" transform="translate(-23.967 -79.002)" fill="#f8921f"/>
      <path id="Trazado_610531" data-name="Trazado 610531" d="M44.739,144.059l-.023.038-.022-.038.023-.019Z" transform="translate(-24.514 -79.002)" fill="#f8921f"/>
      <path id="Trazado_610532" data-name="Trazado 610532" d="M45.736,144.059l-.023.038-.022-.038.023-.019Z" transform="translate(-25.061 -79.002)" fill="#f8921f"/>
      <path id="Trazado_610533" data-name="Trazado 610533" d="M46.733,144.059l-.023.038-.022-.038.023-.019Z" transform="translate(-25.607 -79.002)" fill="#f8921f"/>
      <path id="Trazado_610534" data-name="Trazado 610534" d="M47.729,144.059l-.023.038-.022-.038.023-.019Z" transform="translate(-26.154 -79.002)" fill="#f8921f"/>
      <path id="Trazado_610535" data-name="Trazado 610535" d="M48.726,144.059l-.023.038-.022-.038.023-.019Z" transform="translate(-26.7 -79.002)" fill="#f8921f"/>
      <path id="Trazado_610536" data-name="Trazado 610536" d="M49.722,144.059l-.023.038-.022-.038.023-.019Z" transform="translate(-27.247 -79.002)" fill="#f8921f"/>
      <path id="Trazado_610537" data-name="Trazado 610537" d="M50.719,144.059l-.023.038-.022-.038.023-.019Z" transform="translate(-27.794 -79.002)" fill="#f8921f"/>
      <path id="Trazado_610538" data-name="Trazado 610538" d="M51.716,144.059l-.023.038-.022-.038.023-.019Z" transform="translate(-28.34 -79.002)" fill="#f8921f"/>
      <path id="Trazado_610539" data-name="Trazado 610539" d="M52.712,144.059l-.023.038-.022-.038.023-.019Z" transform="translate(-28.887 -79.002)" fill="#f8921f"/>
      <path id="Trazado_610540" data-name="Trazado 610540" d="M53.709,144.059l-.023.038-.022-.038.023-.019Z" transform="translate(-29.433 -79.002)" fill="#f8921f"/>
      <path id="Trazado_610541" data-name="Trazado 610541" d="M54.706,144.059l-.023.038-.022-.038.023-.019Z" transform="translate(-29.98 -79.002)" fill="#f8921f"/>
      <path id="Trazado_610542" data-name="Trazado 610542" d="M55.7,144.059l-.023.038-.022-.038.023-.019Z" transform="translate(-30.527 -79.002)" fill="#f8921f"/>
      <path id="Trazado_610543" data-name="Trazado 610543" d="M56.7,144.059l-.023.038-.022-.038.023-.019Z" transform="translate(-31.073 -79.002)" fill="#f8921f"/>
      <path id="Trazado_610544" data-name="Trazado 610544" d="M28.794,144.059l-.023.038-.022-.038.023-.019Z" transform="translate(-15.768 -79.002)" fill="#f8921f"/>
      <path id="Trazado_610545" data-name="Trazado 610545" d="M58.692,144.059l-.023.038-.022-.038.023-.019Z" transform="translate(-32.167 -79.002)" fill="#f8921f"/>
      <path id="Trazado_610546" data-name="Trazado 610546" d="M59.689,144.059l-.023.038-.022-.038.023-.019Z" transform="translate(-32.713 -79.002)" fill="#f8921f"/>
      <path id="Trazado_610547" data-name="Trazado 610547" d="M60.685,144.059l-.023.038-.022-.038.023-.019Z" transform="translate(-33.26 -79.002)" fill="#f8921f"/>
      <path id="Trazado_610548" data-name="Trazado 610548" d="M61.682,144.059l-.023.038-.022-.038.023-.019Z" transform="translate(-33.806 -79.002)" fill="#f8921f"/>
      <path id="Trazado_610549" data-name="Trazado 610549" d="M62.678,144.059l-.023.038-.022-.038.023-.019Z" transform="translate(-34.353 -79.002)" fill="#f8921f"/>
      <path id="Trazado_610550" data-name="Trazado 610550" d="M63.675,144.059l-.023.038-.022-.038.023-.019Z" transform="translate(-34.9 -79.002)" fill="#f8921f"/>
      <path id="Trazado_610551" data-name="Trazado 610551" d="M64.672,144.059l-.023.038-.022-.038.023-.019Z" transform="translate(-35.446 -79.002)" fill="#f8921f"/>
      <path id="Trazado_610552" data-name="Trazado 610552" d="M65.668,144.059l-.023.038-.022-.038.023-.019Z" transform="translate(-35.993 -79.002)" fill="#f8921f"/>
      <path id="Trazado_610553" data-name="Trazado 610553" d="M10.856,144.069l-.019.035-.018-.036h.037" transform="translate(-5.934 -79.018)" fill="#f8921f"/>
      <path id="Trazado_610554" data-name="Trazado 610554" d="M44.9,107.661a.085.085,0,0,1,.024-.1.41.41,0,0,1,.011.076c0,.008-.023.014-.035.022" transform="translate(-24.625 -58.996)" fill="#e14055"/>
      <path id="Trazado_610555" data-name="Trazado 610555" d="M27.8,144.059l-.023.038-.022-.038.023-.019Z" transform="translate(-15.221 -79.002)" fill="#f8921f"/>
      <path id="Trazado_610556" data-name="Trazado 610556" d="M69.655,144.059l-.023.038-.022-.038.023-.019Z" transform="translate(-38.179 -79.002)" fill="#f8921f"/>
      <path id="Trazado_610557" data-name="Trazado 610557" d="M70.651,144.059l-.023.038-.022-.038.023-.019Z" transform="translate(-38.726 -79.002)" fill="#f8921f"/>
      <path id="Trazado_610558" data-name="Trazado 610558" d="M71.648,144.059l-.023.038-.022-.038.023-.019Z" transform="translate(-39.273 -79.002)" fill="#f8921f"/>
      <path id="Trazado_610559" data-name="Trazado 610559" d="M72.645,144.059l-.023.038-.022-.038.023-.019Z" transform="translate(-39.819 -79.002)" fill="#f8921f"/>
      <path id="Trazado_610560" data-name="Trazado 610560" d="M73.641,144.059l-.023.038-.022-.038.023-.019Z" transform="translate(-40.366 -79.002)" fill="#f8921f"/>
      <path id="Trazado_610561" data-name="Trazado 610561" d="M74.638,144.059l-.023.038-.022-.038.023-.019Z" transform="translate(-40.912 -79.002)" fill="#f8921f"/>
      <path id="Trazado_610562" data-name="Trazado 610562" d="M75.634,144.059l-.023.038-.022-.038.023-.019Z" transform="translate(-41.459 -79.002)" fill="#f8921f"/>
      <path id="Trazado_610563" data-name="Trazado 610563" d="M76.631,144.059l-.023.038-.022-.038.023-.019Z" transform="translate(-42.006 -79.002)" fill="#f8921f"/>
      <path id="Trazado_610564" data-name="Trazado 610564" d="M77.628,144.059l-.023.038-.022-.038.023-.019Z" transform="translate(-42.552 -79.002)" fill="#f8921f"/>
      <path id="Trazado_610565" data-name="Trazado 610565" d="M78.624,144.059l-.023.038-.022-.038.023-.019Z" transform="translate(-43.099 -79.002)" fill="#f8921f"/>
      <path id="Trazado_610566" data-name="Trazado 610566" d="M79.621,144.059l-.023.038-.022-.038.023-.019Z" transform="translate(-43.646 -79.002)" fill="#f8921f"/>
      <path id="Trazado_610567" data-name="Trazado 610567" d="M80.618,144.059l-.023.038-.022-.038.023-.019Z" transform="translate(-44.192 -79.002)" fill="#f8921f"/>
      <path id="Trazado_610568" data-name="Trazado 610568" d="M11.853,144.07l-.019.035-.019-.036h.038" transform="translate(-6.48 -79.019)" fill="#f8921f"/>
      <path id="Trazado_610569" data-name="Trazado 610569" d="M82.611,144.059l-.023.038-.022-.038.023-.019Z" transform="translate(-45.285 -79.002)" fill="#f8921f"/>
      <path id="Trazado_610570" data-name="Trazado 610570" d="M83.607,144.059l-.023.038-.022-.038.023-.019Z" transform="translate(-45.832 -79.002)" fill="#f8921f"/>
      <path id="Trazado_610571" data-name="Trazado 610571" d="M84.6,144.059l-.023.038-.022-.038.023-.019Z" transform="translate(-46.379 -79.002)" fill="#f8921f"/>
      <path id="Trazado_610572" data-name="Trazado 610572" d="M85.6,144.059l-.023.038-.022-.038.023-.019Z" transform="translate(-46.925 -79.002)" fill="#f8921f"/>
      <path id="Trazado_610573" data-name="Trazado 610573" d="M86.6,144.059l-.023.038-.022-.038.023-.019Z" transform="translate(-47.472 -79.002)" fill="#f8921f"/>
      <path id="Trazado_610574" data-name="Trazado 610574" d="M87.594,144.059l-.023.038-.022-.038.023-.019Z" transform="translate(-48.019 -79.002)" fill="#f8921f"/>
      <path id="Trazado_610575" data-name="Trazado 610575" d="M88.59,144.059l-.023.038-.022-.038.023-.019Z" transform="translate(-48.565 -79.002)" fill="#f8921f"/>
      <path id="Trazado_610576" data-name="Trazado 610576" d="M89.587,144.059l-.023.038-.022-.038.023-.019Z" transform="translate(-49.112 -79.002)" fill="#f8921f"/>
      <path id="Trazado_610577" data-name="Trazado 610577" d="M90.584,144.059l-.023.038-.022-.038.023-.019Z" transform="translate(-49.658 -79.002)" fill="#f8921f"/>
      <path id="Trazado_610578" data-name="Trazado 610578" d="M91.58,144.059l-.023.038-.022-.038.023-.019Z" transform="translate(-50.205 -79.002)" fill="#f8921f"/>
      <path id="Trazado_610579" data-name="Trazado 610579" d="M92.577,144.059l-.023.038-.022-.038.023-.019Z" transform="translate(-50.752 -79.002)" fill="#f8921f"/>
      <path id="Trazado_610580" data-name="Trazado 610580" d="M93.573,144.059l-.023.038-.022-.038.023-.019Z" transform="translate(-51.298 -79.002)" fill="#f8921f"/>
      <path id="Trazado_610581" data-name="Trazado 610581" d="M94.57,144.059l-.023.038-.022-.038.023-.019Z" transform="translate(-51.845 -79.002)" fill="#f8921f"/>
      <path id="Trazado_610582" data-name="Trazado 610582" d="M95.567,144.059l-.023.038-.022-.038.023-.019Z" transform="translate(-52.391 -79.002)" fill="#f8921f"/>
      <path id="Trazado_610583" data-name="Trazado 610583" d="M96.563,144.059l-.023.038-.022-.038.023-.019Z" transform="translate(-52.938 -79.002)" fill="#f8921f"/>
      <path id="Trazado_610584" data-name="Trazado 610584" d="M97.56,144.059l-.023.038-.022-.038.023-.019Z" transform="translate(-53.485 -79.002)" fill="#f8921f"/>
      <path id="Trazado_610585" data-name="Trazado 610585" d="M98.557,144.059l-.023.038-.022-.038.023-.019Z" transform="translate(-54.031 -79.002)" fill="#f8921f"/>
      <path id="Trazado_610586" data-name="Trazado 610586" d="M99.553,144.059l-.023.038-.022-.038.023-.019Z" transform="translate(-54.578 -79.002)" fill="#f8921f"/>
      <path id="Trazado_610587" data-name="Trazado 610587" d="M100.55,144.059l-.023.038-.022-.038.023-.019Z" transform="translate(-55.124 -79.002)" fill="#f8921f"/>
      <path id="Trazado_610588" data-name="Trazado 610588" d="M101.546,144.059l-.023.038-.022-.038.023-.019Z" transform="translate(-55.671 -79.002)" fill="#f8921f"/>
      <path id="Trazado_610589" data-name="Trazado 610589" d="M102.543,144.059l-.023.038-.022-.038.023-.019Z" transform="translate(-56.218 -79.002)" fill="#f8921f"/>
      <path id="Trazado_610590" data-name="Trazado 610590" d="M26.8,144.059l-.023.038-.022-.038.023-.019Z" transform="translate(-14.675 -79.002)" fill="#f8921f"/>
      <path id="Trazado_610591" data-name="Trazado 610591" d="M25.8,144.059l-.023.038-.022-.038.023-.019Z" transform="translate(-14.128 -79.002)" fill="#f8921f"/>
      <path id="Trazado_610592" data-name="Trazado 610592" d="M106.529,144.076l-.021.037-.021-.037h.042" transform="translate(-58.405 -79.022)" fill="#f8921f"/>
      <path id="Trazado_610593" data-name="Trazado 610593" d="M110.267,144.057l-.023.037-.022-.037.023-.019Z" transform="translate(-60.454 -79.002)" fill="#f8921f"/>
      <path id="Trazado_610594" data-name="Trazado 610594" d="M111.512,144.059l-.023.038-.022-.038.023-.019Z" transform="translate(-61.137 -79.002)" fill="#f8921f"/>
      <path id="Trazado_610595" data-name="Trazado 610595" d="M112.509,144.059l-.023.038-.022-.038.023-.019Z" transform="translate(-61.684 -79.002)" fill="#f8921f"/>
      <path id="Trazado_610596" data-name="Trazado 610596" d="M113.506,144.059l-.023.038-.022-.038.023-.019Z" transform="translate(-62.231 -79.002)" fill="#f8921f"/>
      <path id="Trazado_610597" data-name="Trazado 610597" d="M114.5,144.059l-.023.038-.022-.038.023-.019Z" transform="translate(-62.777 -79.002)" fill="#f8921f"/>
      <path id="Trazado_610598" data-name="Trazado 610598" d="M115.5,144.059l-.023.038-.022-.038.023-.019Z" transform="translate(-63.324 -79.002)" fill="#f8921f"/>
      <path id="Trazado_610599" data-name="Trazado 610599" d="M116.5,144.059l-.023.038-.022-.038.023-.019Z" transform="translate(-63.87 -79.002)" fill="#f8921f"/>
      <path id="Trazado_610600" data-name="Trazado 610600" d="M117.492,144.059l-.023.038-.022-.038.023-.019Z" transform="translate(-64.417 -79.002)" fill="#f8921f"/>
      <path id="Trazado_610601" data-name="Trazado 610601" d="M118.489,144.059l-.023.038-.022-.038.023-.019Z" transform="translate(-64.964 -79.002)" fill="#f8921f"/>
      <path id="Trazado_610602" data-name="Trazado 610602" d="M119.485,144.059l-.023.038-.022-.038.023-.019Z" transform="translate(-65.51 -79.002)" fill="#f8921f"/>
      <path id="Trazado_610603" data-name="Trazado 610603" d="M120.482,144.059l-.023.038-.022-.038.023-.019Z" transform="translate(-66.057 -79.002)" fill="#f8921f"/>
      <path id="Trazado_610604" data-name="Trazado 610604" d="M121.479,144.059l-.023.038-.022-.038.023-.019Z" transform="translate(-66.603 -79.002)" fill="#f8921f"/>
      <path id="Trazado_610605" data-name="Trazado 610605" d="M67.661,144.059l-.023.038-.022-.038.023-.019Z" transform="translate(-37.086 -79.002)" fill="#f8921f"/>
      <path id="Trazado_610606" data-name="Trazado 610606" d="M123.472,144.059l-.023.038-.022-.038.023-.019Z" transform="translate(-67.697 -79.002)" fill="#f8921f"/>
      <path id="Trazado_610607" data-name="Trazado 610607" d="M124.468,144.059l-.023.038-.022-.038.023-.019Z" transform="translate(-68.243 -79.002)" fill="#f8921f"/>
      <path id="Trazado_610608" data-name="Trazado 610608" d="M125.465,144.059l-.023.038-.022-.038.023-.019Z" transform="translate(-68.79 -79.002)" fill="#f8921f"/>
      <path id="Trazado_610609" data-name="Trazado 610609" d="M24.807,144.059l-.023.038-.022-.038.023-.019Z" transform="translate(-13.582 -79.002)" fill="#f8921f"/>
      <path id="Trazado_610610" data-name="Trazado 610610" d="M128.455,144.059l-.023.038-.022-.038.023-.019Z" transform="translate(-70.43 -79.002)" fill="#f8921f"/>
      <path id="Trazado_610611" data-name="Trazado 610611" d="M129.451,144.058l-.022.038-.022-.037.022-.019Z" transform="translate(-70.976 -79.002)" fill="#f8921f"/>
      <path id="Trazado_610612" data-name="Trazado 610612" d="M99.062,107.131a.484.484,0,0,1-.033-.06s.019-.016.029-.024a.061.061,0,0,1,0,.084" transform="translate(-54.315 -58.713)" fill="#e14055"/>
      <path id="Trazado_610613" data-name="Trazado 610613" d="M44.975,105.38a.418.418,0,0,1-.028-.061c0-.005.018-.016.027-.024a.062.062,0,0,1,0,.086" transform="translate(-24.652 -57.751)" fill="#e14055"/>
      <path id="Trazado_610614" data-name="Trazado 610614" d="M23.811,144.059l-.023.038-.022-.038.023-.019Z" transform="translate(-13.035 -79.002)" fill="#f8921f"/>
      <path id="Trazado_610615" data-name="Trazado 610615" d="M22.814,144.059l-.023.038-.022-.038.023-.019Z" transform="translate(-12.488 -79.002)" fill="#f8921f"/>
      <path id="Trazado_610616" data-name="Trazado 610616" d="M44.99,102.133a.379.379,0,0,1-.029-.063s.019-.016.029-.023a.065.065,0,0,1,0,.087" transform="translate(-24.66 -55.97)" fill="#e14055"/>
      <path id="Trazado_610617" data-name="Trazado 610617" d="M44.982,100.134a.425.425,0,0,1-.03-.063s.018-.016.028-.024a.063.063,0,0,1,0,.088" transform="translate(-24.655 -54.873)" fill="#e14055"/>
      <path id="Trazado_610618" data-name="Trazado 610618" d="M21.817,144.059l-.023.038-.022-.038.023-.019Z" transform="translate(-11.942 -79.002)" fill="#f8921f"/>
      <path id="Trazado_610619" data-name="Trazado 610619" d="M20.821,144.059l-.023.038-.022-.038.023-.019Z" transform="translate(-11.395 -79.002)" fill="#f8921f"/>
      <path id="Trazado_610620" data-name="Trazado 610620" d="M89.833,96.116l.024.013-.024.011v-.023" transform="translate(-49.271 -52.717)" fill="#e14055"/>
      <path id="Trazado_610621" data-name="Trazado 610621" d="M126.065,72.374l-.023-.036.033.025-.011.011" transform="translate(-69.131 -39.676)" fill="#e14055"/>
      <path id="Trazado_610622" data-name="Trazado 610622" d="M19.824,144.059l-.023.038-.022-.038.023-.019Z" transform="translate(-10.848 -79.002)" fill="#f8921f"/>
      <path id="Trazado_610623" data-name="Trazado 610623" d="M18.827,144.059l-.023.038-.022-.038.023-.019Z" transform="translate(-10.302 -79.002)" fill="#f8921f"/>
      <path id="Trazado_610624" data-name="Trazado 610624" d="M14.841,144.058l-.023.038-.022-.038.023-.019Z" transform="translate(-8.115 -79.002)" fill="#f8921f"/>
      <path id="Trazado_610625" data-name="Trazado 610625" d="M13.846,144.057l-.022.037-.021-.037.022-.019Z" transform="translate(-7.57 -79.001)" fill="#f8921f"/>
      <path id="Trazado_610626" data-name="Trazado 610626" d="M89.806,63.888l.025,0-.024.009v-.013" transform="translate(-49.257 -35.041)" fill="#e14055"/>
      <path id="Trazado_610627" data-name="Trazado 610627" d="M68.658,144.059l-.023.038-.022-.038.023-.019Z" transform="translate(-37.633 -79.002)" fill="#f8921f"/>
      <path id="Trazado_610628" data-name="Trazado 610628" d="M66.665,144.059l-.023.038-.022-.038.023-.019Z" transform="translate(-36.54 -79.002)" fill="#f8921f"/>
      <path id="Trazado_610629" data-name="Trazado 610629" d="M57.7,144.059l-.023.038-.022-.038.023-.019Z" transform="translate(-31.62 -79.002)" fill="#f8921f"/>
      <path id="Trazado_610630" data-name="Trazado 610630" d="M202.581,192.237a7.019,7.019,0,0,1,.982-3.951,7.967,7.967,0,0,1,3.325-3.19,5.286,5.286,0,0,1,1.379-.59c.339-.062.425-.271.415-.612-.032-1.09-.008-2.181-.042-3.271-.014-.443.193-.615.576-.619,1.087-.011,2.175.008,3.261-.009.366-.005.32.217.32.442,0,1.166.02,2.332-.01,3.5a.622.622,0,0,0,.481.689,7.777,7.777,0,0,1,5.368,6.258c.234,1.3.188,1.306-1.147,1.306-.806,0-1.612-.016-2.418.006-.35.01-.505-.066-.479-.458.113-1.671-1.832-3.434-3.515-3.526a3.944,3.944,0,0,0-3.815,1.781,5.393,5.393,0,0,0-.73,2.047,3.067,3.067,0,0,0,.521,1.854,4.047,4.047,0,0,0,3.512,2.353,8.509,8.509,0,0,1,5.425,2.081,8.026,8.026,0,0,1-2.415,13.553c-.688.268-.822.534-.791,1.176.051,1.032,0,2.068.018,3.1.005.319-.09.419-.411.414-1.105-.017-2.212-.019-3.317,0-.358.007-.45-.128-.443-.459.023-1.109,0-2.22.047-3.328.019-.466-.092-.644-.579-.806a7.848,7.848,0,0,1-4.752-4.272,9.944,9.944,0,0,1-.784-2.724c-.066-.419.014-.646.538-.621.991.047,1.986.028,2.979.007.349-.008.477.092.542.452a4.27,4.27,0,0,0,2.944,3.448,3.662,3.662,0,0,0,2.235-.026,3.712,3.712,0,0,0,2.254-1.743,4.014,4.014,0,0,0-2.682-6.082c-.606-.121-1.216-.1-1.824-.2a8.217,8.217,0,0,1-5.294-3.179,8.029,8.029,0,0,1-1.672-4.778l.024-.013Z" transform="translate(-111.09 -98.723)" fill="#060607"/>
      <path id="Trazado_610631" data-name="Trazado 610631" d="M184.178,220.017a33.017,33.017,0,0,1-3.77.043c-.292-.009-.34-.153-.339-.389.006-1.109.013-2.218.011-3.326,0-.228.068-.359.316-.353,1.253.032,2.508-.07,3.76.055l.018.02c.018.139.037.278.055.416-.008.014-.023.03-.021.042a.523.523,0,0,0,.033.087,21.139,21.139,0,0,0-.016,2.92l-.046.485" transform="translate(-98.763 -118.461)" fill="#060607"/>
      <path id="Trazado_610632" data-name="Trazado 610632" d="M256.191,218.078c0,.526-.01,1.053,0,1.579.008.271-.045.408-.363.4-1.124-.016-2.248-.011-3.372,0-.24,0-.336-.073-.334-.316.009-1.146.014-2.292.007-3.438,0-.249.091-.319.329-.317,1.124.01,2.248.016,3.372,0,.318,0,.37.127.363.4-.015.564,0,1.127-.005,1.691" transform="translate(-138.285 -118.463)" fill="#060607"/>
      <path id="Trazado_610633" data-name="Trazado 610633" d="M189.169,224.329l.046-.485a.426.426,0,0,1-.046.485" transform="translate(-103.754 -122.773)" fill="#e14055"/>
      <path id="Trazado_610634" data-name="Trazado 610634" d="M189.265,217.22a.583.583,0,0,1-.033-.087c0-.012.014-.028.021-.043a.544.544,0,0,1,.031.087c0,.012-.012.028-.019.042" transform="translate(-103.789 -119.068)" fill="#e14055"/>
      <path id="Trazado_610635" data-name="Trazado 610635" d="M202.627,207.107l.026.012-.024.013,0-.024" transform="translate(-111.136 -113.593)" fill="#e14055"/>
      <path id="Trazado_610636" data-name="Trazado 610636" d="M189.136,216.133l-.018-.02.042-.01Z" transform="translate(-103.727 -118.527)" fill="#e14055"/>
      <path id="Trazado_610637" data-name="Trazado 610637" d="M58.373,190.656a.823.823,0,0,1-.157-.121,23.588,23.588,0,0,0-2.3-2.375c-.267-.282-.238-.451.024-.711q3.638-3.607,7.257-7.234,3.485-3.482,6.967-6.966,1.769-1.768,3.541-3.532,2.995-2.995,5.984-6c.183-.184.3-.213.494-.007.757.782,1.521,1.559,2.31,2.309.4.377.055.55-.152.758q-3.225,3.225-6.456,6.443-4.835,4.841-9.661,9.692c-1.227,1.231-2.409,2.511-3.694,3.678-1.371,1.246-2.6,2.627-3.957,3.887-.065.06-.132.117-.2.177" transform="translate(-30.566 -89.715)" fill="#060607"/>
      <path id="Trazado_610638" data-name="Trazado 610638" d="M102.138,204.13a5.947,5.947,0,0,1-5.782,6.03,6.171,6.171,0,0,1-6.348-6.2c-.078-2.888,2.906-5.945,5.608-5.967,3.928-.033,6.574,2.774,6.522,6.139m-4.162.045a1.965,1.965,0,0,0-2.041-2.106,2.077,2.077,0,0,0-1.812,2.075,2,2,0,0,0,2.11,1.983,1.809,1.809,0,0,0,1.743-1.951" transform="translate(-49.366 -108.593)" fill="#060607"/>
      <path id="Trazado_610639" data-name="Trazado 610639" d="M60.076,162.225A5.936,5.936,0,0,1,66.2,168.2a6.054,6.054,0,0,1-6.243,6.09,6.27,6.27,0,0,1-5.906-6.15c0-3.134,3.036-6.265,6.021-5.915m1.981,6.2a1.975,1.975,0,1,0-1.949,1.818,1.931,1.931,0,0,0,1.949-1.818" transform="translate(-29.648 -88.962)" fill="#060607"/>
      <path id="Trazado_610640" data-name="Trazado 610640" d="M102.977,209.128a1.809,1.809,0,0,1-1.743,1.951,2,2,0,0,1-2.11-1.983,2.077,2.077,0,0,1,1.812-2.075,1.965,1.965,0,0,1,2.041,2.106" transform="translate(-54.368 -113.546)" fill="#e14055"/>
      <path id="Trazado_610641" data-name="Trazado 610641" d="M66.987,173.256a1.931,1.931,0,0,1-1.949,1.818,2.034,2.034,0,1,1,1.949-1.818" transform="translate(-34.578 -93.793)" fill="#e14055"/>
    </g>
  </g>
</svg>
