<svg xmlns="http://www.w3.org/2000/svg" xmlns:xlink="http://www.w3.org/1999/xlink" width="203" height="189" viewBox="0 0 203 189">
  <defs>
    <clipPath id="clip-path">
      <rect id="Rect치ngulo_378082" data-name="Rect치ngulo 378082" width="115.734" height="115.604" fill="none"/>
    </clipPath>
  </defs>
  <g id="Grupo_1073656" data-name="Grupo 1073656" transform="translate(-701 -16274)">
    <path id="Trazado_608968" data-name="Trazado 608968" d="M94.5,0A94.5,94.5,0,1,1,0,94.5,94.5,94.5,0,0,1,94.5,0Z" transform="translate(715 16274)" fill="#0c5e46"/>
    <rect id="Rect치ngulo_378075" data-name="Rect치ngulo 378075" width="16" height="5" transform="translate(701 16364)" fill="#0c5e46"/>
    <circle id="Elipse_1142" data-name="Elipse 1142" cx="83.5" cy="83.5" r="83.5" transform="translate(726 16285)" fill="#e1efe3"/>
    <g id="Grupo_1072866" data-name="Grupo 1072866" transform="translate(752.133 16311.198)" clip-path="url(#clip-path)">
      <path id="Trazado_610439" data-name="Trazado 610439" d="M53.582,81.726c0-6.534.008-13.069-.009-19.6a1.921,1.921,0,0,1,1.187-1.707q5.978-3.527,11.981-7.01c2.711-1.573,5.448-3.1,8.158-4.675,1.845-1.072,3.708-2.113,5.53-3.227,1.738-1.062,3.544-2.014,5.314-3.024.8-.458,1.576-.964,2.387-1.4a2.244,2.244,0,0,1,2.281.075c2.1,1.208,4.186,2.447,6.286,3.657q4.662,2.688,9.339,5.352c1.955,1.119,3.922,2.22,5.865,3.356,2.485,1.452,4.987,2.877,7.463,4.344q2.15,1.274,4.327,2.5a2.214,2.214,0,0,1,1.253,2.115c-.026,2.229.011,4.46.011,6.69q0,14.935,0,29.871c0,.725-.043,1.451-.019,2.176a1.552,1.552,0,0,1-.711,1.407,44.241,44.241,0,0,1-3.865,2.28q-3.5,1.979-6.973,3.99c-2.416,1.4-4.82,2.817-7.234,4.219-1.677.974-3.371,1.918-5.039,2.907-1.11.658-2.236,1.287-3.349,1.938-1.881,1.1-3.8,2.132-5.668,3.266-.488.3-1.007.544-1.481.861a2.224,2.224,0,0,1-2.6.1c-1.9-1.13-3.812-2.225-5.726-3.324-3.342-1.92-6.694-3.824-10.033-5.751-3.039-1.754-6.064-3.533-9.1-5.293q-3.833-2.222-7.676-4.426c-.253-.146-.508-.289-.757-.442a2.188,2.188,0,0,1-1.181-2.083c.054-6.378.028-12.757.028-19.136h.008m67.883,18.208c-.01-.777-.03-1.554-.03-2.331q0-16.019.018-32.038c0-.32-.1-.325-.322-.21-.168.088-.328.19-.493.284-2.452,1.406-4.9,2.818-7.361,4.21a.688.688,0,0,0-.347.724q.008,6.844,0,13.688a1.931,1.931,0,0,1-1.056,1.852c-.838.454-1.668.924-2.475,1.431-.69.433-1.4.833-2.086,1.28-.512.335-1.123.594-1.681.9-1.173.649-2.327,1.336-3.508,1.97a1.4,1.4,0,0,1-1.259.173A1.862,1.862,0,0,1,99.514,89.9c-.01-1.434,0-2.868,0-4.3,0-2.419-.015-4.839-.016-7.258,0-.361-.042-.476-.417-.237a18.2,18.2,0,0,1-1.572.944c-1.494.746-2.888,1.662-4.362,2.436-.193.1-.2.389-.415.38-.441-.018-.734.284-1.081.457-.746.373-.737.388-.636,1.217a2.511,2.511,0,0,1,0,.311q0,16.047-.007,32.095a3.614,3.614,0,0,1-.08,1.272c-.087.243.064.405.342.332a1.6,1.6,0,0,0,.5-.2c1.045-.717,2.16-1.327,3.256-1.944,1.564-.881,3.117-1.784,4.678-2.671,1.435-.815,2.845-1.675,4.295-2.463,1.367-.744,2.716-1.524,4.052-2.314,1.747-1.032,3.511-2.036,5.264-3.06,2.539-1.483,5.1-2.934,7.645-4.4.188-.109.423-.171.493-.422.006-.046.011-.093.017-.139m-33.973.3h.013q0-8.529.01-17.057a.669.669,0,0,0-.385-.653c-1.293-.754-2.581-1.518-3.878-2.266q-5.858-3.382-11.72-6.755-6.958-4.005-13.919-8c-.143-.082-.286-.271-.457-.175s-.07.313-.07.474q0,16.279,0,32.557a3.7,3.7,0,0,1-.073,1.025.915.915,0,0,0,.512,1.115q3.62,2.074,7.223,4.178c1.322.775,2.668,1.514,4,2.281q9.1,5.25,18.21,10.495c.534.307.54.3.54-.313q0-8.45,0-16.9M89.17,79.519a3.081,3.081,0,0,0,1.063-.46q3.47-2,6.933-4.01c.142-.083.417-.126.378-.286a.783.783,0,0,0-.416-.419c-1.261-.591-2.41-1.38-3.626-2.049-1.417-.78-2.8-1.629-4.2-2.439q-3.965-2.291-7.935-4.572L78.622,63.7Q77,62.768,75.378,61.833q-2.292-1.323-4.583-2.646c-.977-.563-1.964-1.109-2.933-1.686a.859.859,0,0,0-.917-.063c-.481.262-.955.537-1.429.813q-3.1,1.806-6.2,3.614c-.1.059-.247.069-.264.212-.022.18.144.217.257.283q7.294,4.21,14.589,8.419,7.354,4.251,14.7,8.509a.972.972,0,0,0,.565.232m.1-34.85a.9.9,0,0,0-.62.2c-2.436,1.463-4.872,2.925-7.353,4.311-.412.23-.418.39-.008.639.373.227.8.366,1.153.621,1,.728,2.119,1.231,3.168,1.862,1.957,1.176,3.972,2.254,5.945,3.4,2.3,1.343,4.616,2.669,6.916,4.017q2.714,1.591,5.456,3.143c2.218,1.261,4.414,2.563,6.636,3.817.237.134.474.359.9.1,1.9-1.168,3.83-2.3,5.8-3.357.647-.349,1.269-.743,1.929-1.07.11-.055.544-.2.123-.444-1.458-.851-2.924-1.689-4.388-2.529q-5.534-3.174-11.068-6.347-6.265-3.612-12.516-7.247a3.857,3.857,0,0,1-1.125-.7c-.3-.37-.7-.222-.943-.417m18.366,24.377c-.269-.149-.478-.261-.683-.379q-6.829-3.938-13.658-7.876c-.873-.5-1.763-.977-2.627-1.5-1.023-.614-2.031-1.271-3.071-1.834-1.459-.79-2.9-1.613-4.344-2.43q-2.8-1.585-5.557-3.25a.83.83,0,0,0-.953,0c-1.539.9-3.1,1.765-4.629,2.672a4.733,4.733,0,0,0-.912.558c-.228.214-.151.278.062.393.524.285,1.033.6,1.562.877,1,.52,1.962,1.115,2.964,1.639s1.938,1.226,2.976,1.751c.643.324,1.276.741,1.91,1.116.978.577,1.985,1.116,2.964,1.684,1.331.773,2.67,1.537,3.989,2.334.91.55,1.847,1.051,2.764,1.59,3.53,2.073,7.088,4.1,10.632,6.149a.489.489,0,0,0,.563.01c1.99-1.162,3.987-2.311,6.051-3.5m-4.614,12.288h.029c0,1.763.008,3.526-.006,5.288,0,.381.118.425.416.252q2.859-1.653,5.719-3.3c.168-.1.281-.239.224-.421a4.737,4.737,0,0,1-.057-1.473c0-2.489,0-4.978,0-7.468,0-.466.041-.933.035-1.4s-.214-.594-.592-.374c-1.86,1.078-3.713,2.167-5.572,3.246a.352.352,0,0,0-.2.361c.01,1.763.006,3.526.006,5.288" transform="translate(-31.328 -23.871)" fill="#060708"/>
      <path id="Trazado_610440" data-name="Trazado 610440" d="M237.048,3.016c-.086,1.259-.118,2.521-.3,3.775-.077.538-.051,1.09-.1,1.639-.137,1.565-.268,3.13-.358,4.7-.108,1.9-.415,3.793-.412,5.715a20.477,20.477,0,0,1-.425,3.389,2.672,2.672,0,0,1-4.046,1.573,21.77,21.77,0,0,1-2.86-2.834c-.205-.241-.351-.355-.637-.029-.674.77-1.445,1.449-2.176,2.166-1.507,1.479-2.951,3.021-4.46,4.5a7.559,7.559,0,0,1-1.771,1.568,3.348,3.348,0,0,1-3.6-.079,6.906,6.906,0,0,1-.96-.783q-2.976-2.948-5.927-5.92a6.135,6.135,0,0,1-1.25-1.626,3.125,3.125,0,0,1,.676-3.878c.449-.517.967-.977,1.441-1.478.857-.907,1.8-1.732,2.678-2.619,1.259-1.271,2.493-2.567,3.8-3.792.194-.181-.015-.273-.111-.354-.971-.815-1.772-1.8-2.691-2.665a2.752,2.752,0,0,1-.31-3.264A2.483,2.483,0,0,1,214.9,1.61c.5-.072,1.054-.1,1.57-.18,1.322-.216,2.659-.119,3.979-.233C222,1.063,223.54.836,225.091.72c.576-.043,1.154-.076,1.732-.112.981-.06,1.955-.181,2.93-.3.437-.052.88-.067,1.317-.1,1.261-.1,2.53-.129,3.8-.135a2.412,2.412,0,0,1,2.183,2.321c-.005.207,0,.415,0,.622m-4.9,16.429c-.023.047.029-.012.032-.073.053-1.092.187-2.177.232-3.27.024-.6.041-1.2.106-1.791.173-1.558.368-3.11.412-4.682a21.987,21.987,0,0,1,.255-2.69,20.455,20.455,0,0,0,.25-2.914c0-.252-.081-.307-.322-.32a10.356,10.356,0,0,0-1.993.14,31.527,31.527,0,0,1-4.534.382,6.255,6.255,0,0,0-.774.027c-1.027.124-2.05.343-3.078.373-1.606.046-3.2.216-4.8.334-.107.008-.262-.074-.31.087-.035.118.1.163.168.232q1.089,1.069,2.178,2.137a1.861,1.861,0,0,1,0,2.971q-4.349,4.321-8.7,8.644c-.216.214-.259.34-.018.578q3.142,3.115,6.259,6.255c.2.2.312.223.527,0,.851-.88,1.728-1.735,2.594-2.6,2.049-2.049,4.09-4.105,6.15-6.144a1.843,1.843,0,0,1,2.794-.083c.857.8,1.705,1.6,2.562,2.407" transform="translate(-121.323 -0.043)" fill="#060708"/>
      <path id="Trazado_610441" data-name="Trazado 610441" d="M235.961,220.087c-.063.754.322,2.117.438,3.507.031.378.011.76.018,1.14a37.9,37.9,0,0,0,.4,4.371c.071.524.047,1.057.09,1.586.1,1.245.264,2.487.24,3.743a2.525,2.525,0,0,1-2.566,2.6,40.743,40.743,0,0,1-4.761-.241c-1.729-.15-3.449-.357-5.188-.407-1.509-.044-3-.373-4.514-.42a44.029,44.029,0,0,1-4.51-.386,2.658,2.658,0,0,1-2.592-2.051,2.536,2.536,0,0,1,.754-2.581c.868-.832,1.7-1.7,2.556-2.546.14-.139.238-.291.042-.425a23.111,23.111,0,0,1-2.407-2.363c-.889-.82-1.686-1.741-2.577-2.559s-1.76-1.71-2.62-2.577a3.6,3.6,0,0,1-.007-5.425c2.11-2.035,4.189-4.108,6.184-6.255a3.955,3.955,0,0,1,5.565-.169c1.894,2.045,3.942,3.947,5.922,5.912.542.538,1.11,1.056,1.6,1.64.234.279.316.188.5,0,.772-.789,1.543-1.581,2.334-2.351a2.887,2.887,0,0,1,1.577-.9,2.6,2.6,0,0,1,3.067,1.949,24.366,24.366,0,0,1,.459,5.206m-9.369,12.791v.024l.008-.023,1.6.072h-.007c.343.02.688.017,1.027.064a22.863,22.863,0,0,0,3.948.385c.3-.011.352-.11.363-.386a13.557,13.557,0,0,0-.228-2.549c-.3-1.982-.223-3.991-.5-5.973-.138-1-.172-2.007-.231-3.014-.066-1.124-.189-2.244-.293-3.365-.015-.159.1-.388-.091-.461s-.281.157-.4.273c-.77.766-1.523,1.55-2.306,2.3a1.609,1.609,0,0,1-1.4.464,2.562,2.562,0,0,1-1.307-.775c-2.854-2.878-5.725-5.742-8.576-8.622-.262-.264-.382-.237-.632.014-2.019,2.031-4.044,4.056-6.1,6.051-.345.334-.384.461-.024.815q4.358,4.277,8.671,8.6a1.794,1.794,0,0,1,.13,2.707c-.244.267-.523.5-.776.76-.586.6-1.166,1.2-1.788,1.846a3.2,3.2,0,0,0,.661.156c1.144.011,2.276.194,3.419.235.577.021,1.163.021,1.735.094a25.966,25.966,0,0,0,3.088.307" transform="translate(-121.415 -121.436)" fill="#060708"/>
      <path id="Trazado_610442" data-name="Trazado 610442" d="M3,0C4.426.116,5.85.264,7.278.338c.867.045,1.729.127,2.587.231,1.656.2,3.327.14,4.983.38a20.189,20.189,0,0,0,2.952.24,22.416,22.416,0,0,1,3.739.389,7.863,7.863,0,0,1,1.15.181,2.563,2.563,0,0,1,1.6,2.8,2.825,2.825,0,0,1-.934,1.673,21.753,21.753,0,0,1-2.582,2.436c-.182.119-.05.251.07.369q2.893,2.851,5.778,5.71c.661.656,1.313,1.322,1.966,1.986a3.478,3.478,0,0,1,.12,5.02q-3.358,3.514-6.867,6.877a3.555,3.555,0,0,1-4.937-.047c-2.52-2.545-5.07-5.06-7.592-7.6-.289-.292-.429-.361-.744-.018-.746.813-1.555,1.568-2.327,2.356a2.651,2.651,0,0,1-4.077-.083,2.871,2.871,0,0,1-.575-1.708,41.8,41.8,0,0,1-.355-4.593A27.772,27.772,0,0,0,.88,13.852a12.5,12.5,0,0,1-.138-1.839,26.914,26.914,0,0,0-.3-3.29C.387,8.266.366,7.8.354,7.343.313,5.752.12,4.174,0,2.591A2.574,2.574,0,0,1,2.584.038c.137.012.276,0,.413,0C3,.027,3,.013,3,0M4.985,19.464a.459.459,0,0,0,.368-.186c.677-.689,1.343-1.389,2.029-2.068a1.944,1.944,0,0,1,3.164,0c2.8,2.807,5.611,5.609,8.4,8.433.37.375.562.373.93,0q2.966-3.034,5.993-6.008c.291-.286.279-.406.012-.671-2.789-2.772-5.556-5.566-8.351-8.332-1.419-1.4-1.431-2.192.021-3.567.613-.581,1.213-1.176,1.817-1.767.084-.082.194-.168.14-.3-.017-.041-.11-.066-.171-.071-1.427-.108-2.854-.218-4.282-.315-.36-.024-.731.041-1.083-.017-1.105-.182-2.214-.336-3.331-.407a38.9,38.9,0,0,1-4.034-.3,12.608,12.608,0,0,0-2.544-.213c-.147.005-.332-.045-.316.209a14.659,14.659,0,0,0,.076,1.847c.123.65.142,1.319.247,1.973.124.77.037,1.544.1,2.311.146,1.817.347,3.63.508,5.446.118,1.326.208,2.654.312,4.007" transform="translate(0)" fill="#060708"/>
      <path id="Trazado_610443" data-name="Trazado 610443" d="M20.634,228.113a42.876,42.876,0,0,1,3.12,3.191,2.314,2.314,0,0,1,.359,2.533,2.652,2.652,0,0,1-2.093,1.626,37.479,37.479,0,0,1-5.067.43c-1.746.086-3.481.342-5.237.412-1.876.076-3.743.385-5.625.5-1.277.078-2.553.225-3.83.18a2.348,2.348,0,0,1-1.91-1.312,4.394,4.394,0,0,1-.3-2.562c.014-.522.166-1.041.168-1.561.005-1.246.263-2.471.293-3.7.023-.951.26-1.867.258-2.822a17.614,17.614,0,0,1,.289-3.237,25.832,25.832,0,0,0,.23-4.04,14.387,14.387,0,0,1,.544-3.392,2.09,2.09,0,0,1,1.733-1.418,2.686,2.686,0,0,1,2.654.763c.673.717,1.383,1.4,2.078,2.094s.8.466,1.256.009c2.4-2.425,4.826-4.832,7.205-7.282a3.854,3.854,0,0,1,3.506-.944,3.705,3.705,0,0,1,2.078,1.308c1.086,1.044,2.14,2.122,3.2,3.194,1.015,1.027,2.017,2.066,3.03,3.094a3.407,3.407,0,0,1,.064,5.064c-2.429,2.5-4.911,4.942-7.376,7.4a5.592,5.592,0,0,1-.627.471m-1.111,4a.8.8,0,0,0-.313-.491c-.744-.744-1.508-1.469-2.222-2.242a1.626,1.626,0,0,1,0-2.409c.251-.284.533-.54.8-.808q3.938-3.932,7.875-7.864c.535-.534.532-.537-.015-1.084q-3-3-6-6.01c-.223-.225-.315-.179-.512.02q-3.319,3.343-6.658,6.666c-.732.732-1.438,1.493-2.2,2.191a1.7,1.7,0,0,1-2.542.076c-.473-.453-.925-.928-1.385-1.4-.327-.332-.641-.676-.978-1-.178-.171-.365-.328-.4.127-.079,1.121-.2,2.239-.285,3.359-.061.788-.057,1.583-.149,2.366a32.357,32.357,0,0,0-.387,4.117,8.961,8.961,0,0,1-.027,1.294A23.839,23.839,0,0,0,3.736,233c.009.288.08.368.372.378a29.644,29.644,0,0,0,3.608-.31c2.055-.181,4.115-.279,6.169-.5,1.862-.2,3.745-.227,5.637-.453" transform="translate(-0.003 -121.412)" fill="#060708"/>
      <path id="Trazado_610444" data-name="Trazado 610444" d="M92.316,134.781q0,8.45,0,16.9c0,.617-.005.621-.54.313Q82.67,146.75,73.566,141.5c-1.329-.766-2.675-1.505-4-2.28q-3.6-2.109-7.223-4.178a.915.915,0,0,1-.512-1.115,3.694,3.694,0,0,0,.073-1.025q0-16.279,0-32.557c0-.161-.1-.377.07-.474s.314.093.457.175q6.962,4,13.919,8,5.861,3.375,11.72,6.755c1.3.749,2.585,1.512,3.878,2.266a.669.669,0,0,1,.385.653q-.021,8.528-.01,17.057ZM82.8,117.292c.123-.584-.251-1-.712-1.366a4.514,4.514,0,0,0-.564-.362q-3.029-1.751-6.062-3.5-4.292-2.474-8.584-4.947a1.624,1.624,0,0,0-1.8.048,1.815,1.815,0,0,0,.156,3.116c1.561.873,3.093,1.8,4.643,2.691,3.443,1.981,6.884,3.966,10.339,5.926a1.7,1.7,0,0,0,2.581-1.608M64.3,115.58a1.6,1.6,0,0,0,.844,1.547c.865.528,1.751,1.023,2.626,1.536,1.527.9,3.05,1.8,4.58,2.69a2.092,2.092,0,0,0,1.383.452,1.988,1.988,0,0,0,1.622-1.537,1.822,1.822,0,0,0-1.03-1.921c-2.5-1.454-4.993-2.9-7.512-4.315A1.71,1.71,0,0,0,64.3,115.58" transform="translate(-36.151 -58.415)" fill="#de9457"/>
      <path id="Trazado_610445" data-name="Trazado 610445" d="M174.121,134.6c-.069.251-.3.313-.493.422-2.549,1.467-5.106,2.918-7.645,4.4-1.752,1.023-3.516,2.027-5.264,3.06-1.337.79-2.685,1.57-4.052,2.314-1.449.788-2.859,1.648-4.294,2.464-1.561.887-3.113,1.79-4.678,2.671-1.1.617-2.211,1.227-3.256,1.944a1.6,1.6,0,0,1-.5.2c-.278.073-.429-.089-.342-.332a3.615,3.615,0,0,0,.08-1.272q.012-16.047.007-32.095a2.586,2.586,0,0,0,0-.311c-.1-.829-.111-.844.635-1.217.347-.173.64-.475,1.081-.457.214.009.222-.279.415-.38,1.474-.774,2.868-1.69,4.362-2.436a18.138,18.138,0,0,0,1.572-.944c.376-.239.417-.123.417.237,0,2.42.011,4.839.016,7.258,0,1.434-.006,2.868,0,4.3a1.861,1.861,0,0,0,1.356,1.968,1.405,1.405,0,0,0,1.259-.173c1.181-.634,2.334-1.321,3.508-1.971.557-.308,1.169-.567,1.681-.9.683-.447,1.4-.847,2.086-1.281.807-.506,1.637-.977,2.475-1.431a1.929,1.929,0,0,0,1.056-1.852q0-6.844,0-13.688a.688.688,0,0,1,.347-.724c2.46-1.392,4.909-2.8,7.361-4.21.164-.094.325-.2.493-.283.221-.115.323-.111.322.21q-.02,16.018-.018,32.038c0,.777.02,1.554.03,2.332a.091.091,0,0,0-.017.139" transform="translate(-84.001 -58.396)" fill="#f2c692"/>
      <path id="Trazado_610446" data-name="Trazado 610446" d="M96.933,102.83a.971.971,0,0,1-.564-.232q-7.356-4.249-14.7-8.509-7.292-4.215-14.589-8.419c-.114-.066-.278-.1-.258-.283.017-.144.164-.154.264-.212q3.1-1.806,6.2-3.614c.473-.276.948-.551,1.429-.813a.859.859,0,0,1,.917.063c.969.577,1.956,1.124,2.934,1.686q2.293,1.321,4.583,2.646l3.245,1.869,2.748,1.583q3.968,2.285,7.935,4.572c1.4.81,2.78,1.659,4.2,2.439,1.216.669,2.365,1.458,3.626,2.049a.783.783,0,0,1,.416.419c.039.16-.236.2-.378.286q-3.464,2.009-6.933,4.01a3.072,3.072,0,0,1-1.063.46" transform="translate(-39.091 -47.181)" fill="#ba7643"/>
      <path id="Trazado_610447" data-name="Trazado 610447" d="M127.956,50.12c.239.195.646.047.942.417a3.847,3.847,0,0,0,1.125.7q6.257,3.626,12.517,7.248,5.527,3.186,11.068,6.347c1.465.84,2.931,1.678,4.388,2.529.421.246-.013.39-.123.444-.661.327-1.282.722-1.929,1.07-1.966,1.06-3.894,2.19-5.8,3.357-.425.261-.662.036-.9-.1-2.222-1.254-4.418-2.556-6.637-3.817q-2.737-1.555-5.456-3.143c-2.3-1.348-4.612-2.674-6.915-4.017-1.973-1.15-3.988-2.228-5.945-3.4-1.05-.631-2.173-1.134-3.168-1.862-.35-.255-.781-.394-1.153-.621-.41-.25-.4-.409.008-.64,2.481-1.386,4.917-2.848,7.352-4.31a.9.9,0,0,1,.62-.2" transform="translate(-70.015 -29.32)" fill="#ba7643"/>
      <path id="Trazado_610448" data-name="Trazado 610448" d="M132.328,84.316c-2.064,1.193-4.061,2.342-6.051,3.5a.489.489,0,0,1-.564-.009c-3.544-2.049-7.1-4.076-10.632-6.149-.917-.539-1.854-1.04-2.764-1.59-1.318-.8-2.658-1.561-3.988-2.334-.978-.568-1.985-1.108-2.964-1.684-.635-.374-1.268-.791-1.91-1.116-1.038-.525-1.962-1.221-2.976-1.751s-1.962-1.119-2.964-1.639c-.53-.275-1.038-.592-1.563-.877-.213-.116-.289-.179-.062-.393a4.728,4.728,0,0,1,.913-.558c1.533-.907,3.09-1.774,4.629-2.672a.831.831,0,0,1,.954,0q2.756,1.664,5.557,3.25c1.441.817,2.885,1.639,4.344,2.429,1.041.564,2.049,1.221,3.072,1.835.863.518,1.754.992,2.627,1.495q6.83,3.936,13.658,7.876c.205.119.414.23.684.38" transform="translate(-56.021 -39.14)" fill="#f2c692"/>
      <path id="Trazado_610449" data-name="Trazado 610449" d="M172.771,125.8c0-1.763,0-3.526-.006-5.288a.352.352,0,0,1,.2-.361c1.859-1.079,3.712-2.168,5.572-3.246.378-.22.585-.089.592.374s-.034.932-.035,1.4c0,2.489.006,4.978,0,7.468a4.738,4.738,0,0,0,.057,1.473c.057.182-.056.324-.224.421q-2.861,1.648-5.719,3.3c-.3.173-.419.129-.416-.252.014-1.763.006-3.526.006-5.288h-.029" transform="translate(-101.078 -68.333)" fill="#f5f4f4"/>
      <path id="Trazado_610450" data-name="Trazado 610450" d="M217.154,183.451a.091.091,0,0,1,.017-.139c-.005.046-.011.093-.017.139" transform="translate(-127.034 -107.248)" fill="#ba7643"/>
      <path id="Trazado_610451" data-name="Trazado 610451" d="M237.406,24.555c-.857-.805-1.705-1.611-2.562-2.407a1.843,1.843,0,0,0-2.794.083c-2.059,2.039-4.1,4.1-6.15,6.144-.866.866-1.743,1.72-2.594,2.6-.215.222-.33.2-.527,0q-3.121-3.136-6.259-6.255c-.241-.238-.2-.365.018-.578q4.354-4.315,8.7-8.644a1.861,1.861,0,0,0,0-2.971q-1.092-1.066-2.178-2.137c-.07-.068-.2-.114-.168-.232.048-.161.2-.079.31-.087,1.6-.118,3.191-.288,4.8-.334,1.029-.029,2.051-.249,3.078-.373a6.255,6.255,0,0,1,.774-.027,31.527,31.527,0,0,0,4.534-.382,10.356,10.356,0,0,1,1.993-.14c.241.013.324.068.322.32a20.455,20.455,0,0,1-.25,2.914,21.987,21.987,0,0,0-.255,2.69c-.043,1.572-.239,3.124-.412,4.682-.066.59-.082,1.195-.106,1.791-.045,1.093-.179,2.178-.232,3.27,0,.061-.055.12-.032.073" transform="translate(-126.582 -5.152)" fill="#76b8e7"/>
      <path id="Trazado_610452" data-name="Trazado 610452" d="M233.375,237.95l-1.6-.072h-.007a25.79,25.79,0,0,1-3.088-.307c-.572-.073-1.159-.073-1.735-.094-1.143-.041-2.275-.224-3.419-.235a3.21,3.21,0,0,1-.661-.156c.622-.643,1.2-1.247,1.788-1.846.253-.258.532-.493.776-.76a1.794,1.794,0,0,0-.131-2.707c-2.885-2.872-5.766-5.748-8.671-8.6-.36-.353-.321-.48.024-.815,2.054-2,4.079-4.02,6.1-6.051.25-.251.37-.278.632-.014,2.852,2.881,5.722,5.744,8.576,8.622a2.569,2.569,0,0,0,1.307.775,1.609,1.609,0,0,0,1.4-.464c.783-.753,1.536-1.536,2.306-2.3.116-.115.21-.344.4-.273s.076.3.09.461c.1,1.121.228,2.242.294,3.366.059,1.006.093,2.015.231,3.014.273,1.982.2,3.99.5,5.973a13.558,13.558,0,0,1,.228,2.55c-.011.276-.059.375-.364.386a22.861,22.861,0,0,1-3.948-.385c-.339-.046-.685-.044-1.027-.063h.007" transform="translate(-126.592 -126.435)" fill="#76b8e7"/>
      <path id="Trazado_610453" data-name="Trazado 610453" d="M253.474,268.573h.007l-.008.023Z" transform="translate(-148.297 -157.131)" fill="#ba7643"/>
      <path id="Trazado_610454" data-name="Trazado 610454" d="M257.335,268.75h0" transform="translate(-150.553 -157.235)" fill="#ba7643"/>
      <path id="Trazado_610455" data-name="Trazado 610455" d="M10.26,24.632c-.1-1.352-.194-2.681-.312-4.007C9.786,18.809,9.585,17,9.44,15.179c-.061-.767.026-1.542-.1-2.311-.105-.654-.124-1.323-.247-1.973a14.659,14.659,0,0,1-.076-1.847c-.016-.254.169-.2.316-.209a12.608,12.608,0,0,1,2.544.213,38.9,38.9,0,0,0,4.034.3c1.117.071,2.226.225,3.331.407.352.058.723-.007,1.083.017,1.428.1,2.855.207,4.282.315.061,0,.154.03.171.071.054.136-.056.222-.14.3-.6.591-1.2,1.186-1.817,1.767-1.452,1.375-1.44,2.163-.021,3.567,2.794,2.766,5.562,5.56,8.351,8.332.267.265.279.385-.012.671q-3.026,2.974-5.993,6.008c-.368.376-.56.378-.93,0-2.785-2.824-5.594-5.625-8.4-8.433a1.944,1.944,0,0,0-3.164,0c-.686.679-1.352,1.379-2.029,2.068a.459.459,0,0,1-.368.186" transform="translate(-5.275 -5.168)" fill="#76b8e7"/>
      <path id="Trazado_610456" data-name="Trazado 610456" d="M24.777,237.093c-1.892.227-3.775.253-5.637.453-2.055.221-4.115.319-6.169.5a29.644,29.644,0,0,1-3.608.31c-.293-.01-.363-.09-.372-.378A23.839,23.839,0,0,1,9.385,234a8.961,8.961,0,0,0,.027-1.294,32.357,32.357,0,0,1,.387-4.117c.093-.783.088-1.578.149-2.366.087-1.12.206-2.238.285-3.359.032-.455.22-.3.4-.127.336.322.651.666.978,1,.46.467.912.942,1.385,1.4a1.7,1.7,0,0,0,2.542-.076c.763-.7,1.469-1.459,2.2-2.191q3.331-3.331,6.658-6.666c.2-.2.289-.244.512-.02q2.984,3.018,6,6.01c.547.547.551.55.015,1.084q-3.936,3.934-7.875,7.864c-.268.268-.55.524-.8.808a1.626,1.626,0,0,0,0,2.409c.714.773,1.478,1.5,2.222,2.242a.8.8,0,0,1,.313.491" transform="translate(-5.257 -126.392)" fill="#76b8e7"/>
      <path id="Trazado_610457" data-name="Trazado 610457" d="M86.306,127.2a1.7,1.7,0,0,1-2.581,1.608c-3.455-1.96-6.9-3.945-10.339-5.926-1.551-.892-3.083-1.818-4.643-2.691a1.815,1.815,0,0,1-.156-3.116,1.624,1.624,0,0,1,1.8-.048q4.293,2.471,8.584,4.947,3.032,1.748,6.062,3.5a4.541,4.541,0,0,1,.564.361c.46.366.835.783.712,1.366" transform="translate(-39.653 -68.323)" fill="#060708"/>
      <path id="Trazado_610458" data-name="Trazado 610458" d="M67.827,135.286a1.71,1.71,0,0,1,2.512-1.547c2.519,1.412,5.017,2.861,7.512,4.315a1.822,1.822,0,0,1,1.03,1.921,1.988,1.988,0,0,1-1.622,1.537,2.092,2.092,0,0,1-1.383-.452c-1.53-.892-3.053-1.795-4.58-2.69-.875-.513-1.761-1.008-2.626-1.536a1.6,1.6,0,0,1-.844-1.547" transform="translate(-39.683 -78.121)" fill="#060708"/>
    </g>
  </g>
</svg>
