<svg xmlns="http://www.w3.org/2000/svg" xmlns:xlink="http://www.w3.org/1999/xlink" width="70" height="70" viewBox="0 0 70 70">
  <defs>
    <clipPath id="clip-path">
      <rect id="Rectangle_377802" data-name="Rectangle 377802" width="44" height="44" transform="translate(-0.487 -0.487)" fill="#fff"/>
    </clipPath>
  </defs>
  <g id="Group_1073939" data-name="Group 1073939" transform="translate(-920 -2413)">
    <g id="Group_1073931" data-name="Group 1073931" transform="translate(651 1455)">
      <circle id="Ellipse_5614" data-name="Ellipse 5614" cx="35" cy="35" r="35" transform="translate(269 958)" fill="#0c5e46"/>
    </g>
    <g id="Group_1073936" data-name="Group 1073936" transform="translate(797.487 -94.764)">
      <g id="Group_1072429" data-name="Group 1072429" transform="translate(136 2521.25)">
        <g id="Group_1072428" data-name="Group 1072428" clip-path="url(#clip-path)">
          <path id="Path_609444" data-name="Path 609444" d="M154.446,137.324a1.857,1.857,0,0,0-1.1-1.273,34.357,34.357,0,0,0-5.415-1.368.881.881,0,0,1-.5-.886,1.449,1.449,0,0,1,.189-.691,5.028,5.028,0,0,0,2.719-4.655c0-2.759-1.89-5-4.221-5s-4.221,2.237-4.221,5a5.023,5.023,0,0,0,2.732,4.66.946.946,0,0,1,.217.65.965.965,0,0,1-.54.922,34.356,34.356,0,0,0-5.415,1.368,1.856,1.856,0,0,0-1.1,1.273,6,6,0,0,0,.036,3.475.373.373,0,0,0,.35.241h15.889a.373.373,0,0,0,.35-.241,6,6,0,0,0,.036-3.475" transform="translate(-124.508 -111.756)" fill="#fff"/>
          <path id="Path_609445" data-name="Path 609445" d="M214.391,9.161a1.418,1.418,0,0,1-1.418-1.418V1.419a1.418,1.418,0,1,1,2.836,0V7.743a1.418,1.418,0,0,1-1.418,1.418" transform="translate(-192.79 -0.001)" fill="#fff"/>
          <path id="Path_609446" data-name="Path 609446" d="M214.391,366.518a1.418,1.418,0,0,1-1.418-1.418v-6.324a1.418,1.418,0,0,1,2.836,0V365.1a1.418,1.418,0,0,1-1.418,1.418" transform="translate(-192.79 -323.492)" fill="#fff"/>
          <path id="Path_609447" data-name="Path 609447" d="M7.742,214.895H1.418a1.418,1.418,0,1,1,0-2.836H7.742a1.418,1.418,0,1,1,0,2.836" transform="translate(0 -191.962)" fill="#fff"/>
          <path id="Path_609448" data-name="Path 609448" d="M43.935,54.911A15.923,15.923,0,0,1,55.858,43V40.823a18.051,18.051,0,0,0-14.1,14.088Z" transform="translate(-37.802 -36.954)" fill="#fff"/>
          <path id="Path_609449" data-name="Path 609449" d="M277.383,54.935h2.177a18.051,18.051,0,0,0-14.086-14.086v2.175a15.923,15.923,0,0,1,11.91,11.91" transform="translate(-240.314 -36.978)" fill="#fff"/>
          <path id="Path_609450" data-name="Path 609450" d="M277.386,264.424a15.923,15.923,0,0,1-11.913,11.923v2.175a18.05,18.05,0,0,0,14.088-14.1Z" transform="translate(-240.314 -239.365)" fill="#fff"/>
          <path id="Path_609451" data-name="Path 609451" d="M55.838,276.35a15.923,15.923,0,0,1-11.926-11.926H41.737a18.05,18.05,0,0,0,14.1,14.1Z" transform="translate(-37.782 -239.365)" fill="#fff"/>
          <path id="Path_609452" data-name="Path 609452" d="M365.1,214.895h-6.324a1.418,1.418,0,0,1,0-2.836H365.1a1.418,1.418,0,0,1,0,2.836" transform="translate(-323.492 -191.962)" fill="#fff"/>
        </g>
      </g>
    </g>
  </g>
</svg>
