<svg xmlns="http://www.w3.org/2000/svg" xmlns:xlink="http://www.w3.org/1999/xlink" width="201" height="189" viewBox="0 0 201 189">
  <defs>
    <clipPath id="clip-path">
      <rect id="Rect치ngulo_378077" data-name="Rect치ngulo 378077" width="102" height="101.332" fill="none"/>
    </clipPath>
  </defs>
  <g id="Grupo_1073651" data-name="Grupo 1073651" transform="translate(-715 -15191)">
    <rect id="Rect치ngulo_377356" data-name="Rect치ngulo 377356" width="16" height="5" transform="translate(900 15283)" fill="#0c5e46"/>
    <g id="Grupo_1073650" data-name="Grupo 1073650">
      <g id="Grupo_1073649" data-name="Grupo 1073649">
        <g id="Grupo_161158" data-name="Grupo 161158" transform="translate(715 15191)">
          <path id="Trazado_608967" data-name="Trazado 608967" d="M94.5,0A94.5,94.5,0,1,1,0,94.5,94.5,94.5,0,0,1,94.5,0Z" fill="#0c5e46"/>
        </g>
        <g id="Grupo_1071496" data-name="Grupo 1071496" transform="translate(726.535 15202.537)">
          <circle id="Elipse_1142" data-name="Elipse 1142" cx="83.5" cy="83.5" r="83.5" transform="translate(-0.537 -0.537)" fill="#e1efe3"/>
        </g>
      </g>
      <g id="Grupo_1072857" data-name="Grupo 1072857" transform="translate(763 15237.918)">
        <g id="Grupo_1072856" data-name="Grupo 1072856" clip-path="url(#clip-path)">
          <path id="Trazado_610203" data-name="Trazado 610203" d="M1.569,43.9A1.633,1.633,0,0,1,.013,42.106Q.016,23.1.019,4.092a3.619,3.619,0,0,1,.9-2.071A5.5,5.5,0,0,1,3.706.075,1.24,1.24,0,0,1,4.133.034Q19.817.016,35.5.007c1.282,0,1.517.187,1.892,1.4a.89.89,0,0,0,.129.2c-.22.233-.062.557-.208.818a1.694,1.694,0,0,1-1.673.84q-8-.023-16-.013-7.126,0-14.253,0c-1.443,0-2.064.591-2.064,1.926q0,17.364-.014,34.729c0,.437.111.583.57.578,2.416-.024,4.833-.014,7.249-.014,1.313,0,2.627-.01,3.94.01a1.837,1.837,0,0,1,1.873,1.872c.019,1.164.017,2.328.011,3.492a4.368,4.368,0,0,0,.775,2.53,4.9,4.9,0,0,0,4.557,2.286,4.861,4.861,0,0,0,4.278-2.669A6.465,6.465,0,0,0,27.26,45c0-.954,0-1.908,0-2.862a1.686,1.686,0,0,1,.091-.618,1.753,1.753,0,0,1,1.883-1.034q5.546-.039,11.092-.016c.418,0,.563-.086.56-.53-.018-2.926-.009-5.853,0-8.779a1.171,1.171,0,0,1,.069-.612c.084-.157-.045-.4-.206-.313a1.108,1.108,0,0,1-.637.04,11.015,11.015,0,0,1-3.569-.3,8.914,8.914,0,0,1-4.281-3.069,8.154,8.154,0,0,1-1.625-4.247,8.535,8.535,0,0,1,6.9-9.051,14.043,14.043,0,0,1,2.959-.1c.243,0,.388-.02.387-.329q-.016-5.8-.011-11.591A1.429,1.429,0,0,1,42.5.031Q60.747.021,78.99.014a7.188,7.188,0,0,1,2.477.195,5.01,5.01,0,0,1,3.046,2.755,7.015,7.015,0,0,1,.533,3.01q0,17.923.009,35.845a1.85,1.85,0,0,1-.792,1.755,2.083,2.083,0,0,1-1.153.308q-6.69,0-13.379,0a1.585,1.585,0,0,1-1.6-1.633c0-1.051.05-2.1-.011-3.152-.126-2.2-.922-4.1-3.113-4.928-2.82-1.07-5.888-.124-7.015,3.147a4.972,4.972,0,0,0-.2,1.607c-.011,1,.011,2,.008,3.007a1.771,1.771,0,0,1-1.934,1.955c-2.14.007-4.281,0-6.422,0a1.589,1.589,0,0,1-1.672-1.169c-.054-.166-.126-.325-.19-.488a1.831,1.831,0,0,1,1.093-1.546,2.882,2.882,0,0,1,.976-.189q1.873,0,3.746,0c1.109,0,1.08-.005,1.118-1.132a8.888,8.888,0,0,1,.22-2.85,8.949,8.949,0,0,1,3.624-4.765,8.816,8.816,0,0,1,4.284-1.387,8.021,8.021,0,0,1,4.009.921,8.455,8.455,0,0,1,4.282,4.794,10.166,10.166,0,0,1,.5,3.71c-.009.707-.009.71.682.71,3.049,0,6.1-.008,9.146.014.424,0,.5-.124.5-.513q-.015-17.317-.018-34.633a1.883,1.883,0,0,0-2.052-2.083c-11.66-.026-23.32-.012-34.98-.021-.425,0-.542.116-.539.55q.032,5.5.009,11.01c-.007,1.2-.506,2.042-1.994,1.957-.744-.042-1.492-.007-2.237-.022a7.537,7.537,0,0,0-2.535.36,5.259,5.259,0,0,0-3.533,4.712,3.7,3.7,0,0,0,.2,1.262,4.532,4.532,0,0,0,2.233,3.152,4.8,4.8,0,0,0,2.213.763c1.215.027,2.433-.03,3.647.017a1.728,1.728,0,0,1,1.772.942,2.871,2.871,0,0,1,.239,1.2c-.051,4.391.1,8.784-.079,13.174.1,2.123.042,4.248.055,6.372.007,1.211,0,2.422,0,3.632-.228.123-.23.246,0,.37q0,.4,0,.8l-.08.053.078.025c-.08.333.073.416.385.4a10.184,10.184,0,0,1,4.569.795,8.074,8.074,0,0,1,4.895,5.508,6.917,6.917,0,0,1,.39,2.449,8.6,8.6,0,0,1-3.336,6.381A8.239,8.239,0,0,1,47.9,70.7a10.971,10.971,0,0,1-3.315.346c-.341-.029-.439.086-.438.427q.026,5.043.019,10.086c0,.559-.069,1.116-.079,1.677s-.7,1.153-1.445,1.3a3.6,3.6,0,0,1-.675.057q-17.607,0-35.215-.006a9.079,9.079,0,0,1-3.014-.242A5.468,5.468,0,0,1,.026,80.467a2.191,2.191,0,0,1-.012-.579q0-15.591,0-31.182a1.243,1.243,0,0,1,1.522-1.265c.882-.129,1.506.213,1.665.955a5.483,5.483,0,0,1,.116,1.139q.009,14.237.005,28.474,0,.872,0,1.746a.761.761,0,0,0,.111.4,2,2,0,0,0,1.936.986q17.515-.013,35.03,0c.42,0,.493-.121.492-.51q-.023-5.578-.005-11.157a2.04,2.04,0,0,1,.1-.958,1.8,1.8,0,0,1,1.731-.963c1.021-.023,2.043-.009,3.065,0a5.141,5.141,0,0,0,1.961-.323,4.666,4.666,0,0,0,2.973-3.471,5.43,5.43,0,0,0,.028-2.482,4.709,4.709,0,0,0-1.922-2.953,5.5,5.5,0,0,0-3.178-.858c-1.021-.022-2.043,0-3.065-.007a1.624,1.624,0,0,1-1.7-1.674q0-5.724,0-11.448c0-.227.083-.468-.331-.466-3.195.015-6.389.009-9.584.005-.353,0-.569.12-.491.5a6.239,6.239,0,0,1,.008,2,8.028,8.028,0,0,1-.886,3.077,8.952,8.952,0,0,1-5.025,4.2,11.134,11.134,0,0,1-3.548.3,2.5,2.5,0,0,1-.767-.032,9,9,0,0,1-4.839-3.144,7.177,7.177,0,0,1-1.785-4.807c.03-.581-.009-1.164.009-1.746.009-.269-.067-.356-.347-.355Q7.432,43.9,1.569,43.9" transform="translate(0 0)" fill="#060607"/>
          <path id="Trazado_610204" data-name="Trazado 610204" d="M97.247,47.422c.174-4.391.028-8.783.079-13.174a2.868,2.868,0,0,0-.239-1.2,1.726,1.726,0,0,0-1.772-.942c-1.214-.047-2.432.01-3.647-.017a4.8,4.8,0,0,1-2.213-.763,4.536,4.536,0,0,1-2.233-3.152,3.7,3.7,0,0,1-.2-1.262A5.257,5.257,0,0,1,90.551,22.2a7.547,7.547,0,0,1,2.535-.361c.745.015,1.493-.02,2.238.022,1.488.084,1.987-.761,1.994-1.957q.03-5.505-.009-11.01c0-.434.114-.55.539-.55,11.66.009,23.32-.005,34.98.02a1.884,1.884,0,0,1,2.052,2.083q.027,17.316.018,34.632c0,.389-.076.516-.5.513-3.049-.022-6.1-.012-9.146-.014-.691,0-.691,0-.682-.71a10.165,10.165,0,0,0-.5-3.71,8.454,8.454,0,0,0-4.282-4.795,8.022,8.022,0,0,0-4.009-.92,8.812,8.812,0,0,0-4.284,1.387,8.948,8.948,0,0,0-3.624,4.765,8.888,8.888,0,0,0-.22,2.85c-.038,1.127-.009,1.13-1.118,1.132q-1.873,0-3.746,0a2.885,2.885,0,0,0-.976.189,1.829,1.829,0,0,0-1.093,1.545l-3.472.107" transform="translate(-53.136 -5.095)" fill="#e55259"/>
          <path id="Trazado_610205" data-name="Trazado 610205" d="M3.981,112.728q5.862-.006,11.725-.019c.28,0,.355.086.347.355-.018.582.021,1.165-.009,1.746a7.177,7.177,0,0,0,1.785,4.807,9,9,0,0,0,4.839,3.144,2.5,2.5,0,0,0,.767.032,11.134,11.134,0,0,0,3.548-.3,8.952,8.952,0,0,0,5.025-4.2,8.028,8.028,0,0,0,.886-3.077,6.239,6.239,0,0,0-.008-2c-.078-.384.138-.5.491-.5,3.195,0,6.39.01,9.584-.005.414,0,.331.239.331.466q0,5.724,0,11.448a1.624,1.624,0,0,0,1.7,1.674c1.022,0,2.044-.015,3.065.007a5.5,5.5,0,0,1,3.178.858,4.708,4.708,0,0,1,1.922,2.953,5.43,5.43,0,0,1-.028,2.482,4.666,4.666,0,0,1-2.973,3.471,5.141,5.141,0,0,1-1.961.323c-1.021,0-2.044-.018-3.065,0a1.8,1.8,0,0,0-1.731.963,2.041,2.041,0,0,0-.1.958q-.009,5.578.005,11.157c0,.388-.071.51-.492.51q-17.515-.02-35.03,0a2,2,0,0,1-1.936-.986.761.761,0,0,1-.111-.4q0-.873,0-1.746,0-14.237-.005-28.474a5.483,5.483,0,0,0-.116-1.139c-.159-.742-.783-1.085-1.665-.955q.017-1.772.033-3.544" transform="translate(-2.411 -68.831)" fill="#fea92d"/>
          <path id="Trazado_610206" data-name="Trazado 610206" d="M46.053,4.064q0,5.8.011,11.591c0,.31-.145.331-.387.33a14.022,14.022,0,0,0-2.959.1,8.534,8.534,0,0,0-6.9,9.051,8.15,8.15,0,0,0,1.625,4.247,8.912,8.912,0,0,0,4.281,3.069,11.013,11.013,0,0,0,3.569.3,1.108,1.108,0,0,0,.637-.04c.161-.085.29.156.206.313a1.17,1.17,0,0,0-.069.612c-.008,2.927-.017,5.853,0,8.779,0,.444-.142.531-.56.53q-5.546-.017-11.092.016A1.753,1.753,0,0,0,32.537,44a1.678,1.678,0,0,0-.09.618c0,.954,0,1.908,0,2.862a6.465,6.465,0,0,1-.7,2.993,4.861,4.861,0,0,1-4.278,2.669,4.9,4.9,0,0,1-4.556-2.286,4.366,4.366,0,0,1-.775-2.53c.005-1.164.007-2.328-.012-3.492a1.837,1.837,0,0,0-1.873-1.872c-1.313-.02-2.627-.01-3.941-.01-2.416,0-4.833-.01-7.249.014-.459,0-.57-.141-.57-.578q.018-17.364.014-34.729c0-1.334.622-1.924,2.064-1.926q7.127-.006,14.253,0,8,0,16,.013A1.7,1.7,0,0,0,42.5,4.91c.147-.26-.012-.585.208-.818l3.344-.027M15.321,23.676c0-1.2,0-2.392,0-3.588a5.9,5.9,0,0,0-.094-1.146,1.647,1.647,0,0,0-2.023-1.232,2.06,2.06,0,0,0-1.386,2.056c0,2.57.007,5.139-.01,7.709a2.158,2.158,0,0,0,.311,1.126,2.337,2.337,0,0,0,1.631.967A1.82,1.82,0,0,0,15.316,27.7c.013-1.341,0-2.683,0-4.024m-3.5-12.1v.506A1.818,1.818,0,0,0,14,14.155a1.386,1.386,0,0,0,1.222-1.073,7.568,7.568,0,0,0,.017-2.482,1.755,1.755,0,0,0-1.463-1.48,1.993,1.993,0,0,0-1.619.962,2.432,2.432,0,0,0-.336,1.495" transform="translate(-5.186 -2.482)" fill="#07abe7"/>
          <path id="Trazado_610207" data-name="Trazado 610207" d="M150.956,158.8a11.978,11.978,0,0,0,4.27-.236,4.945,4.945,0,0,0,3.441-3.919,4.594,4.594,0,0,0-.108-2.1,5.564,5.564,0,0,0-1.032-2.212,5.47,5.47,0,0,0-2.065-1.422,3.9,3.9,0,0,0-1.767-.275c-1.2-.023-2.4-.044-3.6-.007a1.818,1.818,0,0,1-1.54-1.551q.009-6.739,0-13.478a1.8,1.8,0,0,1,.861-1.636,2.069,2.069,0,0,1,1.155-.229c3.713,0,7.427,0,11.14-.016.116,0,.456.232.4-.2.2-.076.095-.172.018-.267a6.334,6.334,0,0,0,.054-1.443,8.066,8.066,0,0,1,1.605-4.663,8.369,8.369,0,0,1,5.018-3.359,7.876,7.876,0,0,1,3.066-.067,8.365,8.365,0,0,1,6.684,5.232,8.243,8.243,0,0,1,.54,3.706c-.033,1.069-.007,1.07,1.064,1.07q5.3,0,10.6,0a2.221,2.221,0,0,1,1.242.293,1.479,1.479,0,0,1,.714,1.338q-.018,8.05-.007,16.1,0,10.739,0,21.477a4.717,4.717,0,0,1-1.074,2.76,5.394,5.394,0,0,1-2.5,1.786,1.632,1.632,0,0,1-.652.1l-36.381,0c-.649,0-1.3.016-1.945.012a1.418,1.418,0,0,1-1.542-1.269,5.069,5.069,0,0,1-.07-.963q0-6.207,0-12.414a3.519,3.519,0,0,1,.068-1.014,1.364,1.364,0,0,1,1.3-1.071c.29-.014.578-.047.867-.071.051.113.108.113.169.007m18.955,13.572v-.006q8.709,0,17.418,0c1.492,0,2.113-.636,2.113-2.121q-.007-16.977-.011-33.955c0-1.166,0-1.166-1.181-1.166q-5.133,0-10.266,0a1.878,1.878,0,0,1-2.159-2.057c-.018-1.164.046-2.333-.047-3.491a4.7,4.7,0,0,0-2.454-3.946,5.194,5.194,0,0,0-7.85,4.55c-.04,1.065-.028,2.134,0,3.2a1.5,1.5,0,0,1-1.022,1.537,2.639,2.639,0,0,1-1.087.206q-5.522-.007-11.044,0c-.273,0-.488-.027-.486.383.016,3.153.012,6.306,0,9.459,0,.275.077.358.354.354a22.6,22.6,0,0,1,2.854.077,7.283,7.283,0,0,1,1.466.322,7.034,7.034,0,0,1,1.321.727,8.079,8.079,0,0,1,2.854,2.643,9.592,9.592,0,0,1,1.329,3.467,8.172,8.172,0,0,1-.636,4.582,8,8,0,0,1-3.082,3.518,7.459,7.459,0,0,1-4.549,1.444c-.533-.034-1.07-.012-1.605-.014-.479,0-.549.075-.375.526a1.482,1.482,0,0,1,.074.563q0,4.1,0,8.2a1.609,1.609,0,0,1-.015.434c-.124.432.05.573.469.572q8.806-.008,17.613,0" transform="translate(-90.721 -74.265)" fill="#060607"/>
          <path id="Trazado_610208" data-name="Trazado 610208" d="M113.191,134.8c-.23-.124-.228-.247,0-.37a.479.479,0,0,1,0,.37" transform="translate(-69.022 -82.097)" fill="#7eb354"/>
          <path id="Trazado_610209" data-name="Trazado 610209" d="M183.167,146.37c.077.094.182.19-.018.267-.085-.039-.164-.088-.151-.194s.093-.093.169-.073" transform="translate(-111.759 -89.381)" fill="#7eb354"/>
          <path id="Trazado_610210" data-name="Trazado 610210" d="M154.467,217c-.061.105-.117.105-.169-.007.022-.03.039-.08.067-.086.065-.015.105.022.1.093" transform="translate(-94.231 -132.466)" fill="#7eb354"/>
          <path id="Trazado_610211" data-name="Trazado 610211" d="M113.342,137.5l-.078-.025.081-.053a.046.046,0,0,1,0,.077" transform="translate(-69.172 -83.927)" fill="#7eb354"/>
          <path id="Trazado_610212" data-name="Trazado 610212" d="M20.523,44.992c0,1.341.01,2.683,0,4.024a1.82,1.82,0,0,1-1.565,1.869,2.336,2.336,0,0,1-1.631-.967,2.161,2.161,0,0,1-.311-1.127c.017-2.569.005-5.139.01-7.709a2.061,2.061,0,0,1,1.386-2.056,1.648,1.648,0,0,1,2.023,1.232,5.964,5.964,0,0,1,.094,1.146c-.006,1.2,0,2.392,0,3.588" transform="translate(-10.39 -23.798)" fill="#060607"/>
          <path id="Trazado_610213" data-name="Trazado 610213" d="M17.02,19.494A2.432,2.432,0,0,1,17.356,18a1.993,1.993,0,0,1,1.619-.962,1.755,1.755,0,0,1,1.463,1.48A7.568,7.568,0,0,1,20.421,21,1.386,1.386,0,0,1,19.2,22.073,1.818,1.818,0,0,1,17.02,20v-.506" transform="translate(-10.388 -10.4)" fill="#060607"/>
          <path id="Trazado_610214" data-name="Trazado 610214" d="M174.824,177.569q-8.806,0-17.613,0c-.419,0-.594-.14-.469-.572a1.608,1.608,0,0,0,.015-.434q0-4.1,0-8.2a1.482,1.482,0,0,0-.074-.563c-.174-.451-.1-.527.375-.526.535,0,1.072-.02,1.605.014a7.459,7.459,0,0,0,4.549-1.444,8,8,0,0,0,3.082-3.518,8.172,8.172,0,0,0,.636-4.582,9.592,9.592,0,0,0-1.329-3.467,8.079,8.079,0,0,0-2.854-2.643,7.032,7.032,0,0,0-1.321-.727,7.28,7.28,0,0,0-1.466-.322,22.6,22.6,0,0,0-2.853-.077c-.277,0-.355-.079-.354-.354.009-3.153.013-6.306,0-9.459,0-.41.213-.383.486-.383q5.522,0,11.044,0a2.639,2.639,0,0,0,1.087-.206,1.5,1.5,0,0,0,1.022-1.537c-.029-1.066-.041-2.135,0-3.2a5.194,5.194,0,0,1,7.85-4.55,4.7,4.7,0,0,1,2.454,3.946c.093,1.157.03,2.327.047,3.491a1.878,1.878,0,0,0,2.159,2.057q5.133.006,10.266,0c1.185,0,1.181,0,1.181,1.166q0,16.977.011,33.955c0,1.484-.621,2.12-2.113,2.121q-8.709.006-17.418,0Z" transform="translate(-95.635 -79.461)" fill="#7eb354"/>
        </g>
      </g>
    </g>
  </g>
</svg>
