<svg xmlns="http://www.w3.org/2000/svg" xmlns:xlink="http://www.w3.org/1999/xlink" width="201" height="189" viewBox="0 0 201 189">
  <defs>
    <clipPath id="clip-path">
      <rect id="Rect치ngulo_378079" data-name="Rect치ngulo 378079" width="121.444" height="125.296" fill="none"/>
    </clipPath>
  </defs>
  <g id="Grupo_1073653" data-name="Grupo 1073653" transform="translate(-715 -15621)">
    <g id="Grupo_161158" data-name="Grupo 161158" transform="translate(715 15621)">
      <path id="Trazado_608379" data-name="Trazado 608379" d="M94.5,0A94.5,94.5,0,1,1,0,94.5,94.5,94.5,0,0,1,94.5,0Z" fill="#0c5e46"/>
    </g>
    <rect id="Rect치ngulo_377357" data-name="Rect치ngulo 377357" width="16" height="5" transform="translate(900 15710)" fill="#0c5e46"/>
    <g id="Grupo_1071498" data-name="Grupo 1071498" transform="translate(726.537 15632.537)">
      <circle id="Elipse_1142" data-name="Elipse 1142" cx="83.5" cy="83.5" r="83.5" transform="translate(-0.537 -0.537)" fill="#e1efe3"/>
    </g>
    <g id="Grupo_1072861" data-name="Grupo 1072861" transform="translate(748.556 15658)">
      <g id="Grupo_1072860" data-name="Grupo 1072860" clip-path="url(#clip-path)">
        <path id="Trazado_610241" data-name="Trazado 610241" d="M30.148,61.147c-.415-.02-.8.22-1.252.027a2.093,2.093,0,0,1-1.209-1.165,23.347,23.347,0,0,1-.876-2.715c-.318-1.16-.7-2.3-1.1-3.44s-.724-2.306-1.1-3.454c-.947-2.887-1.818-5.8-2.716-8.7-.547-1.769-1.087-3.541-1.655-5.3-.666-2.063-1.261-4.148-1.958-6.2q-.584-1.723-1.108-3.467c-.091-.3-.271-.3-.5-.3-1.086,0-2.172,0-3.258,0-2.565,0-5.132-.032-7.7.018a5.282,5.282,0,0,1-2.361-.425A5.63,5.63,0,0,1,.09,21.929a5.422,5.422,0,0,1,3.932-6.118A3.729,3.729,0,0,1,5.1,15.64q7.949.011,15.9,0a5.156,5.156,0,0,1,4.931,3.49q1.284,3.737,2.456,7.512c.1.319.216.367.468.365.618,0,1.236-.032,1.853-.011.33.011.4-.107.4-.416a6.877,6.877,0,0,1,.18-2.32,4.791,4.791,0,0,1,1.126-1.912.635.635,0,0,0,.128-.881c-.858-1.656-1.669-3.337-2.552-4.98-.783-1.458-.108-2.247,1-2.861,2.985-1.651,5.995-3.258,9-4.876a.6.6,0,0,0,.379-.808,10.271,10.271,0,0,1-.38-2.777A6.987,6.987,0,0,1,41.12,1.539,3.135,3.135,0,0,1,45.513.486C48.833,2.312,52.139,4.164,55.453,6c.536.3,1.093.557,1.618.873a1.921,1.921,0,0,1,1.084,2.439,16.5,16.5,0,0,1-.478,1.912c-.113.35,0,.346.285.373a13.139,13.139,0,0,1,3.63.8,9.258,9.258,0,0,1,3.638,2.643c.233.272.352.3.575.04a9.253,9.253,0,0,1,2.735-2.211,10.27,10.27,0,0,1,3.454-1.06,10.613,10.613,0,0,1,5.532.841,6.852,6.852,0,0,1,2.1,1.463c.446.427.886.86,1.326,1.288,3.83-5.155,11.791-4.73,15.393.013A19.365,19.365,0,0,1,98.5,13.434a9.951,9.951,0,0,1,6.44-1.7,9.549,9.549,0,0,1,6.533,3.334,2.4,2.4,0,0,1,.542,2.356c-.118.422-.459.614-.745.871a2.056,2.056,0,0,1-2.607-.918,4.721,4.721,0,0,0-2.372-1.63,6.151,6.151,0,0,0-5.064.282A5.325,5.325,0,0,0,98.2,21.163c-.017,1.778,0,3.557-.028,5.334-.007.447.165.519.56.518C101.989,27,105.246,27,108.5,27c1.366,0,1.366,0,1.408-1.384a2.03,2.03,0,0,1,2.1-2.247,2.417,2.417,0,0,1,1.658,2.709c-.026.9,0,.9.93.906,1.573,0,3.146,0,4.718,0,1.795,0,2.432,1.1,2,2.639-.25.894-.49,1.793-.788,2.672-.768,2.269-1.4,4.58-2.161,6.853-.325.975-.555,2-.878,2.974-.469,1.421-.786,2.888-1.346,4.282-.268.665-.413,1.379-.647,2.059-.447,1.3-.715,2.653-1.188,3.949-.423,1.156-.675,2.374-1.079,3.538-.363,1.047-.649,2.117-.986,3.171-.425,1.33-.8,2.676-1.211,4.012a19.061,19.061,0,0,1-.843,2.525c-.272.579-.311,1.2-.52,1.777a20.691,20.691,0,0,0-.576,2.035c-.168.68-.442,1.321-.674,1.978A13.078,13.078,0,0,1,107,75.038a3.13,3.13,0,0,1-1.068,1.033c-.321.174-.638.609-1.005.88a4.442,4.442,0,0,1-2.5.824c-5.008.225-10.019.059-15.029.1-.391,0-.9-.117-1.14.082s.082.682.128,1.044a5.447,5.447,0,0,1-3.454,5.628,6.3,6.3,0,0,1-2.2.347q-12.159.02-24.318.03c-7.583,0-15.167-.023-22.75.023a10.451,10.451,0,0,0-3.22.14,4.931,4.931,0,0,0-1.639.968,4.359,4.359,0,0,0-1.082,1.74c-.676,1.393.252,3.527,1.269,4.365a3.886,3.886,0,0,0,2.6.944c5.879-.017,11.758-.007,17.637-.007q20.531,0,41.061,0a2.431,2.431,0,0,1,2.211.753,4.277,4.277,0,0,1,.519,1.038,2.28,2.28,0,0,1-1.913,1.862,8.155,8.155,0,0,1-1.675.021q-21.652,0-43.3,0-7.077,0-14.153,0a7.862,7.862,0,0,1-7.251-4.508,7.351,7.351,0,0,1-.8-3.174,7.79,7.79,0,0,1,.934-3.65A8.16,8.16,0,0,1,27.851,82.4a7.723,7.723,0,0,1,4.274-1.05q22.634.016,45.268,0c.373,0,.746-.032,1.118-.05a11.606,11.606,0,0,0,2.9-.018,1.548,1.548,0,0,0,1.322-1.9c-.129-.934-.763-1.423-1.863-1.476-.893-.042-1.789,0-2.683,0-.711-.007-1.422-.021-2.133-.021l-43.649,0a16.367,16.367,0,0,0-4.032.477,9.777,9.777,0,0,0-4.4,2.477,11.236,11.236,0,0,0-3.659,8.125,10.155,10.155,0,0,0,.437,3.014,10.635,10.635,0,0,0,4.389,6.293,12.194,12.194,0,0,0,6.926,1.987q35.728-.034,71.456-.016c.355,0,.71-.022,1.065-.033.727.007,1.454.032,2.181.018,1.488-.028,1.995-.573,1.991-2.037a1.12,1.12,0,0,0-.806-1.073,8.964,8.964,0,0,0-3.366-.208c-1.469-.009-2.938-.008-4.406-.032a2.028,2.028,0,0,1-2.256-1.986c.151-.928.4-1.6,1.681-1.651,1.14-.05,2.283-.052,3.424-.04,1.532.017,3.065-.067,4.6.08a5.038,5.038,0,0,1,4.286,3.039,4.818,4.818,0,0,1,.541,2.529,5.417,5.417,0,0,1-1.869,3.7,6.26,6.26,0,0,1-4.131,1.4c-.362.022-.553.1-.639.513a11.009,11.009,0,0,1-2.1,4.461,18.534,18.534,0,0,1-1.99,2c-.261.25-.262.426-.053.737a9.525,9.525,0,0,1,1.376,3.708,8.14,8.14,0,0,1-.615,4.269,7.746,7.746,0,0,1-1.779,2.835,9.736,9.736,0,0,1-3.9,2.428,5.6,5.6,0,0,1-1.247.219,8.8,8.8,0,0,1-4.8-.532,9.056,9.056,0,0,1-5.376-8.22,9.246,9.246,0,0,1,1.339-4.789c.221-.4.149-.555-.119-.769a11.28,11.28,0,0,1-1.988-2.029,10.08,10.08,0,0,1-1.975-4.34c-.07-.393-.25-.484-.6-.484q-12.72.006-25.44,0c-.291,0-.431.039-.517.4a11.139,11.139,0,0,1-3.9,6.4c-.35.278-.478.481-.166,1.008a8.377,8.377,0,0,1,1.088,6.452,8.887,8.887,0,0,1-5.178,6.364,8.44,8.44,0,0,1-3.73.722,8.586,8.586,0,0,1-5.342-1.957,9.705,9.705,0,0,1-2.88-4.224c-.519-1.359-.245-2.717-.344-4.073.027-.066.065-.136-.044-.166-.255-.224.056-.437.1-.554a8.764,8.764,0,0,1,1.315-2.757c.27-.3.184-.485-.1-.656a9.05,9.05,0,0,1-2.5-2.726,15.043,15.043,0,0,1-1.535-3.2c-.128-.314,0-.721-.194-1.051l-.01-.028-.02.022a24.779,24.779,0,0,1-3.446-.206,14.769,14.769,0,0,1-11.839-18.9,13.974,13.974,0,0,1,2.506-4.892,14.411,14.411,0,0,1,4.511-3.834,17.069,17.069,0,0,1,4.723-1.656,14.314,14.314,0,0,1,2.325-.142c.636-.025.68-.087.53-.673-.454-1.766-1.037-3.489-1.664-5.2a2.082,2.082,0,0,1,.9-1.981,4.158,4.158,0,0,1,.431-.176c.276.015.553.023.829.048a1.516,1.516,0,0,1,1.376,1.07c.268.756.506,1.523.734,2.292.339,1.141.762,2.255,1,3.427.187.909.6,1.173,1.518,1.153.636-.014,1.273-.009,1.91,0s.658,0,.462-.62c-.506-1.616-1.033-3.226-1.541-4.842q-1.514-4.824-3.014-9.652-1.251-4-2.508-8c-.593-1.885-1.188-3.769-1.8-5.648-.431-1.33-.954-2.633-1.307-3.983-.278-1.063-.689-2.079-.945-3.151-.319-1.334-.824-2.624-1.238-3.936-.848-2.683-1.7-5.363-2.527-8.054-.507-1.659-1.115-3.286-1.529-4.973-.4-1.629-1.047-2.142-2.734-2.146Q13.1,19.234,5.941,19.24a3.038,3.038,0,0,0-1.055.117,1.669,1.669,0,0,0-1.2,1.285,1.591,1.591,0,0,0,.809,1.8,2.826,2.826,0,0,0,1.569.317q5.926,0,11.853-.007A2.036,2.036,0,0,1,20.2,24.227q.249.782.5,1.562c.272.842.5,1.7.775,2.545.388,1.214.705,2.452,1.121,3.656a14.893,14.893,0,0,0,.516,1.683,18.661,18.661,0,0,1,.85,2.464c.344,1.026.677,2.076.963,3.131.339,1.253.818,2.467,1.2,3.708.8,2.576,1.583,5.16,2.381,7.738.369,1.194.758,2.383,1.136,3.574.393,1.24.714,2.509,1.194,3.714a2.362,2.362,0,0,1-.7,3.146M48.191,26.808l.025,0-.023-.009a11.746,11.746,0,0,0,.078-1.726c.055-.477-.12-.664-.626-.658-1.983.023-3.967.01-5.951.011-1.834,0-3.668-.007-5.5,0-.879,0-1.263.315-1.378,1.063l-.042.01.034.068a2.264,2.264,0,0,0-.016,1.13.51.51,0,0,0-.033.129c0,.052.029.057.06.015.151.213.377.125.569.125q6.15,0,12.3-.02c.179,0,.382.06.506-.144m18.89,16.464c-2.069-.035-4.137-.045-6.206.041-.119-.007-.1.046-.05.114,0,.185.01.371.01.556q0,2.732-.009,5.464c0,.081-.006.161-.01.242-.045.3.136.346.371.327.367-.03.734-.088,1.1-.092q2.38-.021,4.76-.012c.307,0,.47-.029.466-.412-.019-1.941-.008-3.882-.011-5.823,0-.176.045-.391-.229-.427-.071-.061-.132-.019-.192.021m-15.127-16.7-.02.026.024.022.045.294-.016,0,0-.01c.177.158.393.095.592.095q2.976,0,5.953,0,2.358,0,4.716-.014c.251,0,.482.026.477-.36-.023-2.04.025-4.082-.062-6.118a5.063,5.063,0,0,0-.9-2.653,6.128,6.128,0,0,0-7.719-1.921A5.228,5.228,0,0,0,52.116,19.8c-.376,2.246-.081,4.516-.162,6.774M94.5,25.868c.01-.011.03-.024.028-.031a.445.445,0,0,0-.033-.075c.056-1.474.07-2.948.007-4.422l.029-.041L94.5,21.26l-.013-.36.028-.031-.032-.03a5.185,5.185,0,0,0-2.461-4.576,6.389,6.389,0,0,0-5.427-.628c-1.912.653-3.76,2.764-3.792,4.569-.038,2.133,0,4.266-.017,6.4,0,.333.118.4.422.4q5.39-.019,10.779-.021c.2,0,.42.025.5-.234a.14.14,0,0,0,.005-.209q0-.338,0-.676M60.854,54.187c-.011.007-.033.018-.032.021a.444.444,0,0,0,.03.063c-.007,2.5-.022,5.008-.011,7.511,0,.282-.145.585.051.858-.009.056.013.068.06.041q2.554.007,5.108.014,6.289,0,12.579,0c.257,0,.49.073.489-.376q-.02-14.038,0-28.077c0-1.194-.017-2.388-.027-3.582v.023a.849.849,0,0,0-.211-.054c-5.829.006-11.658.026-17.487.006-.559,0-.63.187-.544.628-.011.007-.032.017-.032.021a.484.484,0,0,0,.028.063c-.012.224-.034.447-.033.67,0,2.245.012,4.49.008,6.735,0,.7-.019.7.691.7,2.395,0,4.789,0,7.184,0a2.259,2.259,0,0,1,2.51,2.483c-.117,3.226,0,6.455-.074,9.685a1.873,1.873,0,0,1-2.047,1.985q-3.872.041-7.744,0c-.491,0-.569.182-.494.58M72.908,74.219v.009q11.908,0,23.815,0,2.443,0,4.886-.019a2.814,2.814,0,0,0,2.452-1.223,6.928,6.928,0,0,0,.74-1.977c.877-2.749,1.715-5.511,2.578-8.265.189-.6.157-.661-.5-.641q-.617.018-1.235.02-10.222,0-20.444,0c-.674,0-1.348,0-2.022,0-.221,0-.427,0-.381.319.086.586-.035,1.181.02,1.755a2.047,2.047,0,0,1-2.206,2.232q-10.7,0-21.4.01a2.013,2.013,0,0,1-2.043-2.047,8.848,8.848,0,0,0,.008-1.178c0-1.088,0-1.087-1.054-1.087q-5.813,0-11.627-.007c-1.46,0-2.921,0-4.38-.015-.425,0-.519.116-.376.525.217.622.334,1.281.569,1.895.7,1.838,1.119,3.766,1.811,5.605a28.956,28.956,0,0,0,.915,2.889c.187.374.036.924.463,1.143a2.878,2.878,0,0,0,1.332.055q14.042.007,28.083,0M43.436,30.6v.008q-6.572,0-13.145,0c-.668,0-.659.028-.447.66.444,1.326.858,2.661,1.277,3.995.485,1.542.956,3.089,1.443,4.631.231.732.5,1.459.713,2.19.165.553.381.643.879.638q2.949-.034,5.9,0a1.8,1.8,0,0,1,1.73,2.433,1.989,1.989,0,0,1-2.046,1.25q-2.3,0-4.606-.013c-.32,0-.494.036-.385.437.532,1.969,1.221,3.891,1.827,5.836.534,1.715,1.035,3.446,1.638,5.142.163.459.335.607.8.606q8.874-.02,17.748-.006c.317,0,.422-.087.421-.408q-.014-5.589,0-11.178c0-.344-.108-.441-.455-.438-2.527.022-5.055.024-7.583.023a3.38,3.38,0,0,1-.833-.1,2.1,2.1,0,0,1-1.472-1.6,2.017,2.017,0,0,1,1.111-1.8,2.255,2.255,0,0,1,1.142-.2q3.792,0,7.584.012c.262,0,.51.063.509-.368q-.02-5.673,0-11.347c0-.325-.116-.406-.429-.405q-6.657.014-13.314.006m56.545,0v.013q-8.313,0-16.626-.007c-.416,0-.579.079-.576.551q.034,5.476,0,10.953c0,.448.093.612.582.611q11.852-.025,23.7-.015,2.976,0,5.953,0c.291,0,.592.056.676-.389.266-1.39.809-2.7,1.189-4.063.673-2.407,1.528-4.76,2.176-7.176.13-.483-.032-.481-.4-.48q-8.341.011-16.682,0m-2.415,15.79v.014c-4.755,0-9.51.006-14.265-.01-.436,0-.519.136-.518.541.016,3.556.009,7.113.009,10.67,0,.782,0,.784.781.784q9.042,0,18.083,0c2.19,0,4.38.01,6.57.006.234,0,.544.124.626-.272.206-.993.525-1.954.825-2.922.867-2.8,1.7-5.6,2.569-8.4.108-.349.04-.411-.3-.41q-7.188.013-14.377.006M73.291,27.011v-.017c1.777,0,3.554-.009,5.33.008.361,0,.495-.093.492-.468-.014-1.851.025-3.7-.016-5.554a5.441,5.441,0,0,0-4.063-5.367,8.055,8.055,0,0,0-2.261-.2,5.21,5.21,0,0,0-4.684,2.854,3.119,3.119,0,0,0-.578,1.427c-.009,2.282,0,4.564-.015,6.845,0,.362.091.479.463.475,1.777-.018,3.554-.008,5.331-.008m-26.207-6.3v.007c.206,0,.413-.015.617,0,.384.035.558-.03.634-.507a10.835,10.835,0,0,1,.466-2.269,9.831,9.831,0,0,1,4.812-5.39.671.671,0,0,0,.414-.713,3.549,3.549,0,0,1,.158-1.383c.3-.873.3-.88-.468-1.307Q49.19,6.634,44.659,4.125c-.7-.385-.9-.226-.98.556-.174,1.609.354,3.14.538,4.7.22,1.859.5,3.729.83,5.581.174.976.29,1.962.445,2.94.1.642.267,1.275.33,1.92.088.9.06.9.982.889.094,0,.187,0,.281,0M99.4,116.4a5.233,5.233,0,0,0-1.025-3.239.436.436,0,0,0-.614-.165,4.617,4.617,0,0,1-1.693.282,17.625,17.625,0,0,1-5.612-.307c-.235-.06-.356.078-.49.261a5.114,5.114,0,0,0-.856,4.267,5.2,5.2,0,0,0,10.29-1.1m-49.838-.149a4.731,4.731,0,0,0-1.005-3.054c-.108-.163-.208-.325-.441-.237a10.735,10.735,0,0,1-3.041.385,23.883,23.883,0,0,1-3.789-.176c-.323-.027-.609-.445-.973-.07a3.7,3.7,0,0,0-.644.91,5.387,5.387,0,0,0-.462,2.505,5.18,5.18,0,1,0,10.356-.264m44.654-12.335v-.029c-2.526,0-5.051.006-7.577-.008-.31,0-.422.07-.342.376a6.712,6.712,0,0,0,2.523,3.832,7.28,7.28,0,0,0,4.47,1.578,16.5,16.5,0,0,0,3.623-.289,7.323,7.323,0,0,0,5.153-4.732c.269-.642.224-.725-.5-.727-2.451-.009-4.9,0-7.353,0m-49.858,0v-.026c-2.47,0-4.939.009-7.408-.009-.424,0-.537.148-.454.525a2.21,2.21,0,0,0,.113.429,7.489,7.489,0,0,0,6.255,4.76,12.237,12.237,0,0,0,4.2-.21,7.21,7.21,0,0,0,5.193-4.749c.247-.613.174-.715-.492-.717-2.469-.007-4.939,0-7.408,0M39.138,20.723v-.031c.767,0,1.535,0,2.3,0,.743,0,.744,0,.656-.758-.011-.092-.036-.183-.052-.275-.179-1.054-.257-2.123-.49-3.169a17.211,17.211,0,0,0-.455-3.021c-.13-.316.058-.8-.273-.944-.359-.151-.673.245-.994.418-1.857,1-3.706,2.016-5.556,3.029-.183.1-.427.141-.249.477q1.035,1.954,2.02,3.935a.574.574,0,0,0,.621.344c.823-.016,1.647-.005,2.47-.005" transform="translate(0 0)" fill="#060607"/>
        <path id="Trazado_610242" data-name="Trazado 610242" d="M103.245,176.156c-.373.017-.745.05-1.118.05q-22.634.007-45.269,0a7.714,7.714,0,0,0-4.274,1.05,8.155,8.155,0,0,0-2.988,3.13,7.8,7.8,0,0,0-.935,3.65,7.35,7.35,0,0,0,.8,3.174,7.859,7.859,0,0,0,7.251,4.508q7.077,0,14.154,0,21.651,0,43.3,0a8.224,8.224,0,0,0,1.675-.021,2.281,2.281,0,0,0,1.913-1.862c1.518,0,3.037-.007,4.556.01a.562.562,0,0,0,.341-.1,2.028,2.028,0,0,0,2.256,1.986c1.468.024,2.937.022,4.406.032a5.628,5.628,0,0,1,0,3.3c-.355.012-.71.033-1.065.033q-35.728,0-71.456.016a12.2,12.2,0,0,1-6.926-1.987,10.633,10.633,0,0,1-4.389-6.293,10.173,10.173,0,0,1-.438-3.014,11.236,11.236,0,0,1,3.659-8.125,9.772,9.772,0,0,1,4.4-2.477,16.322,16.322,0,0,1,4.032-.477q21.825,0,43.649,0c.711,0,1.422.014,2.133.021a1.376,1.376,0,0,1,.565,1.032,6.162,6.162,0,0,1-.239,2.362" transform="translate(-24.734 -94.859)" fill="#54a5de"/>
        <path id="Trazado_610243" data-name="Trazado 610243" d="M34.59,84.583a2.362,2.362,0,0,0,.7-3.146c-.481-1.205-.8-2.474-1.194-3.714-.378-1.192-.767-2.38-1.136-3.575-.8-2.578-1.577-5.161-2.38-7.737-.387-1.241-.865-2.455-1.205-3.708-.286-1.055-.619-2.105-.963-3.131a18.618,18.618,0,0,0-.85-2.464,15,15,0,0,1-.515-1.684c-.416-1.2-.733-2.441-1.121-3.656-.27-.845-.5-1.7-.775-2.544q-.252-.779-.5-1.562a2.037,2.037,0,0,0-2.283-1.472q-5.926.007-11.853.007a2.828,2.828,0,0,1-1.569-.317,1.591,1.591,0,0,1-.81-1.8,1.669,1.669,0,0,1,1.2-1.285,3.041,3.041,0,0,1,1.055-.117q7.163,0,14.326.008c1.686,0,2.333.517,2.733,2.145.415,1.688,1.023,3.315,1.53,4.973.822,2.691,1.679,5.371,2.527,8.055.415,1.312.92,2.6,1.238,3.936.256,1.072.667,2.088.945,3.151.353,1.349.877,2.653,1.307,3.983.609,1.88,1.2,3.764,1.8,5.648q1.259,4,2.508,8Q40.8,87.4,42.309,92.229c.507,1.616,1.034,3.226,1.541,4.842.2.624.178.628-.463.62s-1.273-.013-1.909,0c-.922.02-1.332-.244-1.518-1.153-.241-1.172-.664-2.286-1-3.426-.229-.769-.467-1.536-.734-2.293a1.516,1.516,0,0,0-1.376-1.069c-.275-.025-.553-.033-.829-.049a3.05,3.05,0,0,0-.223-1.078c-.362-1.11-.652-2.244-1.092-3.33a3.1,3.1,0,0,1-.111-.711" transform="translate(-4.443 -23.436)" fill="#2095d6"/>
        <path id="Trazado_610244" data-name="Trazado 610244" d="M231.582,42.042a2.031,2.031,0,0,0-2.1,2.247c-.042,1.381-.042,1.383-1.408,1.384-3.257,0-6.515,0-9.772.015-.395,0-.567-.071-.56-.518.029-1.778.011-3.556.028-5.334A5.327,5.327,0,0,1,220.8,34.7a6.152,6.152,0,0,1,5.064-.282,4.725,4.725,0,0,1,2.372,1.629,2.056,2.056,0,0,0,2.607.918,7.836,7.836,0,0,1,.73,3c.034.689.007,1.382.007,2.073" transform="translate(-119.575 -18.673)" fill="#fdb14c"/>
        <path id="Trazado_610245" data-name="Trazado 610245" d="M78.71,254.8c.109.03.071.1.044.165-.239,0-.057-.1-.044-.165" transform="translate(-43.181 -139.922)" fill="#54a5de"/>
        <path id="Trazado_610246" data-name="Trazado 610246" d="M72.295,230.487l.02-.022.01.028-.022.02Z" transform="translate(-39.701 -126.559)" fill="#e5576e"/>
        <path id="Trazado_610247" data-name="Trazado 610247" d="M121.231,149.859q-14.042,0-28.083,0a2.873,2.873,0,0,1-1.332-.055c-.426-.219-.276-.77-.463-1.143a29.1,29.1,0,0,1-.914-2.888c-.692-1.839-1.107-3.768-1.811-5.606-.235-.614-.352-1.273-.569-1.895-.142-.409-.048-.53.376-.525,1.46.018,2.921.014,4.381.015q5.813.005,11.627.008c1.054,0,1.054,0,1.054,1.087a8.844,8.844,0,0,1-.009,1.178,2.014,2.014,0,0,0,2.043,2.047q10.7-.032,21.4-.01a2.047,2.047,0,0,0,2.206-2.232c-.055-.574.065-1.17-.02-1.755-.046-.314.16-.32.381-.319.674,0,1.348,0,2.022,0h20.445c.412,0,.824-.008,1.235-.02.661-.019.692.039.5.641-.864,2.754-1.7,5.515-2.579,8.265a6.9,6.9,0,0,1-.74,1.977,2.814,2.814,0,0,1-2.452,1.223q-2.443.022-4.885.019-11.908,0-23.815,0Z" transform="translate(-48.324 -75.64)" fill="#e5576e"/>
        <path id="Trazado_610248" data-name="Trazado 610248" d="M79.63,67.864q6.657,0,13.313-.006c.313,0,.43.08.429.405q-.012,5.673,0,11.347c0,.431-.246.368-.509.368q-3.791-.008-7.583-.012a2.255,2.255,0,0,0-1.142.2,2.017,2.017,0,0,0-1.112,1.8,2.1,2.1,0,0,0,1.472,1.6,3.408,3.408,0,0,0,.833.1c2.527,0,5.055,0,7.583-.023.347,0,.456.094.455.438q-.014,5.589,0,11.178c0,.322-.1.409-.42.408q-8.874-.011-17.748.006c-.463,0-.635-.147-.8-.605-.6-1.7-1.1-3.428-1.638-5.143-.605-1.945-1.3-3.866-1.827-5.836-.108-.4.066-.44.385-.437q2.3.016,4.606.013a1.99,1.99,0,0,0,2.046-1.25,1.8,1.8,0,0,0-1.73-2.433q-2.949-.033-5.9,0c-.5.006-.715-.085-.879-.638-.217-.731-.482-1.458-.714-2.19-.487-1.541-.959-3.088-1.443-4.631-.419-1.334-.833-2.669-1.277-3.995-.212-.633-.22-.66.447-.66q6.572,0,13.145,0v-.008" transform="translate(-36.194 -37.264)" fill="#e5576e"/>
        <path id="Trazado_610249" data-name="Trazado 610249" d="M134.937,99.953c-.2-.273-.05-.576-.051-.858-.011-2.5,0-5.007.011-7.51.01-.007.031-.018.029-.023a.42.42,0,0,0-.028-.062c-.075-.4,0-.585.494-.58q3.871.042,7.744,0a1.873,1.873,0,0,0,2.047-1.985c.075-3.229-.042-6.459.074-9.685a2.259,2.259,0,0,0-2.51-2.483c-2.395-.005-4.789,0-7.184,0-.71,0-.692,0-.691-.7,0-2.245-.007-4.49-.008-6.735,0-.224.022-.447.033-.67.01-.007.031-.017.03-.022a.468.468,0,0,0-.026-.062c-.086-.441-.015-.63.544-.628,5.829.019,11.658,0,17.487-.006a.87.87,0,0,1,.211.054v-.022c.009,1.194.027,2.388.026,3.581q0,14.039,0,28.077c0,.449-.232.376-.489.376q-6.29,0-12.579,0c-1.7,0-3.405-.009-5.108-.013l-.012-.047Z" transform="translate(-74.044 -37.312)" fill="#f5f4f4"/>
        <path id="Trazado_610250" data-name="Trazado 610250" d="M200.807,67.872q8.341,0,16.682,0c.368,0,.531,0,.4.48-.649,2.416-1.5,4.769-2.177,7.176-.38,1.36-.924,2.672-1.189,4.063-.085.445-.385.388-.676.389q-2.977.007-5.953,0-11.852,0-23.7.015c-.489,0-.584-.163-.582-.611q.024-5.477,0-10.953c0-.472.161-.552.576-.551q8.313.016,16.626.007Z" transform="translate(-100.826 -37.269)" fill="#e5576e"/>
        <path id="Trazado_610251" data-name="Trazado 610251" d="M198.4,102.894q7.189,0,14.377-.006c.344,0,.412.061.3.41-.867,2.8-1.7,5.6-2.569,8.4-.3.968-.618,1.929-.825,2.922-.082.4-.392.272-.627.272-2.19,0-4.38-.006-6.569-.006q-9.042,0-18.083,0c-.782,0-.782,0-.782-.784,0-3.557.007-7.114-.009-10.67,0-.406.081-.543.518-.541,4.755.016,9.51.01,14.265.01v-.014" transform="translate(-100.831 -56.501)" fill="#e5576e"/>
        <path id="Trazado_610252" data-name="Trazado 610252" d="M195.333,39.967c.063,1.474.049,2.948-.007,4.421a.13.13,0,0,0,0,.107q0,.338,0,.676c0,.069,0,.139-.006.209-.084.259-.3.233-.5.234q-5.39.009-10.779.021c-.3,0-.425-.071-.422-.4.014-2.133-.021-4.266.018-6.4.032-1.805,1.88-3.916,3.792-4.569a6.39,6.39,0,0,1,5.427.628,5.184,5.184,0,0,1,2.46,4.576.063.063,0,0,0,0,.061l.014.359a.059.059,0,0,0,0,.08" transform="translate(-100.831 -18.626)" fill="#fdb14c"/>
        <path id="Trazado_610253" data-name="Trazado 610253" d="M115.243,45.528l-.045-.294.024-.026-.028-.022c.081-2.257-.214-4.527.162-6.774a5.226,5.226,0,0,1,2.928-3.871A6.127,6.127,0,0,1,126,36.462a5.067,5.067,0,0,1,.9,2.653c.086,2.036.038,4.078.061,6.118,0,.386-.225.36-.477.36q-2.359.006-4.717.014-2.976,0-5.952,0c-.2,0-.416.063-.592-.1l.011.014" transform="translate(-63.24 -18.612)" fill="#fdb14c"/>
        <path id="Trazado_610254" data-name="Trazado 610254" d="M155.5,45.782c-1.777,0-3.554-.01-5.33.008-.373,0-.466-.112-.463-.475.017-2.281.006-4.564.015-6.845a3.123,3.123,0,0,1,.578-1.427,5.21,5.21,0,0,1,4.684-2.854,8.07,8.07,0,0,1,2.261.2,5.442,5.442,0,0,1,4.063,5.367c.041,1.85,0,3.7.016,5.554,0,.375-.131.471-.492.468-1.776-.017-3.554-.008-5.33-.008v.017" transform="translate(-82.214 -18.77)" fill="#fdb14c"/>
        <path id="Trazado_610255" data-name="Trazado 610255" d="M100.244,25.492c-.093,0-.187,0-.28,0-.923.016-.894.013-.982-.889-.064-.644-.229-1.278-.33-1.919-.155-.979-.271-1.965-.445-2.94-.331-1.853-.61-3.722-.829-5.581-.185-1.56-.713-3.091-.539-4.7.084-.783.283-.941.979-.556q4.533,2.508,9.059,5.026c.768.427.769.434.469,1.307a3.541,3.541,0,0,0-.159,1.383.671.671,0,0,1-.413.713,9.829,9.829,0,0,0-4.812,5.39,10.772,10.772,0,0,0-.466,2.269c-.077.477-.251.542-.635.507-.2-.018-.411,0-.616,0Z" transform="translate(-53.16 -4.781)" fill="#54a5de"/>
        <path id="Trazado_610256" data-name="Trazado 610256" d="M207.776,253.965a5.2,5.2,0,0,1-10.29,1.1,5.113,5.113,0,0,1,.856-4.267c.134-.182.255-.321.49-.261a17.627,17.627,0,0,0,5.612.307,4.623,4.623,0,0,0,1.693-.282.436.436,0,0,1,.615.165,5.237,5.237,0,0,1,1.025,3.239" transform="translate(-108.374 -137.559)" fill="#e5576e"/>
        <path id="Trazado_610257" data-name="Trazado 610257" d="M97.321,253.823a5.18,5.18,0,1,1-10.356.264,5.392,5.392,0,0,1,.461-2.505,3.716,3.716,0,0,1,.644-.91c.365-.375.651.044.973.07a23.828,23.828,0,0,0,3.789.175,10.713,10.713,0,0,0,3.041-.385c.233-.088.333.074.442.237a4.734,4.734,0,0,1,1.005,3.054" transform="translate(-47.757 -137.566)" fill="#e5576e"/>
        <path id="Trazado_610258" data-name="Trazado 610258" d="M199.3,230.455c2.451,0,4.9,0,7.353,0,.721,0,.766.086.5.727A7.323,7.323,0,0,1,202,235.917a16.509,16.509,0,0,1-3.624.289,7.28,7.28,0,0,1-4.47-1.578,6.712,6.712,0,0,1-2.523-3.833c-.08-.306.032-.378.341-.376,2.526.014,5.051.008,7.577.008v.029" transform="translate(-105.084 -126.534)" fill="#2095d6"/>
        <path id="Trazado_610259" data-name="Trazado 610259" d="M88.783,230.447c2.469,0,4.939,0,7.409,0,.665,0,.739.1.491.717a7.209,7.209,0,0,1-5.192,4.748,12.226,12.226,0,0,1-4.2.211,7.488,7.488,0,0,1-6.255-4.76,2.161,2.161,0,0,1-.113-.429c-.083-.376.031-.527.454-.524,2.469.019,4.939.009,7.408.009Z" transform="translate(-44.423 -126.53)" fill="#2095d6"/>
        <path id="Trazado_610260" data-name="Trazado 610260" d="M80.509,35.938c-.823,0-1.647-.01-2.47.005a.574.574,0,0,1-.621-.344q-.986-1.979-2.02-3.935c-.178-.337.065-.377.249-.477,1.85-1.013,3.7-2.028,5.556-3.029.321-.174.635-.569.994-.418.33.139.142.628.273.944a17.209,17.209,0,0,1,.455,3.021c.233,1.047.311,2.115.49,3.169.016.092.041.183.052.275.088.755.087.757-.656.758-.767,0-1.535,0-2.3,0v.031" transform="translate(-41.371 -15.215)" fill="#54a5de"/>
        <path id="Trazado_610261" data-name="Trazado 610261" d="M134.893,102.124q0-2.732.009-5.464c0-.185-.007-.371-.01-.556l.05-.114c2.068-.087,4.137-.076,6.205-.042a.154.154,0,0,0,.193-.02c.274.036.229.251.229.427,0,1.941-.009,3.882.011,5.823,0,.382-.159.413-.466.412q-2.38-.011-4.76.012c-.367,0-.733.061-1.1.092-.235.019-.416-.027-.371-.327.109-.077.1-.158.01-.243" transform="translate(-74.067 -52.676)" fill="#f5f4f4"/>
        <path id="Trazado_610262" data-name="Trazado 610262" d="M77.11,55.237c.115-.748.5-1.058,1.378-1.063,1.834-.009,3.668,0,5.5,0,1.984,0,3.968.013,5.951-.011.505-.006.681.182.626.659a11.74,11.74,0,0,1-.078,1.725l0,.006c-.124.2-.327.144-.506.144q-6.15.015-12.3.02c-.191,0-.417.087-.568-.125-.009-.048-.018-.1-.027-.145a2.262,2.262,0,0,1,.015-1.13.074.074,0,0,0,.009-.078" transform="translate(-42.296 -29.742)" fill="#54a5de"/>
        <path id="Trazado_610263" data-name="Trazado 610263" d="M173.741,176.16a6.161,6.161,0,0,0,.239-2.362,1.376,1.376,0,0,0-.565-1.032c.895,0,1.791-.045,2.683,0,1.1.052,1.734.541,1.864,1.475a1.549,1.549,0,0,1-1.322,1.9,11.626,11.626,0,0,1-2.9.018" transform="translate(-95.231 -94.863)" fill="#2095d6"/>
        <path id="Trazado_610264" data-name="Trazado 610264" d="M231.969,218.164a5.625,5.625,0,0,0,0-3.3,8.964,8.964,0,0,1,3.366.208,1.12,1.12,0,0,1,.806,1.073c0,1.464-.5,2.009-1.991,2.037-.727.014-1.454-.01-2.181-.018" transform="translate(-127.385 -117.961)" fill="#2095d6"/>
        <path id="Trazado_610265" data-name="Trazado 610265" d="M77.124,59.229l.027.145c-.031.041-.06.036-.06-.016a.511.511,0,0,1,.033-.129" transform="translate(-42.334 -32.526)" fill="#2095d6"/>
        <path id="Trazado_610266" data-name="Trazado 610266" d="M148.978,95.9a.155.155,0,0,1-.193.021c.061-.04.121-.082.193-.021" transform="translate(-81.706 -52.644)" fill="#2095d6"/>
        <path id="Trazado_610267" data-name="Trazado 610267" d="M134.9,109.677c.093.085.1.166-.01.243,0-.081.007-.162.01-.243" transform="translate(-74.076 -60.229)" fill="#54a5de"/>
        <path id="Trazado_610268" data-name="Trazado 610268" d="M209.58,59.085l.005-.209a.14.14,0,0,1-.005.209" transform="translate(-115.091 -32.332)" fill="#e5576e"/>
        <path id="Trazado_610269" data-name="Trazado 610269" d="M77.166,56.548a.074.074,0,0,1-.009.078l-.033-.069.042-.01" transform="translate(-42.353 -31.053)" fill="#2095d6"/>
        <path id="Trazado_610270" data-name="Trazado 610270" d="M134.913,96.071l-.05.114c-.052-.068-.069-.121.05-.114" transform="translate(-74.038 -52.757)" fill="#54a5de"/>
        <path id="Trazado_610271" data-name="Trazado 610271" d="M134.936,120.189a.425.425,0,0,1,.028.062s-.019.015-.029.022a.511.511,0,0,1-.031-.063s.021-.014.032-.021" transform="translate(-74.082 -66.002)" fill="#54a5de"/>
        <path id="Trazado_610272" data-name="Trazado 610272" d="M134.944,69.353a.468.468,0,0,1,.026.062s-.019.014-.03.022a.452.452,0,0,1-.027-.063s.02-.014.031-.021" transform="translate(-74.087 -38.085)" fill="#54a5de"/>
        <path id="Trazado_610273" data-name="Trazado 610273" d="M135.06,138.931l.049-.005.012.047c-.048.027-.07.014-.061-.041" transform="translate(-74.167 -76.291)" fill="#54a5de"/>
        <path id="Trazado_610274" data-name="Trazado 610274" d="M175.442,68.017v0" transform="translate(-96.344 -37.351)" fill="#2095d6"/>
        <path id="Trazado_610275" data-name="Trazado 610275" d="M115.323,59.683l-.011-.014-.005.01Z" transform="translate(-63.32 -32.767)" fill="#e5576e"/>
        <path id="Trazado_610276" data-name="Trazado 610276" d="M106.889,59.455v-.006l.023.009Z" transform="translate(-58.698 -32.646)" fill="#2095d6"/>
        <path id="Trazado_610277" data-name="Trazado 610277" d="M115.211,58.942l.028.022-.024.027-.024-.023Z" transform="translate(-63.257 -32.368)" fill="#e5576e"/>
        <path id="Trazado_610278" data-name="Trazado 610278" d="M209.586,57.247a.129.129,0,0,1,0-.107.485.485,0,0,1,.033.076c0,.007-.018.021-.028.031" transform="translate(-115.086 -31.378)" fill="#e5576e"/>
        <path id="Trazado_610279" data-name="Trazado 610279" d="M209.585,47.236a.059.059,0,0,1,0-.08l.033.04Z" transform="translate(-115.084 -25.896)" fill="#e5576e"/>
        <path id="Trazado_610280" data-name="Trazado 610280" d="M209.557,46.284a.061.061,0,0,1,0-.061l.032.03Z" transform="translate(-115.072 -25.383)" fill="#e5576e"/>
      </g>
    </g>
  </g>
</svg>
