<svg xmlns="http://www.w3.org/2000/svg" xmlns:xlink="http://www.w3.org/1999/xlink" width="120" height="120" viewBox="0 0 120 120">
  <defs>
    <clipPath id="clip-path">
      <rect id="Rectángulo_378123" data-name="Rectángulo 378123" width="85" height="77.078" fill="#0c5e46"/>
    </clipPath>
  </defs>
  <g id="Grupo_1073660" data-name="Grupo 1073660" transform="translate(-180 -20192)">
    <g id="Grupo_1071464" data-name="Grupo 1071464" transform="translate(-89 19234)">
      <path id="Trazado_608972" data-name="Trazado 608972" d="M60,0A60,60,0,1,1,0,60,60,60,0,0,1,60,0Z" transform="translate(269 958)" fill="#e1efe3"/>
    </g>
    <g id="Grupo_1072938" data-name="Grupo 1072938" transform="translate(194 20205.461)">
      <g id="Grupo_1072937" data-name="Grupo 1072937" clip-path="url(#clip-path)">
        <path id="Trazado_610757" data-name="Trazado 610757" d="M11.706,146.243l4.573-5.028a15.892,15.892,0,0,1-1.93-13.785,15.537,15.537,0,0,1,6.776-8.743,16.01,16.01,0,0,1,20.537,24.12c-4.829,5.622-14.422,7.979-22.9,1.424-1.284,1.46-2.63,2.968-3.94,4.508a.961.961,0,0,0-.188.824c.5,1.009.059,1.686-.646,2.36q-4.036,3.868-8.032,7.776a1.617,1.617,0,0,1-2.663-.042c-.872-.929-1.769-1.833-2.662-2.742a1.528,1.528,0,0,1-.02-2.458c2.809-2.728,5.575-5.5,8.467-8.14.529-.482,1.571-.4,2.377-.582l.252.507m30.015-13.974A12.111,12.111,0,1,0,29.6,144.411a12.032,12.032,0,0,0,12.125-12.141" transform="translate(0 -83.3)" fill="#0c5e46"/>
        <path id="Trazado_610758" data-name="Trazado 610758" d="M281.362,145.63q0,7.149,0,14.3c0,1.784-.364,2.145-2.14,2.156-1.085.007-2.171.012-3.256,0-1.592-.02-1.972-.4-1.973-2.032q-.008-13.731,0-27.462,0-1.061,0-2.123a1.411,1.411,0,0,1,1.565-1.586c1.321-.017,2.643.016,3.963-.014s1.857.61,1.851,1.9c-.022,4.954-.009,9.909-.009,14.864" transform="translate(-196.371 -92.358)" fill="#0c5e46"/>
        <path id="Trazado_610759" data-name="Trazado 610759" d="M184.521,174.789c0,3.256.01,6.513,0,9.769-.007,1.67-.335,1.99-1.981,2.007-1.18.012-2.36-.02-3.539.007a1.577,1.577,0,0,1-1.848-1.781q0-9.981,0-19.962a1.574,1.574,0,0,1,1.827-1.8c1.226.027,2.455.043,3.68,0,1.325-.051,1.887.535,1.875,1.854-.031,3.3-.01,6.607-.01,9.91" transform="translate(-126.964 -116.839)" fill="#0c5e46"/>
        <path id="Trazado_610760" data-name="Trazado 610760" d="M233.128,184.17c0,2.687.015,5.375,0,8.062-.013,1.66-.464,2.1-2.09,2.112-1.178.01-2.358-.013-3.536.006-1.145.018-1.766-.445-1.763-1.664q.019-8.557,0-17.114c0-1.2.572-1.712,1.733-1.7,1.226.017,2.452-.009,3.677.007,1.446.018,1.957.488,1.974,1.943.032,2.781.009,5.563.01,8.345" transform="translate(-161.786 -124.619)" fill="#0c5e46"/>
        <path id="Trazado_610761" data-name="Trazado 610761" d="M192.979,87.218c-1.883-.646-2.434-1.414-1.841-2.32a1.811,1.811,0,0,1,1.081-.764c1.395-.207,2.807-.324,4.216-.4,1.354-.075,1.916.535,1.8,1.886-.1,1.124-.218,2.248-.387,3.363-.124.821-.144,1.764-1.289,1.918-1.188.159-1.524-.673-1.775-1.556-3.263,3.218-6.57,6.369-9.733,9.659a3.054,3.054,0,0,1-3.733.859c-3.492-1.251-7.054-2.3-10.574-3.479a1.784,1.784,0,0,0-1.9.332c-2.012,1.628-4.073,3.2-6.259,4.9l-1.389-2.511c1.683-1.313,3.495-2.511,5.04-3.987a5.175,5.175,0,0,1,6.313-1.185,91.865,91.865,0,0,0,9.235,3.011,1.651,1.651,0,0,0,1.365-.179c3.272-3.113,6.49-6.283,9.836-9.548" transform="translate(-115.526 -60.008)" fill="#0c5e46"/>
        <path id="Trazado_610762" data-name="Trazado 610762" d="M56.336,65.616A27.876,27.876,0,0,1,59.4,53.091l9.83,5.663-1.535,6.862Z" transform="translate(-40.377 -38.051)" fill="#0c5e46"/>
        <path id="Trazado_610763" data-name="Trazado 610763" d="M216.187,53.085a28.448,28.448,0,0,1,3.108,12.473H207.91l-1.552-6.793,9.829-5.681" transform="translate(-147.899 -38.047)" fill="#0c5e46"/>
        <path id="Trazado_610764" data-name="Trazado 610764" d="M170.451,3.016l-5.715,9.905-5.426-1.427V.039a26.844,26.844,0,0,1,11.141,2.977" transform="translate(-114.179 -0.028)" fill="#0c5e46"/>
        <path id="Trazado_610765" data-name="Trazado 610765" d="M85.958,25.211,81.835,29.3,72.173,23.73a27.1,27.1,0,0,1,8.16-8.224l5.625,9.705" transform="translate(-51.727 -11.113)" fill="#0c5e46"/>
        <path id="Trazado_610766" data-name="Trazado 610766" d="M187.4,25.289l5.6-9.7a26.972,26.972,0,0,1,8.213,8.189l-9.754,5.634L187.4,25.289" transform="translate(-134.308 -11.174)" fill="#0c5e46"/>
        <path id="Trazado_610767" data-name="Trazado 610767" d="M109.631,3.008A27.052,27.052,0,0,1,120.737,0V11.468L115.351,12.9l-5.72-9.892" transform="translate(-78.574)" fill="#0c5e46"/>
        <path id="Trazado_610768" data-name="Trazado 610768" d="M146.9,81.255a2.872,2.872,0,0,1-2.85-2.75,2.982,2.982,0,0,1,2.68-2.953,3.618,3.618,0,0,0,1.766-.782c1.165-1.025,2.226-2.171,3.324-3.273.7-.7,1.466-.914,2.225-.168.8.784.452,1.523-.235,2.2-.806.794-1.594,1.6-2.4,2.4-.886.879-1.83,1.612-1.779,3.149.04,1.193-1.46,2.178-2.734,2.177" transform="translate(-103.238 -50.787)" fill="#0c5e46"/>
        <path id="Trazado_610769" data-name="Trazado 610769" d="M136.175,218.205c0,2,0,4.109,0,6.221a1.514,1.514,0,0,1-1.761,1.694,32.79,32.79,0,0,1-3.945-.059A2.146,2.146,0,0,1,128.9,224.9c-.163-.816-.5-1.8.785-2.493,2.241-1.211,4.3-2.759,6.488-4.2" transform="translate(-92.266 -156.39)" fill="#0c5e46"/>
      </g>
    </g>
  </g>
</svg>
