<svg xmlns="http://www.w3.org/2000/svg" xmlns:xlink="http://www.w3.org/1999/xlink" width="70" height="70" viewBox="0 0 70 70">
  <defs>
    <clipPath id="clip-path">
      <rect id="Rectangle_377803" data-name="Rectangle 377803" width="42" height="42" transform="translate(0.397 0.397)" fill="#fff"/>
    </clipPath>
  </defs>
  <g id="Group_1073940" data-name="Group 1073940" transform="translate(-1230 -2413)">
    <g id="Group_1073932" data-name="Group 1073932" transform="translate(961 1455)">
      <circle id="Ellipse_5614" data-name="Ellipse 5614" cx="35" cy="35" r="35" transform="translate(269 958)" fill="#03386e"/>
    </g>
    <g id="Group_1073937" data-name="Group 1073937" transform="translate(1107.603 -140.647)">
      <g id="Group_1072431" data-name="Group 1072431" transform="translate(136 2567.25)">
        <g id="Group_1072430" data-name="Group 1072430" clip-path="url(#clip-path)">
          <path id="Path_609453" data-name="Path 609453" d="M100.574,112.207A13.221,13.221,0,1,1,113.8,98.985a13.236,13.236,0,0,1-13.221,13.221m0-24.342a11.12,11.12,0,1,0,11.12,11.12,11.133,11.133,0,0,0-11.12-11.12" transform="translate(-79.32 -77.878)" fill="#fff"/>
          <path id="Path_609454" data-name="Path 609454" d="M153.259,144.637l1.944,3.94a.659.659,0,0,0,.5.361l4.348.632a.659.659,0,0,1,.365,1.125l-3.146,3.067a.659.659,0,0,0-.19.584l.743,4.33a.659.659,0,0,1-.957.7l-3.889-2.044a.659.659,0,0,0-.614,0l-3.889,2.044a.659.659,0,0,1-.957-.7l.743-4.33a.659.659,0,0,0-.19-.584l-3.146-3.067a.659.659,0,0,1,.365-1.125l4.348-.632a.659.659,0,0,0,.5-.361l1.944-3.94a.659.659,0,0,1,1.183,0" transform="translate(-131.412 -131.002)" fill="#fff"/>
          <path id="Path_609455" data-name="Path 609455" d="M6.492,270.526a.4.4,0,0,0-.61-.244c-2.87,1.951-6.467,5.454-5.8,10.524a.575.575,0,0,0,.8.431,14.574,14.574,0,0,1,4.893-1.754.553.553,0,0,1,.608.6,12.4,12.4,0,0,0,1.5,7.5.524.524,0,0,0,.925.019,26.153,26.153,0,0,1,4.548-7.466.4.4,0,0,0-.086-.611,15.364,15.364,0,0,1-6.772-9" transform="translate(0 -245.364)" fill="#fff"/>
          <path id="Path_609456" data-name="Path 609456" d="M330.96,7.067a.575.575,0,0,0-.8-.431,14.574,14.574,0,0,1-4.893,1.755.553.553,0,0,1-.608-.6,12.4,12.4,0,0,0-1.5-7.5.524.524,0,0,0-.925-.019,26.393,26.393,0,0,1-4.382,7.291.4.4,0,0,0,.085.6,15.359,15.359,0,0,1,6.676,9.13.4.4,0,0,0,.613.25c2.857-1.961,6.388-5.448,5.729-10.475" transform="translate(-288.53 -0.001)" fill="#fff"/>
        </g>
      </g>
    </g>
  </g>
</svg>
