<svg xmlns="http://www.w3.org/2000/svg" xmlns:xlink="http://www.w3.org/1999/xlink" width="1030" height="600" viewBox="0 0 1030 600">
  <defs>
    <linearGradient id="linear-gradient" x1="0.5" x2="0.5" y2="1" gradientUnits="objectBoundingBox">
      <stop offset="0" stop-color="#f3f9ff"/>
      <stop offset="1" stop-color="#fcfffe"/>
    </linearGradient>
  </defs>
  <g id="Group_1074114" data-name="Group 1074114" transform="translate(-285 -23234.076)">
    <path id="Path_612934" data-name="Path 612934" d="M0,0H1030V600H0Z" transform="translate(285 23234.076)" fill="url(#linear-gradient)"/>
    <path id="Path_612935" data-name="Path 612935" d="M33,0H270V232H0V33A33,33,0,0,1,33,0Z" transform="translate(651 23344.918)" fill="#fffee1"/>
    <path id="Path_612936" data-name="Path 612936" d="M33,0H270V232H0V33A33,33,0,0,1,33,0Z" transform="translate(1200 23815.918) rotate(180)" fill="#e1efe3"/>
    <path id="Path_612937" data-name="Path 612937" d="M0,0H237a33,33,0,0,1,33,33V232H0Z" transform="translate(930 23344.918)" fill="#feebe5"/>
    <path id="Path_612938" data-name="Path 612938" d="M0,0H237a33,33,0,0,1,33,33V232H0Z" transform="translate(921 23815.918) rotate(180)" fill="#dbe5f3"/>
    <path id="Path_612939" data-name="Path 612939" d="M36.436,10.07h-4.5v3.047h5.281V15H29.592V3.625H37.2v1.9H31.936V8.234h4.5Zm6.586,2.594a.727.727,0,0,0-.41-.652,4.659,4.659,0,0,0-1.316-.426q-3.016-.633-3.016-2.562a2.323,2.323,0,0,1,.934-1.879,3.766,3.766,0,0,1,2.441-.754,4.053,4.053,0,0,1,2.574.758,2.388,2.388,0,0,1,.965,1.969H42.936a1.092,1.092,0,0,0-.312-.8A1.322,1.322,0,0,0,41.647,8a1.351,1.351,0,0,0-.883.258.814.814,0,0,0-.312.656.7.7,0,0,0,.355.605,3.657,3.657,0,0,0,1.2.4,9.8,9.8,0,0,1,1.422.379,2.336,2.336,0,0,1,1.789,2.273,2.2,2.2,0,0,1-.992,1.871,4.28,4.28,0,0,1-2.562.715,4.47,4.47,0,0,1-1.887-.379,3.166,3.166,0,0,1-1.293-1.039,2.414,2.414,0,0,1-.469-1.426h2.141a1.179,1.179,0,0,0,.445.922,1.766,1.766,0,0,0,1.109.32,1.635,1.635,0,0,0,.98-.246A.766.766,0,0,0,43.022,12.664Zm6.352-8.2V6.547h1.445V8.2H49.374v4.219a1.007,1.007,0,0,0,.18.672.9.9,0,0,0,.688.2,3.6,3.6,0,0,0,.664-.055v1.711a4.648,4.648,0,0,1-1.367.2,2.156,2.156,0,0,1-2.422-2.4V8.2H45.882V6.547h1.234V4.469Zm7.453,4.2a6.134,6.134,0,0,0-.812-.062,1.654,1.654,0,0,0-1.68.867V15H52.077V6.547H54.21l.063,1.008a2.092,2.092,0,0,1,1.883-1.164,2.366,2.366,0,0,1,.7.1Zm4.828,6.492a4.15,4.15,0,0,1-3.027-1.141,4.054,4.054,0,0,1-1.168-3.039v-.219a5.106,5.106,0,0,1,.492-2.277,3.612,3.612,0,0,1,1.395-1.547A3.914,3.914,0,0,1,61.4,6.391a3.508,3.508,0,0,1,2.73,1.094,4.444,4.444,0,0,1,1,3.1v.922H59.749a2.1,2.1,0,0,0,.66,1.328,2,2,0,0,0,1.395.5,2.437,2.437,0,0,0,2.039-.945l1.109,1.242a3.389,3.389,0,0,1-1.375,1.121A4.511,4.511,0,0,1,61.655,15.156ZM61.4,8.211a1.411,1.411,0,0,0-1.09.455,2.357,2.357,0,0,0-.535,1.3h3.141V9.788a1.681,1.681,0,0,0-.406-1.165A1.456,1.456,0,0,0,61.4,8.211ZM68.8,15H66.53V3H68.8Zm4.242,0H70.772V3h2.266ZM79.8,15a2.507,2.507,0,0,1-.227-.758,2.732,2.732,0,0,1-2.133.914,3,3,0,0,1-2.059-.719,2.312,2.312,0,0,1-.816-1.812,2.389,2.389,0,0,1,1-2.062,4.915,4.915,0,0,1,2.879-.727h1.039V9.352a1.393,1.393,0,0,0-.3-.937,1.183,1.183,0,0,0-.949-.352,1.345,1.345,0,0,0-.895.273.929.929,0,0,0-.324.75H74.749A2.268,2.268,0,0,1,75.2,7.727a3,3,0,0,1,1.281-.98,4.669,4.669,0,0,1,1.859-.355,3.689,3.689,0,0,1,2.48.785,2.747,2.747,0,0,1,.918,2.207v3.664a4.041,4.041,0,0,0,.336,1.82V15Zm-1.867-1.57a1.945,1.945,0,0,0,.922-.223,1.462,1.462,0,0,0,.625-.6V11.156h-.844q-1.7,0-1.8,1.172l-.008.133a.9.9,0,0,0,.3.7A1.153,1.153,0,0,0,77.928,13.43ZM91.35,15.156a4.15,4.15,0,0,1-3.027-1.141,4.054,4.054,0,0,1-1.168-3.039v-.219a5.106,5.106,0,0,1,.492-2.277,3.612,3.612,0,0,1,1.395-1.547A3.914,3.914,0,0,1,91.1,6.391a3.508,3.508,0,0,1,2.73,1.094,4.444,4.444,0,0,1,1,3.1v.922H89.444a2.1,2.1,0,0,0,.66,1.328,2,2,0,0,0,1.395.5,2.437,2.437,0,0,0,2.039-.945l1.109,1.242a3.389,3.389,0,0,1-1.375,1.121A4.511,4.511,0,0,1,91.35,15.156Zm-.258-6.945A1.411,1.411,0,0,0,90,8.666a2.357,2.357,0,0,0-.535,1.3h3.141V9.788A1.681,1.681,0,0,0,92.2,8.623,1.456,1.456,0,0,0,91.092,8.211Zm7.094-1.664.07.977a2.951,2.951,0,0,1,2.43-1.133,2.453,2.453,0,0,1,2,.789,3.682,3.682,0,0,1,.672,2.359V15H101.1V9.594a1.465,1.465,0,0,0-.312-1.043,1.4,1.4,0,0,0-1.039-.324,1.553,1.553,0,0,0-1.43.813V15H96.061V6.547ZM113.952,15a2.507,2.507,0,0,1-.227-.758,2.732,2.732,0,0,1-2.133.914,3,3,0,0,1-2.059-.719,2.312,2.312,0,0,1-.816-1.812,2.389,2.389,0,0,1,1-2.062,4.915,4.915,0,0,1,2.879-.727h1.039V9.352a1.393,1.393,0,0,0-.3-.937,1.183,1.183,0,0,0-.949-.352,1.345,1.345,0,0,0-.895.273.929.929,0,0,0-.324.75H108.9a2.268,2.268,0,0,1,.453-1.359,3,3,0,0,1,1.281-.98,4.669,4.669,0,0,1,1.859-.355,3.689,3.689,0,0,1,2.48.785,2.747,2.747,0,0,1,.918,2.207v3.664a4.041,4.041,0,0,0,.336,1.82V15Zm-1.867-1.57a1.945,1.945,0,0,0,.922-.223,1.462,1.462,0,0,0,.625-.6V11.156h-.844q-1.7,0-1.8,1.172l-.008.133a.9.9,0,0,0,.3.7A1.153,1.153,0,0,0,112.085,13.43Zm10.125-.766a.727.727,0,0,0-.41-.652,4.659,4.659,0,0,0-1.316-.426q-3.016-.633-3.016-2.562a2.323,2.323,0,0,1,.934-1.879,3.766,3.766,0,0,1,2.441-.754,4.053,4.053,0,0,1,2.574.758,2.388,2.388,0,0,1,.965,1.969h-2.258a1.092,1.092,0,0,0-.312-.8A1.322,1.322,0,0,0,120.835,8a1.351,1.351,0,0,0-.883.258.814.814,0,0,0-.312.656.7.7,0,0,0,.355.605,3.657,3.657,0,0,0,1.2.4,9.8,9.8,0,0,1,1.422.379A2.336,2.336,0,0,1,124.4,12.57a2.2,2.2,0,0,1-.992,1.871,4.28,4.28,0,0,1-2.562.715,4.47,4.47,0,0,1-1.887-.379,3.166,3.166,0,0,1-1.293-1.039,2.414,2.414,0,0,1-.469-1.426h2.141a1.179,1.179,0,0,0,.445.922,1.766,1.766,0,0,0,1.109.32,1.635,1.635,0,0,0,.98-.246A.766.766,0,0,0,122.21,12.664Zm7.164.672a1.481,1.481,0,0,0,1.016-.344,1.2,1.2,0,0,0,.406-.914h2.117a2.9,2.9,0,0,1-.469,1.574,3.093,3.093,0,0,1-1.262,1.109,3.949,3.949,0,0,1-1.77.395A3.67,3.67,0,0,1,126.553,14a4.56,4.56,0,0,1-1.047-3.184v-.148a4.508,4.508,0,0,1,1.039-3.117A3.627,3.627,0,0,1,129.4,6.391a3.555,3.555,0,0,1,2.543.9,3.2,3.2,0,0,1,.973,2.4H130.8a1.551,1.551,0,0,0-.406-1.072,1.51,1.51,0,0,0-2.223.163,3.333,3.333,0,0,0-.4,1.866v.235a3.375,3.375,0,0,0,.4,1.878A1.377,1.377,0,0,0,129.374,13.336Zm8.719,1.82a4.15,4.15,0,0,1-3.027-1.141,4.054,4.054,0,0,1-1.168-3.039v-.219a5.106,5.106,0,0,1,.492-2.277,3.612,3.612,0,0,1,1.395-1.547,3.914,3.914,0,0,1,2.059-.543,3.508,3.508,0,0,1,2.73,1.094,4.444,4.444,0,0,1,1,3.1v.922h-5.383a2.1,2.1,0,0,0,.66,1.328,2,2,0,0,0,1.395.5,2.437,2.437,0,0,0,2.039-.945l1.109,1.242a3.389,3.389,0,0,1-1.375,1.121A4.511,4.511,0,0,1,138.092,15.156Zm-.258-6.945a1.411,1.411,0,0,0-1.09.455,2.357,2.357,0,0,0-.535,1.3h3.141V9.788a1.681,1.681,0,0,0-.406-1.165A1.456,1.456,0,0,0,137.835,8.211Zm7.094-1.664.07.977a2.951,2.951,0,0,1,2.43-1.133,2.453,2.453,0,0,1,2,.789,3.682,3.682,0,0,1,.672,2.359V15h-2.258V9.594a1.465,1.465,0,0,0-.312-1.043,1.4,1.4,0,0,0-1.039-.324,1.553,1.553,0,0,0-1.43.813V15H142.8V6.547Zm11.461,6.117a.727.727,0,0,0-.41-.652,4.659,4.659,0,0,0-1.316-.426q-3.016-.633-3.016-2.562a2.323,2.323,0,0,1,.934-1.879,3.766,3.766,0,0,1,2.441-.754,4.053,4.053,0,0,1,2.574.758,2.388,2.388,0,0,1,.965,1.969H156.3a1.092,1.092,0,0,0-.312-.8A1.322,1.322,0,0,0,155.014,8a1.351,1.351,0,0,0-.883.258.814.814,0,0,0-.312.656.7.7,0,0,0,.355.605,3.657,3.657,0,0,0,1.2.4,9.8,9.8,0,0,1,1.422.379,2.336,2.336,0,0,1,1.789,2.273,2.205,2.205,0,0,1-.992,1.871,4.28,4.28,0,0,1-2.562.715,4.47,4.47,0,0,1-1.887-.379,3.166,3.166,0,0,1-1.293-1.039,2.414,2.414,0,0,1-.469-1.426h2.141a1.179,1.179,0,0,0,.445.922,1.766,1.766,0,0,0,1.109.32,1.635,1.635,0,0,0,.98-.246A.766.766,0,0,0,156.389,12.664Zm3.3-1.969a5.013,5.013,0,0,1,.484-2.242,3.546,3.546,0,0,1,1.395-1.523,4.069,4.069,0,0,1,2.113-.539,3.849,3.849,0,0,1,2.793,1.047,4.2,4.2,0,0,1,1.207,2.844l.016.578a4.418,4.418,0,0,1-1.086,3.121,4.209,4.209,0,0,1-5.832,0,4.5,4.5,0,0,1-1.09-3.187Zm2.258.16A3.16,3.16,0,0,0,162.4,12.7a1.628,1.628,0,0,0,2.578.008,3.457,3.457,0,0,0,.461-2.015,3.128,3.128,0,0,0-.461-1.831,1.5,1.5,0,0,0-1.3-.649,1.474,1.474,0,0,0-1.281.646A3.516,3.516,0,0,0,161.944,10.856Z" transform="translate(688 23386.416)" fill="#12263f"/>
    <path id="Path_612940" data-name="Path 612940" d="M21.6,12.016A1.2,1.2,0,0,0,21.135,11a6.148,6.148,0,0,0-1.687-.75,11.963,11.963,0,0,1-1.93-.777,3.153,3.153,0,0,1-1.938-2.82A2.747,2.747,0,0,1,16.1,5a3.389,3.389,0,0,1,1.492-1.129,5.616,5.616,0,0,1,2.184-.406,5.112,5.112,0,0,1,2.172.441,3.458,3.458,0,0,1,1.48,1.246,3.261,3.261,0,0,1,.527,1.828H21.612A1.534,1.534,0,0,0,21.12,5.77a2.023,2.023,0,0,0-1.383-.434A2.162,2.162,0,0,0,18.4,5.7a1.146,1.146,0,0,0-.477.957,1.1,1.1,0,0,0,.559.93,6.311,6.311,0,0,0,1.645.7,7.106,7.106,0,0,1,2.914,1.492A2.972,2.972,0,0,1,23.956,12a2.737,2.737,0,0,1-1.117,2.316,4.891,4.891,0,0,1-3.008.84,5.808,5.808,0,0,1-2.391-.48A3.783,3.783,0,0,1,15.8,13.359a3.371,3.371,0,0,1-.566-1.937h2.352q0,1.883,2.25,1.883a2.189,2.189,0,0,0,1.3-.34A1.106,1.106,0,0,0,21.6,12.016ZM27.776,15H25.51V6.547h2.266Zm-2.4-10.641a1.112,1.112,0,0,1,.34-.836,1.465,1.465,0,0,1,1.848,0,1.105,1.105,0,0,1,.344.836,1.108,1.108,0,0,1-.348.844,1.448,1.448,0,0,1-1.836,0A1.108,1.108,0,0,1,25.378,4.359Zm6.961.109V6.547h1.445V8.2H32.339v4.219a1.007,1.007,0,0,0,.18.672.9.9,0,0,0,.688.2,3.6,3.6,0,0,0,.664-.055v1.711a4.648,4.648,0,0,1-1.367.2,2.156,2.156,0,0,1-2.422-2.4V8.2H28.846V6.547h1.234V4.469ZM40.1,14.141a2.831,2.831,0,0,1-2.312,1.016,2.67,2.67,0,0,1-2.074-.781,3.335,3.335,0,0,1-.73-2.289V6.547h2.258v5.467q0,1.322,1.2,1.322a1.63,1.63,0,0,0,1.578-.8V6.547h2.266V15H40.167ZM48.893,15a2.507,2.507,0,0,1-.227-.758,2.732,2.732,0,0,1-2.133.914,3,3,0,0,1-2.059-.719,2.312,2.312,0,0,1-.816-1.812,2.389,2.389,0,0,1,1-2.062,4.915,4.915,0,0,1,2.879-.727h1.039V9.352a1.393,1.393,0,0,0-.3-.937,1.183,1.183,0,0,0-.949-.352,1.345,1.345,0,0,0-.895.273.929.929,0,0,0-.324.75H43.846A2.268,2.268,0,0,1,44.3,7.727a3,3,0,0,1,1.281-.98,4.669,4.669,0,0,1,1.859-.355,3.689,3.689,0,0,1,2.48.785,2.747,2.747,0,0,1,.918,2.207v3.664a4.041,4.041,0,0,0,.336,1.82V15Zm-1.867-1.57a1.945,1.945,0,0,0,.922-.223,1.462,1.462,0,0,0,.625-.6V11.156h-.844q-1.7,0-1.8,1.172l-.008.133a.9.9,0,0,0,.3.7A1.153,1.153,0,0,0,47.026,13.43Zm9.063-.094a1.481,1.481,0,0,0,1.016-.344,1.2,1.2,0,0,0,.406-.914h2.117a2.9,2.9,0,0,1-.469,1.574A3.093,3.093,0,0,1,57.9,14.762a3.949,3.949,0,0,1-1.77.395A3.67,3.67,0,0,1,53.268,14a4.56,4.56,0,0,1-1.047-3.184v-.148A4.508,4.508,0,0,1,53.26,7.555a3.627,3.627,0,0,1,2.852-1.164,3.555,3.555,0,0,1,2.543.9,3.2,3.2,0,0,1,.973,2.4H57.51A1.551,1.551,0,0,0,57.1,8.623a1.51,1.51,0,0,0-2.223.163,3.333,3.333,0,0,0-.4,1.866v.235a3.375,3.375,0,0,0,.4,1.878A1.377,1.377,0,0,0,56.089,13.336ZM63.3,15H61.034V6.547H63.3ZM60.9,4.359a1.112,1.112,0,0,1,.34-.836,1.465,1.465,0,0,1,1.848,0,1.105,1.105,0,0,1,.344.836,1.108,1.108,0,0,1-.348.844,1.448,1.448,0,0,1-1.836,0A1.108,1.108,0,0,1,60.9,4.359ZM64.807,10.7a5.013,5.013,0,0,1,.484-2.242A3.546,3.546,0,0,1,66.686,6.93,4.069,4.069,0,0,1,68.8,6.391a3.849,3.849,0,0,1,2.793,1.047A4.2,4.2,0,0,1,72.8,10.281l.016.578a4.418,4.418,0,0,1-1.086,3.121,4.209,4.209,0,0,1-5.832,0,4.5,4.5,0,0,1-1.09-3.187Zm2.258.16a3.16,3.16,0,0,0,.453,1.843,1.628,1.628,0,0,0,2.578.008,3.457,3.457,0,0,0,.461-2.015A3.128,3.128,0,0,0,70.1,8.86a1.5,1.5,0,0,0-1.3-.649,1.474,1.474,0,0,0-1.281.646A3.516,3.516,0,0,0,67.065,10.856ZM69.245,3h2.461L69.542,5.422H67.706Zm7.039,3.547.07.977a2.951,2.951,0,0,1,2.43-1.133,2.453,2.453,0,0,1,2,.789,3.682,3.682,0,0,1,.672,2.359V15H79.2V9.594a1.465,1.465,0,0,0-.312-1.043,1.4,1.4,0,0,0-1.039-.324,1.553,1.553,0,0,0-1.43.813V15H74.159V6.547Zm13.359,4.445V15H87.3V3.625h4.438a5.134,5.134,0,0,1,2.254.469,3.454,3.454,0,0,1,1.5,1.332,3.714,3.714,0,0,1,.523,1.965,3.266,3.266,0,0,1-1.145,2.637,4.767,4.767,0,0,1-3.168.965Zm0-1.9h2.094a2.059,2.059,0,0,0,1.418-.437,1.591,1.591,0,0,0,.488-1.25,1.876,1.876,0,0,0-.492-1.352,1.839,1.839,0,0,0-1.359-.531H89.643Zm12.578-.43a6.134,6.134,0,0,0-.812-.062,1.654,1.654,0,0,0-1.68.867V15H97.471V6.547H99.6l.063,1.008a2.092,2.092,0,0,1,1.883-1.164,2.366,2.366,0,0,1,.7.1Zm.453,2.031a5.013,5.013,0,0,1,.484-2.242,3.546,3.546,0,0,1,1.395-1.523,4.069,4.069,0,0,1,2.113-.539,3.849,3.849,0,0,1,2.793,1.047,4.2,4.2,0,0,1,1.207,2.844l.016.578A4.418,4.418,0,0,1,109.6,13.98a4.209,4.209,0,0,1-5.832,0,4.5,4.5,0,0,1-1.09-3.187Zm2.258.16a3.16,3.16,0,0,0,.453,1.843,1.628,1.628,0,0,0,2.578.008,3.457,3.457,0,0,0,.461-2.015,3.128,3.128,0,0,0-.461-1.831,1.5,1.5,0,0,0-1.3-.649,1.474,1.474,0,0,0-1.281.646A3.516,3.516,0,0,0,104.932,10.856Zm14.758,0a5.119,5.119,0,0,1-.867,3.168,2.872,2.872,0,0,1-2.422,1.137,2.639,2.639,0,0,1-2.2-1.055l-.1.9h-2.031V3h2.258V7.3a2.571,2.571,0,0,1,2.055-.914,2.9,2.9,0,0,1,2.426,1.137,5.126,5.126,0,0,1,.879,3.2Zm-2.258-.164a3.363,3.363,0,0,0-.406-1.871,1.374,1.374,0,0,0-1.211-.59,1.489,1.489,0,0,0-1.484.883v3.336a1.509,1.509,0,0,0,1.5.891,1.394,1.394,0,0,0,1.438-1.078A5.562,5.562,0,0,0,117.432,10.688ZM123.464,15H121.2V3h2.266Zm5.75.156a4.15,4.15,0,0,1-3.027-1.141,4.054,4.054,0,0,1-1.168-3.039v-.219a5.106,5.106,0,0,1,.492-2.277A3.612,3.612,0,0,1,126.9,6.934a3.914,3.914,0,0,1,2.059-.543,3.508,3.508,0,0,1,2.73,1.094,4.444,4.444,0,0,1,1,3.1v.922h-5.383a2.1,2.1,0,0,0,.66,1.328,2,2,0,0,0,1.395.5,2.437,2.437,0,0,0,2.039-.945l1.109,1.242a3.389,3.389,0,0,1-1.375,1.121A4.511,4.511,0,0,1,129.214,15.156Zm-.258-6.945a1.411,1.411,0,0,0-1.09.455,2.357,2.357,0,0,0-.535,1.3h3.141V9.788a1.681,1.681,0,0,0-.406-1.165A1.456,1.456,0,0,0,128.956,8.211Zm7.133-1.664.07.945a2.971,2.971,0,0,1,2.43-1.1,2.255,2.255,0,0,1,2.242,1.289,2.9,2.9,0,0,1,2.539-1.289,2.521,2.521,0,0,1,2.047.8,3.681,3.681,0,0,1,.672,2.41V15h-2.266V9.609a1.61,1.61,0,0,0-.281-1.051,1.246,1.246,0,0,0-.992-.332,1.409,1.409,0,0,0-1.406.969l.008,5.8h-2.258V9.617a1.59,1.59,0,0,0-.289-1.062,1.259,1.259,0,0,0-.984-.328,1.463,1.463,0,0,0-1.391.8V15h-2.258V6.547ZM152.721,15a2.507,2.507,0,0,1-.227-.758,2.732,2.732,0,0,1-2.133.914,3,3,0,0,1-2.059-.719,2.312,2.312,0,0,1-.816-1.812,2.389,2.389,0,0,1,1-2.062,4.915,4.915,0,0,1,2.879-.727H152.4V9.352a1.393,1.393,0,0,0-.3-.937,1.183,1.183,0,0,0-.949-.352,1.345,1.345,0,0,0-.895.273.929.929,0,0,0-.324.75h-2.258a2.268,2.268,0,0,1,.453-1.359,3,3,0,0,1,1.281-.98,4.669,4.669,0,0,1,1.859-.355,3.689,3.689,0,0,1,2.48.785,2.747,2.747,0,0,1,.918,2.207v3.664a4.041,4.041,0,0,0,.336,1.82V15Zm-1.867-1.57a1.945,1.945,0,0,0,.922-.223,1.462,1.462,0,0,0,.625-.6V11.156h-.844q-1.7,0-1.8,1.172l-.008.133a.9.9,0,0,0,.3.7A1.153,1.153,0,0,0,150.854,13.43ZM151.714,3h2.461L152.01,5.422h-1.836ZM159.1,4.469V6.547h1.445V8.2H159.1v4.219a1.007,1.007,0,0,0,.18.672.9.9,0,0,0,.688.2,3.6,3.6,0,0,0,.664-.055v1.711a4.648,4.648,0,0,1-1.367.2,2.156,2.156,0,0,1-2.422-2.4V8.2h-1.234V6.547h1.234V4.469ZM164.19,15h-2.266V6.547h2.266Zm-2.4-10.641a1.112,1.112,0,0,1,.34-.836,1.465,1.465,0,0,1,1.848,0,1.105,1.105,0,0,1,.344.836,1.109,1.109,0,0,1-.348.844,1.448,1.448,0,0,1-1.836,0A1.109,1.109,0,0,1,161.792,4.359Zm7.773,8.977a1.481,1.481,0,0,0,1.016-.344,1.2,1.2,0,0,0,.406-.914H173.1a2.9,2.9,0,0,1-.469,1.574,3.093,3.093,0,0,1-1.262,1.109,3.949,3.949,0,0,1-1.77.395A3.67,3.67,0,0,1,166.745,14,4.56,4.56,0,0,1,165.7,10.82v-.148a4.508,4.508,0,0,1,1.039-3.117,3.627,3.627,0,0,1,2.852-1.164,3.555,3.555,0,0,1,2.543.9,3.2,3.2,0,0,1,.973,2.4h-2.117a1.551,1.551,0,0,0-.406-1.072,1.51,1.51,0,0,0-2.223.163,3.333,3.333,0,0,0-.4,1.866v.235a3.375,3.375,0,0,0,.4,1.878A1.377,1.377,0,0,0,169.565,13.336ZM179.292,15a2.507,2.507,0,0,1-.227-.758,2.732,2.732,0,0,1-2.133.914,3,3,0,0,1-2.059-.719,2.312,2.312,0,0,1-.816-1.812,2.389,2.389,0,0,1,1-2.062,4.915,4.915,0,0,1,2.879-.727h1.039V9.352a1.393,1.393,0,0,0-.3-.937,1.183,1.183,0,0,0-.949-.352,1.345,1.345,0,0,0-.895.273.929.929,0,0,0-.324.75h-2.258a2.268,2.268,0,0,1,.453-1.359,3,3,0,0,1,1.281-.98,4.669,4.669,0,0,1,1.859-.355,3.689,3.689,0,0,1,2.48.785,2.747,2.747,0,0,1,.918,2.207v3.664a4.041,4.041,0,0,0,.336,1.82V15Zm-1.867-1.57a1.945,1.945,0,0,0,.922-.223,1.462,1.462,0,0,0,.625-.6V11.156h-.844q-1.7,0-1.8,1.172l-.008.133a.9.9,0,0,0,.3.7A1.153,1.153,0,0,0,177.424,13.43Z" transform="translate(967 23386.416)" fill="#12263f"/>
    <g id="Group_875888" data-name="Group 875888" transform="translate(744 23421.918)">
      <ellipse id="Ellipse_5592" data-name="Ellipse 5592" cx="39.687" cy="3.218" rx="39.687" ry="3.218" transform="translate(2.145 80.447)" fill="#c0d6d9"/>
      <g id="Group_875877" data-name="Group 875877" transform="translate(0 0)">
        <g id="cow" transform="translate(0 0)">
          <g id="Group_153280" data-name="Group 153280">
            <g id="Group_153279" data-name="Group 153279">
              <g id="Group_153278" data-name="Group 153278">
                <g id="Group_153277" data-name="Group 153277">
                  <g id="Group_153276" data-name="Group 153276">
                    <g id="Group_153275" data-name="Group 153275">
                      <g id="Group_153274" data-name="Group 153274">
                        <circle id="Ellipse_4914" data-name="Ellipse 4914" cx="41.833" cy="41.833" r="41.833" fill="#a3bfe4"/>
                      </g>
                    </g>
                  </g>
                </g>
              </g>
            </g>
          </g>
          <path id="Path_213181" data-name="Path 213181" d="M169.717,96.312a42.2,42.2,0,0,0-.469-6.285L128.16,62.718,142.2,95.8,128.16,81.033l-15.577,9.5-9.793,2.95,20.788,20.788-15.686,10.271,17.385,13.56q1.275.077,2.57.078A41.869,41.869,0,0,0,169.717,96.312Z" transform="translate(-85.942 -54.406)" fill="#8caad1"/>
        </g>
        <g id="estrella_1_" data-name="estrella (1)" transform="translate(9.061 7.928)">
          <path id="Path_213145" data-name="Path 213145" d="M32.746,12.53,22.032,32.214,0,36.321l20.339,8.631,12.408,1.695,1.791-13.079Z" transform="translate(0 -12.53)" fill="#ffdd46"/>
          <path id="Path_213146" data-name="Path 213146" d="M288.746,198.524l-21.49,4.026L256,208.85l6.907,13.143,13.331,15.026-2.9-22.223Z" transform="translate(-223.254 -174.733)" fill="#ff9e00"/>
          <path id="Path_213147" data-name="Path 213147" d="M97.783,307.419l20.238-9.627,1.663-7.574-1.663-10.969-10.489,8.411Z" transform="translate(-85.275 -245.132)" fill="#ffdd46"/>
          <g id="Group_153262" data-name="Group 153262" transform="translate(0 0)">
            <path id="Path_213148" data-name="Path 213148" d="M256,279.249v18.542l20.238,9.627Z" transform="translate(-223.254 -245.132)" fill="#fcbe00"/>
            <path id="Path_213149" data-name="Path 213149" d="M288.746,36.321l-22.032-4.107L256,12.53V46.647Z" transform="translate(-223.254 -12.53)" fill="#fcbe00"/>
            <path id="Path_213150" data-name="Path 213150" d="M0,198.524,15.41,214.8l-2.9,22.223,20.238-28.17Z" transform="translate(0 -174.733)" fill="#fcbe00"/>
          </g>
        </g>
      </g>
    </g>
    <g id="Group_875889" data-name="Group 875889" transform="translate(744 23651.918)">
      <ellipse id="Ellipse_4912" data-name="Ellipse 4912" cx="39.687" cy="3.754" rx="39.687" ry="3.754" transform="translate(2.145 80.447)" fill="#c5d0df"/>
      <g id="cow-2" data-name="cow" transform="translate(0 0)">
        <g id="Group_153280-2" data-name="Group 153280" transform="translate(0 0)">
          <g id="Group_153279-2" data-name="Group 153279" transform="translate(0 0)">
            <g id="Group_153278-2" data-name="Group 153278">
              <g id="Group_153277-2" data-name="Group 153277">
                <g id="Group_153276-2" data-name="Group 153276">
                  <g id="Group_153275-2" data-name="Group 153275">
                    <g id="Group_153274-2" data-name="Group 153274">
                      <circle id="Ellipse_4914-2" data-name="Ellipse 4914" cx="41.833" cy="41.833" r="41.833" fill="#a3bfe4"/>
                    </g>
                  </g>
                </g>
              </g>
            </g>
          </g>
        </g>
        <path id="Path_213181-2" data-name="Path 213181" d="M169.717,96.041a42.2,42.2,0,0,0-.469-6.285L144.257,64.764,142.2,95.528,111.44,64.764l1.144,25.5-9.793,2.95L123.579,114l-11.285,10.847,12.984,12.984q1.275.077,2.57.078A41.869,41.869,0,0,0,169.717,96.041Z" transform="translate(-85.942 -53.889)" fill="#8caad1"/>
        <g id="Group_153281" data-name="Group 153281" transform="translate(22.139 10.875)">
          <path id="Path_213182" data-name="Path 213182" d="M146.8,78.366s-7.577-3.082-8.3-13.6c0,0-8.514,12.879,1.568,20.6S146.8,78.366,146.8,78.366Z" transform="translate(-135.137 -64.764)" fill="#555a66"/>
        </g>
        <g id="Group_153282" data-name="Group 153282" transform="translate(12.416 26.807)">
          <path id="Path_213183" data-name="Path 213183" d="M90.413,169.082s-5.789-7.419-14.654-6.877c0,0-1.809,13.81,13.207,16.765Z" transform="translate(-75.69 -162.177)" fill="#ffb89c"/>
        </g>
        <g id="Group_153283" data-name="Group 153283" transform="translate(49.48 10.875)">
          <path id="Path_213184" data-name="Path 213184" d="M302.844,78.366s7.577-3.082,8.3-13.6c0,0,8.514,12.879-1.568,20.6S302.844,78.366,302.844,78.366Z" transform="translate(-302.31 -64.764)" fill="#333940"/>
        </g>
        <g id="Group_153284" data-name="Group 153284" transform="translate(56.673 26.807)">
          <path id="Path_213185" data-name="Path 213185" d="M346.291,169.082s5.789-7.419,14.654-6.877c0,0,1.809,13.81-13.207,16.765Z" transform="translate(-346.291 -162.177)" fill="#ff936b"/>
        </g>
        <g id="Group_153285" data-name="Group 153285" transform="translate(23.354 20.564)">
          <path id="Path_213186" data-name="Path 213186" d="M163.134,124h-5.257a15.307,15.307,0,0,0-15.18,17.272l3.011,23.254h30.824l1.842-14.229Z" transform="translate(-142.568 -124.003)" fill="#fff"/>
        </g>
        <g id="Group_153286" data-name="Group 153286" transform="translate(41.906 20.564)">
          <path id="Path_213187" data-name="Path 213187" d="M258.014,124H256v40.526h15.412l1.842-14.229-1.049-8.868Z" transform="translate(-256 -124.003)" fill="#e9edf5"/>
        </g>
        <g id="Group_153287" data-name="Group 153287" transform="translate(24.002 54.818)">
          <path id="Path_213188" data-name="Path 213188" d="M174.117,352.053H154.754a8.222,8.222,0,0,1-8.222-8.222v-2.167a8.222,8.222,0,0,1,8.222-8.222h19.363a8.222,8.222,0,0,1,8.222,8.222v2.167A8.222,8.222,0,0,1,174.117,352.053Z" transform="translate(-146.532 -333.442)" fill="#ffb89c"/>
        </g>
        <g id="Group_153288" data-name="Group 153288" transform="translate(41.906 54.818)">
          <path id="Path_213189" data-name="Path 213189" d="M265.682,333.442H256v18.611h9.682a8.222,8.222,0,0,0,8.222-8.222v-2.167A8.222,8.222,0,0,0,265.682,333.442Z" transform="translate(-256 -333.442)" fill="#ff936b"/>
        </g>
        <g id="Group_153291" data-name="Group 153291" transform="translate(31.174 61.572)">
          <g id="Group_153289" data-name="Group 153289">
            <ellipse id="Ellipse_4915" data-name="Ellipse 4915" cx="3.158" cy="3.158" rx="3.158" ry="3.158" fill="#555a66"/>
          </g>
          <g id="Group_153290" data-name="Group 153290" transform="translate(15.148)">
            <ellipse id="Ellipse_4916" data-name="Ellipse 4916" cx="3.158" cy="3.158" rx="3.158" ry="3.158" fill="#333940"/>
          </g>
        </g>
        <g id="Group_153294" data-name="Group 153294" transform="translate(30.615 40.525)">
          <g id="Group_153292" data-name="Group 153292">
            <ellipse id="Ellipse_4917" data-name="Ellipse 4917" cx="3.076" cy="3.076" rx="3.076" ry="3.076" fill="#555a66"/>
          </g>
          <g id="Group_153293" data-name="Group 153293" transform="translate(16.431)">
            <ellipse id="Ellipse_4918" data-name="Ellipse 4918" cx="3.076" cy="3.076" rx="3.076" ry="3.076" fill="#333940"/>
          </g>
        </g>
        <g id="Group_153295" data-name="Group 153295" transform="translate(42.695 20.564)">
          <path id="Path_213190" data-name="Path 213190" d="M263.278,124h-2.454a11.282,11.282,0,0,1,3.628,5.789c1.26,5.307,1.239,10.373,6.315,10.614,3.04.144,5.244,5.567,6.523,9.894l1.169-9.025A15.307,15.307,0,0,0,263.278,124Z" transform="translate(-260.824 -124.003)" fill="#555a66"/>
        </g>
      </g>
    </g>
    <g id="Group_875882" data-name="Group 875882" transform="translate(1022.189 23651.926)">
      <ellipse id="Ellipse_4913" data-name="Ellipse 4913" cx="40" cy="4" rx="40" ry="4" transform="translate(-0.189 79.992)" fill="#c6d5ce"/>
      <g id="Group_153317" data-name="Group 153317" transform="translate(1.073 0)">
        <g id="perro" transform="translate(0 0)">
          <g id="XMLID_181_" transform="translate(0 0)">
            <g id="XMLID_182_">
              <g id="XMLID_183_">
                <g id="XMLID_184_">
                  <g id="XMLID_185_">
                    <g id="XMLID_186_">
                      <g id="XMLID_187_">
                        <g id="XMLID_188_">
                          <g id="XMLID_189_">
                            <g id="XMLID_190_">
                              <g id="XMLID_191_">
                                <g id="XMLID_192_">
                                  <g id="XMLID_193_">
                                    <g id="XMLID_194_">
                                      <ellipse id="XMLID_195_" cx="42.5" cy="42" rx="42.5" ry="42" transform="translate(-0.262 -0.008)" fill="#a3bfe4"/>
                                    </g>
                                  </g>
                                </g>
                              </g>
                            </g>
                          </g>
                        </g>
                      </g>
                    </g>
                  </g>
                </g>
              </g>
            </g>
          </g>
          <path id="Path_213191" data-name="Path 213191" d="M154.566,155.991a41.911,41.911,0,0,0-2.926-15.436l-4.251-4.2-58.616,4.634-4.4,13.152,9.8,9.8,9.251,23.125,10.909,10.909A42.019,42.019,0,0,0,154.566,155.991Z" transform="translate(-70.539 -114.291)" fill="#8caad1"/>
          <g id="Group_153304" data-name="Group 153304" transform="translate(6.448 15.785)">
            <g id="Group_153298" data-name="Group 153298">
              <g id="Group_153296" data-name="Group 153296">
                <path id="Path_213192" data-name="Path 213192" d="M127.172,106.944s-7.872-6.387-10.417-6.077-5.587,9.187-5.587,9.187,4.478,8.052,6.1,11.722Z" transform="translate(-99.383 -100.407)" fill="#b56f40"/>
                <path id="Path_213193" data-name="Path 213193" d="M58.828,99.1a6.5,6.5,0,0,0-5.666-.661A70.909,70.909,0,0,0,42.07,102.75c-3.385,1.685-3.385,4.884-1.127,9.63,1.573,3.307,5.616,11.479,7.36,10.37.829-.527,5.723-14.285,6.733-16.976C55.869,103.549,58.514,100.036,58.828,99.1Z" transform="translate(-39.368 -98.119)" fill="#cc8656"/>
              </g>
              <g id="Group_153297" data-name="Group 153297" transform="translate(43.327)">
                <path id="Path_213194" data-name="Path 213194" d="M303.328,106.944s7.872-6.387,10.417-6.077,5.587,9.187,5.587,9.187-4.478,8.052-6.1,11.722Z" transform="translate(-303.328 -100.407)" fill="#a35d2e"/>
                <path id="Path_213195" data-name="Path 213195" d="M354.079,99.1a6.5,6.5,0,0,1,5.666-.661,70.913,70.913,0,0,1,11.092,4.307c3.385,1.685,3.385,4.884,1.127,9.63-1.573,3.307-5.616,11.479-7.36,10.37-.829-.527-5.723-14.285-6.733-16.976C357.038,103.549,354.392,100.036,354.079,99.1Z" transform="translate(-345.749 -98.119)" fill="#b56f40"/>
              </g>
            </g>
            <g id="Group_153302" data-name="Group 153302" transform="translate(15.065 3.64)">
              <path id="Path_213196" data-name="Path 213196" d="M180.771,153.742q-.325.673-.711,1.407c-5.788,11.007-3.7,21.179-18.008,21.179s-12.22-10.172-18.008-21.179q-.387-.736-.711-1.407a78.557,78.557,0,0,0,4.851-16.541c1.464-8.218,9.976-16.541,9.976-16.541a20.991,20.991,0,0,1,7.783,0s8.279,8.323,9.742,16.541A70.975,70.975,0,0,0,180.771,153.742Z" transform="translate(-141.333 -120.295)" fill="#fcf0e5"/>
              <path id="Path_213197" data-name="Path 213197" d="M274.945,153.746c-.217.45-.453.918-.711,1.408-5.789,11.007-3.7,21.179-18.01,21.179-.075,0-.151,0-.225,0V120.3c.076,0,.149,0,.225,0a20.855,20.855,0,0,1,3.892.363s8.279,8.324,9.743,16.542A70.978,70.978,0,0,0,274.945,153.746Z" transform="translate(-235.507 -120.299)" fill="#eaddd3"/>
              <g id="Group_153299" data-name="Group 153299" transform="translate(13.546 37.284)">
                <path id="Path_213198" data-name="Path 213198" d="M220.624,347.437c-4.168,0-7.832.256-6.758,5.1.695,3.133,5.116,5.37,6.758,5.37s6.063-2.238,6.757-5.37C228.456,347.693,224.792,347.437,220.624,347.437Z" transform="translate(-213.677 -347.437)" fill="#70695e"/>
              </g>
              <g id="Group_153300" data-name="Group 153300" transform="translate(20.493 37.284)">
                <path id="Path_213199" data-name="Path 213199" d="M262.758,352.542c-.694,3.132-5.116,5.369-6.758,5.369V347.44c4.168,0,7.833.254,6.758,5.1Z" transform="translate(-256 -347.44)" fill="#5b554a"/>
              </g>
              <g id="Group_153301" data-name="Group 153301" transform="translate(0 0.364)">
                <path id="Path_213200" data-name="Path 213200" d="M145.75,151.459c-3.215,2.036-9.268,3.524-12.6,4.135-4.655-9.618.049-10.041,1.74-19.522A16,16,0,0,1,148.2,122.511C148.667,129.806,151.231,147.992,145.75,151.459Z" transform="translate(-131.15 -122.511)" fill="#cc8656"/>
                <path id="Path_213201" data-name="Path 213201" d="M289.912,155.595c-3.332-.611-9.285-2.035-12.5-4.071-5.48-3.467-3.017-21.717-2.554-29.012a16,16,0,0,1,13.313,13.561C289.862,145.554,294.567,145.977,289.912,155.595Z" transform="translate(-250.474 -122.512)" fill="#b56f40"/>
              </g>
            </g>
            <g id="Group_153303" data-name="Group 153303" transform="translate(20.931 20.872)">
              <circle id="Ellipse_4919" data-name="Ellipse 4919" cx="2.635" cy="2.635" r="2.635" transform="translate(0 3.098) rotate(-35.851)" fill="#5b554a"/>
              <circle id="Ellipse_4920" data-name="Ellipse 4920" cx="2.635" cy="2.635" r="2.635" transform="translate(21.961 3.088) rotate(-35.851)" fill="#3a352e"/>
            </g>
          </g>
        </g>
      </g>
    </g>
    <path id="Path_612941" data-name="Path 612941" d="M649.551,37.948v0l.168-5.859-.945.007c-36.013.212-222.87,1.272-365.22,1.272-83.564,0-136.672-.364-157.851-1.082V18.671l523.642.48-.1-5.828L674.7,25.75l-25.151,12.2Z" transform="translate(1325.704 23342.41) rotate(180)" fill="#0c5e46"/>
    <path id="Path_612942" data-name="Path 612942" d="M575.124,37.948v0l.144-5.859-.811.007c-30.9.212-191.206,1.272-313.33,1.272-71.691,0-117.254-.364-135.424-1.082V18.671l449.244.48-.082-5.828L596.7,25.75l-21.577,12.2Z" transform="translate(589.766 23941.621) rotate(-90)" fill="#03386e"/>
    <path id="Path_612943" data-name="Path 612943" d="M85.815,12.18l2.578-8.555H91L87.042,15H84.6L80.651,3.625h2.6ZM96.464,15a2.507,2.507,0,0,1-.227-.758,2.732,2.732,0,0,1-2.133.914,3,3,0,0,1-2.059-.719,2.312,2.312,0,0,1-.816-1.812,2.389,2.389,0,0,1,1-2.062A4.915,4.915,0,0,1,95.1,9.836h1.039V9.352a1.393,1.393,0,0,0-.3-.937,1.183,1.183,0,0,0-.949-.352A1.345,1.345,0,0,0,94,8.336a.929.929,0,0,0-.324.75H91.417a2.268,2.268,0,0,1,.453-1.359,3,3,0,0,1,1.281-.98,4.669,4.669,0,0,1,1.859-.355,3.689,3.689,0,0,1,2.48.785,2.747,2.747,0,0,1,.918,2.207v3.664a4.041,4.041,0,0,0,.336,1.82V15ZM94.6,13.43a1.945,1.945,0,0,0,.922-.223,1.462,1.462,0,0,0,.625-.6V11.156H95.3q-1.7,0-1.8,1.172l-.008.133a.9.9,0,0,0,.3.7A1.153,1.153,0,0,0,94.6,13.43Zm9.063-.094a1.481,1.481,0,0,0,1.016-.344,1.2,1.2,0,0,0,.406-.914H107.2a2.9,2.9,0,0,1-.469,1.574,3.093,3.093,0,0,1-1.262,1.109,3.949,3.949,0,0,1-1.77.395A3.67,3.67,0,0,1,100.839,14a4.56,4.56,0,0,1-1.047-3.184v-.148a4.508,4.508,0,0,1,1.039-3.117,3.627,3.627,0,0,1,2.852-1.164,3.555,3.555,0,0,1,2.543.9,3.2,3.2,0,0,1,.973,2.4h-2.117a1.551,1.551,0,0,0-.406-1.072,1.51,1.51,0,0,0-2.223.163,3.333,3.333,0,0,0-.4,1.866v.235a3.375,3.375,0,0,0,.4,1.878A1.377,1.377,0,0,0,103.659,13.336ZM113.385,15a2.507,2.507,0,0,1-.227-.758,2.732,2.732,0,0,1-2.133.914,3,3,0,0,1-2.059-.719,2.312,2.312,0,0,1-.816-1.812,2.389,2.389,0,0,1,1-2.062,4.915,4.915,0,0,1,2.879-.727h1.039V9.352a1.393,1.393,0,0,0-.3-.937,1.183,1.183,0,0,0-.949-.352,1.345,1.345,0,0,0-.895.273.929.929,0,0,0-.324.75h-2.258a2.268,2.268,0,0,1,.453-1.359,3,3,0,0,1,1.281-.98,4.669,4.669,0,0,1,1.859-.355,3.689,3.689,0,0,1,2.48.785,2.747,2.747,0,0,1,.918,2.207v3.664a4.041,4.041,0,0,0,.336,1.82V15Zm-1.867-1.57a1.945,1.945,0,0,0,.922-.223,1.462,1.462,0,0,0,.625-.6V11.156h-.844q-1.7,0-1.8,1.172l-.008.133a.9.9,0,0,0,.3.7A1.153,1.153,0,0,0,111.518,13.43Z" transform="translate(688 23750.277)" fill="#12263f"/>
    <path id="Path_612944" data-name="Path 612944" d="M82.1,10.992V15H79.76V3.625H84.2a5.134,5.134,0,0,1,2.254.469,3.454,3.454,0,0,1,1.5,1.332,3.714,3.714,0,0,1,.523,1.965,3.266,3.266,0,0,1-1.145,2.637,4.767,4.767,0,0,1-3.168.965Zm0-1.9H84.2a2.059,2.059,0,0,0,1.418-.437,1.591,1.591,0,0,0,.488-1.25,1.876,1.876,0,0,0-.492-1.352,1.839,1.839,0,0,0-1.359-.531H82.1Zm11.617,6.063a4.15,4.15,0,0,1-3.027-1.141,4.054,4.054,0,0,1-1.168-3.039v-.219a5.106,5.106,0,0,1,.492-2.277,3.612,3.612,0,0,1,1.395-1.547,3.914,3.914,0,0,1,2.059-.543A3.508,3.508,0,0,1,96.2,7.484a4.444,4.444,0,0,1,1,3.1v.922H91.815a2.1,2.1,0,0,0,.66,1.328,2,2,0,0,0,1.395.5,2.437,2.437,0,0,0,2.039-.945l1.109,1.242a3.389,3.389,0,0,1-1.375,1.121A4.511,4.511,0,0,1,93.721,15.156Zm-.258-6.945a1.411,1.411,0,0,0-1.09.455,2.357,2.357,0,0,0-.535,1.3h3.141V9.788a1.681,1.681,0,0,0-.406-1.165A1.456,1.456,0,0,0,93.464,8.211Zm9.766.453a6.134,6.134,0,0,0-.812-.062,1.654,1.654,0,0,0-1.68.867V15H98.479V6.547h2.133l.063,1.008a2.092,2.092,0,0,1,1.883-1.164,2.366,2.366,0,0,1,.7.1Zm5.836,0a6.134,6.134,0,0,0-.812-.062,1.654,1.654,0,0,0-1.68.867V15h-2.258V6.547h2.133l.063,1.008a2.092,2.092,0,0,1,1.883-1.164,2.366,2.366,0,0,1,.7.1Zm.453,2.031A5.013,5.013,0,0,1,110,8.453,3.546,3.546,0,0,1,111.4,6.93a4.069,4.069,0,0,1,2.113-.539A3.849,3.849,0,0,1,116.3,7.438a4.2,4.2,0,0,1,1.207,2.844l.016.578a4.418,4.418,0,0,1-1.086,3.121,4.209,4.209,0,0,1-5.832,0,4.5,4.5,0,0,1-1.09-3.187Zm2.258.16a3.16,3.16,0,0,0,.453,1.843,1.628,1.628,0,0,0,2.578.008,3.457,3.457,0,0,0,.461-2.015,3.128,3.128,0,0,0-.461-1.831,1.5,1.5,0,0,0-1.3-.649,1.474,1.474,0,0,0-1.281.646A3.516,3.516,0,0,0,111.776,10.856Z" transform="translate(967 23750.32)" fill="#12263f"/>
    <g id="Group_1073973" data-name="Group 1073973" transform="translate(-10 -91.082)">
      <g id="Group_1073964" data-name="Group 1073964" transform="translate(1032.189 23512.008)">
        <ellipse id="Ellipse_4913-2" data-name="Ellipse 4913" cx="40" cy="4" rx="40" ry="4" transform="translate(-0.189 79.992)" fill="#d8ddc7"/>
        <g id="Group_153317-2" data-name="Group 153317" transform="translate(1.073 0)">
          <g id="perro-2" data-name="perro" transform="translate(0 0)">
            <g id="XMLID_181_2" data-name="XMLID_181_" transform="translate(0 0)">
              <g id="XMLID_182_2" data-name="XMLID_182_">
                <g id="XMLID_183_2" data-name="XMLID_183_">
                  <g id="XMLID_184_2" data-name="XMLID_184_">
                    <g id="XMLID_185_2" data-name="XMLID_185_">
                      <g id="XMLID_186_2" data-name="XMLID_186_">
                        <g id="XMLID_187_2" data-name="XMLID_187_">
                          <g id="XMLID_188_2" data-name="XMLID_188_">
                            <g id="XMLID_189_2" data-name="XMLID_189_">
                              <g id="XMLID_190_2" data-name="XMLID_190_">
                                <g id="XMLID_191_2" data-name="XMLID_191_">
                                  <g id="XMLID_192_2" data-name="XMLID_192_">
                                    <g id="XMLID_193_2" data-name="XMLID_193_">
                                      <g id="XMLID_194_2" data-name="XMLID_194_">
                                        <ellipse id="XMLID_195_2" data-name="XMLID_195_" cx="42.5" cy="42" rx="42.5" ry="42" transform="translate(-0.262 -0.008)" fill="#a3bfe4"/>
                                      </g>
                                    </g>
                                  </g>
                                </g>
                              </g>
                            </g>
                          </g>
                        </g>
                      </g>
                    </g>
                  </g>
                </g>
              </g>
            </g>
            <path id="Path_213191-2" data-name="Path 213191" d="M154.566,155.991a41.911,41.911,0,0,0-2.926-15.436l-4.251-4.2-34.2-8.9-1.4,26.767-17.611,9.717-7.244,13.1,27.4,20.937A42.019,42.019,0,0,0,154.566,155.991Z" transform="translate(-70.539 -114.291)" fill="#8caad1"/>
          </g>
        </g>
      </g>
      <g id="Layer_x0020_1" transform="translate(1045.713 23498.672)">
        <g id="_392549584" transform="translate(0.527 26)">
          <path id="Path_612634" data-name="Path 612634" d="M51.475,78.5H14.043a10.02,10.02,0,0,1-8.673-5.021,9.891,9.891,0,0,1,0-10.043l18.6-32.3A10.073,10.073,0,0,1,32.759,26a10.211,10.211,0,0,1,8.787,5.136l18.6,32.3a9.89,9.89,0,0,1,0,10.043A10.02,10.02,0,0,1,51.475,78.5Z" transform="translate(-4 -26)" fill="#fd4755" fill-rule="evenodd"/>
          <path id="Path_612635" data-name="Path 612635" d="M85.36,107.823H47.928a5.755,5.755,0,0,1-4.907-2.853,5.669,5.669,0,0,1,0-5.706l18.6-32.3a5.732,5.732,0,0,1,10.043,0l18.6,32.3a5.668,5.668,0,0,1,0,5.706A5.755,5.755,0,0,1,85.36,107.823Z" transform="translate(-37.885 -59.663)" fill="#fed402" fill-rule="evenodd"/>
          <g id="Group_1073965" data-name="Group 1073965" transform="translate(25.221 12.439)">
            <path id="Path_612636" data-name="Path 612636" d="M232.081,152.917a3.1,3.1,0,0,1-3.081-3.2V138.081a3.081,3.081,0,0,1,6.163,0v11.641A3.1,3.1,0,0,1,232.081,152.917Z" transform="translate(-228.544 -135)" fill="#554e56" fill-rule="evenodd"/>
            <path id="Path_612637" data-name="Path 612637" d="M228.538,321.19a3.6,3.6,0,1,1,3.538-3.652A3.581,3.581,0,0,1,228.538,321.19Z" transform="translate(-225 -293.572)" fill="#554e56" fill-rule="evenodd"/>
          </g>
        </g>
      </g>
    </g>
    <path id="Path_612945" data-name="Path 612945" d="M0,0H190V62H0Z" transform="translate(380 23557.918)" fill="#03386e"/>
    <path id="Path_612946" data-name="Path 612946" d="M0,0H282V42H0Z" transform="translate(786.149 23252.076)" fill="#0c5e46"/>
    <path id="Path_612947" data-name="Path 612947" d="M26.344,11.211A4.025,4.025,0,0,1,24.988,14.1a4.76,4.76,0,0,1-3.223,1.055,4.28,4.28,0,0,1-3.441-1.473A6.038,6.038,0,0,1,17.07,9.641v-.7a6.819,6.819,0,0,1,.578-2.891A4.332,4.332,0,0,1,19.3,4.137a4.629,4.629,0,0,1,2.5-.668,4.637,4.637,0,0,1,3.172,1.055,4.326,4.326,0,0,1,1.391,2.961H24.016a2.376,2.376,0,0,0-.613-1.6,2.271,2.271,0,0,0-1.605-.5,1.991,1.991,0,0,0-1.754.84,4.707,4.707,0,0,0-.6,2.605V9.7a5.038,5.038,0,0,0,.559,2.7,1.954,1.954,0,0,0,1.762.852,2.314,2.314,0,0,0,1.621-.5A2.241,2.241,0,0,0,24,11.211Zm6.141-2.547a6.134,6.134,0,0,0-.812-.062,1.654,1.654,0,0,0-1.68.867V15H27.734V6.547h2.133l.063,1.008a2.092,2.092,0,0,1,1.883-1.164,2.366,2.366,0,0,1,.7.1Zm4.828,6.492a4.15,4.15,0,0,1-3.027-1.141,4.054,4.054,0,0,1-1.168-3.039v-.219a5.106,5.106,0,0,1,.492-2.277A3.612,3.612,0,0,1,35,6.934a3.914,3.914,0,0,1,2.059-.543,3.508,3.508,0,0,1,2.73,1.094,4.444,4.444,0,0,1,1,3.1v.922H35.406a2.1,2.1,0,0,0,.66,1.328,2,2,0,0,0,1.395.5,2.437,2.437,0,0,0,2.039-.945l1.109,1.242a3.389,3.389,0,0,1-1.375,1.121A4.511,4.511,0,0,1,37.313,15.156Zm-.258-6.945a1.411,1.411,0,0,0-1.09.455,2.357,2.357,0,0,0-.535,1.3H38.57V9.788a1.681,1.681,0,0,0-.406-1.165A1.456,1.456,0,0,0,37.055,8.211Zm8.531,5.125a1.481,1.481,0,0,0,1.016-.344,1.2,1.2,0,0,0,.406-.914h2.117a2.9,2.9,0,0,1-.469,1.574,3.093,3.093,0,0,1-1.262,1.109,3.949,3.949,0,0,1-1.77.395A3.67,3.67,0,0,1,42.766,14a4.56,4.56,0,0,1-1.047-3.184v-.148a4.508,4.508,0,0,1,1.039-3.117,3.627,3.627,0,0,1,2.852-1.164,3.555,3.555,0,0,1,2.543.9,3.2,3.2,0,0,1,.973,2.4H47.008A1.551,1.551,0,0,0,46.6,8.623a1.51,1.51,0,0,0-2.223.163,3.333,3.333,0,0,0-.4,1.866v.235a3.375,3.375,0,0,0,.4,1.878A1.377,1.377,0,0,0,45.586,13.336ZM52.8,15H50.531V6.547H52.8ZM50.4,4.359a1.112,1.112,0,0,1,.34-.836,1.465,1.465,0,0,1,1.848,0,1.105,1.105,0,0,1,.344.836,1.108,1.108,0,0,1-.348.844,1.448,1.448,0,0,1-1.836,0A1.108,1.108,0,0,1,50.4,4.359Zm6.375,2.188.07.945a2.971,2.971,0,0,1,2.43-1.1A2.255,2.255,0,0,1,61.516,7.68a2.9,2.9,0,0,1,2.539-1.289,2.521,2.521,0,0,1,2.047.8,3.681,3.681,0,0,1,.672,2.41V15H64.508V9.609a1.61,1.61,0,0,0-.281-1.051,1.246,1.246,0,0,0-.992-.332,1.409,1.409,0,0,0-1.406.969l.008,5.8H59.578V9.617a1.59,1.59,0,0,0-.289-1.062,1.259,1.259,0,0,0-.984-.328,1.463,1.463,0,0,0-1.391.8V15H54.656V6.547ZM70.891,15H68.625V6.547h2.266Zm-2.4-10.641a1.112,1.112,0,0,1,.34-.836,1.465,1.465,0,0,1,1.848,0,1.105,1.105,0,0,1,.344.836,1.108,1.108,0,0,1-.348.844,1.448,1.448,0,0,1-1.836,0A1.108,1.108,0,0,1,68.492,4.359Zm8.148,10.8a4.15,4.15,0,0,1-3.027-1.141,4.054,4.054,0,0,1-1.168-3.039v-.219a5.106,5.106,0,0,1,.492-2.277,3.612,3.612,0,0,1,1.395-1.547,3.914,3.914,0,0,1,2.059-.543,3.508,3.508,0,0,1,2.73,1.094,4.444,4.444,0,0,1,1,3.1v.922H74.734a2.1,2.1,0,0,0,.66,1.328,2,2,0,0,0,1.395.5,2.437,2.437,0,0,0,2.039-.945l1.109,1.242a3.389,3.389,0,0,1-1.375,1.121A4.511,4.511,0,0,1,76.641,15.156Zm-.258-6.945a1.411,1.411,0,0,0-1.09.455,2.357,2.357,0,0,0-.535,1.3H77.9V9.788a1.681,1.681,0,0,0-.406-1.165A1.456,1.456,0,0,0,76.383,8.211Zm7.094-1.664.07.977a2.951,2.951,0,0,1,2.43-1.133,2.453,2.453,0,0,1,2,.789,3.682,3.682,0,0,1,.672,2.359V15H86.391V9.594a1.465,1.465,0,0,0-.312-1.043,1.4,1.4,0,0,0-1.039-.324,1.553,1.553,0,0,0-1.43.813V15H81.352V6.547Zm9.586-2.078V6.547h1.445V8.2H93.063v4.219a1.007,1.007,0,0,0,.18.672.9.9,0,0,0,.688.2,3.6,3.6,0,0,0,.664-.055v1.711a4.648,4.648,0,0,1-1.367.2,2.156,2.156,0,0,1-2.422-2.4V8.2H89.57V6.547H90.8V4.469ZM95.18,10.7a5.013,5.013,0,0,1,.484-2.242A3.546,3.546,0,0,1,97.059,6.93a4.069,4.069,0,0,1,2.113-.539,3.849,3.849,0,0,1,2.793,1.047,4.2,4.2,0,0,1,1.207,2.844l.016.578A4.418,4.418,0,0,1,102.1,13.98a4.209,4.209,0,0,1-5.832,0A4.5,4.5,0,0,1,95.18,10.8Zm2.258.16a3.16,3.16,0,0,0,.453,1.843,1.628,1.628,0,0,0,2.578.008,3.457,3.457,0,0,0,.461-2.015,3.128,3.128,0,0,0-.461-1.831,1.5,1.5,0,0,0-1.3-.649,1.474,1.474,0,0,0-1.281.646A3.516,3.516,0,0,0,97.438,10.856Zm10.773-.145a5.094,5.094,0,0,1,.887-3.148,2.877,2.877,0,0,1,2.426-1.172,2.589,2.589,0,0,1,2.039.922V3h2.266V15h-2.039l-.109-.9a2.657,2.657,0,0,1-2.172,1.055,2.869,2.869,0,0,1-2.395-1.176A5.258,5.258,0,0,1,108.211,10.711Zm2.258.168a3.337,3.337,0,0,0,.414,1.823,1.349,1.349,0,0,0,1.2.634,1.511,1.511,0,0,0,1.477-.884V9.111a1.489,1.489,0,0,0-1.461-.884Q110.469,8.227,110.469,10.879Zm11,4.277a4.15,4.15,0,0,1-3.027-1.141,4.054,4.054,0,0,1-1.168-3.039v-.219a5.106,5.106,0,0,1,.492-2.277,3.612,3.612,0,0,1,1.395-1.547,3.914,3.914,0,0,1,2.059-.543,3.508,3.508,0,0,1,2.73,1.094,4.444,4.444,0,0,1,1,3.1v.922h-5.383a2.1,2.1,0,0,0,.66,1.328,2,2,0,0,0,1.395.5,2.437,2.437,0,0,0,2.039-.945l1.109,1.242a3.389,3.389,0,0,1-1.375,1.121A4.511,4.511,0,0,1,121.469,15.156Zm-.258-6.945a1.411,1.411,0,0,0-1.09.455,2.357,2.357,0,0,0-.535,1.3h3.141V9.788a1.681,1.681,0,0,0-.406-1.165A1.456,1.456,0,0,0,121.211,8.211Zm7.4,6.789h-2.266V3h2.266ZM44.4,28.547l.07.945a2.971,2.971,0,0,1,2.43-1.1,2.255,2.255,0,0,1,2.242,1.289,2.9,2.9,0,0,1,2.539-1.289,2.521,2.521,0,0,1,2.047.8A3.681,3.681,0,0,1,54.4,31.6V37H52.133V31.609a1.61,1.61,0,0,0-.281-1.051,1.246,1.246,0,0,0-.992-.332,1.409,1.409,0,0,0-1.406.969l.008,5.8H47.2V31.617a1.59,1.59,0,0,0-.289-1.062,1.259,1.259,0,0,0-.984-.328,1.463,1.463,0,0,0-1.391.8V37H42.281V28.547Zm15.625,8.609A4.15,4.15,0,0,1,57,36.016a4.054,4.054,0,0,1-1.168-3.039v-.219a5.106,5.106,0,0,1,.492-2.277,3.612,3.612,0,0,1,1.395-1.547,3.914,3.914,0,0,1,2.059-.543,3.508,3.508,0,0,1,2.73,1.094,4.444,4.444,0,0,1,1,3.1v.922H58.117a2.1,2.1,0,0,0,.66,1.328,2,2,0,0,0,1.395.5,2.437,2.437,0,0,0,2.039-.945l1.109,1.242a3.389,3.389,0,0,1-1.375,1.121A4.511,4.511,0,0,1,60.023,37.156Zm-.258-6.945a1.411,1.411,0,0,0-1.09.455,2.357,2.357,0,0,0-.535,1.3h3.141v-.181a1.681,1.681,0,0,0-.406-1.165A1.456,1.456,0,0,0,59.766,30.211Zm9.766.453a6.134,6.134,0,0,0-.812-.062,1.654,1.654,0,0,0-1.68.867V37H64.781V28.547h2.133l.063,1.008a2.092,2.092,0,0,1,1.883-1.164,2.366,2.366,0,0,1,.7.1Zm4.453,4.672A1.481,1.481,0,0,0,75,34.992a1.2,1.2,0,0,0,.406-.914h2.117a2.9,2.9,0,0,1-.469,1.574,3.093,3.093,0,0,1-1.262,1.109,3.949,3.949,0,0,1-1.77.395A3.67,3.67,0,0,1,71.164,36a4.56,4.56,0,0,1-1.047-3.184v-.148a4.508,4.508,0,0,1,1.039-3.117,3.627,3.627,0,0,1,2.852-1.164,3.555,3.555,0,0,1,2.543.9,3.2,3.2,0,0,1,.973,2.4H75.406A1.551,1.551,0,0,0,75,30.623a1.51,1.51,0,0,0-2.223.163,3.333,3.333,0,0,0-.4,1.866v.235a3.375,3.375,0,0,0,.4,1.878A1.377,1.377,0,0,0,73.984,35.336ZM83.711,37a2.507,2.507,0,0,1-.227-.758,2.732,2.732,0,0,1-2.133.914,3,3,0,0,1-2.059-.719,2.312,2.312,0,0,1-.816-1.812,2.389,2.389,0,0,1,1-2.062,4.915,4.915,0,0,1,2.879-.727h1.039v-.484a1.393,1.393,0,0,0-.3-.937,1.183,1.183,0,0,0-.949-.352,1.345,1.345,0,0,0-.895.273.929.929,0,0,0-.324.75H78.664a2.268,2.268,0,0,1,.453-1.359,3,3,0,0,1,1.281-.98,4.669,4.669,0,0,1,1.859-.355,3.689,3.689,0,0,1,2.48.785,2.747,2.747,0,0,1,.918,2.207v3.664a4.041,4.041,0,0,0,.336,1.82V37Zm-1.867-1.57a1.945,1.945,0,0,0,.922-.223,1.462,1.462,0,0,0,.625-.6V33.156h-.844q-1.7,0-1.8,1.172l-.008.133a.9.9,0,0,0,.3.7A1.153,1.153,0,0,0,81.844,35.43Zm5.2-2.719a5.094,5.094,0,0,1,.887-3.148,2.877,2.877,0,0,1,2.426-1.172,2.589,2.589,0,0,1,2.039.922V25h2.266V37H92.617l-.109-.9a2.657,2.657,0,0,1-2.172,1.055,2.869,2.869,0,0,1-2.395-1.176A5.258,5.258,0,0,1,87.039,32.711Zm2.258.168a3.337,3.337,0,0,0,.414,1.823,1.349,1.349,0,0,0,1.2.634,1.511,1.511,0,0,0,1.477-.884V31.111a1.489,1.489,0,0,0-1.461-.884Q89.3,30.227,89.3,32.879Zm6.758-.184a5.013,5.013,0,0,1,.484-2.242,3.546,3.546,0,0,1,1.395-1.523,4.069,4.069,0,0,1,2.113-.539,3.849,3.849,0,0,1,2.793,1.047,4.2,4.2,0,0,1,1.207,2.844l.016.578a4.418,4.418,0,0,1-1.086,3.121,4.209,4.209,0,0,1-5.832,0,4.5,4.5,0,0,1-1.09-3.187Zm2.258.16a3.16,3.16,0,0,0,.453,1.843,1.628,1.628,0,0,0,2.578.008,3.457,3.457,0,0,0,.461-2.015,3.128,3.128,0,0,0-.461-1.831,1.5,1.5,0,0,0-1.3-.649,1.474,1.474,0,0,0-1.281.646A3.516,3.516,0,0,0,98.313,32.856Z" transform="translate(402 23568.918)" fill="#fff"/>
    <path id="Path_612948" data-name="Path 612948" d="M25.293,11.211A4.025,4.025,0,0,1,23.938,14.1a4.76,4.76,0,0,1-3.223,1.055,4.28,4.28,0,0,1-3.441-1.473A6.038,6.038,0,0,1,16.02,9.641v-.7A6.819,6.819,0,0,1,16.6,6.055,4.332,4.332,0,0,1,18.25,4.137a4.629,4.629,0,0,1,2.5-.668,4.637,4.637,0,0,1,3.172,1.055,4.326,4.326,0,0,1,1.391,2.961H22.965a2.376,2.376,0,0,0-.613-1.6,2.271,2.271,0,0,0-1.605-.5,1.991,1.991,0,0,0-1.754.84,4.707,4.707,0,0,0-.6,2.605V9.7a5.038,5.038,0,0,0,.559,2.7,1.954,1.954,0,0,0,1.762.852,2.314,2.314,0,0,0,1.621-.5,2.241,2.241,0,0,0,.613-1.535Zm6.453,2.93a2.831,2.831,0,0,1-2.312,1.016,2.67,2.67,0,0,1-2.074-.781,3.335,3.335,0,0,1-.73-2.289V6.547h2.258v5.467q0,1.322,1.2,1.322a1.63,1.63,0,0,0,1.578-.8V6.547h2.266V15H31.809ZM35.285,10.7a5.013,5.013,0,0,1,.484-2.242A3.546,3.546,0,0,1,37.164,6.93a4.069,4.069,0,0,1,2.113-.539A3.849,3.849,0,0,1,42.07,7.438a4.2,4.2,0,0,1,1.207,2.844l.016.578a4.418,4.418,0,0,1-1.086,3.121,4.209,4.209,0,0,1-5.832,0,4.5,4.5,0,0,1-1.09-3.187Zm2.258.16A3.16,3.16,0,0,0,38,12.7a1.628,1.628,0,0,0,2.578.008,3.457,3.457,0,0,0,.461-2.015,3.128,3.128,0,0,0-.461-1.831,1.5,1.5,0,0,0-1.3-.649A1.474,1.474,0,0,0,38,8.856,3.516,3.516,0,0,0,37.543,10.856Zm9.844-6.387V6.547h1.445V8.2H47.387v4.219a1.007,1.007,0,0,0,.18.672.9.9,0,0,0,.688.2,3.6,3.6,0,0,0,.664-.055v1.711a4.648,4.648,0,0,1-1.367.2,2.156,2.156,0,0,1-2.422-2.4V8.2H43.895V6.547h1.234V4.469ZM54.988,15a2.507,2.507,0,0,1-.227-.758,2.732,2.732,0,0,1-2.133.914,3,3,0,0,1-2.059-.719,2.312,2.312,0,0,1-.816-1.812,2.389,2.389,0,0,1,1-2.062,4.915,4.915,0,0,1,2.879-.727h1.039V9.352a1.393,1.393,0,0,0-.3-.937,1.183,1.183,0,0,0-.949-.352,1.345,1.345,0,0,0-.895.273.929.929,0,0,0-.324.75H49.941a2.268,2.268,0,0,1,.453-1.359,3,3,0,0,1,1.281-.98,4.669,4.669,0,0,1,1.859-.355,3.689,3.689,0,0,1,2.48.785,2.747,2.747,0,0,1,.918,2.207v3.664a4.041,4.041,0,0,0,.336,1.82V15Zm-1.867-1.57a1.945,1.945,0,0,0,.922-.223,1.462,1.462,0,0,0,.625-.6V11.156h-.844q-1.7,0-1.8,1.172l-.008.133a.9.9,0,0,0,.3.7A1.153,1.153,0,0,0,53.121,13.43Zm9.18-2.719a5.094,5.094,0,0,1,.887-3.148,2.877,2.877,0,0,1,2.426-1.172,2.589,2.589,0,0,1,2.039.922V3h2.266V15H67.879l-.109-.9A2.657,2.657,0,0,1,65.6,15.156,2.869,2.869,0,0,1,63.2,13.98,5.258,5.258,0,0,1,62.3,10.711Zm2.258.168a3.337,3.337,0,0,0,.414,1.823,1.349,1.349,0,0,0,1.2.634,1.511,1.511,0,0,0,1.477-.884V9.111a1.489,1.489,0,0,0-1.461-.884Q64.559,8.227,64.559,10.879Zm11,4.277a4.15,4.15,0,0,1-3.027-1.141,4.054,4.054,0,0,1-1.168-3.039v-.219a5.106,5.106,0,0,1,.492-2.277A3.612,3.612,0,0,1,73.25,6.934a3.914,3.914,0,0,1,2.059-.543,3.508,3.508,0,0,1,2.73,1.094,4.444,4.444,0,0,1,1,3.1v.922H73.652a2.1,2.1,0,0,0,.66,1.328,2,2,0,0,0,1.395.5,2.437,2.437,0,0,0,2.039-.945l1.109,1.242a3.389,3.389,0,0,1-1.375,1.121A4.511,4.511,0,0,1,75.559,15.156ZM75.3,8.211a1.411,1.411,0,0,0-1.09.455,2.357,2.357,0,0,0-.535,1.3h3.141V9.788a1.681,1.681,0,0,0-.406-1.165A1.456,1.456,0,0,0,75.3,8.211ZM82.7,15H80.434V3H82.7ZM90.66,6.547l.07.945a2.971,2.971,0,0,1,2.43-1.1A2.255,2.255,0,0,1,95.4,7.68a2.9,2.9,0,0,1,2.539-1.289,2.521,2.521,0,0,1,2.047.8,3.681,3.681,0,0,1,.672,2.41V15H98.395V9.609a1.61,1.61,0,0,0-.281-1.051,1.246,1.246,0,0,0-.992-.332,1.409,1.409,0,0,0-1.406.969l.008,5.8H93.465V9.617a1.59,1.59,0,0,0-.289-1.062,1.259,1.259,0,0,0-.984-.328,1.463,1.463,0,0,0-1.391.8V15H88.543V6.547Zm15.625,8.609a4.15,4.15,0,0,1-3.027-1.141,4.054,4.054,0,0,1-1.168-3.039v-.219a5.106,5.106,0,0,1,.492-2.277,3.612,3.612,0,0,1,1.395-1.547,3.914,3.914,0,0,1,2.059-.543,3.508,3.508,0,0,1,2.73,1.094,4.444,4.444,0,0,1,1,3.1v.922h-5.383a2.1,2.1,0,0,0,.66,1.328,2,2,0,0,0,1.395.5,2.437,2.437,0,0,0,2.039-.945l1.109,1.242a3.389,3.389,0,0,1-1.375,1.121A4.511,4.511,0,0,1,106.285,15.156Zm-.258-6.945a1.411,1.411,0,0,0-1.09.455,2.357,2.357,0,0,0-.535,1.3h3.141V9.788a1.681,1.681,0,0,0-.406-1.165A1.456,1.456,0,0,0,106.027,8.211Zm9.766.453a6.134,6.134,0,0,0-.812-.062,1.654,1.654,0,0,0-1.68.867V15h-2.258V6.547h2.133l.063,1.008a2.092,2.092,0,0,1,1.883-1.164,2.366,2.366,0,0,1,.7.1Zm4.453,4.672a1.481,1.481,0,0,0,1.016-.344,1.2,1.2,0,0,0,.406-.914h2.117a2.9,2.9,0,0,1-.469,1.574,3.093,3.093,0,0,1-1.262,1.109,3.949,3.949,0,0,1-1.77.395A3.67,3.67,0,0,1,117.426,14a4.56,4.56,0,0,1-1.047-3.184v-.148a4.508,4.508,0,0,1,1.039-3.117,3.627,3.627,0,0,1,2.852-1.164,3.555,3.555,0,0,1,2.543.9,3.2,3.2,0,0,1,.973,2.4h-2.117a1.551,1.551,0,0,0-.406-1.072,1.51,1.51,0,0,0-2.223.163,3.333,3.333,0,0,0-.4,1.866v.235a3.375,3.375,0,0,0,.4,1.878A1.377,1.377,0,0,0,120.246,13.336ZM129.973,15a2.507,2.507,0,0,1-.227-.758,2.732,2.732,0,0,1-2.133.914,3,3,0,0,1-2.059-.719,2.312,2.312,0,0,1-.816-1.812,2.389,2.389,0,0,1,1-2.062,4.915,4.915,0,0,1,2.879-.727h1.039V9.352a1.393,1.393,0,0,0-.3-.937,1.183,1.183,0,0,0-.949-.352,1.345,1.345,0,0,0-.895.273.929.929,0,0,0-.324.75h-2.258a2.268,2.268,0,0,1,.453-1.359,3,3,0,0,1,1.281-.98,4.669,4.669,0,0,1,1.859-.355,3.689,3.689,0,0,1,2.48.785,2.747,2.747,0,0,1,.918,2.207v3.664a4.041,4.041,0,0,0,.336,1.82V15Zm-1.867-1.57a1.945,1.945,0,0,0,.922-.223,1.462,1.462,0,0,0,.625-.6V11.156h-.844q-1.7,0-1.8,1.172l-.008.133a.9.9,0,0,0,.3.7A1.153,1.153,0,0,0,128.105,13.43Zm5.2-2.719a5.094,5.094,0,0,1,.887-3.148,2.877,2.877,0,0,1,2.426-1.172,2.589,2.589,0,0,1,2.039.922V3h2.266V15h-2.039l-.109-.9a2.657,2.657,0,0,1-2.172,1.055A2.869,2.869,0,0,1,134.2,13.98,5.258,5.258,0,0,1,133.3,10.711Zm2.258.168a3.337,3.337,0,0,0,.414,1.823,1.349,1.349,0,0,0,1.2.634,1.511,1.511,0,0,0,1.477-.884V9.111a1.489,1.489,0,0,0-1.461-.884Q135.559,8.227,135.559,10.879Zm6.758-.184a5.013,5.013,0,0,1,.484-2.242A3.546,3.546,0,0,1,144.2,6.93a4.069,4.069,0,0,1,2.113-.539A3.849,3.849,0,0,1,149.1,7.438a4.2,4.2,0,0,1,1.207,2.844l.016.578a4.418,4.418,0,0,1-1.086,3.121,4.209,4.209,0,0,1-5.832,0,4.5,4.5,0,0,1-1.09-3.187Zm2.258.16a3.16,3.16,0,0,0,.453,1.843,1.628,1.628,0,0,0,2.578.008,3.457,3.457,0,0,0,.461-2.015,3.128,3.128,0,0,0-.461-1.831,1.5,1.5,0,0,0-1.3-.649,1.474,1.474,0,0,0-1.281.646A3.516,3.516,0,0,0,144.574,10.856Zm15.875-2.192a6.134,6.134,0,0,0-.812-.062,1.654,1.654,0,0,0-1.68.867V15H155.7V6.547h2.133l.063,1.008a2.092,2.092,0,0,1,1.883-1.164,2.366,2.366,0,0,1,.7.1Zm4.828,6.492a4.15,4.15,0,0,1-3.027-1.141,4.054,4.054,0,0,1-1.168-3.039v-.219a5.106,5.106,0,0,1,.492-2.277,3.612,3.612,0,0,1,1.395-1.547,3.914,3.914,0,0,1,2.059-.543,3.508,3.508,0,0,1,2.73,1.094,4.444,4.444,0,0,1,1,3.1v.922h-5.383a2.1,2.1,0,0,0,.66,1.328,2,2,0,0,0,1.395.5,2.437,2.437,0,0,0,2.039-.945l1.109,1.242a3.389,3.389,0,0,1-1.375,1.121A4.511,4.511,0,0,1,165.277,15.156Zm-.258-6.945a1.411,1.411,0,0,0-1.09.455,2.357,2.357,0,0,0-.535,1.3h3.141V9.788a1.681,1.681,0,0,0-.406-1.165A1.456,1.456,0,0,0,165.02,8.211Zm7.4,6.789h-2.266V3h2.266Zm6.758,0a2.507,2.507,0,0,1-.227-.758,2.732,2.732,0,0,1-2.133.914,3,3,0,0,1-2.059-.719,2.312,2.312,0,0,1-.816-1.812,2.389,2.389,0,0,1,1-2.062,4.915,4.915,0,0,1,2.879-.727h1.039V9.352a1.393,1.393,0,0,0-.3-.937,1.183,1.183,0,0,0-.949-.352,1.345,1.345,0,0,0-.895.273.929.929,0,0,0-.324.75h-2.258a2.268,2.268,0,0,1,.453-1.359,3,3,0,0,1,1.281-.98,4.669,4.669,0,0,1,1.859-.355,3.689,3.689,0,0,1,2.48.785,2.747,2.747,0,0,1,.918,2.207v3.664a4.041,4.041,0,0,0,.336,1.82V15Zm-1.867-1.57a1.945,1.945,0,0,0,.922-.223,1.462,1.462,0,0,0,.625-.6V11.156h-.844q-1.7,0-1.8,1.172l-.008.133a.9.9,0,0,0,.3.7A1.153,1.153,0,0,0,177.309,13.43Zm8.25-8.961V6.547H187V8.2h-1.445v4.219a1.007,1.007,0,0,0,.18.672.9.9,0,0,0,.688.2,3.6,3.6,0,0,0,.664-.055v1.711a4.648,4.648,0,0,1-1.367.2,2.156,2.156,0,0,1-2.422-2.4V8.2h-1.234V6.547H183.3V4.469ZM190.645,15h-2.266V6.547h2.266Zm-2.4-10.641a1.112,1.112,0,0,1,.34-.836,1.465,1.465,0,0,1,1.848,0,1.105,1.105,0,0,1,.344.836,1.109,1.109,0,0,1-.348.844,1.448,1.448,0,0,1-1.836,0A1.109,1.109,0,0,1,188.246,4.359Zm7.422,7.883,1.57-5.7H199.6L196.746,15H194.59l-2.852-8.453H194.1Zm4.453-1.547a5.013,5.013,0,0,1,.484-2.242A3.546,3.546,0,0,1,202,6.93a4.069,4.069,0,0,1,2.113-.539,3.849,3.849,0,0,1,2.793,1.047,4.2,4.2,0,0,1,1.207,2.844l.016.578a4.418,4.418,0,0,1-1.086,3.121,4.209,4.209,0,0,1-5.832,0,4.5,4.5,0,0,1-1.09-3.187Zm2.258.16a3.16,3.16,0,0,0,.453,1.843,1.628,1.628,0,0,0,2.578.008,3.457,3.457,0,0,0,.461-2.015,3.128,3.128,0,0,0-.461-1.831,1.5,1.5,0,0,0-1.3-.649,1.474,1.474,0,0,0-1.281.646A3.516,3.516,0,0,0,202.379,10.856Z" transform="translate(815.149 23263.076)" fill="#fff"/>
  </g>
</svg>
