<svg xmlns="http://www.w3.org/2000/svg" xmlns:xlink="http://www.w3.org/1999/xlink" width="400" height="286" viewBox="0 0 400 286">
  <defs>
    <clipPath id="clip-path">
      <rect id="Rect치ngulo_378102" data-name="Rect치ngulo 378102" width="400" height="286" transform="translate(285 24869)" fill="#fff" stroke="#707070" stroke-width="1"/>
    </clipPath>
    <clipPath id="clip-path-2">
      <rect id="Rect치ngulo_378101" data-name="Rect치ngulo 378101" width="268" height="268" fill="none"/>
    </clipPath>
  </defs>
  <g id="Enmascarar_grupo_154292" data-name="Enmascarar grupo 154292" transform="translate(-285 -24869)" clip-path="url(#clip-path)">
    <g id="Grupo_1072921" data-name="Grupo 1072921" transform="translate(348 24876)">
      <g id="Grupo_1072920" data-name="Grupo 1072920" transform="translate(3 2)" clip-path="url(#clip-path-2)">
        <path id="Trazado_610666" data-name="Trazado 610666" d="M74.66,159.03c-3.306-7.188-6.342-14.417-7.252-22.432a53.218,53.218,0,0,1,.632-17.464c.67-3.054-.441-3.46-2.674-4.5-21.169-9.879-32.353-27.3-36.759-49.594C25.66,50.129,27.076,35.01,26.94,19.976c-.042-4.717,3.424-7.765,8.285-8.235,9.023-.873,18.479-1.21,25.963-6.717C68.467-.33,74.219-.756,81.61,4.931c7.241,5.573,16.622,5.893,25.5,6.765,5.732.563,9.122,3.622,9.119,9.324-.005,17.231,1.2,34.563-3.788,51.779,13.028-2.376,25.42-1.4,37.247,4.274,2.556,1.226,1.953-.933,1.957-2.1.037-11.578.017-23.157.028-34.735a42.635,42.635,0,0,1,.151-5.849c1.413-10.1,8.571-16.365,18.816-16.6,1.395-.031,2.79.006,4.186-.008,2.509-.026,5.427.727,7.42-.3,2.426-1.253.677-4.521,1.134-6.873A13.321,13.321,0,0,1,195.882.162c9.344-.2,18.7-.243,28.041.017C231.531.39,236.57,6.1,236.646,14.4c.025,2.713.691,3.508,3.444,3.468,4.575-.067,9.176-.522,13.747.566,8.233,1.96,13.984,8.456,14.044,16.935q.224,31.594,0,63.191c-.08,10.417-8.141,17.731-19.225,17.767-20.928.069-41.856.11-62.782-.065-3.608-.031-4.16.655-3.618,4.294,3.758,25.269-7.534,47.78-29.843,60.22-.592.33-1.158.707-1.946,1.19,5.694,6.323,8.121,13.348,5.522,21.584-.687,2.178.88,1.8,2.081,1.872,4.181.249,7.893-1.556,11.693-2.809,25.319-8.35,50.6-16.816,75.905-25.208,8.479-2.813,16.9.769,20.648,8.675a16.218,16.218,0,0,1-6.3,21.148q-42.147,25.875-84.467,51.465c-6.122,3.716-12.93,4.872-20.022,4.866q-52.947-.045-105.894-.036c-2.276,0-4.273.176-6.147,1.825a11.969,11.969,0,0,1-8.176,2.628c-7.116-.009-14.232.065-21.346-.022-8.34-.1-13.908-5.594-13.924-13.922q-.089-46.244-.006-92.487C.051,153,5.689,147.452,14.2,147.4c6.837-.043,13.674.049,20.509-.028,5.486-.063,9.8,2.071,12.513,6.81a4.087,4.087,0,0,0,4.328,2.3c7.7-.271,15.328.147,22.6,3.093.321.049.827.249.925.125.312-.391-.063-.563-.41-.667m-43.708-2.267c-5.011-.1-10.023-.25-15.034-.271-6.1-.024-6.822.717-6.826,6.677q-.016,22.8,0,45.593c0,14.78.028,29.559-.02,44.339-.01,3.122.568,5.737,4.336,5.759,5.847.033,11.7-.147,17.544-.238,8.361.839,9.208.08,9.209-8.261q0-25.925,0-51.85c0-12.126-.044-24.252.023-36.378.022-3.827-1.608-5.769-5.495-5.625-1.246.046-2.489.168-3.734.255M98.085,19.972c-9.011-1.874-17.9-4.1-25.413-9.806-1.437-1.091-2.224-.281-3.249.441C60.37,16.973,50.082,19.6,39.23,20.19c-2.837.154-3.479,1.151-3.434,3.747.159,9.05-.08,18.112.218,27.155A72.972,72.972,0,0,0,42.5,79.778c4.937,10.6,12.031,19.276,22.771,24.528,5.413,3.6,5.391,3.589,8.505-2.025C79.224,92.459,86.55,84.306,96.6,79.216c4.359-2.208,6.125-5.248,7.394-9.6,3.809-13.055,3.108-26.4,3.147-39.71.027-9.236.005-9.236-9.055-9.936M247.806,107c7.473.465,11-2.731,11.006-10.071q.026-29.861,0-59.723c-.006-7.342-3.531-10.535-11.006-10.068-26.081-.061-52.162-.179-78.242-.137-5.16.008-8.647,3.615-8.689,8.82-.119,15.2-.025,30.4-.081,45.606a4.752,4.752,0,0,0,1.8,3.969,57.012,57.012,0,0,1,15.09,19.8,3.026,3.026,0,0,0,3.177,2.031q33.472-.166,66.944-.226M139.534,175.213c1.863,1.565,3.462.049,4.971-.609,22.886-9.965,34.865-35.006,27.581-58.957-5.052-16.609-15.993-27.964-33.021-32.876a43.1,43.1,0,0,0-22.56-1.516A48.62,48.62,0,0,0,76.452,122.4c-2.984,20.684,6.542,39.657,24.642,50.043a14.581,14.581,0,0,0,7.17,1.748c10.424.286,20.9-.951,31.27,1.018m24.546,78.3c3.472-.245,6.265-2.118,9.1-3.845q37.812-22.994,75.6-46.018a77.163,77.163,0,0,0,7.379-4.708,7.417,7.417,0,0,0,1.7-9.77,7.22,7.22,0,0,0-9.2-3.124,21.669,21.669,0,0,0-2.427.518c-20.022,6.665-40,13.476-60.073,19.98-11.825,3.831-23.276,9.246-36.352,7.941-6.63-.662-13.387.088-20.073-.161-11.9-.442-23.4.275-33.316,8.084a4.017,4.017,0,0,1-6.2-1.1c-1.468-2.272-1.051-4.572,1.24-6.239,6.626-4.821,13.84-8.282,22.094-9.154,9.6-1.014,19.234-.314,28.851-.487,1.7-.03,3.351.126,4.167-1.886,1.159-2.862,2.131-5.633,1.153-8.859a16.014,16.014,0,0,0-14.533-11.247c-8.085-.213-16.18,0-24.267-.155-10.13-.188-19.64-2.715-27.676-9.071-8.4-6.642-17.8-9.339-28.382-9.051-3.044.083-3.615,1.037-3.605,3.825q.143,41-.012,82c-.013,2.934.743,3.678,3.675,3.669q52.307-.162,104.614-.054a17.316,17.316,0,0,0,6.547-1.094m45.538-235.73c5.279,0,10.559-.064,15.837.036,1.772.034,2.351-.441,2.39-2.3.1-4.626-1.347-6.328-6.011-6.355-6.39-.036-12.781-.011-19.171-.008-2.084,0-4.175-.092-6.25.041-3.907.25-4.417,3-4.518,6.181-.124,3.892,2.742,2.272,4.39,2.344,4.438.194,8.889.067,13.334.066" transform="translate(0 0)" fill="#050504"/>
        <path id="Trazado_610667" data-name="Trazado 610667" d="M173.627,285.534a17.316,17.316,0,0,1-6.547,1.094q-52.307-.035-104.614.055c-2.932.009-3.688-.735-3.675-3.67q.176-41,.012-82c-.01-2.788.561-3.742,3.605-3.825,10.578-.286,19.983,2.409,28.382,9.052,8.036,6.356,17.545,8.882,27.676,9.071,8.087.15,16.183-.059,24.267.154a16.014,16.014,0,0,1,14.533,11.247c.978,3.227.007,6-1.153,8.859-.816,2.013-2.468,1.856-4.167,1.887-9.617.173-19.252-.527-28.851.487-8.254.871-15.468,4.332-22.094,9.154-2.291,1.666-2.707,3.964-1.24,6.238a4.018,4.018,0,0,0,6.2,1.1c9.913-7.811,21.417-8.528,33.317-8.085,6.686.25,13.443-.5,20.073.162,13.076,1.3,24.528-4.11,36.352-7.941,20.075-6.506,40.05-13.315,60.074-19.98a21.655,21.655,0,0,1,2.426-.518c2.249,11.562,1.49,13.909-7.414,19.355-22.637,13.845-45.391,27.5-68.006,41.381-3.2,1.967-7.157,3.072-9.16,6.73" transform="translate(-9.547 -32.017)" fill="#fddeb1"/>
        <path id="Trazado_610668" data-name="Trazado 610668" d="M154.251,190.807c-10.369-1.968-20.846-.731-31.271-1.018a14.58,14.58,0,0,1-7.169-1.748C97.711,177.655,88.185,158.682,91.169,138a48.62,48.62,0,0,1,40.052-41.149,43.1,43.1,0,0,1,22.56,1.516,3.037,3.037,0,0,0,1.559,1.853A50.533,50.533,0,0,1,168.3,111.781a51.741,51.741,0,0,1,11.075,41.074c-2.355,16.286-10.768,29.258-25.121,37.952m3.487-31.882c-.158-9.929-7.454-17.441-17.244-18.331-1.508-.137-3.006,0-4.471-.745a8.938,8.938,0,0,1,3.9-17.029,8.865,8.865,0,0,1,8.667,8.049c.456,3.394,1.745,5.957,5.433,5.2,3.526-.72,4.081-3.649,3.436-6.935-1.241-6.321-4.635-10.971-10.515-13.611-1.489-.668-2.668-1.2-3.071-2.958a3.84,3.84,0,0,0-3.989-3.041,4.049,4.049,0,0,0-4.348,3.192,3.5,3.5,0,0,1-2.282,2.6c-8.138,3.825-12.558,11.343-11.243,18.954,1.544,8.939,7.968,14.527,17.662,15.361,5.477.472,9.08,4.087,9.009,9.04a8.706,8.706,0,0,1-7.6,8.561c-5.614.574-9.034-2.153-10.035-8.053-.522-3.082-1.834-5.463-5.406-4.874s-4.168,3.4-3.653,6.393c1.108,6.437,4.444,11.326,10.527,14.08,1.5.678,2.851,1.1,3.22,3.22.322,1.849,2.084,2.866,4.153,2.8,1.854-.057,3.445-.9,3.814-2.654.451-2.151,1.926-2.7,3.573-3.492,6.79-3.285,9.968-8.964,10.467-15.731" transform="translate(-14.717 -15.594)" fill="#fcd900"/>
        <path id="Trazado_610669" data-name="Trazado 610669" d="M278.979,112.232q-33.472.1-66.944.225a3.023,3.023,0,0,1-3.176-2.03,57.04,57.04,0,0,0-15.09-19.8,4.748,4.748,0,0,1-1.8-3.969c.055-15.2-.039-30.405.08-45.608.041-5.2,3.529-8.81,8.689-8.818,26.081-.044,52.161.074,78.242.136,2.955,6.078,2.588,12.589,2.564,19.077-.05,13.346,0,26.693-.022,40.039-.011,7.013.769,14.133-2.542,20.746m-37.858-8.788a31.144,31.144,0,1,0-.136-62.288,31.145,31.145,0,1,0,.136,62.288" transform="translate(-31.173 -5.233)" fill="#5fa717"/>
        <path id="Trazado_610670" data-name="Trazado 610670" d="M72.209,106.174c-10.741-5.252-17.834-13.931-22.771-24.528A72.946,72.946,0,0,1,42.952,52.96c-.3-9.045-.059-18.1-.218-27.155-.046-2.6.6-3.593,3.434-3.747,10.852-.591,21.14-3.216,30.193-9.583,1.025-.721,1.813-1.532,3.25-.441,7.512,5.7,16.4,7.933,25.412,9.807-.033,5.857-.078,11.713-.1,17.569-.033,10.552.475,21.113-2.483,31.476-1.84,6.446-3.691,12.341-11.158,14.7-3.015.951-5.651,3.5-8.12,5.706-4.669,4.17-9.079,8.624-10.958,14.888M56.344,64.68c-.171,1.7.841,2.829,1.959,3.932,2.284,2.253,4.517,4.559,6.822,6.792,3.7,3.587,5.828,3.5,8.9-.563,8.32-11.012,16.558-22.086,24.865-33.109,1.978-2.624,3.051-5.3-.126-7.6-2.982-2.157-5.117-.423-6.982,2.088Q82.672,48.476,73.444,60.636c-4.155,5.492-4.182,5.471-9.455,1.035a8.355,8.355,0,0,0-.966-.8,3.986,3.986,0,0,0-4.334-.3,4.076,4.076,0,0,0-2.345,4.11" transform="translate(-6.939 -1.868)" fill="#5fa717"/>
        <path id="Trazado_610671" data-name="Trazado 610671" d="M32.706,288.961c-5.848.09-11.7.271-17.544.237-3.768-.022-4.346-2.636-4.336-5.759.049-14.779.02-29.559.02-44.338q0-22.8,0-45.593c0-5.96.73-6.7,6.826-6.677,5.012.021,10.023.176,15.034.271q0,50.929,0,101.859" transform="translate(-1.758 -30.339)" fill="#02a8f3"/>
        <path id="Trazado_610672" data-name="Trazado 610672" d="M36.948,288.963q0-50.929,0-101.859c1.245-.087,2.489-.209,3.734-.255,3.887-.144,5.517,1.8,5.495,5.625-.068,12.126-.023,24.252-.023,36.378q0,25.925,0,51.85c0,8.341-.847,9.1-9.209,8.261" transform="translate(-6 -30.341)" fill="#0377bb"/>
        <path id="Trazado_610673" data-name="Trazado 610673" d="M166.494,191.259c14.352-8.694,22.766-21.666,25.121-37.951a51.736,51.736,0,0,0-11.075-41.074,50.536,50.536,0,0,0-12.956-11.564,3.038,3.038,0,0,1-1.559-1.853c17.028,4.913,27.97,16.268,33.021,32.877,7.284,23.95-4.7,48.991-27.582,58.956-1.509.658-3.108,2.174-4.97.609" transform="translate(-26.96 -16.047)" fill="#f9bd08"/>
        <path id="Trazado_610674" data-name="Trazado 610674" d="M77.924,108.178c1.88-6.264,6.289-10.718,10.958-14.888,2.468-2.2,5.1-4.755,8.119-5.706,7.466-2.355,9.318-8.25,11.158-14.7,2.958-10.363,2.45-20.924,2.483-31.476.018-5.856.064-11.711.1-17.568,9.06.7,9.081.7,9.055,9.935-.039,13.311.661,26.655-3.147,39.71-1.269,4.35-3.036,7.391-7.4,9.6C99.2,88.178,91.877,96.331,86.429,106.153c-3.114,5.615-3.092,5.627-8.505,2.025" transform="translate(-12.654 -3.872)" fill="#529114"/>
        <path id="Trazado_610675" data-name="Trazado 610675" d="M295.848,112.252c3.311-6.613,2.531-13.732,2.542-20.746.022-13.347-.029-26.692.022-40.039.024-6.488.391-13-2.564-19.077,7.475-.467,11,2.727,11.006,10.068q.026,29.861,0,59.723c-.007,7.341-3.533,10.537-11.006,10.071" transform="translate(-48.042 -5.252)" fill="#539314"/>
        <path id="Trazado_610676" data-name="Trazado 610676" d="M195.89,289.477c2-3.658,5.956-4.763,9.16-6.73,22.615-13.88,45.368-27.536,68.006-41.381,8.9-5.446,9.663-7.792,7.414-19.355a7.222,7.222,0,0,1,9.2,3.124,7.417,7.417,0,0,1-1.695,9.77,77.114,77.114,0,0,1-7.38,4.708q-37.794,23.021-75.6,46.018c-2.838,1.726-5.631,3.6-9.1,3.845" transform="translate(-31.81 -35.96)" fill="#d7bd96"/>
        <path id="Trazado_610677" data-name="Trazado 610677" d="M89.033,189.86c.347.1.722.276.41.667-.1.125-.6-.075-.925-.124.162-.188.334-.369.514-.543" transform="translate(-14.374 -30.831)" fill="#f6f6f6"/>
        <path id="Trazado_610678" data-name="Trazado 610678" d="M163.776,161.541c-.5,6.767-3.677,12.446-10.467,15.731-1.648.8-3.123,1.341-3.573,3.492-.369,1.757-1.959,2.6-3.814,2.654-2.069.063-3.831-.954-4.153-2.8-.369-2.119-1.722-2.541-3.22-3.22-6.084-2.754-9.419-7.643-10.527-14.08-.515-2.994.079-5.8,3.653-6.393s4.884,1.792,5.406,4.874c1,5.9,4.421,8.627,10.035,8.053a8.706,8.706,0,0,0,7.6-8.561c.071-4.953-3.531-8.568-9.009-9.039-9.694-.834-16.118-6.422-17.662-15.361-1.315-7.611,3.105-15.129,11.243-18.954a3.5,3.5,0,0,0,2.282-2.6,4.049,4.049,0,0,1,4.348-3.192,3.84,3.84,0,0,1,3.989,3.041c.4,1.763,1.581,2.29,3.071,2.958,5.88,2.64,9.274,7.291,10.515,13.611.645,3.287.09,6.215-3.436,6.935-3.688.752-4.977-1.811-5.433-5.2a8.865,8.865,0,0,0-8.667-8.049,8.938,8.938,0,0,0-3.9,17.029c1.465.745,2.963.608,4.471.745,9.79.89,17.086,8.4,17.244,18.331" transform="translate(-20.756 -18.21)" fill="#060500"/>
        <path id="Trazado_610679" data-name="Trazado 610679" d="M244.552,105.175a31.144,31.144,0,1,1,31.157-31,30.96,30.96,0,0,1-31.157,31M222.206,73.864A22.44,22.44,0,0,0,244.32,96.423c12.109.2,22.372-9.968,22.441-22.234a22.278,22.278,0,1,0-44.555-.325" transform="translate(-34.605 -6.964)" fill="#040503"/>
        <path id="Trazado_610680" data-name="Trazado 610680" d="M58.979,68.879a4.076,4.076,0,0,1,2.345-4.11,3.986,3.986,0,0,1,4.334.3,8.356,8.356,0,0,1,.966.8c5.273,4.436,5.3,4.457,9.455-1.035q9.21-12.175,18.334-24.413c1.865-2.511,4-4.245,6.982-2.088,3.177,2.3,2.1,4.973.126,7.6-8.307,11.023-16.545,22.1-24.865,33.109-3.068,4.061-5.194,4.15-8.9.563-2.3-2.233-4.537-4.539-6.822-6.792-1.118-1.1-2.13-2.236-1.959-3.932" transform="translate(-9.574 -6.066)" fill="#020401"/>
        <path id="Trazado_610681" data-name="Trazado 610681" d="M261.4,77.467c-.472,3.293-2.451,4.727-5.539,4.424-2.753-.271-3.745.683-3.46,3.466.313,3.057-1,5.32-4.311,5.419-3.4.1-4.7-2.291-4.5-5.25.2-3.018-.909-3.867-3.773-3.654s-5-1.1-5.06-4.25c-.064-3.385,2.155-4.78,5.207-4.507,3.1.278,3.738-1.022,3.624-3.8-.123-2.994,1.254-5.285,4.65-5.105,3.058.161,4.511,2.244,4.151,5.138-.424,3.4,1.122,3.994,4.031,3.767,3.023-.235,4.58,1.554,4.984,4.356" transform="translate(-38.121 -10.425)" fill="#070707"/>
      </g>
    </g>
  </g>
</svg>
