<svg id="Grupo_1072963" data-name="Grupo 1072963" xmlns="http://www.w3.org/2000/svg" xmlns:xlink="http://www.w3.org/1999/xlink" width="62.046" height="55.525" viewBox="0 0 62.046 55.525">
  <defs>
    <clipPath id="clip-path">
      <rect id="Rectángulo_378127" data-name="Rectángulo 378127" width="62.046" height="55.525" fill="none"/>
    </clipPath>
  </defs>
  <g id="Grupo_1072962" data-name="Grupo 1072962" clip-path="url(#clip-path)">
    <path id="Trazado_610810" data-name="Trazado 610810" d="M21.289,6.579l2.91.01c.225.633.537,1.19,1.321,1.153a1.257,1.257,0,0,0,1.2-1.163h2.637c.126,1.005.806,1.184,1.672,1.182q8.235-.019,16.471-.006,9.737,0,19.474,0c1.766,0,2.789.874,2.8,2.484q.036,7.944,0,15.888a2.239,2.239,0,0,1-2.343,2.407c-1.808.042-3.617.009-5.425.023a.817.817,0,0,1-.8-.41,15.484,15.484,0,0,0-7.709-6.47c-.249-.1-.557-.176-.329-.614.536-1.031,1.021-2.089,1.6-3.277.713,1.374,1.348,2.6,1.979,3.819a1.324,1.324,0,0,0,1.241.9,1.306,1.306,0,0,0,1.232-.914c.92-1.912,1.844-3.822,2.75-5.741.423-.9.249-1.553-.455-1.9-.724-.36-1.268-.109-1.739.838-.6,1.2-1.174,2.411-1.76,3.619-.305-.135-.36-.407-.476-.63-.551-1.054-1.07-2.126-1.649-3.165-.629-1.128-1.675-1.118-2.306.006-.3.532-.534,1.1-.821,1.639a11.621,11.621,0,0,1-1.161,2.194c-.706-1.351-1.366-2.639-2.051-3.914a1.16,1.16,0,0,0-1.342-.7,1.2,1.2,0,0,0-.977,1.064,2,2,0,0,0,.367,1.178c.783,1.527,1.573,3.05,2.445,4.738a14.671,14.671,0,0,0-6.508.314c.846-1.772,1.648-3.445,2.443-5.121.5-1.061.384-1.684-.386-2.063-.753-.371-1.3-.073-1.832,1.021-.557,1.14-1.1,2.285-1.727,3.586-.647-1.234-1.219-2.3-1.768-3.383-.325-.64-.611-1.377-1.452-1.375-.9,0-1.158.791-1.478,1.465-.508,1.07-1.033,2.131-1.6,3.294-.665-1.286-1.264-2.457-1.874-3.624-.563-1.077-1.109-1.358-1.86-.974s-.865,1.033-.332,2.069q1.39,2.7,2.789,5.4c.285.55.561,1.075,1.329,1.081s1.045-.538,1.316-1.088c.57-1.159,1.12-2.328,1.748-3.637.7,1.354,1.292,2.564,1.956,3.731.272.479.135.642-.285.86a15.275,15.275,0,0,0-6.1,5.645,1.026,1.026,0,0,1-1.009.546c-6.039-.014-12.079,0-18.118-.016a2.331,2.331,0,0,1-2.616-2.637q-.022-7.75,0-15.5a2.43,2.43,0,0,1,2.73-2.652c1.389-.011,2.778-.035,4.166.009a1.474,1.474,0,0,0,1.717-1.188m4.822,11.978c-.719-1.384-1.353-2.6-1.98-3.814A1.419,1.419,0,0,0,22.9,13.79a1.434,1.434,0,0,0-1.272,1.023c-.563,1.221-1.172,2.422-1.811,3.732-.693-1.328-1.324-2.554-1.972-3.771-.5-.937-1.033-1.177-1.752-.821s-.887,1.026-.442,1.9c.994,1.945,2.021,3.874,3.019,5.818a1.269,1.269,0,0,0,2.408-.059c.592-1.234,1.2-2.463,1.857-3.821.718,1.394,1.351,2.689,2.045,3.951a1.208,1.208,0,0,0,2.273.053c1.051-2.059,2.041-4.15,3.01-6.249a1.217,1.217,0,0,0-.958-1.741c-.709-.063-1.109.406-1.39.992-.578,1.2-1.154,2.406-1.806,3.764" transform="translate(-10.208 -5.303)" fill="#feb657"/>
    <path id="Trazado_610811" data-name="Trazado 610811" d="M11.08,1.276A1.474,1.474,0,0,1,9.364,2.464C7.976,2.42,6.587,2.444,5.2,2.455a2.429,2.429,0,0,0-2.73,2.652q-.024,7.75,0,15.5a2.331,2.331,0,0,0,2.616,2.637c6.039.015,12.079,0,18.118.016a1.026,1.026,0,0,0,1.009-.546,15.275,15.275,0,0,1,6.1-5.645c.42-.218.558-.381.285-.86-.664-1.167-1.253-2.377-1.956-3.731-.628,1.31-1.177,2.479-1.747,3.637-.271.55-.535,1.094-1.316,1.088s-1.044-.53-1.329-1.081q-1.4-2.7-2.789-5.4c-.532-1.035-.424-1.681.332-2.069s1.3-.1,1.86.974c.61,1.166,1.21,2.338,1.874,3.624.566-1.164,1.092-2.225,1.6-3.294.32-.674.582-1.463,1.478-1.466.841,0,1.127.735,1.452,1.375.549,1.08,1.121,2.149,1.768,3.383.626-1.3,1.17-2.447,1.727-3.586.534-1.094,1.079-1.392,1.832-1.021.77.379.89,1,.386,2.063-.8,1.676-1.6,3.349-2.443,5.121a14.668,14.668,0,0,1,6.508-.315c-.872-1.688-1.663-3.211-2.445-4.737A2,2,0,0,1,37.013,9.6a1.2,1.2,0,0,1,.977-1.064,1.16,1.16,0,0,1,1.342.7c.685,1.274,1.345,2.562,2.051,3.914a11.632,11.632,0,0,0,1.161-2.194c.287-.539.523-1.106.821-1.638.63-1.124,1.677-1.134,2.306-.006.579,1.039,1.1,2.11,1.649,3.165.116.222.171.495.476.63.586-1.207,1.164-2.418,1.76-3.619.471-.947,1.015-1.2,1.739-.838.7.35.878,1.006.455,1.9-.906,1.919-1.83,3.829-2.75,5.741a1.306,1.306,0,0,1-1.232.914,1.323,1.323,0,0,1-1.241-.9c-.631-1.223-1.267-2.445-1.98-3.819-.574,1.188-1.059,2.246-1.595,3.277-.228.438.08.516.329.614a15.483,15.483,0,0,1,7.709,6.47.817.817,0,0,0,.8.41c1.809-.014,3.618.019,5.425-.023a2.239,2.239,0,0,0,2.343-2.407q.037-7.944,0-15.888c-.007-1.61-1.03-2.483-2.8-2.484q-9.737-.008-19.474,0-8.235,0-16.471.006c-.866,0-1.546-.176-1.672-1.182A1.283,1.283,0,0,1,20.556.011c.193-.01.387,0,.581,0q17.681,0,35.362,0c2.682,0,4.386,1.052,5.21,3.18a5.409,5.409,0,0,1,.323,1.989c0,5.134.006,10.269,0,15.4a4.862,4.862,0,0,1-5.175,5.13c-1.26.005-2.52.032-3.778-.013-.579-.021-.662.2-.506.662a15.275,15.275,0,0,1,.341,8.193,18.431,18.431,0,0,1-2.34,5.453,18.934,18.934,0,0,1-2.616,2.825c-.476.356-.392.583-.015.957,2.864,2.838,5.706,5.7,8.562,8.546a1.753,1.753,0,0,0,2.56.28,1.771,1.771,0,0,0-.2-2.641c-1.063-1.08-2.118-2.171-3.222-3.209a1.527,1.527,0,0,1-.36-2.066,1.423,1.423,0,0,1,2.049.278c1.13,1.153,2.291,2.277,3.417,3.434a4.119,4.119,0,0,1-2.309,7.065,3.788,3.788,0,0,1-3.356-1.128c-2.966-2.926-5.923-5.862-8.84-8.837a1.293,1.293,0,0,0-1.825-.314,15.752,15.752,0,0,1-22.258-10.8,15.366,15.366,0,0,1,.536-8.567,1.874,1.874,0,0,0-1.055-.109Q13.5,25.7,5.36,25.71C1.989,25.709,0,23.731,0,20.371q0-7.51,0-15.02C0,2.038,1.951.059,5.264.011,6.621-.009,7.978.028,9.334,0c.929-.018,1.567.3,1.746,1.275M50.859,31.042A13.313,13.313,0,1,0,37.5,44.319,13.256,13.256,0,0,0,50.859,31.042" transform="translate(0 0)" fill="#100e0b"/>
    <path id="Trazado_610812" data-name="Trazado 610812" d="M253.247,210.984a1.527,1.527,0,0,0,.36,2.066c1.1,1.037,2.159,2.128,3.222,3.209a1.7,1.7,0,1,1-2.363,2.361c-2.856-2.847-5.7-5.707-8.562-8.546-.377-.374-.461-.6.015-.957a18.934,18.934,0,0,0,2.616-2.825l1.862,1.81a1.28,1.28,0,0,0,.059,1.749,1.224,1.224,0,0,0,1.736,0l1.056,1.137" transform="translate(-197.964 -166.286)" fill="#e3464e"/>
    <path id="Trazado_610813" data-name="Trazado 610813" d="M270.849,216.092a1.224,1.224,0,0,1-1.736,0,1.195,1.195,0,1,1,1.688-1.683,1.3,1.3,0,0,1,.048,1.679" transform="translate(-216.622 -172.532)" fill="#100e0b"/>
    <path id="Trazado_610814" data-name="Trazado 610814" d="M74.662,1.494a1.257,1.257,0,0,1-1.2,1.163c-.784.037-1.1-.52-1.321-1.153.186-.68.488-1.261,1.312-1.233.761.026,1.089.533,1.207,1.223" transform="translate(-58.153 -0.218)" fill="#100e0b"/>
    <path id="Trazado_610815" data-name="Trazado 610815" d="M37.531,48.531c.652-1.358,1.228-2.562,1.806-3.764.282-.585.682-1.055,1.39-.992a1.217,1.217,0,0,1,.958,1.741c-.969,2.1-1.96,4.19-3.01,6.249a1.208,1.208,0,0,1-2.273-.053c-.693-1.262-1.327-2.557-2.045-3.951-.661,1.358-1.265,2.587-1.857,3.821a1.269,1.269,0,0,1-2.408.059c-1-1.944-2.025-3.873-3.019-5.818-.444-.87-.264-1.547.442-1.9s1.253-.115,1.752.821c.648,1.217,1.279,2.443,1.972,3.771.639-1.31,1.248-2.511,1.811-3.732a1.434,1.434,0,0,1,1.272-1.023,1.419,1.419,0,0,1,1.228.953c.626,1.217,1.26,2.429,1.98,3.814" transform="translate(-21.629 -35.277)" fill="#100e0b"/>
    <path id="Trazado_610816" data-name="Trazado 610816" d="M151.588,104.859a13.313,13.313,0,1,1-13.255-13.282,13.256,13.256,0,0,1,13.255,13.282M138.309,94.191a10.665,10.665,0,1,0,10.679,10.639,10.726,10.726,0,0,0-10.679-10.639" transform="translate(-100.728 -73.818)" fill="#fafafb"/>
    <path id="Trazado_610817" data-name="Trazado 610817" d="M149.418,105.055a10.665,10.665,0,1,1-10.672,10.5,10.776,10.776,0,0,1,10.672-10.5m8.169,10.636a8.212,8.212,0,1,0-8.169,8.261,8.164,8.164,0,0,0,8.169-8.261" transform="translate(-111.837 -84.682)" fill="#100e0b"/>
    <path id="Trazado_610818" data-name="Trazado 610818" d="M167.649,125.82a8.212,8.212,0,1,1-8.229-8.2,8.167,8.167,0,0,1,8.229,8.2m-2.719-.029a5.483,5.483,0,0,0-4.752-5.314c-1.15-.137-1.76.141-1.883.94-.129.835.341,1.288,1.5,1.44A3.008,3.008,0,0,1,162,124.243a4.225,4.225,0,0,1,.5,1.735,1.163,1.163,0,0,0,1.27,1.076,1.248,1.248,0,0,0,1.16-1.264" transform="translate(-121.899 -94.811)" fill="#63c3f1"/>
    <path id="Trazado_610819" data-name="Trazado 610819" d="M194.226,137.525a1.248,1.248,0,0,1-1.16,1.264,1.163,1.163,0,0,1-1.27-1.076,4.225,4.225,0,0,0-.5-1.735,3.008,3.008,0,0,0-2.211-1.385c-1.156-.152-1.626-.605-1.5-1.44.124-.8.733-1.077,1.883-.94a5.482,5.482,0,0,1,4.752,5.314" transform="translate(-151.196 -106.544)" fill="#100e0b"/>
  </g>
</svg>
