<svg xmlns="http://www.w3.org/2000/svg" xmlns:xlink="http://www.w3.org/1999/xlink" width="295" height="202" viewBox="0 0 295 202">
  <defs>
    <clipPath id="clip-path">
      <rect id="Rect치ngulo_378350" data-name="Rect치ngulo 378350" width="295" height="202" transform="translate(180 8802)" fill="#fff" stroke="#707070" stroke-width="1"/>
    </clipPath>
    <clipPath id="clip-path-2">
      <rect id="Rect치ngulo_378349" data-name="Rect치ngulo 378349" width="218.594" height="187.172" fill="none"/>
    </clipPath>
  </defs>
  <g id="Enmascarar_grupo_154295" data-name="Enmascarar grupo 154295" transform="translate(-180 -8802)" clip-path="url(#clip-path)">
    <g id="Grupo_1073484" data-name="Grupo 1073484" transform="translate(228 8809.414)">
      <g id="Grupo_1073483" data-name="Grupo 1073483" clip-path="url(#clip-path-2)">
        <path id="Trazado_611452" data-name="Trazado 611452" d="M36.027,187l14.366.017,36.044-.013h14.345l36,0,14.366.017,36.044-.012c3.955.038,7.915-.03,11.864.156,2.176.1,2.555-.827,2.55-2.743-.058-18.226-.006-36.452-.063-54.678-.014-4.6-2.763-7.262-7.475-7.359-3.954-.081-7.912.05-11.867.088-7.312-.038-14.627.06-21.933-.166-4.186-.13-7.2,1.254-8.942,5.121q-.025-9.7-.05-19.4,30.017-.029,60.034-.06c7.079-.009,9.108-3.445,5.62-9.58q-19.773-34.779-39.581-69.539c-2.829-4.967-6.063-4.972-8.907.013Q152.879,56.128,137.4,83.442c-1.167,2.067-2.393,3.465-4.928,3.048-5.609-.037-11.222.05-16.826-.137-13.463-.449-15.324.631-14.906,14.727.184,6.2-.049,12.41-.093,18.614-1.966-3.47-4.962-4.8-8.9-4.566-3.427.2-6.872.11-10.309.148-7.523-.037-15.045-.1-22.567-.105-5.8-.005-8.439,2.7-8.472,8.584q-.069,12.358-.13,24.715c-1.973-3.479-4.965-4.81-8.92-4.56-3.435.218-6.891.117-10.337.157-7.9-.04-15.79-.14-23.684-.094a6.959,6.959,0,0,0-7.269,7.22c-.1,11.247,0,22.494-.066,33.742-.009,1.755.623,2.228,2.291,2.215,11.245-.092,22.491-.106,33.736-.145M161.975,16.644c0-3.476.08-6.954-.022-10.427-.107-3.629-2.158-6.011-5.728-6.107-7.067-.192-14.142-.075-21.214-.063a3.517,3.517,0,0,0-3.4,2.2,3.349,3.349,0,0,0,.777,3.951A43.194,43.194,0,0,0,136.7,10.51c2.023,1.641,2.12,2.786.14,4.746q-24.012,23.762-47.782,47.77c-2.043,2.064-3.211,1.817-5.1-.132-6.584-6.8-13.324-13.451-20.039-20.123-4.323-4.3-8.025-4.26-12.389.058-2.043,2.023-4.033,4.1-6.068,6.131Q24.356,70.032,3.234,91.094C1.21,93.113-.341,95.359.31,98.4a7.017,7.017,0,0,0,5,5.609c3.26,1,5.784-.316,8.057-2.6,13.96-14,27.994-27.93,41.876-42.009,2.039-2.068,3.212-1.912,5.1.026,6.429,6.614,13.012,13.078,19.512,19.625,4.962,5,8.369,5.035,13.389.019Q118.286,54.048,143.32,29c5.813-5.812,5.811-5.813,11.6-.217.086.084.175.165.256.253,1.295,1.405,2.717,2.376,4.743,1.5,1.884-.817,2.084-2.424,2.07-4.185-.027-3.236-.008-6.472-.018-9.709" transform="translate(0 0)" fill="#f6f5f5"/>
        <path id="Trazado_611453" data-name="Trazado 611453" d="M181.971,96.258c2.535.418,3.761-.981,4.928-3.048q15.429-27.34,31.035-54.581c2.844-4.985,6.077-4.98,8.907-.013q19.8,34.763,39.581,69.539c3.488,6.135,1.459,9.571-5.62,9.58q-30.017.038-60.034.06l-14.569-.014c-.714-.014-1.428-.045-2.141-.042-2.5.01-5.143.287-6.562-2.468-1.433-2.781-.5-5.216,1.1-7.662,1.554-2.385,2.767-4.988,4.237-7.431,1-1.659.7-2.891-.857-3.921M217.1,71.675c0,4.3-.03,8.608.009,12.911.035,3.751,1.94,5.991,5.073,6.088,3.149.1,5.578-2.144,5.625-5.674q.171-12.909-.011-25.819a5.286,5.286,0,0,0-5.735-5.526c-3.006.15-4.9,2.318-4.948,5.829-.055,4.064-.013,8.129-.014,12.193m12.344,30.62a7.16,7.16,0,0,0-6.824-7.367,7.473,7.473,0,0,0-7.5,7.211,7.217,7.217,0,0,0,7.171,7.051,6.747,6.747,0,0,0,7.153-6.9" transform="translate(-49.497 -9.769)" fill="#e64e1a"/>
        <path id="Trazado_611454" data-name="Trazado 611454" d="M171.613,120.038c1.556,1.03,1.854,2.262.856,3.921-1.469,2.443-2.682,5.046-4.236,7.43-1.594,2.446-2.53,4.882-1.1,7.662,1.42,2.755,4.058,2.478,6.563,2.468.714,0,1.427.027,2.141.042l.076,78.992-36,0q-.066-33.656-.131-67.313c.043-6.205.276-12.417.092-18.615-.418-14.1,1.443-15.176,14.906-14.727,5.6.187,11.217.1,16.826.137" transform="translate(-39.138 -33.548)" fill="#ffae00"/>
        <path id="Trazado_611455" data-name="Trazado 611455" d="M162.042,16.644c.005,3.236-.014,6.472.013,9.709.014,1.762-.186,3.369-2.07,4.185-2.026.878-3.448-.093-4.743-1.5-.081-.088-.17-.169-.256-.253-5.793-5.6-5.792-5.6-11.6.217Q118.343,54.042,93.3,79.076c-5.02,5.016-8.427,4.978-13.389-.019C73.41,72.51,66.827,66.046,60.4,59.431c-1.884-1.938-3.056-2.094-5.1-.026C41.42,73.484,27.385,87.412,13.426,101.414c-2.273,2.28-4.8,3.594-8.057,2.6a7.019,7.019,0,0,1-5-5.609c-.65-3.042.9-5.288,2.925-7.307Q24.415,70.03,45.53,48.961c2.035-2.031,4.024-4.108,6.068-6.131,4.364-4.319,8.066-4.354,12.389-.058C70.7,49.444,77.442,56.094,84.026,62.895c1.886,1.949,3.054,2.2,5.1.132q23.774-24,47.782-47.77c1.98-1.96,1.882-3.105-.14-4.746a43.194,43.194,0,0,1-4.319-4.318,3.349,3.349,0,0,1-.777-3.951,3.517,3.517,0,0,1,3.4-2.2c7.072-.012,14.147-.128,21.214.063,3.57.1,5.621,2.478,5.728,6.107.1,3.473.022,6.952.027,10.427" transform="translate(-0.062 0)" fill="#4266ae"/>
        <path id="Trazado_611456" data-name="Trazado 611456" d="M105.987,231.792l-36.044.013q-.059-19.275-.117-38.551.065-12.358.13-24.715c.033-5.88,2.676-8.589,8.472-8.585,7.522.006,15.045.068,22.567.106,3.741,1.833,5.068,4.763,5.038,8.966-.15,20.921-.055,41.844-.045,62.766" transform="translate(-19.55 -44.784)" fill="#63bfd1"/>
        <path id="Trazado_611457" data-name="Trazado 611457" d="M245.96,234.563l-36.044.013q.005-3.231.012-6.463.082-26.566.165-53.13c1.745-3.868,4.756-5.253,8.942-5.122,7.305.228,14.621.129,21.933.166,3.738,1.833,5.075,4.759,5.038,8.962-.159,18.524-.055,37.049-.045,55.574" transform="translate(-58.772 -47.555)" fill="#63bfd1"/>
        <path id="Trazado_611458" data-name="Trazado 611458" d="M36.027,242.984c-11.245.039-22.491.053-33.736.145-1.668.014-2.3-.46-2.291-2.215.063-11.247-.033-22.495.066-33.742a6.959,6.959,0,0,1,7.269-7.22c7.894-.045,15.789.055,23.684.094,3.887,1.889,5.173,4.941,5.079,9.263-.243,11.22-.075,22.45-.071,33.675" transform="translate(0 -55.979)" fill="#ffae00"/>
        <path id="Trazado_611459" data-name="Trazado 611459" d="M204.477,169.428q-.082,26.566-.165,53.13-.01,3.231-.012,6.463L189.934,229q-.038-39.5-.076-78.991l14.569.013q.025,9.7.05,19.4" transform="translate(-53.156 -42.001)" fill="#ef7013"/>
        <path id="Trazado_611460" data-name="Trazado 611460" d="M118.107,231.765c-.009-20.922-.1-41.845.045-62.766.03-4.2-1.3-7.133-5.038-8.966,3.437-.038,6.881.053,10.309-.149,3.936-.231,6.931,1.1,8.9,4.567q.066,33.658.131,67.314H118.107" transform="translate(-31.67 -44.757)" fill="#4266ae"/>
        <path id="Trazado_611461" data-name="Trazado 611461" d="M258.035,234.587c-.009-18.525-.114-37.05.045-55.574.037-4.2-1.3-7.129-5.038-8.962,3.956-.037,7.914-.168,11.867-.087,4.713.1,7.461,2.755,7.475,7.358.058,18.226.005,36.453.063,54.679.006,1.916-.374,2.845-2.55,2.743-3.949-.185-7.909-.118-11.864-.156" transform="translate(-70.846 -47.579)" fill="#4266ae"/>
        <path id="Trazado_611462" data-name="Trazado 611462" d="M48.088,242.952c0-11.225-.173-22.455.071-33.675.094-4.322-1.192-7.374-5.079-9.263,3.446-.04,6.9.061,10.337-.157,3.956-.251,6.947,1.081,8.92,4.56q.058,19.276.117,38.551l-14.366-.017" transform="translate(-12.062 -55.948)" fill="#ef7013"/>
        <path id="Trazado_611463" data-name="Trazado 611463" d="M232.774,78.967c0-4.065-.042-8.129.013-12.193.048-3.511,1.942-5.679,4.948-5.829a5.284,5.284,0,0,1,5.735,5.525q.2,12.907.011,25.819c-.047,3.531-2.476,5.772-5.625,5.675-3.134-.1-5.039-2.338-5.073-6.088-.039-4.3-.009-8.607-.009-12.911" transform="translate(-65.168 -17.061)" fill="#f6f5f5"/>
        <path id="Trazado_611464" data-name="Trazado 611464" d="M244.353,125.637a6.747,6.747,0,0,1-7.153,6.9,7.217,7.217,0,0,1-7.171-7.051,7.473,7.473,0,0,1,7.5-7.211,7.16,7.16,0,0,1,6.824,7.367" transform="translate(-64.404 -33.111)" fill="#f6f5f5"/>
      </g>
    </g>
  </g>
</svg>
