<svg xmlns="http://www.w3.org/2000/svg" xmlns:xlink="http://www.w3.org/1999/xlink" width="295" height="189" viewBox="0 0 295 189">
  <defs>
    <clipPath id="clip-path">
      <rect id="Rect치ngulo_378415" data-name="Rect치ngulo 378415" width="295" height="189" transform="translate(180 15252)" fill="#fff" stroke="#707070" stroke-width="1"/>
    </clipPath>
    <clipPath id="clip-path-2">
      <rect id="Rect치ngulo_378414" data-name="Rect치ngulo 378414" width="129.731" height="156.404" fill="none"/>
    </clipPath>
  </defs>
  <g id="Enmascarar_grupo_154300" data-name="Enmascarar grupo 154300" transform="translate(-180 -15252)" clip-path="url(#clip-path)">
    <g id="Grupo_1073552" data-name="Grupo 1073552" transform="translate(263 15264.346)">
      <g id="Grupo_1073551" data-name="Grupo 1073551" clip-path="url(#clip-path-2)">
        <path id="Trazado_611523" data-name="Trazado 611523" d="M95.716,150.041a17.409,17.409,0,0,0,2.385-4.6c2.612-6.471,8.533-8.1,14.1-3.867.286.218.577.43.986.736.446-.868.861-1.671,1.272-2.476,2.319-4.547,6.282-6.229,10.3-4.372a8.552,8.552,0,0,1,4.323,11.073c-2.677,6.673-5.794,13.189-8.105,19.983-3.134,9.213-9.485,14.953-17.891,19.25a242.09,242.09,0,0,1-51.608,19.069c-1.7.427-3.273.726-3.523,2.976a3.535,3.535,0,0,1-1.537,2.175c-3.892,2.52-7.713,5.239-12.154,6.715a10.082,10.082,0,0,1-11.6-4.62q-10.795-18.392-21.3-36.953a10.253,10.253,0,0,1,3.41-13.766c2.96-1.956,6.108-3.63,9.2-5.381a5.359,5.359,0,0,1,5.972.118c1.431,1.01,2.081.564,3.049-.539,2.411-2.745,4.947-5.38,7.44-8.053a16.855,16.855,0,0,1,10.778-5.294c8.511-1.025,17-2.257,25.485-3.468a8,8,0,0,1,9.326,6.393c.775,4.349-1.574,7.717-6.206,8.748a48.326,48.326,0,0,0-10.206,2.95c-2.779,1.3-4.894,3.183-5.05,6.542a7.48,7.48,0,0,0,4.391,7.545c.568.291,1.1.656,1.672.932,4.1,1.968,5.478,1.744,8.534-1.59,4.972-5.426,9.092-11.294,11-18.624,1.513-5.825,8.888-7.526,13.559-3.431.616.54,1.21,1.106,2,1.832M67.38,175.852a17.523,17.523,0,0,1-10.513-2.961c-7.161-4.661-6.846-13.8.609-18.036,3.55-2.018,7.513-2.709,11.4-3.622,3.461-.812,4.963-2.711,4.387-5.7-.562-2.917-3.118-4.46-6.417-4-8.491,1.188-16.979,2.4-25.488,3.45a13.829,13.829,0,0,0-8.673,4.162c-2.839,2.972-5.57,6.048-8.42,9.009a2.015,2.015,0,0,0-.4,2.844q11.746,20.207,23.379,40.479a1.837,1.837,0,0,0,2.435,1c18.695-4.72,36.77-11.065,53.862-20.1,6.818-3.606,11.79-8.549,14.426-16.011,2.482-7.029,5.669-13.807,8.479-20.723A5.761,5.761,0,0,0,123.629,138c-2.705-1.2-5.135-.056-6.771,3.231-2.15,4.319-4.363,8.611-6.372,13a18.05,18.05,0,0,1-10.736,9.891c-7.267,2.637-14.447,5.516-21.722,8.133-3.905,1.4-7.633,3.472-10.647,3.605M2.908,169.563a8.842,8.842,0,0,0,.942,4.561c6.929,11.995,13.8,24.021,20.8,35.98,2.514,4.3,6.9,5.356,11.323,2.946,2.479-1.352,4.919-2.782,7.337-4.241,2.766-1.669,3.1-2.948,1.427-5.866q-12.249-21.326-24.564-42.616c-1.48-2.56-2.864-2.978-5.4-1.61-2.726,1.469-5.431,2.986-8.062,4.617a7.186,7.186,0,0,0-3.8,6.229m85.857-4.958c1.015.594,1.7-.16,2.4-.434,14.023-5.449,12.973-3.473,19.372-16.678,1.233-2.545.888-3.568-1.681-4.808a5.537,5.537,0,0,0-7.728,2.855,69.675,69.675,0,0,1-3.923,7.775,89.6,89.6,0,0,1-8.441,11.289m-15.775,6.139c3.074-1.053,6.443-1.414,8.836-3.51a69.2,69.2,0,0,0,11.1-12.728c.477-.687.992-1.363.461-2.234a6.174,6.174,0,0,0-5.516-3.4c-2.357.012-4.29,1.079-4.838,3.268-1.771,7.072-5.592,12.946-10.04,18.608" transform="translate(0 -60.747)" fill="#262133"/>
        <path id="Trazado_611524" data-name="Trazado 611524" d="M130.112,37.224c-.337,7.459-.662,14.653-.986,21.848-.176,3.923-1.963,6.887-5.63,8.305a8.685,8.685,0,0,1-9.652-1.752,8.866,8.866,0,0,1-2.824-6.3c-.309-6.749-.734-13.493-.983-20.244-.059-1.6-.424-1.77-2-1.63a10.36,10.36,0,0,1-10.353-5.306c-2.365-3.962-2.346-8.178.458-11.806,4.46-5.771,9.16-11.373,14.023-16.811a10.664,10.664,0,0,1,16,.175c4.643,5.275,9.11,10.71,13.529,16.175a10.721,10.721,0,0,1,.764,12.3c-2.391,4.043-6.713,5.878-12.342,5.047M98.922,27.058c-.019,5.105,5.11,8.881,10.748,7.209,1.916-.568,2.946-.566,3.042,1.8.305,7.476.725,14.948,1.058,22.423.191,4.278,2.407,6.711,6.241,6.725,3.941.014,6.224-2.536,6.4-6.9.3-7.384.739-14.764,1.026-22.149.087-2.232.889-2.578,2.936-1.93a8.072,8.072,0,0,0,9.578-3.241c2.018-3.092,1.667-6.945-.971-10.106-4.151-4.973-8.294-9.955-12.5-14.881-3.658-4.283-9.41-4.209-13.019.11-4.154,4.971-8.277,9.967-12.437,14.932a8.489,8.489,0,0,0-2.1,6.012" transform="translate(-43.275 0)" fill="#262133"/>
        <path id="Trazado_611525" data-name="Trazado 611525" d="M90.455,81.3c-.034,3.425-2.216,6.074-6.039,6.651-1.664.251-1.789.9-1.821,2.223-.075,3.107-.25,6.212-.448,9.314a5.681,5.681,0,0,1-5.793,5.67c-3.168-.028-5.487-2.392-5.677-5.811-.178-3.192-.394-6.385-.474-9.58-.031-1.236-.378-1.541-1.664-1.784-6.04-1.142-8.059-6.716-4.253-11.538,2.15-2.725,4.385-5.389,6.668-8,3.274-3.75,7.6-3.79,10.857-.083,2.41,2.746,4.7,5.6,7.036,8.411A6.485,6.485,0,0,1,90.455,81.3m-6.667,3.947a4.272,4.272,0,0,0,3.405-2.161,3.747,3.747,0,0,0-.4-4.351c-2.406-2.983-4.806-5.979-7.371-8.823-1.944-2.154-4.367-1.96-6.363.354-2.265,2.625-4.429,5.337-6.662,7.99-1.307,1.553-1.773,3.243-.625,5.016a3.715,3.715,0,0,0,4.718,1.636c1.636-.556,2.328.147,2.381,1.868.124,4.013.4,8.02.556,12.032.077,2,.844,3.495,2.967,3.531,2.17.037,2.914-1.537,3.011-3.485.167-3.373.362-6.745.484-10.119.128-3.585.1-3.586,3.9-3.488" transform="translate(-28.117 -29.583)" fill="#262133"/>
        <path id="Trazado_611526" data-name="Trazado 611526" d="M194.269,81.289a6.546,6.546,0,0,1-5.821,6.565c-2.026.29-2.275,1.224-2.293,2.8-.029,2.648-.077,5.3-.169,7.942-.139,4.03-2.4,6.565-5.806,6.583-3.436.018-5.61-2.454-5.777-6.537-.12-2.919-.346-5.837-.372-8.756-.013-1.363-.43-1.671-1.8-1.92-6-1.086-8.018-6.763-4.189-11.533,2.169-2.7,4.38-5.376,6.663-7.983,3.334-3.808,7.731-3.735,11.031.144,2.3,2.709,4.554,5.466,6.822,8.207a6.84,6.84,0,0,1,1.712,4.49m-6.986,4.117c1.539-.331,2.861-.772,3.668-2.207a3.759,3.759,0,0,0-.431-4.552c-2.349-2.905-4.7-5.811-7.158-8.625-1.857-2.127-4.281-2.24-6.175-.176-2.586,2.817-5.016,5.782-7.411,8.766a3.736,3.736,0,0,0-.211,4.808c1.081,1.485,2.484,2.337,4.468,1.623,1.944-.7,2.639.215,2.684,2.125.087,3.737.334,7.47.433,11.207.056,2.1.419,4.01,2.991,3.985,2.688-.027,3.063-2.042,3.126-4.222.093-3.19.314-6.375.4-9.564.069-2.464-.075-5.039,3.611-3.17" transform="translate(-74.895 -29.598)" fill="#262133"/>
        <path id="Trazado_611527" data-name="Trazado 611527" d="M86.64,178.169c3.015-.133,6.743-2.2,10.647-3.605,7.275-2.617,14.454-5.5,21.722-8.133a18.055,18.055,0,0,0,10.737-9.891c2.009-4.384,4.222-8.676,6.371-13,1.637-3.288,4.066-4.428,6.771-3.232a5.761,5.761,0,0,1,2.818,7.652c-2.81,6.916-6,13.694-8.479,20.723-2.635,7.462-7.607,12.406-14.425,16.011-17.092,9.04-35.167,15.384-53.862,20.1a1.837,1.837,0,0,1-2.435-1q-11.632-20.272-23.38-40.479a2.016,2.016,0,0,1,.4-2.845c2.851-2.961,5.581-6.037,8.42-9.008a13.832,13.832,0,0,1,8.672-4.163c8.508-1.049,17-2.262,25.488-3.449,3.3-.462,5.855,1.081,6.417,4,.577,2.987-.926,4.886-4.387,5.7-3.891.913-7.854,1.6-11.4,3.621-7.455,4.237-7.77,13.375-.608,18.036a17.525,17.525,0,0,0,10.512,2.961" transform="translate(-19.261 -63.064)" fill="#f4c2ca"/>
        <path id="Trazado_611528" data-name="Trazado 611528" d="M5.294,188.647a7.186,7.186,0,0,1,3.8-6.229c2.631-1.631,5.336-3.148,8.062-4.618,2.539-1.368,3.922-.95,5.4,1.61Q34.863,200.7,47.118,222.026c1.676,2.918,1.339,4.2-1.426,5.866-2.419,1.459-4.858,2.889-7.337,4.24-4.42,2.411-8.809,1.355-11.323-2.946-6.992-11.958-13.867-23.984-20.8-35.979a8.842,8.842,0,0,1-.942-4.561" transform="translate(-2.386 -79.83)" fill="#4281c3"/>
        <path id="Trazado_611529" data-name="Trazado 611529" d="M161.667,170.644a89.654,89.654,0,0,0,8.441-11.289,69.778,69.778,0,0,0,3.923-7.776,5.537,5.537,0,0,1,7.728-2.854c2.57,1.24,2.914,2.263,1.681,4.808-6.4,13.205-5.348,11.228-19.372,16.678-.7.273-1.385,1.028-2.4.434" transform="translate(-72.901 -66.785)" fill="#f4c2ca"/>
        <path id="Trazado_611530" data-name="Trazado 611530" d="M132.936,182.371c4.448-5.661,8.269-11.536,10.04-18.608.548-2.189,2.481-3.257,4.838-3.268a6.174,6.174,0,0,1,5.516,3.4c.531.871.016,1.547-.461,2.234a69.2,69.2,0,0,1-11.1,12.728c-2.393,2.1-5.762,2.458-8.836,3.51" transform="translate(-59.946 -72.373)" fill="#f4c2ca"/>
        <path id="Trazado_611531" data-name="Trazado 611531" d="M101.348,29.385a8.489,8.489,0,0,1,2.1-6.012c4.16-4.965,8.284-9.961,12.437-14.932,3.609-4.319,9.361-4.393,13.019-.11,4.207,4.926,8.35,9.908,12.5,14.881,2.638,3.161,2.99,7.014.971,10.106a8.072,8.072,0,0,1-9.578,3.241c-2.047-.648-2.85-.3-2.936,1.93-.287,7.385-.729,14.764-1.026,22.149-.176,4.365-2.458,6.915-6.4,6.9-3.834-.014-6.05-2.447-6.241-6.725-.333-7.475-.753-14.947-1.058-22.423-.1-2.364-1.126-2.366-3.042-1.8-5.638,1.672-10.767-2.1-10.748-7.209" transform="translate(-45.701 -2.327)" fill="#68ab51"/>
        <path id="Trazado_611532" data-name="Trazado 611532" d="M86.059,87.549c-3.8-.1-3.772-.1-3.9,3.488-.121,3.375-.317,6.746-.484,10.119-.1,1.948-.841,3.522-3.011,3.485-2.122-.036-2.889-1.533-2.967-3.531-.155-4.012-.432-8.019-.556-12.032-.053-1.721-.746-2.424-2.381-1.868a3.715,3.715,0,0,1-4.718-1.636c-1.149-1.773-.682-3.463.625-5.016,2.233-2.653,4.4-5.365,6.662-7.99,2-2.314,4.419-2.508,6.363-.354,2.565,2.844,4.965,5.84,7.371,8.823a3.747,3.747,0,0,1,.4,4.351,4.272,4.272,0,0,1-3.405,2.161" transform="translate(-30.388 -31.885)" fill="#f59420"/>
        <path id="Trazado_611533" data-name="Trazado 611533" d="M189.5,87.646c-3.685-1.87-3.541.706-3.611,3.17-.091,3.189-.312,6.374-.4,9.564-.064,2.18-.439,4.195-3.126,4.222-2.571.025-2.935-1.887-2.991-3.985-.1-3.737-.346-7.47-.433-11.207-.044-1.911-.74-2.825-2.684-2.125-1.984.714-3.388-.138-4.468-1.623a3.736,3.736,0,0,1,.211-4.808c2.394-2.984,4.825-5.95,7.411-8.766,1.895-2.064,4.318-1.951,6.175.176,2.457,2.813,4.809,5.72,7.158,8.625a3.759,3.759,0,0,1,.431,4.552c-.807,1.435-2.129,1.876-3.668,2.207" transform="translate(-77.112 -31.837)" fill="#4281c3"/>
      </g>
    </g>
  </g>
</svg>
