<svg id="Group_1074048" data-name="Group 1074048" xmlns="http://www.w3.org/2000/svg" xmlns:xlink="http://www.w3.org/1999/xlink" width="275.486" height="283" viewBox="0 0 275.486 283">
  <defs>
    <clipPath id="clip-path">
      <rect id="Rectangle_378786" data-name="Rectangle 378786" width="275.486" height="283" fill="none"/>
    </clipPath>
    <clipPath id="clip-path-3">
      <rect id="Rectangle_378784" data-name="Rectangle 378784" width="112.397" height="97.428" fill="none"/>
    </clipPath>
  </defs>
  <g id="Group_1074047" data-name="Group 1074047" clip-path="url(#clip-path)">
    <g id="Group_1074046" data-name="Group 1074046">
      <g id="Group_1074045" data-name="Group 1074045" clip-path="url(#clip-path)">
        <path id="Path_612736" data-name="Path 612736" d="M251.324,225.941a125.975,125.975,0,1,0-191.105,0Z" transform="translate(-9.073 -5.443)" fill="#e1fbff"/>
        <path id="Path_612737" data-name="Path 612737" d="M118.119,368.15c0,3.236-11.557,5.86-25.813,5.86s-25.813-2.623-25.813-5.86,11.557-5.86,25.813-5.86,25.813,2.623,25.813,5.86" transform="translate(-20.247 -110.318)" fill="#afc2d8"/>
        <path id="Path_612738" data-name="Path 612738" d="M298.1,375c-5.378,0-10.5.159-15.173.447,3.259-.908,5.112-1.949,5.112-3.056,0-3.534-18.879-6.4-42.168-6.4s-42.168,2.865-42.168,6.4,18.879,6.4,42.168,6.4c5.977,0,11.66-.19,16.812-.53-2.557.77-4,1.635-4,2.55,0,3.209,17.645,5.81,39.413,5.81s39.413-2.6,39.413-5.81S319.869,375,298.1,375" transform="translate(-62.028 -111.444)" fill="#afc2d8"/>
        <path id="Path_612739" data-name="Path 612739" d="M144.7,379.961q-1.169,0-2.322.013c1.5-.688,2.322-1.433,2.322-2.213,0-3.442-15.969-6.232-35.667-6.232s-35.667,2.79-35.667,6.232,15.842,6.209,35.431,6.232c-3.553,1.192-5.6,2.575-5.6,4.053,0,4.465,18.58,8.085,41.5,8.085s41.5-3.62,41.5-8.085-18.58-8.085-41.5-8.085" transform="translate(-22.341 -113.132)" fill="#afc2d8"/>
        <path id="Path_612740" data-name="Path 612740" d="M387.215,369.533c0,1.315-3.815,2.379-8.52,2.379s-8.52-1.065-8.52-2.379,3.814-2.379,8.52-2.379,8.52,1.065,8.52,2.379" transform="translate(-112.719 -111.799)" fill="#afc2d8"/>
        <path id="Path_612741" data-name="Path 612741" d="M358.659,364.173c0,.534-1.712.967-3.825.967s-3.825-.433-3.825-.967,1.712-.967,3.825-.967,3.825.433,3.825.967" transform="translate(-106.883 -110.597)" fill="#afc2d8"/>
        <path id="Path_612742" data-name="Path 612742" d="M190.363,366.382c0,.673-1.885,1.217-4.211,1.217s-4.211-.545-4.211-1.217,1.885-1.217,4.211-1.217,4.211.545,4.211,1.217" transform="translate(-55.402 -111.194)" fill="#afc2d8"/>
        <path id="Path_612743" data-name="Path 612743" d="M213.353,360.567c0,.508-1.187.919-2.652.919s-2.651-.411-2.651-.919,1.187-.919,2.651-.919,2.652.411,2.652.919" transform="translate(-63.352 -109.514)" fill="#afc2d8"/>
        <path id="Path_612744" data-name="Path 612744" d="M48.287,335.718c-4.076-11.684-8.2-23.468-14.644-34.032S18.164,281.732,6.7,277.063c3.909,14.854,7.755,30.516,17.82,42.119,6.456,7.442,14.968,12.1,23.762,16.536" transform="translate(-2.042 -84.366)" fill="#8dc63f"/>
        <path id="Path_612745" data-name="Path 612745" d="M49.019,331.8c-2.59-4.838-5.252-9.638-8.087-14.337q-2.358-3.907-4.888-7.706c-3.631-5.424-7.765-10.807-13.523-13.879,2.283,6.031,4.567,12.063,7.1,17.992a66.4,66.4,0,0,0,7.139,13.349,51.4,51.4,0,0,0,8.614,8.934c1.6,1.338,3.257,2.61,4.937,3.848.022.017.047.038.07.054q1.355.7,2.722,1.392-1-2.874-2.021-5.75-1.026-1.953-2.063-3.9" transform="translate(-6.858 -90.095)" fill="#7cb332"/>
        <path id="Path_612746" data-name="Path 612746" d="M41.887,348.109c-5.954-5.368-11.966-10.778-18.917-14.772S7.963,326.821,0,327.738c6.846,7.221,13.909,14.92,23.239,18.377,5.984,2.217,12.269,2.21,18.648,1.995" transform="translate(0 -99.74)" fill="#8dc63f"/>
        <path id="Path_612747" data-name="Path 612747" d="M41.083,345.737c-2.977-1.942-5.985-3.84-9.059-5.626q-2.556-1.486-5.177-2.856c-3.752-1.951-7.776-3.721-12-3.673,3.174,2.715,6.351,5.43,9.636,8.01a43.034,43.034,0,0,0,8.213,5.36,33.3,33.3,0,0,0,7.675,2.393c1.326.262,2.663.468,4,.649l.056.009q.989-.024,1.98-.057-1.465-1.321-2.938-2.637-1.191-.79-2.386-1.573" transform="translate(-4.52 -101.576)" fill="#7cb332"/>
        <path id="Path_612748" data-name="Path 612748" d="M48.677,299.986c-.291-8.011-.593-16.094-2.563-23.865s-5.768-15.309-11.969-20.389c-.419,9.942-1.03,20.372,2.983,29.477,2.573,5.84,6.954,10.348,11.549,14.777" transform="translate(-10.305 -77.871)" fill="#8dc63f"/>
        <path id="Path_612749" data-name="Path 612749" d="M50.013,297.7c-.679-3.489-1.409-6.97-2.267-10.42-.475-1.913-.988-3.816-1.553-5.7-1.211-4.051-2.741-8.173-5.719-11.175.261,4.169.522,8.34.957,12.494a43.056,43.056,0,0,0,1.869,9.628,33.31,33.31,0,0,0,3.624,7.176c.736,1.134,1.518,2.238,2.321,3.326l.033.047q.705.693,1.42,1.381-.072-1.971-.152-3.945c-.175-.937-.35-1.873-.532-2.808" transform="translate(-12.324 -82.337)" fill="#7cb332"/>
        <path id="Path_612750" data-name="Path 612750" d="M257.037,319.439c4.787-6.431,9.61-12.923,12.937-20.217s5.083-15.55,3.425-23.394c-6.549,7.493-13.553,15.245-16.121,24.858-1.648,6.166-1.052,12.422-.241,18.753" transform="translate(-78.023 -83.991)" fill="#8dc63f"/>
        <path id="Path_612751" data-name="Path 612751" d="M260.976,318.408c1.655-3.146,3.263-6.318,4.754-9.546.826-1.789,1.617-3.6,2.358-5.421,1.591-3.917,2.977-8.089,2.533-12.294-2.406,3.415-4.813,6.83-7.073,10.343a43.032,43.032,0,0,0-4.569,8.678,33.32,33.32,0,0,0-1.664,7.865c-.136,1.345-.218,2.7-.271,4.046,0,.018,0,.039,0,.057q.117.982.243,1.966,1.177-1.583,2.35-3.173.675-1.259,1.342-2.523" transform="translate(-78.27 -88.655)" fill="#7cb332"/>
        <path id="Path_612752" data-name="Path 612752" d="M260.553,297.675c2.428-6.459,4.872-12.979,5.886-19.8s.5-14.074-2.739-20.167c-3.633,7.757-7.58,15.838-7.415,24.4.106,5.493,2.089,10.526,4.268,15.569" transform="translate(-78.038 -78.472)" fill="#8dc63f"/>
        <path id="Path_612753" data-name="Path 612753" d="M263.265,296.258c.619-3,1.194-6,1.659-9.028.257-1.677.481-3.359.659-5.046.383-3.62.536-7.4-.833-10.774-1.176,3.4-2.354,6.8-3.386,10.241a37.045,37.045,0,0,0-1.712,8.267,28.665,28.665,0,0,0,.5,6.9c.208,1.145.462,2.281.739,3.411,0,.015.007.033.01.048q.33.785.668,1.568.6-1.589,1.189-3.184c.172-.8.344-1.6.509-2.406" transform="translate(-79.051 -82.645)" fill="#7cb332"/>
        <path id="Path_612754" data-name="Path 612754" d="M252.455,112.184A53.927,53.927,0,0,0,232.97,96.2c-1.475,19.621-2.214,39.362-1.785,59.033a69.084,69.084,0,0,0,14.866-9.814c4.4-4.012,8.054-9.055,9.517-14.827,1.671-6.6.477-13.655-3.112-18.407" transform="translate(-70.36 -29.293)" fill="#1c75bc"/>
        <path id="Path_612755" data-name="Path 612755" d="M234.44,96.919a6.123,6.123,0,0,0-1.182,2.222c0,.015-.006.032-.011.047q-.239,3.333-.448,6.669-.089,11.668-.177,23.336c-.03,3.958-.04,8.032,1.42,11.711a20.582,20.582,0,0,0,2.938,4.958c.663.858,2.372,3.636,3.761,3.282,1.215-.31,1.627-4.172,1.965-5.283q.978-3.219,2.163-6.37a10.437,10.437,0,0,0,.874-3.381,9.986,9.986,0,0,0-.7-3.325c-2.083-6.252-4.1-12.592-4.709-19.154a75.552,75.552,0,0,1-.019-11.236,53.52,53.52,0,0,0-5.872-3.476" transform="translate(-70.832 -29.512)" fill="#155f99"/>
        <path id="Path_612756" data-name="Path 612756" d="M85.788,42.048s-6.561-.532-12.559,8.683c15.649-3.564,24.082-.609,24.082-.609s-4.44-8.5-11.522-8.075" transform="translate(-22.298 -12.799)" fill="#808285"/>
        <path id="Path_612757" data-name="Path 612757" d="M133.074,30.3a51.6,51.6,0,0,1-6.892-10.469c2.808-2.472,3.094-7.385,1.977-10.957A12.785,12.785,0,0,0,120.6,1.091a17.93,17.93,0,0,0-11.031-.43c-4.395,1.144-8.617,3.89-10.366,8.081s-.232,9.814,3.917,11.66a51.436,51.436,0,0,1-8.6,15.576c10.946.092,21.9.185,32.839-.131a9.573,9.573,0,0,0,5.155-1.144,2.962,2.962,0,0,0,.567-4.4m-12.839-15.08a7.442,7.442,0,0,1-6.939.712,5.724,5.724,0,0,1-3.151-2.778,5.693,5.693,0,0,1-.158-3.987,6.971,6.971,0,0,1,2.365-3.411c1.493-1.18,9.03-3.184,10.754,2.964.679,2.42-.865,5.1-2.871,6.5" transform="translate(-28.78 0)" fill="#bcbec0"/>
        <path id="Path_612758" data-name="Path 612758" d="M103.621,36.835a90.028,90.028,0,0,1,5.767-15.565,10.852,10.852,0,0,1-7.482-9.912,10.885,10.885,0,0,1,4.46-8.762A13.787,13.787,0,0,0,99.2,9.533c-1.748,4.191-.232,9.815,3.916,11.661a51.415,51.415,0,0,1-8.6,15.576q4.554.039,9.107.065" transform="translate(-28.78 -0.79)" fill="#d1d3d4"/>
        <path id="Path_612759" data-name="Path 612759" d="M33.373,47.064h141.2l18.044,205.824L53.132,269.706Z" transform="translate(-10.162 -14.331)" fill="#1c75bc"/>
        <path id="Path_612760" data-name="Path 612760" d="M180.321,68.562s12.742-4.721,8.612-21.5h-17.66Z" transform="translate(-52.153 -14.331)" fill="#155f99"/>
        <path id="Path_612761" data-name="Path 612761" d="M31.052,47.064l-5.3,3.862L45.63,267.657l5.181,2.048Z" transform="translate(-7.841 -14.331)" fill="#519bd6"/>
        <path id="Path_612762" data-name="Path 612762" d="M197.862,255.607,185.423,113.723l-9.942-55.266L50.61,55.993S49.257,218.535,74.721,270.454Z" transform="translate(-15.407 -17.05)" fill="#155f99"/>
        <path id="Path_612763" data-name="Path 612763" d="M54.151,60.725l125.932-2.259c4.2,62.022,11.478,123.829,23.514,184.816-41.907,1.282-84.024,7.138-125.2,15.012C66.9,216.539,54.151,97.759,54.151,60.725" transform="translate(-16.489 -17.803)" fill="#fff"/>
        <path id="Path_612764" data-name="Path 612764" d="M176.515,59.4l5.4,12.836a15.707,15.707,0,0,0,9.343-13.1l-14.745.264" transform="translate(-53.749 -18.008)" fill="#e6e7e8"/>
        <path id="Path_612765" data-name="Path 612765" d="M110.758,40.811,137.439,39.6a51.615,51.615,0,0,1-4.694-6.764,38.375,38.375,0,0,0-8.939,1.84,69.391,69.391,0,0,0-13.048,6.139" transform="translate(-33.726 -9.997)" fill="#808285"/>
        <path id="Path_612766" data-name="Path 612766" d="M98.17,66.055l57.8.04c3.043-6.59,1.716-14.507-.711-21.661a6.24,6.24,0,0,0-5.332-4.229,257.106,257.106,0,0,0-58.635.908C97.723,44.5,98.74,56.777,98.17,66.055" transform="translate(-27.797 -11.863)" fill="#bcbec0"/>
        <path id="Path_612767" data-name="Path 612767" d="M159.332,54.673l-59.769.167a47.3,47.3,0,0,1,1.262,11.3l59.156-.313a30.144,30.144,0,0,0-.649-11.15" transform="translate(-30.317 -16.648)" fill="#d1d3d4"/>
        <path id="Path_612768" data-name="Path 612768" d="M134.031,40.868c-3.536.074-7.157.311-10.4,1.728-.579.253-1.239.721-1.123,1.343.1.54.721.783,1.253.923C131.9,47,140.415,46.9,148.747,46.288c1.637-.121,10.035.118,9.681-2.114-.474-2.982-7.776-2.623-9.831-2.808a132.079,132.079,0,0,0-14.566-.5" transform="translate(-37.301 -12.436)" fill="#d1d3d4"/>
        <path id="Path_612769" data-name="Path 612769" d="M115.44,44.667c0,.865-1.81,1.565-4.042,1.565s-4.043-.7-4.043-1.565,1.81-1.565,4.043-1.565,4.042.7,4.042,1.565" transform="translate(-32.69 -13.125)" fill="#d1d3d4"/>
        <path id="Path_612770" data-name="Path 612770" d="M215.763,131.966l-22.872,1.159-4.371-27.734,22.871-1.159ZM195.25,130.22l17.284-.876-3.5-22.207-17.283.876Z" transform="translate(-57.405 -31.739)" fill="#bcbec0"/>
        <path id="Path_612771" data-name="Path 612771" d="M225.853,201.512l-22.877,1.054-4.245-27.753,22.877-1.054Zm-20.505-1.84,17.287-.8-3.4-22.223-17.287.8Z" transform="translate(-60.514 -52.91)" fill="#bcbec0"/>
        <path id="Path_612772" data-name="Path 612772" d="M215.686,272.294l-4.734-27.675,22.855-1.458,4.735,27.675Zm-1.47-25.095,3.79,22.159,17.271-1.1L231.487,246.1Z" transform="translate(-64.235 -74.043)" fill="#bcbec0"/>
        <path id="Path_612773" data-name="Path 612773" d="M72.493,125.839a1.739,1.739,0,0,1-.055-3.477l72.063-2.3a1.739,1.739,0,0,1,.111,3.476l-72.063,2.3h-.057" transform="translate(-21.545 -36.558)" fill="#808285"/>
        <path id="Path_612774" data-name="Path 612774" d="M74.5,136.327a1.739,1.739,0,0,1-.055-3.476l72.063-2.306a1.739,1.739,0,0,1,.111,3.476l-72.063,2.3H74.5" transform="translate(-22.156 -39.751)" fill="#808285"/>
        <path id="Path_612775" data-name="Path 612775" d="M76.5,147.32a1.739,1.739,0,0,1-.055-3.477l36.032-1.152a1.739,1.739,0,1,1,.111,3.475l-36.031,1.152H76.5" transform="translate(-22.765 -43.45)" fill="#808285"/>
        <path id="Path_612776" data-name="Path 612776" d="M70.19,115.913a1.739,1.739,0,0,1-.055-3.477l36.032-1.152a1.739,1.739,0,1,1,.111,3.475l-36.031,1.153H70.19" transform="translate(-20.844 -33.886)" fill="#8dc63f"/>
        <path id="Path_612777" data-name="Path 612777" d="M86.508,198.917a1.739,1.739,0,0,1-.161-3.47l71.781-6.777a1.738,1.738,0,1,1,.326,3.461l-71.78,6.778a1.651,1.651,0,0,1-.166.008" transform="translate(-25.813 -57.448)" fill="#808285"/>
        <path id="Path_612778" data-name="Path 612778" d="M89.158,209.261a1.739,1.739,0,0,1-.161-3.47l71.781-6.777a1.738,1.738,0,1,1,.327,3.461l-71.781,6.778c-.056,0-.111.008-.166.008" transform="translate(-26.62 -60.598)" fill="#808285"/>
        <path id="Path_612779" data-name="Path 612779" d="M91.809,221.088a1.739,1.739,0,0,1-.161-3.47l35.89-3.389a1.739,1.739,0,0,1,.327,3.462l-35.89,3.389c-.056,0-.111.008-.166.008" transform="translate(-27.427 -65.231)" fill="#808285"/>
        <path id="Path_612780" data-name="Path 612780" d="M83.561,190.133a1.739,1.739,0,0,1-.161-3.47l35.89-3.388a1.738,1.738,0,1,1,.326,3.461l-35.89,3.389c-.056,0-.111.008-.166.008" transform="translate(-24.915 -55.805)" fill="#8dc63f"/>
        <path id="Path_612781" data-name="Path 612781" d="M98.754,271.553a1.738,1.738,0,0,1-.189-3.466l71.66-7.949a1.739,1.739,0,1,1,.383,3.456l-71.661,7.948a1.651,1.651,0,0,1-.193.011" transform="translate(-29.542 -79.209)" fill="#808285"/>
        <path id="Path_612782" data-name="Path 612782" d="M101.573,281.852a1.738,1.738,0,0,1-.189-3.466l71.66-7.949a1.739,1.739,0,0,1,.383,3.456l-71.661,7.948a1.645,1.645,0,0,1-.193.011" transform="translate(-30.4 -82.345)" fill="#808285"/>
        <path id="Path_612783" data-name="Path 612783" d="M104.393,293.892a1.738,1.738,0,0,1-.189-3.466l35.83-3.974a1.739,1.739,0,1,1,.383,3.456l-35.83,3.973a1.645,1.645,0,0,1-.193.011" transform="translate(-31.259 -87.222)" fill="#808285"/>
        <path id="Path_612784" data-name="Path 612784" d="M95.64,263.076a1.738,1.738,0,0,1-.19-3.466l35.83-3.975a1.739,1.739,0,1,1,.384,3.456l-35.83,3.974a1.665,1.665,0,0,1-.194.011" transform="translate(-28.594 -77.838)" fill="#8dc63f"/>
        <path id="Path_612785" data-name="Path 612785" d="M186.881,105.95c4.97,1.631,9.58,3.838,13.345,7.808,4.884-6.287,9.287-11.98,16.178-16.879a89.345,89.345,0,0,0-15,25.818,49.47,49.47,0,0,0-14.52-16.748" transform="translate(-56.906 -29.5)" fill="#39b54a"/>
        <path id="Path_612786" data-name="Path 612786" d="M197.006,178.713c4.97,1.631,9.58,3.838,13.345,7.808,4.884-6.287,9.287-11.98,16.178-16.879a89.363,89.363,0,0,0-15,25.818,49.467,49.467,0,0,0-14.519-16.748" transform="translate(-59.989 -51.656)" fill="#39b54a"/>
        <path id="Path_612787" data-name="Path 612787" d="M209.562,246.714c4.97,1.632,9.58,3.838,13.345,7.808,4.884-6.287,9.287-11.98,16.178-16.879a89.362,89.362,0,0,0-15,25.818,49.46,49.46,0,0,0-14.519-16.748" transform="translate(-63.812 -72.363)" fill="#39b54a"/>
        <path id="Path_612788" data-name="Path 612788" d="M263.979,357.136l-13.906,6.75c-.545.264-1.176.671-1.128,1.274.059.732,1.013.954,1.746.981l19.661.7v-7.978a32.467,32.467,0,0,1-6.373-1.729" transform="translate(-75.804 -108.749)" fill="#fff"/>
        <path id="Path_612789" data-name="Path 612789" d="M332.2,374.648c-1.333,2.608-7.457,5.128-11.458,7.069-.469.228-1.014.579-.972,1.1.05.632.874.823,1.506.846,4.085.146,10.6.292,16.033.438a3.375,3.375,0,0,0,3.117-4.866l-3.127-6.793c-1.75-.305-3.457,2.883-5.1,2.206" transform="translate(-97.371 -113.403)" fill="#fff"/>
        <path id="Path_612790" data-name="Path 612790" d="M322.967,200.812c-7.379,2.535-14.509,2.419-21.289,3.346-1.193,1.667-5.775,8.416-6.968,10.082l19.134,2.4a8.988,8.988,0,0,0,3.11.027,6.91,6.91,0,0,0,3.7-2.661,15.042,15.042,0,0,0,2.313-13.2" transform="translate(-89.74 -61.148)" fill="#092942"/>
        <path id="Path_612791" data-name="Path 612791" d="M284.027,183.893c2.48-3.8,5.9-6.427,9.364-5.909-.282-.042-2.957,6.186-3.369,6.9A46.058,46.058,0,0,1,285.808,191a36.373,36.373,0,0,1-4.739,4.825c-.491.411-1.825,1.965-2.249.72-.268-.788.865-3.194,1.123-3.92a41.613,41.613,0,0,1,4.085-8.726" transform="translate(-84.889 -54.177)" fill="#092942"/>
        <path id="Path_612792" data-name="Path 612792" d="M352.181,128.142,274.49,196.912l-12.326-13.922,77.691-68.77a9.3,9.3,0,0,1,12.326,13.923" transform="translate(-79.83 -34.069)" fill="#fbb040"/>
        <path id="Path_612793" data-name="Path 612793" d="M253.738,214.121l-19.247,29.457,31.573-15.534Z" transform="translate(-71.403 -65.2)" fill="#f98c6e"/>
        <rect id="Rectangle_378782" data-name="Rectangle 378782" width="94.939" height="7.477" transform="translate(186.02 153.083) rotate(-41.514)" fill="#9c681c"/>
        <path id="Path_612794" data-name="Path 612794" d="M241.394,241.285l-6.9,10.565,11.323-5.571Z" transform="translate(-71.403 -73.472)" fill="#39b54a"/>
        <path id="Path_612795" data-name="Path 612795" d="M370.41,114.22l-7.9,7,12.326,13.922,7.9-7A9.3,9.3,0,0,0,370.41,114.22" transform="translate(-110.384 -34.069)" fill="#f98c6e"/>
        <rect id="Rectangle_378783" data-name="Rectangle 378783" width="7.477" height="18.595" transform="translate(247.826 90.951) rotate(-41.519)" fill="#fff"/>
        <g id="Group_1074044" data-name="Group 1074044" transform="translate(163.089 80.95)" opacity="0.25">
          <g id="Group_1074043" data-name="Group 1074043">
            <g id="Group_1074042" data-name="Group 1074042" clip-path="url(#clip-path-3)">
              <path id="Path_612796" data-name="Path 612796" d="M343.754,129.515a9.288,9.288,0,0,0,.8-13.125L234.491,213.818l31.573-15.534Z" transform="translate(-234.492 -116.391)" fill="#231f20"/>
            </g>
          </g>
        </g>
        <path id="Path_612797" data-name="Path 612797" d="M328.85,191.718c1.791,3.2,1.933,11.96,1.109,15.533,2.741.461,5.833-3.886,8.574-3.425a22.989,22.989,0,0,1-.862-10.114c.156-1.116.362-2.372-.317-3.272-.858-1.139-2.615-1.021-3.943-.5s-3.139,1.892-4.56,1.782" transform="translate(-100.136 -57.721)" fill="#e67a5c"/>
        <path id="Path_612798" data-name="Path 612798" d="M298.855,264.727s-17.168,15.99-20.877,28.741-8.95,34.311-8.95,34.311l9.569,1.876,9.813-30.392,15.533-16.228s.72-15.983-5.088-18.308" transform="translate(-81.919 -80.61)" fill="#092942"/>
        <path id="Path_612799" data-name="Path 612799" d="M306.463,264.727a126.139,126.139,0,0,0-12.449,13.8c.933,4.894,2.052,9.761,3.151,14.532q.463,2.01.954,4.014l13.432-14.033s.72-15.983-5.088-18.308" transform="translate(-89.528 -80.61)" fill="#051d2e"/>
        <path id="Path_612800" data-name="Path 612800" d="M329.488,248.724c-.872,2.32-7.376,5.254-9.86,5.734a6.758,6.758,0,0,1-5.875-2.074c-1.507-1.518-3-3.42-3.028-5.533-.428-31.374,5.391-37.978,10.682-43.2,4.624-4.567,10.863-3.74,14.386,1.622,3.9,5.931,1.835,13.936.274,20.295-2.113,8.607-3.059,13.8-6.579,23.159" transform="translate(-94.61 -61.107)" fill="#0e4066"/>
        <path id="Path_612801" data-name="Path 612801" d="M323.073,240.389a50.638,50.638,0,0,0,9.474-29.056,41.26,41.26,0,0,1-9.337,14.23,10.035,10.035,0,0,1-2.039,1.754c-2.2,1.319-4.986,1.006-7.476.4-.549-.134-1.1-.278-1.655-.42-.447,2.9-.787,6.248-1,10.129a74.63,74.63,0,0,0,12.028,2.961" transform="translate(-94.714 -64.351)" fill="#092942"/>
        <path id="Path_612802" data-name="Path 612802" d="M325.454,285.867c2.3-7.071,3.974-10.943,3.717-18.629-11.9,3.621-19.147-2.511-19.147-2.511-1.864,16.991-2.3,26.1-.006,43.048,1.348,9.95,11.4,24.394,17.058,32.948,2.44-.612,3.558-1.108,6-1.72-2.1-7.9-5.953-22.156-10.136-29.314.985-8.88-.3-15.18,2.515-23.822" transform="translate(-93.926 -80.61)" fill="#092942"/>
        <path id="Path_612803" data-name="Path 612803" d="M296.743,178.633c1.93-1.593,5.581-2.447,7.88-1.458.591.255,1.2.714,1.224,1.358.033.825-.869,1.337-1.65,1.606a20.688,20.688,0,0,1-7.569,1.1c-.812-.233-1.815-1.016.115-2.61" transform="translate(-90.021 -53.821)" fill="#f98c6e"/>
        <path id="Path_612804" data-name="Path 612804" d="M318.989,226.055a5.306,5.306,0,0,0,2.249-.176,4.972,4.972,0,0,0,2.324-2.511,34.981,34.981,0,0,0,3.7-10.919,7.156,7.156,0,0,0-1.954-6.492,21.99,21.99,0,0,0-8.065,14.5c-1.2-.034-2.471-.056-3.729-.081-.386,1.575-.735,3.311-1.036,5.255l6.506.426" transform="translate(-95.152 -62.714)" fill="#092942"/>
        <path id="Path_612805" data-name="Path 612805" d="M283.353,223.409a5.131,5.131,0,0,0-2.389-2.023,2,2,0,0,0-2.565,1.2c-.323,1.484,1.657,2.885,1.062,4.281-.171.4-.53.693-.73,1.08a2.086,2.086,0,0,0,.483,2.3,5.718,5.718,0,0,0,2.146,1.252,8.519,8.519,0,0,0,3.4.782,2.681,2.681,0,0,0,1.936-.791c.928-1.063-.131-2.653-.636-3.672a28.611,28.611,0,0,0-2.7-4.405" transform="translate(-84.762 -67.383)" fill="#f98c6e"/>
        <path id="Path_612806" data-name="Path 612806" d="M310.266,221.919c2.123-8.583,1.859-10.665,4.895-16.308a9.426,9.426,0,0,1,4.868-3.965,6.014,6.014,0,0,1,6.008.634,6.092,6.092,0,0,1,1.981,4.387,14.683,14.683,0,0,1-.769,4.868c-3.238,11.029-4.926,12.607-11.666,21.919-9.189-.86-21.325-2.765-27.841-6.2-1.324-.7-1.409-2.946-.616-4.215.858-1.373,2.833-1.4,4.425-1.1,5.113.954,10.9.131,18.714-.016" transform="translate(-87.276 -61.246)" fill="#0e4066"/>
        <path id="Path_612807" data-name="Path 612807" d="M267.953,352.415l11.273,3.043-1.216,3.825-11.03-2.927Z" transform="translate(-81.296 -107.311)" fill="#0e4066"/>
        <path id="Path_612808" data-name="Path 612808" d="M340.944,367.154l-8.144,3.717,1.776,3.651,7.882-3.651Z" transform="translate(-101.339 -111.799)" fill="#0e4066"/>
        <path id="Path_612809" data-name="Path 612809" d="M270.352,370.029v-2.153L249.27,367.6a.935.935,0,0,0-.325.746c.058.732,1.012.954,1.746.981l19.661.7" transform="translate(-75.804 -111.935)" fill="#808285"/>
        <path id="Path_612810" data-name="Path 612810" d="M320.426,385.816c-.364.222-.686.522-.653.926.051.632.874.823,1.506.846,4.085.146,10.6.291,16.033.437a3.371,3.371,0,0,0,3.4-2.715q-10.141.367-20.289.506" transform="translate(-97.371 -117.328)" fill="#808285"/>
        <path id="Path_612811" data-name="Path 612811" d="M318.31,181.483c-.28,2.235.008,5.694,1.5,7.377a5.52,5.52,0,0,0,5.059,1.493,12.081,12.081,0,0,0,4.916-2.379,31.028,31.028,0,0,0,6.664-6.666c1.742-2.377,3.187-5.378,2.313-8.192a8.125,8.125,0,0,0-4.359-4.548,11.129,11.129,0,0,0-7.653-1c-6.425,1.671-7.753,8.409-8.445,13.918" transform="translate(-96.897 -50.934)" fill="#f98c6e"/>
        <path id="Path_612812" data-name="Path 612812" d="M333.091,176.114a7.353,7.353,0,0,0-6.014-8.879,18.183,18.183,0,0,0-5.372.342,9.463,9.463,0,0,1-5.313-.4,6.544,6.544,0,0,1-3.14-3.434,11.345,11.345,0,0,1-.765-4.663,9.3,9.3,0,0,1,.572-3.279,4.761,4.761,0,0,1,2.13-2.491,3.786,3.786,0,0,1,5.333,4.57,11.193,11.193,0,0,1,5.076-3.962c1.23-.5,2.8-.716,3.749.218a2.685,2.685,0,0,1,.63,2.351,6.89,6.89,0,0,1-.984,2.315,8.5,8.5,0,0,1,7.352-2.352,1.445,1.445,0,0,1,.818.345,1.421,1.421,0,0,1,.09,1.467,6.124,6.124,0,0,1-2.837,3.258c1.979.772,4.073,1.632,5.292,3.37a7.243,7.243,0,0,1,1.1,4.745,10.06,10.06,0,0,1-4.573,7.651,3,3,0,0,1-1.988.57,1.615,1.615,0,0,1-1.157-1.744" transform="translate(-95.152 -46.559)" fill="#092942"/>
        <path id="Path_612813" data-name="Path 612813" d="M342.526,184.193a1.926,1.926,0,0,1,1.38-.215,1.457,1.457,0,0,1,.916,1.214,3.075,3.075,0,0,1-.282,1.561,7.248,7.248,0,0,1-3.652,3.788,1.143,1.143,0,0,1-1.056.079c-.869-.547-.578-2.877-.223-3.71a6.158,6.158,0,0,1,2.917-2.716" transform="translate(-103.306 -56.004)" fill="#f98c6e"/>
        <path id="Path_612814" data-name="Path 612814" d="M330.6,181.088c-.4,1.013-1.175,1.657-1.724,1.439s-.667-1.217-.264-2.23,1.175-1.657,1.724-1.439.667,1.217.264,2.23" transform="translate(-99.991 -54.45)" fill="#092942"/>
        <path id="Path_612815" data-name="Path 612815" d="M322.321,181.088c-.4,1.013-1.176,1.657-1.725,1.439s-.667-1.217-.263-2.23,1.175-1.657,1.723-1.439.667,1.217.264,2.23" transform="translate(-97.469 -54.45)" fill="#092942"/>
        <path id="Path_612816" data-name="Path 612816" d="M321.711,186.29a3.1,3.1,0,0,0-.677.264.64.64,0,0,0-.329.6.739.739,0,0,0,.5.5,2.089,2.089,0,0,0,2.207-.517,2.554,2.554,0,0,0,.62-2.228c-.043-.227-.214-.7-.521-.522-.208.118-.276.6-.4.8a2.657,2.657,0,0,1-1.4,1.1" transform="translate(-97.654 -56.137)" fill="#d1684b"/>
        <path id="Path_612817" data-name="Path 612817" d="M327.26,191.975a2.853,2.853,0,0,1-.639-.072.347.347,0,1,1,.155-.677,2.246,2.246,0,0,0,2.712-1.8.348.348,0,0,1,.685.121,2.935,2.935,0,0,1-2.913,2.428" transform="translate(-99.375 -57.593)" fill="#d1684b"/>
        <path id="Path_612818" data-name="Path 612818" d="M264.295,112.787a20.447,20.447,0,0,1-7.212,4.7c-5.582,8.767-1.235,9.87,3.3,7.376q2.7-1.485,5.4-2.973a1.383,1.383,0,0,0,.7-2.118c-.758-2.179-.469-5.445-2.189-6.982" transform="translate(-77.481 -34.344)" fill="#e67a5c"/>
        <path id="Path_612819" data-name="Path 612819" d="M236.71,216.246a38.444,38.444,0,0,0-3.009,4.986,1.624,1.624,0,0,0-.246,1.174,1.11,1.11,0,0,0,.859.69,3.277,3.277,0,0,0,1.149-.034,33.026,33.026,0,0,0-1.154,5.491,1.066,1.066,0,0,0,.876.927c.554.04,2.053-2.08,3.27-4.192a13.249,13.249,0,0,0,2.557-1.279,4.364,4.364,0,0,0,1.746-2.165,4.739,4.739,0,0,0-.859-4.028,5.791,5.791,0,0,0-1.879-1.806c-.764-.431-2.454.047-3.311.236" transform="translate(-71.075 -65.722)" fill="#f98c6e"/>
        <path id="Path_612820" data-name="Path 612820" d="M257.948,134.723c1.227,20.082-5.423,42.057-14.525,60.142a14.885,14.885,0,0,1-6.752-.7,250.068,250.068,0,0,1,8.338-46.613c.693-2.593,1.459-5.265,3.185-7.319s7.28-6.553,9.754-5.513" transform="translate(-72.067 -40.977)" fill="#1c75bc"/>
        <path id="Path_612821" data-name="Path 612821" d="M275.811,123.5c-1.906,1.424-5.29,3.014-7.745,2.637a6.04,6.04,0,0,1-4.4-3.5,11.092,11.092,0,0,1-.725-5.432,28.379,28.379,0,0,1,2.212-9.189c1.166-2.737,3.089-5.556,6.222-6.308A9.784,9.784,0,0,1,278.193,103a11.679,11.679,0,0,1,5.5,5.959c2.283,6.336-3.178,11.037-7.879,14.546" transform="translate(-80.05 -30.914)" fill="#f98c6e"/>
        <path id="Path_612822" data-name="Path 612822" d="M265.308,105.357c3.784,1.089,6.716.52,8.611-3.137.938,4.313,9.1,18.993,17,11.965-3.875-2-3.65-6.065-4.947-10.018A9.973,9.973,0,0,0,283.4,99.85a6.259,6.259,0,0,0-4.912-1.7,18.737,18.737,0,0,0,3-1.394c.319-.184.664-.426.686-.77.032-.5-.611-.8-1.156-.88a5.225,5.225,0,0,0-3.909,1,5.964,5.964,0,0,0-2.737-3.523,2.628,2.628,0,0,0-1.1-.408,1.15,1.15,0,0,0-1.039.409,1.269,1.269,0,0,0-.116.923,6.028,6.028,0,0,0,1.632,3.219,7.736,7.736,0,0,0-6.828,2.842,18.917,18.917,0,0,0-3.153,6.518c.369-.116,1.182-.611,1.55-.727" transform="translate(-80.315 -28.066)" fill="#092942"/>
        <path id="Path_612823" data-name="Path 612823" d="M267.157,108.924a1.878,1.878,0,0,0-.624-1.285,1.753,1.753,0,0,0-1.673-.133,3.235,3.235,0,0,0-1.28,1.068,6.674,6.674,0,0,0-1.337,5.107,1.137,1.137,0,0,0,.556.938c1.027.447,3.016-1.036,3.577-1.78a5.639,5.639,0,0,0,.78-3.915" transform="translate(-79.83 -32.691)" fill="#f98c6e"/>
        <path id="Path_612824" data-name="Path 612824" d="M278.522,118.453c-.7.88-.837,1.876-.307,2.226s1.527-.081,2.227-.96.837-1.876.307-2.226-1.528.08-2.228.96" transform="translate(-84.619 -35.74)" fill="#092942"/>
        <path id="Path_612825" data-name="Path 612825" d="M283.464,125.477c-.7.88-.837,1.876-.307,2.226s1.527-.081,2.227-.96.837-1.876.307-2.226-1.528.08-2.228.96" transform="translate(-86.124 -37.879)" fill="#092942"/>
        <path id="Path_612826" data-name="Path 612826" d="M278.912,128.384a2.845,2.845,0,0,1,.159.714.623.623,0,0,1-.365.6.882.882,0,0,1-.763-.159,2.009,2.009,0,0,1-.837-2.146,2.613,2.613,0,0,1,1.7-1.708c.236-.083.774-.188.795.166.015.239-.392.552-.506.762a2.416,2.416,0,0,0-.18,1.771" transform="translate(-84.362 -38.247)" fill="#d1684b"/>
        <path id="Path_612827" data-name="Path 612827" d="M270.572,126.473a2.981,2.981,0,0,0,.447.5.412.412,0,0,0,.543,0,.323.323,0,0,0-.006-.492,2.212,2.212,0,0,1-.744-1.646,2.169,2.169,0,0,1,.8-1.609.324.324,0,0,0,.022-.491.413.413,0,0,0-.542-.026,2.73,2.73,0,0,0-.515,3.759" transform="translate(-82.229 -37.339)" fill="#d1684b"/>
        <path id="Path_612828" data-name="Path 612828" d="M155.687,327.873a16.475,16.475,0,0,1,4.73-.184,5.556,5.556,0,0,1,3.949,2.363c1.008,1.65.737,3.766.22,5.629a48.9,48.9,0,0,1-4.5,10.14c-4.147,7.627-8.512,15.133-12.875,22.638a13.46,13.46,0,0,1-4.135-.258,4.12,4.12,0,0,1-2.764-2.615,6.1,6.1,0,0,1,.11-2.766q2.387-12.215,4.773-24.432c.513-2.627,1.073-5.361,2.718-7.473s5.425-4.318,7.778-3.042" transform="translate(-42.687 -99.724)" fill="#092942"/>
        <path id="Path_612829" data-name="Path 612829" d="M163.591,343.776a7.985,7.985,0,0,1-.444-.74,26.867,26.867,0,0,1-2.89-10.281,25.963,25.963,0,0,1,.138-5.124c-.769.051-1.539.154-2.3.258a3.125,3.125,0,0,0-1.115-.339q-1.96.513-3.915,1.049a9.9,9.9,0,0,0-2.747,2.333,13.269,13.269,0,0,0-2.23,5.176c.971,1.323,1.884,2.7,2.829,4.035a64.78,64.78,0,0,0,9.056,10.254c.845-1.517,1.689-3.034,2.518-4.56q.558-1.026,1.1-2.061" transform="translate(-45.092 -99.74)" fill="#051d2e"/>
        <path id="Path_612830" data-name="Path 612830" d="M157.06,353.466a48.813,48.813,0,0,0-4.624-6.6c-1.536-1.746-3.791-3.384-6.009-2.686-.1.033-.2.081-.3.123l-2.291,11.727a6.261,6.261,0,0,1,1.12.373,11.609,11.609,0,0,1,5.3,6.057,21.705,21.705,0,0,1,1.353,5.359q3.463-5.981,6.844-12.008c-.442-.8-.919-1.578-1.4-2.345" transform="translate(-43.799 -104.753)" fill="#051d2e"/>
        <path id="Path_612831" data-name="Path 612831" d="M93.71,287.546a176.681,176.681,0,0,0,33.546,29.881c-1.166,1.493-2.5,3.117-4.378,3.353-1.541.194-3.016-.6-4.367-1.365-6.17-3.5-12.427-7.068-17.4-12.132a26.789,26.789,0,0,1-7.406-19.737" transform="translate(-28.522 -87.558)" fill="#8dc63f"/>
        <path id="Path_612832" data-name="Path 612832" d="M93.71,287.546a26.79,26.79,0,0,0,7.406,19.737,45.234,45.234,0,0,0,5.111,4.422c.036-1.342.051-2.685.029-4.028-.04-2.5-.178-5.012-.416-7.512q-6.37-6.007-12.13-12.618" transform="translate(-28.522 -87.558)" fill="#7cb332"/>
        <path id="Path_612833" data-name="Path 612833" d="M71.085,282.481q-5.141,1.934-10.12,4.137a6.977,6.977,0,0,0-3.19,2.195c-.881,1.383-.394,3.112.118,4.665q6.407,19.4,14.354,38.458c.333.8,4.807,11.91,5.663,12.04,4.622.7,5.583-9.656,10.215-10a7.657,7.657,0,0,0,3.575-.886,5.454,5.454,0,0,0,2.025-3.544c1.488-5.969-4.094-36.093-7.875-41.794s-7.888-7.863-14.764-5.276" transform="translate(-17.445 -85.687)" fill="#8dc63f"/>
        <path id="Path_612834" data-name="Path 612834" d="M94.289,326.847a6,6,0,0,0,1.828.367c-.282-2.664-.7-5.665-1.225-8.761a40.048,40.048,0,0,1-8.957-2.384A48.747,48.747,0,0,1,80.9,313.75,84.48,84.48,0,0,1,65.6,302.839a48.772,48.772,0,0,0,6.294,9.71,43.168,43.168,0,0,0,8.026,6.56,62.474,62.474,0,0,0,14.372,7.738" transform="translate(-19.974 -92.215)" fill="#7cb332"/>
        <path id="Path_612835" data-name="Path 612835" d="M77.574,272.77a21.166,21.166,0,0,0-.284,8.069,2.084,2.084,0,0,1-2.213,2.421,20.565,20.565,0,0,1-3.185-.476,2.492,2.492,0,0,1-1.141-.5,2.634,2.634,0,0,1-.641-1.575q-.651-3.891-1.3-7.783a3.276,3.276,0,0,1,.142-2.189,3.076,3.076,0,0,1,2.684-1.107,7.212,7.212,0,0,1,3.235.479c1,.456,2.954,1.584,2.706,2.656" transform="translate(-20.916 -82.102)" fill="#e67a5c"/>
        <path id="Path_612836" data-name="Path 612836" d="M82.586,259.1c.648,2.29.924,6.018-.3,8.176a6.042,6.042,0,0,1-4.841,2.863,11.087,11.087,0,0,1-5.333-1.264,28.373,28.373,0,0,1-7.791-5.35c-2.14-2.068-4.085-4.871-3.667-8.066a9.777,9.777,0,0,1,3.637-5.912,11.679,11.679,0,0,1,7.529-3c6.734.132,9.172,6.913,10.77,12.557" transform="translate(-18.45 -75.073)" fill="#f98c6e"/>
        <path id="Path_612837" data-name="Path 612837" d="M77.8,260.906c.572.968,1.453,1.453,1.969,1.082s.472-1.455-.1-2.423-1.453-1.453-1.969-1.082-.472,1.455.1,2.423" transform="translate(-23.549 -78.671)" fill="#092942"/>
        <path id="Path_612838" data-name="Path 612838" d="M86.123,258.8c.572.968,1.453,1.453,1.969,1.082s.472-1.455-.1-2.423-1.453-1.453-1.969-1.082-.472,1.455.1,2.423" transform="translate(-26.085 -78.03)" fill="#092942"/>
        <path id="Path_612839" data-name="Path 612839" d="M87.178,264.283a2.844,2.844,0,0,1,.724.107.621.621,0,0,1,.429.555.881.881,0,0,1-.421.656,2.006,2.006,0,0,1-2.3.015,2.612,2.612,0,0,1-.989-2.195c.006-.25.1-.79.439-.684.228.072.376.564.531.745a2.418,2.418,0,0,0,1.59.8" transform="translate(-25.766 -80)" fill="#d1684b"/>
        <path id="Path_612840" data-name="Path 612840" d="M82.3,271.757a3,3,0,0,0,.631-.238.411.411,0,0,0,.195-.506.323.323,0,0,0-.461-.17,2.212,2.212,0,0,1-1.8.107,2.173,2.173,0,0,1-1.219-1.319.323.323,0,0,0-.451-.2.412.412,0,0,0-.218.5,2.73,2.73,0,0,0,3.327,1.825" transform="translate(-24.041 -82.034)" fill="#d1684b"/>
        <path id="Path_612841" data-name="Path 612841" d="M63.133,258.9a8.491,8.491,0,0,0,.426-10.163,55.5,55.5,0,0,0,11.654-2.98c1.64-.609,3.381-1.408,4.175-2.966a5.619,5.619,0,0,0,.252-3.8c-.883-3.818-3.778-6.837-6.842-9.279l1.617,4.834a18.253,18.253,0,0,0-5.3-3.919,39.259,39.259,0,0,1,2.6,6.806,19.484,19.484,0,0,0-11.02,1.859c-3.307,1.808-5.877,5.241-5.931,9.009a10.42,10.42,0,0,0,2.354,6.5c1.456,1.844,3.911,3.052,6.015,4.1" transform="translate(-16.676 -69.949)" fill="#092942"/>
        <path id="Path_612842" data-name="Path 612842" d="M64.978,267.487a1.877,1.877,0,0,0-1.423.124,1.752,1.752,0,0,0-.722,1.515,3.237,3.237,0,0,0,.54,1.577,6.677,6.677,0,0,0,4.292,3.074,1.136,1.136,0,0,0,1.075-.185c.784-.8.11-3.186-.384-3.977a5.642,5.642,0,0,0-3.377-2.128" transform="translate(-19.133 -81.426)" fill="#f98c6e"/>
        <path id="Path_612843" data-name="Path 612843" d="M64.681,317.56a85.623,85.623,0,0,0,15.883,10.517,53.767,53.767,0,0,0,14.5,4.851c-.081-1.9-.294-4.182-.609-6.678-2.235-.8-4.447-1.657-6.623-2.6A112.013,112.013,0,0,1,61,307.181q1.785,5.2,3.683,10.379" transform="translate(-18.574 -93.537)" fill="#7cb332"/>
        <path id="Path_612844" data-name="Path 612844" d="M67.921,297.759c1.476,6.132,6.723,11.239,12.97,14.514s13.452,4.94,20.615,6.264a4.821,4.821,0,0,1,.844,1.879,1.815,1.815,0,0,1-.715,1.933,3.758,3.758,0,0,1-1.972.409,48.781,48.781,0,0,1-25.7-6.732,38.7,38.7,0,0,1-16.111-18.391,8.511,8.511,0,0,1-.784-3.409,3.765,3.765,0,0,1,1.655-3.068c1.8-1.162,4.534-.556,6.12.812a11.761,11.761,0,0,1,3.08,5.789" transform="translate(-17.376 -88.471)" fill="#8dc63f"/>
        <path id="Path_612845" data-name="Path 612845" d="M149.669,318.276c.3,1.3.258,5.006.515,6.668-12.682,4.592-25.861,6.385-39.414,10.179l-6.428,1.8a3.242,3.242,0,0,1-2.354.051c-.713-.375-.919-1.615-.174-1.919,13.765-5.615,26.983-12.671,41.111-17.3a11.373,11.373,0,0,1,3.272-.716c1.12-.023,3.222.145,3.473,1.238" transform="translate(-30.86 -96.538)" fill="#92c6f0"/>
        <path id="Path_612846" data-name="Path 612846" d="M123.137,295.405l32.839-4.836a2.424,2.424,0,0,1,2.742,2.83,209.855,209.855,0,0,0-3,23.477c-11.623,1.55-22.751,2.941-36.19,4.982.892-9.069,1.319-16.273,1.533-24.111a2.431,2.431,0,0,1,2.073-2.342" transform="translate(-36.397 -88.471)" fill="#92c6f0"/>
        <path id="Path_612847" data-name="Path 612847" d="M152.247,311.924c-.393,2.255-2.245,3.815-4.138,3.485s-3.107-2.424-2.715-4.679,2.246-3.816,4.137-3.485,3.107,2.425,2.715,4.679" transform="translate(-44.251 -93.543)" fill="#a6d7ff"/>
        <path id="Path_612848" data-name="Path 612848" d="M88.884,362.876c4,1.44,8.829,1.055,12.867-.263,9.329-3.044,16.759-10.027,23.855-16.805,4.91,7.093,10.882,13.906,15.793,21,1.051,1.519,2.2,3.121,3.93,3.783s6.189-4.686,5.975-6.1a12.692,12.692,0,0,0-1.559-3.985,226,226,0,0,0-13.715-22.108c-1.867-2.7-3.993-5.533-7.125-6.507-3.264-1.015-6.75.255-9.948,1.458-10.3,3.875-18.628,5.118-30.072,8.691-13.1,4.09-6.469,18.511,0,20.84" transform="translate(-24.77 -100.948)" fill="#092942"/>
        <path id="Path_612849" data-name="Path 612849" d="M192.724,382.719c.451.088.989.255,1.094.7.126.538-.475.942-.985,1.155-5.132,2.144-10.718,2.907-16.229,3.652a3.715,3.715,0,0,1-2.052-.112,3.357,3.357,0,0,1-1.477-1.86,4.435,4.435,0,0,1-.464-2.422,3.952,3.952,0,0,1,2.166-2.595,8.583,8.583,0,0,1,3-1.307,16.942,16.942,0,0,1,3.215.6q3.787.673,7.566,1.388,2.083.393,4.165.8" transform="translate(-52.55 -115.69)" fill="#fff"/>
        <path id="Path_612850" data-name="Path 612850" d="M137.654,385.54a3.453,3.453,0,0,0-.083,2.306,2.518,2.518,0,0,0,1.546,1.3,7.206,7.206,0,0,0,2.054.28c3.713.136,7.431.124,11.146.113a19.33,19.33,0,0,0,3.115-.177c.576-.1,1.284-.43,1.212-1.009-.05-.411-.479-.649-.855-.819q-4.193-1.891-8.482-3.554-2.177-.844-4.376-1.626c-.826-.294-2.4-1.2-3.308-.826-1.125.459-1.664,2.968-1.97,4.01" transform="translate(-41.84 -116.15)" fill="#fff"/>
      </g>
    </g>
  </g>
</svg>
